<?xml version="1.0" standalone="no"?>
<!DOCTYPE svg PUBLIC "-//W3C//DTD SVG 1.1//EN" "http://www.w3.org/Graphics/SVG/1.1/DTD/svg11.dtd" >
<svg xmlns="http://www.w3.org/2000/svg">
<metadata></metadata>
<defs>
<font id="serliolhroman" horiz-adv-x="530" >
<font-face units-per-em="2048" ascent="1638" descent="-410" />
<missing-glyph horiz-adv-x="587" />
<glyph horiz-adv-x="0" />
<glyph unicode="&#xd;" horiz-adv-x="681" />
<glyph unicode=" "  horiz-adv-x="587" />
<glyph unicode="&#x09;" horiz-adv-x="587" />
<glyph unicode="&#xa0;" horiz-adv-x="587" />
<glyph unicode="!" horiz-adv-x="454" d="M72 1053q10 2 26 2q20 0 31 -2q23 -23 36 -49.5t13 -75.5l2 -699h101v701q0 45 19 79.5t28 39.5q16 4 61 4v22q-51 0 -121 -6q-33 -4 -41 -4q-6 0 -53 4q-49 6 -59 6q-29 0 -43 -2v-20zM160 61q0 -29 20.5 -49t48.5 -20q29 0 49.5 20.5t20.5 48.5q0 29 -20.5 49.5 t-49.5 20.5t-49 -20.5t-20 -49.5z" />
<glyph unicode="&#x22;" d="M135 1034q0 -14 4 -45q2 -16 2 -28l11 -105q2 -29 26 -29q25 0 27 29l10 105q2 12 2 28q4 31 4 45q0 51 -43 51t-43 -51zM309 1034q0 -14 4 -45q2 -16 2 -28l11 -105q2 -29 26 -29q25 0 27 29l10 105q2 12 2 28q4 31 4 45q0 51 -43 51t-43 -51z" />
<glyph unicode="#" horiz-adv-x="1024" d="M145 344h185l-45 -344h53l45 344h207l-47 -344h53l47 344h193v53h-185l35 262h193v54h-185l45 344h-53l-47 -344h-205l45 344h-53l-45 -344h-193v-54h185l-35 -262h-193v-53zM391 397l35 262h207l-37 -262h-205z" />
<glyph unicode="$" horiz-adv-x="833" d="M106 240q0 -8 13 -56q12 -47 17 -74.5t5 -52.5l95 -30h2q84 -29 106.5 -34t50.5 -5v-166h39v166q106 10 193.5 77.5t87.5 180.5q0 102 -68.5 180t-214.5 188v330q43 -2 77 -23.5t56.5 -51t34.5 -55.5t12 -32q0 -14 -12 -49l-2 -8l16 -6q10 23 13.5 38t3.5 40 q0 35 -3 63.5t-10 63.5l-2 6q-70 31 -100.5 40t-81.5 15v139h-39v-139q-100 -10 -157.5 -59t-57.5 -142q0 -39 10.5 -67.5t33 -56t63.5 -63.5t110 -91v-477q-51 4 -99 25.5t-86 53t-59.5 67.5t-21.5 69q0 25 14 59l-22 10l-2 -4q-4 -12 -9.5 -31.5t-5.5 -37.5zM266 817 q0 39 13.5 64.5t34 39t39 18.5t42.5 9h2v-307q-23 16 -53.5 42t-44.5 42q-14 18 -23.5 44t-9.5 48zM432 29v444q96 -70 138 -130t42 -132q0 -82 -49 -129t-131 -53z" />
<glyph unicode="%" horiz-adv-x="1669" d="M92 768q0 -131 87 -208t200 -77q121 0 204 85t83 212q0 131 -86 216t-197 85q-129 0 -210 -91t-81 -222zM184 807q0 100 45 168.5t148 68.5q63 0 104 -35.5t60.5 -86t25.5 -92.5t6 -62q0 -72 -16 -121t-44 -76.5t-59.5 -39t-62.5 -11.5q-57 0 -97 24.5t-64.5 65.5 t-35 92.5t-10.5 104.5zM344 -23h80l895 1108h-72zM999 272q0 -131 87.5 -207.5t199.5 -76.5q121 0 204 85t83 212q0 131 -86 216t-197 85q-129 0 -210 -91.5t-81 -222.5zM1092 311q0 100 45 169t147 69q63 0 104.5 -36t60.5 -86t25.5 -92t6.5 -63q0 -72 -16.5 -121 t-44 -76.5t-59.5 -38.5t-63 -11q-57 0 -97 24.5t-64.5 65.5t-34.5 92t-10 104z" />
<glyph unicode="&#x26;" horiz-adv-x="1138" d="M129 340q0 -78 37 -143.5t102.5 -110.5t152.5 -69.5t183 -24.5q102 0 196.5 34.5t149.5 96.5q43 49 66.5 91t23.5 93q0 68 -30.5 121t-89.5 80q-49 23 -113 22q-57 0 -82 -4l-4 4q43 27 85 63t78 80t56.5 90t20.5 89q0 84 -62 84q-35 0 -74 -39t-55 -78l16 -4 q14 20 26.5 31.5t29.5 11.5q45 0 45 -63q0 -29 -18.5 -63t-47 -68.5t-58.5 -61.5t-52 -43q-10 -8 -39 -27q-104 -68 -168 -131t-64 -147q0 -35 20.5 -64.5t63.5 -29.5t78 24.5t62 65.5l-15 12l-6 -6q-18 -20 -37.5 -34.5t-46.5 -14.5q-66 0 -65 65q0 41 20.5 78t56 66.5 t80.5 46t90 16.5q78 0 137.5 -54t59.5 -157q0 -63 -26.5 -109t-71.5 -75t-101.5 -43t-115.5 -14q-72 0 -141.5 25.5t-123 70.5t-85 105.5t-31.5 127.5q0 47 19.5 103.5t55.5 93.5q55 55 116 94t145 76v25q-14 -6 -31 -9.5t-47 -3.5q-76 0 -120 42t-44 106q0 88 52 127 t122 39t117 -35t84 -92q-12 -29 -21 -43l19 -9q23 31 22 78q0 41 -22 90q-6 14 -7 17l-6 -2q-18 -6 -26 -6q-12 0 -52 12q-76 25 -120 24q-115 0 -195 -73.5t-80 -167.5q0 -66 55.5 -111t127.5 -61v-4q-127 -43 -202 -129t-75 -197z" />
<glyph unicode="'" horiz-adv-x="303" d="M109 1034q0 -14 4 -45q2 -16 2 -28l10 -105q2 -29 27 -29t26 29l10 105q2 12 2 28q4 31 5 45q0 51 -43 51t-43 -51z" />
<glyph unicode="(" horiz-adv-x="454" d="M137 483q0 -190 43 -332.5t109 -279.5h63l-10 25q-63 133 -98 254.5t-35 306.5q0 184 38 317t126 322h-72q-76 -154 -120 -309.5t-44 -303.5z" />
<glyph unicode=")" horiz-adv-x="454" d="M82 -129h72q78 154 120.5 309.5t42.5 302.5q0 193 -43 334t-108 279h-64l11 -25q63 -133 98 -255t35 -306t-37 -317.5t-127 -321.5z" />
<glyph unicode="*" horiz-adv-x="679" d="M100 936q0 -31 47 -51q20 -8 62 -21q78 -27 123 -47q-18 -6 -64 -20q-66 -23 -102 -31q-59 -16 -60 -53q0 -45 46 -45q16 0 38.5 17t63.5 56q49 45 80 70l4 -4q-8 -68 -33 -150q-10 -37 -10 -49q0 -55 45 -55t45 55q0 12 -10 49q-25 82 -33 150l4 4q31 -25 80 -70 q41 -39 63.5 -56t38.5 -17q45 0 45 45q0 37 -59 53q-35 8 -102 31q-43 14 -64 20q45 20 123 47q41 12 61 21q47 20 48 51q0 18 -14.5 30.5t-33.5 12.5q-16 0 -35.5 -14.5t-76.5 -67.5l-74 -70l-4 4q8 68 33 150q10 37 10 49q0 55 -45 55t-45 -55q0 -12 10 -49 q25 -82 33 -150l-4 -4l-74 70q-57 53 -76.5 67.5t-36.5 14.5q-18 0 -32.5 -12.5t-14.5 -30.5z" />
<glyph unicode="+" horiz-adv-x="1228" d="M172 406h406v-406h73v406h406v73h-406v406h-73v-406h-406v-73z" />
<glyph unicode="," horiz-adv-x="380" d="M119 61q0 -31 16.5 -50t46.5 -19q35 0 43 20h4q0 -27 -19.5 -60.5t-53.5 -68.5l14 -16q43 39 69.5 85t26.5 93q0 86 -78 86q-31 0 -50 -20.5t-19 -49.5z" />
<glyph unicode="-" horiz-adv-x="606" d="M39 393h20q2 2 11 17q8 14 10 16q39 4 67.5 6t59.5 2h293l39 74q-23 -2 -61 -5t-77 -3h-297q-18 -25 -38.5 -57.5t-26.5 -49.5z" />
<glyph unicode="." horiz-adv-x="380" d="M121 61q0 -29 20.5 -49t48.5 -20q29 0 49.5 20.5t20.5 48.5q0 29 -20.5 49.5t-49.5 20.5t-49 -20.5t-20 -49.5z" />
<glyph unicode="/" horiz-adv-x="569" d="M63 -12h76l373 1097h-76z" />
<glyph unicode="0" horiz-adv-x="1175" d="M80 520q0 -125 43 -227.5t116.5 -171t164 -104t182.5 -35.5q127 0 224 54t160.5 140t94.5 184.5t31 186.5q0 98 -38 194.5t-109.5 174t-169 123.5t-212.5 46q-106 0 -196 -46t-155.5 -127t-100.5 -182t-35 -210zM199 592q0 117 30.5 206t83 145t116 84t128.5 28 q82 0 159 -45t136 -128t93 -195t34 -238q0 -102 -30.5 -195.5t-96.5 -147.5q-66 -53 -128 -69.5t-116 -16.5q-84 0 -157.5 48.5t-131 130.5t-89 185.5t-31.5 207.5z" />
<glyph unicode="1" horiz-adv-x="569" d="M100 893q8 -4 15 -16q23 20 49 43q10 10 14 12q4 4 21.5 12t23.5 8q12 0 22.5 -10t10.5 -24v-758q0 -53 -7 -77t-36 -58h-4q-29 -4 -43 -5h-16.5t-40.5 5v-25h45q18 0 86 4q61 2 71 2q12 0 66 -2q55 -4 74 -4q39 0 61 4v21q-33 -4 -53 -5q-14 0 -47 5q-23 27 -30 47 t-7 67v948q-10 -6 -21 -14q-41 -29 -67 -45q-39 -23 -64.5 -39t-41 -26.5t-30 -23.5t-38.5 -36q-4 -4 -13 -10z" />
<glyph unicode="2" horiz-adv-x="833" d="M61 889q4 -2 7 -4q27 -18 41 -45q2 -2 4 -6q16 -29 25 -41.5t24 -26.5q6 -6 22 -21q16 -14 23 -20l20 12q-8 8 -18 17q-20 16 -29 26q-2 4 -8 27.5t-6 36.5q0 90 61.5 143t132.5 53q98 0 156.5 -75.5t58.5 -165.5t-49 -180.5t-143 -219.5l-2 -2q-8 -12 -29.5 -38.5 t-68.5 -82.5q-70 -82 -111 -133t-70 -88l-4 -4q-8 -10 -14 -20.5t-6 -14.5q0 -16 18 -16h584l2 4q16 47 39 76q39 49 49 67.5t16 47.5h-22q-25 -55 -46.5 -70.5t-72.5 -15.5h-463l86 86q143 143 216 218.5t123 142.5t75 127t25 126q0 104 -91 184q-47 41 -109.5 64.5 t-137.5 23.5q-111 0 -188 -56t-120 -136z" />
<glyph unicode="3" horiz-adv-x="909" d="M49 281q0 -31 12 -105q10 -61 11 -84q18 -4 46.5 -16.5t61.5 -28.5q16 -8 19 -8q55 -25 113.5 -37t101.5 -12q78 0 151.5 25.5t133 73.5t93 117.5t33.5 155.5q0 74 -30.5 132.5t-79.5 93.5q-43 33 -79 41t-99 8v4q90 66 120.5 126t30.5 107q0 98 -84 153.5t-198 55.5 q-68 0 -132.5 -24.5t-142.5 -112.5q10 -10 37 -47q51 -72 88 -106l20 10l-14 14q-16 16 -24 25q-8 10 -9 32q0 20 5.5 47t20.5 55t47 48t83 20q86 0 132 -64.5t46 -137.5q0 -96 -45 -160t-98 -109q-12 -10 -12 -12q0 -6 12 -10h6q29 4 41 4q45 0 86 -11.5t76 -41t55.5 -80.5 t20.5 -129q0 -66 -29 -118t-74 -87t-96 -52.5t-94 -17.5q-59 0 -115.5 26t-103 67t-76 84t-37.5 75q-2 2 -3 16.5t-1 24.5q0 16 4 49v5h-19q-12 -45 -12 -84z" />
<glyph unicode="4" horiz-adv-x="1024" d="M0 350q0 -8 16 -8h662v-174q0 -109 -53 -143q-2 -2 -20.5 -4.5t-26.5 -2.5q-12 0 -37 7v-21h8q25 -4 37 -4q25 0 71 8q45 6 70 6q14 0 70 -8q53 -6 63 -6q8 0 25 2q16 2 24 2v21q-29 -4 -41 -5q-6 0 -20 3.5t-19 5.5q-18 12 -27 37.5t-9 74.5v195q68 0 88 -2t51 -12 q2 14 14 36.5t29 44.5q10 16 15 46t5 63h-14q-8 -82 -44 -104.5t-149 -22.5v686q0 16 -10 16q-16 0 -24 -8l-750 -704q-4 -16 -4 -25zM129 403q0 23 8 31l541 516v-565h-526q-23 0 -23 18z" />
<glyph unicode="5" horiz-adv-x="948" d="M43 256q0 -25 18 -84t19 -86q41 -8 61.5 -16.5t83.5 -40.5h2q39 -20 95.5 -29.5t109.5 -9.5q109 0 193 34.5t138 93t81.5 129t27.5 142.5q0 147 -97 231.5t-251 84.5q-109 0 -179.5 -29t-143.5 -84l28 362q25 4 45.5 6.5t61.5 2.5q45 0 158 -9q96 -6 133 -6t63.5 15.5 t42 37t23.5 43t12 39.5l-18 2q-10 -23 -27 -26q-8 -2 -131 -2q-18 0 -55 2t-88 4q-53 4 -82 5t-39 1q-45 0 -131 -4l-37 -526q18 0 31.5 6t48.5 30h2q43 31 88 49.5t104 18.5q55 0 111.5 -19.5t104.5 -59.5t77 -99t29 -135q0 -88 -33 -149.5t-83 -96.5t-107.5 -50.5 t-112.5 -15.5q-76 0 -140.5 34t-110.5 81t-72.5 91t-26.5 61q0 10 4 26.5t6 24.5h-17q-20 -47 -20 -80z" />
<glyph unicode="6" horiz-adv-x="1062" d="M88 508q0 -115 39 -211t105.5 -165t151.5 -105.5t175 -36.5q92 0 171 31.5t134.5 88t84 125t28.5 140.5q0 150 -105.5 235.5t-250.5 85.5q-111 0 -201 -46t-203 -154q0 123 8 196.5t35 132.5q47 109 121 166.5t182 57.5q70 0 127.5 -21.5t96 -54.5t59 -66t20.5 -51 q0 -20 -14 -45h18q12 23 17.5 38t5.5 36q0 10 -4 63q-4 61 -4 70h-4q-16 -4 -23 -4q-14 0 -29.5 4t-70.5 24q-80 27 -110 34t-81 7q-236 0 -381 -229q-45 -74 -71.5 -168t-26.5 -178zM227 446q4 4 6 7q111 106 168.5 144t139.5 38t144.5 -30t104 -78t62 -103t20.5 -107 q0 -125 -78.5 -212t-213.5 -87q-61 0 -119 30t-106 82t-81 118.5t-43 138.5q-2 10 -2 31q0 18 -2 28z" />
<glyph unicode="7" horiz-adv-x="796" d="M63 870h25q0 2 2 7q10 47 40 65.5t134 18.5q10 0 72 -3q57 -4 102 -5t80 -1q25 0 56.5 1t93.5 5l22 3q-78 -104 -129 -174t-87 -126.5t-67.5 -111.5t-64.5 -125q-23 -49 -46.5 -113.5t-40.5 -122t-27.5 -101.5t-10.5 -54q0 -8 10 -19l2 -2q45 0 101 -8q35 -4 55 -4 q45 0 69.5 3t47.5 11v23q-41 -12 -70 -12l-6 2q-23 8 -38 21t-15 48q0 111 73.5 320t210.5 436l109 178q4 8 4 14q0 10 -6 19q-10 4 -25 4l-14 -2q-45 -4 -92 -7t-107 -3h-198q-49 0 -76 3t-70 11q-10 -18 -18 -30.5t-14 -20.5q-51 -61 -63.5 -83t-23.5 -65z" />
<glyph unicode="8" horiz-adv-x="1024" d="M57 287q0 -57 32 -112.5t90.5 -98.5t135 -67.5t164.5 -24.5q160 0 258.5 45t143.5 104.5t57 106.5t12 67q0 41 -7 76t-39 81t-105.5 98t-194.5 104q88 49 140.5 96t52.5 121q0 98 -84 145t-203 47t-196.5 -54t-77.5 -153q0 -78 50 -130t148 -107q-88 -37 -136 -61.5 t-93 -57.5q-2 0 -2 -2q-61 -45 -103.5 -95t-42.5 -128zM178 281q0 119 81 197.5t212 133.5q207 -94 294 -161.5t87 -176.5q0 -111 -96.5 -185.5t-243.5 -74.5q-10 0 -28.5 1t-32.5 3q-133 18 -203 90t-70 173zM342 897q0 63 48 107.5t134 44.5q59 0 99.5 -19.5t62 -47.5 t28.5 -54.5t7 -44.5q0 -16 -5.5 -39.5t-17.5 -46.5q-25 -41 -59.5 -66.5t-75.5 -48.5q-111 49 -166 94t-55 121z" />
<glyph unicode="9" horiz-adv-x="1062" d="M86 705q0 -147 97.5 -237.5t244.5 -90.5q25 0 68 6t101 26.5t122.5 63.5t120.5 113h4q0 -104 -2 -152.5t-15 -103.5q-31 -150 -127 -227.5t-213 -77.5q-86 0 -147 26.5t-97 62.5t-52.5 67.5t-16.5 41.5q0 8 8 27.5t17 34.5l-21 10q-18 -39 -27.5 -75t-9.5 -85 q0 -31 6 -65q51 -10 74 -16.5t82 -28.5q37 -12 84 -23.5t86 -11.5q117 0 211 54t158.5 144.5t98.5 194.5t34 201q0 78 -30 165t-90 163.5t-152.5 124.5t-208.5 48q-152 0 -256 -81q-94 -72 -123 -148t-29 -151zM205 764q0 111 72.5 198t207.5 87q84 0 152 -44t111 -111 t65.5 -133.5t22.5 -107.5q0 -14 -28 -51t-74 -76t-105.5 -65.5t-122.5 -26.5q-55 0 -107.5 22.5t-91.5 59.5q-66 61 -84 127t-18 121z" />
<glyph unicode=":" horiz-adv-x="380" d="M119 61q0 -29 20.5 -49t48.5 -20q29 0 49.5 20.5t20.5 48.5q0 29 -20.5 49.5t-49.5 20.5t-49 -20.5t-20 -49.5zM123 610q0 -29 20.5 -49t49.5 -20t49 20.5t20 48.5q0 29 -20.5 49.5t-48.5 20.5q-29 0 -49.5 -20.5t-20.5 -49.5z" />
<glyph unicode=";" horiz-adv-x="380" d="M119 61q0 -31 16.5 -50t46.5 -19q35 0 43 20h4q0 -27 -19.5 -60.5t-53.5 -68.5l14 -16q43 39 69.5 85t26.5 93q0 86 -78 86q-31 0 -50 -20.5t-19 -49.5zM119 610q0 -29 20.5 -49t48.5 -20q29 0 49.5 20.5t20.5 48.5q0 29 -20.5 49.5t-49.5 20.5t-49 -20.5t-20 -49.5z" />
<glyph unicode="&#x3c;" horiz-adv-x="1228" d="M172 408l885 -422v69l-811 387l811 387v70l-885 -422v-69z" />
<glyph unicode="=" horiz-adv-x="1228" d="M172 229h885v74h-885v-74zM172 582h885v73h-885v-73z" />
<glyph unicode="&#x3e;" horiz-adv-x="1228" d="M172 -14l885 422v69l-885 422v-70l811 -387l-811 -387v-69z" />
<glyph unicode="?" horiz-adv-x="833" d="M80 838q0 -20 10 -99h19q0 10 -3 35q-2 25 -2 33t20.5 46t57.5 81t90.5 73.5t118.5 30.5q63 0 111.5 -21.5t79 -56t45 -75.5t14.5 -82q0 -84 -50 -144.5t-138 -60.5q-29 0 -52.5 7t-58.5 22v-402h109v314q49 -8 75 -9q96 0 162 57.5t66 170.5q0 133 -97.5 224t-257.5 91 q-53 0 -88 -7t-82 -32q-53 -27 -71.5 -34t-55.5 -15q0 -10 -10 -67q-6 -39 -9 -55.5t-3 -24.5zM326 61q0 -29 20.5 -49t48.5 -20q29 0 49.5 20.5t20.5 48.5q0 29 -20.5 49.5t-49.5 20.5t-49 -20.5t-20 -49.5z" />
<glyph unicode="@" horiz-adv-x="1228" d="M66 516q0 -86 35.5 -178t110.5 -172t187.5 -129t259.5 -49q80 0 167 24.5t169 65.5l-22 31q-145 -76 -309 -76q-115 0 -209.5 38t-158 104.5t-96 150.5t-32.5 176q0 258 131 403.5t348 145.5q113 0 204 -38t152.5 -102.5t92 -140.5t30.5 -149q0 -61 -18 -122t-51 -109 t-77 -75.5t-93 -27.5q-66 0 -66 55q0 14 4 43l107 420h-90l-15 -66h-4q-14 39 -47 61.5t-76 22.5q-59 0 -117.5 -31.5t-104.5 -89t-72.5 -132t-26.5 -156.5q0 -76 42 -124t118 -48q51 0 102 27.5t84 76.5h4q12 -47 50 -75.5t93 -28.5q61 0 114.5 30.5t93.5 85t61.5 123 t21.5 140.5q0 98 -39 183t-109.5 148.5t-165.5 98t-206 34.5q-117 0 -221.5 -40.5t-185 -116.5t-125.5 -181.5t-45 -230.5zM467 430q0 154 78 247t162 93q47 0 72.5 -33t25.5 -86q0 -72 -19.5 -136t-53.5 -114.5t-75 -78t-82 -27.5q-51 0 -79.5 39t-28.5 96z" />
<glyph unicode="A" horiz-adv-x="1062" d="M-2 2q10 -2 35 -2q10 0 41 4q47 4 65 4q12 0 62 -4q43 -4 49 -4q27 0 39 2v18h-37q-27 0 -43 7q-12 12 -19.5 26.5t-7.5 36.5q0 23 9.5 57.5t17.5 53.5l108 276h332l139 -356q8 -23 9 -51q0 -18 -6.5 -26.5t-26.5 -20.5h-21l-12 -3q-12 0 -39 5v-23q16 -2 43 -2 q10 0 62 4q59 4 67 4q6 0 42 -2t79 -4q25 -2 27 -2q4 0 12 2h10v21q-10 -2 -30 -3q-23 0 -41 9q-18 18 -26.5 31.5t-23.5 50.5l-372 960q-2 6 -11 14h-16q-4 -2 -8 -10l-361 -934q-18 -49 -41.5 -75.5t-46.5 -42.5h-22l-10 -3q-10 0 -27 5v-23zM332 514l151 387l154 -387 h-305z" />
<glyph unicode="B" horiz-adv-x="1024" d="M109 2q14 -2 38 -2q41 0 99 6q37 4 57 4q6 0 37 -2q98 -8 203 -8q100 0 170.5 35t110.5 85t56.5 100t16.5 85q0 127 -94 209t-215 96v4q29 4 67.5 21.5t76.5 48.5t62.5 75t24.5 97q0 31 -10 65.5t-39 69.5t-86 57.5t-147 22.5q-57 0 -148 -6q-63 -4 -84 -4q-14 0 -49 4 q-53 6 -84 6h-53v-22q2 0 16 2h17q51 0 72.5 -36t21.5 -100v-702q0 -37 -1 -67.5t-3 -34.5q-14 -47 -49 -82q-31 -6 -48 -6q-10 0 -28 2q-4 2 -8 2v-25zM350 49v541q90 0 151.5 -5t110.5 -26q76 -31 116 -101.5t40 -150.5q0 -133 -71.5 -206.5t-194.5 -73.5q-51 0 -82 5 t-70 17zM350 629v350q0 35 24.5 43t84.5 8q127 0 182 -55t55 -150q0 -111 -67.5 -153.5t-179.5 -42.5h-99z" />
<glyph unicode="C" horiz-adv-x="1175" d="M90 498q0 -86 36 -175.5t106.5 -165t178 -121.5t242.5 -46q86 0 145.5 8t116.5 33q55 25 103.5 60.5t89.5 98.5l-23 9q-25 -43 -79 -81t-117 -59q-63 -20 -108.5 -25t-86.5 -5q-123 0 -213 46t-146 123.5t-82 172t-26 192.5q0 125 39 218t102.5 152.5t138.5 87.5t146 28 q61 0 130 -22.5t127.5 -59.5t93 -82t34.5 -86q0 -16 -6 -41l-2 -4q4 -2 10 -2q6 -2 9 -2q10 41 10 86q0 47 -17 110q-16 57 -16 92q-23 -10 -38 -13t-36 -3q-31 0 -47 4t-57 16q-76 27 -114 35t-87 8q-76 0 -169 -26.5t-182 -93t-147.5 -182t-58.5 -285.5z" />
<glyph unicode="D" horiz-adv-x="1251" d="M100 2h19q18 -2 31 -2q12 0 67 4q43 4 65.5 5t34.5 1q35 0 111 -4q102 -6 176 -6q152 0 261.5 54.5t173 138t91 177t27.5 175.5q0 104 -37 202.5t-104 174.5q-47 53 -103.5 84.5t-110.5 46t-101.5 17.5t-106.5 3q-113 0 -256 -10q-45 -4 -57 -4q-18 0 -64 6q-66 8 -113 8 v-22q66 0 94.5 -20.5t28.5 -92.5v-760q0 -86 -22.5 -120.5t-63.5 -34.5q-27 0 -41 2v-23zM342 137v856q0 12 8 23.5t23 11.5h186q123 0 197.5 -24.5t150.5 -110.5q55 -61 90 -169t35 -212q0 -55 -8 -113.5t-32.5 -121t-73 -115.5t-121.5 -88q-51 -25 -119 -33t-160 -8 q-113 0 -144.5 24.5t-31.5 79.5z" />
<glyph unicode="E" horiz-adv-x="985" d="M115 4q16 -4 47 -4q29 0 76 4q45 2 73 2q102 0 242 -4q68 0 135.5 -3t93.5 -7q4 6 16.5 25.5t41.5 56.5q20 29 22 32q16 27 23.5 44.5t11.5 50.5h-20q-4 -37 -23.5 -57.5t-97.5 -59.5q-63 -31 -122 -40t-87 -9h-105q-31 0 -54 18.5t-23 50.5v439h59q33 2 45 2 q139 0 184 -24.5t49 -112.5h15q0 57 -12 92q-10 29 -12.5 46t-6.5 75l-2 14v6q-4 41 -6 52.5t-12 27.5l-13 -8q2 -4 4 -15q6 -29 7 -39q0 -27 -27 -52t-92 -25h-180v411q0 25 22.5 32t50.5 7q59 0 119.5 -8t116 -28.5t90.5 -55.5t35 -86h16q0 27 -2 41t-12 37q-8 23 -23 53 q-10 25 -21.5 49.5t-15.5 34.5l-104 -2h-246q-12 0 -27.5 1t-74.5 3q-41 2 -66.5 3t-40.5 1q-31 0 -59 -6v-22q18 2 43 2q55 0 70.5 -31t15.5 -88v-760q0 -92 -37 -129q-25 -16 -61 -16q-14 0 -39 4v-25z" />
<glyph unicode="F" horiz-adv-x="872" d="M100 2q14 -2 41 -2q10 0 74 4q68 6 80 6q8 0 61 -4q57 -6 68 -6q25 0 55 8v25q-29 -8 -45 -8q-55 0 -69.5 30.5t-14.5 77.5v410q129 0 183.5 -2t86 -14.5t44 -39t16.5 -81.5h16v2q-2 45 -4 59t-14 41q-12 31 -15.5 44t-3.5 44q0 6 3 31q2 31 2 35q0 25 -15 53l-16 -8 q8 -29 8 -43q0 -57 -50 -69.5t-241 -12.5v411q0 25 22.5 32t51.5 7q59 0 119.5 -8t116 -28.5t90 -55.5t34.5 -86h17q0 27 -2 41t-13 37q-4 8 -14 35q-18 41 -29.5 68.5t-15.5 39.5q-27 -6 -49.5 -7t-54.5 -1h-246q-12 0 -27.5 1t-75.5 3q-41 2 -66.5 3t-39.5 1q-31 0 -59 -6 v-22q18 2 43 2q55 0 70.5 -31t15.5 -88v-760q0 -98 -32 -121.5t-106 -23.5v-23z" />
<glyph unicode="G" horiz-adv-x="1214" d="M76 518q0 -106 43 -202.5t119.5 -170t180 -115.5t222.5 -42q113 0 186.5 26.5t137.5 67.5l4 2q35 23 51 37t33 35q-8 16 -9.5 27.5t-1.5 47.5v115q0 47 13.5 79t60.5 32q8 0 31 -4q10 -2 14 -2v22q-16 4 -23.5 5t-31.5 1q-8 0 -57 -4t-60 -4q-12 0 -69 4q-68 4 -76 4 q-25 0 -43 -2v-22l41 2q59 0 80 -47q6 -18 8 -39t2 -49q0 -76 -6 -122t-33 -88t-87.5 -65.5t-164.5 -23.5q-94 0 -173 36.5t-135.5 106.5t-87 164t-30.5 207q0 96 28.5 189t84 167t134.5 117t175 43q82 0 149.5 -30t115.5 -72t73.5 -84t25.5 -60q0 -10 -4 -31l-6 -37h17 q8 25 11 40.5t3 39.5q0 12 -4 38t-14 81q-12 84 -15 96q-16 -6 -30.5 -9t-43.5 -3q-16 0 -35.5 5t-80.5 28q-85 30 -159 30h-5q-100 0 -200.5 -40.5t-181.5 -116.5t-129 -181.5t-48 -228.5z" />
<glyph unicode="H" horiz-adv-x="1290" d="M106 1047q43 2 56 2q27 0 47 -29t20 -86v-791q0 -45 -8 -68.5t-22 -37.5q-14 -12 -43 -12q-25 0 -39 2v-25h26q20 -2 25 -2q25 0 63 4q39 2 60 2q31 0 90 -4q35 -2 45 -2q27 0 55 4v21h-61q-23 4 -49.5 34.5t-26.5 79.5v402h596v-385q0 -53 -19.5 -92t-52.5 -39 q-4 0 -30 2h-33v-23q4 0 33 -2q27 -2 43 -2q14 0 55 4q43 6 61 6q14 0 50 -4q63 -6 104 -6q18 0 33 2v25q-10 -2 -31 -2q-14 0 -32.5 4t-26.5 10q-14 10 -26.5 38.5t-12.5 78.5v762q0 51 12 79.5t27 36.5q8 6 26.5 10.5t32.5 4.5q20 0 31 -2v24q-14 2 -33 2q-41 0 -104 -6 q-35 -4 -50 -4q-18 0 -61 6q-41 4 -55 4q-16 0 -43 -2q-29 -2 -33 -2v-22q6 0 33 2h30q33 0 52.5 -39t19.5 -92v-340h-596v331q0 27 2 47.5t13.5 42t34 36t61.5 14.5q12 0 26 -5h4v23q-18 4 -28.5 5t-40.5 1q-8 0 -62 -4q-55 -6 -67 -6q-8 0 -68 6q-61 4 -69 4q-25 0 -44 -2 v-24z" />
<glyph unicode="I" horiz-adv-x="606" d="M119 1047q12 2 37 2q61 0 75.5 -34t14.5 -108v-751q0 -68 -13.5 -99.5t-68.5 -31.5q-29 0 -41 2v-27h90q8 0 43 4q43 4 49 4q10 0 53 -4q51 -4 60 -4h69v27q-10 -2 -28 -2q-35 0 -55.5 13t-29.5 32.5t-11.5 40t-2.5 43.5v755q0 27 3.5 48.5t12.5 43t28.5 35t52.5 13.5 q27 0 41 -2v24q-18 2 -43 2q-10 0 -72 -4q-61 -4 -74 -4q-23 0 -80 4t-79 4l-31 -2v-24z" />
<glyph unicode="J" horiz-adv-x="569" d="M70 -360v-19q80 27 136 74t89 103.5t47 112.5t14 107l2 910q0 55 19.5 88t75.5 33q20 0 39 -7v23h-3q-20 6 -40 6q-8 0 -70 -2q-68 -4 -82 -4q-10 0 -59 4q-55 4 -64 4q-35 0 -65 -6v-20q12 2 38 2q66 0 82.5 -37t16.5 -97v-911q0 -55 -6.5 -108.5t-23.5 -105.5t-53 -93 t-93 -57z" />
<glyph unicode="K" horiz-adv-x="1062" d="M119 8q16 -8 37 -8q10 0 69 4q61 6 74 6q10 0 68 -4q59 -6 71 -6q29 0 39 1t31 9v19q-31 -6 -49 -6q-45 0 -74 40.5t-29 98.5v381h4l351 -424q51 -59 104 -93t109 -34q76 0 139 20q-2 4 -2 11q-2 6 -2 8h-2q-25 -8 -51 -8q-45 0 -88.5 23.5t-120.5 115.5l-369 446 l416 398q53 45 94 45q12 0 31 -4h4v20q-20 6 -45 6q-8 0 -28.5 -2t-37.5 -2q-35 -4 -37 -4q-8 0 -23.5 1t-51.5 5q-35 2 -39 2q-18 0 -43 -4v-18q8 2 26 2q29 0 39 -13.5t10 -27.5q0 -31 -24.5 -64t-67.5 -76l-291 -282v336q0 66 32 94.5t65 28.5q12 0 41 -5v23q-35 6 -72 6 q-8 0 -49 -4q-57 -8 -76 -8q-14 0 -78 8q-43 4 -51 4q-23 0 -35 -2l-14 -2v-25q29 4 49 5q53 0 66.5 -31t13.5 -80v-788q0 -55 -18.5 -91t-65.5 -36q-16 0 -49 4v-19z" />
<glyph unicode="L" horiz-adv-x="948" d="M109 1047q10 2 32 2q70 0 87.5 -44t17.5 -128v-758q0 -51 -20.5 -75t-69.5 -24q-25 0 -37 3v-23q20 -4 35 -4q6 0 24 2q6 2 12 2h431q61 0 180 -4q4 16 21.5 45t43.5 68q12 16 17 22q23 35 28 57.5t4 53.5h-14q-4 -47 -27.5 -76t-72.5 -57q-63 -41 -133 -57.5t-162 -16.5 t-119 19.5t-27 60.5v850q0 43 27 69q14 14 59 15q27 0 41 -2v22h-4q-47 4 -69 4q-27 0 -82 -8q-27 -4 -35 -4q-6 0 -37 4q-61 8 -100 8q-18 0 -51 -4v-22z" />
<glyph unicode="M" horiz-adv-x="1402" d="M76 4q18 -4 25.5 -4h31.5q20 0 60 8q29 4 36 4q8 0 52 -4q70 -8 94 -8v25q-10 -2 -29 -2q-47 0 -63.5 28.5t-16.5 83.5v17v16l39 731h4l332 -856l31 6l334 844h4l59 -670q4 -47 4 -88q0 -55 -15.5 -83.5t-68.5 -28.5q-25 0 -37 2v-23q10 -2 39 -2q12 0 68 6q63 6 74 6 q8 0 55 -6q57 -6 67 -6q33 0 64 6v23q-20 -6 -45 -6q-51 0 -70.5 38.5t-25.5 110.5l-64 741v21q-2 10 -2 14q0 39 10.5 58.5t32.5 42.5q14 2 41 2h18q16 -2 19 -2v20h-4q-33 4 -60 4q-61 0 -105 -20.5t-69 -83.5l-301 -768l-323 827q-10 29 -49 37t-86 8h-22.5t-51.5 -4v-18 q53 0 81.5 -19.5t28.5 -93.5l-51 -752q-4 -57 -15 -92t-26.5 -50t-30 -18t-30.5 -3q-14 0 -43 4v-23z" />
<glyph unicode="N" horiz-adv-x="1327" d="M86 1049h25q31 0 44 -6.5t38 -30.5l38 -39v-774q0 -102 -21.5 -138t-78.5 -36q-20 0 -31 2v-25q14 -2 41 -2q14 0 47 2q35 4 58 4q29 0 63 -4q23 -2 33 -2q66 0 76 2v25q-12 -2 -41 -2q-18 0 -41 9t-31 21q-16 18 -23.5 49t-7.5 95v723l785 -930q8 -4 22 -4q4 0 13 2 q12 8 12 22v862q0 102 21.5 138.5t78.5 36.5q20 0 31 -2v24q-14 2 -41 2q-14 0 -45 -2q-37 -4 -59 -4q-29 0 -64 4q-23 2 -33 2q-66 0 -75 -2v-24q12 2 41 2q18 0 40.5 -9.5t30.5 -21.5q16 -18 23.5 -49t7.5 -95v-708l-746 864q-14 18 -41 31q-18 12 -112 12q-29 0 -62 -2 h-16v-22z" />
<glyph unicode="O" horiz-adv-x="1290" d="M84 520q0 -106 36 -202.5t108.5 -171t179 -116.5t245.5 -42q131 0 235.5 52t176.5 136t107.5 181.5t35.5 185.5q0 123 -41 223t-115.5 172t-177 109.5t-225.5 37.5q-117 0 -220 -46t-181 -125.5t-121 -182t-43 -211.5zM197 553q0 106 31.5 197.5t91 159t139.5 104.5 t172 37q125 0 215 -58.5t145.5 -149.5t80 -191.5t24.5 -184.5q0 -193 -117 -315q-57 -61 -136 -94t-175 -33q-115 0 -205 48t-149.5 128t-88 172t-28.5 180z" />
<glyph unicode="P" horiz-adv-x="909" d="M90 1047q16 2 45 2q59 0 75.5 -29t16.5 -121v-764q0 -49 -12 -70.5t-31 -35.5h-2q-2 -2 -20.5 -4t-28.5 -2q-8 0 -39 6v-23q12 -4 23.5 -5t34.5 -1q14 0 73 6q49 4 58 4q8 0 49 -4q12 -2 39.5 -4t36.5 -2q41 0 79 14v21q-14 -4 -33.5 -8t-27.5 -4t-18.5 3t-14.5 5 q-27 25 -39 50t-12 60v437l6 -3q39 -12 65.5 -17t73.5 -5q152 0 249.5 76t97.5 194q0 70 -26 118t-71 77t-100 42t-119 13q-55 0 -162 -6q-53 -4 -67 -4q-2 0 -26.5 1t-65.5 3q-94 6 -107 6v-26zM342 621v364q0 33 21.5 44t76.5 11q119 0 196 -59t77 -178 q0 -59 -23.5 -101.5t-61.5 -67t-79 -35.5t-78 -11q-39 0 -64.5 7t-56.5 21z" />
<glyph unicode="Q" horiz-adv-x="1290" d="M84 487q0 -96 35 -185t105.5 -159.5t179 -111.5t249.5 -41q131 0 235.5 51t176.5 135t107.5 181.5t35.5 185.5q0 123 -41 223t-115.5 172t-177 109.5t-225.5 37.5q-117 0 -220 -46t-181 -128t-121 -191.5t-43 -232.5zM197 553q0 106 31.5 197.5t91 159t139.5 104.5 t172 37q123 0 214 -61.5t145 -155t80 -191.5t26 -176q0 -193 -118 -316.5t-310 -123.5q-115 0 -205 49t-148.5 129t-88 172t-29.5 176zM352 -152l19 -10q16 27 39.5 42.5t70.5 15.5q18 0 32.5 -4.5t36 -16.5t51.5 -32.5t101 -69.5q106 -76 173 -105.5t149 -29.5q39 0 88 11 t98.5 37.5t93.5 72.5t70 112h-18q-41 -74 -123 -106.5t-166 -32.5q-74 0 -133.5 24.5t-151.5 77.5q-66 39 -105.5 60.5t-66 33t-47 14.5t-49.5 3q-102 0 -162 -97z" />
<glyph unicode="R" horiz-adv-x="1062" d="M104 4q20 -4 50 -4q12 0 59 4q49 6 66 6q27 0 96 -6q41 -4 49 -4q16 0 45 4h4v23q-33 -4 -55 -4q-68 18 -68 92v460q6 -4 43 -14q33 -10 39 -12q12 -6 33.5 -34t47.5 -66.5t48.5 -75.5t38.5 -64q61 -106 101 -165.5t75 -92.5t71 -46t85 -13q47 0 71.5 5t49.5 15v17 q-2 0 -6 -2q-33 -14 -58 -15q-61 0 -111.5 57.5t-117.5 168.5l-2 4q-55 92 -78 130t-43.5 66.5t-39.5 53t-52 61.5q150 8 233.5 81t83.5 175q0 119 -88 192.5t-235 73.5h-39q-25 -2 -43 -2l-162 -6q-6 0 -55 2q-51 4 -62 4q-31 0 -55 -2v-24q2 0 20 2h23q47 0 61.5 -28 t14.5 -73v-792q0 -49 -8.5 -73t-36.5 -54q-33 -4 -50 -4q-12 0 -34 2q-4 2 -9 2v-25zM350 614v361q0 33 20.5 48t102.5 15q80 0 133 -25.5t83 -65.5t40 -79t10 -69q0 -109 -73.5 -167.5t-161.5 -58.5q-53 0 -85 10.5t-69 30.5z" />
<glyph unicode="S" horiz-adv-x="796" d="M80 252q0 -27 14 -96q14 -70 15 -97q41 0 112 -26q43 -16 79 -25.5t79 -9.5q96 0 161.5 27.5t101.5 69.5t50.5 87t14.5 86q0 88 -44.5 164t-138.5 154l-82 67q-68 55 -108.5 98.5t-59 73t-24.5 50t-6 40.5q0 59 45 97.5t110 38.5q45 0 81 -17.5t61.5 -41t40 -46 t14.5 -26.5q0 -16 -3 -39t-5 -39q0 -2 -2 -11h20q14 47 15 99q0 31 -2.5 49t-12.5 47q-96 37 -133 47t-82 10q-106 0 -169.5 -65.5t-63.5 -145.5q0 -78 40 -130t146 -142l84 -72q82 -70 133 -136t51 -152q0 -94 -65.5 -152.5t-159.5 -58.5q-63 0 -103 16t-71 41 q-29 20 -60.5 53t-35.5 39q-14 29 -15 90q0 16 4 43v8h-18q-6 -14 -7 -30.5t-1 -36.5z" />
<glyph unicode="T" horiz-adv-x="909" d="M39 872l10 -2q29 72 82 113t74 41h160q18 0 32.5 -13.5t14.5 -31.5v-809q0 -55 -6.5 -84t-24.5 -55q-37 -6 -55 -6q-27 0 -56 6v-25q25 -6 49 -6q8 0 62 2q61 4 74 4q27 0 80 -4q51 -2 71 -2q29 0 43 6v25q-16 -8 -37 -8q-18 0 -47 4q-20 16 -31.5 36.5t-11.5 51.5v850 q0 39 19.5 50t72.5 11h123q39 0 63.5 -14.5t24.5 -67.5v-16q-4 -6 -6 -8q-18 -33 -35 -50q2 -2 9 -4l6 -6q39 43 55 83t16 56q0 37 -18 53.5t-51 16.5q-29 0 -103.5 -2t-128.5 -4q-92 -2 -147 -3t-66 -1q-68 0 -120 3t-107 11q-39 -70 -51 -93.5t-20.5 -40.5t-12.5 -31.5 t-6 -35.5z" />
<glyph unicode="U" horiz-adv-x="1214" d="M59 1040q8 2 13 2q39 6 49 7q8 0 19.5 -4.5t23.5 -14.5q33 -31 33 -102v-561q0 -182 114.5 -279.5t317.5 -97.5q59 0 139 23.5t139 82.5q72 72 91.5 158t19.5 233v357q0 102 10 135t51 65q8 4 29 5q10 0 39 -9v27q-18 6 -43 6q-8 0 -47 -4q-49 -6 -64 -6q-16 0 -59 6 q-43 4 -60 4q-27 0 -49 -6v-27q25 8 47 9q27 0 31 -5q39 -16 55.5 -57t16.5 -90v-459q0 -61 -5 -115.5t-26 -105.5q-33 -82 -120 -135t-177 -53q-119 0 -190.5 42t-104.5 102t-40 112.5t-7 101.5l2 504q0 72 17.5 115t72.5 43q18 0 27.5 -1t26.5 -6h4v27q-33 4 -56 4 q-8 0 -35.5 -3t-37.5 -5q-18 -2 -62 -2q-10 0 -69 4q-61 6 -74 6q-33 0 -62 -6v-27z" />
<glyph unicode="V" horiz-adv-x="1099" d="M18 1044q10 2 13 3q16 2 26 2q25 0 37 -2q35 -39 71 -117t114 -262q2 -6 6 -17l270 -663h6l400 934l2 4q23 51 48 87t62 36q6 0 19 -2l4 -3v27q-14 2 -39 2q-6 0 -49 -2q-45 -4 -54 -4q-10 0 -45 4q-37 2 -47 2q-33 0 -51 -2v-24q14 2 35 2h22t21 -5q12 -16 19 -35.5 t7 -47.5q0 -43 -14 -74l-299 -703l-336 791q-8 18 -8 33q0 16 21.5 28.5t58.5 12.5q12 0 27 -5q6 0 14 -2v25h-2q-27 6 -49 6q-8 0 -68 -2q-61 -4 -74 -4q-6 0 -55 2q-53 4 -65 4q-31 0 -48 -2v-27z" />
<glyph unicode="W" horiz-adv-x="1517" d="M18 1044l9 3q27 2 43 2q31 0 36 -5q16 -10 34 -41.5t40 -91.5l355 -923h6l229 585l227 -585h7l352 911q23 57 53.5 103.5t75.5 46.5q14 0 22 -2q0 6 2 16v6l-12 2t-18 2t-47 -4q-49 -6 -60 -6q-18 2 -56 6t-48 4h-19q-16 -2 -20 -2v-24q12 2 35 2q12 0 36 -2l9 -3 q27 -12 26 -53q0 -12 -6 -41.5t-10 -40.5l-283 -719l-207 535l76 199q31 78 61.5 101.5t69.5 23.5q23 0 39 -2v22q-29 4 -45 4q-6 0 -39 -4q-27 -4 -33 -4q-12 0 -47 4q-33 4 -39 4q-23 0 -32 -2v-24q6 2 14 2q12 0 20 -2q10 -4 15 -11q2 -6 2 -26q0 -16 -12 -52l-70 -178 l-82 203q-6 18 -6 33q0 25 16 31q8 2 27 2q14 0 22 -2v24q-10 2 -43 2q-20 0 -59 -4q-31 -4 -49 -4q-2 0 -45 4q-8 0 -37 2t-37 2h-16q-14 -2 -17 -2v-24q12 2 39 2q41 0 51 -7q23 -12 54 -94l123 -317l-172 -441l-291 760q-12 33 -13 51q0 16 5.5 23.5t17.5 15.5l2 2l29 7 q23 0 43 -5v25q-16 4 -25.5 4h-28.5q-25 0 -77 -4q-33 -4 -47 -4q-8 0 -39 2q-57 6 -82 6q-35 0 -54 -2v-27z" />
<glyph unicode="X" horiz-adv-x="1024" d="M43 4q16 -4 33 -4q2 0 37 4q37 4 52 5t28 1q4 0 34 -4q57 -6 72 -6q29 0 61 2v25q-18 -2 -43 -2q-29 0 -45 10t-16 49t25 82l211 346l233 -381q31 -47 31 -74q0 -20 -15 -30q-16 -2 -47 -2q-2 0 -22 2h-23v-23q25 -4 45 -4q10 0 64 4q57 6 69 6q8 0 60 -4q113 -6 137 -6 v27q-16 -2 -41 -2q-39 0 -62.5 15t-66.5 83l-301 491l184 297q8 14 23.5 35t39 45.5t51.5 41t54 16.5q12 0 33 -5v27q-12 2 -35 2q-6 0 -53 -4q-47 -6 -53 -6q-8 0 -60 4q-53 6 -65 6t-37 -2l-8 -2v-27q25 6 45 7q31 0 41 -21.5t10 -38.5q0 -33 -21 -67l-172 -275l-180 291 q-10 16 -20.5 37.5t-10.5 36.5q0 18 17.5 27.5t36.5 9.5q8 0 22 -5q4 0 13 -2v25q-25 6 -58 6t-57 -2q-45 -4 -51 -4t-58 2q-55 4 -67 4h-21.5t-38.5 -4v-25q4 0 27 3q23 2 27 2q16 0 35.5 -16.5t42 -44t38 -51.5t39.5 -60l203 -330l-233 -383q0 -6 -40 -57.5t-79 -75.5 q-41 -6 -54 -6l-8 2h-12v-23z" />
<glyph unicode="Y" horiz-adv-x="948" d="M14 1047q18 2 66 2q41 -29 65 -68l273 -424v-358q0 -57 -12.5 -104.5t-40.5 -67.5q-2 -2 -19 -2q-39 0 -65 8v-27q35 -6 63 -6q25 0 76 4q39 4 51 4t53 -4q55 -4 82 -4q20 0 62 4v25q-29 -4 -37 -4q-31 0 -33 2q-31 18 -49.5 54t-18.5 83v379l246 381q33 51 54.5 74.5 t33.5 31.5q25 18 54 19q16 0 34 -7v23q-10 4 -19 6t-30 2q-14 0 -55 -4q-35 -4 -43 -4q-6 0 -31 2q-49 6 -78 6q-31 0 -47 -2v-24q12 2 39 2q16 0 43 -2l8 -3q16 -27 17 -49q0 -20 -15.5 -51t-35.5 -63l-183 -283l-227 350q-2 4 -8 15q-10 16 -17.5 28.5t-7.5 18.5 q0 16 10 26q18 12 41 13q31 0 58 -11v29q-27 6 -68 6q-20 0 -63 -4q-37 -4 -54 -4q-10 0 -51 4q-43 4 -61 4q-23 0 -60 -4v-22z" />
<glyph unicode="Z" horiz-adv-x="1024" d="M63 20l3 -8v-6q12 -4 20 -4h580q70 0 110 -2q84 -4 109 -8q6 23 16 39t53 71q27 37 36 59.5t14 74.5h-25q-2 -41 -11.5 -65t-37.5 -48q-16 -16 -90 -49t-178 -33h-455l647 942q10 14 20.5 35.5t10.5 34.5q0 10 -2 16q-72 -6 -124 -8t-79 -2q-20 0 -94 2t-154 5t-150.5 7 t-86.5 8q-4 -16 -9.5 -26.5t-21.5 -36.5l-10 -14q-35 -53 -43.5 -74t-16.5 -66h23q4 10 8 29q10 31 17.5 42t35.5 28q53 35 109.5 51t165.5 16q12 0 32.5 -1t71.5 -3q39 -2 66.5 -3t42.5 -1q8 0 43 2h41l-684 -997v-2q-2 -2 -3 -5z" />
<glyph unicode="[" horiz-adv-x="454" d="M152 -119h237v43h-172v1118h168v43h-233v-1204z" />
<glyph unicode="\" horiz-adv-x="569" d="M57 1085l373 -1097h76l-373 1097h-76z" />
<glyph unicode="]" horiz-adv-x="454" d="M66 1042h172v-1118h-168v-43h233v1204h-237v-43z" />
<glyph unicode="^" horiz-adv-x="1228" d="M160 281h80l374 718l373 -718h82l-412 792h-84z" />
<glyph unicode="_" horiz-adv-x="1024" d="M0 -154v-102h1024v102h-1024z" />
<glyph unicode="`" d="M49 1128l426 -145l6 14l-399 203z" />
<glyph unicode="a" horiz-adv-x="909" d="M4 2q10 -2 35 -2q6 0 31 2q33 2 59 2q14 0 53 -2q41 -2 58 -2q25 0 34 2v18h-20q-18 -2 -23 -2q-27 0 -39 19.5t-12 44.5q0 27 15 68l90 241h256l110 -274q10 -25 11 -47q0 -41 -25 -45q-16 -4 -31 -5q-12 0 -37 5v-23q14 -2 37 -2q14 0 45 4q47 4 72 4q31 0 86 -6 q33 -2 37 -2q16 0 41 4v23q-2 0 -15 -2q-18 -4 -24 -5q-10 0 -24.5 2.5t-16.5 4.5q-16 25 -29.5 51t-38.5 86l-284 719h-23l-285 -754q-4 -12 -15 -31.5t-28 -42.5l-4 -6q0 -2 -9 -9t-15 -11l-8 -6q-2 -2 -12.5 -3.5t-20.5 -1.5q-2 0 -15 2h-16v-18zM301 424l109 295 l118 -295h-227z" />
<glyph unicode="b" horiz-adv-x="872" d="M76 2q8 -2 24 -2q6 0 45 2q43 4 52 4q16 0 125 -2q119 -4 143 -4q117 0 201 72.5t84 189.5q0 23 -8.5 55.5t-34 71.5t-80 69.5t-140.5 41.5v4q35 6 67 16t64.5 30.5t54 57.5t21.5 88q0 57 -25.5 93t-63.5 51.5t-74.5 19.5t-77.5 4l-172 -2q-10 0 -70 4q-70 4 -80 4 q-16 0 -35 -4h-6v-20q23 2 49 2q39 0 50.5 -28.5t11.5 -69.5v-588q0 -74 -15.5 -108t-74.5 -34q-12 0 -31 5h-4v-23zM299 117v364h125q39 0 76 -12t69.5 -40t52 -76t19.5 -113q0 -74 -22.5 -118t-58.5 -64.5t-72.5 -24.5t-92.5 -4q-63 0 -79.5 21.5t-16.5 66.5zM299 514v270 q0 29 16.5 38t46.5 9q43 0 77 -3t68 -18t56.5 -50t22.5 -92q0 -55 -25.5 -89t-64.5 -51q-41 -14 -90 -14h-107z" />
<glyph unicode="c" horiz-adv-x="1024" d="M86 412q0 -82 27.5 -157t87 -135.5t152.5 -95t220 -34.5q141 0 221 30.5t115 65.5q25 25 56 82l-17 12q-27 -49 -59 -76q-35 -29 -118 -56.5t-181 -27.5q-100 0 -173 38t-119 99.5t-66.5 133t-20.5 141.5q0 186 100.5 299t257.5 113q78 0 145.5 -26.5t106.5 -65.5 q23 -25 46.5 -62t23.5 -45q0 -45 -2 -61h18q8 25 8 63q0 59 -2 72q0 6 -6 29q-8 31 -11 50t-3 36h-16q-20 -8 -48 -9q-25 0 -81 21q-53 16 -96.5 26.5t-100.5 10.5q-96 0 -181 -37t-148.5 -102.5t-99.5 -151.5t-36 -180z" />
<glyph unicode="d" horiz-adv-x="1099" d="M76 4q20 -4 51 -4q6 0 51 2q70 4 90 4q12 0 107 -2q139 -4 170 -4q88 0 158.5 20.5t134.5 73.5q82 70 120.5 158t38.5 180q0 55 -20.5 127t-72.5 143.5t-147 119.5t-237 48q-90 0 -186 -6q-41 -4 -62 -4q-31 0 -79 6q-43 4 -68 4t-45 -4v-22q8 0 18 2q14 2 25 2 q27 0 37 -2q14 -4 26.5 -25.5t12.5 -50.5v-633q0 -47 -8.5 -70.5t-22.5 -35.5q-8 -4 -23.5 -7.5t-27.5 -3.5q-20 0 -41 5v-21zM303 115v667q0 20 4 28.5t20.5 13.5t53.5 6t108 1q113 0 192 -43t123 -110.5t61.5 -141t17.5 -141.5q0 -125 -46 -200.5t-110.5 -109.5t-122 -42 t-112.5 -8q-127 0 -158 17.5t-31 62.5z" />
<glyph unicode="e" horiz-adv-x="833" d="M66 2q16 -2 65 -2q18 0 55 2t56 2q33 0 102 -2q70 -2 102 -2q117 0 144 -2q41 -4 63 -8q8 20 15.5 31.5t33.5 48.5q0 2 3 2q33 47 40 64.5t9 53.5h-15q-10 -51 -49 -82.5t-92 -46t-100 -17.5t-105 -3q-51 0 -70.5 7t-19.5 38v363q88 0 135 -3.5t78 -12.5t46.5 -30.5 t25.5 -58.5h14v29q0 4 -4 18.5t-12 38.5q-14 45 -17 53q-2 10 -2 39q0 35 -4 49q-4 16 -14 31l-2 2q-2 -2 -6 -2q-6 0 -9 -2q12 -33 13 -49q0 -39 -30 -49t-87 -10h-125v303q0 8 6 22q2 0 4 8q33 16 72 17q31 0 73 -4t90 -18.5t84 -45.5t40 -80h12q0 37 -4 54l-14 36 q-18 49 -26.5 71t-10.5 32h-4q-57 -8 -95 -10.5t-157 -2.5h-62q-127 2 -205 3l-30 -3v-24l57 4q41 0 53.5 -21.5t12.5 -68.5v-631q0 -57 -18.5 -85t-76.5 -28q-12 0 -30 3q-2 2 -8 2v-23z" />
<glyph unicode="f" horiz-adv-x="757" d="M80 0l20 -2q25 -2 35 -2q8 0 55 2q51 4 62 4q63 -2 188 -2v23q-20 -2 -41 -3q-33 0 -59.5 27t-26.5 90v303h41q23 2 31 2q88 0 122 -10t77 -43q4 -18 5 -28.5t1 -38.5h16q0 25 -3 53t-13 53t-17 80q-6 61 -20 98l-16 -6q0 -2 4 -10q6 -27 8 -35t2 -12q0 -43 -56.5 -53.5 t-181.5 -10.5v314q0 18 11.5 30.5t52.5 12.5t91 -5.5t85 -15.5q72 -20 95.5 -49t29.5 -80l14 2q-2 51 -21.5 99.5t-52.5 95.5q-88 -12 -186 -13q-57 0 -149 4q-27 2 -33 3q-70 6 -100 6q-35 0 -70 -6v-21h18q25 2 45 2q35 0 50.5 -21.5t15.5 -93.5v-604q0 -53 -18.5 -88 t-53.5 -35q-20 0 -31.5 1t-23.5 6h-2v-23z" />
<glyph unicode="g" horiz-adv-x="1062" d="M72 426q0 -76 28.5 -152.5t86 -141t146.5 -103.5t206 -39q137 0 217 36.5t147 96.5q0 4 -2 8q-4 27 -4 41v68q0 57 9 95t44 38q20 0 45 -6v20q-25 6 -49 6q-10 0 -53 -4q-49 -4 -57 -4q-10 0 -54 4q-49 4 -57 4q-20 0 -37 -2l-6 -2v-22q23 6 43 6q27 0 47.5 -12.5 t20.5 -53.5v-135q0 -66 -73 -109t-167 -43q-90 0 -159.5 40t-116 105.5t-68 138.5t-21.5 138q0 109 33 187t86 125t116.5 68.5t129.5 21.5q63 0 118.5 -21.5t96.5 -54.5t63.5 -67.5t22.5 -59.5q0 -14 -6 -39l-2 -4h18q10 31 10 70q0 27 -14 90q-12 61 -12 86h-6 q-16 -16 -39 -17q-25 0 -88 21q-55 16 -97.5 25.5t-87.5 9.5q-137 0 -250.5 -77t-164.5 -185q-16 -33 -29.5 -84.5t-13.5 -110.5z" />
<glyph unicode="h" horiz-adv-x="1099" d="M76 844q4 0 14 2q18 2 33 2q27 0 37 -2q12 -4 25.5 -27.5t13.5 -48.5v-653q0 -45 -11.5 -71t-58.5 -26q-16 0 -49 5v-23h20q16 -2 19 -2q8 0 55 4q57 6 68 6q8 0 61 -4q55 -6 66 -6q29 0 57 4v21q-37 -4 -55 -5q-31 0 -49.5 35t-18.5 84v307h494v-292q0 -55 -11.5 -95.5 t-54.5 -40.5l-63 7v-23q18 -2 57 -2q8 0 55 4q49 6 60 6q10 0 67 -4q59 -6 72 -6q27 0 45 2v18q-4 0 -25 -2q-23 -2 -26 -2q-23 0 -47.5 30t-24.5 83v635q0 27 7 42t24 36l10 2q27 2 39 2q27 0 41 -2v20q-12 4 -20.5 5t-38.5 1q-27 0 -89 -6q-39 -4 -47 -4q-6 0 -36 4 q-57 6 -78 6q-16 0 -23.5 -1t-23.5 -7h-2v-18q6 0 26 2q27 2 31 2q53 0 64.5 -68.5t11.5 -296.5h-494v291q0 23 16.5 48.5t53.5 25.5h23t22 -4v18q-31 8 -74 8q-14 0 -55 -4q-43 -6 -60 -6q-16 0 -55 6q-31 4 -43 4q-25 0 -55 -6v-20z" />
<glyph unicode="i" d="M80 846q16 2 43 2q31 0 47 -2q27 -23 35 -45.5t8 -75.5v-569q0 -63 -7 -86t-30 -45q-14 -2 -41 -2q-31 0 -45 2v-21q20 -4 39 -4q10 0 61 4q59 4 68 4q12 0 68 -4q70 -4 80 -4h20t14 4v21q-29 -4 -43 -5q-12 0 -37 5h-4q-16 16 -27.5 38.5t-11.5 53.5v645q0 86 78 86 q27 0 45 -2v18q-6 2 -10 2q-31 4 -43 4q-6 0 -55 -4q-55 -4 -68 -4q-10 0 -55 4q-55 4 -64 4q-35 0 -65 -6v-18z" />
<glyph unicode="j" d="M33 -354v-25q43 12 91 41t92 76t72.5 115.5t28.5 152.5v735q0 31 16.5 69t51.5 38q37 0 61 -4v16q-12 6 -35.5 9t-41.5 3q-8 0 -56 -6q-55 -6 -63 -6q-6 0 -55 4q-53 6 -64 6q-23 0 -43 -6h-2v-18q14 2 41 2q31 0 45 -2q27 -25 34 -44.5t7 -66.5v-766q0 -84 -13.5 -139 t-37 -88t-52 -52.5t-77.5 -43.5z" />
<glyph unicode="k" horiz-adv-x="909" d="M80 0q16 -4 37 -4q10 0 41 2q55 6 86 6q14 0 63 -4q47 -4 62 -4q10 0 37 2q18 2 28 2v18q-12 -2 -32.5 -3t-36.5 -1q-31 25 -44.5 46.5t-13.5 64.5v321l289 -344l2 -2q47 -55 87 -79.5t120 -24.5q47 0 61.5 2t38.5 12q-2 2 -2 8t-2 9q-6 -2 -24.5 -7.5t-22.5 -5.5 q-43 0 -74.5 26t-72.5 75l-2 2l-320 383l203 205q70 70 118 106.5t91 36.5q8 0 24 -4h4v18q-12 8 -37 8q-12 0 -38 -4q-41 -6 -68 -6q-25 0 -64 6q-25 4 -36 4h-19q-14 -2 -18 -2v-20q2 0 16 2h14q37 0 37 -39q0 -20 -16 -43t-37 -43l-252 -256v309q0 29 14.5 50.5 t43.5 21.5q18 0 43 -4v20q-20 4 -43 4q-6 0 -35 -4q-53 -6 -72 -6q-20 0 -76 6q-27 4 -32 4q-23 0 -41 -2l-15 -2v-18q18 2 53 2q27 0 43.5 -29.5t18.5 -68.5v-613q0 -47 -8 -69.5t-35 -51.5q-14 -2 -45 -2q-27 0 -41 2v-18z" />
<glyph unicode="l" horiz-adv-x="833" d="M76 846l8 2q27 2 43 2q27 0 39 -2q27 -29 35 -53.5t8 -69.5v-582q0 -51 -7 -76.5t-40 -43.5q-2 -2 -17.5 -4.5t-21.5 -2.5q-2 0 -19 2h-18v-20q2 0 10 -2h10t50 2q72 6 102 6q49 0 211 -4q221 -4 229 -4q12 20 33 50t31 42q10 10 24.5 46t20.5 79h-19q0 -45 -38 -90 q-8 -10 -32 -22.5t-54 -26.5q-45 -20 -92 -31.5t-117 -11.5q-66 0 -107 15t-41 58v656q0 39 19.5 65.5t60.5 26.5h21q16 -2 18 -2v18q-14 2 -35 2q-29 0 -96 -6q-35 -4 -43 -4q-16 0 -62 6q-41 4 -53 4q-23 0 -51 -4q-4 -2 -10 -2v-18z" />
<glyph unicode="m" horiz-adv-x="1175" d="M33 4q14 -4 20 -4h31q6 0 29 2q49 6 59 6q20 0 59 -4q33 -4 45 -4q33 0 56 2v23l-56 -2q-37 2 -48 27.5t-11 80.5l35 612h4l287 -700h14l287 690h4l51 -561q4 -37 4 -74q0 -51 -18.5 -65.5t-46.5 -14.5l-52 2v-18q23 -2 60 -2q16 0 55 4q41 4 60 4q8 0 36 -2 q68 -6 101 -6q23 0 35 2v18q-8 0 -21 -2q-14 -2 -18 -2q-18 0 -35 7q-31 23 -44.5 52t-19.5 97l-51 545q-4 37 -4 55q0 29 12.5 52.5t57.5 23.5q8 0 26 -2q16 -4 21 -4v20q-47 10 -99 10q-63 0 -85.5 -16t-38.5 -53v-2l-250 -604l-262 634q-10 25 -47 31t-82 6q-2 0 -25 -2 q-55 -4 -59 -4v-20q16 2 43 2q31 0 47 -2q20 -20 20 -47t-4 -84v-6l-31 -512q0 -25 -12 -75t-43 -81q-8 -8 -18.5 -11t-40.5 -3q-12 0 -37 4v-23z" />
<glyph unicode="n" horiz-adv-x="1138" d="M66 0l6 -2q20 -2 43 -2q10 0 32 2q43 6 74 6q35 0 72 -6q18 -2 26 -2q23 0 56 4v20q-25 -4 -41 -4q-49 0 -70.5 39t-21.5 80v613l655 -748q10 -12 23 -12q25 0 24 18v707q0 68 11.5 92t39.5 43h42.5t29.5 -4v20q-27 6 -57 6q-10 0 -39 -4q-29 -6 -39 -6q-14 0 -43 4 q-35 6 -53 6q-33 0 -54 -4v-18q12 2 37 2q27 0 41 -2q29 -25 37 -61.5t8 -90.5v-551l-604 684q-23 25 -54.5 33t-86.5 8t-94 -8v-20l8 2q25 2 37 2q27 0 40 -7.5t33 -29.5l21 -23v-596q0 -10 -2 -31.5t-6 -49t-15.5 -53t-27.5 -36.5q-2 -2 -18.5 -3t-24.5 -1q-25 0 -45 4 v-20z" />
<glyph unicode="o" horiz-adv-x="1099" d="M72 395q0 -74 29.5 -146.5t90 -132t150.5 -94t209 -34.5q125 0 218 45t150.5 117.5t84 157.5t26.5 167q0 76 -29.5 147.5t-89 131t-150.5 94.5t-210 35q-125 0 -218 -45t-150.5 -118t-84 -158t-26.5 -167zM166 481q0 170 99.5 265.5t250.5 95.5q88 0 164 -38t131 -103.5 t85 -148.5t30 -167q0 -170 -99.5 -265t-251.5 -95q-88 0 -163.5 37.5t-131 103t-85 148.5t-29.5 167z" />
<glyph unicode="p" horiz-adv-x="796" d="M72 848h6q20 4 33 4q53 0 68.5 -33t15.5 -92v-596q0 -43 -6.5 -63.5t-20.5 -38.5q-8 -2 -23.5 -5.5t-27.5 -3.5t-37 5h-4v-23h20q16 -2 29 -2q12 0 59 6q45 4 58 4q8 0 41 -4q51 -6 73 -6q29 0 41.5 1t28.5 3v21q-2 0 -16 -2q-29 -2 -58 -3q-29 23 -41 42.5t-12 52.5v354 q31 -14 60.5 -21.5t70.5 -7.5q123 0 205 69t82 171q0 96 -66.5 140t-173.5 44q-70 0 -158 -2q-51 -2 -75 -2q-6 0 -49 4q-57 6 -72 6q-45 0 -51 -2v-20zM299 508v276q0 29 26.5 38t71.5 9q111 0 160 -50t49 -124q0 -72 -44 -126t-144 -54q-43 0 -66.5 7.5t-52.5 23.5z" />
<glyph unicode="q" horiz-adv-x="1099" d="M72 395q0 -74 29.5 -146.5t90 -132t150.5 -94t209 -34.5q125 0 218 45t150.5 117.5t84 157.5t26.5 167q0 76 -29.5 147.5t-89 131t-150.5 94.5t-210 35q-125 0 -218 -45t-150.5 -118t-84 -158t-26.5 -167zM166 481q0 170 99.5 265.5t250.5 95.5q88 0 164 -38t131 -103.5 t85 -148.5t30 -167q0 -170 -99.5 -265t-251.5 -95q-88 0 -163.5 37.5t-131 103t-85 148.5t-29.5 167zM287 -147q4 -2 10 -3q6 -2 8 -2q23 31 39 41.5t53 10.5q45 0 84 -23.5t133 -105.5q76 -63 131.5 -91t126.5 -28q106 0 191.5 58.5t136.5 168.5h-20q-20 -45 -57.5 -74.5 t-78 -46t-78.5 -22.5t-69 -6q-68 0 -102.5 14t-98.5 59q-2 2 -8 7l-14 10q-78 55 -106.5 74.5t-49 32t-38 16.5t-40.5 4q-10 0 -24.5 -1t-28.5 -5q-33 -8 -53.5 -29t-42.5 -53q-4 -4 -4 -6z" />
<glyph unicode="r" horiz-adv-x="948" d="M86 848q10 2 27 2q16 0 33.5 -2t29.5 -8q33 -23 33 -86v-633q0 -41 -4 -57.5t-25 -38.5q-25 -8 -49 -9q-27 0 -41 2v-20q16 -2 57 -2q10 0 33 2q2 0 15 2q45 4 73 4q49 -2 76 -6q10 -2 12 -2q18 -2 25 -2h13t28 4v20h-21q-16 -2 -20 -2q-49 0 -61.5 38t-12.5 118v291 q4 -2 33 -8q29 -4 33 -6q10 -4 28.5 -25t26.5 -33l172 -272q53 -82 100.5 -103.5t106.5 -21.5q45 0 73.5 4t43.5 10q-2 4 -2 10q-2 6 -2 9q-16 -12 -43 -13q-45 0 -87 24.5t-83 86.5l-189 287q-10 16 -17 22t-22 12v5q121 10 188.5 66t67.5 147q0 72 -29.5 115.5t-73.5 63 t-82 24.5t-75 5q-14 0 -82 -4l-43 -2l-104 -6q-27 0 -84 6q-41 4 -49 4q-10 0 -27 -4v-18zM307 498v293q0 25 14.5 34t36.5 9q49 0 90 -4.5t82 -20.5t69 -53t28 -101q0 -86 -59.5 -131t-153.5 -45q-33 0 -52.5 4t-50.5 15h-4z" />
<glyph unicode="s" horiz-adv-x="720" d="M72 184q0 -23 14 -121q98 -37 126 -47t51.5 -16t42 -8t50.5 -2q41 0 86 14t84 43t62.5 74t23.5 102q0 82 -48 146.5t-187 181.5q-4 2 -10 8q-82 70 -112 104.5t-30 81.5q0 49 36 75t89 26q45 0 77 -18.5t50.5 -45t26.5 -51t8 -35.5q0 -14 -12 -43l16 -6q8 18 11 30.5 t3 31.5l-2 67v25.5t4 32.5l-51 18q-41 14 -73.5 20.5t-65.5 6.5q-66 0 -107.5 -22.5t-60 -54.5t-24 -57.5t-5.5 -42.5q0 -35 9.5 -61.5t31 -53t57.5 -58t105 -91.5q98 -82 134 -128t36 -111q0 -72 -48 -125.5t-134 -53.5q-53 0 -99.5 23t-79 57.5t-50 70.5t-17.5 60 q0 27 10 54l-16 2q-8 -23 -10 -38.5t-2 -64.5z" />
<glyph unicode="t" horiz-adv-x="796" d="M12 719q2 0 6 -4t7 -6q33 55 82 91t155 36q57 0 68.5 -14.5t11.5 -63.5v-561q0 -78 -10 -108t-41 -64l-2 -2q-14 -2 -41 -3q-25 0 -39 3v-23h70q6 0 38 4q55 4 68 4q14 0 59 -4q51 -4 64 -4q27 0 61 2v21l-53 -3q-27 0 -48.5 29t-21.5 98v648q0 20 12.5 29.5t59.5 9.5 q86 0 124 -10.5t38 -51.5q0 -16 -6 -28.5t-27 -43.5l-2 -4l14 -6q74 86 74 123t-18.5 53.5t-67.5 16.5l-108 -11q-20 -2 -59.5 -3t-59.5 -1q-33 0 -90.5 2t-100.5 4q-8 0 -35.5 3.5t-43.5 5.5l-31 2q-14 0 -23 -2q-12 -33 -24 -58q-6 -12 -37 -65z" />
<glyph unicode="u" horiz-adv-x="1062" d="M51 846h8q31 4 54 4q37 0 53 -39t16 -100l2 -363q0 -63 7.5 -117.5t39 -109.5t102 -93t189.5 -38t192.5 34.5t109.5 90t47.5 113t11.5 122.5v350q0 80 24.5 114t71.5 34q18 0 27 -2v18q-12 4 -18.5 5t-26.5 1t-64 -6q-35 -4 -43 -4t-41 4q-49 6 -65 6q-18 0 -37 -6v-18 q10 2 26 2q59 0 83 -49t24 -121v-332q0 -47 -6.5 -94t-33 -100.5t-87 -89t-160.5 -35.5q-74 0 -126 24.5t-85 65.5t-47 88t-14 92v438q0 37 23.5 76t56.5 39q27 0 47 -6v18q-10 4 -22.5 6t-41.5 2q-8 0 -61 -4q-57 -6 -70 -6q-8 0 -43 4q-45 6 -53 6l-47 -2q-10 0 -23 -4 v-18z" />
<glyph unicode="v" horiz-adv-x="909" d="M-8 846q27 -2 40 -5t24.5 -16.5t25.5 -40t39 -79.5l319 -717h23l315 755q29 68 56.5 87.5t46.5 19.5q12 0 20 -2v20q-16 2 -43 2q-10 0 -49 -6q-35 -4 -43 -4t-41 4q-37 4 -45 4q-6 0 -18.5 -2t-16.5 -4v-16q2 0 14 2h19q8 0 22 -2h11q8 -2 18 -22.5t10 -43.5 q0 -55 -20 -100l-232 -549l-278 610q-2 8 -6 15q-8 18 -10.5 26.5t-2.5 18.5q0 20 9.5 32.5t33.5 12.5q18 0 48 -4v18q-4 0 -11 2q-39 6 -53 6q-8 0 -35 -4q-43 -4 -57 -4q-27 0 -72 6q-27 2 -35 2q-10 0 -26 -4v-18z" />
<glyph unicode="w" horiz-adv-x="1290" d="M4 846q4 0 21 2h20q35 0 51.5 -16.5t28.5 -49.5l324 -794h18l186 467l187 -467h18l295 741q23 53 53.5 88t50.5 35h16.5t16.5 -4v16q-10 4 -17 5t-24 1q-20 0 -53 -4q-31 -4 -49 -4q-12 0 -37 4q-23 2 -31 2q-29 0 -41 -4v-18q10 2 29 2q10 0 35 -4q28 -28 28 -60 q0 -6 -2 -16q-4 -29 -18 -66l-221 -561l-184 445l75 180v2q16 33 40 58.5t65 25.5q10 0 26 -4q2 0 9 -2v18q-8 6 -33 6q-16 0 -45 -4t-45 -4q-10 0 -39 4q-18 2 -23 2q-12 0 -24 -4v-18q12 4 18 4q10 0 27 -12q2 -6 2 -21q0 -16 -2 -33.5t-8 -29.5l-56 -131l-65 157l-6 13 q-8 20 -9 22q0 10 6 23q14 8 27 8q12 0 19 -2v18q-29 4 -58 4q-10 0 -24 -2q-39 -2 -70 -2q-12 0 -43 4q-25 2 -33 2q-12 0 -28 -4v-18q2 0 14 2h12q29 0 37 -4q20 -8 35.5 -36t32.5 -67q2 -4 2 -6l96 -243l-141 -363l-260 643q0 2 -3 8q-8 18 -8 33q0 10 9.5 18.5 t15.5 12.5q10 4 29 4h12q10 -2 12 -2v18q-25 4 -33 4q-12 0 -49 -4q-53 -4 -76 -4q-27 0 -69 6q-25 2 -33 2q-27 0 -39 -4v-18z" />
<glyph unicode="x" horiz-adv-x="909" d="M47 6q12 -4 17.5 -4h21.5l96 4q6 0 34 -2t32 -2q12 -2 14 -2q25 0 34 1t32 5v21l-58 -7q-39 0 -39 43q0 12 6.5 30t14.5 32l182 291l170 -262q18 -27 30.5 -51.5t12.5 -47.5q0 -12 -8 -28q-2 -2 -4 -7q-23 0 -33 1.5t-24 5.5v-23h2q18 -4 36 -4q10 0 48 2q47 2 51 2 q12 0 57 -2q61 -2 68 -2q37 0 47 2v18q-57 0 -83 19.5t-63 77.5l-252 387l150 233q37 53 68.5 82t74.5 29q14 0 43 -4v18q-8 2 -27.5 4t-31.5 2q-6 0 -37 -4q-39 -4 -51 -4q-18 0 -57 4q-29 4 -35 4q-23 0 -41 -4v-16q29 4 41 4q23 0 32 -11.5t9 -29.5q0 -12 -8.5 -39 t-22.5 -47l-121 -188l-156 237q-14 23 -14 41q0 14 7 25.5t24 11.5q12 0 29 -4v16q-8 4 -13.5 5t-19.5 1q-8 0 -53 -4t-54 -4q-8 0 -47 4q-47 4 -53 4q-29 0 -53 -6v-18q23 2 49 2q16 0 29.5 -6t27.5 -29l242 -367l-193 -303q-29 -45 -66.5 -84t-76.5 -39q-18 0 -37 7v-21z " />
<glyph unicode="y" horiz-adv-x="833" d="M18 844l45 2q16 0 32 -8.5t36 -38.5l240 -348v-316q0 -53 -9.5 -74.5t-31.5 -37.5q-51 0 -74 2v-21q18 -4 25.5 -4h29.5q8 0 56 4q51 6 61 6t68 -4q61 -6 73 -6h20.5t12.5 4v21q-6 0 -16 -2q-8 -2 -13 -3q-2 0 -6 3h-12q-41 0 -61.5 29.5t-20.5 68.5v313l195 303 q41 66 69.5 87.5t63.5 21.5q18 0 28 -2v20q-14 6 -22 6t-45 -4q-43 -4 -51 -4t-47 4q-43 4 -52 4q-8 0 -32 -4q-4 -2 -7 -2v-20q18 2 39 2q18 0 29.5 -7.5t11.5 -33.5q0 -25 -20 -62l-4 -6l-164 -254l-199 291q-14 23 -14 43q0 14 11 24.5t34 10.5q14 0 35 -4v16 q-18 6 -45 6l-107 -8q-20 0 -82 4q-41 4 -47 4l-33 -2v-24z" />
<glyph unicode="z" horiz-adv-x="872" d="M61 18l2 -16h13q8 -2 10 -2h596l74 -2q6 14 12 22.5t27 34.5l8 11l6 8q31 39 41 55t20 51h-16q-20 -51 -98 -96t-195 -45h-368l550 813l-20 29q-45 -8 -66.5 -9.5t-93.5 -1.5h-319q-43 0 -56 2q-10 2 -30 9q-4 2 -11 4q-6 -23 -10 -34t-16 -32q-8 -16 -10 -22 q-25 -49 -30 -64.5t-7 -42.5h14q8 45 35 74t58.5 44t57 20.5t35.5 5.5h338z" />
<glyph unicode="{" horiz-adv-x="454" d="M6 483q92 -18 124 -55t32 -106v-244q0 -61 19.5 -100t51 -59.5t73.5 -29t97 -8.5v17q-94 12 -130.5 51t-36.5 117v235q0 80 -29 122t-113 58v4q84 18 113 59.5t29 121.5v235q0 78 36.5 117t130.5 51v16q-55 0 -97 -8t-73.5 -28.5t-51 -59.5t-19.5 -100v-244 q0 -70 -32 -106.5t-124 -55.5z" />
<glyph unicode="|" horiz-adv-x="454" d="M190 -512h74v2048h-74v-2048z" />
<glyph unicode="}" horiz-adv-x="454" d="M51 -98v-17q55 0 97 8.5t75 29t51.5 59t18.5 100.5v244q0 70 31.5 106.5t124.5 54.5q-92 18 -124 55.5t-32 106.5v244q0 61 -18.5 100t-51.5 59.5t-75 29t-97 8.5v-17q94 -12 131 -51t37 -117v-235q0 -80 28.5 -121t112.5 -60v-4q-84 -16 -112.5 -58t-28.5 -122v-235 q0 -78 -37 -117t-131 -51z" />
<glyph unicode="~" horiz-adv-x="1228" d="M213 387l55 -49q25 45 68 84t92 39q41 0 82 -15.5t94 -44.5q104 -59 189 -59q72 0 124 42t99 114l-55 49q-27 -51 -71 -91t-95 -40q-37 0 -78 15t-96 44q-104 59 -191 60q-72 0 -122 -40t-95 -108z" />
<glyph unicode="&#xa2;" horiz-adv-x="833" d="M59 352q0 -37 8.5 -80t31 -89t66.5 -89t111 -76l-104 -270h49l96 256l11 -2q80 -14 127 -14q39 0 95 6t118 31q43 16 73.5 40.5t49.5 65.5l-21 8q-12 -25 -35.5 -44t-42.5 -29q-96 -37 -190 -37q-35 0 -79 6t-83 26l238 650q68 -18 115.5 -72.5t47.5 -85.5q0 -18 -6 -37 l17 -2q16 47 16 59v7q-2 4 -2 6l-37 137h-6q-18 -4 -27 -4q-20 0 -37.5 5t-66.5 26l88 239h-47l-82 -227h-6q-63 8 -96 8q-47 0 -94.5 -12.5t-84.5 -30.5q-111 -55 -161 -158.5t-50 -216.5zM186 356q0 102 26 175t66.5 116t91 61.5t101.5 18.5q20 0 61 -4h5l-234 -637 q-25 23 -46 49.5t-40 63.5q-12 29 -21.5 77t-9.5 80z" />
<glyph unicode="&#xa3;" horiz-adv-x="948" d="M94 522h129q51 -74 75 -122t24 -97q0 -33 -24 -73t-57.5 -77.5t-64.5 -65.5t-72 -62v-21l5 -2q8 -2 12 -2h581q6 23 22.5 47.5t33.5 46.5q2 2 4 6q31 37 39 51.5t22 49.5h-22q-20 -57 -48 -71.5t-106 -14.5h-389q57 51 92 103t35 114q0 53 -13.5 92t-43.5 96l-2 2h186v47 h-199v2q-25 53 -39 104.5t-14 121.5q0 117 69.5 181t166.5 64q70 0 112.5 -25.5t61 -62t22.5 -69.5t4 -64q0 -16 -7 -27.5t-44 -50.5l-2 -2l6 -6t4 -6q6 6 25.5 23.5t28.5 25.5q4 4 34 45q14 18 32 41t24 29q-20 39 -43 70.5t-62 60.5t-95 46t-134 17q-61 0 -122.5 -18 t-113 -55t-81 -90.5t-29.5 -118.5q0 -63 21.5 -118.5t58.5 -117.5h-103v-47z" />
<glyph unicode="&#xa5;" horiz-adv-x="1175" d="M119 1047q18 2 65 2q41 -29 66 -68l268 -418h-262v-35h266v-155h-266v-35h266v-139q0 -57 -12 -104.5t-41 -67.5q-2 -2 -18 -2q-39 0 -66 8v-27q35 -6 64 -6q25 0 75 4q39 4 51 4t54 -4q55 -4 82 -4q20 0 61 4v25q-29 -4 -37 -4q-31 0 -33 2q-31 18 -49 54t-18 83v174 h266v35h-266v155h266v35h-252l230 357q20 31 51 65.5t39 40.5q6 6 23.5 12t29.5 6q16 0 35 -6v27q-10 4 -19.5 6t-29.5 2q-14 0 -56 -4q-35 -4 -43 -4q-6 0 -30 2q-49 6 -78 6q-31 0 -47 -2v-24q12 2 39 2q16 0 43 -2l8 -3q16 -27 16 -49q0 -20 -15.5 -51t-35.5 -63 l-182 -283l-228 350q-2 4 -8 15q-10 16 -17 28.5t-7 18.5q0 16 10 26q18 12 41 13q31 0 57 -11v29q-27 6 -67 6q-20 0 -64 -4q-37 -4 -53 -4q-10 0 -51 4q-43 4 -62 4q-23 0 -59 -4v-22z" />
<glyph unicode="&#xa8;" d="M35 1096q0 -27 17.5 -44.5t43.5 -17.5q27 0 44.5 17.5t17.5 44.5t-17.5 44t-44.5 17t-44 -17t-17 -44zM373 1096q0 -27 17.5 -44.5t43.5 -17.5q27 0 44.5 17.5t17.5 44.5t-17.5 44t-44.5 17t-44 -17t-17 -44z" />
<glyph unicode="&#xa9;" horiz-adv-x="1228" d="M66 537q0 -111 43 -211.5t118.5 -176t176 -118.5t210.5 -43q113 0 213.5 43t176 118.5t117.5 176t42 211.5q0 113 -42 213t-117.5 175.5t-176 117.5t-213.5 42q-111 0 -211 -42t-175.5 -117.5t-118.5 -175.5t-43 -213zM127 537q0 98 38 187t105.5 156.5t156.5 105.5 t187 38t187.5 -38t157 -105.5t105.5 -156.5t38 -187t-38 -187.5t-105.5 -157t-156.5 -105.5t-188 -38q-98 0 -187 38t-156.5 105.5t-105.5 157t-38 187.5zM326 549q0 -139 85 -227.5t240 -88.5q43 0 89 7.5t85 19.5q25 8 31 29l23 104h-17q-23 -57 -70 -91t-130 -34 q-129 0 -192.5 78t-63.5 209q0 119 62 192.5t181 73.5q96 0 139 -39t48 -96h18v107q0 20 -27 30q-80 33 -172 33q-141 0 -235 -83t-94 -224z" />
<glyph unicode="&#xab;" horiz-adv-x="796" d="M115 412l282 -252v49l-190 217l190 227v49l-282 -260v-30zM410 406l278 -250v53l-192 217l188 223v53l-274 -256v-40z" />
<glyph unicode="&#xad;" horiz-adv-x="606" d="M39 393h20q2 2 11 17q8 14 10 16q39 4 67.5 6t59.5 2h293l39 74q-23 -2 -61 -5t-77 -3h-297q-18 -25 -38.5 -57.5t-26.5 -49.5z" />
<glyph unicode="&#xae;" horiz-adv-x="1228" d="M66 537q0 -111 43 -211.5t118.5 -176t176 -118.5t210.5 -43q113 0 213.5 43t176 118.5t117.5 176t42 211.5q0 113 -42 213t-117.5 175.5t-176 117.5t-213.5 42q-111 0 -211 -42t-175.5 -117.5t-118.5 -175.5t-43 -213zM127 537q0 98 38 187t105.5 156.5t156.5 105.5 t187 38t187.5 -38t157 -105.5t105.5 -156.5t38 -187t-38 -187.5t-105.5 -157t-156.5 -105.5t-188 -38q-98 0 -187 38t-156.5 105.5t-105.5 157t-38 187.5zM356 250h215v18q-49 4 -59 12.5t-10 45.5v186h110l148 -223q12 -16 30.5 -27.5t47.5 -11.5h77v18q-35 4 -60.5 23.5 t-51.5 62.5l-113 172q57 20 94 63.5t37 102.5q0 74 -54 112t-134 38h-277v-19q49 -2 60.5 -11t11.5 -44v-442q0 -35 -11 -44.5t-61 -13.5v-18zM502 541v274h112q57 0 92 -28.5t35 -94.5q0 -152 -131 -151h-108z" />
<glyph unicode="&#xb4;" d="M49 997l6 -14l426 145l-32 72z" />
<glyph unicode="&#xb8;" d="M0 -328q55 -25 108.5 -41t102.5 -16q88 0 150.5 34t62.5 107q0 45 -21.5 73t-53.5 40t-64.5 15t-73.5 3l29 111h-41l-43 -152h63q55 0 96 -24.5t41 -75.5q0 -35 -29.5 -62.5t-84.5 -27.5q-66 0 -117 14.5t-109 42.5z" />
<glyph unicode="&#xbb;" horiz-adv-x="796" d="M115 152l276 258v41l-276 251v-55l192 -215l-192 -227v-53zM406 154l278 258v39l-278 251v-57l192 -211l-192 -225v-55z" />
<glyph unicode="&#xc1;" horiz-adv-x="1062" d="M-2 2q10 -2 35 -2q10 0 41 4q47 4 65 4q12 0 62 -4q43 -4 49 -4q27 0 39 2v18h-37q-27 0 -43 7q-12 12 -19.5 26.5t-7.5 36.5q0 23 9.5 57.5t17.5 53.5l108 276h332l139 -356q8 -23 9 -51q0 -18 -6.5 -26.5t-26.5 -20.5h-21l-12 -3q-12 0 -39 5v-23q16 -2 43 -2 q10 0 62 4q59 4 67 4q6 0 42 -2t79 -4q25 -2 27 -2q4 0 12 2h10v21q-10 -2 -30 -3q-23 0 -41 9q-18 18 -26.5 31.5t-23.5 50.5l-372 960q-2 6 -11 14h-16q-4 -2 -8 -10l-361 -934q-18 -49 -41.5 -75.5t-46.5 -42.5h-22l-10 -3q-10 0 -27 5v-23zM315 1149l7 -14l426 145 l-33 72zM332 514l151 387l154 -387h-305z" />
<glyph unicode="&#xc9;" horiz-adv-x="985" d="M115 4q16 -4 47 -4q29 0 76 4q45 2 73 2q102 0 242 -4q68 0 135.5 -3t93.5 -7q4 6 16.5 25.5t41.5 56.5q20 29 22 32q16 27 23.5 44.5t11.5 50.5h-20q-4 -37 -23.5 -57.5t-97.5 -59.5q-63 -31 -122 -40t-87 -9h-105q-31 0 -54 18.5t-23 50.5v439h59q33 2 45 2 q139 0 184 -24.5t49 -112.5h15q0 57 -12 92q-10 29 -12.5 46t-6.5 75l-2 14v6q-4 41 -6 52.5t-12 27.5l-13 -8q2 -4 4 -15q6 -29 7 -39q0 -27 -27 -52t-92 -25h-180v411q0 25 22.5 32t50.5 7q59 0 119.5 -8t116 -28.5t90.5 -55.5t35 -86h16q0 27 -2 41t-12 37q-8 23 -23 53 q-10 25 -21.5 49.5t-15.5 34.5l-104 -2h-246q-12 0 -27.5 1t-74.5 3q-41 2 -66.5 3t-40.5 1q-31 0 -59 -6v-22q18 2 43 2q55 0 70.5 -31t15.5 -88v-760q0 -92 -37 -129q-25 -16 -61 -16q-14 0 -39 4v-25zM276 1149l7 -14l426 145l-33 72z" />
<glyph unicode="&#xcd;" horiz-adv-x="606" d="M88 1149l6 -14l426 145l-33 72zM119 1047q12 2 37 2q61 0 75.5 -34t14.5 -108v-751q0 -68 -13.5 -99.5t-68.5 -31.5q-29 0 -41 2v-27h90q8 0 43 4q43 4 49 4q10 0 53 -4q51 -4 60 -4h69v27q-10 -2 -28 -2q-35 0 -55.5 13t-29.5 32.5t-11.5 40t-2.5 43.5v755 q0 27 3.5 48.5t12.5 43t28.5 35t52.5 13.5q27 0 41 -2v24q-18 2 -43 2q-10 0 -72 -4q-61 -4 -74 -4q-23 0 -80 4t-79 4l-31 -2v-24z" />
<glyph unicode="&#xd3;" horiz-adv-x="1290" d="M84 520q0 -106 36 -202.5t108.5 -171t179 -116.5t245.5 -42q131 0 235.5 52t176.5 136t107.5 181.5t35.5 185.5q0 123 -41 223t-115.5 172t-177 109.5t-225.5 37.5q-117 0 -220 -46t-181 -125.5t-121 -182t-43 -211.5zM197 553q0 106 31.5 197.5t91 159t139.5 104.5 t172 37q125 0 215 -58.5t145.5 -149.5t80 -191.5t24.5 -184.5q0 -193 -117 -315q-57 -61 -136 -94t-175 -33q-115 0 -205 48t-149.5 128t-88 172t-28.5 180zM430 1149l6 -14l426 145l-33 72z" />
<glyph unicode="&#xd6;" horiz-adv-x="1290" d="M84 520q0 -106 36 -202.5t108.5 -171t179 -116.5t245.5 -42q131 0 235.5 52t176.5 136t107.5 181.5t35.5 185.5q0 123 -41 223t-115.5 172t-177 109.5t-225.5 37.5q-117 0 -220 -46t-181 -125.5t-121 -182t-43 -211.5zM197 553q0 106 31.5 197.5t91 159t139.5 104.5 t172 37q125 0 215 -58.5t145.5 -149.5t80 -191.5t24.5 -184.5q0 -193 -117 -315q-57 -61 -136 -94t-175 -33q-115 0 -205 48t-149.5 128t-88 172t-28.5 180zM416 1247q0 -27 17.5 -44t43.5 -17q27 0 44.5 17.5t17.5 43.5q0 27 -17.5 44.5t-44.5 17.5t-44 -17.5t-17 -44.5z M754 1247q0 -27 17 -44t44 -17t44.5 17.5t17.5 43.5q0 27 -17.5 44.5t-44.5 17.5t-44 -17.5t-17 -44.5z" />
<glyph unicode="&#xda;" horiz-adv-x="1214" d="M59 1040q8 2 13 2q39 6 49 7q8 0 19.5 -4.5t23.5 -14.5q33 -31 33 -102v-561q0 -182 114.5 -279.5t317.5 -97.5q59 0 139 23.5t139 82.5q72 72 91.5 158t19.5 233v357q0 102 10 135t51 65q8 4 29 5q10 0 39 -9v27q-18 6 -43 6q-8 0 -47 -4q-49 -6 -64 -6q-16 0 -59 6 q-43 4 -60 4q-27 0 -49 -6v-27q25 8 47 9q27 0 31 -5q39 -16 55.5 -57t16.5 -90v-459q0 -61 -5 -115.5t-26 -105.5q-33 -82 -120 -135t-177 -53q-119 0 -190.5 42t-104.5 102t-40 112.5t-7 101.5l2 504q0 72 17.5 115t72.5 43q18 0 27.5 -1t26.5 -6h4v27q-33 4 -56 4 q-8 0 -35.5 -3t-37.5 -5q-18 -2 -62 -2q-10 0 -69 4q-61 6 -74 6q-33 0 -62 -6v-27zM391 1149l6 -14l426 145l-32 72z" />
<glyph unicode="&#xdc;" horiz-adv-x="1214" d="M59 1040q8 2 13 2q39 6 49 7q8 0 19.5 -4.5t23.5 -14.5q33 -31 33 -102v-561q0 -182 114.5 -279.5t317.5 -97.5q59 0 139 23.5t139 82.5q72 72 91.5 158t19.5 233v357q0 102 10 135t51 65q8 4 29 5q10 0 39 -9v27q-18 6 -43 6q-8 0 -47 -4q-49 -6 -64 -6q-16 0 -59 6 q-43 4 -60 4q-27 0 -49 -6v-27q25 8 47 9q27 0 31 -5q39 -16 55.5 -57t16.5 -90v-459q0 -61 -5 -115.5t-26 -105.5q-33 -82 -120 -135t-177 -53q-119 0 -190.5 42t-104.5 102t-40 112.5t-7 101.5l2 504q0 72 17.5 115t72.5 43q18 0 27.5 -1t26.5 -6h4v27q-33 4 -56 4 q-8 0 -35.5 -3t-37.5 -5q-18 -2 -62 -2q-10 0 -69 4q-61 6 -74 6q-33 0 -62 -6v-27zM377 1247q0 -27 17.5 -44t43.5 -17q27 0 44.5 17.5t17.5 43.5q0 27 -17.5 44.5t-44.5 17.5t-44 -17.5t-17 -44.5zM715 1247q0 -27 17.5 -44t43.5 -17q27 0 44.5 17.5t17.5 43.5 q0 27 -17.5 44.5t-44.5 17.5t-44 -17.5t-17 -44.5z" />
<glyph unicode="&#xe1;" horiz-adv-x="909" d="M4 2q10 -2 35 -2q6 0 31 2q33 2 59 2q14 0 53 -2q41 -2 58 -2q25 0 34 2v18h-20q-18 -2 -23 -2q-27 0 -39 19.5t-12 44.5q0 27 15 68l90 241h256l110 -274q10 -25 11 -47q0 -41 -25 -45q-16 -4 -31 -5q-12 0 -37 5v-23q14 -2 37 -2q14 0 45 4q47 4 72 4q31 0 86 -6 q33 -2 37 -2q16 0 41 4v23q-2 0 -15 -2q-18 -4 -24 -5q-10 0 -24.5 2.5t-16.5 4.5q-16 25 -29.5 51t-38.5 86l-284 719h-23l-285 -754q-4 -12 -15 -31.5t-28 -42.5l-4 -6q0 -2 -9 -9t-15 -11l-8 -6q-2 -2 -12.5 -3.5t-20.5 -1.5q-2 0 -15 2h-16v-18zM240 997l6 -14l426 145 l-33 72zM301 424l109 295l118 -295h-227z" />
<glyph unicode="&#xe9;" horiz-adv-x="833" d="M66 2q16 -2 65 -2q18 0 55 2t56 2q33 0 102 -2q70 -2 102 -2q117 0 144 -2q41 -4 63 -8q8 20 15.5 31.5t33.5 48.5q0 2 3 2q33 47 40 64.5t9 53.5h-15q-10 -51 -49 -82.5t-92 -46t-100 -17.5t-105 -3q-51 0 -70.5 7t-19.5 38v363q88 0 135 -3.5t78 -12.5t46.5 -30.5 t25.5 -58.5h14v29q0 4 -4 18.5t-12 38.5q-14 45 -17 53q-2 10 -2 39q0 35 -4 49q-4 16 -14 31l-2 2q-2 -2 -6 -2q-6 0 -9 -2q12 -33 13 -49q0 -39 -30 -49t-87 -10h-125v303q0 8 6 22q2 0 4 8q33 16 72 17q31 0 73 -4t90 -18.5t84 -45.5t40 -80h12q0 37 -4 54l-14 36 q-18 49 -26.5 71t-10.5 32h-4q-57 -8 -95 -10.5t-157 -2.5h-62q-127 2 -205 3l-30 -3v-24l57 4q41 0 53.5 -21.5t12.5 -68.5v-631q0 -57 -18.5 -85t-76.5 -28q-12 0 -30 3q-2 2 -8 2v-23zM201 997l6 -14l426 145l-33 72z" />
<glyph unicode="&#xed;" d="M49 997l6 -14l426 145l-32 72zM80 846q16 2 43 2q31 0 47 -2q27 -23 35 -45.5t8 -75.5v-569q0 -63 -7 -86t-30 -45q-14 -2 -41 -2q-31 0 -45 2v-21q20 -4 39 -4q10 0 61 4q59 4 68 4q12 0 68 -4q70 -4 80 -4h20t14 4v21q-29 -4 -43 -5q-12 0 -37 5h-4q-16 16 -27.5 38.5 t-11.5 53.5v645q0 86 78 86q27 0 45 -2v18q-6 2 -10 2q-31 4 -43 4q-6 0 -55 -4q-55 -4 -68 -4q-10 0 -55 4q-55 4 -64 4q-35 0 -65 -6v-18z" />
<glyph unicode="&#xf3;" horiz-adv-x="1099" d="M72 395q0 -74 29.5 -146.5t90 -132t150.5 -94t209 -34.5q125 0 218 45t150.5 117.5t84 157.5t26.5 167q0 76 -29.5 147.5t-89 131t-150.5 94.5t-210 35q-125 0 -218 -45t-150.5 -118t-84 -158t-26.5 -167zM166 481q0 170 99.5 265.5t250.5 95.5q88 0 164 -38t131 -103.5 t85 -148.5t30 -167q0 -170 -99.5 -265t-251.5 -95q-88 0 -163.5 37.5t-131 103t-85 148.5t-29.5 167zM334 997l6 -14l426 145l-33 72z" />
<glyph unicode="&#xf6;" horiz-adv-x="1099" d="M72 395q0 -74 29.5 -146.5t90 -132t150.5 -94t209 -34.5q125 0 218 45t150.5 117.5t84 157.5t26.5 167q0 76 -29.5 147.5t-89 131t-150.5 94.5t-210 35q-125 0 -218 -45t-150.5 -118t-84 -158t-26.5 -167zM166 481q0 170 99.5 265.5t250.5 95.5q88 0 164 -38t131 -103.5 t85 -148.5t30 -167q0 -170 -99.5 -265t-251.5 -95q-88 0 -163.5 37.5t-131 103t-85 148.5t-29.5 167zM319 1096q0 -27 17.5 -44.5t44.5 -17.5t44 17.5t17 44.5t-17 44t-44 17t-44.5 -17t-17.5 -44zM657 1096q0 -27 17.5 -44.5t44.5 -17.5t44 17.5t17 44.5t-17.5 44t-43.5 17 q-27 0 -44.5 -17t-17.5 -44z" />
<glyph unicode="&#xfa;" horiz-adv-x="1062" d="M51 846h8q31 4 54 4q37 0 53 -39t16 -100l2 -363q0 -63 7.5 -117.5t39 -109.5t102 -93t189.5 -38t192.5 34.5t109.5 90t47.5 113t11.5 122.5v350q0 80 24.5 114t71.5 34q18 0 27 -2v18q-12 4 -18.5 5t-26.5 1t-64 -6q-35 -4 -43 -4t-41 4q-49 6 -65 6q-18 0 -37 -6v-18 q10 2 26 2q59 0 83 -49t24 -121v-332q0 -47 -6.5 -94t-33 -100.5t-87 -89t-160.5 -35.5q-74 0 -126 24.5t-85 65.5t-47 88t-14 92v438q0 37 23.5 76t56.5 39q27 0 47 -6v18q-10 4 -22.5 6t-41.5 2q-8 0 -61 -4q-57 -6 -70 -6q-8 0 -43 4q-45 6 -53 6l-47 -2q-10 0 -23 -4 v-18zM315 997l7 -14l426 145l-33 72z" />
<glyph unicode="&#xfc;" horiz-adv-x="1062" d="M51 846h8q31 4 54 4q37 0 53 -39t16 -100l2 -363q0 -63 7.5 -117.5t39 -109.5t102 -93t189.5 -38t192.5 34.5t109.5 90t47.5 113t11.5 122.5v350q0 80 24.5 114t71.5 34q18 0 27 -2v18q-12 4 -18.5 5t-26.5 1t-64 -6q-35 -4 -43 -4t-41 4q-49 6 -65 6q-18 0 -37 -6v-18 q10 2 26 2q59 0 83 -49t24 -121v-332q0 -47 -6.5 -94t-33 -100.5t-87 -89t-160.5 -35.5q-74 0 -126 24.5t-85 65.5t-47 88t-14 92v438q0 37 23.5 76t56.5 39q27 0 47 -6v18q-10 4 -22.5 6t-41.5 2q-8 0 -61 -4q-57 -6 -70 -6q-8 0 -43 4q-45 6 -53 6l-47 -2q-10 0 -23 -4 v-18zM301 1096q0 -27 17.5 -44.5t43.5 -17.5q27 0 44.5 17.5t17.5 44.5t-17.5 44t-44.5 17t-44 -17t-17 -44zM639 1096q0 -27 17.5 -44.5t43.5 -17.5q27 0 44.5 17.5t17.5 44.5t-17.5 44t-44.5 17t-44 -17t-17 -44z" />
<glyph unicode="&#x2c6;" d="M4 983h55l205 178l215 -178h47l-225 252h-68z" />
<glyph unicode="&#x2dc;" d="M23 1014h45q6 37 22 60.5t57 23.5q25 0 95 -23l8 -2l14 -4q68 -23 92 -22q43 0 89.5 28.5t62.5 104.5h-51q-10 -33 -30.5 -57.5t-64.5 -24.5q-41 0 -94 24q-59 27 -123 27q-35 0 -58.5 -14.5t-36.5 -36t-18 -41t-9 -43.5z" />
<glyph unicode="&#x2000;" horiz-adv-x="768" />
<glyph unicode="&#x2001;" horiz-adv-x="1536" />
<glyph unicode="&#x2002;" horiz-adv-x="768" />
<glyph unicode="&#x2003;" horiz-adv-x="1536" />
<glyph unicode="&#x2004;" horiz-adv-x="512" />
<glyph unicode="&#x2005;" horiz-adv-x="384" />
<glyph unicode="&#x2006;" horiz-adv-x="256" />
<glyph unicode="&#x2007;" horiz-adv-x="256" />
<glyph unicode="&#x2008;" horiz-adv-x="192" />
<glyph unicode="&#x2009;" horiz-adv-x="307" />
<glyph unicode="&#x200a;" horiz-adv-x="85" />
<glyph unicode="&#x2010;" horiz-adv-x="606" d="M39 393h20q2 2 11 17q8 14 10 16q39 4 67.5 6t59.5 2h293l39 74q-23 -2 -61 -5t-77 -3h-297q-18 -25 -38.5 -57.5t-26.5 -49.5z" />
<glyph unicode="&#x2011;" horiz-adv-x="606" d="M39 393h20q2 2 11 17q8 14 10 16q39 4 67.5 6t59.5 2h293l39 74q-23 -2 -61 -5t-77 -3h-297q-18 -25 -38.5 -57.5t-26.5 -49.5z" />
<glyph unicode="&#x2012;" horiz-adv-x="606" d="M39 393h20q2 2 11 17q8 14 10 16q39 4 67.5 6t59.5 2h293l39 74q-23 -2 -61 -5t-77 -3h-297q-18 -25 -38.5 -57.5t-26.5 -49.5z" />
<glyph unicode="&#x2013;" horiz-adv-x="1175" d="M-2 434h1182v66h-1182v-66z" />
<glyph unicode="&#x2014;" horiz-adv-x="2048" d="M256 434h1536v66h-1536v-66z" />
<glyph unicode="&#x2018;" horiz-adv-x="303" d="M104 932q0 -39 20.5 -62.5t53.5 -23.5t53.5 21.5t20.5 50.5q0 27 -20.5 47t-53.5 20q-8 0 -22 -4q-4 0 -13 -2q14 35 27.5 53.5t52.5 54.5l-18 17q-100 -88 -101 -172z" />
<glyph unicode="&#x2019;" horiz-adv-x="303" d="M100 1014q0 -27 20.5 -47.5t53.5 -20.5q8 0 23 4q4 0 12 2q-14 -35 -27.5 -53t-52.5 -55l18 -17q100 88 101 172q0 39 -20.5 62.5t-53.5 23.5t-53.5 -21.5t-20.5 -49.5z" />
<glyph unicode="&#x201a;" horiz-adv-x="303" d="M78 68q0 -27 20.5 -47.5t53.5 -20.5q8 0 22 4q4 0 12 2q-14 -35 -27.5 -53.5t-52.5 -54.5l19 -17q100 88 100 172q0 39 -20.5 62.5t-52.5 23.5q-33 0 -53.5 -21.5t-20.5 -49.5z" />
<glyph unicode="&#x201c;" d="M68 932q0 -39 20.5 -62.5t52.5 -23.5q33 0 53.5 21.5t20.5 50.5q0 27 -20.5 47t-53.5 20q-8 0 -22 -4q-4 0 -13 -2q14 35 27.5 53.5t52.5 54.5l-18 17q-100 -88 -100 -172zM303 932q0 -39 20.5 -62.5t53.5 -23.5t53.5 21.5t20.5 50.5q0 27 -20.5 47t-53.5 20q-8 0 -23 -4 q-4 0 -12 -2q14 35 27.5 53.5t52.5 54.5l-19 17q-100 -88 -100 -172z" />
<glyph unicode="&#x201d;" d="M92 1014q0 -27 20.5 -47.5t53.5 -20.5q8 0 22 4q4 0 13 2q-14 -35 -27.5 -53t-52.5 -55l18 -17q100 88 101 172q0 39 -20.5 62.5t-53.5 23.5t-53.5 -21.5t-20.5 -49.5zM328 1014q0 -27 20.5 -47.5t52.5 -20.5q8 0 23 4q4 0 12 2q-14 -35 -27.5 -53t-52.5 -55l19 -17 q100 88 100 172q0 39 -20.5 62.5t-53.5 23.5t-53 -21.5t-20 -49.5z" />
<glyph unicode="&#x201e;" d="M92 68q0 -27 20.5 -47.5t53.5 -20.5q8 0 22 4q4 0 13 2q-14 -35 -27.5 -53.5t-52.5 -54.5l18 -17q100 88 101 172q0 39 -20.5 62.5t-53.5 23.5t-53.5 -21.5t-20.5 -49.5zM328 68q0 -27 20.5 -47.5t52.5 -20.5q8 0 23 4q4 0 12 2q-14 -35 -27.5 -53.5t-52.5 -54.5l19 -17 q100 88 100 172q0 39 -20.5 62.5t-53.5 23.5t-53 -21.5t-20 -49.5z" />
<glyph unicode="&#x2026;" horiz-adv-x="2048" d="M272 61q0 -29 20.5 -49t49.5 -20t49.5 20.5t20.5 48.5q0 29 -20.5 49.5t-49.5 20.5t-49.5 -20.5t-20.5 -49.5zM954 61q0 -29 20.5 -49t49.5 -20t49.5 20.5t20.5 48.5q0 29 -20.5 49.5t-49.5 20.5t-49.5 -20.5t-20.5 -49.5zM1636 61q0 -29 20.5 -49t49.5 -20t49.5 20.5 t20.5 48.5q0 29 -20.5 49.5t-49.5 20.5t-49.5 -20.5t-20.5 -49.5z" />
<glyph unicode="&#x202f;" horiz-adv-x="307" />
<glyph unicode="&#x2039;" horiz-adv-x="493" d="M109 408l280 -252v53l-188 215l188 223v45l-280 -246v-38z" />
<glyph unicode="&#x203a;" horiz-adv-x="493" d="M109 649l190 -217l-184 -223v-53l278 260v30l-284 252v-49z" />
<glyph unicode="&#x205f;" horiz-adv-x="384" />
<glyph unicode="&#x2122;" horiz-adv-x="1464" d="M59 940h19q10 49 33.5 76.5t66.5 27.5h98v-503q0 -33 -12 -42.5t-71 -15.5v-18h231v18q-59 6 -71.5 15.5t-12.5 42.5v503h98q45 0 67.5 -27.5t33.5 -76.5h18v133h-498v-133zM633 1055q43 -6 63.5 -22.5t36.5 -47.5v-410q0 -49 -16.5 -68.5t-69.5 -23.5v-18h201v18 q-53 4 -70.5 23.5t-17.5 68.5v367h4l246 -477h4l239 477h4v-367q0 -49 -17 -68.5t-71 -23.5v-18h236v18q-53 4 -69.5 23.5t-16.5 68.5v394q0 80 84 86v18h-123l-252 -508l-254 508h-141v-18z" />
<glyph unicode="&#x25fc;" horiz-adv-x="870" d="M0 0v870h870v-870h-870z" />
</font>
</defs>
</svg>
