<svg id="Layer_1" data-name="Layer 1" xmlns="http://www.w3.org/2000/svg" viewBox="0 0 545.64 67.65"><defs><style>.cls-1{stroke:#000;stroke-miterlimit:10;stroke-width:0.6px;}</style></defs><title>logo-20160424-source</title><path class="cls-1" d="M743,997.23a0.85,0.85,0,0,1,.5-0.14,0.18,0.18,0,0,1,.22.14h5.18c0.5,0.5.5,0.86-.07,1.08,0,0.14-.07.22-0.29,0.22h-1.66l-1.44-.14v0.22l0.07,0.14c0,0.22-.07.65-0.07,0.86v1.22a2.87,2.87,0,0,0,.29.94l0.07,1.44a13.92,13.92,0,0,1-.07,1.94v0.36l0.07,0.22v1.3a27.37,27.37,0,0,1,.07,3.1v1.3l0.07,0.65v1.08c0,0.07-.07,1.15-0.07,1.37v3.67c0,0.22-.07.65-0.07,0.72a0.35,0.35,0,0,0,.07.29v6.12q0.11,2.05.22,5.83a6.56,6.56,0,0,1,.14,1.94c0,0.07.14,0.5,0.14,0.58a52.56,52.56,0,0,0,.14,5.76l-0.14,2.09a1.43,1.43,0,0,0-.07.72v0.86l0.07,0.36v0.65a1,1,0,0,1,.14.29l-0.07,1c0,0.07-.07.43-0.07,0.5a0.35,0.35,0,0,0,.29.07h1.44a0.38,0.38,0,0,0,.22.14c0.07,0,.36-0.07.43-0.07h0.43a2.94,2.94,0,0,0,.65.14l0.43-.07h0.72a1.89,1.89,0,0,0,.5.07h0.43c0.79,0,2,.07,2.67.07H755a0.55,0.55,0,0,1,.29-0.14h0.22l0.14,0.07a1.9,1.9,0,0,0,.5-0.07l0.43-.07,2,0.22a0.66,0.66,0,0,1,.43-0.07,0.78,0.78,0,0,1,.36-0.07l0.22-.07a2.48,2.48,0,0,1,.79-0.07c0.29,0,.94.07,1.22,0.07h1.87c0.22,0,.5-0.07.72-0.07s1.37,0.14,1.94.14h1.37a14.62,14.62,0,0,0,1.8,0,4,4,0,0,0,.72-0.14c-0.07-1.51-.14-2.45-0.14-2.74V1043c0-.36-0.14-1.58-0.14-2.16a3.22,3.22,0,0,1,.29-1.73,1,1,0,0,1,.86-0.22c0.43,0,.65.94,0.65,1.3v1.37a3.81,3.81,0,0,1-.07,1,1.51,1.51,0,0,0-.22.86,10.59,10.59,0,0,0-.07,1.15,0.54,0.54,0,0,0,.07.29l0.07,0.22c0,0.29-.07.65-0.07,1a1.27,1.27,0,0,1-.07,1.15,0.56,0.56,0,0,1-.43.36,1.27,1.27,0,0,1-.94.43c-0.14,0-.22,0-0.22-0.07l-1.94-.14-0.22-.07-0.43-.07h-2.3a0.66,0.66,0,0,0-.43-0.07c-0.65,0-2.23.14-3,.14-0.5,0-2.16-.07-2.23-0.07h-1.15l-0.22.14a5.5,5.5,0,0,1-1.3.07c-0.07,0-.5-0.07-0.72-0.07H755c-0.36,0-1.37.07-1.73,0.07s-0.72-.22-0.94-0.22-1.3.07-1.8,0.07H746.7a1.08,1.08,0,0,1-.5-0.07,0.38,0.38,0,0,0-.22.14,1.06,1.06,0,0,0-.5-0.07H744.9a3,3,0,0,1-.86-0.07H743.1a5.11,5.11,0,0,0-1.15-.07c-0.22,0-.5.07-0.86,0.07a0.35,0.35,0,0,1-.29-0.07l-1-.07a1.15,1.15,0,0,1-.79.22h-0.94a0.61,0.61,0,0,1-.14-0.43V1047a0.29,0.29,0,0,1,.29-0.36c0.94-.07,2.45-0.14,4.46-0.14v-0.86a2.08,2.08,0,0,1-.14-0.86l-0.07-.65a0.27,0.27,0,0,1,.07-0.22V1041l-0.07-.22v-3.53c-0.14-3.38-.22-5.76-0.29-7.2a1.08,1.08,0,0,0-.07-0.5v-1.73c0-.22-0.07-1.15-0.22-2.74,0-.36.07-1.22,0.07-1.58a1.59,1.59,0,0,0-.07-0.65l-0.14-10.58a21.43,21.43,0,0,0-.22-3l-0.14-10.51c0.29-.65-1.51-0.5-2.59-0.79-0.22,0-.86.07-0.94,0.07-0.79,0-1.15-.14-1.15-0.36l0.43-.65,3.67,0.07,1.3,0.14H743Z" transform="translate(-736.39 -981.29)"/><path class="cls-1" d="M821,1047.57h-2a2.26,2.26,0,0,0-1.3.22c-0.07,0-.29-0.07-0.36-0.07h-0.58a1.85,1.85,0,0,1-.5.22,0.43,0.43,0,0,1-.43-0.22l-1-.79a3,3,0,0,1-.5-0.94l-0.29-.79a10.93,10.93,0,0,1-1.22-2.81,22.46,22.46,0,0,1-1-2.23,19.43,19.43,0,0,1-1.44-3.67l-0.14-.58a3,3,0,0,1-.22-0.65l-0.07-.22-0.36-1.73a2.49,2.49,0,0,1-.36-0.58l-0.14-.58a2.7,2.7,0,0,1-.07-0.58l-0.22-.36a1.12,1.12,0,0,1-.22-0.43l-0.07-.22v-0.36a4,4,0,0,0-.58-1.37,0.54,0.54,0,0,1-.07-0.36,0.78,0.78,0,0,0-.07-0.36,5.16,5.16,0,0,0-.65-1.51,5.83,5.83,0,0,0-.79-2.3,1,1,0,0,0-.5-0.14c-0.5,0-1.73.43-2.09,0.43a6.56,6.56,0,0,0-2.38,0,2.23,2.23,0,0,1-.5-0.14c-1.08-.07-1.94-0.14-2.59-0.14-0.36,0-.65.07-0.94,0.07s-1.3.14-1.66,0.14-1.58-.14-1.66-0.14l-0.36-.07-1.87-.22h-0.14a0.26,0.26,0,0,0-.22-0.07l-1.87.07c-0.5.22-.58,1.66-0.79,1.87a11.4,11.4,0,0,0-1.37,2.67,0.54,0.54,0,0,0-.07.29l-0.07.29-0.36.36c-0.07.22-.22,0.58-0.29,0.79l-0.22.22a16.2,16.2,0,0,0-.79,1.58,1.25,1.25,0,0,1-.43.79,9.56,9.56,0,0,0-.58,1.73,2,2,0,0,1-.43.58c-0.58,1.51-.94,2.45-1.08,2.74-0.36.36-.86,1.87-1.44,2.16a1,1,0,0,1-.22.72,0.31,0.31,0,0,0-.22.22,5.93,5.93,0,0,0-.36,1l-0.29.5h-0.29c0,0.79-.43,2.09-0.94,2.16a1.61,1.61,0,0,1-.07.5v0.29l-0.14.14a0.54,0.54,0,0,0-.07.29l0.22,0.14h3.67a2.7,2.7,0,0,1,.79.07,1.09,1.09,0,0,0,.94.07c0.36,0,.5.14,0.5,0.36,0,0.5-.14.79-0.43,0.79h-2.38l-0.29.07-1.08.07a0.94,0.94,0,0,1-.79.22,1.41,1.41,0,0,1-.5-0.07h-0.36l-1.51-.07-0.29-.29a0.93,0.93,0,0,1-.29-0.72l0.07-.22a13.34,13.34,0,0,0,1.3-2.52l1.08-2.23,0.22-.22,1.22-2.59c0.07-.07.43-0.79,1.08-2l0.94-2.09,0.14-.22a1,1,0,0,0,.14-0.29,4.51,4.51,0,0,0,.43-1.22c0.36-.86,1.37-2.74,1.66-3.31,0.07-.29.14-0.43,0.14-0.5a21.26,21.26,0,0,1,1.15-2.52c0.5-1.08.79-1.73,0.86-1.87l0.14-.36,0.14-.36c0.07-.22,1.08-2.16,1.15-2.45a14.16,14.16,0,0,0,.79-2.23l0.14-.72c1.15-2.66,1.8-4.18,1.94-4.46a34.13,34.13,0,0,0,1.8-4.1l1.94-3.74a3.35,3.35,0,0,0,.65-1.15l0.14-.43,0.22-.43c0.58-1.51,2.23-4,2.81-5.18,0.22-.5.65-1.66,0.86-2.16a5.28,5.28,0,0,0,1-.29l0.22-.14a0.75,0.75,0,0,1,.79.29l0.07,0.29c0.07,0.5.5,1.3,0.58,1.66,0,0.07.14,1,.22,1.37a11.5,11.5,0,0,1,1,2.23c0.07,0.58.5,1.15,0.58,1.73a5.61,5.61,0,0,0,.43,1.8c0,0.22.5,1.37,0.5,1.44l0.07,0.22,0.07,0.22c0.07,0.29.29,1,.5,2.09a3,3,0,0,0,.22.65l0.22,0.58a7.11,7.11,0,0,0,.58,1.87c0.43,1.22.79,2.23,1.15,3l0.58,1.22c0.29,0.5.36,2,.58,2.52a6.27,6.27,0,0,0,.58,1.37l0.36,1.3c0.79,3,1.51,5.54,2.23,7.63,0.29,0.65.65,2.66,0.86,3v0.29l0.07,0.22,0.14,0.29a31.11,31.11,0,0,1,1.37,3.6c0.07,0.29.86,1.94,1.08,2.74,1.51,3.89,2.38,5.83,2.74,5.83a0.27,0.27,0,0,0,.22-0.07,0.27,0.27,0,0,1,.22.07l0.14,0.07,0.29-.14c0.07,0,1.58.14,1.8,0.14a0.15,0.15,0,0,0,.14.14c0.07,0,.43-0.07.5-0.07a0.4,0.4,0,0,1,.36.22,2,2,0,0,1-.29.79l-0.29.07-0.43.22-0.22.07a0.27,0.27,0,0,1-.22.07,0.55,0.55,0,0,1-.29-0.07H821Zm-27.36-24.7,0.58,0.5,3.17-.07a8.45,8.45,0,0,0,1.58-.07,5.63,5.63,0,0,1,1-.22c0.07,0,.36.07,0.43,0.07l3-.22h1.08a3,3,0,0,0,1.3-.22,0.27,0.27,0,0,0,.07-0.22,9.82,9.82,0,0,0-1.08-3,21.87,21.87,0,0,0-.94-2.81l-0.22-.5c-0.22-.58-0.86-3-1.22-3.89l-1.37-3.53c-0.65-1.73-1.15-4.1-1.8-6.19l-0.07-.07H799l-0.14.43c-0.29.5-.58,1.22-0.65,1.3a1.06,1.06,0,0,1-.14.29l-0.14.29-0.14.36v0.36l-0.22.43-0.22.43-0.07.36a8.26,8.26,0,0,1-.58.72l-0.43.94a1,1,0,0,1-.36.58,9.55,9.55,0,0,1-.58,1.58c-0.22.5-.86,1.44-1.08,1.94a6.69,6.69,0,0,1-.65,1.58l-0.14.22a0.71,0.71,0,0,0-.22.58v0.22l-0.14.14a0.31,0.31,0,0,0-.22.22l-0.07.22V1016a3.11,3.11,0,0,1-.07.36,6.83,6.83,0,0,1-1.51,3.17,6.5,6.5,0,0,1-.65,2.45,9.54,9.54,0,0,0-.36,1l1.15,0.07a1.26,1.26,0,0,1,.43.07l0.29,0.07c0.29,0,1.08-.14,1.37-0.14Z" transform="translate(-736.39 -981.29)"/><path class="cls-1" d="M832.66,1047.64a0.35,0.35,0,0,1-.29-0.07l-1-.07a1.16,1.16,0,0,1-.79.22h-0.94a0.61,0.61,0,0,1-.14-0.43V1047a0.29,0.29,0,0,1,.29-0.36c0.94-.07,2.45-0.14,4.46-0.14v-0.86c0-3.1-.07-4.75-0.22-4.82v-3.53c-0.14-3.38-.22-5.76-0.29-7.2a1.07,1.07,0,0,0-.07-0.5v-1.73c0-.22-0.07-1.15-0.22-2.74,0-.36.07-1.22,0.07-1.58a1.59,1.59,0,0,0-.07-0.65l-0.14-10.58a21.28,21.28,0,0,0-.22-3L833,998.75c0.29-.65-1.51-0.5-2.59-0.79-0.22,0-.86.07-0.94,0.07-0.79,0-1.15-.14-1.15-0.36l0.43-.65,3.67,0.07,1.22,0.14,0.5,0.36h0.14l0.14-.07a3.4,3.4,0,0,1,2.23,1l1.08,1.44,2.09,3.46a4.61,4.61,0,0,1,.43,1.15,3.83,3.83,0,0,1,.65.79,1.06,1.06,0,0,1,.14.29,25,25,0,0,0,2.16,2.67c0.29,0.5.65,1.3,0.94,1.8l0.36,0.58a11,11,0,0,1,1.51,2.52l1.87,2.45a11.36,11.36,0,0,0,.94,2.16,21.81,21.81,0,0,1,2,3l0.65,1.3a11.44,11.44,0,0,0,2.16,3.24l0.94,1.58,3.38,4.82a0.27,0.27,0,0,0,.07.22l0.14,0.22,0.5,0.65,0.65,0.79,0.43,0.86,0.22,0.22,1.66,2.59a11.93,11.93,0,0,1,.94,1c0.43,0.65,1.8,3,2.45,3.17V1041a18,18,0,0,0-.29-3.74l-0.07-.07V1037l0.07-.29c0-.79-0.14-3-0.14-3.82,0-.5.14-1.8,0.14-2.38a0.38,0.38,0,0,0-.14-0.22v-1.94c-0.07-1.08-.07-1.73-0.07-1.87v-2.23c0-.22,0-1.3.07-3.17v-3.53a0.78,0.78,0,0,1,.14-0.58v-0.43c0-1.22-.07-4.25-0.07-5.47a3.19,3.19,0,0,1,.14-1.3v-3.46c0.07-1.08.07-1.94,0.07-2.52l0.07,0.65v-0.36c0-.22,0-1,0.07-2.3V999c0-.43-0.43-0.65-1.37-0.65a0.49,0.49,0,0,0-.5-0.22h-0.65a0.83,0.83,0,0,1-.58-0.65l-0.07-.14a0.31,0.31,0,0,1,.22-0.22,2.06,2.06,0,0,0,.86.07h0.86a4.13,4.13,0,0,1,1.08.07l1.87-.07c0.22,0,.29.29,0.29,0.86l-0.22.72-0.07.07c-0.22.07-.14,0.14-0.07,0.36l0.07,0.14a2.21,2.21,0,0,1-.22,1.08v0.14c0,0.22.07,0.79,0.07,0.86l-0.22.58v0.14a0.54,0.54,0,0,0,.14.29v0.94c0,0.5-.14.36-0.14,0.86,0,0.29.07,0.86,0.07,1.08,0,0.5-.29,1.08-0.29,1.37,0,0.58.22,1.37,0.22,1.87a2.26,2.26,0,0,1-.07.94v9c0,0.22-.14.65-0.14,0.86,0,0.58.14,1.87,0.14,2.38,0,0.22-.07.58-0.07,0.65,0,1.37,0,3.46.07,6.12v6.19a15.68,15.68,0,0,1,.07,2,14.72,14.72,0,0,0,.07,2l0.07,0.36c0.07,0.5.22,1.8,0.29,3.82,0,0.22.14,0.72,0.14,1v0.79a6.83,6.83,0,0,1,.22,1.8c0,1.08-.94,1-1.15,1.22h-0.58a0.5,0.5,0,0,0-.36-0.22,1,1,0,0,0-.14-0.29,7.66,7.66,0,0,1-1.15-1.37,11.49,11.49,0,0,0-.94-0.94,3.21,3.21,0,0,1-.43-0.65,18.87,18.87,0,0,1-2.45-3.24,0.37,0.37,0,0,1-.29-0.29,5.67,5.67,0,0,1-.86-1c0-.43-0.22-0.22-0.43-0.43a35,35,0,0,1-2.16-3.24,19.72,19.72,0,0,1-1.94-2.81c-0.07-.07-0.36-0.5-0.94-1.15a10,10,0,0,1-.43-0.94c-0.5-.58-1.08-1.37-1.87-2.45a0.38,0.38,0,0,1-.14-0.22,18.93,18.93,0,0,0-1.66-2.38,1.35,1.35,0,0,1-.29-0.65c-0.29-.36-0.94-1.58-1.3-2.09a3.63,3.63,0,0,1-.58-0.94c-0.22-.22-0.58-1-0.86-1.3l-0.14-.22c-0.07-.29-1.08-1.37-1.08-1.58a44.32,44.32,0,0,1-2.09-4l-0.07-.22a6.94,6.94,0,0,1-1-1.8l-1.3-2.09a13.12,13.12,0,0,1-.86-1.15l-0.79-1.15a2.13,2.13,0,0,0-.65-1.51,19.45,19.45,0,0,1-1.51-2.16l-0.14-.29c-0.36,0-1-1.15-1.08-1.22l-0.22-.36c-0.22-.29-0.29-0.43-0.36-0.5v3.24L835,1008c0,0.07.07,0.79,0.14,2a18.57,18.57,0,0,0,.22,2.38v3.1c0,0.07-.22,1.15-0.22,1.37V1018a2.14,2.14,0,0,0,.22,1.15v1.94c0,0.14.07,0.79,0.14,1.94s0.14,1.8.14,1.94c0.07,1,.07,2.45.14,4.25v3.6a0.37,0.37,0,0,1,.14.29c0,0.07-.07.43-0.07,0.5a0.55,0.55,0,0,0,.14.29v9.72a1.37,1.37,0,0,0-.14.58v0.86a1,1,0,0,1,.14.29c0,0.22-.14.79-0.14,1.15h3.89c0.07,0,.14.14,0.14,0.5a4.83,4.83,0,0,1-.36.5c-0.29,0-.94.14-1,0.14h-0.72c-0.29,0-1.73-.22-1.94-0.22a0.38,0.38,0,0,1-.22.14c-0.5,0-1.8-.07-2.16-0.07S833,1047.64,832.66,1047.64Z" transform="translate(-736.39 -981.29)"/><path class="cls-1" d="M885.87,1000.76c0.07,0.07.07,0.86,0.22,1.15v0.14c0,0.36-.14,1.3-0.14,1.87a2,2,0,0,0,.07.86,0.34,0.34,0,0,1,.07.29,1.26,1.26,0,0,1-.07.43l-0.07.36a4.48,4.48,0,0,1-.29.65c0,0.07-.07.14-0.29,0.14h-0.22l-0.14-.07c-0.5,0-.79-0.86-0.79-2.52a10.31,10.31,0,0,1,.07-1.66,1.64,1.64,0,0,0-.07-0.5v-0.29c0-.58.07-1.8,0.07-2.16v-0.36a0.35,0.35,0,0,1-.07-0.29,1.35,1.35,0,0,1,.58-1l0.58-.43h0.29a1.12,1.12,0,0,1,.72-0.43h0.94a0.55,0.55,0,0,0,.29.14c0.07,0,1.08-.14,1.58-0.14,0.07,0,.36.07,0.43,0.07h1.22a2.15,2.15,0,0,1,1.15.22h0.36c0.5,0,1.58.14,1.94,0.14s0.65-.14.86-0.14,1.22,0.14,1.58.14,1.15-.14,1.37-0.14,0.22,0,.22.07h0.36l-0.22.07h0.36c0.86,0,1.37-.22,2.16-0.22,0.5,0,1.58.07,1.94,0.07h0.5a1.21,1.21,0,0,0,.72.22c0.29,0,1.15-.14,1.44-0.14,1.08,0,.65-0.07,1.73-0.07H908a3.69,3.69,0,0,0,1.15.14,0.35,0.35,0,0,0,.29-0.07h0.65a0.66,0.66,0,0,1,.43-0.07c0.22,0,1.37.14,1.44,0.14l0.29-.07c0.22,0,.65-0.07.94-0.07l0.29,0.07a0.74,0.74,0,0,0,.58,0,2.21,2.21,0,0,0,.72.07c0.36,0,1.37-.14,1.87-0.14H917c0,0.07.07,0.07,0.22,0.07,0.72,0,1-.22,1.66-0.22a0.54,0.54,0,0,0,.36.5,1.42,1.42,0,0,1-.07.58v0.07a0.14,0.14,0,0,1,.07.14,2.23,2.23,0,0,1-.14.5v3c0.07,0.94.14,1.73,0.14,2.23,0,1.66-.29,2.52-0.79,2.52l-0.14.07h-0.22c-0.22,0-.29-0.07-0.29-0.14a4.48,4.48,0,0,1-.29-0.65l-0.07-.36a1.26,1.26,0,0,1-.07-0.43,0.34,0.34,0,0,1,.07-0.29,2,2,0,0,0,.07-0.86c0-.58-0.14-1.51-0.14-1.87a10.84,10.84,0,0,1,.22-1.58v-1.73a2.88,2.88,0,0,1-.5.14c-0.07,0-.5-0.07-1.37-0.22h-0.65a1.22,1.22,0,0,1-1,.22h-1.3a2.21,2.21,0,0,0-.72.07,0.55,0.55,0,0,0-.36-0.14c-0.22,0-.5.07-0.58,0.07H910.5a0.61,0.61,0,0,1-.43.14h-0.36c-0.22,0-.36.14-0.58,0.14h-0.79c-0.29,0-1.08.07-1.37,0.07l0.36-.07h-0.94a6.88,6.88,0,0,0-1.51.43c0,0.22-.07,1.66-0.07,1.73v0.36a0.91,0.91,0,0,1-.07.43c-0.07,1.44-.07,3.6-0.07,6.55v5l-0.14.79a0.61,0.61,0,0,0,.14.43l0.14,3.46,0.07,3.17c0-.14.14,2.52,0.14,2.45a9.3,9.3,0,0,0,.07,1.8v6.12a0.45,0.45,0,0,1,.07.36v1.87c0,0.07-.14.5-0.14,0.58v2.23c0,4.82-.07,7.27-0.14,7.34v1.94a0.35,0.35,0,0,0,.29-0.07c0.07,0,.72.14,0.79,0.14H906a0.27,0.27,0,0,0,.22.07h0.94c0.22,0,.36,0,0.36-0.07h1.22c0.5,0,.79.14,0.79,0.43,0,0.79-1.08.58-1.37,0.86a1.4,1.4,0,0,1-.58.07h-1.44a0.54,0.54,0,0,0-.36-0.07,10,10,0,0,0-1.15.14h-2.3l-0.14.07a2.88,2.88,0,0,1-.43-0.14,5.11,5.11,0,0,0-.86.14l-0.14-.07-0.14-.07c-0.07,0-.72.14-1,0.14a2.49,2.49,0,0,1-1-.07l-0.94-.07a0.67,0.67,0,0,1-.43.07h-0.72a1,1,0,0,0-.36-0.07c0-.07-0.14-0.58-0.14-0.79s0.14-.5.36-0.5a3.9,3.9,0,0,0,1.15-.07h0.14a0.43,0.43,0,0,1,.29-0.07c0.07,0,.5.14,0.58,0.14l1.58-.29-0.07-.14V1045a0.54,0.54,0,0,1-.07-0.36,0.78,0.78,0,0,1,.07-0.36v-9.07c0-.07-0.07-0.43-0.07-0.5,0-1.3.22-6.34,0.22-7.71,0-1-.22-4.82-0.22-5.9v-2.3a0.26,0.26,0,0,0,.07-0.22v-0.07a0.14,0.14,0,0,1-.07-0.14c0-.36.14-0.94,0.14-1.15,0-.5-0.14-1.44-0.14-1.73v-0.58a2.92,2.92,0,0,0,0-1.15c0-.07-0.22-3-0.22-3.24-0.07-.5-0.07-2-0.07-4.68a21.5,21.5,0,0,1,.14-2.81l0.07-.22a3.22,3.22,0,0,0,.14-0.94c0-.36-0.14-1.3-0.14-1.8v-0.58l-0.5-.07a0.49,0.49,0,0,1-.5.22c-0.07,0-.36-0.14-0.43-0.14l-1.22-.14-0.22-.07h-3.46a1,1,0,0,1-.29-0.14l-0.22-.07a3.29,3.29,0,0,0-.58.14c-0.36,0-1.37-.14-1.87-0.14h-0.94a11.77,11.77,0,0,1-2.66-.22h-0.65a0.44,0.44,0,0,1-.29-0.07,1,1,0,0,1-.29.79v0.79Z" transform="translate(-736.39 -981.29)"/><path class="cls-1" d="M946.5,1048.14l-0.58-.22c-0.07,0-.36-0.07-0.86-0.14l-1-.29a0.26,0.26,0,0,1-.22-0.07l-0.22-.14a2.81,2.81,0,0,1-.43-0.14l-0.36-.07-0.72-.36a0.73,0.73,0,0,0-.5-0.29c-0.07,0-.5-0.14-0.58-0.14l-1.37-.65-0.94-.65-0.22-.36a3.42,3.42,0,0,1-.94-0.79l-0.43-.43-0.29-.36-0.36-.43a7.72,7.72,0,0,1-1.15-1.37,4.47,4.47,0,0,0-.43-0.65l-0.14-.22a1,1,0,0,1-.14-0.29,2.57,2.57,0,0,1-.86-1.15c0-.07-0.22-0.65-0.22-0.72l-1.15-2.45c-0.07-.79-1.08-2.38-1.15-2.88a13.53,13.53,0,0,1-.43-2.38c0-.07-0.22-0.36-0.22-0.43a5.68,5.68,0,0,1-.22-0.79l-0.07-.58-0.29-.86c-0.29-1.37-.43-2-0.43-2.09v-3.6a3.84,3.84,0,0,0,.29-1.08v-0.72a7.75,7.75,0,0,0,.36-1.37,16.9,16.9,0,0,1,.58-2.88,13.47,13.47,0,0,0,.43-2.09,2.39,2.39,0,0,1,.29-0.5l0.14-.29c0.07-.22.86-2.09,2.38-5.47a2.26,2.26,0,0,1,.29-0.5l2-2.81a1,1,0,0,1,.14-0.29l0.07-.22,0.58-.65c0-.07.29-0.5,0.29-0.58l0.5-.58,0.5-.72c0.14,0,.22-0.14.22-0.36a0.55,0.55,0,0,1,.14-0.29,12.42,12.42,0,0,1,2.59-1.66,7,7,0,0,1,1.87-1l0.22-.22a1,1,0,0,1,.29-0.14l0.36-.07,0.36-.07,0.36-.07a21.61,21.61,0,0,1,2.38-.86,3.23,3.23,0,0,0,1.51-.07,11.13,11.13,0,0,0,1.66.07h0.86a2.49,2.49,0,0,1,.79.07,7.75,7.75,0,0,0,1.73.5h0.36a4.83,4.83,0,0,1,3.31,1.08,0.66,0.66,0,0,1,.79.43,0.74,0.74,0,0,1,.5.29,2.46,2.46,0,0,1,1.8,1.37l0.58,0.5a1.47,1.47,0,0,0,.72.65c0.5,0,1.73,1.44,2,2l0.65,0.72a6.67,6.67,0,0,0,.65,1.8,1,1,0,0,0,.14.29l0.14,0.14a0.82,0.82,0,0,1,.22.58c0.07,0,.22.14,0.29,0.14a1.53,1.53,0,0,1,.5,1.15l1.3,2.81a2.47,2.47,0,0,1,.29,1.3c0.07,0.14.22,0.5,0.5,1.15,0.07,0.29.22,0.72,0.29,1l0.29,1c0.22,0.22.36,1.22,0.36,3l-0.07.65a5.67,5.67,0,0,1,.14,1,9.34,9.34,0,0,1-.07,3v0.5a1.09,1.09,0,0,1-.07.58v1.44a1.42,1.42,0,0,0,.07.58l-0.07.29a5.84,5.84,0,0,1-.22.79c-0.22.58-.58,2.88-0.94,3.82a1,1,0,0,0-.14.29c-0.36.58-.94,1.94-1.15,2.3a17.67,17.67,0,0,1-1.73,2.88,3.41,3.41,0,0,1-.36,1,5.45,5.45,0,0,0-.94,1.15,17.13,17.13,0,0,0-1.87,2.66,8.27,8.27,0,0,1-1.44,1.58l-0.5.72-0.43.36a3,3,0,0,1-1.8,1.22l-0.5.22a2.29,2.29,0,0,0-.5.29,1.28,1.28,0,0,0-.5.36l-0.58.22a5.09,5.09,0,0,1-1.51.58c-0.36.07-.86,0.36-1.15,0.43a3.41,3.41,0,0,1-1.08.43,9.4,9.4,0,0,1-2.74.43h-0.72a1.25,1.25,0,0,1-.65-0.07Zm-3.17-4.39L944,1044l0.22,0.22a0.49,0.49,0,0,0,.29.29l0.79,0.43a15.75,15.75,0,0,1,1.73.65,5.5,5.5,0,0,0,1.3.07h0.86a4.19,4.19,0,0,1,1.08.07,12.2,12.2,0,0,0,2,.14h0.65a3.85,3.85,0,0,1,1.44-.36l1.15-.5a9.85,9.85,0,0,0,.79-0.65,19.83,19.83,0,0,0,2.23-1.58,13.36,13.36,0,0,1,1.51-1.37,19.77,19.77,0,0,0,2.45-3.38,11.54,11.54,0,0,0,1.8-3.67,10.49,10.49,0,0,0,.36-1.58,14.73,14.73,0,0,0,.29-1.66v-0.36a1.16,1.16,0,0,1,.22-0.79l-0.07-2.52a4.34,4.34,0,0,1,.14-1.08v-1.8a3.25,3.25,0,0,0,.07-0.94,25.74,25.74,0,0,0-1.15-7.56,15.14,15.14,0,0,1-.43-1.87q-0.43-1.08-.86-1.94l-0.58-1.44-0.14-.22c0-.07-0.29-0.65-0.29-0.72s-0.36-.86-0.86-2.09a9.14,9.14,0,0,0-1.08-1.66c-0.79-1.37-1.3-2.23-1.51-2.52l-0.94-.86a3.18,3.18,0,0,1-.72-0.86l-0.5-.22a2.29,2.29,0,0,1-.5-0.29,7.13,7.13,0,0,0-1.66-.72l-0.22-.22a1,1,0,0,0-.29-0.14l-0.5-.22c-0.5-.22-1.08-0.22-1.44-0.43l-0.22-.14a2.47,2.47,0,0,0-.86-0.07,1.08,1.08,0,0,1-.58-0.07l-0.65.07a9.67,9.67,0,0,0-1.58-.07,8.23,8.23,0,0,0-4.1.94c-0.22.07-1.51,1.15-1.73,1.22l-1.15.79a1.81,1.81,0,0,0-.94.86,2.25,2.25,0,0,1-.43.94,0.26,0.26,0,0,0-.22.07c-0.07.22-.22,0.58-0.29,0.79a25.15,25.15,0,0,0-4,10.94v1.3a0.26,0.26,0,0,1,.07.22c0,0.22-.14.86-0.14,0.94,0,0.86-.22,1.51-0.22,2.3,0,0.22.14,0.43,0.14,0.72v2.16a3.68,3.68,0,0,0-.14,1.37l0.07,0.29,0.07,0.29c0,0.22.07,1.51,0.07,1.58a7.08,7.08,0,0,1,.29,1.37,24,24,0,0,0,1.15,3.67,8,8,0,0,0,.5,1.58,0.81,0.81,0,0,1,.22.58l0.36,1.15c0.07,0.22.58,1.15,0.65,1.37a2.57,2.57,0,0,0,.79,1.58l0.22,0.29a19.27,19.27,0,0,0,.86,1.73c1.37,1.37,2.16,2.16,2.38,2.45C942.54,1043,943,1043.68,943.33,1043.75Z" transform="translate(-736.39 -981.29)"/><path class="cls-1" d="M987.68,1048.5a4,4,0,0,1-1.22-.22l-2.23-.5-0.79-.29a1.18,1.18,0,0,1-.79-0.29l-1.73-1.3q-0.11-.11-1.08-0.86l-1.37-2a10.5,10.5,0,0,1-.65-1.08,1.85,1.85,0,0,1-.5-1.44,2.31,2.31,0,0,1-.5-0.94l0.14-.36,0.65-1.22,0.43-.43,1.44-2.16,0.65-.72,0.65,0.72a0.33,0.33,0,0,1-.22.36l-0.22.43a1,1,0,0,0-.22.29l-0.07.14-0.22.43-0.36.72c0,0.22-.65,1.08-0.65,1.37a3.22,3.22,0,0,1,.07.79,16.14,16.14,0,0,0,.86,2.45c0.07,0.07.72,0.94,1.08,1.44l0.58,0.58a0.66,0.66,0,0,0,.22.36l0.58,0.5a8.55,8.55,0,0,0,1.3.79l1.3,0.58a4.59,4.59,0,0,0,1.3.43l0.58,0.14h0.86c0.5,0,1.73-.14,1.8-0.14a23.62,23.62,0,0,0,2.45-.36,19.5,19.5,0,0,0,3-1.3c1.94-1.8,2.88-2.88,2.88-3.17a9.06,9.06,0,0,0,.94-4.75,10.68,10.68,0,0,0-1.08-5.18l-3.46-4.39a29.38,29.38,0,0,1-2.59-2.59l-2.81-2.45a3.65,3.65,0,0,0-.72-0.79l-0.79-.79c-0.29-.5-2.09-2-2.88-3.1a26.9,26.9,0,0,1-3.24-6c0-.07-0.07-0.22-0.07-0.29a22.42,22.42,0,0,1-.72-2.66L980,1007.1c0-.22.07-0.72,0.07-0.79a6.44,6.44,0,0,1,.72-2.66,25,25,0,0,1,1.87-3c2.09-2.52,5.26-4,9.65-4.32l2.74,0.14,2.38,0.5,0.43,0.29a1.29,1.29,0,0,0,.58.29,7.18,7.18,0,0,1,1.73,1.37l1.8,2.45,0.65,1.08a2,2,0,0,1,.58,1.44,2.16,2.16,0,0,1,.43,1l-0.07.36-0.72,1.15-0.43.5-1.37,2.16-0.72.65-0.43-.43c0-.29-0.5.07,0.07-0.79a1.11,1.11,0,0,0,.36-0.5l0.22-.43a8.71,8.71,0,0,0,.65-1.51v-0.14a1.56,1.56,0,0,0,.14-0.72,0.66,0.66,0,0,0-.07-0.43,3.62,3.62,0,0,0-.79-1.58c0-.07-0.86-1.73-0.94-1.8-0.58-.5-0.72-0.86-1.08-1.15l-0.79-.79c-0.29-.22-0.72-0.58-1-0.79l-1.3-.5a4.24,4.24,0,0,0-1-.14h-0.5l-0.43.07a7.84,7.84,0,0,0-2.66.36h-0.29l-1.44.36a11,11,0,0,0-1.8.79,7.61,7.61,0,0,0-3.1,6c0,3.82,1,6.84,3,9.07,0.36,0.58,2,2.16,2.38,2.74l6.55,5.69a12.47,12.47,0,0,1,1.73,1.94l1.58,2.45c0,0.07.86,1.58,0.94,1.66a7,7,0,0,1,1,2.88l0.36,1.15c0.07,0.43.14,1.08,0.22,2l0.07,1.58c0,0.5-.36,1.73-0.36,2.23a8,8,0,0,1-1.22,2.81l-1.15,1.58a9.88,9.88,0,0,1-.79,1,16.53,16.53,0,0,1-3.46,2.88l-0.86.43-2.52.58-0.29-.07a5.43,5.43,0,0,0-1.08.07Z" transform="translate(-736.39 -981.29)"/><path class="cls-1" d="M1046.5,997.23h6.41c0.5,0.5.5,0.86-.07,1.08,0,0.14-.07.22-0.29,0.22h-1.66l-1.37-.14c-0.14,0-.22.07-0.22,0.29v0.86a4.13,4.13,0,0,1,.07,1.08c0,0.5-.07,1.8-0.07,2.38v3.24l0.14,1.73c0,0.07.07,0.79,0.14,2a18.68,18.68,0,0,0,.22,2.38v5.83c0,0.22-.07.65-0.07,0.72a0.35,0.35,0,0,0,.07.29v6.12q0.11,2.05.22,5.83a6.6,6.6,0,0,1,.14,1.94c0,0.07.14,0.5,0.14,0.58a52.24,52.24,0,0,0,.14,5.76l-0.14,2.3a1.43,1.43,0,0,0-.07.72,6.2,6.2,0,0,0,.07,1.08v1.58a1,1,0,0,1,.14.29c0,0.22-.14.79-0.14,1.15h3.17c0.07,0,.14.14,0.14,0.5a5,5,0,0,1-.36.5c-0.29,0-.94.14-1,0.14h-0.72l-3.17-.22a0.38,0.38,0,0,1-.22.14c-0.5,0-1.8-.07-2.16-0.07s-0.5.07-.86,0.07a0.35,0.35,0,0,1-.29-0.07l-1-.07a1.16,1.16,0,0,1-.79.22h-0.94a0.61,0.61,0,0,1-.14-0.43V1047a0.29,0.29,0,0,1,.29-0.36c0.94-.07,2.45-0.14,4.46-0.14v-0.86c0-3.1-.07-4.75-0.22-4.82v-3.53c-0.14-3.38-.22-5.76-0.29-7.2a1.07,1.07,0,0,0-.07-0.5v-1.73c0-.22-0.07-1.15-0.22-2.74,0-.36.07-1.22,0.07-1.58a1.59,1.59,0,0,0-.07-0.65l-0.14-10.58a21.28,21.28,0,0,0-.22-3l-0.14-10.51c0.29-.36-1.51-0.43-2.59-0.65-0.22,0-.86.07-0.94,0.07-0.79,0-1.15-.14-1.15-0.36l0.43-.65,4.9,0.07,0.22-.07Z" transform="translate(-736.39 -981.29)"/><path class="cls-1" d="M1069.47,1048.5a4,4,0,0,1-1.22-.22l-2.23-.5-0.79-.29a1.18,1.18,0,0,1-.79-0.29l-1.73-1.3q-0.11-.11-1.08-0.86l-1.37-2a10.54,10.54,0,0,1-.65-1.08,1.85,1.85,0,0,1-.5-1.44,2.3,2.3,0,0,1-.5-0.94l0.14-.36,0.65-1.22,0.43-.43,1.44-2.16,0.65-.72,0.65,0.72a0.33,0.33,0,0,1-.22.36l-0.22.43a1,1,0,0,0-.22.29l-0.07.14-0.22.43-0.36.72c0,0.22-.65,1.08-0.65,1.37a3.22,3.22,0,0,1,.07.79,16,16,0,0,0,.86,2.45c0.07,0.07.72,0.94,1.08,1.44l0.58,0.58a0.66,0.66,0,0,0,.22.36l0.58,0.5a8.53,8.53,0,0,0,1.3.79l1.3,0.58a4.6,4.6,0,0,0,1.3.43l0.58,0.14h0.86c0.5,0,1.73-.14,1.8-0.14a23.66,23.66,0,0,0,2.45-.36,19.54,19.54,0,0,0,3-1.3c1.94-1.8,2.88-2.88,2.88-3.17a9.05,9.05,0,0,0,.94-4.75,10.68,10.68,0,0,0-1.08-5.18l-3.46-4.39a29.37,29.37,0,0,1-2.59-2.59l-2.81-2.45a3.66,3.66,0,0,0-.72-0.79l-0.79-.79c-0.29-.5-2.09-2-2.88-3.1a26.9,26.9,0,0,1-3.24-6c0-.07-0.07-0.22-0.07-0.29a22.47,22.47,0,0,1-.72-2.66l-0.22-2.16c0-.22.07-0.72,0.07-0.79a6.43,6.43,0,0,1,.72-2.66,25.1,25.1,0,0,1,1.87-3c2.09-2.52,5.26-4,9.65-4.32l2.74,0.14,2.38,0.5,0.43,0.29a1.29,1.29,0,0,0,.58.29,7.19,7.19,0,0,1,1.73,1.37l1.8,2.45,0.65,1.08a2,2,0,0,1,.58,1.44,2.16,2.16,0,0,1,.43,1l-0.07.36-0.72,1.15-0.43.5-1.37,2.16-0.72.65-0.43-.43c0-.29-0.5.07,0.07-0.79a1.11,1.11,0,0,0,.36-0.5l0.22-.43a8.71,8.71,0,0,0,.65-1.51v-0.14a1.54,1.54,0,0,0,.14-0.72,0.66,0.66,0,0,0-.07-0.43,3.63,3.63,0,0,0-.79-1.58c0-.07-0.86-1.73-0.94-1.8-0.58-.5-0.72-0.86-1.08-1.15l-0.79-.79c-0.29-.22-0.72-0.58-1-0.79l-1.3-.5a4.24,4.24,0,0,0-1-.14h-0.5l-0.43.07a7.83,7.83,0,0,0-2.66.36h-0.29l-1.44.36a11,11,0,0,0-1.8.79,7.61,7.61,0,0,0-3.1,6c0,3.82,1,6.84,3,9.07,0.36,0.58,2,2.16,2.38,2.74l6.55,5.69a12.42,12.42,0,0,1,1.73,1.94l1.58,2.45c0,0.07.86,1.58,0.94,1.66a7,7,0,0,1,1,2.88l0.36,1.15c0.07,0.43.14,1.08,0.22,2l0.07,1.58c0,0.5-.36,1.73-0.36,2.23a8,8,0,0,1-1.22,2.81l-1.15,1.58a9.6,9.6,0,0,1-.79,1,16.5,16.5,0,0,1-3.46,2.88l-0.86.43-2.52.58-0.29-.07a5.43,5.43,0,0,0-1.08.07Z" transform="translate(-736.39 -981.29)"/><path class="cls-1" d="M1101.58,1000.76c0.07,0.07.07,0.86,0.22,1.15v0.14c0,0.36-.14,1.3-0.14,1.87a2.06,2.06,0,0,0,.07.86,0.34,0.34,0,0,1,.07.29,1.26,1.26,0,0,1-.07.43l-0.07.36a4.48,4.48,0,0,1-.29.65c0,0.07-.07.14-0.29,0.14h-0.22l-0.14-.07c-0.5,0-.79-0.86-0.79-2.52a10.17,10.17,0,0,1,.07-1.66,1.62,1.62,0,0,0-.07-0.5v-0.29c0-.58.07-1.8,0.07-2.16v-0.36a0.35,0.35,0,0,1-.07-0.29,1.35,1.35,0,0,1,.58-1l0.58-.43h0.29a1.12,1.12,0,0,1,.72-0.43H1103a0.55,0.55,0,0,0,.29.14c0.07,0,1.08-.14,1.58-0.14,0.07,0,.36.07,0.43,0.07h1.22a2.15,2.15,0,0,1,1.15.22h0.36c0.5,0,1.58.14,1.94,0.14s0.65-.14.86-0.14,1.22,0.14,1.58.14,1.15-.14,1.37-0.14,0.22,0,.22.07h0.36l-0.22.07h0.36c0.86,0,1.37-.22,2.16-0.22,0.5,0,1.58.07,1.94,0.07h0.5a1.21,1.21,0,0,0,.72.22c0.29,0,1.15-.14,1.44-0.14,1.08,0,.65-0.07,1.73-0.07h0.65a3.69,3.69,0,0,0,1.15.14,0.35,0.35,0,0,0,.29-0.07h0.65a0.66,0.66,0,0,1,.43-0.07c0.22,0,1.37.14,1.44,0.14l0.29-.07c0.22,0,.65-0.07.94-0.07l0.29,0.07a0.74,0.74,0,0,0,.58,0,2.22,2.22,0,0,0,.72.07c0.36,0,1.37-.14,1.87-0.14h0.43c0,0.07.07,0.07,0.22,0.07,0.72,0,1-.22,1.66-0.22a0.54,0.54,0,0,0,.36.5,1.4,1.4,0,0,1-.07.58v0.07a0.14,0.14,0,0,1,.07.14,2.22,2.22,0,0,1-.14.5v3c0.07,0.94.14,1.73,0.14,2.23,0,1.66-.29,2.52-0.79,2.52l-0.14.07h-0.22c-0.22,0-.29-0.07-0.29-0.14a4.48,4.48,0,0,1-.29-0.65l-0.07-.36a1.28,1.28,0,0,1-.07-0.43,0.35,0.35,0,0,1,.07-0.29,2,2,0,0,0,.07-0.86c0-.58-0.14-1.51-0.14-1.87a10.7,10.7,0,0,1,.22-1.58v-1.73a2.91,2.91,0,0,1-.5.14c-0.07,0-.5-0.07-1.37-0.22h-0.65a1.21,1.21,0,0,1-1,.22h-1.3a2.22,2.22,0,0,0-.72.07,0.55,0.55,0,0,0-.36-0.14c-0.22,0-.5.07-0.58,0.07h-0.65a0.61,0.61,0,0,1-.43.14h-0.36c-0.22,0-.36.14-0.58,0.14H1124c-0.29,0-1.08.07-1.37,0.07l0.36-.07h-0.94a6.88,6.88,0,0,0-1.51.43c0,0.22-.07,1.66-0.07,1.73v0.36a0.91,0.91,0,0,1-.07.43c-0.07,1.44-.07,3.6-0.07,6.55v5l-0.14.79a0.61,0.61,0,0,0,.14.43l0.14,3.46,0.07,3.17c0-.14.14,2.52,0.14,2.45a9.3,9.3,0,0,0,.07,1.8v6.12a0.44,0.44,0,0,1,.07.36v1.87c0,0.07-.14.5-0.14,0.58v2.23c0,4.82-.07,7.27-0.14,7.34v1.94a0.35,0.35,0,0,0,.29-0.07c0.07,0,.72.14,0.79,0.14h0.07a0.26,0.26,0,0,0,.22.07h0.94c0.22,0,.36,0,0.36-0.07h1.22c0.5,0,.79.14,0.79,0.43,0,0.79-1.08.58-1.37,0.86a1.4,1.4,0,0,1-.58.07h-1.44a0.54,0.54,0,0,0-.36-0.07,10,10,0,0,0-1.15.14h-2.3l-0.14.07a2.92,2.92,0,0,1-.43-0.14,5.09,5.09,0,0,0-.86.14l-0.14-.07-0.14-.07c-0.07,0-.72.14-1,0.14a2.5,2.5,0,0,1-1-.07l-0.94-.07a0.66,0.66,0,0,1-.43.07h-0.72a1,1,0,0,0-.36-0.07c0-.07-0.14-0.58-0.14-0.79s0.14-.5.36-0.5a3.91,3.91,0,0,0,1.15-.07h0.14a0.43,0.43,0,0,1,.29-0.07c0.07,0,.5.14,0.58,0.14l1.58-.29-0.07-.14V1045a0.54,0.54,0,0,1-.07-0.36,0.78,0.78,0,0,1,.07-0.36v-9.07c0-.07-0.07-0.43-0.07-0.5,0-1.3.22-6.34,0.22-7.71,0-1-.22-4.82-0.22-5.9v-2.3a0.26,0.26,0,0,0,.07-0.22v-0.07a0.14,0.14,0,0,1-.07-0.14c0-.36.14-0.94,0.14-1.15,0-.5-0.14-1.44-0.14-1.73v-0.58a2.94,2.94,0,0,0,0-1.15c0-.07-0.22-3-0.22-3.24-0.07-.5-0.07-2-0.07-4.68a21.68,21.68,0,0,1,.14-2.81l0.07-.22a3.19,3.19,0,0,0,.14-0.94c0-.36-0.14-1.3-0.14-1.8v-0.58l-0.5-.07a0.49,0.49,0,0,1-.5.22c-0.07,0-.36-0.14-0.43-0.14l-1.22-.14-0.22-.07h-3.46a1,1,0,0,1-.29-0.14l-0.22-.07a3.25,3.25,0,0,0-.58.14c-0.36,0-1.37-.14-1.87-0.14h-0.94a11.77,11.77,0,0,1-2.66-.22h-0.65a0.44,0.44,0,0,1-.29-0.07,1,1,0,0,1-.29.79v0.79Z" transform="translate(-736.39 -981.29)"/><path class="cls-1" d="M1169,1047.21a36.71,36.71,0,0,1-2.88-7.13l-0.58-1-1.58-3.53a3.21,3.21,0,0,0-.58-1.22l-1.87-4.68-0.36-1.15v-0.07a0.26,0.26,0,0,1-.07-0.22l-1.15-3a19.54,19.54,0,0,0-1-2.59l-0.86-2.3a4.49,4.49,0,0,1-.5-1.22c0-.07-0.14-0.22-0.14-0.29a0.55,0.55,0,0,0-.14-0.36,3.4,3.4,0,0,1-.36-1l-0.07-.07v-0.14l-0.14-.43a0.8,0.8,0,0,1-.07-0.5,4.23,4.23,0,0,0-.36-0.94l-0.43-1.22-0.14-.72a1.49,1.49,0,0,1-.43-0.72,0.35,0.35,0,0,1-.07-0.29l-0.43-1.08-0.72-3a4.54,4.54,0,0,1-.29-1,0.27,0.27,0,0,0-.14-0.14l-0.14-.14-0.65-2.16a11.21,11.21,0,0,1-.86-2.3v-0.07l-0.07-.14-0.07-.07c0-.14-0.07-0.29-0.07-0.43l-0.29-1.15-0.07-.07v-0.22c-0.14-.14-0.29-1.3-0.5-1.3a3.64,3.64,0,0,1-.65-0.14l-0.14-.07h-0.86a0.66,0.66,0,0,1-.43.07h-0.43a0.66,0.66,0,0,1-.43-0.07,1.16,1.16,0,0,0-.72-0.29,1,1,0,0,0-.43-0.36,0.89,0.89,0,0,1,1.08-.94c0.36,0,.94.07,1.58,0.14H1151a0.27,0.27,0,0,1,.22-0.07c0.22,0,.72-0.07.79-0.07a0.35,0.35,0,0,1,.29.07h0.5l0.14,0.07h0.29l1.08-.14c0.94,0,1.8.07,2.66,0.14h1.15a0.27,0.27,0,0,0,.22.07h0.43a1.33,1.33,0,0,0,.72.14c0.14,0,.22.14,0.22,0.43-0.07,0-.07.07-0.07,0.22a0.85,0.85,0,0,1-.72.79,2.54,2.54,0,0,0-.43-0.07c-0.07,0-.36.07-0.58,0.07h-1.08l-0.36-.07-0.29.14,0.22,1.66a0.67,0.67,0,0,0,.07.43,2.52,2.52,0,0,1,.07.43,2.8,2.8,0,0,1,.14.43c0,0.07.22,0.58,0.29,0.94l0.07,0.36,0.94,2.88a13.3,13.3,0,0,0,1.08,3.17l0.36,0.79,0.29,0.72a9.49,9.49,0,0,0,.5.94l0.07,0.43a5.64,5.64,0,0,0,.65,1.58,3.06,3.06,0,0,0,.36,1.22,4.6,4.6,0,0,1,.36,1.22,5.43,5.43,0,0,0,.29,1.08l0.5,1a1.78,1.78,0,0,1,.29.79c0.07,0.22.22,0.5,0.43,1l0.43,0.86a0.42,0.42,0,0,1,.14.36,0.39,0.39,0,0,1,.22.14l1.3,3.24,1.37,4.1a1.88,1.88,0,0,0,.22.58,0.54,0.54,0,0,1,.07.29l0.65,2.16a1.39,1.39,0,0,1,.36.65c0.22,0.5.43,0.94,0.58,1.3l0.86,1.87a3.62,3.62,0,0,1,.43,1,1.9,1.9,0,0,0,.22.58l0.5,1.15a4.8,4.8,0,0,0,.43,1.44,3.34,3.34,0,0,1,.14.36l0.14,0.36,0.65-1.58a3.24,3.24,0,0,1,.43-1.37l0.29-1.08c0.29-.94.43-1.44,0.5-1.66v-0.43a0.43,0.43,0,0,0,.07-0.29l0.65-1.73c0-.07.14-0.5,0.14-0.58a9.39,9.39,0,0,1,.36-1.3,8,8,0,0,1,.65-1.66l0.22-.43a6.56,6.56,0,0,0,.29-1.15,0.26,0.26,0,0,1,.07-0.22v-0.14l0.07-.14,1.08-2.52a14.06,14.06,0,0,1,.72-2c0.79-2.16,1.51-4.46,2.16-6.84l0.29-.86a1.11,1.11,0,0,0,.22-0.5l0.29-.86c0.14-.36.29-0.94,0.5-1.73l0.22-.72,0.43-1.44,0.5-1.15a7,7,0,0,1,.79-2,1.17,1.17,0,0,1,.22-0.43,1.21,1.21,0,0,1,.14-0.36c0-.36.07-0.5,0.22-0.5s0.07-.22.07-0.29l0.65-2.38a1.26,1.26,0,0,1,.07-0.43v-0.07a0.14,0.14,0,0,0,.07-0.14,0.18,0.18,0,0,1,.14-0.22l0.43-1.37c0-.07-0.07-0.22-0.07-0.29l0.36-.72a0.44,0.44,0,0,0,.07-0.29l-0.22-.07h-0.14a0.43,0.43,0,0,1-.29.07l-0.29-.07-0.29.22a5.5,5.5,0,0,1-1.3.07,0.35,0.35,0,0,1-.29-0.07,0.61,0.61,0,0,0-.43-0.14h-0.36a0.47,0.47,0,0,1-.43-0.58,1.27,1.27,0,0,1,1-.65,3.49,3.49,0,0,0,.86-0.07c0.22,0,.58-0.07.65-0.07h1.22a3.49,3.49,0,0,0,.86-0.07l0.07-.07H1186c0.07,0,.43.07,1,0.14a3.21,3.21,0,0,0,.72.14l0.86-.36,0.07-.07h0.22a0.93,0.93,0,0,1,.5.07c0.07,0,.36.07,0.43,0.07h0.29a1.73,1.73,0,0,1,.58.43,0.54,0.54,0,0,1-.07.36l-0.22.79h-0.79a1.27,1.27,0,0,1-.65-0.07l-0.07-.07h-0.14a0.66,0.66,0,0,0-.43.07l-0.07.07H1188l-0.43.14h-0.29a1.12,1.12,0,0,0-.43.22l0.07,0.07v0.14a1.12,1.12,0,0,1-.22.43l-0.43,1.08a6.44,6.44,0,0,0-.36,1.15,10.82,10.82,0,0,1-.36,1.51l-0.43,1.37a1.46,1.46,0,0,1-.29.58,0.54,0.54,0,0,0-.14.29l-0.07.07v0.22l-1.15,2.88a2.81,2.81,0,0,1-.14.43l-0.22.79a0.66,0.66,0,0,0-.22.36,3.34,3.34,0,0,1-.14.36,1.25,1.25,0,0,1-.22.5,0.26,0.26,0,0,0-.07.22v0.36a15.77,15.77,0,0,1-.72,1.94l-0.07.22a3.21,3.21,0,0,0-.14.72l-0.07.22v0.22c-0.07.22-.22,0.58-0.29,0.79v0.22a0.14,0.14,0,0,0-.07.14,2.88,2.88,0,0,0-.14.43,8.52,8.52,0,0,1-.5,1.44,9.23,9.23,0,0,0-.36,1.3c0,0.07-.07.22-0.07,0.29l-0.72,2.16a0.85,0.85,0,0,1-.14.5v0.14a0.14,0.14,0,0,0-.07.14l-0.29.14-0.22.72v0.14a0.26,0.26,0,0,0-.07.22,0.54,0.54,0,0,0-.07.36,4.77,4.77,0,0,1-.43.86l-0.43,1.15a7.3,7.3,0,0,0-.43,1.37,7.82,7.82,0,0,1-.65,1.66V1030a0.86,0.86,0,0,1-.22.58l-0.36.58a1.82,1.82,0,0,1-.14.5,9,9,0,0,1-.65,1.51l-0.29.72c0,0.22-.14.94-0.14,1s0,0.29-.07.29a2.92,2.92,0,0,0-.14.43l-0.29,1.22a3.29,3.29,0,0,0-.36,1.51l-0.29.86-0.43.86v0.58a0.66,0.66,0,0,1-.07.43l-0.14.22-0.07.36-0.22.79a6.36,6.36,0,0,0-.14.79,1.42,1.42,0,0,1-.07.58V1044a4.56,4.56,0,0,1-.14.5V1045c0,0.07-.07.43-0.22,1.15l-0.07.14v0.36a0.26,0.26,0,0,0-.07.22,2.24,2.24,0,0,0-.07.72c0,0.65-.22.94-0.58,0.94h-0.43a3.15,3.15,0,0,1-.65.07,0.73,0.73,0,0,1-.5-0.29A2.35,2.35,0,0,1,1169,1047.21Z" transform="translate(-736.39 -981.29)"/><path class="cls-1" d="M1233.05,1047.57h-2a2.25,2.25,0,0,0-1.3.22c-0.07,0-.29-0.07-0.36-0.07h-0.58a1.85,1.85,0,0,1-.5.22,0.43,0.43,0,0,1-.43-0.22l-1-.79a3,3,0,0,1-.5-0.94l-0.29-.79a11,11,0,0,1-1.22-2.81,22.67,22.67,0,0,1-1-2.23,19.51,19.51,0,0,1-1.44-3.67l-0.14-.58a3,3,0,0,1-.22-0.65L1222,1035l-0.36-1.73a2.5,2.5,0,0,1-.36-0.58l-0.14-.58a2.7,2.7,0,0,1-.07-0.58l-0.22-.36a1.11,1.11,0,0,1-.22-0.43l-0.07-.22v-0.36a4,4,0,0,0-.58-1.37,0.54,0.54,0,0,1-.07-0.36,0.78,0.78,0,0,0-.07-0.36,5.17,5.17,0,0,0-.65-1.51,5.83,5.83,0,0,0-.79-2.3,1,1,0,0,0-.5-0.14c-0.5,0-1.73.43-2.09,0.43a6.55,6.55,0,0,0-2.38,0,2.23,2.23,0,0,1-.5-0.14c-1.08-.07-1.94-0.14-2.59-0.14-0.36,0-.65.07-0.94,0.07s-1.3.14-1.66,0.14-1.58-.14-1.66-0.14l-0.36-.07-1.87-.22h-0.14a0.27,0.27,0,0,0-.22-0.07l-1.87.07c-0.5.22-.58,1.66-0.79,1.87a11.44,11.44,0,0,0-1.37,2.67,0.55,0.55,0,0,0-.07.29l-0.07.29-0.36.36c-0.07.22-.22,0.58-0.29,0.79l-0.22.22a16.2,16.2,0,0,0-.79,1.58,1.25,1.25,0,0,1-.43.79,9.56,9.56,0,0,0-.58,1.73,2,2,0,0,1-.43.58c-0.58,1.51-.94,2.45-1.08,2.74-0.36.36-.86,1.87-1.44,2.16a1,1,0,0,1-.22.72,0.31,0.31,0,0,0-.22.22,5.82,5.82,0,0,0-.36,1l-0.29.5h-0.29c0,0.79-.43,2.09-0.94,2.16a1.63,1.63,0,0,1-.07.5v0.29l-0.14.14a0.54,0.54,0,0,0-.07.29l0.22,0.14H1195a2.69,2.69,0,0,1,.79.07,1.09,1.09,0,0,0,.94.07c0.36,0,.5.14,0.5,0.36,0,0.5-.14.79-0.43,0.79h-2.38l-0.29.07-1.08.07a0.94,0.94,0,0,1-.79.22,1.4,1.4,0,0,1-.5-0.07h-0.36l-1.51-.07-0.29-.29a0.93,0.93,0,0,1-.29-0.72l0.07-.22a13.41,13.41,0,0,0,1.3-2.52l1.08-2.23,0.22-.22,1.22-2.59c0.07-.07.43-0.79,1.08-2l0.94-2.09,0.14-.22a1,1,0,0,0,.14-0.29,4.49,4.49,0,0,0,.43-1.22c0.36-.86,1.37-2.74,1.66-3.31,0.07-.29.14-0.43,0.14-0.5a21.1,21.1,0,0,1,1.15-2.52c0.5-1.08.79-1.73,0.86-1.87l0.14-.36,0.14-.36c0.07-.22,1.08-2.16,1.15-2.45a14.16,14.16,0,0,0,.79-2.23l0.14-.72c1.15-2.66,1.8-4.18,1.94-4.46a34.22,34.22,0,0,0,1.8-4.1l1.94-3.74a3.37,3.37,0,0,0,.65-1.15l0.14-.43,0.22-.43c0.58-1.51,2.23-4,2.81-5.18,0.22-.5.65-1.66,0.86-2.16a5.29,5.29,0,0,0,1-.29l0.22-.14a0.75,0.75,0,0,1,.79.29l0.07,0.29c0.07,0.5.5,1.3,0.58,1.66,0,0.07.14,1,.22,1.37a11.43,11.43,0,0,1,1,2.23c0.07,0.58.5,1.15,0.58,1.73a5.62,5.62,0,0,0,.43,1.8c0,0.22.5,1.37,0.5,1.44l0.07,0.22,0.07,0.22c0.07,0.29.29,1,.5,2.09a3,3,0,0,0,.22.65l0.22,0.58a7.16,7.16,0,0,0,.58,1.87c0.43,1.22.79,2.23,1.15,3l0.58,1.22c0.29,0.5.36,2,.58,2.52a6.27,6.27,0,0,0,.58,1.37l0.36,1.3c0.79,3,1.51,5.54,2.23,7.63,0.29,0.65.65,2.66,0.86,3v0.29l0.07,0.22,0.14,0.29a30.93,30.93,0,0,1,1.37,3.6c0.07,0.29.86,1.94,1.08,2.74,1.51,3.89,2.38,5.83,2.74,5.83a0.27,0.27,0,0,0,.22-0.07,0.27,0.27,0,0,1,.22.07l0.14,0.07,0.29-.14c0.07,0,1.58.14,1.8,0.14a0.15,0.15,0,0,0,.14.14c0.07,0,.43-0.07.5-0.07a0.4,0.4,0,0,1,.36.22,2,2,0,0,1-.29.79l-0.29.07-0.43.22-0.22.07a0.26,0.26,0,0,1-.22.07,0.54,0.54,0,0,1-.29-0.07h-0.14Zm-27.36-24.7,0.58,0.5,3.17-.07a8.45,8.45,0,0,0,1.58-.07,5.59,5.59,0,0,1,1-.22c0.07,0,.36.07,0.43,0.07l3-.22h1.08a3,3,0,0,0,1.3-.22,0.27,0.27,0,0,0,.07-0.22,9.8,9.8,0,0,0-1.08-3,22.13,22.13,0,0,0-.94-2.81l-0.22-.5c-0.22-.58-0.86-3-1.22-3.89l-1.37-3.53c-0.65-1.73-1.15-4.1-1.8-6.19l-0.07-.07H1211l-0.14.43c-0.29.5-.58,1.22-0.65,1.3a1,1,0,0,1-.14.29l-0.14.29-0.14.36v0.36l-0.22.43-0.22.43-0.07.36a8.26,8.26,0,0,1-.58.72l-0.43.94a1.05,1.05,0,0,1-.36.58,9.46,9.46,0,0,1-.58,1.58c-0.22.5-.86,1.44-1.08,1.94a6.64,6.64,0,0,1-.65,1.58l-0.14.22a0.71,0.71,0,0,0-.22.58v0.22l-0.14.14a0.31,0.31,0,0,0-.22.22l-0.07.22V1016a3.11,3.11,0,0,1-.07.36,6.84,6.84,0,0,1-1.51,3.17,6.51,6.51,0,0,1-.65,2.45,9.68,9.68,0,0,0-.36,1l1.15,0.07a1.26,1.26,0,0,1,.43.07l0.29,0.07c0.29,0,1.08-.14,1.37-0.14Zm7.78-33.27a4.08,4.08,0,0,1,.79-1.37,1.9,1.9,0,0,0,.22-0.5,2.76,2.76,0,0,0,.65-0.58,15,15,0,0,0,2.59-3.67c0.22-.43.72-1,1.08-1.58l0.86-.29,0.43,0.14a0.65,0.65,0,0,1,.36.43,1.61,1.61,0,0,1-.22.72,5.32,5.32,0,0,0-.86,1.15l-0.58,1a1,1,0,0,0-.5.58,2.2,2.2,0,0,1-.72,1c-0.07.07-.72,1.22-0.79,1.3l-0.14.43a1.9,1.9,0,0,0-.22.5,3.31,3.31,0,0,1-1.37,1,0.35,0.35,0,0,1-.29-0.07Z" transform="translate(-736.39 -981.29)"/><path class="cls-1" d="M1247.23,1047.64a0.35,0.35,0,0,1-.29-0.07l-1-.07a1.16,1.16,0,0,1-.79.22h-0.94a0.61,0.61,0,0,1-.14-0.43V1047a0.29,0.29,0,0,1,.29-0.36c0.94-.07,2.45-0.14,4.46-0.14v-0.86c0-3.1-.07-4.75-0.22-4.82v-3.53c-0.14-3.38-.22-5.76-0.29-7.2a1.07,1.07,0,0,0-.07-0.5v-1.73c0-.22-0.07-1.15-0.22-2.74,0-.36.07-1.22,0.07-1.58a1.59,1.59,0,0,0-.07-0.65l-0.14-10.58a21.29,21.29,0,0,0-.22-3l-0.14-10.51c0.29-.65-1.51-0.5-2.59-0.79-0.22,0-.86.07-0.94,0.07-0.79,0-1.15-.14-1.15-0.36l0.43-.65,3.67,0.07,1.22,0.14,0.5,0.36h0.14l0.14-.07a3.4,3.4,0,0,1,2.23,1l1.08,1.44,2.09,3.46a4.56,4.56,0,0,1,.43,1.15,3.83,3.83,0,0,1,.65.79,1,1,0,0,1,.14.29,25,25,0,0,0,2.16,2.67c0.29,0.5.65,1.3,0.94,1.8l0.36,0.58a11,11,0,0,1,1.51,2.52l1.87,2.45a11.32,11.32,0,0,0,.94,2.16,21.9,21.9,0,0,1,2,3l0.65,1.3a11.42,11.42,0,0,0,2.16,3.24l0.94,1.58,3.38,4.82a0.26,0.26,0,0,0,.07.22l0.14,0.22,0.5,0.65,0.65,0.79,0.43,0.86,0.22,0.22,1.66,2.59a11.93,11.93,0,0,1,.94,1c0.43,0.65,1.8,3,2.45,3.17V1041a18,18,0,0,0-.29-3.74l-0.07-.07V1037l0.07-.29c0-.79-0.14-3-0.14-3.82,0-.5.14-1.8,0.14-2.38a0.38,0.38,0,0,0-.14-0.22v-1.94c-0.07-1.08-.07-1.73-0.07-1.87v-2.23c0-.22,0-1.3.07-3.17v-3.53a0.78,0.78,0,0,1,.14-0.58v-0.43c0-1.22-.07-4.25-0.07-5.47a3.16,3.16,0,0,1,.14-1.3v-3.46c0.07-1.08.07-1.94,0.07-2.52l0.07,0.65v-0.36c0-.22,0-1,0.07-2.3V999c0-.43-0.43-0.65-1.37-0.65a0.49,0.49,0,0,0-.5-0.22H1277a0.83,0.83,0,0,1-.58-0.65l-0.07-.14a0.31,0.31,0,0,1,.22-0.22,2.05,2.05,0,0,0,.86.07h0.86a4.13,4.13,0,0,1,1.08.07l1.87-.07c0.22,0,.29.29,0.29,0.86l-0.22.72-0.07.07c-0.22.07-.14,0.14-0.07,0.36l0.07,0.14a2.2,2.2,0,0,1-.22,1.08v0.14c0,0.22.07,0.79,0.07,0.86l-0.22.58v0.14a0.54,0.54,0,0,0,.14.29v0.94c0,0.5-.14.36-0.14,0.86,0,0.29.07,0.86,0.07,1.08,0,0.5-.29,1.08-0.29,1.37,0,0.58.22,1.37,0.22,1.87a2.26,2.26,0,0,1-.07.94v9c0,0.22-.14.65-0.14,0.86,0,0.58.14,1.87,0.14,2.38,0,0.22-.07.58-0.07,0.65,0,1.37,0,3.46.07,6.12v6.19a15.68,15.68,0,0,1,.07,2,14.72,14.72,0,0,0,.07,2l0.07,0.36c0.07,0.5.22,1.8,0.29,3.82,0,0.22.14,0.72,0.14,1v0.79a6.87,6.87,0,0,1,.22,1.8c0,1.08-.94,1-1.15,1.22H1280a0.5,0.5,0,0,0-.36-0.22,1.05,1.05,0,0,0-.14-0.29,7.7,7.7,0,0,1-1.15-1.37,11.34,11.34,0,0,0-.94-0.94,3.21,3.21,0,0,1-.43-0.65,18.87,18.87,0,0,1-2.45-3.24,0.37,0.37,0,0,1-.29-0.29,5.6,5.6,0,0,1-.86-1c0-.43-0.22-0.22-0.43-0.43a35.05,35.05,0,0,1-2.16-3.24,19.8,19.8,0,0,1-1.94-2.81c-0.07-.07-0.36-0.5-0.94-1.15a10,10,0,0,1-.43-0.94c-0.5-.58-1.08-1.37-1.87-2.45a0.38,0.38,0,0,1-.14-0.22,18.93,18.93,0,0,0-1.66-2.38,1.35,1.35,0,0,1-.29-0.65c-0.29-.36-0.94-1.58-1.3-2.09a3.65,3.65,0,0,1-.58-0.94c-0.22-.22-0.58-1-0.86-1.3l-0.14-.22c-0.07-.29-1.08-1.37-1.08-1.58a44.1,44.1,0,0,1-2.09-4l-0.07-.22a6.93,6.93,0,0,1-1-1.8l-1.3-2.09a13.12,13.12,0,0,1-.86-1.15l-0.79-1.15a2.13,2.13,0,0,0-.65-1.51,19.26,19.26,0,0,1-1.51-2.16l-0.14-.29c-0.36,0-1-1.15-1.08-1.22l-0.22-.36c-0.22-.29-0.29-0.43-0.36-0.5v3.24l0.14,1.73c0,0.07.07,0.79,0.14,2a18.56,18.56,0,0,0,.22,2.38v3.1c0,0.07-.22,1.15-0.22,1.37V1018a2.14,2.14,0,0,0,.22,1.15v1.94c0,0.14.07,0.79,0.14,1.94s0.14,1.8.14,1.94c0.07,1,.07,2.45.14,4.25v3.6a0.37,0.37,0,0,1,.14.29c0,0.07-.07.43-0.07,0.5a0.55,0.55,0,0,0,.14.29v9.72a1.36,1.36,0,0,0-.14.58v0.86a1,1,0,0,1,.14.29c0,0.22-.14.79-0.14,1.15h3.89c0.07,0,.14.14,0.14,0.5a5,5,0,0,1-.36.5c-0.29,0-.94.14-1,0.14h-0.72c-0.29,0-1.73-.22-1.94-0.22a0.38,0.38,0,0,1-.22.14c-0.5,0-1.8-.07-2.16-0.07S1247.59,1047.64,1247.23,1047.64Z" transform="translate(-736.39 -981.29)"/></svg>