<svg id="Layer_1_copy_2" data-name="Layer 1 copy 2" xmlns="http://www.w3.org/2000/svg" viewBox="0 0 510.79 73.57"><title>lantosistvan-logo-fountain-pen-5</title><path d="M8.44,80.54a1.22,1.22,0,0,1-.53-0.2A2,2,0,0,0,7,80a3,3,0,0,0-1.11.24,2.15,2.15,0,0,1-.54.17c-0.31,0-1-.26-1.93-2a9,9,0,0,1-1.06-3A5.58,5.58,0,0,0,3,73.81c0.24-.85.84-2.45,1.78-4.73a16.59,16.59,0,0,0,1.46-2.85A1.2,1.2,0,0,1,7,65.48a2,2,0,0,0,1.16-1.68,2.44,2.44,0,0,1,.57-1.22,15.71,15.71,0,0,0,3.11-2.71c0.59-.73,1.13-1.45,1.64-2.17s1-1.52,1.61-2.45l0-.06,0-.07a2.33,2.33,0,0,1,1.54-1.72,33.22,33.22,0,0,0,3-1.91A8.35,8.35,0,0,1,22,50c1.23,0,1.86,1.36,1.86,4a22.39,22.39,0,0,1-.61,4.22c-0.14,1-.26,1.82-0.37,2.5a12.57,12.57,0,0,0-.16,1.83,2.84,2.84,0,0,0,.56,1.74,6.33,6.33,0,0,1,.79,2A5.18,5.18,0,0,0,26,68.87a4.36,4.36,0,0,0,2.32,1.25c0.75,0,2.22-.45,6.32-4.36,3.75-3.67,4.56-4.24,4.74-4.31,1-.26,1.46-0.6,1.58-1.08a1.24,1.24,0,0,1,.4-0.78,4.32,4.32,0,0,0,1.19-1.45l0,0,0-.05c0.1-.29.63-1.06,3.12-3a13.89,13.89,0,0,0,4.16-4.18,5.58,5.58,0,0,1,1.71-1.74,7.44,7.44,0,0,0,2-2,7.22,7.22,0,0,1,1-1.31c0.57-.64,1.35-1.45,2.3-2.4A22.25,22.25,0,0,1,60.6,40a8.42,8.42,0,0,0,3.29-3.6,4.1,4.1,0,0,1,1.57-1.45,5.42,5.42,0,0,0,1.92-1.72,19.91,19.91,0,0,1,3.08-3A21.63,21.63,0,0,0,73.84,27,7.27,7.27,0,0,1,74.7,26q0.61-.56,1.27-1.12t1.32-1.07a4.29,4.29,0,0,0,1.1-1.17,16.56,16.56,0,0,1,6.58-6A10,10,0,0,0,87.53,14,8.87,8.87,0,0,1,90,11.67a20.09,20.09,0,0,0,2.41-1,7.09,7.09,0,0,0,1.49-.48,3.24,3.24,0,0,0,1.56-1c0.28-.39,1.1-1,3.43-1.65A16,16,0,0,1,103.1,7c0.18,0,.53.48,0.53,2.28,0,0.16-.17.95-2.29,4.37-0.25.31-.55,0.71-0.86,1.16A5.25,5.25,0,0,1,99.3,16l-2.46,2.15a3.68,3.68,0,0,0-1,.8q-0.44.49-1.11,1.16l-0.31.18A36.16,36.16,0,0,0,97.4,17.1c2.38-2.95,2.7-3.85,2.7-4.34a1.21,1.21,0,0,0-1.22-1.43,3.66,3.66,0,0,0-1.5.41,6.62,6.62,0,0,1-.75.32h0c-1.44,0-3.8,1.53-7.15,4.66-4.4,4.13-5.81,4.92-6.26,5-0.24.06-.56,0.14-3.65,3.44-2.17,2.42-3.14,3.18-3.57,3.4a17.21,17.21,0,0,0-3.53,3c-0.82.75-3.63,3.57-8.35,8.35a50.36,50.36,0,0,1-4.91,4.6,3.2,3.2,0,0,0-.83,1.06,1.35,1.35,0,0,1-.36.48h0c-0.77,0-1.53.81-2.32,2.54-0.63,1.2-1.28,1.87-1.81,1.87s-1.22.3-3.25,2.53a16.63,16.63,0,0,1-2.84,2.88,13.76,13.76,0,0,0-3.88,3.74c-2,2.38-2.78,2.76-3,2.81a5.36,5.36,0,0,0-3.21,2.51,16,16,0,0,1-2.45,2.22c-4.1,3.24-4.1,3.66-4.1,4,0,0.94,1.29,1.61,4.47,2.33a7.94,7.94,0,0,0,1.82.23q1.5,0.1,4.19.21h0.12l0.11,0A8.7,8.7,0,0,1,45,73.51q0.4,0,1.2.05l3.5,0.21q0.84,0.05,1.37.05a13.34,13.34,0,0,0,1.45-.11q0.89-.11,1.83-0.26c0.61-.1,1.2-0.19,1.78-0.25a12.52,12.52,0,0,1,1.44-.1H59a7.36,7.36,0,0,0,2.67-.87,7.83,7.83,0,0,1,2.48-.78,6.71,6.71,0,0,0,1.9-.38q1.13-.36,2.87-0.87a16.74,16.74,0,0,1,4.8-1.11,9.32,9.32,0,0,0,2.17-.39c0.52-.17,1.07-0.39,1.64-0.63l1.95-.82a25.86,25.86,0,0,1,3-1A4.15,4.15,0,0,0,84.19,65a1.88,1.88,0,0,1,1.4-.57A2.61,2.61,0,0,0,86.87,64c0.42-.25.83-0.51,1.23-0.8s0.74-.52,1.11-0.76a1.46,1.46,0,0,1,.61-0.28,1.16,1.16,0,0,1,0,.48v0.67h0a9.21,9.21,0,0,1-1.39.91,9.73,9.73,0,0,0-1.07.51q-0.58.31-1.1,0.63a25.06,25.06,0,0,1-5.09,2.9,40.52,40.52,0,0,1-6,2L69.09,71.8a26.28,26.28,0,0,0-2.68.79,6.12,6.12,0,0,1-1,.33h0a3.83,3.83,0,0,0-1.79.69,3.15,3.15,0,0,1-1.49.55H61.56a2.41,2.41,0,0,0-.7-0.1,16.41,16.41,0,0,0-3.85.79,15.07,15.07,0,0,1-3.57.75,10.9,10.9,0,0,1-1.18-.1,11.14,11.14,0,0,0-1.3-.11,14.79,14.79,0,0,0-1.92.16l-4.53.62a13.91,13.91,0,0,1-1.79.15q-0.61,0-1.73-.05l-2.27-.1Q37.62,76.11,36.5,76c-0.78-.07-1.37-0.1-1.8-0.1a10.46,10.46,0,0,1-2.36-.28,4.38,4.38,0,0,1-1.76-.78l-0.1-.08-0.13,0a30,30,0,0,0-3.79-.49,7.08,7.08,0,0,0-3.78,1.37,6.25,6.25,0,0,1-3.33,1.2,4.68,4.68,0,0,0-2.4,1.07,3.77,3.77,0,0,1-1.82.89c-0.2,0-.32,0-0.32-0.43,0-.9,1.08-1.35,3.21-1.35,0.29,0,.74-0.13,1.82-1.08L22,75a2.42,2.42,0,0,0,1.53-2.26V72.49l-0.15-.15C20.51,69.44,19,66.92,19,64.87a3.65,3.65,0,0,0-.23-1.08,2.89,2.89,0,0,1-.18-0.87,9.07,9.07,0,0,1,.15-1.36A9.7,9.7,0,0,0,18.93,60c0-1.75-.15-2.77-0.91-2.77-0.58,0-1.64.31-4.08,2.94-2.38,2.47-2.85,3.41-3,3.9a3.27,3.27,0,0,1-1,1.3,8.09,8.09,0,0,0-1.27,1.22c-1.88,3.32-2.78,5.52-2.78,6.79a1.16,1.16,0,0,1-.35.64A2,2,0,0,0,5,75.24a2.94,2.94,0,0,0,1.5,2.32,4.77,4.77,0,0,0,2.71,1c1.24,0,1.56.49,1.64,1A3.17,3.17,0,0,1,8.44,80.54ZM55.61,58.74a17.21,17.21,0,0,1,2.93-3.29c3-3,3.62-3.87,3.81-4.26a3.13,3.13,0,0,1,2.57-2l0.46-.13a11.72,11.72,0,0,0-1.53,2.15c-1.25,1.87-1.68,2-1.72,2h0c-0.19,0-.63.12-3.2,2.38-0.33.27-.76,0.64-1.25,1.09s-1.07,1-1.76,1.71A4,4,0,0,1,55.61,58.74Zm10.32-9.92a1,1,0,0,0,.39-0.41q0.15-.3,1-2.13A3.46,3.46,0,0,1,68,45.61a11.35,11.35,0,0,1,1.18-.69l1.16-.58a3,3,0,0,1-1.06.7l-0.07,0-0.06.05a5,5,0,0,0-1.37,2,3,3,0,0,1-1.15,1.46l-0.08.05-0.06.08A1.29,1.29,0,0,1,65.92,48.82ZM77.19,37.76a7.23,7.23,0,0,0,.5-0.78,7.21,7.21,0,0,1,2-2.75c1.32-1.49,2-1.71,2.32-1.71a0,0,0,0,1,0,0,0.34,0.34,0,0,1,0,.13c0,0.05-.08.59-2.12,2.63a19.92,19.92,0,0,1-2.77,2.62Zm8.59-8.63c0-.94.38-0.94,0.63-0.94h0.06c-0.06.1-.17,0.29-0.38,0.61s-0.24.34-.32,0.43S85.78,29.17,85.78,29.13Zm2.58-2.46a1.76,1.76,0,0,1,1.07-1.53,1.56,1.56,0,0,0,.47-0.31,2,2,0,0,0-.09.21,4.08,4.08,0,0,1-.37.74,5.84,5.84,0,0,1-.52.71,0.43,0.43,0,0,1-.34.19H88.36Zm2-2.31c0.22-.25.48-0.58,0.79-1a4.59,4.59,0,0,1,2.65-2.6h0a15,15,0,0,0-1.72,1.8l-0.1.12,0,0.15a2.49,2.49,0,0,1-1.51,1.52Z" transform="translate(-2.36 -6.97)"/><path d="M103,71.17a6,6,0,0,1-.85-0.1,6.51,6.51,0,0,0-1-.11,1.73,1.73,0,0,0-.62.1h-0.41a4.23,4.23,0,0,1-3.9-2.13l-0.08-.13,0,0a9.36,9.36,0,0,1-.45-1.57c-0.18-1.07-.62-1.62-1.31-1.62a1.77,1.77,0,0,1-.56-0.08l-0.08,0H92.9a3.63,3.63,0,0,0-2.36,1.33,4.89,4.89,0,0,1-2.67,1.36h0a14.79,14.79,0,0,0-3.3,1.23,4.52,4.52,0,0,0-1.09.28,3.12,3.12,0,0,1-.86.23,0.43,0.43,0,0,1-.19-0.05,1.21,1.21,0,0,0-.53-0.15A2.6,2.6,0,0,0,81,70a1.88,1.88,0,0,1-.64.17h-0.1A0.43,0.43,0,0,1,80,70.09L79.94,70H79.41a4.75,4.75,0,0,0-1.27.23,3.84,3.84,0,0,1-.89.19,13.82,13.82,0,0,1-2.53-.25A2.67,2.67,0,0,1,73,69.31L73,69.23l-0.08,0a2.37,2.37,0,0,1-.6-1.93c0-.35.4-1.62,4.09-6a5,5,0,0,1,1-.89l1.55-1.13q0.78-.57,1.51-1.14c0.45-.35.78-0.63,1-0.84l3.62-1.5,1.69-1,0.06-.08a3.17,3.17,0,0,1,2.69-1.14,1.12,1.12,0,0,1,.37.11,1.72,1.72,0,0,0,.66.19,2.42,2.42,0,0,0,1-.31,1.53,1.53,0,0,1,.6-0.2,3.42,3.42,0,0,1,2,.62,1.64,1.64,0,0,1,.81,1.4c0,0.16,0,.66-1.17,1.09a7.44,7.44,0,0,1-2.56.52H91.17a5.81,5.81,0,0,0-2.49-.41,3,3,0,0,0-1.39.43,17.42,17.42,0,0,0-3.93,1l-0.13,0-0.09.11a11,11,0,0,1-2,1.87L81,60.15l0,0.17a5.22,5.22,0,0,1-1.39,1.11,3.74,3.74,0,0,0-.91.57l-1.09.88a6.44,6.44,0,0,0-1,1A1.82,1.82,0,0,0,76.13,65a1.86,1.86,0,0,0,.61,1.33,7.46,7.46,0,0,0,1.16.94,6.56,6.56,0,0,0,1.45.72,4.21,4.21,0,0,0,1.4.29,8.33,8.33,0,0,0,2.75-.65A7.55,7.55,0,0,1,85.9,67a4.15,4.15,0,0,0,2.4-.87,4.2,4.2,0,0,1,1.13-.68h0.14a1.3,1.3,0,0,0,.56.1c0.33,0,.9-0.15,2.64-1.3A9.3,9.3,0,0,1,95,63a2.51,2.51,0,0,0,1.21-1.08,1.76,1.76,0,0,1,.62-0.68L97,61.19,97.06,61a2.85,2.85,0,0,1,1.15-1l2.39-.87a5,5,0,0,1,2.3-.68c0.63,0,.63.18,0.63,0.29a2.06,2.06,0,0,1-.26.82,1.54,1.54,0,0,1-.2.33l-0.08,0V59.74l-0.51,0c-0.36,0-.47.26-0.71,0.77a11.56,11.56,0,0,0-.54,1.51q-0.26.87-.56,1.84a12.53,12.53,0,0,0-.43,1.66c0,1.6,1.36,2.52,4.06,2.84a6.08,6.08,0,0,0,.78.25,4,4,0,0,0,1,.17,2.64,2.64,0,0,0,.91-0.24,1.93,1.93,0,0,1,.63-0.17l0.19,0.07a1.5,1.5,0,0,0,.54.14h0.14l0.12-.07a4.51,4.51,0,0,1,1.25-.46c0.59-.14,1.47-0.41,2.68-0.84a5.25,5.25,0,0,1,1.58-.69,4.67,4.67,0,0,0,1.72-.8,2.46,2.46,0,0,1,1.16-.53,1.57,1.57,0,0,1,1,.16,1.57,1.57,0,0,1-.6.7,2.79,2.79,0,0,1-1.07.62l-0.19,0-0.12.16a3.42,3.42,0,0,1-1.47,1,6.62,6.62,0,0,0-2.93,1.1,5,5,0,0,1-1.49.7,6.9,6.9,0,0,0-1.62.5,4.42,4.42,0,0,1-2.08.89,1.49,1.49,0,0,1-.46-0.08l-0.08,0h-0.6a8.88,8.88,0,0,0-1.2.11A8.35,8.35,0,0,1,103,71.17Z" transform="translate(-2.36 -6.97)"/><path d="M143,71.38a3.13,3.13,0,0,1-2.08-1,2.57,2.57,0,0,1-1-1.85,7.53,7.53,0,0,1,.44-2,8.2,8.2,0,0,0,.49-2.32A2,2,0,0,0,138.53,62a28.39,28.39,0,0,0-4.36,1.15,9.51,9.51,0,0,0-4,2.29c-0.79.92-2.67,2-5.6,3.19a21.85,21.85,0,0,1-6.4,1.71c-1.74,0-2-.84-2-1.66a5.3,5.3,0,0,1,.09-1,48.82,48.82,0,0,1,1-5.6,2.8,2.8,0,0,0,.33-1.2,1.32,1.32,0,0,0-1.32-1.53c-0.41,0-1.16.29-3.81,2.37q-1.43,1.13-2.35,1.79a4.94,4.94,0,0,0-1.26,1.11,6.74,6.74,0,0,1-.73.52,12.7,12.7,0,0,1-1.14.64,9.06,9.06,0,0,1-1.17.49,2.72,2.72,0,0,1-.77.18c-0.49,0-.53-0.16-0.53-0.43a1,1,0,0,1,.09-0.36,8.83,8.83,0,0,0,.83-0.52,8.34,8.34,0,0,0,1.1-.93A3.39,3.39,0,0,1,108,63.07a4.69,4.69,0,0,0,1.45-.83,24,24,0,0,1,2-1.76c0.8-.64,1.8-1.34,2.95-2.08a3.85,3.85,0,0,0,1.91-1.55,2.11,2.11,0,0,1,1.08-1c0.61-.2,1.15-0.39,1.6-0.57l1.19-.47q0.46-.18.84-0.37a2,2,0,0,1,1.08,1.41,7.64,7.64,0,0,1,.38,2.41,3.72,3.72,0,0,1-.28,1.27l-0.61,1.63c-0.21.57-.42,1.1-0.62,1.61a4.3,4.3,0,0,0-.35,1.58c0,1.94,1.29,2.15,1.84,2.15a5.63,5.63,0,0,0,2.61-.78q1.35-.73,2.39-1.35l1.86-1.14a24.8,24.8,0,0,1,6.94-3.33,21.79,21.79,0,0,0,3.48-.95,9.84,9.84,0,0,0,2.17-1.09,6.87,6.87,0,0,1,4.45-2c0.6,0,1.22.2,1.25,1.65-0.09.22-.21,0.56-0.39,1.1s-0.27,1.11-.37,1.6a1.52,1.52,0,0,1-.92.89A2.13,2.13,0,0,0,144.52,63a2.74,2.74,0,0,1-.19,1,4.38,4.38,0,0,0-1.26,3.21c0,0.93.52,2,3,2h0.57a5,5,0,0,0,1-.11h1.34a3.33,3.33,0,0,0,1.54-.58,2.55,2.55,0,0,1,1-.45,9.79,9.79,0,0,0,1.67-.49,4.18,4.18,0,0,1,1.32-.33c0.84,0,.84.32,0.84,0.53h0a7.85,7.85,0,0,1-1.7.66l-1.44.58q-0.88.36-2,.88l-0.05,0,0,0a5.51,5.51,0,0,1-3.4.93,10.3,10.3,0,0,0-2,.27A9.72,9.72,0,0,1,143,71.38Z" transform="translate(-2.36 -6.97)"/><path d="M171.08,71.79c-5.69,0-8.46-1.49-8.46-4.55a2.24,2.24,0,0,1,1.3-1.94c1-.59,2.24-2,3.67-4.39,1.62-2.67,2.59-3.43,3.12-3.59,1.94-.81,2.82-1.61,2.82-2.54a0.86,0.86,0,0,0-.91-0.91c-1,0-2.37.75-4.43,2.37a20.28,20.28,0,0,0-4,3.5,7,7,0,0,1-3.17,2,16.32,16.32,0,0,0-3.63,1.82,22,22,0,0,1-2.27,1.51c-0.9.53-2,1.12-3.31,1.73-2.6,1.27-4.57,1.91-5.86,1.91-0.74,0-.74-0.3-0.74-0.54,0-.07.08-0.68,2.83-1.49l2.87-1.49a9,9,0,0,0,2.54-1.42,12.89,12.89,0,0,0,3.88-1.92l0,0,0,0c0.06-.06.34-0.3,1.49-1.14,0.87-.64,2.15-1.54,3.9-2.74,4.65-3.26,4.65-3.68,4.65-4,0-.61-0.39-1.33-2.25-1.33a4.08,4.08,0,0,0-1.71.46l-1.9.87a22,22,0,0,1-2.06.81,5.91,5.91,0,0,1-1.85.33h-0.1c-1.37,0-1.66-.26-1.66-0.32s0.12-.85,4.22-2.52a17.82,17.82,0,0,1,5.48-1.61h1.85c5.59,0,10-1.36,13.1-4a10.63,10.63,0,0,1,4.72-2.57c1.64-.28,5-2,10.35-5.21,5.86-3.6,8.25-4.36,9.22-4.36,0.53,0,.53.17,0.53,0.32s-0.12.7-2.43,2a27.78,27.78,0,0,0-2.55,1.4,7.58,7.58,0,0,0-1.16.84,13.45,13.45,0,0,1-2,1.37c-1.12.7-2.68,1.63-4.62,2.77-4.81,2.69-5.5,4.09-5.6,4.9l0,0.24,0.56,0.57,0.11,0a20.21,20.21,0,0,0,5.31.44h0.31c0.71,0,1.75-.07,3.09-0.21s2.32-.2,3-0.2a4.38,4.38,0,0,1,1.28.28,5.32,5.32,0,0,0,1.6.33,3.85,3.85,0,0,0,.78-0.11,3.1,3.1,0,0,1,.56-0.09,11.16,11.16,0,0,1,1.28.1q0.81,0.1,1.73.25c0.63,0.1,1.22.19,1.77,0.26a12.17,12.17,0,0,0,1.5.11,6.66,6.66,0,0,0,2.24-.55A5.69,5.69,0,0,1,214,49a6.07,6.07,0,0,1,1.28.19,6.54,6.54,0,0,0,1.4.22,13.42,13.42,0,0,0,2.47-.32,12.79,12.79,0,0,1,2.27-.3c0.46,0,1.16,0,2.13.1s1.71,0.1,2.2.1,1.26,0,2.3-.1,1.8-.1,2.34-0.1H231c1.31,0,2,.28,2,0.84,0,0.25,0,.84-1.46.84a25.46,25.46,0,0,1-2.67-.2,26.35,26.35,0,0,0-2.68-.21,2.71,2.71,0,0,0-.63.07l-0.66.15a8,8,0,0,1-1.16.14c-0.49,0-1.2,0-2.18,0h-3.4a13,13,0,0,0-1.77.16,12.44,12.44,0,0,1-1.63.15c-0.6,0-1.56-.05-2.84-0.15s-2.29-.16-2.92-0.16a17.39,17.39,0,0,0-2.34.21,16.15,16.15,0,0,1-2.09.2,13.56,13.56,0,0,1-1.68-.15,14.16,14.16,0,0,0-1.72-.16c-0.7,0-1.75.07-3.19,0.21s-2.42.2-3.09,0.2c-0.33,0-.87,0-1.6-0.1s-1.35-.1-1.69-0.1a16.13,16.13,0,0,0-2.45.26,14.93,14.93,0,0,1-2.18.25,12.27,12.27,0,0,1-1.53-.15,12.94,12.94,0,0,0-1.67-.16c-1.46,0-3.06.9-4.89,2.74-1.28,1.15-2.28,2.08-2.94,2.75a9.5,9.5,0,0,1-1.06,1,24.86,24.86,0,0,0-3.12,2.9l-2.18,2.5A6.21,6.21,0,0,0,167.9,67c0,1.84,1.69,2.78,5,2.78,0.49,0,1.1,0,1.83-.05s1.57-.09,2.54-0.16h0a6.26,6.26,0,0,0,2.15-.55,5.49,5.49,0,0,1,1.82-.48,15.34,15.34,0,0,0,8-1.82,7.33,7.33,0,0,1,4.07-1.47c0.11,0,.32,0,0.32.74,0,0.06,0,.1-0.2.12a3.12,3.12,0,0,0-1.15.39c-0.33.14-.73,0.31-1.2,0.53s-1.11.55-1.73,0.89a5.3,5.3,0,0,1-1.84.87c-0.53.13-1,.22-1.35,0.29a3.5,3.5,0,0,0-.91.24,20.19,20.19,0,0,1-7.92,1.52,8,8,0,0,0-1.43.16l-1.74.31-1.76.31A7.6,7.6,0,0,1,171.08,71.79Z" transform="translate(-2.36 -6.97)"/><path d="M188,71.79a2,2,0,0,1-.72-0.34,2.68,2.68,0,0,0-1.34-.49c-0.13,0-.63-0.12-0.63-1.35a3.05,3.05,0,0,1,.77-1.75,4.33,4.33,0,0,0,1-2.67,2.89,2.89,0,0,0-.1-0.8V63.64a0.51,0.51,0,0,1,.54-0.54,5.36,5.36,0,0,0,2.14-1.2l3.08-1.19a11.49,11.49,0,0,0,1.49-.64,22.7,22.7,0,0,0,2-1.16,6.48,6.48,0,0,1,3.34-1.26c0.15,0,.22,0,0.22.32a0.94,0.94,0,0,1-.53.86,5.33,5.33,0,0,0-1,.64l-0.07.07,0,0.09A2.46,2.46,0,0,1,195.85,61h0c-0.32,0-.94.16-2.51,1.33s-1.8,1.56-1.92,1.86a1.94,1.94,0,0,1-.86.86,2.28,2.28,0,0,0-1.13,1.8c0,0.72.44,1.63,2.51,1.84a3.77,3.77,0,0,1,.86.14,4.82,4.82,0,0,0,1.15.17,1.5,1.5,0,0,0,.55-0.14,0.78,0.78,0,0,1,.28-0.07h0.54a2.45,2.45,0,0,0,.69.1,3.23,3.23,0,0,0,1.22-.3,2.79,2.79,0,0,1,.64-0.22,10,10,0,0,0,4.58-1.62c3-1.65,3.7-2,3.82-2a4.68,4.68,0,0,0,.63-0.37,6.35,6.35,0,0,1,.67-0.38l0.07,0,0.06-.06a4.93,4.93,0,0,0,1.59-3.55,3.11,3.11,0,0,0-2.28-3,1.23,1.23,0,0,1-.54-0.23c-0.17-.35-0.54-0.71-2.16-1.21-0.85-.32-1.3-0.72-1.3-1.17,0-1.75.78-2,1.46-2a4.68,4.68,0,0,1,1.38.33,5.55,5.55,0,0,0,1.71.39c0.17,0,.87.17,2.94,2.32,1.76,1.92,2.13,2.89,2.13,3.36a1.28,1.28,0,0,1-.3.82c-2,3.21-3.07,4.29-3.59,4.63a20.24,20.24,0,0,1-3.18,2.4,1.32,1.32,0,0,0-.76.39,8.88,8.88,0,0,1-1.75.87,12.61,12.61,0,0,1-2.3.8,5.31,5.31,0,0,0-2.19.78,4.62,4.62,0,0,1-1.47.66,12.72,12.72,0,0,0-2.1.64,6.42,6.42,0,0,1-2,.48h-0.77a5.56,5.56,0,0,0-1.19-.1,3.8,3.8,0,0,0-.78.11,3.1,3.1,0,0,1-.56.09h-0.31a1.71,1.71,0,0,0-.62-0.1,1.2,1.2,0,0,0-.54.16A0.43,0.43,0,0,1,188,71.79Z" transform="translate(-2.36 -6.97)"/><path d="M218.56,72a1.05,1.05,0,0,1-.56-0.18,2,2,0,0,0-1.09-.33,5,5,0,0,0-1.38.28,4.33,4.33,0,0,1-1.19.23c-0.13,0-.68-0.1-2.37-1.44a6.7,6.7,0,0,0-3.81-1.65,2.62,2.62,0,0,1-.8-0.22,3.52,3.52,0,0,0-1.16-.29,1.67,1.67,0,0,0-1.18.56,7.49,7.49,0,0,1-3.21,1c-1.15.2-1.82,0.31-2.2,0.42h0a0.52,0.52,0,0,1-.63-0.63c0-.68,1.13-1.06,2.07-1.26a30.31,30.31,0,0,0,3.64-.92v0c0.36-.2,1-0.72,2.34-2.84a2.66,2.66,0,0,1,2.36-1.42,2,2,0,0,1,1,.73,3,3,0,0,0,2.16,1,12.92,12.92,0,0,0,4.3-1.06c2-.8,2.67-1,2.85-1.09a0.74,0.74,0,0,0,.36.1,6.09,6.09,0,0,0,2.18-.88,12.91,12.91,0,0,1,1.37-.77c0.35-.16.63-0.28,0.83-0.34a4.59,4.59,0,0,0,1.26-.5q0.68-.37,1.36-0.79c0.44-.27.88-0.52,1.31-0.76a4.6,4.6,0,0,1,1-.42,16.85,16.85,0,0,0,2.7-1c1.14-.48,2.55-1.16,4.31-2.08,2.86-1.47,4.9-2.21,6.05-2.21,2.57,0,2.9,1.27,2.9,2.38a2.86,2.86,0,0,1-.48,1.67,4.81,4.81,0,0,0-.74,1.4,11.78,11.78,0,0,1-1.78,3.13,9.75,9.75,0,0,1-2.41,2.53L237.06,66c-1.17.65-2.53,1.47-4,2.43a2.6,2.6,0,0,1-.74.3l-1.17.31a12,12,0,0,0-1.24.38,2.24,2.24,0,0,0-.85.43s-0.33.27-2.14,0.37a26.56,26.56,0,0,0-2.79.53A14.57,14.57,0,0,1,218.56,72Zm0.72-3a3.25,3.25,0,0,0,.93.11,7.1,7.1,0,0,0,2.29-.55,6.43,6.43,0,0,1,2-.48,0.7,0.7,0,0,1,.3.05l0.1,0.05h0.63a6,6,0,0,0,2.25-.5,5.28,5.28,0,0,1,1.25-.43,1.13,1.13,0,0,1,.37.11,2,2,0,0,0,.76.19c0.37,0,1.21-.24,4.66-2a3.85,3.85,0,0,0,2-1.73,1.65,1.65,0,0,1,.56-0.8,5.4,5.4,0,0,0,1.94-4.2c0-2.14-1.28-2.46-2-2.46h-1.39a5,5,0,0,0-2.3,1,8.9,8.9,0,0,1-1.78,1.05l-0.07,0-0.06,0c-0.68.41-1.95,1.06-3.77,1.94L224.59,62c-0.48.07-1,.19-1.72,0.36s-1.55.44-2.52,0.79l-0.07,0-0.06,0a16,16,0,0,1-4.28,1.88c-0.84.3-1.79,0.74-1.79,1.51s0.3,1.93,2.33,2Z" transform="translate(-2.36 -6.97)"/><path d="M285.92,77.45a4.76,4.76,0,0,1-4-2c-0.46-.47-0.91-0.88-1.36-1.26a6.55,6.55,0,0,1-1.1-1.2,6.92,6.92,0,0,1-.82-1.54,5.82,5.82,0,0,1-.33-2.08A12.08,12.08,0,0,1,281,61.18l1.13-1.28,0.49-.55a2.83,2.83,0,0,1,2-.57,3.19,3.19,0,0,1,2.88,1.52,13.42,13.42,0,0,1,.67,1.64c0.21,0.64.46,1.27,0.74,1.9a3.74,3.74,0,0,1,.37,1,2.63,2.63,0,0,1-.53,1.37,3.56,3.56,0,0,0-.7,1.92,10.83,10.83,0,0,1-1.53,2,6.79,6.79,0,0,0-1.66,3.93,1.22,1.22,0,0,0,1.32,1.32,11.65,11.65,0,0,0,2.48-.37,10.86,10.86,0,0,1,2.26-.35,3.55,3.55,0,0,0,1.83-.81,4.1,4.1,0,0,1,1.93-.53A7.65,7.65,0,0,0,298,72.32a14.17,14.17,0,0,1,2.94-1.39A9.42,9.42,0,0,0,304.16,69a12,12,0,0,1,2.46-1.73c1.34-.49,4.26-2.68,8.88-6.67,7.18-6.23,7.18-6.86,7.18-7.28s-0.12-.64-1.67-2.39a4.94,4.94,0,0,1-1.32-3.07,5.23,5.23,0,0,1,.94-3.11l2-2.78c0.18-.34.32-0.64,0.46-1a9.91,9.91,0,0,0,.44-1.25,6.49,6.49,0,0,1,.58-0.91l0.77-1,0.93-1.19a12.59,12.59,0,0,0,1.18-2,15.2,15.2,0,0,1,1.43-1.91c0.71-.85,1.66-1.86,2.8-3,2.3-2.31,4-3.85,4.9-4.6q1.06-.95,2.62-2.16c1.05-.82,2.31-1.75,3.74-2.77l3-1.4c1-.48,2.09-1,3.11-1.56,3-1.48,4.83-2.56,5.49-3.3a13,13,0,0,1,1.52-1.21,18.22,18.22,0,0,1,2.76-1.55c3-1.59,4.31-2,4.87-2a10,10,0,0,0,1.8-.6,4.49,4.49,0,0,1,1.56-.43,1.32,1.32,0,0,1,.88.72,2.37,2.37,0,0,1,.57,1.25c0,0.37-.75,2-7.69,9.44l-9.78,10.19c-0.56.56-1.13,1.17-1.71,1.82a22,22,0,0,1-2.16,2.06l-4.29,3.77,0,0.07a16.49,16.49,0,0,1-2.72,3.12c-1.82.71-4.25,3.08-7.44,7.24a42.86,42.86,0,0,1-6.71,6.81l-3,3.42a34.79,34.79,0,0,0-2.88,2.32q-1.45,1.29-3,2.74a12,12,0,0,1-2.18,1.48l0,0,0,0A34.38,34.38,0,0,1,311.38,67c-1.21.88-2.73,1.84-4.49,2.86a36.18,36.18,0,0,1-4,2.08c-1.17.5-2.18,0.9-3,1.17l-3.23,1.61-0.06.06c-0.13.13-.69,0.5-3.08,1.21a16.32,16.32,0,0,1-3.67.8,9.49,9.49,0,0,0-2,.32A8.82,8.82,0,0,1,285.92,77.45Zm40.52-37.08c-0.09.13-.49,0.62-2,2.34a6.4,6.4,0,0,0-1.67,4.34,1.39,1.39,0,0,0,1.43,1.63c1.24,0,2.59-.81,4.12-2.46a14,14,0,0,0,3.14-2.52l0.09-.09,0-.12c0.75-2.37,1.8-3.56,3.13-3.56a2.44,2.44,0,0,1,.5.09,3.47,3.47,0,0,0,.84.12c1.27,0,2.74-1,4.5-3.17l2.52-3c0.71-.84,1-1.12,1.05-1.21,4.44-3.39,6.91-5.56,7.5-6.59a4.6,4.6,0,0,1,1.43-1.82l1.92-1.6L356.79,20l2.58-3.44,0-.21a1.7,1.7,0,0,0-1.73-1.65c-0.51,0-1.5.21-4.19,2a26.55,26.55,0,0,1-3.94,2.5l-0.09,0-0.1.06q-0.71.51-1.79,1.23L345,22.22a23.62,23.62,0,0,0-7.5,4.7,46.28,46.28,0,0,1-4.8,4.18,9.42,9.42,0,0,0-2.59,3,8.5,8.5,0,0,1-1.95,2.65,3.93,3.93,0,0,0-1.25,1.85Q326.65,39.47,326.44,40.37Z" transform="translate(-2.36 -6.97)"/><path d="M335.67,72a1.06,1.06,0,0,1-.56-0.18,2,2,0,0,0-1.09-.33,5,5,0,0,0-1.39.28,4.32,4.32,0,0,1-1.19.23c-0.13,0-.68-0.1-2.37-1.44a6.71,6.71,0,0,0-3.81-1.65,2.61,2.61,0,0,1-.8-0.22,3.51,3.51,0,0,0-1.16-.29,1.67,1.67,0,0,0-1.18.56,7.5,7.5,0,0,1-3.21,1c-1.15.2-1.82,0.31-2.2,0.42h0a0.52,0.52,0,0,1-.63-0.63c0-.68,1.13-1.06,2.08-1.26a30.31,30.31,0,0,0,3.64-.92v0c0.35-.2,1-0.72,2.34-2.84a2.66,2.66,0,0,1,2.36-1.42,2,2,0,0,1,1,.73,3,3,0,0,0,2.16,1A12.92,12.92,0,0,0,334,64c2-.8,2.67-1,2.85-1.09a0.73,0.73,0,0,0,.36.1,6.08,6.08,0,0,0,2.18-.88,13,13,0,0,1,1.37-.76c0.35-.16.63-0.28,0.83-0.34a4.59,4.59,0,0,0,1.26-.5q0.68-.37,1.36-0.79t1.31-.76a4.5,4.5,0,0,1,1-.42,16.82,16.82,0,0,0,2.7-1c1.13-.48,2.58-1.18,4.31-2.08,2.87-1.47,4.9-2.21,6.05-2.21,2.6,0,2.9,1.36,2.9,2.38a2.86,2.86,0,0,1-.48,1.67,4.79,4.79,0,0,0-.74,1.4,11.8,11.8,0,0,1-1.78,3.13,9.75,9.75,0,0,1-2.41,2.53L354.17,66c-1.17.65-2.53,1.47-4,2.43a2.6,2.6,0,0,1-.74.3l-1.17.31a12,12,0,0,0-1.24.38,2.21,2.21,0,0,0-.86.43s-0.33.27-2.14,0.36a26.63,26.63,0,0,0-2.79.53A14.57,14.57,0,0,1,335.67,72Zm0.72-3a3.26,3.26,0,0,0,.93.11,7.09,7.09,0,0,0,2.29-.55,6.43,6.43,0,0,1,2-.48,0.69,0.69,0,0,1,.3.05l0.1,0.05h0.63a6,6,0,0,0,2.25-.5,5.28,5.28,0,0,1,1.25-.43,1.14,1.14,0,0,1,.37.11,2,2,0,0,0,.76.19c0.37,0,1.21-.24,4.66-2a3.85,3.85,0,0,0,2-1.73,1.66,1.66,0,0,1,.56-0.8,5.4,5.4,0,0,0,1.94-4.2c0-2.14-1.28-2.46-2-2.46H353a5,5,0,0,0-2.3,1,8.9,8.9,0,0,1-1.78,1.05l-0.07,0-0.06,0c-0.68.41-2,1.06-3.77,1.94L341.7,62c-0.48.07-1,.19-1.72,0.36s-1.56.44-2.52,0.79l-0.07,0-0.06,0A15.91,15.91,0,0,1,333,65.12c-0.84.3-1.79,0.74-1.79,1.51s0.3,1.93,2.33,2Z" transform="translate(-2.36 -6.97)"/><path d="M378.31,71.79c-5.69,0-8.46-1.49-8.46-4.55a2.24,2.24,0,0,1,1.3-1.94c1-.59,2.24-2,3.67-4.39,1.62-2.67,2.59-3.43,3.12-3.59,1.94-.8,2.83-1.61,2.83-2.54a0.86,0.86,0,0,0-.91-0.91c-1,0-2.37.75-4.43,2.37a20.32,20.32,0,0,0-4,3.5,7,7,0,0,1-3.17,2,16.32,16.32,0,0,0-3.63,1.82,21.8,21.8,0,0,1-2.27,1.51c-0.9.53-2,1.12-3.31,1.73-2.6,1.27-4.57,1.91-5.86,1.91-0.74,0-.74-0.3-0.74-0.54,0-.07.08-0.68,2.83-1.49l2.87-1.49a9,9,0,0,0,2.54-1.42,12.91,12.91,0,0,0,3.89-1.92l0,0,0,0c0.05-.05.3-0.27,1.49-1.14C367,60,368.3,59.09,370,57.9c4.65-3.26,4.65-3.68,4.65-4,0-.61-0.39-1.33-2.25-1.33a4.07,4.07,0,0,0-1.71.46l-1.9.87a21.86,21.86,0,0,1-2.06.81,5.89,5.89,0,0,1-1.85.33h-0.1c-1.37,0-1.66-.26-1.66-0.32s0.12-.85,4.22-2.52a17.81,17.81,0,0,1,5.48-1.61h1.85c5.59,0,10-1.36,13.1-4a10.63,10.63,0,0,1,4.72-2.57c1.64-.28,5-2,10.35-5.21,5.86-3.6,8.25-4.36,9.22-4.36,0.53,0,.53.17,0.53,0.32s-0.12.71-2.43,2a27.76,27.76,0,0,0-2.54,1.4,7.77,7.77,0,0,0-1.16.84,13.27,13.27,0,0,1-2,1.37c-1.12.7-2.67,1.63-4.62,2.77-4.81,2.69-5.5,4.09-5.6,4.9l0,0.24,0.57,0.57,0.11,0a20.18,20.18,0,0,0,5.31.44h0.31c0.71,0,1.75-.07,3.09-0.21s2.32-.2,3-0.2a4.38,4.38,0,0,1,1.28.28,5.34,5.34,0,0,0,1.6.33,3.84,3.84,0,0,0,.78-0.11,3.18,3.18,0,0,1,.56-0.09,11.15,11.15,0,0,1,1.28.1q0.81,0.1,1.73.25c0.63,0.1,1.22.19,1.77,0.26a12.17,12.17,0,0,0,1.5.11,6.66,6.66,0,0,0,2.24-.55,5.69,5.69,0,0,1,1.88-.48,6.07,6.07,0,0,1,1.28.19,6.55,6.55,0,0,0,1.4.22,13.42,13.42,0,0,0,2.47-.32,12.77,12.77,0,0,1,2.27-.3c0.46,0,1.16,0,2.13.1s1.71,0.1,2.2.1,1.26,0,2.3-.1,1.8-.1,2.34-0.1h0.62c1.31,0,2,.28,2,0.84,0,0.25,0,.84-1.46.84a25.41,25.41,0,0,1-2.67-.2,26.37,26.37,0,0,0-2.68-.21,2.7,2.7,0,0,0-.63.07l-0.66.15a7.9,7.9,0,0,1-1.16.15c-0.49,0-1.2,0-2.18,0h-3.4a13.31,13.31,0,0,0-1.77.16,12.42,12.42,0,0,1-1.63.15c-0.6,0-1.56-.05-2.84-0.15s-2.29-.16-2.92-0.16a17.42,17.42,0,0,0-2.34.21,16.12,16.12,0,0,1-2.09.2,13.56,13.56,0,0,1-1.68-.15,14.13,14.13,0,0,0-1.71-.16c-0.7,0-1.75.07-3.19,0.21s-2.42.2-3.09,0.2c-0.33,0-.87,0-1.6-0.1s-1.34-.1-1.69-0.1a16.13,16.13,0,0,0-2.45.26,15,15,0,0,1-2.19.25,12.27,12.27,0,0,1-1.53-.15A12.79,12.79,0,0,0,391,51c-1.46,0-3.05.9-4.89,2.74-1.28,1.15-2.28,2.08-2.94,2.75a9.51,9.51,0,0,1-1.06,1,24.86,24.86,0,0,0-3.12,2.9l-2.18,2.5A6.21,6.21,0,0,0,375.13,67c0,1.84,1.69,2.78,5,2.78,0.49,0,1.1,0,1.83-.05s1.57-.09,2.54-0.16h0a6.26,6.26,0,0,0,2.15-.55,5.3,5.3,0,0,1,1.82-.48,15.34,15.34,0,0,0,8-1.82,7.33,7.33,0,0,1,4.07-1.47c0.1,0,.32,0,0.32.74,0,0.06,0,.1-0.2.12a3.13,3.13,0,0,0-1.15.39q-0.49.2-1.2,0.53t-1.73.89a5.31,5.31,0,0,1-1.84.87c-0.53.13-1,.22-1.35,0.29a3.5,3.5,0,0,0-.91.24,20.19,20.19,0,0,1-7.92,1.52,8,8,0,0,0-1.43.16l-1.74.31-1.76.31A7.53,7.53,0,0,1,378.31,71.79Z" transform="translate(-2.36 -6.97)"/><path d="M401.33,72.41a4.17,4.17,0,0,1-.78-0.09H399c-0.89,0-2.08-.29-2.08-2.8a1,1,0,0,1,.25-0.57c0.23-.3.48-0.6,0.75-0.9l0.77-.88a1.63,1.63,0,0,0,.48-1.05c0-.73-0.29-1.94-2.25-1.94-0.32,0-.87.13-2.52,1.1a10.83,10.83,0,0,1-2.21,1.07,6.42,6.42,0,0,0-1.4.5,10.57,10.57,0,0,1-2,.63,10.85,10.85,0,0,0-2.2.8,5.6,5.6,0,0,1-2.11.63,3.74,3.74,0,0,1-.8-0.07A17.09,17.09,0,0,1,387.16,67l2.46-1q1.24-.51,2.38-1a30.84,30.84,0,0,1,5.42-2.29,9.19,9.19,0,0,0,3.33-1l0.08,0,0.06-.06A11.83,11.83,0,0,1,403.76,60c1-.47,1.84-0.83,2.44-1.07a3.74,3.74,0,0,0,1.31-.68c2.72-1.91,4.06-2.33,4.69-2.33a0.88,0.88,0,0,1,1,1A3.81,3.81,0,0,1,411,60.52c-3,1.69-3.39,2.18-3.52,2.5a2.48,2.48,0,0,1-1.06,1.2l-0.05,0,0,0.05a20,20,0,0,1-1.5,1.53,3.32,3.32,0,0,0-1.19,2.44,1.4,1.4,0,0,0,1.53,1.52,3.79,3.79,0,0,0,2.25-.76,4.64,4.64,0,0,1,.91-0.58h0.33a1.38,1.38,0,0,0,.52.11,10.52,10.52,0,0,0,4.88-1.71,14.36,14.36,0,0,0,4.37-3.22,10.52,10.52,0,0,1,4-2.84,7.57,7.57,0,0,0,3.6-3.06c0.32-.48.48-0.7,0.56-0.8h1.21q0.42-.1,1.22-0.37a3.56,3.56,0,0,1,1-.23,10.13,10.13,0,0,1,3.6,1.19,14.19,14.19,0,0,0,3.87,1.28,9.29,9.29,0,0,1,1.4.15l2.16,0.36q1.25,0.21,2.19.31a15.78,15.78,0,0,0,1.7.11h1.65a2.74,2.74,0,0,0,1.08-.3,1.86,1.86,0,0,1,.67-0.21c0.18,0,.22,0,0.22.25,0,0.52-.73,1.74-7.53,1.74h-0.21a5,5,0,0,1-1.58-.19c-0.2-.08-0.86-0.34-8.32-1.66a1.46,1.46,0,0,1-.55-0.17,2.46,2.46,0,0,0-1-.25,4.07,4.07,0,0,0-1.3.29,8,8,0,0,0-1.48.71c-0.46.28-.91,0.59-1.33,0.9a2.34,2.34,0,0,0-.9,1c-0.06.12-.48,0.65-3.41,2.63A30.67,30.67,0,0,1,417,67a4,4,0,0,0-1.12.75,1.57,1.57,0,0,1-.86.45c-1,0-3,.69-6.28,2.1-3,1.41-5.31,2.12-6.81,2.12h-0.57Z" transform="translate(-2.36 -6.97)"/><path d="M460.81,71.17a6,6,0,0,1-.85-0.1,6.51,6.51,0,0,0-1-.11,1.73,1.73,0,0,0-.62.1h-0.41a4.23,4.23,0,0,1-3.9-2.13L454,68.81l0,0a9.36,9.36,0,0,1-.45-1.57c-0.18-1.07-.62-1.62-1.31-1.62a1.77,1.77,0,0,1-.56-0.08l-0.08,0h-0.8a3.63,3.63,0,0,0-2.36,1.33,4.89,4.89,0,0,1-2.67,1.36h0a14.79,14.79,0,0,0-3.3,1.23,4.52,4.52,0,0,0-1.09.28,3.12,3.12,0,0,1-.86.23,0.43,0.43,0,0,1-.19-0.05,1.21,1.21,0,0,0-.53-0.15,2.6,2.6,0,0,0-.91.24,1.88,1.88,0,0,1-.64.17H438a0.43,0.43,0,0,1-.19-0.05l-0.1-.05h-0.53a4.75,4.75,0,0,0-1.27.23,3.84,3.84,0,0,1-.89.19,13.82,13.82,0,0,1-2.53-.25,2.67,2.67,0,0,1-1.69-.89l-0.06-.07-0.08,0a2.37,2.37,0,0,1-.6-1.93c0-.35.4-1.62,4.09-6a5,5,0,0,1,1-.89l1.55-1.13q0.78-.57,1.51-1.14c0.45-.35.78-0.63,1-0.84l3.62-1.5,1.69-1,0.06-.08a3.17,3.17,0,0,1,2.69-1.14,1.12,1.12,0,0,1,.37.11,1.72,1.72,0,0,0,.66.19,2.42,2.42,0,0,0,1-.31,1.53,1.53,0,0,1,.6-0.2,3.42,3.42,0,0,1,2,.62,1.64,1.64,0,0,1,.81,1.4c0,0.16,0,.66-1.17,1.09a7.44,7.44,0,0,1-2.56.52H449a5.81,5.81,0,0,0-2.49-.41,3,3,0,0,0-1.39.43,17.42,17.42,0,0,0-3.93,1l-0.13,0-0.09.11A11,11,0,0,1,439,60l-0.14.11,0,0.17a5.22,5.22,0,0,1-1.39,1.11,3.74,3.74,0,0,0-.91.57l-1.09.88a6.44,6.44,0,0,0-1,1,1.82,1.82,0,0,0-.47,1.08,1.86,1.86,0,0,0,.61,1.33,7.46,7.46,0,0,0,1.16.94,6.56,6.56,0,0,0,1.45.72,4.21,4.21,0,0,0,1.4.29,8.33,8.33,0,0,0,2.75-.65,7.55,7.55,0,0,1,2.4-.59,4.15,4.15,0,0,0,2.4-.87,4.2,4.2,0,0,1,1.13-.68h0.14a1.3,1.3,0,0,0,.56.1c0.33,0,.9-0.15,2.64-1.3A9.3,9.3,0,0,1,452.81,63,2.51,2.51,0,0,0,454,61.94a1.76,1.76,0,0,1,.62-0.68l0.15-.07,0.07-.15A2.85,2.85,0,0,1,456,60l2.39-.87a5,5,0,0,1,2.3-.68c0.63,0,.63.18,0.63,0.29a2.06,2.06,0,0,1-.26.82,1.54,1.54,0,0,1-.2.33l-0.08,0V59.74l-0.51,0c-0.36,0-.47.26-0.71,0.77A11.56,11.56,0,0,0,459,62q-0.26.87-.56,1.84a12.53,12.53,0,0,0-.43,1.66c0,1.6,1.36,2.52,4.06,2.84a6.08,6.08,0,0,0,.78.25,4,4,0,0,0,1,.17,2.64,2.64,0,0,0,.91-0.24,1.94,1.94,0,0,1,.63-0.17l0.18,0.07a1.5,1.5,0,0,0,.54.14h0.14l0.12-.07a4.51,4.51,0,0,1,1.25-.46c0.59-.14,1.47-0.41,2.68-0.84a5.24,5.24,0,0,1,1.58-.69,4.67,4.67,0,0,0,1.72-.8,2.46,2.46,0,0,1,1.17-.53,1.57,1.57,0,0,1,1,.16,1.57,1.57,0,0,1-.6.7,2.79,2.79,0,0,1-1.07.62l-0.19,0-0.12.16a3.41,3.41,0,0,1-1.47,1A6.61,6.61,0,0,0,469.4,69a5,5,0,0,1-1.49.7,6.89,6.89,0,0,0-1.62.5,4.42,4.42,0,0,1-2.08.89,1.49,1.49,0,0,1-.46-0.08l-0.08,0h-0.6a8.88,8.88,0,0,0-1.2.11A8.35,8.35,0,0,1,460.81,71.17Z" transform="translate(-2.36 -6.97)"/><path d="M500.77,71.38a3.13,3.13,0,0,1-2.08-1,2.57,2.57,0,0,1-1-1.85,7.21,7.21,0,0,1,.44-2,8.21,8.21,0,0,0,.49-2.32A2,2,0,0,0,496.35,62,28.45,28.45,0,0,0,492,63.16a9.51,9.51,0,0,0-4,2.29c-0.79.92-2.67,2-5.6,3.19a21.85,21.85,0,0,1-6.4,1.71c-1.74,0-2-.84-2-1.66a5.3,5.3,0,0,1,.09-1,48.56,48.56,0,0,1,1-5.6,2.8,2.8,0,0,0,.33-1.2,1.32,1.32,0,0,0-1.32-1.53c-0.41,0-1.16.29-3.81,2.37q-1.44,1.13-2.35,1.79a5,5,0,0,0-1.26,1.11,6.38,6.38,0,0,1-.73.53,12.5,12.5,0,0,1-1.14.64,9.08,9.08,0,0,1-1.17.49,2.73,2.73,0,0,1-.77.18c-0.49,0-.53-0.16-0.53-0.43a1,1,0,0,1,.09-0.36,8.75,8.75,0,0,0,.83-0.52,8.24,8.24,0,0,0,1.1-.93,3.39,3.39,0,0,1,1.44-1.13,4.67,4.67,0,0,0,1.45-.83,23.76,23.76,0,0,1,2-1.76c0.81-.64,1.8-1.34,2.95-2.08a3.85,3.85,0,0,0,1.91-1.56,2.11,2.11,0,0,1,1.08-1c0.61-.2,1.15-0.39,1.6-0.57l1.19-.47q0.46-.18.84-0.37a2,2,0,0,1,1.08,1.41,7.62,7.62,0,0,1,.38,2.41,3.72,3.72,0,0,1-.28,1.27l-0.62,1.65c-0.21.55-.41,1.07-0.61,1.59a4.3,4.3,0,0,0-.34,1.58c0,1.94,1.29,2.15,1.84,2.15a5.63,5.63,0,0,0,2.61-.78q1.35-.73,2.39-1.35l1.86-1.14a24.79,24.79,0,0,1,6.95-3.33,21.72,21.72,0,0,0,3.48-.95,9.87,9.87,0,0,0,2.17-1.09,6.87,6.87,0,0,1,4.45-2c0.6,0,1.22.2,1.25,1.64-0.09.22-.21,0.56-0.38,1.1s-0.27,1.11-.37,1.6a1.52,1.52,0,0,1-.92.89A2.13,2.13,0,0,0,502.34,63a2.74,2.74,0,0,1-.19,1,4.38,4.38,0,0,0-1.26,3.21c0,0.93.52,2,3,2h0.57a5,5,0,0,0,1-.11h1.34a3.34,3.34,0,0,0,1.54-.58,2.54,2.54,0,0,1,1-.45,9.79,9.79,0,0,0,1.67-.49,4.2,4.2,0,0,1,1.32-.33c0.84,0,.84.32,0.84,0.53h0a7.89,7.89,0,0,1-1.7.66L510,69q-0.88.36-2,.88l-0.05,0,0,0a5.51,5.51,0,0,1-3.4.93,10.31,10.31,0,0,0-2,.27A9.69,9.69,0,0,1,500.77,71.38Z" transform="translate(-2.36 -6.97)"/><g id="Ã"><path d="M456,46.63c0.27,0.11,5.74-3,10.54-1.52,5.72,2-13.8,3-14.08,2.36A11.3,11.3,0,0,0,456,46.63Z" transform="translate(-2.36 -6.97)"/></g></svg>