<svg id="Layer_1" data-name="Layer 1" xmlns="http://www.w3.org/2000/svg" viewBox="0 0 1476.36 455.68"><title>lantosistvan-logo-20160426-hollyhock</title><path d="M469.8,976.3c0.6-1.2,1.2-4.8,4.2-5.4,1.8-1.2,1.2-1.8,2.4-2.4,1.2-3.6,3.6-6,6.6-8.4a22.12,22.12,0,0,1,8.4-4.8c1.8-1.2,3-4.2,6-4.8-0.6-.6,0-0.6,0-0.6,3.6-1.2,3.6-2.4,4.8-3.6l10.2-8.4c0-1.2,1.8-1.2,3-1.8,1.2,0,2.4-.6,3.6-0.6,0.6-.6,2.4.6,3,0.6,0,1.2.6,2.4,1.2,4.8-0.6.6-.6,1.8-1.2,3l-0.6,1.2a4.19,4.19,0,0,1-1.2,2.4c-1.2.6,0,1.2,0,1.8a5.32,5.32,0,0,1-2.4,3c-1.2,1.8-1.2,3.6-3,5.4,1.2,1.2,0,1.8-1.8,3a2.13,2.13,0,0,0-1.2,1.8c-0.6,2.4-3,3.6-4.2,5.4,0,1.2-1.8,1.2-.6,2.4v0.6c-1.8.6-1.2,2.4-3,3-1.8,0-2.4.6-4.2,2.4l-3.6,2.4a0.59,0.59,0,0,0-.6.6,5.48,5.48,0,0,1-1.8,3,6.81,6.81,0,0,0-3.6,3.6,3.27,3.27,0,0,1-3,1.8c-3.6,1.2-4.8,2.4-5.4,4.8-0.6,1.2-1.8,1.2-3,1.2-0.6,0-2.4,1.2-1.8,1.8-1.2.6-1.2,1.2-.6,1.8-2.4,1.8-3,2.4-4.8,3-2.4,0-1.8.6-2.4,0.6a3.6,3.6,0,0,1-.6,2.4c0.6,1.2.6,2.4-.6,3-2.4,1.2-2.4,1.2-1.8,3,0,1.2,0,1.2-.6,1.8v1.2c-1.2,3-1.8,4.2-3.6,5.4-0.6,1.2.6,1.8,0.6,3,0,0,0,.6-1.2.6-0.6,1.8-.6,1.8-3,3l1.2,0.6c0.6,2.4-1.2,5.4,0,7.8l0.6,0.6c-2.4.6-2.4,1.8-2.4,3,0.6,0.6,0,1.8,0,1.8-0.6.6-.6,1.2-1.8,1.8-0.6.6-.6,3-2.4,5.4v1.8a5.2,5.2,0,0,1-2.4,4.2c-1.2,0-1.2.6-.6,0.6,0,1.2,0,1.8-.6,2.4-0.6,0,.6,1.2.6,1.8,0,1.2.6,2.4-.6,4.2-1.8,0-1.2,1.2-1.2,3,1.2-1.2,1.2,0,.6.6-1.8,1.2-1.2,3-1.2,4.8,1.2,0.6-1.2,2.4-.6,3,0,1.8-1.2,3-1.8,6h-1.2c0,2.4,0,3.6-.6,4.8,0,3-2.4,4.2-1.8,6.6,2.4-.6.6,1.8,0.6,2.4a2.1,2.1,0,0,0-.6,1.2c-0.6,2.4.6,4.2-.6,6-1.8,1.2-1.2,1.8-1.8,4.2v2.4c0,0.6,2.4.6,2.4,1.2-1.2,0-1.8,1.2-2.4,1.8,0.6,1.2,0,1.8,0,3,0.6,3.6-1.8,4.8-.6,7.2-1.2,1.8-1.2,3-.6,4.2-0.6,1.8,0,2.4-1.8,3,0,1.8-5.4,21.6-4.2,24a1.68,1.68,0,0,0-1.2,1.8c-1.2,0-.6.6-0.6,0.6a5.4,5.4,0,0,0-.6,3,10.23,10.23,0,0,0,0,6c-1.2,0-1.2.6-1.2,0.6,0,1.2,0,3.6-.6,4.8,0,1.2-.6,2.4-0.6,4.8a21.2,21.2,0,0,0-.6,3.6v0.6c-1.8,1.8-1.2,3.6-2.4,5.4,0,0.6,0,.6.6,0.6v3c-1.8.6-1.2,0.6-.6,1.8a4.55,4.55,0,0,1-1.2,2.4c-0.6.6,0,1.2,1.2,2.4a6.58,6.58,0,0,1-2.4,1.2c0.6,1.2-.6,3.6-0.6,5.4a1.2,1.2,0,0,1,.6,1.2,16.39,16.39,0,0,1-2.4,3v4.8c-1.2,1.2-8.4,23.4-8.4,24-0.6.6,0.6,1.2,0.6,1.8a5.41,5.41,0,0,1-.6,3c-0.6,1.8-1.8,3.6-1.8,6-1.2.6-1.2,1.2-2.4,2.4,0.6,1.2-.6,1.8-1.8,12,0.6,1.2,1.2,2.4-.6,3.6-1.2,1.2-1.8,1.8-1.8,3-0.6,0-2.4,1.2-1.8,1.8-0.6,1.2-1.2,1.8-.6,1.8,0.6,0.6-1.8,3,.6,3.6-2.4,1.8-3,4.2-3.6,6.6,0.6,1.2,0,3-2.4,4.2a8.8,8.8,0,0,0-1.2,2.4c-0.6,1.8,0,2.4.6,3.6-1.8.6-1.8,1.2-2.4,1.2-2.4.6-2.4,1.2-1.2,2.4-1.8,3.6-1.8,4.8-4.8,6.6a0.83,0.83,0,0,0,0,1.2c0,1.2-1.8,2.4-1.8,4.8a2.22,2.22,0,0,1-1.2,1.8c-0.6,1.8-2.4,2.4-1.2,3,0.6,0.6,1.2.6,4.2,0,0.6-1.8,6-2.4,7.8-3a14.48,14.48,0,0,0,4.8-1.8,37.21,37.21,0,0,0,8.4-2.4c0-.6,0-0.6,1.8-0.6,0-.6.6-0.6,1.2-1.2,1.8,0,3.6-1.2,4.8-1.8H417c4.2-.6,6.6-3,10.8-3.6,0.6,0,3-.6,2.4-1.8l2.4-.6c2.4,0,3.6-.6,7.2-1.2,4.2-2.4,9-3.6,14.4-6,1.8,0,14.4-6,15.6-7.2a30.09,30.09,0,0,1,7.2-1.2c0,0.6,1.8-.6,1.8-1.2l4.2-1.8a2.73,2.73,0,0,0,3,0c1.8,0,3.6-1.2,5.4-1.8a10.15,10.15,0,0,0,3-1.2c1.2-2.4,4.2-3,6.6-3.6l0.6,0.6c5.4-1.2,9-3,13.8-4.8,0.6-.6,2.4-0.6,3-1.2,1.8,0,2.4-.6,5.4-1.2h1.8c0-.6,3.6-0.6,4.8-2.4,2.4,0,4.8-.6,8.4-1.2,3-2.4,6-2.4,8.4-4.2,0-.6,1.2-0.6,2.4-1.2s1.2-.6,2.4,0c2.4,0,4.2-.6,6,0,1.8,0,3.6-.6,4.8-0.6,0.6,1.2-.6,1.8,0,3.6-1.8-.6-1.2,0-1.8,0-1.2,3-1.2,4.2-3,6,0,0.6-.6,0-0.6,1.2l-1.8,1.2c0,0.6-2.4,1.2-3.6,1.8-1.8,0-3-1.2-4.2-1.2,0.6-1.2,0-1.2-.6-1.8,0-1.8-2.4-1.8-4.2-1.8l-5.4.6H537c-2.4,1.8-5.4,1.8-7.8,3.6-4.2,0-7.8,2.4-10.2,1.8a1.2,1.2,0,0,1-1.2.6c-1.8,1.8-2.4,1.8-5.4,2.4-1.8,0-4.2,1.8-4.8,1.8a3.61,3.61,0,0,1-2.4.6c-1.2.6-.6,0.6-0.6,0.6-2.4.6-4.8,1.8-5.4,1.8-3.6,1.8-7.2,1.8-10.8,3-3,.6-5.4,1.8-7.8,2.4-1.2,1.2-1.2,1.2-4.2,1.2-0.6.6-2.4,0.6-3,.6,0,3-2.4,3-3.6,3.6a2.9,2.9,0,0,0-2.4,0l-10.8,4.8c-0.6,0-1.8-.6-2.4,0-2.4.6-4.2,0.6-4.8,1.8-0.6,0-1.2.6-2.4,0.6a1.86,1.86,0,0,1-1.2.6,32,32,0,0,0-6.6,2.4c-1.2-1.2-3,0-3,0-3,0-6,.6-7.2,3.6h-1.2c-3.6,0-4.8,1.2-5.4,1.8,0,0-1.2,0-.6.6-2.4.6-3,2.4-5.4,2.4H414c-2.4,1.2-4.2,1.8-6.6,1.2v0.6c-1.8,1.8-5.4,1.8-7.8,2.4-1.2,0-3.6,1.2-4.8,1.8-2.4,1.2-6.6,2.4-7.8,3.6s-1.8.6-2.4,0c-0.6.6-2.4,1.2-3,1.8-0.6,1.2-2.4,1.8-3,2.4-3.6,1.8-5.4,3.6-5.4,6.6-1.2,2.4-2.4,3.6-4.2,4.2,0,0-3,1.8-1.8,3.6l-0.6.6-4.2.6,0.6,1.8c-1.2.6-3,1.8-3,3l0.6,1.2c-2.4.6-3,2.4-3.6,4.2-1.8,1.2-5.4,3-6.6,4.2-1.2.6-1.2,0.6-1.2,1.2-1.8.6-1.2,1.8-4.2,2.4l-0.6,2.4c-0.6,1.2-2.4,1.8-4.2,2.4-0.6,0,0,.6,0,0.6,0.6,0.6-.6,1.2-0.6,1.2a33.51,33.51,0,0,1-4.8,3v-0.6c-2.4,1.2-2.4,2.4-2.4,3.6,0,0.6-1.8.6-3,1.8-1.2,1.8-2.4,1.8-3,3l-7.8,4.2-0.6.6c1.2,0.6,0,1.2-1.2,1.2l-1.8,1.2c0,0.6-1.2.6-1.8,1.8H309c-2.4.6-3.6,1.2-6,1.8-0.6,0-1.2-.6-2.4-0.6q-3.6,2.7-3.6,0c0-1.2-2.4-2.4-2.4-2.4,0-.6,0-0.6-1.2-0.6-0.6-.6-0.6,0-3.6-0.6,0-.6,0-1.2-1.2-3a4.64,4.64,0,0,1,.6-1.8c-0.6-1.8-3-2.4.6-5.4v-2.4c1.8-2.4,2.4-3.6,4.2-4.8,1.8-.6,1.8-1.2,2.4-1.2,0-1.8.6-2.4,4.2-4.8a11.94,11.94,0,0,1,7.2-4.8c1.8-1.2,3-1.2,4.8-3,1.8-.6,1.8-2.4,4.2-2.4a7.61,7.61,0,0,0,3.6-.6c0-1.8,3-4.2,6-5.4,1.2,0.6.6,0,3-.6a11.38,11.38,0,0,1,5.4-1.8,35.38,35.38,0,0,1,4.8-2.4c2.4-.6,3.6-2.4,6-3,3-2.4,6-3.6,10.8-6,1.8,0,3-1.2,4.8-1.8,1.2-1.2,1.2-1.8,3-3-1.2-1.2,1.8-2.4,2.4-3.6,1.8-1.2.6-2.4,1.8-4.2l3-6.6c0-1.8,1.8-3.6,1.2-5.4,0-1.8,1.8-2.4,1.8-4.2,0.6-1.2,3.6-3,1.8-4.2,4.2-1.8,3-3,3.6-3.6-0.6,0-.6,0-1.2-1.8,2.4-1.2,2.4-2.4,1.8-4.8l1.8-.6c0-1.8,1.2-3.6,1.2-5.4l-0.6-.6c2.4-4.2,3-6.6,4.8-9.6,1.2-1.8.6-10.2,3.6-11.4-1.2-1.2-1.2-1.2-1.2-3,1.2-1.8,3-3,3-5.4,1.2-2.4,9-27.6,10.2-30.6,0.6-3,1.8-5.4,1.8-7.2,0.6-1.8,0-2.4,0-5.4,0-1.2,0-1.8,1.8-1.8,1.2-1.2-.6-3,0.6-4.8-0.6-1.8.6-3,2.4-5.4,0,0,.6,0,0-0.6a1.83,1.83,0,0,0,0-2.4c1.8-2.4,0-3,1.2-5.4-0.6-1.8.6-3,0-4.8,0,0,1.8-1.8.6-1.8,0.6-.6,2.4-0.6.6-2.4v-1.2c1.2-1.2.6-1.8,0-3.6,2.4-1.8,1.8-5.4,2.4-7.2,2.4-.6,0-0.6,1.2-1.8,0.6-1.8,0-3.6,0-5.4,0.6-.6,6.6-20.4,6.6-21l0.6-.6c-1.2-2.4-.6-4.2,0-6.6,0.6-4.2,1.8-6,.6-9a30.92,30.92,0,0,1,1.2-6.6l2.4-5.4c-0.6-1.2-.6-2.4,0-4.8,0-1.2,1.8-1.8,1.8-2.4s0.6-2.4,1.2-2.4c-0.6-1.2.6-1.8,0.6-2.4-1.8-1.2-.6-2.4-0.6-4.2l1.2-.6c-1.2-1.8,1.8-4.8,1.2-7.8,1.8-2.4,2.4-5.4,1.8-6.6-0.6-.6.6-1.2,0.6-2.4,1.2-1.8.6-2.4,2.4-5.4,0-3,0-6,1.8-8.4,0.6-1.8.6-4.2,1.2-5.4,1.8-1.8,1.8-3.6,3-6,0-1.2,1.2-4.2,1.2-6s1.2-4.8,2.4-7.2c0.6-1.2,1.2-3.6,1.8-4.2-1.2-.6-0.6-1.8-0.6-2.4s0.6-2.4,0-3c-1.8,0-3.6.6-3.6,1.2a5.77,5.77,0,0,0-5.4,3.6,12.84,12.84,0,0,0-3.6.6s-0.6,1.8-1.2,1.8c-3,0-3,.6-3,1.8,0,0.6,0,.6-1.2.6-2.4,1.2-3.6,1.2-5.4,3a18.75,18.75,0,0,0-6,3v0.6c-3,.6-6,3-9,4.2,0.6,0,0,.6-1.2.6a2.09,2.09,0,0,0-1.2.6,14.66,14.66,0,0,0-4.2.6c-3.6,1.8-4.2,2.4-7.2,3.6l-3.6.6c0,1.2-2.4,1.2-3,1.2-1.8,0-2.4.6-2.4,1.2-1.8,0-2.4,0-3.6,3a44.31,44.31,0,0,0-11.4,1.8c-4.2.6-9.6,0-14.4,0.6v-1.8c-0.6-.6,0-0.6,0-0.6,0.6-3,3-4.2,4.8-3.6a36.94,36.94,0,0,1,7.8-.6c0,0.6,1.2,0,3,0,1.2,0,3-.6,6-1.2a21.22,21.22,0,0,1,3.6-.6c2.4-.6,3-1.2,5.4-1.8l0.6-1.2c6-.6,10.2-3.6,13.8-6.6,5.4-.6,8.4-3,12.6-4.8,3.6-1.8,6.6-4.2,10.8-5.4,2.4-2.4,5.4-3.6,8.4-5.4,1.2-.6,3-1.8,4.8-1.8a25.13,25.13,0,0,1,7.2-4.8c3-3,6-4.2,6.6-6,3-1.2,3-1.8,3.6-3.6,1.8-2.4,1.8-4.2,3-8.4,1.8-.6,1.8-1.2,1.8-2.4a5.07,5.07,0,0,0,1.2-3.6,55.27,55.27,0,0,0,3-6c1.2-2.4,1.2-3,2.4-3,0-.6,1.2-1.2,1.8-1.8v-0.6ZM325.2,1359.7c1.2,0,1.8-.6,3.6-2.4,0-.6,0-1.2.6-1.2a13.08,13.08,0,0,0,4.8-3c0-.6-0.6-1.8.6-2.4,3.6-1.8,4.2-4.8,6.6-5.4a4.48,4.48,0,0,1,1.8-1.8c1.8-.6,1.2-3,2.4-4.2,3-1.8,3.6-2.4,4.8-5.4,1.8-2.4,3.6-5.4,7.2-7.2,0-.6,0-0.6.6-0.6,1.2-1.2,1.2-1.2-.6-2.4-0.6,0-1.2,1.2-1.2,1.8-2.4.6-4.2,0.6-5.4,1.8,0.6,0.6-1.8.6-2.4,0.6-1.2,0-3,1.2-4.8,1.8-1.8,0-1.2.6-1.2,0.6-2.4,2.4-3,3-6,4.2,0,1.2-3.6,1.2-6,.6,1.2,0.6,0,.6,0,0.6,0.6,1.8-2.4,3.6-3.6,3.6h-0.6c0,0.6-1.8.6-4.8,2.4-1.2.6-2.4,2.4-4.8,2.4-1.2.6-1.2,0.6-1.2,1.2-0.6.6-1.2,0.6-3,.6v1.2a9.25,9.25,0,0,0-3.6,2.4c-1.2,0-2.4,1.2-3.6,1.8,1.2,1.8.6,1.8-2.4,2.4-0.6.6-.6,0.6-0.6,1.8,0,0.6,0,.6-2.4,1.2,0,0.6-1.2.6-1.2,1.2,0,2.4-2.4,4.2-2.4,6.6v0.6c-1.8.6,0,3,0,4.8,0,0.6,0,1.2-1.8,1.8a2.09,2.09,0,0,0-.6,1.2h5.4c0.6-1.2,1.2-.6,3,0h3c1.2-.6,4.8-0.6,6-1.8,0-1.2.6-1.2,0.6-1.2,3.6-1.8,3.6-1.8,4.2-3,4.2-1.2,5.4-4.8,7.2-6.6Zm166.2-396c-1.8,0-1.8.6-1.2,1.2-0.6,3-5.4,4.8-7.2,6-1.2,0-.6,0-1.2.6a2.1,2.1,0,0,0,.6,1.2c0,1.2-.6,3.6-2.4,4.2-2.4.6-2.4,1.2-2.4,3a7.61,7.61,0,0,1-.6,3.6c-1.2.6-1.2,1.2-1.2,1.2,0.6,1.2-.6,2.4-1.2,3l1.2,1.2c1.8-.6,1.8-2.4,5.4-3,0-1.8.6-2.4,1.8-2.4,0.6-1.2,1.8-2.4,2.4-4.2,0.6,0,2.4-.6,2.4-1.8l6-3.6a4.53,4.53,0,0,1,.6-2.4c-0.6,0,.6-1.2,1.2-1.2,1.2,0,3-1.8,3.6-3.6-0.6-.6,1.8-1.8,2.4-2.4a3.62,3.62,0,0,1,2.4-3,4.62,4.62,0,0,0-1.2-1.8c0-.6-1.8-0.6-3-0.6-0.6.6-1.2,1.8-2.4,1.2l-2.4.6c0,0.6-1.2,1.2-1.8,1.2Z" transform="translate(-287.86 -922.17)"/><path d="M679.19,1229.5l-0.6,2.4v0.6c-0.6,1.2-1.2,1.2-1.2,1.8a4.68,4.68,0,0,0-2.4,2.4c-1.2,0-1.2.6-1.8,0a0.59,0.59,0,0,0-.6.6,10.54,10.54,0,0,1-2.4,3h-0.6c-0.6.6-.6,1.2-1.2,1.2v0.6l-3,1.2-0.6.6-1.2,1.8c0,0.6-1.2,1.8-2.4,2.4-0.6.6,0,.6-0.6,1.2a1.29,1.29,0,0,1-1.2,1.2v0.6h-1.2a2.09,2.09,0,0,1-.6,1.2c0,0.6-.6,0-0.6,0-0.6.6-1.2,0.6-1.2,1.2l-1.2,1.2s-0.6.6-.6,0l-0.6.6h-0.6c-0.6,0-.6,1.2-0.6,1.2,0,1.2-.6,1.2-1.8,1.8v0.6c0,0.6-.6,0-1.2,0a1.2,1.2,0,0,0-.6,1.2,8.26,8.26,0,0,0-2.4,1.8,1.86,1.86,0,0,0-1.2.6,3,3,0,0,0-.6,1.8c0-.6-0.6,0-1.2.6,0-.6-0.6,0-0.6.6s-1.2.6-1.8,1.2c0-.6-0.6,0-0.6,0l-0.6.6c-0.6.6-.6,1.2-1.2,1.2a2.1,2.1,0,0,1-1.2.6c0,0.6-.6,0-1.2,0-1.2,0-1.8.6-2.4,1.8l-0.6.6h-3l-0.6-.6a4.68,4.68,0,0,0-3,0h-1.2c-0.6.6-1.2,0-1.8-.6h-0.6a10.14,10.14,0,0,0-3-1.2c-0.6,0-1.8-.6-1.8-2.4v-0.6c0-.6,0-0.6-0.6-0.6a4.49,4.49,0,0,1-.6-3,1.82,1.82,0,0,0,0-2.4c-1.2-.6-0.6-1.8-1.2-3,0.6-1.8-.6-2.4-1.2-3a1.86,1.86,0,0,1,.6-1.2c0-.6-0.6-1.2-0.6-1.8,0.6-.6,0-0.6,0-1.2v-3a1.86,1.86,0,0,1-.6-1.2,2.1,2.1,0,0,0,.6-1.2v-1.8a3,3,0,0,0-.6-1.8s0.6,0,0-.6c0,0,0-.6,1.2-1.2l-1.2-.6c0-.6.6-0.6,0-1.2a3.12,3.12,0,0,1,1.2-2.4,3,3,0,0,1-.6-1.8,0.59,0.59,0,0,0,.6-0.6c0-1.2.6-2.4,0.6-3.6,0.6,0,0-.6.6-1.2v-0.6c0.6,0,0-1.2,0-1.2,0-1.2,0-1.2-.6-1.2l-0.6,1.2c0,0.6-.6,1.2-0.6,2.4a0.59,0.59,0,0,1-.6.6c-1.2.6-1.2,1.2-1.2,1.2-0.6,0-.6.6-1.2,0.6-0.6,1.2-1.8,1.2-1.8,1.8a1.13,1.13,0,0,0,0,1.8,4.68,4.68,0,0,0-2.4,2.4h-0.6l-0.6,1.2a8.67,8.67,0,0,1-1.2,1.8l-0.6.6c-0.6,0-.6,0-0.6.6-0.6.6-.6,1.8-1.2,1.8,0,0.6-1.2,1.2-1.8,1.2-0.6-.6-0.6,0-1.2.6l-0.6.6c-0.6,0-1.8,1.2-.6,1.8-1.2,0-1.2.6-1.2,0.6v1.2a1.18,1.18,0,0,1-1.2,1.2c-1.2,0-1.2,0-1.2,1.2l-0.6.6-0.6.6c0,1.2-1.8,2.4-2.4,2.4h-0.6a1,1,0,0,1-1.2,1.2H588c0,1.2-1.2.6-1.8,0.6,0,0.6-.6,0-1.2,1.2-2.4-1.8-3-1.8-3.6-1.8-1.2,1.2-2.4-.6-3.6-1.8,0-1.2,0-2.4-.6-2.4a6.53,6.53,0,0,0-.6-3c0-.6-1.2-1.2-1.2-1.8l0.6-.6a6.52,6.52,0,0,1,.6-3c0-.6-1.8-0.6-0.6-3,0.6-.6,0-1.2,0-1.8,0,0-.6-0.6.6-1.2v-0.6c0-.6,1.2,0,1.2-1.2v-2.4l0.6-.6,0.6-2.4h-0.6a13.07,13.07,0,0,0,1.8-3,2.09,2.09,0,0,0,.6-1.2,1.2,1.2,0,0,1-.6-1.2c0.6,0,1.2-1.2,1.8-1.2l0.6-3.6c0.6,0,0-1.2,1.2-1.2a1.2,1.2,0,0,1,.6-1.2c0-1.2-.6-2.4,1.2-3.6v-0.6c1.2-.6,1.2-0.6,1.2-1.2,0.6-.6.6-1.2,1.2-0.6l1.8-3h0.6c1.2,0,.6,0,1.2-1.2,2.4-2.4,4.8-2.4,4.8-3a0.59,0.59,0,0,0,.6-0.6c0.6,0,.6-0.6,1.2-1.2l0.6,0.6,0.6-.6c0.6-.6,1.8-1.2,1.8-1.8,2.4-1.2,4.2,0,4.8-.6,0,0,3,1.2,3,.6,0.6-.6,1.2.6,1.2,0.6l4.8,0.6c0,0.6.6,0,.6,0s1.8,1.2,1.8.6H618l2.4,1.2,0.6,0.6v1.2l1.2,1.2c0.6,0.6.6,0.6,0,1.2h-1.8c-0.6.6-.6,0-0.6,0l-2.4-.6c0-.6,0-1.2-0.6-0.6-0.6-.6-1.2,0-1.8-1.2a0.59,0.59,0,0,0-.6-0.6c-1.8.6-1.8,0-3.6,0.6-1.2,1.2-1.8,1.8-3,1.8h-0.6c-1.2,0-1.2,0-1.8,1.2a17,17,0,0,0-5.4,3.6c-0.6.6-.6,0.6-1.8,0.6H597c0,1.2,0,1.8-1.2,1.8l-0.6.6c0.6,0.6,0,1.2,0,1.8,0,0-1.2,0-1.2.6a0.59,0.59,0,0,0-.6.6h-0.6c0,0.6-.6.6-0.6,1.2v0.6a3.12,3.12,0,0,1-1.2,2.4,2.2,2.2,0,0,0-.6,1.8v1.2c-0.6,0-.6.6-1.2,0.6-1.2.6-1.2,1.8-1.2,3,0,0.6-.6.6-0.6,1.8l-0.6.6c-0.6,0,0,.6,0,0.6,0,0.6-1.2,1.2-1.2,1.8v0.6c-0.6,0-.6,1.2-0.6,2.4h-0.6v2.4a0.59,0.59,0,0,1-.6.6c0,1.2,0,1.8-.6,2.4,1.2-.6,1.2,0,1.2,1.8v3.6c0,0.6.6,1.2,1.8,1.2,0-.6,1.2-1.2,1.2-1.2,0,0.6,1.2,0,1.2,0,0.6,0.6,1.8,0,3.6-1.2,1.2-.6,2.4-0.6,2.4-1.2a3.18,3.18,0,0,1,1.2-1.8c0.6-.6.6,0,0.6-0.6l0.6-.6a3.13,3.13,0,0,1,3-2.4v-0.6c0.6-.6,1.2-0.6,1.2-1.8l0.6-.6c0.6,0,.6,0,0.6-0.6a1.2,1.2,0,0,0,1.2-.6,1.2,1.2,0,0,1,.6-1.2,0.59,0.59,0,0,1,.6-0.6s0-.6.6,0c0.6,0,.6-1.2.6-1.2a1.68,1.68,0,0,1,1.2-1.8,2.21,2.21,0,0,0,.6-1.8,8.27,8.27,0,0,0,1.8-2.4,0.59,0.59,0,0,0,.6-0.6h1.2a1041.59,1041.59,0,0,0,1.2-1.2c0.6,0.6.6,0,.6,0,0.6-1.8,1.2-2.4,1.8-2.4,0-.6.6,0,0.6-0.6v-1.2a1.86,1.86,0,0,0,.6-1.2,0.59,0.59,0,0,1,.6-0.6c1.2,1.2.6,0,.6-0.6,0.6,0,.6-0.6,1.8-1.2l0.6-.6v-1.8c1.2,0,1.2-.6,1.8-0.6l1.2-1.8c0.6,0,.6,0,0.6-0.6l1.2-1.2c-0.6-.6,0-1.2,0-1.8l0.6-.6a1.2,1.2,0,0,0,.6-1.2c0-.6,1.8-1.8,1.8-1.8l0.6-.6a3.27,3.27,0,0,1,3-1.8,0.59,0.59,0,0,0,.6-0.6c0.6-1.2,1.8-.6,2.4,0s0.6,1.8,0,1.8c0,0.6-.6,1.2,0,1.2-0.6,0,0,1.2-.6,1.2a1.2,1.2,0,0,1-1.2.6v1.2c-0.6,1.2-1.2,1.8-1.2,2.4,0.6,0.6.6,0.6,0,1.2l-0.6.6c0,0.6-.6,1.8-1.2,1.8v0.6a0.59,0.59,0,0,0,.6.6c-0.6.6-1.2,1.8-1.8,1.8,0,1.2,0,1.2-.6,1.2s-0.6,0,.6.6c0,0.6,0,2.4-.6,2.4s-1.2,0-1.2.6v1.8c1.2,0.6,1.2,1.2-.6,1.2v4.8a3.18,3.18,0,0,1-1.2,1.8,0.59,0.59,0,0,0,.6.6c-0.6.6,0,1.2-.6,1.8H624v1.8a0.59,0.59,0,0,0,.6.6c0,0.6.6,1.2,0,1.8v0.6a1.2,1.2,0,0,1,.6,1.2c0,0.6-1.2.6-1.2,1.2,1.2,1.2,1.8,1.8,1.2,3h-0.6a1.12,1.12,0,0,1,0,1.8l0.6,0.6c1.2,0.6.6,1.8,1.2,3-0.6,1.2,0,1.8,0,3.6v1.2a25.94,25.94,0,0,1-.6,3c0.6,0.6,1.2,1.2.6,1.2v1.2q0.9,0,0,1.8s0,0.6,1.2,1.2a1.53,1.53,0,0,1,0,1.8h0.6l0.6,0.6,1.2,0.6c0-.6.6,0,0.6,0,0-.6,0-0.6.6-0.6h1.2c1.2,0.6,2.4-.6,3-1.2h1.2c0-.6,0-0.6,1.2-0.6l0.6-.6s0.6,0,.6-1.2h0.6c1.2,0,1.8-1.2,3-.6a1.2,1.2,0,0,0,.6-1.2,2.09,2.09,0,0,0,.6-1.2s0-.6.6,0a0.59,0.59,0,0,0,.6-0.6,2.2,2.2,0,0,1,1.8-.6,0.59,0.59,0,0,0,.6-0.6v-0.6a1.2,1.2,0,0,0,.6-1.2c0.6,0,.6,0,0.6-0.6,1.2,0.6.6,0,1.2-.6l1.2-.6c0.6,0,.6-0.6,1.2-1.2,0-.6,1.2-0.6,1.2-1.8,0.6,0.6.6,0,1.8,0l0.6-.6c0.6-.6,1.2-0.6,1.2-1.8,0.6,0,1.2-.6,1.8,0,0.6-1.2.6-1.8,1.8-1.8v-1.2l0.6-.6v-0.6a0.59,0.59,0,0,0,.6-0.6c0.6,0,1.2,0,1.2-.6,0.6,0,.6-1.2,1.8-1.2,0-.6.6-0.6,0-1.2,0.6,0,1.2.6,1.8,0.6,0.6-.6.6-0.6,0.6-1.8,0-.6.6-1.2,1.8-1.2l0.6-.6s0-.6.6,0l0.6-.6c0-.6,0-0.6.6,0l1.2-1.2a3,3,0,0,0,1.8-.6c0.6-1.8,1.2-2.4,1.2-3H678c0-.6,0-1.8.6-1.8h0.6Z" transform="translate(-287.86 -922.17)"/><path d="M765.59,1227.7c6-6.6,6.6-2.4,6.6,0,0,0.6-11.4,15.6-11.4,16.2-0.6,0-11.4,14.4-12.6,14.4-0.6,0,0,0-.6.6-0.6,0-4.8,5.4-6,3.6-0.6,0-.6.6-1.2,0.6,0,0.6-1.8,0-2.4,0h-1.8c-0.6,0-1.8-.6-1.2-1.2,0-.6,0-0.6-1.2-0.6-0.6-.6-0.6-0.6-0.6,0H732a3.6,3.6,0,0,0-2.4.6l-1.8-1.8a10.51,10.51,0,0,0-3-2.4c0-.6-1.2.6-1.2,0s0.6-1.2,0-1.8c-0.6,0-.6-0.6-1.2-1.2,0,0-.6-0.6-0.6,0a0.59,0.59,0,0,0-.6-0.6c0-.6-0.6-1.2-0.6-1.8l0.6-.6a2.2,2.2,0,0,0-.6-1.8v-3c0-1.2-.6-9.6-1.2-10.2,0-1.2,1.2-1.8.6-3v-1.2c0-1.2.6-1.8,0-2.4,0.6-.6,0-1.8.6-2.4,0-.6.6-0.6,0-1.8,0.6-.6.6-1.2,0.6-2.4,0.6,0,.6,0,0.6-1.2-0.6-.6,0-1.2,0-0.6,0-.6,0-1.2-0.6-1.2h-0.6c-0.6-.6-1.2-0.6-1.2,0a2.21,2.21,0,0,0-1.8.6c0,1.2,0,1.2-.6,1.8-1.2,0-1.2,0-1.8.6a0.59,0.59,0,0,0-.6-0.6c-0.6.6-.6,1.2-1.2,1.2v1.2c-0.6,0-1.8,0-1.8.6-0.6.6-.6,0-0.6,0-0.6.6-.6,0.6,0,1.2-0.6,0-.6.6-1.2,0.6-0.6-.6-0.6-0.6-1.2.6a1042,1042,0,0,0-1.2,1.2c0,0.6-.6.6-1.2,0.6a1.92,1.92,0,0,0-1.8,1.8c-0.6.6,0,1.2-1.2,1.8l-0.6.6c-0.6-.6-0.6,0-0.6,1.2-0.6.6-1.2,0.6-.6,1.2-0.6-.6-0.6-0.6-0.6,0-0.6.6-1.8,1.2-3,2.4l-1.2.6v1.2c-0.6.6-1.2,0-1.2,0.6l-0.6,1.2c0.6,0,0,0,0,.6h-0.6c-0.6-.6-0.6,0-0.6,0a0.59,0.59,0,0,1-.6.6l-1.2,1.2c-0.6,0-.6.6-1.2,1.2a0.59,0.59,0,0,0-.6.6c0.6,0,.6.6,0,1.2s-0.6,1.2-1.2,1.2v0.6a1.68,1.68,0,0,0-1.8,1.2v0.6s-0.6-.6-0.6,0v0.6l-0.6.6c-1.2.6-1.2,1.2-1.8,1.8-0.6,0,0,.6,0,0.6-0.6.6-1.2,0.6-1.2,1.2-0.6,0-.6,1.2-0.6,1.2a3.18,3.18,0,0,1-1.2,1.8c0-.6-0.6.6,0,0.6a0.59,0.59,0,0,1-.6.6l0.6,0.6c-1.2,1.2-1.8,2.4-2.4,2.4,0,0-.6.6-0.6,0l-1.8,1.8-1.2-1.2-0.6-1.2-2.4-.6c0-1.2-.6-0.6-0.6-1.2-1.2-.6-2.4-3.6-2.4-4.2,0.6-.6.6-1.2,1.2-2.4-0.6-.6,0-1.2.6-1.8s-0.6-1.2,0-1.2a2.09,2.09,0,0,1,.6-1.2c-0.6-.6-0.6-0.6,0-1.2a6.52,6.52,0,0,0,.6-3v-0.6c0-.6,0-1.2.6-1.2a1.86,1.86,0,0,1,.6-1.2v-0.6c0.6,0,.6,0,0-1.2v-0.6l0.6-.6c0.6-.6.6-0.6,0.6-1.8a0.59,0.59,0,0,0,.6-0.6v-1.8l0.6-.6v-1.8c0-.6.6-1.2,0.6-1.8a0.59,0.59,0,0,1,.6-0.6l0.6-.6v-1.2c-0.6-2.4,0-2.4,0-3.6H678c0.6-1.2,0-1.2,0-2.4,0.6,0,.6-1.2,1.2-1.2,0.6-.6.6-0.6,0-1.2a2.09,2.09,0,0,0,.6-1.2c0.6-.6,1.2-0.6,1.2-1.2s-0.6-.6-0.6-1.2c0.6-.6,4.8-10.2,4.8-10.2v-0.6h0.6a12.09,12.09,0,0,1,1.2-3.6c0-1.8.6-2.4,1.2-2.4,0-.6.6-0.6,0.6-1.2l0.6-.6a3.12,3.12,0,0,1,2.4-1.2c0.6,0,2.4.6,3,0,0,0,2.4,1.2,2.4,1.8l0.6,0.6c0.6,0,.6,0,0,0.6l-1.2,4.8c-0.6.6-4.8,10.8-4.8,12,0,1.8-.6,1.8-0.6,2.4,0.6,0,.6,0,0.6.6v0.6c-1.2,0-.6.6-1.2,1.2v0.6c-0.6,0-.6.6-0.6,1.2a26,26,0,0,0-.6,3c-0.6,0-.6,0,0,0.6v0.6c-0.6,1.2-1.2,1.8-1.2,3a1.86,1.86,0,0,1-1.2.6v1.2c0.6,0.6,0,1.2-.6,1.8a1.17,1.17,0,0,1-1.2,1.2c-0.6.6,0,2.4,0.6,2.4l-0.6,1.2c0,0.6-.6,0-0.6.6s0.6,0.6,0,1.2v2.4c-0.6.6-1.2,1.2,0,1.8,0-.6-0.6-1.2,0-1.8s1.2,0,1.8-.6c-0.6-.6.6-1.2,0.6-1.8a1.2,1.2,0,0,0,1.2.6c-0.6-2.4-.6-1.2-0.6-1.8,0.6,0,1.2,0,1.2-.6v-0.6a6,6,0,0,1,1.8-.6,2.2,2.2,0,0,0,.6-1.8,13.1,13.1,0,0,1,3-1.8v-0.6l1.2-1.2c0.6-.6.6-1.8,1.8-1.8v-0.6c0-.6,0-0.6,1.2-0.6,0-.6.6-0.6,0.6-1.2a1.92,1.92,0,0,1,1.8-1.8v-0.6a1.86,1.86,0,0,1,1.2-.6c0.6-.6,1.2-1.2,1.2-0.6a2.2,2.2,0,0,0,.6-1.8,6.52,6.52,0,0,0,3-.6v-0.6c-0.6-.6.6-0.6,0.6-0.6,0.6,0,.6-0.6.6,0v-1.2l1.2-.6a8,8,0,0,0,3-1.8,2.1,2.1,0,0,1,1.2.6,0.59,0.59,0,0,0-.6-0.6c2.4-2.4,2.4-3,3-3l1.2-.6a8.6,8.6,0,0,1,1.8-1.2c0.6-.6,3,1.8,3,1.2a4.68,4.68,0,0,1,3,0l-0.6.6c0.6,0,1.2,1.8,1.8,1.8,0.6,0.6,1.8.6,0,3v0.6a0.59,0.59,0,0,1,.6.6c1.2,1.2-.6,1.8-0.6,2.4-0.6.6,0,.6-0.6,1.2v0.6l0.6,2.4v1.2c-0.6-.6-0.6-0.6-0.6,0a4.54,4.54,0,0,1,.6,2.4s0.6,1.2,0,1.2a4.53,4.53,0,0,0,.6,2.4s-0.6,1.2-.6.6v2.4c0,0.6,1.2,5.4.6,6l-0.6.6c0.6,0.6,1.8,1.2,1.2,1.8-0.6,0,0,.6,0,1.2s-0.6,1.2,0,1.8c0,0,0,.6,1.2,1.2l0.6-.6v0.6c-0.6.6-.6,0.6,0,0.6,1.2,1.8,1.8,3,2.4,3a0.59,0.59,0,0,0,.6.6l1.2,0.6a1.79,1.79,0,0,0,2.4.6h1.2c0-.6.6,0,1.2,0a2.21,2.21,0,0,0,1.8.6H741c0,1.2.6,1.2,0.6,1.2h0.6c4.8-4.8,4.2-5.4,4.2-5.4,1.2,0,7.2-6,7.8-7.2,3-6.6,4.2-8.4,4.8-9h1.2ZM681,1261.3m5.4-57c0-.6,0-1.2.6-1.2Z" transform="translate(-287.86 -922.17)"/><path d="M849.58,1138.9c-1.2-1.2-2.4-.6-3.6,0h-0.6c-1.8,0-3,1.8-4.8.6-2.4,1.8-15.6-.6-16.8.6-1.2-.6-2.4.6-3.6-0.6-0.6.6-1.8,0-1.8,0-0.6,1.8-1.8,1.2-3,0-1.2.6-3,0-4.8,0-0.6-.6-2.4,2.4-3,0.6h-1.2c-2.4,1.2-4.2,0-6,1.2l-3-.6c-0.6,1.8-.6,4.8-1.2,7.2,0,4.2-1.2,4.8-1.2,8.4-1.2,5.4-2.4,9.6-3,13.2-2.4,13.2-4.2,22.8-5.4,24.6-0.6,3-.6,4.8-1.2,6.6a40.24,40.24,0,0,1-3.6,9c0.6,2.4-1.2,3.6-1.8,6.6-1.2,3-1.8,7.8-3,13.8a74.72,74.72,0,0,1-2.4,9.6c-1.2,3-2.4,6-2.4,9.6v1.2c-2.4,7.2-1.8,13.2-3,21,0,1.2.6,1.8,0.6,3.6a3.61,3.61,0,0,1,.6,2.4c0,3,4.2,1.2,3,5.4l0.6,0.6c1.2,0,6,1.8,7.2,1.2l5.4-3c2.4-1.8,3-1.2,5.4-3.6,0,0.6.6-.6,1.2,0.6,0.6,0.6,3.6-3,5.4-4.8,1.2-1.2,2.4-.6,3.6-1.8l0.6-2.4c2.4-1.2,3.6-3,4.2-3,1.8-1.2,2.4-3,3-4.8l6-6a14.93,14.93,0,0,1,3-4.2h0.6c1.8-1.8,2.4-3.6,3.6-5.4,1.2-.6,1.8-1.2,2.4-1.2,1.2,0.6.6-.6,1.8-2.4,0.6-1.2,3.6-5.4,6-5.4l1.8-2.4,1.2-3.6H837c2.4,0,6.6-9.6,10.8-8.4-0.6,4.8-1.8,4.8-3,7.2v0.6l-8.4,10.2a3.61,3.61,0,0,0-2.4.6l-3,3.6a45.2,45.2,0,0,0-5.4,5.4c-0.6,1.8-.6,1.8-1.2,1.8-1.2.6-2.4,3.6-3,3.6l-4.2,5.4-9.6,9.6c-1.2,2.4-2.4,3.6-3,3.6a15.89,15.89,0,0,1-3,3.6,4.68,4.68,0,0,1-2.4,2.4h-0.6c-2.4,4.8-9.6,7.8-10.2,8.4a4.62,4.62,0,0,0-1.8,1.2c-1.8.6-1.8,2.4-14.4,5.4-1.2,0-.6-1.2-1.2-1.2-0.6-1.2-.6-1.2-1.8-1.2-0.6-.6-2.4-1.8-3-3-1.2-1.8-1.2-6-3-7.8,0.6-3.6-.6-4.2-1.2-6.6l-1.8-7.2c-0.6-1.8-.6-4.2-1.2-6a34.18,34.18,0,0,0,.6-7.8l1.2-10.2,4.2-19.2c1.2-4.2,0-7.8,1.8-10.8l1.2-3c0.6-4.8,2.4-9.6,3.6-13.2,0.6-1.8.6-3,1.8-3.6,0-1.2,0-3,.6-3l2.4-12,0.6-1.2v-0.6c0.6-3,1.2-7.2,3-10.8v-3c1.2-9.6,2.4-4.8,3.6-15h0.6c0-.6-0.6-0.6-0.6-1.8,0-.6,1.8-6,2.4-6v-1.2l-0.6-.6,1.2-.6h-1.2v1.2c-2.4.6-6-1.2-7.2,0h-0.6c-0.6.6-1.8-.6-1.8-0.6h-2.4c-1.8-1.2-3-.6-4.2,0-0.6-.6-3.6-0.6-4.2,0l-1.2.6c-2.4-.6-14.4-2.4-17.4-1.8l1.8-3.6c1.2-2.4,9-1.2,10.2-1.2a7.6,7.6,0,0,0,3.6-.6h2.4c1.8-.6,16.8,0,18.6-0.6,4.2,1.2,5.4-4.2,6-3.6l0.6-.6c-0.6-.6,0-1.2.6-1.8-0.6,0-.6-0.6-0.6-1.2,0-1.2.6-1.2,2.4-6.6v-0.6l2.4-7.2a26,26,0,0,1,.6-3c1.8-4.8,3.6-12.6,5.4-19.8,0.6-4.2,2.4-9,4.2-14.4,0.6-1.2,1.2-1.8,1.2-2.4,0.6-2.4,1.2-4.8,3-6.6,0.6-.6.6-0.6,0.6-1.8,0-3,0-4.8,1.2-6,0.6-1.2,1.8-3.6,1.2-6a4.32,4.32,0,0,1,2.4-4.2c0.6-1.8,2.4-2.4,3-3,0.6,0.6,1.8.6,2.4,2.4a14.18,14.18,0,0,0-.6,7.2c-1.2,3-2.4,5.4-2.4,8.4v0.6c0,2.4-1.2,5.4-1.2,7.2a8.79,8.79,0,0,1-1.2,2.4c0,1.8-1.2,3-1.8,5.4,0,2.4-.6,4.2-0.6,6a56.32,56.32,0,0,0-3.6,14.4,12.8,12.8,0,0,0-1.8,7.2c0,2.4-1.8,3-1.2,5.4,0,0.6-.6.6-1.2,1.8a5.41,5.41,0,0,1-.6,3,47.79,47.79,0,0,0-1.8,9c-1.2,1.2-.6,2.4-3,7.2,0.6,0.6.6,0.6,0,1.8h0.6a6.52,6.52,0,0,1,3,.6,10.49,10.49,0,0,0,3-.6s6.6,0.6,7.8,1.2c1.2-.6,1.2-0.6,1.8,0,1.2,0,2.4,0,3,.6,1.2-1.2,4.2-1.2,4.2-1.2,0.6-.6,3,1.8,5.4.6H828c2.4-1.8,7.2,1.2,9.6,1.2h0.6c2.4-1.2,6-.6,7.8-0.6l1.2-.6c0.6,0.6.6,0,1.2,0.6l2.4-.6h0.6l1.2,0.6C854.38,1135.9,855.58,1139.5,849.58,1138.9Z" transform="translate(-287.86 -922.17)"/><path d="M857.38,1207.9a3,3,0,0,1,1.8-.6c1.2,0,1.8.6,2.4,0.6v1.2c0,0.6-.6,1.2,0,1.8a1.2,1.2,0,0,0-1.2.6l-1.8,1.2h-1.2l-0.6,1.2c0,0.6,0,.6-1.2.6-0.6,0-.6.6-1.2,1.2l-0.6,1.2a1.2,1.2,0,0,1-1.2.6c-0.6,0-.6,0-0.6.6a1.86,1.86,0,0,1-.6,1.2v0.6c-0.6,0-.6.6-0.6,1.2l-1.2.6a6.28,6.28,0,0,0-1.8,2.4l-1.2,1.2c0,0.6,0,1.2-.6,1.2a1.2,1.2,0,0,0-.6,1.2v0.6c-1.2.6-1.2,0.6-1.2,1.2a1.29,1.29,0,0,1-1.2,1.2,2.09,2.09,0,0,0-.6,1.2v1.2c-0.6,0-.6.6-1.2,1.2v0.6c0,0.6-.6.6-0.6,1.2a1.29,1.29,0,0,1-1.2,1.2v1.8l-0.6.6a0.83,0.83,0,0,1,0,1.2h-0.6c0,1.2,0,2.4-.6,3H837a1.2,1.2,0,0,0,.6,1.2v1.2c0,0.6.6,0.6,0.6,1.2s0.6,1.2,0,1.2v2.4a3.18,3.18,0,0,1,1.2,1.8v1.8H840a0.59,0.59,0,0,0,.6.6l0.6,0.6,0.6,0.6a1.2,1.2,0,0,1,1.2.6l0.6,0.6h4.8v-0.6h1.8c0.6,0,.6-0.6,1.2-0.6,1.2-.6,1.8-0.6,2.4-1.2a1.86,1.86,0,0,1,1.2-.6,3,3,0,0,0,1.8-.6,0.59,0.59,0,0,0,.6-0.6v-0.6h1.8l0.6-.6a1.2,1.2,0,0,1,1.2-.6,1.2,1.2,0,0,0,.6-1.2c0.6,0,.6-0.6,1.2-0.6a1.2,1.2,0,0,0,1.2-.6v-0.6h1.2l0.6-.6c0-.6,0-1.2.6-1.2,0-.6,0-0.6.6-0.6a3.18,3.18,0,0,1,1.2-1.8c1.2-.6,1.2-0.6,1.2-1.2s0-.6.6-0.6l0.6-.6a1.2,1.2,0,0,1,.6-1.2c0.6,0,.6,0,1.2-1.2a1.86,1.86,0,0,1,.6-1.2,1.2,1.2,0,0,1,.6-1.2c0-.6,1.2-1.2,1.2-1.8a3.61,3.61,0,0,1,.6-2.4v-2.4a2.09,2.09,0,0,1,.6-1.2v-0.6c0-.6,0-0.6-0.6-0.6h-1.8l-0.6-.6a2.09,2.09,0,0,1-1.2-.6,1.86,1.86,0,0,0-1.2-.6h-1.2a1.86,1.86,0,0,1-1.2-.6h-2.4a2.2,2.2,0,0,0-1.8-.6h-3.6a3887.39,3887.39,0,0,1-3.6-1.2c-0.6,0-.6-0.6-0.6-1.2a0.59,0.59,0,0,1,.6-0.6v-1.2c0.6,0,.6-0.6.6-1.2,1.2,0,1.2,0,1.2-.6a1.86,1.86,0,0,1,.6-1.2l1.8-1.2,0.6-1.2a3.18,3.18,0,0,1,1.2-1.8,2.1,2.1,0,0,0,1.2-.6,0.59,0.59,0,0,1,.6-0.6c0.6-.6.6-1.2,1.2-1.2a0.59,0.59,0,0,1,.6-0.6H867l1.2-.6a1.86,1.86,0,0,1,1.2-.6,6,6,0,0,1,1.8-.6h3.6a0.59,0.59,0,0,1,.6.6,1.29,1.29,0,0,0,1.2,1.2c0.6,0,.6,1.2.6,1.8a1.2,1.2,0,0,0,.6,1.2v1.8a2.21,2.21,0,0,0,.6,1.8c0.6,0,.6,0,0,0.6a4.54,4.54,0,0,0-.6,2.4v1.8c-0.6.6,0,.6,0.6,0.6s0.6,0,.6.6v1.8h10.8l2.4-.6a0.59,0.59,0,0,0,.6-0.6c1.8,1.2,7.8.6,8.4,0a2.09,2.09,0,0,1,1.2-.6c8.4-2.4,12-3.6,12.6-4.2-0.6.6,0,.6,0,0.6,0-.6.6-0.6,0.6-1.2a18.61,18.61,0,0,1,4.2-1.2,6.42,6.42,0,0,0,3-1.8v-0.6a6.09,6.09,0,0,1-1.2,4.8H921v1.2l-1.8.6H918l-2.4.6v0.6c-0.6.6-4.8,2.4-13.8,4.8v0.6h-7.2c0,0.6,0,.6-1.8,0h-0.6c-0.6.6-2.4,0.6-3.6,0.6l-7.2.6h-1.2c0,0.6-.6.6,0,1.2-0.6.6-.6,1.2-1.2,2.4v1.8a2.1,2.1,0,0,1-1.2.6v0.6h-0.6v4.8a0.59,0.59,0,0,1-.6.6,0.59,0.59,0,0,0-.6.6,2.2,2.2,0,0,0-.6,1.8h-1.2c-1.2.6-1.2,1.2-1.8,1.8v0.6l-0.6.6h-0.6l-0.6.6c-0.6,0,0,0,0,.6l-1.2.6c0,0.6,0,.6-0.6.6l-1.2,1.2v0.6a3.18,3.18,0,0,0-1.8,1.2,0.59,0.59,0,0,1-.6.6,1.86,1.86,0,0,0-1.2.6c0,0.6,0,1.2-.6,1.2h-1.2a0.59,0.59,0,0,0-.6.6,1.2,1.2,0,0,1-.6,1.2c-0.6,0-1.2.6-1.8,0.6v1.2l-0.6.6c-0.6,0-1.2,0-1.2.6-0.6-.6-0.6,1.2-1.8,1.2v0.6c0,0.6-1.8,1.2-1.8,1.2-1.2,0-1.2,0-1.8.6h-1.8c-0.6,0-1.2.6-1.8,0.6a3.51,3.51,0,0,1-2.4.6h-1.2a2.21,2.21,0,0,0-1.8-.6h-4.2c-0.6,0-1.2,0-1.2-.6H837c-0.6,0-1.2,0-1.2-.6a1.86,1.86,0,0,0-1.2-.6c-0.6-.6-1.2-2.4-1.8-2.4l-0.6-.6-1.8-1.8v-1.2a2.21,2.21,0,0,1-.6-1.8,1.86,1.86,0,0,0-.6-1.2h-0.6v-4.8c-0.6,0-.6-1.2-0.6-1.2,0-.6.6-0.6,0-1.2a2.63,2.63,0,0,1,.6-1.8v-0.6c0.6,0,.6-0.6.6-1.2,0.6-1.2,0-2.4.6-3.6a0.59,0.59,0,0,1,.6-0.6v-1.8s2.4-3,2.4-4.2c0.6-2.4,2.4-4.2,3.6-7.8,0.6,0,1.2-1.2,1.2-1.2,0.6-.6,1.2-0.6,1.2-1.2s0-.6.6-0.6l1.2-1.2a8.28,8.28,0,0,0,1.8-2.4h1.2v-0.6l1.8-1.8c0.6-.6.6-1.2,1.2-1.8a4.56,4.56,0,0,0,2.4-1.2c0.6-.6,0-0.6.6-1.2h0.6l0.6-.6a0.59,0.59,0,0,0,.6-0.6c0.6,0,1.2-.6,1.8-0.6a0.59,0.59,0,0,1,.6-0.6c0.6,0,2.4,0,3-.6h0.6Zm10.8,6.6h-0.6c-0.6,0-.6.6-1.2,1.2a1.2,1.2,0,0,0-.6,1.2,0.59,0.59,0,0,1-.6.6c-0.6,0-1.2,0-1.2.6s0,1.8-1.2,1.8a0.59,0.59,0,0,0,.6.6c0,0.6,0,.6.6,0.6v0.6a2.2,2.2,0,0,0,1.8.6c0.6,0.6,1.8,0,2.4.6H870c1.2,0,1.2,0,1.8.6,0.6,0,1.2,0,1.2.6h1.8v-1.8a3.12,3.12,0,0,0-1.2-2.4H873a2.89,2.89,0,0,1,0-2.4l-0.6-.6c0-1.2-.6-1.8-0.6-2.4a4.53,4.53,0,0,1-2.4-.6l-0.6.6h-0.6Z" transform="translate(-287.86 -922.17)"/><path d="M929.37,1189.9a6.34,6.34,0,0,1,3-1.2c0.6-.6.6-1.2,1.2-1.2,1.2,0,1.8-.6,3.6-0.6,0.6-.6,1.8,0,3.6-1.2a15,15,0,0,1,8.4,0,2.09,2.09,0,0,1,.6,1.2H951c0.6,0,2.4,0,3,.6,1.2,0,1.8.6,1.8,1.2l1.2,0.6c1.2,0.6,1.8,1.2,3,1.8,0.6,0,.6.6,1.8,1.8v0.6a3.61,3.61,0,0,0,.6,2.4c0.6,0,.6.6,0.6,1.2v1.8a6.53,6.53,0,0,1-.6,3,3.3,3.3,0,0,1-1.8-3v-0.6a1.69,1.69,0,0,1-1.2-1.8c-0.6-.6-1.8-1.8-1.8-3h-1.2c-1.8.6-1.8-.6-2.4-1.2-0.6,0-1.2-.6-1.2,0a4.64,4.64,0,0,1-1.8-.6,0.59,0.59,0,0,0-.6.6c-1.2,0-1.8.6-3,.6l-0.6.6c-1.2-.6-1.2,0-1.8,0a20,20,0,0,1-3.6,1.8,1.53,1.53,0,0,0-1.8,0,0.59,0.59,0,0,0-.6.6c-1.2.6-1.2,1.8-2.4,1.8-1.8.6-1.8,1.8-2.4,2.4-1.2,0-1.8,1.2-2.4,1.2a0.59,0.59,0,0,0-.6.6c0,1.2-1.2,1.8-1.8,3-0.6,0-.6,1.2-0.6,1.8l-1.2,1.2v0.6s-0.6,1.2-1.2,1.2a1.2,1.2,0,0,0,.6,1.2,1.86,1.86,0,0,0-.6,1.2,4.58,4.58,0,0,1-1.2,3v2.4a10.22,10.22,0,0,0,.6,4.2v2.4l0.6,2.4c0.6,0,.6.6,0.6,1.8,1.2,0.6,1.8.6,1.8,1.8a3,3,0,0,0-.6,1.8,0.59,0.59,0,0,1,.6.6c0.6,1.2.6,1.8,1.2,2.4l0.6,0.6c0,0.6,0,1.2.6,1.2v1.2c-0.6.6-.6,0.6,0.6,1.2l0.6,2.4a1.86,1.86,0,0,1,.6,1.2v1.2s0,0.6,1.2.6c-0.6,1.8,0,1.8.6,1.2a7.28,7.28,0,0,0,3-.6c1.2,0,2.4-1.2,4.2-1.2l0.6,0.6c1.2,0.6,1.2,0,1.2,0,1.8-1.2,2.4-1.8,2.4-2.4,0.6,0,.6-0.6,1.2-0.6,1.8,0,1.8-.6,2.4-0.6h1.8c0,0.6,0,1.2,1.8,1.2,0,0.6.6,0.6,0.6,0,0.6-.6,1.8-0.6,1.8-1.2l0.6-.6a4.54,4.54,0,0,0,2.4-.6c1.2,0,3-.6,3.6-0.6,1.2,0,1.8-.6,4.2-1.2,0.6-1.2,1.2-1.2,2.4-.6,1.2,0,3,.6,3.6,0,1.2-.6,1.8-1.2,3.6-0.6a4.55,4.55,0,0,1,2.4-1.2,0.83,0.83,0,0,1,1.2,0,2.2,2.2,0,0,0,1.8-.6c0-.6,1.2-0.6,2.4-0.6,1.2,0.6,1.8.6,3-.6h1.2a21.2,21.2,0,0,0,3.6-.6H993c0.6-.6,1.2,0,2.4,0,0.6-.6,1.2.6,1.2,0s0.6-.6,1.8-0.6c0.6-.6,1.2-0.6,2.4-0.6a6,6,0,0,0,1.8-.6h2.4l1.2-1.2h3.6l0.6-1.2c0.6,0.6,1.2,0,1.8-.6a1.86,1.86,0,0,1,.6-1.2c0.6-.6,1.2-1.8,1.8-1.8l0.6-.6,1.2-.6s0-.6.6,0h1.8a8.29,8.29,0,0,1,1.8,2.4,3,3,0,0,0,.6,1.8c0,0.6-1.2,2.4-1.8,2.4s-1.2-.6-1.2,0h-0.6a3.61,3.61,0,0,1-2.4.6h-0.6c-0.6.6-1.8,1.8-2.4,1.8-1.2,0-2.4.6-4.2,0a3.6,3.6,0,0,0-2.4.6H1005l-1.8,1.8h-0.6a1.13,1.13,0,0,1-1.8,0h-0.6c-1.2.6-2.4,0.6-3,1.2l-1.2.6c0-.6,0-0.6-0.6-0.6-1.2,1.2-2.4,1.2-3.6,1.8l-1.2-.6a1.68,1.68,0,0,0-1.8,1.2l-1.2-.6c-1.8,0-2.4.6-4.2,0-1.8.6-3,1.2-4.2,1.2h-0.6a4.93,4.93,0,0,1-4.2.6,25.94,25.94,0,0,1-3,.6l-0.6.6c-0.6-.6-2.4,1.2-3.6,1.2-0.6-.6-1.8,0-3.6.6h-1.2a2.1,2.1,0,0,1-1.2.6h-4.8a2.2,2.2,0,0,0-1.8.6c0,0.6,0,0-.6,1.2,0,0.6-.6.6-1.2,0.6-1.8-.6-3,0.6-4.2.6-0.6,0-.6.6-1.8,0.6-0.6.6-1.2,0-1.8,0.6-1.2,1.2-1.8,1.2-3,.6l-1.2,1.2c-0.6,0-1.2.6-2.4,1.2v0.6c0,0.6-.6,1.2-1.2,2.4-0.6,0,0,.6.6,0.6-0.6.6,0,1.8-.6,1.2,0,1.2-.6,2.4,0,3a2.2,2.2,0,0,0-.6,1.8v0.6c-0.6,1.2-.6,3-2.4,4.2l-0.6.6c-0.6,1.8-1.8,1.8-1.8,1.8a16.43,16.43,0,0,1-4.2,2.4c-0.6,0-.6.6-0.6,0-1.2,1.2-2.4,1.2-2.4,1.8,0,1.2-1.2.6-1.8,0.6h-2.4c-1.2,1.2-1.8,1.2-4.2.6-1.2.6-1.8,0.6-2.4,0a3.18,3.18,0,0,0-1.8-1.2,16.6,16.6,0,0,0-5.4-.6,1.12,1.12,0,0,1-1.8,0c-1.2,0-1.8,0-2.4-.6-1.2,0-1.8,0-1.8-.6a6,6,0,0,0-.6-1.8c-1.8-.6-0.6-2.4-0.6-3.6l1.2-1.8c0.6,0.6,1.2,0,1.8-.6l0.6-.6a2.77,2.77,0,0,0,3-1.8l2.4-1.8c3,0,3.6-1.2,4.8-2.4h0.6a4.54,4.54,0,0,1,2.4-1.2h0.6c1.2-1.2,1.2-1.2,1.8-1.2l1.8-1.8a1.2,1.2,0,0,0,1.2.6c0.6-1.2,2.4-1.2,3.6-1.2a2.09,2.09,0,0,0,.6-1.2,1.2,1.2,0,0,0,1.2-.6,2.2,2.2,0,0,0,.6-1.8,3.18,3.18,0,0,0-1.2-1.8c-0.6-.6-0.6-1.8-0.6-3v-1.8h-0.6c-0.6-.6-0.6-1.2-1.2-1.2h-0.6c-0.6,0-.6-0.6-0.6-1.8a18.53,18.53,0,0,0-1.2-4.8,2.1,2.1,0,0,0-.6-1.2v-1.2a1.29,1.29,0,0,1-1.2-1.2v-2.4h-0.6c-1.2-.6-1.8-1.2-1.2-2.4-1.8-.6-1.8-2.4-1.8-4.2v-3.6c-0.6-.6-0.6-1.2-0.6-2.4v-2.4a1.86,1.86,0,0,1,.6-1.2c0-1.2-.6-1.8-1.2-3v-0.6c0.6-1.8.6-3.6,1.2-6,1.2-.6,1.2-0.6,1.2-1.8,0-.6,1.2-1.2,1.2-2.4,0-.6.6-0.6,0.6-1.8,0.6,0,1.8,0,1.8-.6l2.4-1.8c1.2,0,1.8-1.2,3-1.8a1.2,1.2,0,0,0,1.2-.6l1.2-.6h0.6Zm-16.2,78c0-.6,1.2-1.2,2.4,0a16516.58,16516.58,0,0,0,4.8-2.4c0-.6,0-0.6.6-0.6,0.6-1.2,1.2-1.8,1.2-2.4,1.2,0,1.2,0,1.8-.6,0,0,.6-1.2,1.2-1.2a16,16,0,0,0,3-3.6s0.6,0,.6-1.2a0.59,0.59,0,0,1-.6-0.6,6.53,6.53,0,0,0-3-.6c-0.6,1.2-.6,1.8-1.2,1.2-0.6,0-1.2,0-1.2.6,0,0-1.8,0-1.8.6l-0.6.6c-0.6-1.2-1.8,0-2.4,0s-0.6,0-.6.6c0,1.2-.6,1.8-1.2,1.8-1.2,0-1.2,0-1.8.6-1.2.6-1.8,1.2-2.4,0.6a0.59,0.59,0,0,1-.6.6c-0.6.6-1.8,1.2-2.4,0.6-0.6.6-.6,1.2-1.2,1.2v0.6a3.3,3.3,0,0,0-1.2,3c0.6,0,1.2-.6,1.8-0.6l0.6,0.6c0.6,0,1.8.6,2.4,0A2.2,2.2,0,0,0,913.17,1267.9Z" transform="translate(-287.86 -922.17)"/><path d="M1338,960.1c-0.6,1.2,0,3,.6,4.8l-1.2.6c-0.6,1.8,0,3.6-.6,6.6a1.86,1.86,0,0,1-.6,1.2,1.2,1.2,0,0,1,.6,1.2c-0.6,2.4-1.2,3-.6,4.8-1.2,1.8-.6,4.8-1.2,6.6l-0.6,1.8c0,1.8.6,4.2-1.2,6.6,0,0.6-.6,2.4-0.6,3.6s-0.6,1.8,0,3c-1.2,2.4-1.2,3.6-1.8,5.4a6,6,0,0,1-.6,2.4l-0.6,6a3.61,3.61,0,0,1-.6,2.4c-0.6,1.2,0,1.8,0,3.6-1.2,0-1.2,1.8-1.2,2.4-0.6,2.4-1.8,4.8-1.8,6.6l-0.6,2.4c0,1.2-.6,1.2-0.6,1.8,0,2.4-1.2,4.2-1.2,5.4s-0.6,1.2-.6,1.8c-1.2,1.8-.6,2.4-1.8,4.2,0,0,.6.6,0,0.6a3.61,3.61,0,0,1-.6,2.4,7.61,7.61,0,0,1-.6,3.6,3.72,3.72,0,0,1-1.2,2.4,12.09,12.09,0,0,1-1.8,6.6l-1.8,6c-0.6,1.2-.6,3.6-1.2,5.4,0,1.8,0,3-.6,3.6l-1.8,2.4-0.6,1.2c0,2.4-.6,4.2-0.6,6a8,8,0,0,0-1.8,3c-0.6,1.8-.6,3-1.8,4.8l-0.6,3.6c-0.6,1.8-.6,2.4-1.2,3a0.59,0.59,0,0,0-.6.6c0.6,1.2-.6,3-0.6,4.2l-2.4,5.4c-0.6.6-.6,1.8-1.2,4.2l-1.8,4.8c0,0.6-.6,1.2-1.8,2.4,0,1.2-1.2,2.4-.6,3.6l-0.6.6c-0.6,1.8-2.4,3-3,4.8v0.6a8,8,0,0,0-.6,3c-0.6,1.2-1.2,3.6-1.8,4.2-0.6,1.2-1.2,2.4-1.8,2.4,0,1.8-1.2,3.6-1.2,5.4a1.86,1.86,0,0,1-1.2.6c0,1.2-.6,1.2-0.6,1.8a4.41,4.41,0,0,0-1.2,3.6c-0.6.6-.6,1.8-1.8,2.4a1,1,0,0,0-1.2,1.2l-1.8,4.2v1.8a4.41,4.41,0,0,0-1.2,3.6l-1.2,1.2v1.2c-0.6,0-.6,1.8-1.2,3a3,3,0,0,1,.6,1.8c0,1.2-1.2,1.2-1.8,1.8-1.2.6-1.2,2.4-1.2,3.6l-0.6,1.2v1.2a1.29,1.29,0,0,1-1.2,1.2,21.22,21.22,0,0,0-.6,3.6c-0.6.6,0,1.8-.6,2.4a3.18,3.18,0,0,1-1.2,1.8c-1.2,0-.6.6-0.6,0.6,0,0.6-.6,1.2-0.6,1.8-0.6,2.4-1.2,5.4-.6,7.2v4.8l-1.2,5.4c0.6,2.4.6,3.6-.6,5.4,0,1.8-.6,3-1.2,2.4l0.6,2.4a0.83,0.83,0,0,1,0,1.2v7.2c-0.6,0,.6,1.2-0.6,1.2a13.22,13.22,0,0,1-.6,4.8l0.6,0.6a20.65,20.65,0,0,1,.6,5.4l-1.2,1.8c0,0.6,0,2.4-.6,2.4v3.6c0.6,0,0,1.8-.6,2.4s0,0.6,0,1.2v2.4c0,1.2-.6,2.4-0.6,3.6,0,0.6-.6,3,0,4.2v3c-1.8,3-1.8,6-1.8,9.6v3c-0.6,0-.6,1.2,0,2.4-0.6,1.2,0,3.6,0,6a14.11,14.11,0,0,1-1.2,4.8,26.92,26.92,0,0,0-.6,6.6v4.8c0,1.8,0,3-.6,3,0.6,1.2.6,2.4,0,3,0.6,1.2,0,2.4,0,3.6v1.8c0,1.2-1.2,3.6,0,4.2,0,1.2-.6,3,0,3.6l-0.6,1.2c0,2.4.6,3,.6,5.4-0.6.6,0,1.2,0.6,1.2,0,1.8-1.2,3.6-1.2,5.4a9.47,9.47,0,0,0,3,4.8c1.2,0,1.2,0,1.8.6v2.4c0,2.4.6,3.6,0.6,4.8a5.4,5.4,0,0,0-.6,3v2.4c-0.6,0-.6,0-0.6,1.2a13.07,13.07,0,0,0-3,1.8c-1.2,0-1.2-.6-1.2-0.6h-0.6c-0.6-1.2-1.2-1.2-2.4-1.2a1.15,1.15,0,0,1-.6-1.8c-0.6-.6-0.6-3,0-4.8a4.54,4.54,0,0,1-1.2-2.4c0-1.2.6-1.8,1.2-3a2.2,2.2,0,0,1-.6-1.8c0.6-1.2.6-1.2,1.2-1.2s0.6-.6.6-1.2c0-1.2-.6-1.8-0.6-2.4v-3c0-.6.6-1.8,0-3v-4.2c-0.6-3-.6-3.6,0-4.8v-1.8c-0.6-.6,0-1.8,0-2.4,0.6-1.2,0-2.4.6-3-0.6-1.8,0-1.8,0-2.4v-4.2c0.6-2.4,0-4.8,0-7.2l0.6-.6a3.48,3.48,0,0,1,0-4.2c0-1.8.6-3,.6-6a8,8,0,0,1,.6-3,20.39,20.39,0,0,1-.6-6l0.6-2.4v-4.2c0.6-.6,0-1.8,0-2.4a26,26,0,0,0,.6-3c1.2-.6.6-0.6,1.2-1.2v-2.4c0.6-.6.6-1.2,0-1.2,0-1.2,0-1.2.6-1.8,1.8-1.2.6-1.8,0.6-3.6-0.6-.6.6-2.4,0.6-3a7.61,7.61,0,0,1-.6-3.6l0.6-2.4a1.12,1.12,0,0,0,0-1.8,8,8,0,0,1,.6-3c0.6-.6,0-2.4,0-3,0-3.6.6-5.4,0.6-7.8v-3.6c0-1.2.6-.6,0.6-1.2v-0.6l-0.6-2.4c0.6-1.8,0-3,1.2-4.2a8.37,8.37,0,0,1,0-6.6c0.6-.6,0-1.2.6-1.8-0.6-1.2-.6-1.2,0-3v-3c-0.6,0,0-.6,0-0.6-0.6,0-1.2,1.2-1.2,1.2,0,1.8-1.2,3-1.8,4.2-0.6.6-.6,1.2-0.6,2.4,0,0.6-.6,1.2-1.2,2.4l-1.8,4.2-0.6,1.2c-0.6-.6-0.6,0-0.6.6-1.8,2.4-1.8,4.2-3,6.6v0.6c-1.2,2.4-1.8,3.6-1.8,5.4l-0.6,1.2a3.72,3.72,0,0,0-1.2,2.4l-2.4,3.6a58.48,58.48,0,0,1-3.6,8.4,9.68,9.68,0,0,0-2.4,4.2c-0.6-.6-1.2,0-1.2.6-1.2,1.8-1.8,2.4-1.8,3a1.86,1.86,0,0,0-1.2.6c0,1.8-1.2,3.6-2.4,5.4-0.6,0-.6,1.2-1.8,2.4v0.6c-1.8,1.2-1.8,1.8-3,3a2.09,2.09,0,0,1-.6,1.2,28.05,28.05,0,0,1-3,6c-1.2.6-1.2,1.8-3,3.6-0.6,1.8-1.8,3-2.4,4.8-0.6,0-.6,1.2-1.8,1.8-0.6,0-1.2,1.2-1.8,1.8,0,0.6,0,1.8-.6,1.8a1.92,1.92,0,0,0-1.8,1.8c-0.6,0-1.2-.6-1.2,0v1.2c-0.6,1.8-1.2,1.8-3,3-0.6,1.2-1.8,1.2-2.4,3-0.6,1.2-1.8,2.4-3,4.2a1.86,1.86,0,0,0-1.2.6c-0.6,1.2-1.8,1.8-2.4,2.4-1.2,0-1.2,0-1.2.6-0.6,1.8-.6,3-1.8,3-0.6,0-.6.6-1.2,1.2-1.2,0-1.2.6-1.2,0.6-0.6-.6-0.6.6-1.8,2.4a1.2,1.2,0,0,1-1.2.6,3,3,0,0,0-.6,1.8c-0.6,1.2-1.2,1.2-1.2,1.2-1.8,0-2.4.6-3.6,0.6-0.6,0-.6,0-0.6,1.2-0.6.6-1.2,0.6-2.4,1.2-1.2-.6-1.2-0.6-1.2,0-0.6.6-.6,1.2-1.2,1.2a3.82,3.82,0,0,1-3.6,0c-0.6,0-1.2-.6-2.4.6l-3-1.2a0.59,0.59,0,0,1-.6-0.6c0-1.2.6-1.8,0-3a10.56,10.56,0,0,1,.6-3.6c-0.6-2.4-.6-2.4-2.4-2.4-0.6,0-.6-0.6-0.6-1.2,0-3.6.6-5.4,1.2-8.4l0.6-1.8a8.68,8.68,0,0,1,1.2-4.2c0-.6.6-1.2,0.6-1.8v-4.8c0-2.4,1.2-3.6,1.2-6,0-.6.6-1.2,0.6-2.4l1.2-1.8a8.9,8.9,0,0,0-.6-4.2l0.6-.6,1.8-3.6c0-1.2.6-1.8,0.6-3v-2.4a17,17,0,0,0,3.6-5.4c1.2-.6,1.8-2.4,2.4-4.2a3.21,3.21,0,0,1,1.8-2.4v-0.6a1,1,0,0,1,1.2-1.2c0.6-.6,1.2-0.6,1.2-1.2,1.8,0.6,2.4-1.2,4.2-1.8a2.09,2.09,0,0,1,1.2-.6c0.6-.6,1.2-0.6,2.4-0.6a8642.84,8642.84,0,0,1,3.6-2.4h0.6c1.2,0,2.4-.6,2.4-1.8,0.6-1.2,1.2-1.2,1.8-2.4,0.6,0.6.6,0.6,1.2,0a3.22,3.22,0,0,1,2.4-1.8l3.6-3.6c0.6-1.2,1.2-1.2,2.4-1.8h0.6c0.6-1.2,1.8-1.8,3.6-3a10.33,10.33,0,0,1,3.6-3.6c0.6-1.2,1.2-1.8,3-3l1.2-1.8c0.6,0,1.2-1.2,1.2-1.8a1.2,1.2,0,0,0,1.2-.6l3-2.4s0-1.2.6-.6c0-1.8.6-2.4,1.8-3.6,1.2-.6,1.8,0,1.8-1.2a1.29,1.29,0,0,0,1.2-1.2,10.61,10.61,0,0,1,3-4.8c0,0.6.6,0,1.2,0a4,4,0,0,1,3-4.2l1.8-3.6c0.6-.6,1.8-1.2,1.2-2.4a12.27,12.27,0,0,0,3-5.4l0.6-.6,1.8-1.2h0.6c0.6-1.8.6-4.8,2.4-6.6l1.8-3c0.6-1.8,1.2-3,1.2-4.8l0.6-1.2a24.44,24.44,0,0,1,3.6-6.6c-0.6-1.2,0-1.2,0-1.2,0-1.2,0-1.8.6-2.4a0.59,0.59,0,0,1,.6-0.6c0.6-1.8.6-3.6,1.2-5.4v-2.4a2.73,2.73,0,0,0,0-3v-1.2c0.6-1.8.6-2.4,0-4.8,0-3,.6-4.8.6-7.8,0-1.2-.6-3.6,0-4.8v-1.2a3.6,3.6,0,0,1,.6-2.4v-1.2c1.2-.6,1.2-0.6.6-1.8-0.6-.6-1.2-0.6-0.6-1.8a20.68,20.68,0,0,1,.6-5.4,4.53,4.53,0,0,1,.6-2.4l0.6-2.4a3.61,3.61,0,0,0,.6-2.4,2.73,2.73,0,0,1,0-3v-0.6l1.2-3.6c0-1.8-1.2-3-.6-4.8a1.53,1.53,0,0,1,0-1.8c0.6-3,0-5.4,0-7.8,1.2-1.2,1.2-2.4,1.2-4.2l1.2-1.8c0-.6,0-1.2-0.6-1.2l-0.6-1.2c-0.6-.6-0.6-1.8-0.6-3h0.6c0.6-1.2,0-3,.6-4.8v-1.2a4.69,4.69,0,0,0,0-3h0.6v-1.8c-0.6-.6,0-1.8.6-2.4-0.6-.6,0-1.8-0.6-3a11.71,11.71,0,0,0,.6-4.2,13.22,13.22,0,0,1,.6-4.8c0.6-2.4.6-3.6,1.2-4.2a2.22,2.22,0,0,0-1.2-1.8c1.2-2.4,1.2-3.6,1.8-5.4-0.6-1.2,0-1.2,0-1.8,0.6-1.2.6-3.6,1.2-4.2a11.86,11.86,0,0,1,1.2-6v-3.6c0.6-1.2.6-3.6,1.2-5.4,0-2.4.6-4.2,1.2-7.2v-1.2c0.6,0,.6-1.2,1.2-1.8,0.6-2.4,0-4.8,1.2-6,0.6-.6,0-1.2,0-1.8v-2.4a7.39,7.39,0,0,0,1.2-4.2c0-.6.6-1.2,0.6-2.4a18.57,18.57,0,0,1,1.2-4.8,1.29,1.29,0,0,0,1.2-1.2c0.6-1.2.6-1.8,0-2.4,1.2-1.2,1.2-1.8,1.8-3.6,0-1.8.6-3,1.2-4.8a4.56,4.56,0,0,1,1.2-2.4l2.4-6.6a2.2,2.2,0,0,1,.6-1.8c0.6-1.8,0-3.6.6-4.8a12.07,12.07,0,0,1,2.4-4.8s0.6-.6,0-0.6a3.17,3.17,0,0,1,1.2-1.8,6,6,0,0,1,.6-1.8l-0.6-1.8c1.8-1.8,3-3,3.6-5.4,0.6-.6,1.2-1.8,2.4-1.2a6.48,6.48,0,0,1,1.8-4.2c1.2-2.4,1.8-3,2.4-4.8,1.2-1.2,1.2-1.8,2.4-3,0-.6,0-1.8.6-1.8,0-.6.6-0.6,0.6-1.2l1.2-.6c0.6,0,1.2-.6,1.2,0,0-1.2,1.8-1.8,2.4-2.4,1.2-.6,1.2-1.8,2.4-2.4l0.6-.6c1.2,0,2.4-1.8,4.2-1.2h1.8c1.2,0.6,1.8,0,3.6.6,0.6,0,1.8,0,4.2,1.8a20.27,20.27,0,0,1,5.4,14.4,22.49,22.49,0,0,0,.6,6,68.83,68.83,0,0,0-.6,11.4A21.22,21.22,0,0,0,1338,960.1Zm-92.4,249.6c0.6-1.8,0-3.6-.6-3-1.2,1.2-1.2,1.8-1.2,2.4-0.6-.6-0.6.6-0.6,1.2-0.6,1.2-1.8,1.8-2.4,1.2q-0.9,0-1.8,1.8c-0.6,1.2-1.8,2.4-2.4,2.4a8.31,8.31,0,0,0-1.8,2.4l-1.2,1.8c-0.6,1.2-1.2,1.2-1.8,2.4-0.6,1.8-1.8,1.8-3,3a8.28,8.28,0,0,0-1.8,2.4,4.48,4.48,0,0,1-1.8,1.8c0-.6-0.6-0.6-1.2,0a6.41,6.41,0,0,0-1.8,3c-0.6-.6-1.2,0-1.8.6a1.69,1.69,0,0,0-1.2,1.8c-0.6,1.8-.6,2.4-1.8,1.8v1.2l-3,1.2c-0.6.6-1.2,0.6-1.8,1.8a0.59,0.59,0,0,1-.6.6c-1.2,1.8-1.8,1.2-3,2.4a3.11,3.11,0,0,0-1.2,2.4h-0.6c-1.2.6-1.8,0.6-3,1.2-0.6-.6-1.2,0-1.8,1.2l-2.4,2.4a0.59,0.59,0,0,1-.6.6,5.18,5.18,0,0,1-3.6,1.8,0.83,0.83,0,0,0-1.2,0c-1.2,1.8-1.2,2.4-2.4,3-1.2,1.2-1.8,1.8-3,.6l-0.6.6a6.86,6.86,0,0,0-1.8,4.2,5.49,5.49,0,0,1-1.8,3c-0.6,0-.6,0-1.2,1.2a3.6,3.6,0,0,1-.6,2.4,8.54,8.54,0,0,0-1.2,3.6c0,0.6-.6.6,0,1.2-0.6,1.2,0,1.8-1.2,2.4v1.2c0.6,2.4-.6,4.2-0.6,5.4h-0.6a1.82,1.82,0,0,0,0,2.4,4.58,4.58,0,0,1-1.2,3,6.53,6.53,0,0,1-.6,3c0,1.8.6,4.2,0,6-1.2,1.8-1.8,4.8-2.4,6,0,0.6-.6,1.2-0.6,1.8,0.6,1.2.6,2.4-.6,3,0,0,0,1.2.6,1.2,0,1.8-.6,2.4.6,3a2.1,2.1,0,0,1,1.2.6c0,2.4.6,3,1.8,3.6,0.6,0,1.2-.6,1.8-0.6,1.2-1.8,1.2-1.8,3-2.4,0.6-.6,1.2-2.4,1.8-2.4,0.6-.6,1.2-0.6,1.8-1.8h0.6a42,42,0,0,0,5.4-3.6c-0.6-.6,0-1.2.6-2.4a8.25,8.25,0,0,0,1.8-2.4c1.2-1.2,2.4-3,4.2-4.2,0,0,.6.6,0.6,0a10.67,10.67,0,0,1,4.2-4.8c0.6-2.4,2.4-3.6,3-6l1.2-.6a1.2,1.2,0,0,0,.6-1.2c-0.6-1.2,0-1.2.6-2.4,0-.6.6-0.6,1.2-1.8a74.85,74.85,0,0,1,4.8-7.2,24.32,24.32,0,0,1,3-5.4,2.4,2.4,0,0,1,1.2-2.4l1.2-1.8c1.2-1.8,2.4-3,3-5.4,0-1.2,1.2-1.8,1.8-2.4,0-.6,1.2-1.8,1.2-2.4a12.58,12.58,0,0,0,2.4-6.6c1.2,0,1.2-.6,2.4-1.2v-2.4a5.19,5.19,0,0,1,1.8-3.6c0.6-2.4,1.8-3.6,3-5.4,0-1.2.6-1.2,0.6-1.2,0-1.8,1.8-3.6,1.8-5.4a7.33,7.33,0,0,0,1.8-5.4c0.6,0,1.2-.6,1.2-1.8,0.6-.6.6-1.8,0.6-3.6l1.2,0.6c0-1.8,1.2-3.6,1.8-4.8v-1.8Zm14.4,138,1.2-.6a0.59,0.59,0,0,0-.6-0.6Zm64.8-404.4c0.6-3,1.2-5.4.6-7.8v-3.6l-0.6-2.4c-1.2,0-1.8-.6-3.6-0.6-0.6,0-.6.6-1.2,0.6-0.6,1.2-.6,1.8-1.2,1.8a6.34,6.34,0,0,0-3,1.2c0,1.2-.6,1.8-1.8,1.2v0.6l-1.2,1.2a4.68,4.68,0,0,0-1.8,2.4,5.48,5.48,0,0,0-1.8,3h-0.6a29.28,29.28,0,0,0-1.8,4.2l-0.6.6c-0.6,1.2-1.2,1.8-1.2,3-1.2,1.8-1.2,3-1.8,4.2-1.2,0-1.2,1.2-2.4,2.4-0.6,0-.6.6-1.2,0.6a8.52,8.52,0,0,1-1.2,3.6,6.53,6.53,0,0,1-.6,3c-0.6.6,0,1.2-.6,2.4-0.6,1.8-.6,3.6-1.8,4.2,0,0.6-.6,1.2-0.6,3l-0.6.6c-0.6,1.8-.6,3-1.2,4.2,0,0.6,0,1.2-.6,1.2a13.22,13.22,0,0,0-.6,4.8c0,0.6.6,1.8-1.2,1.8-1.2.6-1.2,1.8-1.2,3.6a4.48,4.48,0,0,1-1.8,1.8v4.2c-1.2,1.8,0,4.2-1.8,6,0,3,0,4.8-1.2,6.6a6.87,6.87,0,0,0,0,3.6,3.18,3.18,0,0,0-1.2,1.8,8.91,8.91,0,0,1-1.2,5.4v0.6a1.2,1.2,0,0,1-.6,1.2v7.2a15.25,15.25,0,0,0-1.2,4.2,6.47,6.47,0,0,0-1.2,4.2c0,1.2-.6,1.8-0.6,2.4,0,1.2-.6,2.4-0.6,3.6v4.8h-0.6a11.71,11.71,0,0,1-.6,4.8c0,2.4-1.2,4.8-.6,6v0.6c0,1.8.6,3.6,0,6a14.07,14.07,0,0,1-1.2,6.6l-0.6,6c0.6,0.6,0,1.8,0,2.4a4.54,4.54,0,0,1,.6,2.4c-1.2,1.8-.6,2.4,0,3v1.8c-0.6,1.8-.6,4.2-1.2,6.6a7.6,7.6,0,0,1-.6,3.6v1.8a2.64,2.64,0,0,0,.6,3,8.9,8.9,0,0,1,.6,4.2c-0.6,1.8-2.4,3.6-1.8,4.8,0,0.6-.6.6-0.6,1.2a6.53,6.53,0,0,0-.6,3c0,0.6,0,2.4-.6,3l-0.6,2.4a10.2,10.2,0,0,1,.6,4.2,1.13,1.13,0,0,1,0,1.8c-0.6,0-.6,1.2-0.6,2.4l-1.2,3v0.6c1.8,1.2.6,2.4,0,3v1.8c1.2,1.2,1.2,1.2.6,3-0.6.6,0,.6,0,1.8-0.6,1.2,0,2.4,0,3-0.6,1.8,0,2.4,0,2.4,0.6,1.2.6,1.2,0.6,0,0.6-1.8,1.8-2.4,1.8-3l0.6-1.2c0.6-.6.6-2.4,1.2-3.6l0.6-1.8,1.8-1.8a19.11,19.11,0,0,1,1.8-5.4c0-.6,1.2-3,1.2-4.8,0-.6.6-1.2,0.6-1.8,0.6,0,.6-1.2.6-1.2,1.2-1.2.6-3,2.4-3a26,26,0,0,0,.6-3c0.6-1.2.6-3,1.2-4.2v-0.6c0-.6,1.2-1.2,1.2-1.8a4.58,4.58,0,0,1,1.2-3l1.2-1.8,0.6-4.8c1.2-.6,1.2-0.6,1.2-1.2a3.61,3.61,0,0,1,.6-2.4c0-1.8,1.2-3,2.4-4.8-0.6-1.8,0-3.6,1.2-5.4a11.69,11.69,0,0,0,.6-4.8s1.2-1.2.6-1.8a3.3,3.3,0,0,1,1.2-3c0-1.8,1.2-3,1.2-4.8,0.6-.6.6-1.2,0.6-3v-0.6c0.6-.6,1.2-1.8,2.4-2.4,0-3,1.2-5.4.6-7.2l0.6-1.2,1.8-4.8c0.6-.6.6-3,1.2-4.2,0.6,0,0-1.2,0-1.2a1.2,1.2,0,0,1,.6-1.2c0.6-1.8.6-3,2.4-5.4v-0.6c-0.6-1.2,0-2.4,0-3v-1.2c0.6-1.8,1.8-3.6,1.8-6,0-1.2,0-1.8.6-2.4a0.59,0.59,0,0,0,.6-0.6c0-1.2,0-3,.6-3.6l1.2-1.2v-4.2c0-1.8,1.2-3.6,1.2-5.4,1.2-1.2,1.2-3.6,1.8-6v-2.4a2.09,2.09,0,0,0,.6-1.2v-2.4a8.92,8.92,0,0,0,1.2-5.4c0-1.2,1.2-2.4,1.2-3.6,1.2-.6,1.2-1.8,1.2-3a0.59,0.59,0,0,0,.6-0.6c0-1.8.6-3,.6-4.2,0.6-1.2.6-3,1.2-4.8-0.6,0-.6-1.2,0-3a5.07,5.07,0,0,0,0-4.2c0.6,0,.6-1.8,1.2-2.4v-3.6l0.6-1.2c0-1.2,0-1.8-.6-2.4a4.41,4.41,0,0,0,1.2-3.6,6.52,6.52,0,0,1,.6-3,12.26,12.26,0,0,1,0-6.6c-0.6,0-.6-1.2,0-2.4C1324.77,944.5,1325.37,943.9,1324.77,943.3Z" transform="translate(-287.86 -922.17)"/><path d="M1317,1190.5a6.33,6.33,0,0,1,3-1.2,1.2,1.2,0,0,1,1.2-.6c1.2,0,1.8-1.2,3.6-.6,0.6-1.2,1.8-.6,3.6-1.8h8.4c0,0.6.6,0.6,0.6,1.2h1.2c0.6,0.6,2.4,0,3,1.2,1.2,0,1.8,0,1.8.6s1.2,0.6,1.2.6c1.2,1.2,1.8,1.8,3,1.8v0.6c0.6,0,.6.6,1.8,1.8v0.6a2.2,2.2,0,0,0,.6,1.8,1.86,1.86,0,0,1,.6,1.2v2.4a3.61,3.61,0,0,1-.6,2.4c-1.2-.6-1.8-1.2-1.8-2.4v-0.6a1.69,1.69,0,0,1-1.2-1.8v-0.6a2.68,2.68,0,0,1-1.8-2.4,0.83,0.83,0,0,0-1.2,0c-1.8.6-1.8-.6-2.4-1.2a1.86,1.86,0,0,0-1.2-.6h-1.8c0-.6-0.6-0.6-0.6,0-1.2.6-1.8,1.2-3,1.2h-0.6c-1.2,0-1.2.6-1.8,0.6-1.2,0-1.8.6-3.6,1.2a4.64,4.64,0,0,0-1.8.6h-0.6c-1.2.6-1.2,1.8-2.4,2.4-1.8,0-1.8,1.2-2.4,2.4-1.2,0-1.8.6-3,1.2,0,1.2-1.2,2.4-1.8,3a2.2,2.2,0,0,0-.6,1.8,1.29,1.29,0,0,1-1.2,1.2v0.6a1.29,1.29,0,0,1-1.2,1.2,3,3,0,0,0,.6,1.8,1.2,1.2,0,0,0-.6,1.2,4.59,4.59,0,0,1-1.2,3v1.8a11.7,11.7,0,0,0,.6,4.8v1.8l0.6,2.4a2.21,2.21,0,0,1,.6,1.8q1.8,0.9,1.8,1.8a4.64,4.64,0,0,0-.6,1.8l0.6,0.6c0.6,1.8.6,2.4,1.2,2.4l0.6,0.6c0,1.2,0,1.2.6,1.2v1.2c-0.6.6-.6,1.2,0.6,1.2a25.94,25.94,0,0,1,.6,3,1.2,1.2,0,0,1,.6,1.2v1.2l1.2,0.6c-0.6,1.2,0,1.2.6,0.6,1.8,0,3,0,3-.6,1.2,0,2.4-.6,4.2-0.6a0.59,0.59,0,0,1,.6.6c1.2,0,1.2,0,1.2-.6,1.8-.6,2.4-1.8,2.4-2.4h1.2c1.8-.6,1.8-0.6,2.4-0.6h1.8c0,0.6,0,.6,2.4,1.2,0.6-.6,1.8-0.6,1.8-1.8l0.6-.6c0.6,0.6,1.2,0,2.4,0a6.44,6.44,0,0,0,3.6-1.2c1.2,0,1.8-.6,4.2-1.2,0.6-.6,1.2-0.6,2.4-0.6,1.2,0.6,3,.6,3.6,0,1.2-.6,1.8-0.6,3.6,0v-0.6c0.6,0,1.8-.6,2.4-0.6,0-.6.6-0.6,1.2-0.6,0.6,0.6,1.2,0,1.8,0,0-1.2,1.2-.6,2.4-0.6,1.2,0.6,1.8.6,3-.6l1.2-.6c1.8,0,3-.6,3.6,0h1.2c0.6-.6,1.2-0.6,2.4-0.6,0.6,0,1.2.6,1.2,0s0.6-.6,1.8-0.6c0.6,0,1.2-.6,2.4,0,0.6,0,1.8-.6,1.8-1.2l0.6,0.6c0.6-.6,1.2,0,1.8-0.6l1.2-1.2a1.2,1.2,0,0,0,1.2.6,42.27,42.27,0,0,0-4.2,5.4h-0.6c-0.6.6-1.2,0-1.8,0h-0.6c-1.2.6-2.4,0.6-3,1.2h-1.2c0-.6,0-0.6-0.6-0.6-1.2,1.8-2.4,1.2-3.6,1.8,0,0.6,0,.6-1.2,0a2.2,2.2,0,0,0-1.8.6h-1.2c-1.8-.6-2.4,0-4.2,0a11.72,11.72,0,0,1-4.2.6h-0.6c-0.6,1.2-3,1.2-4.2,1.2-0.6-.6-1.8.6-3,0.6h-0.6c-0.6,0-2.4,1.2-3.6,1.8-0.6-.6-1.8,0-3.6,0a1.86,1.86,0,0,0-1.2.6c0-.6-0.6,0-1.2,0a8.9,8.9,0,0,1-4.2.6,0.59,0.59,0,0,1-.6-0.6,3.18,3.18,0,0,0-1.8,1.2l-0.6.6c0,0.6-.6.6-1.2,1.2v-0.6a8.67,8.67,0,0,0-4.2,1.2h-1.8a2.2,2.2,0,0,1-1.8.6c-1.2,1.2-1.8,1.8-3,1.2a1.86,1.86,0,0,0-1.2.6,3.12,3.12,0,0,1-2.4,1.2v1.2a3.18,3.18,0,0,1-1.2,1.8c-0.6.6,0,.6,0.6,1.2-0.6,0,0,1.2-.6,1.2,0,0.6-.6,2.4,0,3-0.6,0-.6.6-0.6,1.8v0.6c-0.6,1.2-.6,2.4-2.4,3.6,0,0.6-.6.6-0.6,1.2a2.13,2.13,0,0,1-1.8,1.2c-2.4,1.8-3,1.8-4.2,3h-0.6c-1.2.6-2.4,0.6-2.4,1.8,0,0.6-1.2,0-1.8.6a0.83,0.83,0,0,0-1.2,0H1308c-1.2.6-1.8,0.6-3.6,0a0.59,0.59,0,0,0-.6.6c-1.2,0-1.8,0-2.4-.6-0.6,0-1.2-.6-1.8-0.6a5.84,5.84,0,0,0-5.4-.6h-1.8c-1.2-.6-1.8-0.6-2.4-1.2-1.2,0-1.8,0-1.8-.6s-0.6-1.2-.6-1.8c-1.8,0-.6-1.8-0.6-3a3.18,3.18,0,0,1,1.2-1.8c0.6,0,1.2-.6,1.8-0.6l0.6-.6c1.8-.6,2.4-0.6,3-1.8l2.4-2.4v0.6c3-.6,3.6-1.2,4.8-2.4l0.6-.6a3.61,3.61,0,0,1,2.4-.6l0.6-.6c1.2-.6,1.2-1.2,1.8-1.2l1.8-1.2c0.6,0.6.6,0.6,1.2,0s2.4-.6,3.6-1.2a0.59,0.59,0,0,0,.6-0.6c0.6,0,.6-0.6,1.2-0.6a3,3,0,0,0,.6-1.8c0-.6-0.6-1.8-1.2-1.8a6.52,6.52,0,0,1-.6-3v-1.8l-0.6-.6a1.2,1.2,0,0,0-1.2-.6c0-.6,0-0.6-0.6-0.6s-0.6-.6-0.6-1.2a17.5,17.5,0,0,0-1.2-5.4l-0.6-.6v-1.2c-0.6,0-1.2-1.2-1.2-1.2v-2.4l-0.6-.6c-1.2-.6-1.8-0.6-1.2-2.4-1.8-.6-1.8-1.8-1.8-3.6v-3.6a2.2,2.2,0,0,1-.6-1.8v-3a1.86,1.86,0,0,1,.6-1.2c0-1.2-.6-1.8-1.2-3.6v-0.6c0.6-1.8.6-3.6,1.2-5.4,1.2-.6,1.2-0.6,1.2-1.8,0-.6,1.2-1.2,1.2-2.4,0-.6.6-1.2,0.6-2.4,0.6,0,1.8,0,1.8-.6,0.6-.6,1.8-0.6,2.4-1.8,1.2,0,1.8-.6,3-1.2,0.6-.6.6,0,1.2-0.6,0-.6,1.2-0.6,1.2-0.6Zm-16.2,78c0-.6,1.2-0.6,2.4,0,0.6,0,1.2-1.2,2.4-1.2a3.12,3.12,0,0,1,2.4-1.2l0.6-.6c0.6-1.2,1.2-1.2,1.2-1.8,1.2,0,1.2-.6,1.8-0.6a3.18,3.18,0,0,1,1.2-1.8c1.2-.6,2.4-2.4,3-3a2.63,2.63,0,0,0,.6-1.8h-0.6a6.53,6.53,0,0,0-3-.6c-0.6,1.2-.6,1.2-1.2,1.2a0.83,0.83,0,0,0-1.2,0l-1.8.6-0.6.6c-0.6-1.2-1.8,0-2.4.6-0.6-.6-0.6,0-0.6.6s-0.6,1.8-1.2,1.8c-1.2,0-1.2,0-1.8.6-1.2,0-1.8.6-2.4,0.6H1299a2.4,2.4,0,0,1-2.4,1.2c-0.6,0-.6.6-1.2,0.6v1.2a2.4,2.4,0,0,0-1.2,2.4c0.6,0,1.2-.6,1.8,0h0.6c0.6,0,1.8,1.2,2.4.6h1.8Z" transform="translate(-287.86 -922.17)"/><path d="M1471.77,1138.9c-1.2-1.2-2.4-.6-3.6,0h-0.6c-1.8,0-3,1.8-4.8.6-2.4,1.8-15.6-.6-16.8.6-1.2-.6-2.4.6-3.6-0.6-0.6.6-1.8,0-1.8,0-0.6,1.8-1.8,1.2-3,0-1.2.6-3,0-4.8,0-0.6-.6-2.4,2.4-3,0.6h-1.2c-2.4,1.2-4.2,0-6,1.2l-3-.6c-0.6,1.8-.6,4.8-1.2,7.2,0,4.2-1.2,4.8-1.2,8.4-1.2,5.4-2.4,9.6-3,13.2-2.4,13.2-4.2,22.8-5.4,24.6-0.6,3-.6,4.8-1.2,6.6a40.29,40.29,0,0,1-3.6,9c0.6,2.4-1.2,3.6-1.8,6.6-1.2,3-1.8,7.8-3,13.8a74.72,74.72,0,0,1-2.4,9.6c-1.2,3-2.4,6-2.4,9.6v1.2c-2.4,7.2-1.8,13.2-3,21,0,1.2.6,1.8,0.6,3.6a3.61,3.61,0,0,1,.6,2.4c0,3,4.2,1.2,3,5.4l0.6,0.6c1.2,0,6,1.8,7.2,1.2l5.4-3c2.4-1.8,3-1.2,5.4-3.6,0,0.6.6-.6,1.2,0.6,0.6,0.6,3.6-3,5.4-4.8,1.2-1.2,2.4-.6,3.6-1.8l0.6-2.4c2.4-1.2,3.6-3,4.2-3,1.8-1.2,2.4-3,3-4.8l6-6a14.93,14.93,0,0,1,3-4.2h0.6c1.8-1.8,2.4-3.6,3.6-5.4,1.2-.6,1.8-1.2,2.4-1.2,1.2,0.6.6-.6,1.8-2.4,0.6-1.2,3.6-5.4,6-5.4l1.8-2.4,1.2-3.6h0.6c2.4,0,6.6-9.6,10.8-8.4-0.6,4.8-1.8,4.8-3,7.2v0.6l-8.4,10.2a3.61,3.61,0,0,0-2.4.6l-3,3.6a45.28,45.28,0,0,0-5.4,5.4c-0.6,1.8-.6,1.8-1.2,1.8-1.2.6-2.4,3.6-3,3.6l-4.2,5.4-9.6,9.6c-1.2,2.4-2.4,3.6-3,3.6a16,16,0,0,1-3,3.6,4.68,4.68,0,0,1-2.4,2.4h-0.6c-2.4,4.8-9.6,7.8-10.2,8.4a4.61,4.61,0,0,0-1.8,1.2c-1.8.6-1.8,2.4-14.4,5.4-1.2,0-.6-1.2-1.2-1.2-0.6-1.2-.6-1.2-1.8-1.2-0.6-.6-2.4-1.8-3-3-1.2-1.8-1.2-6-3-7.8,0.6-3.6-.6-4.2-1.2-6.6l-1.8-7.2c-0.6-1.8-.6-4.2-1.2-6a34.23,34.23,0,0,0,.6-7.8l1.2-10.2,4.2-19.2c1.2-4.2,0-7.8,1.8-10.8l1.2-3c0.6-4.8,2.4-9.6,3.6-13.2,0.6-1.8.6-3,1.8-3.6,0-1.2,0-3,.6-3l2.4-12,0.6-1.2v-0.6c0.6-3,1.2-7.2,3-10.8v-3c1.2-9.6,2.4-4.8,3.6-15h0.6c0-.6-0.6-0.6-0.6-1.8,0-.6,1.8-6,2.4-6v-1.2l-0.6-.6,1.2-.6h-1.2v1.2c-2.4.6-6-1.2-7.2,0h-0.6c-0.6.6-1.8-.6-1.8-0.6h-2.4c-1.8-1.2-3-.6-4.2,0-0.6-.6-3.6-0.6-4.2,0l-1.2.6c-2.4-.6-14.4-2.4-17.4-1.8l1.8-3.6c1.2-2.4,9-1.2,10.2-1.2a7.61,7.61,0,0,0,3.6-.6h2.4c1.8-.6,16.8,0,18.6-0.6,4.2,1.2,5.4-4.2,6-3.6l0.6-.6c-0.6-.6,0-1.2.6-1.8-0.6,0-.6-0.6-0.6-1.2,0-1.2.6-1.2,2.4-6.6v-0.6l2.4-7.2a26,26,0,0,1,.6-3c1.8-4.8,3.6-12.6,5.4-19.8,0.6-4.2,2.4-9,4.2-14.4,0.6-1.2,1.2-1.8,1.2-2.4,0.6-2.4,1.2-4.8,3-6.6,0.6-.6.6-0.6,0.6-1.8,0-3,0-4.8,1.2-6,0.6-1.2,1.8-3.6,1.2-6a4.32,4.32,0,0,1,2.4-4.2c0.6-1.8,2.4-2.4,3-3,0.6,0.6,1.8.6,2.4,2.4a14.16,14.16,0,0,0-.6,7.2c-1.2,3-2.4,5.4-2.4,8.4v0.6c0,2.4-1.2,5.4-1.2,7.2a8.79,8.79,0,0,1-1.2,2.4c0,1.8-1.2,3-1.8,5.4,0,2.4-.6,4.2-0.6,6a56.32,56.32,0,0,0-3.6,14.4,12.8,12.8,0,0,0-1.8,7.2c0,2.4-1.8,3-1.2,5.4,0,0.6-.6.6-1.2,1.8a5.41,5.41,0,0,1-.6,3,47.79,47.79,0,0,0-1.8,9c-1.2,1.2-.6,2.4-3,7.2,0.6,0.6.6,0.6,0,1.8h0.6a6.52,6.52,0,0,1,3,.6,10.49,10.49,0,0,0,3-.6s6.6,0.6,7.8,1.2c1.2-.6,1.2-0.6,1.8,0,1.2,0,2.4,0,3,.6,1.2-1.2,4.2-1.2,4.2-1.2,0.6-.6,3,1.8,5.4.6h0.6c2.4-1.8,7.2,1.2,9.6,1.2h0.6c2.4-1.2,6-.6,7.8-0.6l1.2-.6c0.6,0.6.6,0,1.2,0.6l2.4-.6h0.6l1.2,0.6C1476.57,1135.9,1477.77,1139.5,1471.77,1138.9Z" transform="translate(-287.86 -922.17)"/><path d="M1559.37,1211.5c-0.6,0-1.8,1.2-2.4,1.8-0.6,0-.6.6-1.2,0.6l-0.6.6h-3.6l-5.4.6h-3a2.2,2.2,0,0,1-1.8.6,1.12,1.12,0,0,1-1.8,0h-1.2c-0.6.6-1.2,0-1.8,0-0.6.6-.6,0.6-1.2,0h-0.6a0.59,0.59,0,0,0-.6-0.6,1.68,1.68,0,0,1-1.8,1.2h-1.8c-0.6,0-1.2.6-2.4,0-1.2.6-1.8,0.6-2.4,0-0.6,0-1.2.6-2.4,0.6h-0.6c-0.6-.6-1.2,0-1.2.6h-1.2a1.86,1.86,0,0,0-1.2.6h-3.6a4.54,4.54,0,0,0-2.4,1.2,3.18,3.18,0,0,1-1.2,1.8v0.6a1.2,1.2,0,0,0-.6,1.2v0.6c0,0.6,0,1.2-.6,1.2v0.6l-0.6.6a1.2,1.2,0,0,1-1.2.6c0,0.6-1.2,1.8-.6,2.4,0,0.6.6,1.2-.6,2.4l-0.6.6v0.6a2.2,2.2,0,0,1-.6,1.8,3.18,3.18,0,0,1-1.8,1.2c0,0.6-.6,1.2-0.6,1.8v1.8a10.76,10.76,0,0,0-3,4.2,2.1,2.1,0,0,0-.6,1.2,0.59,0.59,0,0,1-.6.6s0.6,0.6,0,.6v1.8l-1.2.6c0,1.2-.6,1.2-1.2,2.4H1497c0,0.6-.6.6-0.6,1.2a2.09,2.09,0,0,1-1.2.6v2.4a0.59,0.59,0,0,0-.6.6,1.2,1.2,0,0,1-.6,1.2,0.59,0.59,0,0,0-.6.6l-0.6.6a2.09,2.09,0,0,0-.6,1.2,1.2,1.2,0,0,1-.6,1.2,1.29,1.29,0,0,0-1.2,1.2v0.6a2.2,2.2,0,0,0-.6,1.8,1.2,1.2,0,0,1-.6,1.2h-0.6c-0.6,0-.6.6-0.6,1.2l-0.6.6a2.09,2.09,0,0,0-.6,1.2c0.6,0.6.6,0.6-.6,1.2,0,0.6-.6.6-0.6,1.2v1.2c-0.6,0-.6.6-0.6,1.2v0.6a3.18,3.18,0,0,0-1.2,1.8c0,0.6,0,1.2-.6,1.2,0,0.6-.6.6-0.6,1.2a0.59,0.59,0,0,0-.6.6c0.6,0,0,.6,0,0.6-0.6,0-.6.6-1.2,0.6v1.2l-1.8,1.8c0,0.6,0,1.2.6,1.2l-0.6.6a1.2,1.2,0,0,0-.6,1.2,3.18,3.18,0,0,1-1.2,1.8,1.68,1.68,0,0,0-1.8,1.2,1.2,1.2,0,0,1-.6,1.2,0.83,0.83,0,0,0,0,1.2,1.86,1.86,0,0,0-.6,1.2,3.61,3.61,0,0,1-.6,2.4v0.6c-0.6,0-1.2.6-1.8,0.6h-0.6c-0.6.6-1.2,0-2.4,0,0-1.2-1.2-1.2-1.2-1.8H1467l-0.6-.6a8.29,8.29,0,0,0-1.8-2.4c-0.6-.6-0.6-1.2-0.6-2.4,0.6-.6,0-2.4-0.6-3.6v-1.8c0.6-1.2,0-1.8,0-2.4v-3.6l-0.6-.6a1.13,1.13,0,0,0,0-1.8v-0.6c0.6-1.2.6-2.4,0-3v-4.2a1.2,1.2,0,0,0-.6-1.2v-2.4c0.6-.6.6-1.2,0-3v-4.2a1.13,1.13,0,0,0,0-1.8,3.6,3.6,0,0,1,.6-2.4v-0.6c-0.6-.6,0-0.6,0-1.2v-4.2a1.2,1.2,0,0,0,.6-1.2c-0.6,0,0-.6,0-0.6v-3c0-.6.6-0.6,0.6-1.2h-0.6v-1.8l0.6-2.4v-3.6a2.2,2.2,0,0,1,.6-1.8c-0.6-.6-0.6-1.8,0-3a10.2,10.2,0,0,0-.6-4.2v-0.6a3.6,3.6,0,0,0,.6-2.4,1.2,1.2,0,0,1-.6-1.2c0-1.2.6-1.8,0.6-3,0.6-1.2,1.2-1.8,3-1.2,1.2,0,2.4.6,2.4,1.2l1.2,1.8a0.59,0.59,0,0,1,.6.6s-0.6.6,0,.6v1.8a0.59,0.59,0,0,0,.6.6,2.09,2.09,0,0,0,.6,1.2,2.2,2.2,0,0,0-.6,1.8c0.6,0.6,0,1.8.6,2.4v3s-0.6,0,0,.6a1.86,1.86,0,0,1-.6,1.2l0.6,0.6v1.2l-0.6.6a2.2,2.2,0,0,1,.6,1.8v1.2a0.59,0.59,0,0,0,.6.6H1473c0,0.6-.6.6,0,1.2-0.6,0-.6.6-0.6,1.2v5.4a0.59,0.59,0,0,0,.6.6l-0.6.6v16.8c0,0.6.6,1.2,0.6,1.8a11.71,11.71,0,0,0,.6,4.2c0,0.6,1.2.6,1.8,0.6a2.2,2.2,0,0,1,1.8.6,4.55,4.55,0,0,0,2.4-1.2c0-.6,0-0.6.6-0.6v-0.6c0-.6,0-0.6.6-0.6,0.6-.6,1.2-0.6,1.2-1.2,0.6-.6.6-1.8,2.4-2.4,0.6-.6.6-1.8,1.8-2.4v-0.6a1.68,1.68,0,0,1,1.2-1.8,8.29,8.29,0,0,1,1.8-2.4,3.18,3.18,0,0,1,1.2-1.8v-0.6c0-.6.6-1.2,0.6-1.8h0.6c0.6,0,.6,0,0-0.6l0.6-.6a2.64,2.64,0,0,0,.6-3l2.4-1.8a1.86,1.86,0,0,1,.6-1.2,2.09,2.09,0,0,1,.6-1.2,2.2,2.2,0,0,1,.6-1.8c0-.6,0-1.2.6-1.2,0-.6,1.2-1.2,1.2-3a1.29,1.29,0,0,0,1.2-1.2c0.6,0,.6-0.6.6-1.2l0.6-.6a2.09,2.09,0,0,0,.6-1.2v-1.2a0.59,0.59,0,0,0,.6-0.6c0-1.2.6-1.8,1.2-1.8a3886.19,3886.19,0,0,0,1.2-3.6l0.6-1.2a2.2,2.2,0,0,0,.6-1.8c0.6-1.2,1.2-1.8.6-2.4s0-.6,0-0.6l1.2-1.2v-3a0.59,0.59,0,0,1-.6-0.6l1.2-1.8,0.6-.6c0-.6.6-0.6,0.6-1.2a1.2,1.2,0,0,1,1.2-.6c1.2,0.6,1.8,0,2.4,0h3.6c1.2,0,2.4,0,3,.6h0.6c1.2-.6,2.4,0,3,0h2.4c0.6,0,1.2.6,2.4,0,1.2,0.6,1.8,0,3,0,0.6,0,.6.6,1.2,0,0,0,.6.6,0.6,0h12a4.59,4.59,0,0,1,3-1.2l4.8-.6h2.4c0.6-.6,3-0.6,3.6-1.2l1.8,1.8Z" transform="translate(-287.86 -922.17)"/><path d="M1645.77,1229.5l-0.6,2.4v0.6c-0.6,1.2-1.2,1.2-1.2,1.8a4.68,4.68,0,0,0-2.4,2.4c-1.2,0-1.2.6-1.8,0a0.59,0.59,0,0,0-.6.6,10.53,10.53,0,0,1-2.4,3h-0.6c-0.6.6-.6,1.2-1.2,1.2v0.6l-3,1.2-0.6.6-1.2,1.8c0,0.6-1.2,1.8-2.4,2.4-0.6.6,0,.6-0.6,1.2a1.29,1.29,0,0,1-1.2,1.2v0.6h-1.2a2.09,2.09,0,0,1-.6,1.2c0,0.6-.6,0-0.6,0-0.6.6-1.2,0.6-1.2,1.2l-1.2,1.2s-0.6.6-.6,0l-0.6.6h-0.6c-0.6,0-.6,1.2-0.6,1.2,0,1.2-.6,1.2-1.8,1.8v0.6c0,0.6-.6,0-1.2,0a1.2,1.2,0,0,0-.6,1.2,8.27,8.27,0,0,0-2.4,1.8,1.86,1.86,0,0,0-1.2.6,3,3,0,0,0-.6,1.8c0-.6-0.6,0-1.2.6,0-.6-0.6,0-0.6.6s-1.2.6-1.8,1.2c0-.6-0.6,0-0.6,0l-0.6.6c-0.6.6-.6,1.2-1.2,1.2a2.09,2.09,0,0,1-1.2.6c0,0.6-.6,0-1.2,0-1.2,0-1.8.6-2.4,1.8l-0.6.6h-3l-0.6-.6a4.68,4.68,0,0,0-3,0h-1.2c-0.6.6-1.2,0-1.8-.6h-0.6a10.13,10.13,0,0,0-3-1.2c-0.6,0-1.8-.6-1.8-2.4v-0.6c0-.6,0-0.6-0.6-0.6a4.49,4.49,0,0,1-.6-3,1.82,1.82,0,0,0,0-2.4c-1.2-.6-0.6-1.8-1.2-3,0.6-1.8-.6-2.4-1.2-3a1.86,1.86,0,0,1,.6-1.2c0-.6-0.6-1.2-0.6-1.8,0.6-.6,0-0.6,0-1.2v-3a1.86,1.86,0,0,1-.6-1.2,2.1,2.1,0,0,0,.6-1.2v-1.8a3,3,0,0,0-.6-1.8s0.6,0,0-.6c0,0,0-.6,1.2-1.2l-1.2-.6c0-.6.6-0.6,0-1.2a3.12,3.12,0,0,1,1.2-2.4,3,3,0,0,1-.6-1.8,0.59,0.59,0,0,0,.6-0.6c0-1.2.6-2.4,0.6-3.6,0.6,0,0-.6.6-1.2v-0.6c0.6,0,0-1.2,0-1.2,0-1.2,0-1.2-.6-1.2l-0.6,1.2c0,0.6-.6,1.2-0.6,2.4a0.59,0.59,0,0,1-.6.6c-1.2.6-1.2,1.2-1.2,1.2-0.6,0-.6.6-1.2,0.6-0.6,1.2-1.8,1.2-1.8,1.8a1.13,1.13,0,0,0,0,1.8,4.68,4.68,0,0,0-2.4,2.4h-0.6l-0.6,1.2a8.63,8.63,0,0,1-1.2,1.8l-0.6.6c-0.6,0-.6,0-0.6.6-0.6.6-.6,1.8-1.2,1.8,0,0.6-1.2,1.2-1.8,1.2-0.6-.6-0.6,0-1.2.6l-0.6.6c-0.6,0-1.8,1.2-.6,1.8-1.2,0-1.2.6-1.2,0.6v1.2a1.18,1.18,0,0,1-1.2,1.2c-1.2,0-1.2,0-1.2,1.2l-0.6.6-0.6.6c0,1.2-1.8,2.4-2.4,2.4H1557a1,1,0,0,1-1.2,1.2h-1.2c0,1.2-1.2.6-1.8,0.6,0,0.6-.6,0-1.2,1.2-2.4-1.8-3-1.8-3.6-1.8-1.2,1.2-2.4-.6-3.6-1.8,0-1.2,0-2.4-.6-2.4a6.52,6.52,0,0,0-.6-3c0-.6-1.2-1.2-1.2-1.8l0.6-.6a6.53,6.53,0,0,1,.6-3c0-.6-1.8-0.6-0.6-3,0.6-.6,0-1.2,0-1.8,0,0-.6-0.6.6-1.2v-0.6c0-.6,1.2,0,1.2-1.2v-2.4l0.6-.6,0.6-2.4H1545a13.1,13.1,0,0,0,1.8-3,2.09,2.09,0,0,0,.6-1.2,1.2,1.2,0,0,1-.6-1.2c0.6,0,1.2-1.2,1.8-1.2l0.6-3.6c0.6,0,0-1.2,1.2-1.2a1.2,1.2,0,0,1,.6-1.2c0-1.2-.6-2.4,1.2-3.6v-0.6c1.2-.6,1.2-0.6,1.2-1.2,0.6-.6.6-1.2,1.2-0.6l1.8-3h0.6c1.2,0,.6,0,1.2-1.2,2.4-2.4,4.8-2.4,4.8-3a0.59,0.59,0,0,0,.6-0.6c0.6,0,.6-0.6,1.2-1.2l0.6,0.6,0.6-.6c0.6-.6,1.8-1.2,1.8-1.8,2.4-1.2,4.2,0,4.8-.6,0,0,3,1.2,3,.6,0.6-.6,1.2.6,1.2,0.6l4.8,0.6c0,0.6.6,0,.6,0s1.8,1.2,1.8.6h0.6l2.4,1.2,0.6,0.6v1.2l1.2,1.2c0.6,0.6.6,0.6,0,1.2H1587c-0.6.6-.6,0-0.6,0l-2.4-.6c0-.6,0-1.2-0.6-0.6-0.6-.6-1.2,0-1.8-1.2a0.59,0.59,0,0,0-.6-0.6c-1.8.6-1.8,0-3.6,0.6-1.2,1.2-1.8,1.8-3,1.8h-0.6c-1.2,0-1.2,0-1.8,1.2a17,17,0,0,0-5.4,3.6c-0.6.6-.6,0.6-1.8,0.6h-1.2c0,1.2,0,1.8-1.2,1.8l-0.6.6c0.6,0.6,0,1.2,0,1.8,0,0-1.2,0-1.2.6a0.59,0.59,0,0,0-.6.6h-0.6c0,0.6-.6.6-0.6,1.2v0.6a3.12,3.12,0,0,1-1.2,2.4,2.2,2.2,0,0,0-.6,1.8v1.2c-0.6,0-.6.6-1.2,0.6-1.2.6-1.2,1.8-1.2,3,0,0.6-.6.6-0.6,1.8l-0.6.6c-0.6,0,0,.6,0,0.6,0,0.6-1.2,1.2-1.2,1.8v0.6c-0.6,0-.6,1.2-0.6,2.4H1551v2.4a0.59,0.59,0,0,1-.6.6c0,1.2,0,1.8-.6,2.4,1.2-.6,1.2,0,1.2,1.8v3.6c0,0.6.6,1.2,1.8,1.2,0-.6,1.2-1.2,1.2-1.2,0,0.6,1.2,0,1.2,0,0.6,0.6,1.8,0,3.6-1.2,1.2-.6,2.4-0.6,2.4-1.2a3.18,3.18,0,0,1,1.2-1.8c0.6-.6.6,0,0.6-0.6l0.6-.6a3.13,3.13,0,0,1,3-2.4v-0.6c0.6-.6,1.2-0.6,1.2-1.8l0.6-.6c0.6,0,.6,0,0.6-0.6a1.2,1.2,0,0,0,1.2-.6,1.2,1.2,0,0,1,.6-1.2,0.59,0.59,0,0,1,.6-0.6s0-.6.6,0c0.6,0,.6-1.2.6-1.2a1.68,1.68,0,0,1,1.2-1.8,2.21,2.21,0,0,0,.6-1.8,8.25,8.25,0,0,0,1.8-2.4,0.59,0.59,0,0,0,.6-0.6h1.2a1043.19,1043.19,0,0,1,1.2-1.2c0.6,0.6.6,0,.6,0,0.6-1.8,1.2-2.4,1.8-2.4,0-.6.6,0,0.6-0.6v-1.2a1.86,1.86,0,0,0,.6-1.2,0.59,0.59,0,0,1,.6-0.6c1.2,1.2.6,0,.6-0.6,0.6,0,.6-0.6,1.8-1.2l0.6-.6v-1.8c1.2,0,1.2-.6,1.8-0.6l1.2-1.8c0.6,0,.6,0,0.6-0.6l1.2-1.2c-0.6-.6,0-1.2,0-1.8l0.6-.6a1.2,1.2,0,0,0,.6-1.2c0-.6,1.8-1.8,1.8-1.8l0.6-.6a3.27,3.27,0,0,1,3-1.8,0.59,0.59,0,0,0,.6-0.6c0.6-1.2,1.8-.6,2.4,0s0.6,1.8,0,1.8c0,0.6-.6,1.2,0,1.2-0.6,0,0,1.2-.6,1.2a1.2,1.2,0,0,1-1.2.6v1.2c-0.6,1.2-1.2,1.8-1.2,2.4,0.6,0.6.6,0.6,0,1.2l-0.6.6c0,0.6-.6,1.8-1.2,1.8v0.6a0.59,0.59,0,0,0,.6.6c-0.6.6-1.2,1.8-1.8,1.8,0,1.2,0,1.2-.6,1.2s-0.6,0,.6.6c0,0.6,0,2.4-.6,2.4s-1.2,0-1.2.6v1.8c1.2,0.6,1.2,1.2-.6,1.2v4.8a3.18,3.18,0,0,1-1.2,1.8,0.59,0.59,0,0,0,.6.6c-0.6.6,0,1.2-.6,1.8h-0.6v1.8a0.59,0.59,0,0,0,.6.6c0,0.6.6,1.2,0,1.8v0.6a1.2,1.2,0,0,1,.6,1.2c0,0.6-1.2.6-1.2,1.2,1.2,1.2,1.8,1.8,1.2,3h-0.6a1.13,1.13,0,0,1,0,1.8l0.6,0.6c1.2,0.6.6,1.8,1.2,3-0.6,1.2,0,1.8,0,3.6v1.2a25.94,25.94,0,0,1-.6,3c0.6,0.6,1.2,1.2.6,1.2v1.2q0.9,0,0,1.8s0,0.6,1.2,1.2a1.53,1.53,0,0,1,0,1.8h0.6l0.6,0.6,1.2,0.6c0-.6.6,0,0.6,0,0-.6,0-0.6.6-0.6h1.2c1.2,0.6,2.4-.6,3-1.2h1.2c0-.6,0-0.6,1.2-0.6l0.6-.6s0.6,0,.6-1.2h0.6c1.2,0,1.8-1.2,3-.6a1.2,1.2,0,0,0,.6-1.2,2.09,2.09,0,0,0,.6-1.2s0-.6.6,0a0.59,0.59,0,0,0,.6-0.6,2.2,2.2,0,0,1,1.8-.6,0.59,0.59,0,0,0,.6-0.6v-0.6a1.2,1.2,0,0,0,.6-1.2c0.6,0,.6,0,0.6-0.6,1.2,0.6.6,0,1.2-.6l1.2-.6c0.6,0,.6-0.6,1.2-1.2,0-.6,1.2-0.6,1.2-1.8,0.6,0.6.6,0,1.8,0l0.6-.6c0.6-.6,1.2-0.6,1.2-1.8,0.6,0,1.2-.6,1.8,0,0.6-1.2.6-1.8,1.8-1.8v-1.2l0.6-.6v-0.6a0.59,0.59,0,0,0,.6-0.6c0.6,0,1.2,0,1.2-.6,0.6,0,.6-1.2,1.8-1.2,0-.6.6-0.6,0-1.2,0.6,0,1.2.6,1.8,0.6,0.6-.6.6-0.6,0.6-1.8,0-.6.6-1.2,1.8-1.2l0.6-.6s0-.6.6,0l0.6-.6c0-.6,0-0.6.6,0l1.2-1.2a3,3,0,0,0,1.8-.6c0.6-1.8,1.2-2.4,1.2-3h2.4c0-.6,0-1.8.6-1.8h0.6Zm-82.8-54.6,0.6-.6h1.2c0.6-.6,1.2-0.6,1.2-1.8a2.21,2.21,0,0,0,1.8-.6l0.6-.6,1.2-.6,1.2-1.2-0.6.6,1.2-.6a8,8,0,0,0,3-1.8c0.6-.6,1.2-0.6,1.8-1.2a1.86,1.86,0,0,0,1.2-.6,0.59,0.59,0,0,0,.6-0.6c1.8-.6,1.8-1.8,3.6-2.4,1.8-1.2,3.6-1.8,4.8-3,2.4-1.2,3-3,3.6-4.8a2.1,2.1,0,0,0,1.2-.6l1.2-1.2a5.4,5.4,0,0,0,.6-3c0-.6.6-0.6,1.2-0.6,1.2,1.2,3,2.4,3,3.6a8.92,8.92,0,0,1,.6,3.6c0.6,0.6,0,1.2,0,1.8l-1.2,1.8c0,0.6,0,1.2-.6,1.2,0,1.8-1.8,3-3.6,4.2a9.78,9.78,0,0,1-3.6,1.8,18.25,18.25,0,0,1-4.2,3c-1.8.6-6.6,2.4-7.2,2.4-7.2,2.4-9,2.4-10.8,3-0.6,0-1.2.6-2.4,0A1.29,1.29,0,0,1,1563,1174.9Z" transform="translate(-287.86 -922.17)"/><path d="M1763.36,1231.9a0.83,0.83,0,0,0-1.2,0v0.6l-1.8,1.8h-0.6l-0.6.6v1.8l-1.8,1.2a0.59,0.59,0,0,1-.6.6l-2.4,1.8c-0.6,0-1.2,0-2.4,1.2a3.18,3.18,0,0,1-1.8,1.2c-0.6,0-.6.6-1.2,1.2l-2.4,1.8a4.55,4.55,0,0,1-2.4,1.2c-0.6,0-1.2.6-1.8,0.6l-1.8,1.2c-1.2,1.2-2.4,1.2-3.6,2.4l-1.2,1.2-1.8,1.8h-1.2c-1.2,0-1.8,1.2-2.4,1.2a3.17,3.17,0,0,1-1.8,1.2c-0.6-.6-1.2.6-1.8,1.2a2.2,2.2,0,0,1-1.8.6c-1.8,0-2.4,1.8-3.6,2.4l-2.4,1.8a9.55,9.55,0,0,0-5.4.6c-5.4,3.6-8.4,4.2-7.8,3.6,0-.6,0-0.6-1.2-0.6-0.6-.6-0.6-0.6-0.6,0h-1.2s-1.8-1.8-3.6-1.2c-1.2.6-1.8,0-3-.6-2.4-1.2-1.2-3.6-1.8-3l-0.6-1.2-1.2-1.2-3-1.8c0-.6-1.2,0-1.2-0.6s0.6-.6,0-1.2c-0.6,0-.6-0.6-1.2-1.2,0-.6-0.6-0.6-1.2-0.6a2.63,2.63,0,0,0-.6-1.8,1.2,1.2,0,0,0,.6-1.2,4.65,4.65,0,0,0-.6-1.8v-3c0-.6-0.6-9-1.2-10.2,0-1.2,1.2-1.8.6-2.4v-1.8c0-1.2.6-1.8,0-1.8,0.6-1.2,0-1.8.6-3a0.83,0.83,0,0,0,0-1.2,4.54,4.54,0,0,0,.6-2.4c0.6,0,.6-0.6.6-1.2v-0.6c-0.6-.6,0-0.6,0-0.6,0-.6,0-1.2-0.6-1.2h-0.6c-0.6-.6-1.2-0.6-1.2,0a3.18,3.18,0,0,0-1.8,1.2c0,0.6,0,1.2-.6,1.2-1.2,0-1.2,0-1.8.6h-0.6c-0.6,0-.6.6-1.2,1.2v1.2a1.15,1.15,0,0,0-1.8.6h-0.6c-0.6,0-.6,0,0,0.6-0.6.6-.6,1.2-1.2,0.6a1.2,1.2,0,0,0-1.2.6,1.2,1.2,0,0,1-.6,1.2l-0.6.6c0,0.6-.6,0-1.2.6a1.92,1.92,0,0,0-1.8,1.8c-0.6.6,0,1.2-1.2,1.2a0.59,0.59,0,0,1-.6.6c-0.6,0-.6,0-0.6.6v1.2a0.59,0.59,0,0,0-.6.6c-0.6-.6-0.6-0.6-0.6,0l-3,3c-1.2,0-1.2,0-1.2.6v0.6c-0.6.6-1.2,0.6-1.2,1.2l-0.6.6c0.6,0,0,0,0,.6H1659a1.2,1.2,0,0,0-1.2.6c-0.6.6-.6,1.2-1.2,1.2-0.6.6-.6,1.2-1.2,1.2l-0.6.6c0.6,0.6.6,1.2,0,1.2l-1.2,1.8a3.18,3.18,0,0,0-1.8,1.2v0.6a0.59,0.59,0,0,0-.6.6v0.6l-0.6.6c-1.2.6-1.2,1.2-1.8,1.2-0.6.6,0,.6,0,1.2a1.29,1.29,0,0,0-1.2,1.2c-0.6,0-.6.6-0.6,1.2a1.29,1.29,0,0,1-1.2,1.2,0.83,0.83,0,0,0,0,1.2l-0.6.6,0.6,0.6c-1.2,1.2-1.8,2.4-2.4,2.4,0,0-.6.6-0.6,0-0.6,0-1.8,1.8-1.8,1.8l-1.2-1.8-0.6-.6-2.4-.6c0-1.2-.6-1.2-0.6-1.8-1.2,0-2.4-3.6-2.4-4.2l1.2-1.8v-0.6c-0.6,0,0-.6.6-1.8,0.6-.6-0.6-0.6,0-1.2,0-.6.6-0.6,0.6-1.2-0.6-.6-0.6-0.6,0-0.6a8,8,0,0,0,.6-3v-1.2a0.59,0.59,0,0,1,.6-0.6,1.2,1.2,0,0,1,.6-1.2v-1.2c0.6,0,.6,0,0-1.2v-0.6c0.6,0,.6,0,0.6-0.6,0.6,0,.6-0.6.6-1.2s0.6-.6.6-1.2v-1.2l0.6-1.2v-1.2a6,6,0,0,1,.6-1.8,1.2,1.2,0,0,1,.6-1.2l0.6-.6v-0.6c-0.6-2.4,0-3,0-4.2l0.6,0.6c0.6-1.2,0-1.2,0-2.4,0.6,0,.6-1.2,1.2-1.2,0.6-.6.6-1.2,0-1.2a2.63,2.63,0,0,0,.6-1.8,2.09,2.09,0,0,0,1.2-.6c0-.6-0.6-1.2-0.6-1.8,0.6,0,4.8-10.2,4.8-9.6v-1.2h0.6c0-.6,1.2-3,1.2-3.6l-0.6.6c0.6-1.8,1.2-3,1.8-2.4a2.1,2.1,0,0,1,.6-1.2,1.86,1.86,0,0,0,.6-1.2c0.6-.6,1.2-0.6,2.4-1.2l3,0.6s2.4,1.2,2.4,1.8h0.6c0.6,0.6.6,0.6,0,1.2l-1.2,4.8c-0.6,0-4.8,10.8-4.8,11.4,0,2.4-.6,2.4-0.6,2.4,0.6,0,.6.6,0.6,1.2-1.2.6-.6,1.2-1.2,1.2v0.6c-0.6,0-.6.6-0.6,1.8l-0.6,2.4c-0.6.6-.6,0.6,0,1.2-0.6,1.8-1.2,2.4-1.2,3.6a0.83,0.83,0,0,1-1.2,0v1.2c0.6,0.6,0,1.2-.6,2.4,0,0.6-1.2.6-1.2,0.6-0.6,1.2,0,2.4.6,2.4a3.18,3.18,0,0,1-1.2,1.8c0,0.6.6,1.2,0,1.2v3c-0.6,0-1.2,1.2,0,1.2,0,0-.6-1.2,0-1.2l1.8-1.2c-0.6,0,.6-0.6.6-1.2h1.2a2.09,2.09,0,0,0-.6-1.2c0.6-.6,1.2,0,1.2-0.6v-0.6a4.61,4.61,0,0,1,1.8-1.2,2.2,2.2,0,0,0,.6-1.8,5.49,5.49,0,0,0,3-1.8v-0.6c0.6,0,.6-0.6,1.2-1.2s0.6-1.2,1.8-1.8c0-.6,0-0.6,1.2-1.2,0,0,.6,0,0.6-1.2,0-.6.6-1.2,1.8-1.2v-1.2a2.09,2.09,0,0,0,1.2-.6,1.86,1.86,0,0,1,1.2-.6c0.6,0,.6-0.6.6-1.2v-0.6a6.53,6.53,0,0,0,3-.6v-0.6c-0.6,0,.6,0,0.6-0.6h0.6v-0.6l1.2-1.2c1.2,0,1.8-.6,3-1.2h1.2l-0.6-.6c2.4-2.4,2.4-3,3-2.4,0-.6,1.2-1.2,1.2-0.6a4.48,4.48,0,0,1,1.8-1.8c0.6,0,3,1.8,3,1.8,1.2-.6,3-0.6,3,0a0.59,0.59,0,0,0-.6.6c0.6-.6,1.2,1.2,1.8,1.8,0.6,0,1.8,0,0,2.4v0.6c0.6,0,.6.6,0.6,1.2,1.2,0.6-.6,1.2-0.6,1.8-0.6.6,0,.6-0.6,1.8l0.6,2.4v1.8l-0.6-.6a4.53,4.53,0,0,1,.6,2.4c0,0.6.6,1.2,0,1.8a3,3,0,0,0,.6,1.8l-0.6,1.2v2.4s1.2,4.8.6,6h-0.6c0.6,0.6,1.8,1.2,1.2,1.8a0.83,0.83,0,0,0,0,1.2v0.6c0,0.6-.6.6,0,1.2a1,1,0,0,0,1.2,1.2h0.6c-0.6.6-.6,1.2,0,1.2,1.2,1.8,1.8,7.8,8.4,8.4a0.59,0.59,0,0,0,.6.6l1.2,0.6a1.79,1.79,0,0,0,2.4.6h0.6a8.8,8.8,0,0,0,2.4,1.2c0-.6,4.2-3.6,6-4.8l1.8-.6,2.4-1.2c1.2-.6,2.4-2.4,4.2-2.4h1.2c1.2-.6,2.4-0.6,3-1.2l2.4-1.8,1.8-1.2c0.6,0,1.2-1.2,1.8-.6a2.1,2.1,0,0,0,1.2-.6l0.6-.6,1.2-.6,2.4-1.8c1.2-.6,1.8-1.2,2.4-1.2,1.2-.6,1.8-1.8,3-2.4a3.12,3.12,0,0,1,2.4-1.2c0.6,0,1.8-1.2,2.4-1.8a3.18,3.18,0,0,0,1.8-1.2,1.86,1.86,0,0,1,1.2-.6c1.8-1.2,2.4-2.4,3.6-3h-0.6a1.2,1.2,0,0,1,.6-1.2c0-1.2,0-2.4.6-2.4,0-1.2,0-1.2.6-1.2l0.6-1.2c0.6-.6.6-0.6,1.8-0.6a6.52,6.52,0,0,1,3,.6,1.68,1.68,0,0,0,1.2,1.8C1764.56,1229.5,1764,1231.3,1763.36,1231.9Zm-112.2-28.8v0Zm15,33" transform="translate(-287.86 -922.17)"/></svg>