<svg id="Layer_1_copy_3" data-name="Layer 1 copy 3" xmlns="http://www.w3.org/2000/svg" viewBox="0 0 301.41 34.27"><title>lantosistvan-logo-frolicky04</title><g id="Frolicky_Swashes_04_JO" data-name="Frolicky + Swashes 04 JO"><path d="M114.3,50.27a0.93,0.93,0,0,1-.42.21,9.4,9.4,0,0,1-1.43.24,2.12,2.12,0,0,1-.53.07,1.61,1.61,0,0,1-.49.25,2.94,2.94,0,0,0-.59.17,7.6,7.6,0,0,0-1.19.49,4.28,4.28,0,0,0-.84.77,1.73,1.73,0,0,0-.84.91s0,0.1-.07.1a0.21,0.21,0,0,1-.17.07,0.46,0.46,0,0,1-.17,0,3.89,3.89,0,0,0-.25-0.38,2.07,2.07,0,0,0-.25-0.84,1.22,1.22,0,0,1,.31-1c0.11-.18.18-0.31,0.25-0.46s0-.28.11-0.25a7.46,7.46,0,0,0,1.33-.49,0.13,0.13,0,0,0,.07-0.07c0.1,0,.24.14,0.35,0.17s0,0,.07,0a0.5,0.5,0,0,1,.49-0.28,3.58,3.58,0,0,1,.88-0.28,1.91,1.91,0,0,1,.77,0,0.21,0.21,0,0,0,.21,0,1,1,0,0,1,.46,0,3,3,0,0,1,.35.07,1.22,1.22,0,0,0,.52-0.31,0.83,0.83,0,0,1,.67-0.14,0.83,0.83,0,0,0,.28-0.07,0.76,0.76,0,0,0,.28,0,0.58,0.58,0,0,0,.49,0,3,3,0,0,1,1.29-.18,0.81,0.81,0,0,1,.14,0,0.39,0.39,0,0,1,.46.07,1.12,1.12,0,0,0,.67.21,1.31,1.31,0,0,1,.74-0.31,0.8,0.8,0,0,0,0,.14l0.1,0a2.72,2.72,0,0,1,1.19-.07c0.35,0,.95,0,1.37,0a7.89,7.89,0,0,0,.91,0,2.46,2.46,0,0,1,.52,0,0.72,0.72,0,0,1,.25.17,0.48,0.48,0,0,0,.32,0c0-.17.28-0.1,0.49-0.17a3.16,3.16,0,0,1,.38.21H124a0.72,0.72,0,0,1,.74-0.1,0.49,0.49,0,0,0,.32.1c0.28,0,.17-0.07.17-0.1a0.6,0.6,0,0,1,.35,0c1.26,0,2.63.07,3.82,0.14a3,3,0,0,1,.56,0,1.32,1.32,0,0,0,.42,0,9.59,9.59,0,0,1,1,0,1,1,0,0,1,.35.14,0.73,0.73,0,0,0,.49.07c0.1,0,.35,0,0.49-0.07a7.24,7.24,0,0,1,.88,0,1.31,1.31,0,0,1,.31.07,5.42,5.42,0,0,1,1.08,0,0.52,0.52,0,0,1,.28.1,0.82,0.82,0,0,0,.38,0c0.14-.1.18,0,0.28,0a0.75,0.75,0,0,0,.42.07c0.14-.07.14-0.14,0.21-0.1a5.4,5.4,0,0,0,.77,0,0.09,0.09,0,0,0,.1.1,0.5,0.5,0,0,0,.32,0,1.55,1.55,0,0,1,.7-0.07,0.69,0.69,0,0,0,.25,0c0.42,0,.77,0,1.26,0,0.74,0,1.5,0,2.31,0a16.39,16.39,0,0,0,1.82-.1h0.07a7.83,7.83,0,0,0,.91,0,9.15,9.15,0,0,0,1,0c0.42,0,.95-0.1,1.37-0.17,0.77-.07,1.5-0.14,2.34-0.18a0.25,0.25,0,0,1,.14-0.07c0.7-.17,1.47-0.25,2.21-0.42,0.56-.07,1-0.21,1.58-0.32a17,17,0,0,0,2.7-.73c0.49-.25.91-0.46,1.37-0.7a19.27,19.27,0,0,0,2.1-1.58l0.53-.14a2.17,2.17,0,0,0-.38.63c-0.18.49-1.08,0.91-2.94,2.17a0.48,0.48,0,0,1-.38.14c-0.42.18-.88,0.28-1.3,0.49a11,11,0,0,1-1.33.28c-1.85.38-3.78,0.77-5.71,1-1.47.18-3,.25-4.52,0.31-1.16.07-2.24,0.07-3.33,0.07-0.87.07-1.58,0-2.42,0-0.45,0-.91,0-1.33,0-0.7,0-1.43,0-2.21,0a7.32,7.32,0,0,1-1.5,0h-0.46a7,7,0,0,1-1.71,0,4.27,4.27,0,0,0-.67,0c-0.81,0-1.47-.07-2.24-0.17a0.68,0.68,0,0,0-.53,0,1.71,1.71,0,0,1-1,.07,3.54,3.54,0,0,0-.88-0.1,4,4,0,0,1-1.29,0,5.44,5.44,0,0,1-1.29,0s-0.07,0-.14,0c-1,.1-2.1,0-3.12.14s-1.72,0-2.59.07a18.78,18.78,0,0,0-2,.25,3,3,0,0,1-.81,0,0.12,0.12,0,0,1,.07-0.14s-0.07,0-.07,0v0.1Zm-5.42.18h0l0,0a0.07,0.07,0,0,1,0-.07s0.07,0,.14,0h-0.07Zm7.74-.56h0Z" transform="translate(-107.05 -25.35)"/><path d="M168.21,28.29a1,1,0,0,0,0,.31,8.53,8.53,0,0,1-.35,1.58,4.48,4.48,0,0,1-.28.81,0.63,0.63,0,0,1-.14.31c-0.1.14-.1,0.28-0.21,0.42a9.43,9.43,0,0,1-1,1.86,4.57,4.57,0,0,0-.63.88,3.53,3.53,0,0,0-.35.77,2.44,2.44,0,0,1-.11.49,2.47,2.47,0,0,0-.21.67l-0.1.38a3.27,3.27,0,0,0-.21.63s-0.11.1,0,.14a1,1,0,0,0-.25.7,0.21,0.21,0,0,1,0,.14,1.31,1.31,0,0,0-.1.14,3.51,3.51,0,0,1-.32.91,1.55,1.55,0,0,1-.17.77c-0.07.42-.25,0.88-0.35,1.33a0.19,0.19,0,0,0-.07.17,5.59,5.59,0,0,0-.18.73c-0.07.21-.07,0.46-0.14,0.63a6.9,6.9,0,0,1-.14.73,3.57,3.57,0,0,1-.14.49,0.57,0.57,0,0,1-.1.56,1.26,1.26,0,0,1-.07.39c0,0.38-.14.73-0.21,1.12s0,0.56-.07.84c-0.1.49-.21,1-0.28,1.4a0.73,0.73,0,0,0,0,.38,0.58,0.58,0,0,1-.14.56,1,1,0,0,0-.14.49,5.23,5.23,0,0,0-.07.7c0,0.07,0,.18,0,0.21a0.7,0.7,0,0,1,0,.52l-0.11,1.23c0,0.42-.07.94-0.07,1.4s0,0.7,0,.95l-0.11.81a1.46,1.46,0,0,0,0,.77,2.38,2.38,0,0,1,0,.46,0.43,0.43,0,0,0,0,.21,0.55,0.55,0,0,1,.11.52,0.11,0.11,0,0,0,0,.1,1,1,0,0,1,.42.42,2.69,2.69,0,0,0,.56-0.1,1.21,1.21,0,0,0,.63-0.18,0.42,0.42,0,0,1,.25-0.14,0.57,0.57,0,0,0,.38-0.31l0.07,0.1h0l2.45-2.24a0.12,0.12,0,0,0,.07-0.1c0.25-.21.38-0.38,0.56-0.52a3.72,3.72,0,0,0,.52-0.52l0.14-.14a0.36,0.36,0,0,0,.17-0.28c0.28-.42.7-0.8,0.95-1.12a0.19,0.19,0,0,1,.07-0.1,0.15,0.15,0,0,1,.11-0.1,2.25,2.25,0,0,0,.46-0.63A18,18,0,0,0,171,49.67a0.48,0.48,0,0,1,.14-0.1l0.94-1.23a12.21,12.21,0,0,1,.95-1.37l1.29-1.79a4.9,4.9,0,0,0,.46-0.77,0.19,0.19,0,0,1,.11-0.07,1.11,1.11,0,0,1,.21.56c-0.21.46-1.71,2.21-2.07,2.73s-0.59,1-.84,1.44a1.37,1.37,0,0,0-.17.31l-0.11.14c-0.14.25-.35,0.42-1.54,2a2.55,2.55,0,0,1-.32.39,0,0,0,0,1,0,.07,2.79,2.79,0,0,1-.63.88c-0.17.28-.31,0.6-0.46,0.81a0.26,0.26,0,0,0-.1.25,4.55,4.55,0,0,1-.35.52A2.81,2.81,0,0,0,168,55a0.08,0.08,0,0,1-.07.1,1.84,1.84,0,0,0-.49.56,0.84,0.84,0,0,1-.21.35,0.71,0.71,0,0,0-.42.42,1.28,1.28,0,0,1-.52.42,0.12,0.12,0,0,0,0,.07L163.51,59a5.66,5.66,0,0,1-1.44.6,1.58,1.58,0,0,1-.84-0.14,0.52,0.52,0,0,0-.35-0.1,1.78,1.78,0,0,1-.77-0.28c0-.07,0-0.14-0.11-0.1a0.46,0.46,0,0,0-.17,0,1.25,1.25,0,0,0-.35-0.39,1.52,1.52,0,0,0,0-.17L159.14,58a1,1,0,0,1,0-.56V57.3a1.37,1.37,0,0,1-.14-0.63,1.71,1.71,0,0,1,0-.38,6,6,0,0,1-.1-0.77,1.86,1.86,0,0,1-.14-0.6c0-.14,0-0.35-0.07-0.56v-0.1a2.07,2.07,0,0,0,0-.81,1.25,1.25,0,0,1,.14-0.38,3,3,0,0,1,0-.56,0.08,0.08,0,0,0,.07-0.07,6.68,6.68,0,0,1,0-1.68,0.42,0.42,0,0,1,0-.21c0.07-.46.21-1.05,0.32-1.51a4.58,4.58,0,0,0,.1-0.91,3.56,3.56,0,0,1,.25-0.6,0.17,0.17,0,0,1,.07-0.18,0.1,0.1,0,0,0-.07-0.1,0.78,0.78,0,0,0,.17-0.67,3.72,3.72,0,0,0,.28-0.94,1.49,1.49,0,0,1,.07-0.42,5.07,5.07,0,0,0,.25-1,1.58,1.58,0,0,1,.07-0.17,0.83,0.83,0,0,0,.11-0.42,0.13,0.13,0,0,1,0-.11,0.76,0.76,0,0,0,.07-0.42c0,0.53,0-.31.35-0.94v0a2.82,2.82,0,0,0,.28-0.87,33.32,33.32,0,0,1,1.72-5.74,2.22,2.22,0,0,0,.07-0.25c0.1-.35.24-0.59,0.38-1,0,0,0,0,0-.07a3.06,3.06,0,0,1,.25-0.81,3.3,3.3,0,0,1,.1-0.31,2.82,2.82,0,0,1,.17-0.42c0-.07,0-0.1,0-0.17a1.18,1.18,0,0,1,.18-0.6,1,1,0,0,0,.17-0.46c0.25-.42.42-0.91,0.7-1.33A1.54,1.54,0,0,1,165,30a2.85,2.85,0,0,1,.39-0.81,0.81,0.81,0,0,1,.17-0.18,0.4,0.4,0,0,0,0-.21,3.4,3.4,0,0,1,1.33-.21,4.13,4.13,0,0,0,.56-0.28c0.14,0,.42-0.07.56-0.07A0.23,0.23,0,0,1,168.21,28.29Z" transform="translate(-107.05 -25.35)"/><path d="M181.75,42.67l0,0.28a0.9,0.9,0,0,0-.21.46,1.32,1.32,0,0,1-.21.59,0.53,0.53,0,0,0-.07.28v0.14c0,0.14-.07.17-0.1,0.17a0.38,0.38,0,0,1,0,.28s-0.56,2.73-.74,2.87l0,0.56c0,0.14,0,0-.14,1.58L180,51.74a0.66,0.66,0,0,1,.17.39,1.06,1.06,0,0,0,.14.31,1.45,1.45,0,0,0,.67.21h0.21a0.84,0.84,0,0,0,.53-0.14,7.47,7.47,0,0,1,.95-0.38,6.25,6.25,0,0,0,2.13-1.54l1.23-1.26,1.64-1.65s0.11,0,.07-0.07A35.54,35.54,0,0,1,191,44.25h0.46a1,1,0,0,1-.28.35c-0.21.18-3.36,3.85-3.61,4.06a2.69,2.69,0,0,1-.59.73,2.29,2.29,0,0,0-.32.28,5.62,5.62,0,0,1-.38.56,5.62,5.62,0,0,0-1,.84,7.69,7.69,0,0,1-1.61,1.51c-0.07,0-1.75.91-1.89,1a3.72,3.72,0,0,1-.74.1,2.87,2.87,0,0,1-2.17.1,0.79,0.79,0,0,0-.42-0.31c-0.14-.07-0.18-0.14-0.32-0.21S178,53.14,178,53a0.61,0.61,0,0,0,0-.25,0.75,0.75,0,0,1-.35-0.77,0.44,0.44,0,0,0,0-.21,1.65,1.65,0,0,1,0-.73c0-.35,0-0.67.07-1V50a1.19,1.19,0,0,0,.07-0.38,0.86,0.86,0,0,0,0-.42s0-.14,0-0.14c0-.25.11-0.42,0.11-0.56s0.07-.14.07-0.18a1.54,1.54,0,0,1,0-.17,9.11,9.11,0,0,1,.21-1.58c0.07-.39.14-0.84,0.17-1.23l0.07-.35a0.17,0.17,0,0,0,0-.31,3.24,3.24,0,0,1-.35.49,3.77,3.77,0,0,0-.56.88,4,4,0,0,1-.52.56s0,0.17-.11.07a0.2,0.2,0,0,1,0,.14,4.48,4.48,0,0,1-.38.42c-0.1.28-1.33,1.47-1.43,1.72a1.4,1.4,0,0,0-.56.56,2.12,2.12,0,0,0-.21.14,0.19,0.19,0,0,0,.11-0.07l0,0a0.37,0.37,0,0,1-.17.07,0.62,0.62,0,0,0-.17.14,1.8,1.8,0,0,1-.91.52,1.56,1.56,0,0,0-.38,0,1.42,1.42,0,0,1-.67,0,1.3,1.3,0,0,1-.42-0.25L171.7,50s0,0,0-.07a3.14,3.14,0,0,1-.25-0.35l-0.07-.39,0-.28,0,0s0,0,0,0l0,0.07a1.31,1.31,0,0,1,0,.35s0,0,0,0a0.11,0.11,0,0,1,.07,0l0.07-.73,0,0-0.11.25a0.11,0.11,0,0,1,0-.07,1.3,1.3,0,0,0,.07-0.42c0-.07.07-0.1,0.07-0.17a3,3,0,0,0,.07-0.46s0-.07,0-0.1,0,0,0,0l0.17-.1a0.19,0.19,0,0,0,0-.14,0.11,0.11,0,0,1,.11-0.1,0.17,0.17,0,0,0,0-.14,0.14,0.14,0,0,1-.07-0.07c0.95-3,3-3.82,3.82-3.89a0.45,0.45,0,0,1,.42,0,0.42,0.42,0,0,0,.28-0.07,5.68,5.68,0,0,1,1.12.07,0.24,0.24,0,0,1,.1.14,1.48,1.48,0,0,1,.84.14,0.27,0.27,0,0,1,.11.07c0-.07,0-0.14,0-0.25a0.39,0.39,0,0,0,.25-0.28,9,9,0,0,0,1.26-.53,0.51,0.51,0,0,1,.49-0.21,3,3,0,0,1,.8,0C181.71,42.36,181.82,42.5,181.75,42.67Zm-4.27,1c-0.14.18-.21-0.1-0.38,0a1,1,0,0,0-.32.07c-0.52.14-1.54,0.21-2.45,2.45-0.35,1.08-.84,3.12-0.07,2.63l1.23-1.19a10.41,10.41,0,0,0,1-1.16,2.54,2.54,0,0,1,.32-0.28,2,2,0,0,0,.53-0.7,4.93,4.93,0,0,0,1-1.51,2.23,2.23,0,0,0-.07-0.24,1.17,1.17,0,0,0-.49-0.14A2.23,2.23,0,0,0,177.48,43.69Z" transform="translate(-107.05 -25.35)"/><path d="M208,44.74a12.27,12.27,0,0,0-1.47,2.45,0.19,0.19,0,0,0-.07.1c-0.46.63-.94,1.23-1.36,1.93a5.33,5.33,0,0,1-.39.56L203.91,51c-0.35.63-1.16,2-1.58,2.59a12.06,12.06,0,0,1-.77,1.09,3.2,3.2,0,0,1-.42.31,1.13,1.13,0,0,0-.28.31c-0.28.25-.53,0.49-0.81,0.77a3.84,3.84,0,0,1-.87.6,2.9,2.9,0,0,1-1.65.31,4.11,4.11,0,0,1-1.82-.38,3.68,3.68,0,0,1-.7-0.95,1.44,1.44,0,0,1-.07-0.52A5.71,5.71,0,0,0,195,54.4a13.32,13.32,0,0,1,.91-3.36c0.46-1.37,1.68-2.8,2.27-4.1a16.4,16.4,0,0,0,.63-2,1,1,0,0,0,0-.77,0.68,0.68,0,0,1-.28,0,9.26,9.26,0,0,0-1.37.91c-0.46.46-.91,0.84-1.29,1.26s-0.53.52-.81,0.84l-0.21.21c-0.59.81-1.22,1.58-1.82,2.31a10.47,10.47,0,0,0-.95,1.58,2.9,2.9,0,0,1-.59.91,0.41,0.41,0,0,0,0,.35c0,0.1,0,.25,0,0.42a0.51,0.51,0,0,1-.14.6,12,12,0,0,1-2,.17,1,1,0,0,1-1.16-.49,1.06,1.06,0,0,1-.11-0.56,4,4,0,0,1,0-.91c0-.1,0-0.21,0-0.35a0.79,0.79,0,0,0,0-.25,2.38,2.38,0,0,1,.11-1l0.07-.87a18.73,18.73,0,0,1,.49-2.35c0.17-1,.53-2,0.7-3l0.14-.63a2.24,2.24,0,0,1,1.05-.38,7,7,0,0,0,1.29.1,0.34,0.34,0,0,1,.21.46l-0.11.91a1.92,1.92,0,0,0-.07.88,3.16,3.16,0,0,1,0,1.4,5.51,5.51,0,0,0-.21,1.82,0.34,0.34,0,0,1,0,.31,1.48,1.48,0,0,0-.21,1.26,0.62,0.62,0,0,0,.24-0.28,16.46,16.46,0,0,1,1.61-2c0.53-.67,1.08-1.33,1.65-1.93a15,15,0,0,1,2.1-1.86,3.62,3.62,0,0,1,1.61-.77c0.07,0,.18-0.07.25-0.07a0.76,0.76,0,0,1,1.08.63c0,0.39-.07.77-0.1,1.16s-0.17.95-.21,1.4a0.47,0.47,0,0,0,0,.17,0.73,0.73,0,0,1-.11.67,1.46,1.46,0,0,0-.31,1,0.61,0.61,0,0,0-.14.17,2.17,2.17,0,0,0-.59,1.16,3.85,3.85,0,0,1-.25.56,3.75,3.75,0,0,0-.14.6c-0.14.1-.14,0.1,0,0.25a1,1,0,0,0-.35.77,0.13,0.13,0,0,1,0,.21c-0.1.07-.28,0.14-0.21,0.21,0.35,0.42-.21,1.44-0.28,1.68a7.09,7.09,0,0,0-.24,1.93,0.93,0.93,0,0,0,1,.56,2.42,2.42,0,0,0,1.16-.49,13.2,13.2,0,0,0,1.75-2c0.32-.39,1-1.47,1.29-1.86l0.42-.6,1.36-2.1c0.28-.46.63-0.91,0.88-1.37l0.94-1.54c0.28-.46.81-0.91,1.12-1.4C207.76,44.07,208.42,44.18,208,44.74ZM190.78,43a3.57,3.57,0,0,1,.59-0.14Z" transform="translate(-107.05 -25.35)"/><path d="M231.94,35l0,0.14h-0.07s0,0-.07,0a1.93,1.93,0,0,1-.7-0.81,3.45,3.45,0,0,0-1-1.12c-0.25-.21-0.53-0.35-0.77-0.53a6.93,6.93,0,0,0-1.72-.8,8.93,8.93,0,0,0-.91-0.28c-0.46-.07-0.87-0.1-1.29-0.21l-0.1-.07c-0.46,0-.91,0-1.37-0.07-0.28,0-.53-0.07-0.81-0.07s-1.75,0-2-.07a2.84,2.84,0,0,0-.53.1h-0.07a8.06,8.06,0,0,0-1.4,0,8.93,8.93,0,0,0-1.37.1,4.22,4.22,0,0,1-.67,0h-0.17a0.49,0.49,0,0,1-.39,0,0.38,0.38,0,0,0-.17,0,0.09,0.09,0,0,0-.07.14,1,1,0,0,0-.46.07l-0.11-.07c-0.14-.07-0.14-0.07-0.25.07a0.17,0.17,0,0,1-.17,0,0.17,0.17,0,0,0-.17,0,1.16,1.16,0,0,1-.18.1c-0.24-.07-0.42.1-0.67,0a0.76,0.76,0,0,1-.14,0,1,1,0,0,1-.46.07l-0.1.14,0,0.14a0.07,0.07,0,0,1,0,.07c0,0.07,0,.14-0.07.21a0.13,0.13,0,0,0,.11,0v0.07a0.35,0.35,0,0,1-.21.28l-0.07.14a0.07,0.07,0,0,1,0,.07v0l-0.63.67-0.11.42a0.57,0.57,0,0,1-.1.21l-0.11.42-0.49,1.61s-0.11.07-.07,0.1a0.33,0.33,0,0,1-.14.38,0.53,0.53,0,0,1,.14.14c0,0.07-.17.18-1,3.89-0.07.31-.07,0.67-0.14,1l-0.14.56-0.07.25a20.66,20.66,0,0,0-.42,3.33V46.1a0.34,0.34,0,0,0,0,.31,0.19,0.19,0,0,1-.07.17,0,0,0,0,0,0,0l-0.07.07a0.38,0.38,0,0,0,0,.18v0a0.39,0.39,0,0,1,.11.21c0,0.07,0,.14-0.11.14s0,0.14,0,.21l0,0.1a0.27,0.27,0,0,1,0,.17l0,0.07a7.34,7.34,0,0,1-.07.88,0.11,0.11,0,0,0,0,.07v0.07l0,0.14v0.31l-0.17-.1a2.06,2.06,0,0,1,0-.81c0-.1.17-0.17,0-0.38s0.07-.28.07-0.46a0.31,0.31,0,0,0,0-.35c0-.14.07-0.35,0.07-0.46a2.24,2.24,0,0,1,.14-0.84s0-.07-0.1-0.07-0.07,0-.07.1l0,0.28a1.58,1.58,0,0,1-.1.56l0,0.1a0.91,0.91,0,0,0-.39,1V48.1c-0.14.07-.14,0.14,0.28,0.28v0.14c-0.42.18-.46,0.31-0.46,0.49a1.07,1.07,0,0,0-.07.28c0,0.1-.11.14,0,0.21a2.65,2.65,0,0,1,.59-0.1h0.07l0.17-.07v0l0,0.17a1.51,1.51,0,0,1,0,.18l0,0.38a1.16,1.16,0,0,0,0,.6,0.19,0.19,0,0,1-.07.17l0.11,0.84,0,0.49a1.42,1.42,0,0,1,.1.53l0,0.38,0,0.49c0.17-.46.17-0.14,0.28,0.1a1,1,0,0,1,.07.56,1.22,1.22,0,0,0,.17.28,5.39,5.39,0,0,0,.38.67,8.29,8.29,0,0,0,.56,1.12l1,0a0.77,0.77,0,0,1,.46-0.14c1.58-1.19,2-1.58,4.76-5.25,0.53-.67,1.16-1.51,1.82-2.52l0.25-.31,0,0,0.07-.1a1.11,1.11,0,0,0,.46-0.52l2.24-2.87c-0.14.35,1.29-.49-0.28,1.37L218,51.25l-1.68,2.38-1.64,1.79a24.91,24.91,0,0,1-2.59,2.06,1.54,1.54,0,0,1-.77.39,1.25,1.25,0,0,1-.39.1,0.76,0.76,0,0,1-.28,0,1.84,1.84,0,0,1-.46,0l-0.46-.17a0.67,0.67,0,0,1-.6-0.39,0.07,0.07,0,0,0-.07,0A10.85,10.85,0,0,1,208,56.11s-0.46-.07-0.8-1.54V54.33a0.07,0.07,0,0,1-.07,0V54.15c-0.25-.1-0.17-0.21-0.14-0.28l-0.11-.21L206.7,52.3a0.26,0.26,0,0,0,0-.14,0.17,0.17,0,0,0,0-.18l-0.07-.1V51.7a0.15,0.15,0,0,0,.11-0.1,1.94,1.94,0,0,1,0-.46l0-.63a0.94,0.94,0,0,0,0-.31,3.18,3.18,0,0,0,.35-0.28c0-.1,0-0.28,0-0.42s0,0,0-.07c-0.21.14-.21,0.14-0.21,0.31v0.07c0,0.07,0,.1-0.07.1a0.26,0.26,0,0,1-.07-0.1,1.29,1.29,0,0,1,.07-0.49,0.57,0.57,0,0,0,0-.25,0.29,0.29,0,0,1,0-.17l0-.18a0.86,0.86,0,0,1-.1-0.94,8.72,8.72,0,0,0,0-.95l0.1-.46a8.71,8.71,0,0,0,.17-1.19l0.18-.84c0.07-.28.07-0.56,0.14-0.87a1.91,1.91,0,0,0,.25-0.46,4.66,4.66,0,0,1,0-.7l0.35-1,0.6-2.91,0.21-.07,2.06-5.57c0,0.17,0,.07.07-0.18a0.08,0.08,0,0,0,.07-0.07c0-.07,0-0.21.07-0.28a0.77,0.77,0,0,1,.11-0.17h-0.07c-0.52.07-1,.17-1.58,0.21-0.07,0-.14,0-0.25,0s0.07-.18-0.07-0.14a0.19,0.19,0,0,0-.17.14,0.29,0.29,0,0,1-.42,0,0.13,0.13,0,0,1-.1,0l-0.21.25c-0.11,0-.25,0-0.32-0.14a0.19,0.19,0,0,0-.14,0,0.77,0.77,0,0,0-.11.18h-0.35a2.62,2.62,0,0,0-.53,0,6.8,6.8,0,0,1-.8.07,1.21,1.21,0,0,1-.7,0h-0.07a0.4,0.4,0,0,0,0-.21c-0.21,0-.31.21-0.42,0.1-0.21.07-.25,0.07-0.35-0.1a0.34,0.34,0,0,1-.28.07,0.11,0.11,0,0,0-.07,0,1.09,1.09,0,0,1-.8-0.11,0.22,0.22,0,0,0-.28,0H203l-0.14,0c-0.17,0-.31-0.24-0.38-0.1s-0.21.14-.35,0.07a0.6,0.6,0,0,1-.18.07c-0.1,0-.21.1-0.28,0a0.13,0.13,0,0,0-.11,0,0.68,0.68,0,0,1-.46,0l-0.52-.21a0.64,0.64,0,0,1-.35-0.25,0.11,0.11,0,0,1-.07,0,0.59,0.59,0,0,1-.14.18,0.07,0.07,0,0,0-.07,0,4,4,0,0,0-.77-0.42,0.19,0.19,0,0,1-.14-0.18,0.56,0.56,0,0,0-.17-0.38,2.52,2.52,0,0,1-.21-1c0-.25,0-0.49.07-0.77a0.57,0.57,0,0,1,.1-0.32,0.19,0.19,0,0,1,.11-0.07,0.18,0.18,0,0,1,.1.07,0,0,0,0,1,0,0,1.74,1.74,0,0,0,.53.88,1.78,1.78,0,0,0,.56.32l0.74,0.38a1.46,1.46,0,0,0,.35.14l0.28,0.17c0.07,0,.21,0,0.35,0s0.52,0.1.8,0.17a0.54,0.54,0,0,1,.28.21V31.4h0s0,0,0-.07a0.48,0.48,0,0,1,.42-0.11l1.16,0.11c0.49,0,1,0,1.5,0s1.19-.14,1.82-0.1c0,0,0,0,.07,0a2.49,2.49,0,0,1,.73-0.1l0.77-.1a1,1,0,0,0,.46,0,1,1,0,0,1,.63,0,0.39,0.39,0,0,0,.28,0A4.29,4.29,0,0,1,212,30.7a2.2,2.2,0,0,0,.25-0.77c0.21-.38,1.29-3.12,1.4-3.47l0.21-.67a1.92,1.92,0,0,1,1.29-.42,7.38,7.38,0,0,1,1,.21c0.25,0.07-.42,1.29-0.49,1.5s-1,3-1.12,3.33l-0.1.17c0.07,0,.14,0,0.21,0l1.29-.07c0.25,0,.49-0.07.77-0.07,0.46,0,.88-0.07,1.33-0.1,0.67,0,1.68-.07,2.31-0.07a31.67,31.67,0,0,1,4.06.21,26,26,0,0,1,3.36.67l0.77,0.21a8.6,8.6,0,0,0,.8.38l0.21,0.1a5.42,5.42,0,0,1,1.79,1.54,2.59,2.59,0,0,1,.28.39A4.19,4.19,0,0,1,231.94,35Zm-32.06-3.33,0.07,0.07V31.72h-0.07Zm4.45-.21h0v0Zm4.76,18.55-0.46.07a0.23,0.23,0,0,0-.11.25,0.13,0.13,0,0,0,.07-0.11,3.15,3.15,0,0,1,.46.07v0.17a0.18,0.18,0,0,0,.14-0.21A0.19,0.19,0,0,0,209.08,50.06Zm-0.49-.38a0.47,0.47,0,0,1,.07.28,0.93,0.93,0,0,1,.56,0c-0.46-.14-0.46-0.14-0.46-0.25S208.73,49.64,208.59,49.67ZM209,53.73a0.24,0.24,0,0,1-.21-0.11,1.76,1.76,0,0,0,.21,1V53.73Zm1.89-21a2.28,2.28,0,0,1,.25-0.7Zm2.31,0.14c0,0.07,0,.14,0,0.07Zm0.14-.7,0,0.17,0.07,0,0.07-.21Z" transform="translate(-107.05 -25.35)"/><path d="M234.6,44.35a1.16,1.16,0,0,1-.21.1,4.94,4.94,0,0,0-.77.7,1.52,1.52,0,0,1-.67.35,2.85,2.85,0,0,0-.63.42,0.56,0.56,0,0,1-.31.1,17.74,17.74,0,0,0-1.82,1,0.27,0.27,0,0,1-.25.1l-0.56.21a0.32,0.32,0,0,1-.31.11,1.54,1.54,0,0,0-.35.07,1.56,1.56,0,0,1-.8.1,7.63,7.63,0,0,1-.81-0.07,0.1,0.1,0,0,1,0,.1A4.51,4.51,0,0,1,225.74,50c-0.32.35-.7,0.67-1,1a0.25,0.25,0,0,1-.17.14,5.87,5.87,0,0,1-1.08,1,1.6,1.6,0,0,1-1,.39,4.86,4.86,0,0,1-.77.07,1.31,1.31,0,0,1-1-.52,3.82,3.82,0,0,1-.67-1.37,3.76,3.76,0,0,1,0-.63l0-.1a0.19,0.19,0,0,0-.11-0.07,0.48,0.48,0,0,0,.14-0.38,0.33,0.33,0,0,1,.21-0.28,0.42,0.42,0,0,0-.11-0.35c-0.07-.14-0.07-0.17.11-0.24V48.45a0.86,0.86,0,0,0,.14-0.39,0.31,0.31,0,0,1,0-.35,0.49,0.49,0,0,0,.25-0.49,0.48,0.48,0,0,1,.14-0.46c0-.18.74-1.37,0.7-1.51A1.49,1.49,0,0,1,222,45a2.49,2.49,0,0,1,.67-0.8c0-.07,1.05-0.7,1.23-0.95a1.57,1.57,0,0,1,1,.25c0.39,0.1.18,0.6,0.14,0.77a0.35,0.35,0,0,1-.28.21,13.33,13.33,0,0,0-1.4,2.49,0.19,0.19,0,0,0-.14,0c0.14,0.14.1,0.17,0.07,0.25-0.21.25-.1,0.63-0.28,0.73a1,1,0,0,0-.14.21l-0.35.6a0.36,0.36,0,0,1-.07.31,1.39,1.39,0,0,0,.07.67,0.27,0.27,0,0,0,0,.18A0.3,0.3,0,0,0,223,50l1-.14c0.17-.14,1-0.59,1.19-0.73a1.64,1.64,0,0,0,.28-0.49,0.71,0.71,0,0,1,.25-0.42,0.73,0.73,0,0,0,.35-0.7c0.14-.07.14-0.1,0-0.31a0.75,0.75,0,0,1-.28,0,1.83,1.83,0,0,1-1.29-.17,0.38,0.38,0,0,1-.21-0.25,0.41,0.41,0,0,1,0-.7,3.5,3.5,0,0,1,1.29-.67,0.36,0.36,0,0,0,.28-0.14,5.18,5.18,0,0,0,.8,0h0.49a0.47,0.47,0,0,1,.53.35l0,0.21,0,0.14a0.37,0.37,0,0,0,.21,0,1.69,1.69,0,0,1-.28.56,2.61,2.61,0,0,0,.91.07,2.21,2.21,0,0,0,.91-0.25,6.82,6.82,0,0,0,1-.42,0.17,0.17,0,0,0,.11,0c1.92-.91,2.28-1.16,2.73-1.4Zm-8.09,2c0.07-.1.17-0.25,0-0.31a0.23,0.23,0,0,0-.17-0.21,3.16,3.16,0,0,0-1.44.52c-0.1,0-.14.1,0,0.1a0.42,0.42,0,0,0,.39.1h0a6.17,6.17,0,0,0,1-.21A0.42,0.42,0,0,0,226.51,46.38Z" transform="translate(-107.05 -25.35)"/><path d="M238.87,41.41a0.72,0.72,0,0,1,.21.07,2.63,2.63,0,0,1,.53,1,0.34,0.34,0,0,0,.38.25,0.29,0.29,0,0,1,.1.1,3.45,3.45,0,0,0,.46.77,0.49,0.49,0,0,1,.11.31,0.16,0.16,0,0,1-.07.18,0.68,0.68,0,0,1-.52,0,1.07,1.07,0,0,0-.77-0.35,1.25,1.25,0,0,0-1,.39,2.28,2.28,0,0,0-.63.52,2.83,2.83,0,0,1-.67.46,1.65,1.65,0,0,0-.7.77,3.66,3.66,0,0,1-.39.28c-0.07,0-.1,0-0.07.18a1.54,1.54,0,0,1-.35.52,4.16,4.16,0,0,0-.59,1.33,0.68,0.68,0,0,0,.1.56,1.67,1.67,0,0,0,.74.81L236,49.92c0.21,0.21.35,0.35,0.59,0.56a0.79,0.79,0,0,1,.53.49,0.47,0.47,0,0,1,.21.18c0.14,0,.17.1,0.31,0,0.53-.21,1.09-0.39,1.65-0.56a1.44,1.44,0,0,1,.32-0.18h0a9.57,9.57,0,0,0,1.26-.49,0.4,0.4,0,0,0,.21-0.21,1.31,1.31,0,0,0,.67-0.32,0.12,0.12,0,0,1,.1-0.07c0.46-.14.84-0.46,1.26-0.63,2.55-1.86,4.2-3.33,4.79-3.78a3.44,3.44,0,0,1,.53-0.38c0.14,0,.21-0.18.28-0.18l0.25-.07,0.38-.42a0.3,0.3,0,0,0,.25.17,1.2,1.2,0,0,1-.28.31,2.67,2.67,0,0,1-.25.46,0.79,0.79,0,0,0-.28.31c-0.21.21-.42,0.32-0.63,0.53s-0.52.38-3.82,3.12A1.45,1.45,0,0,1,244,49h-0.07a5.8,5.8,0,0,1-1.33.88,4.64,4.64,0,0,1-1.08.63c-0.46.18-.91,0.39-1.5,0.6a3.07,3.07,0,0,0-.7.31c-0.21.07-.46,0.25-0.7,0.31a0.17,0.17,0,0,0-.21.14,10.06,10.06,0,0,0,.91,1.05,1.44,1.44,0,0,0,.21.38l0.11,0.28a2.17,2.17,0,0,1-.07.81,2.27,2.27,0,0,0-.14.35,1.14,1.14,0,0,1-.46.63,1,1,0,0,1-.28.42,0.73,0.73,0,0,1-.28.21,6.59,6.59,0,0,1-.8.18c-0.07,0-.21,0-0.28.07-0.28,0-.49-0.07-0.74-0.07-0.07,0-.14,0-0.14-0.07s-0.14-.1-0.21-0.07h-0.07a1.17,1.17,0,0,1-.56-0.21c-0.14-.21-1.72-0.74-1.82-0.91a3.7,3.7,0,0,0-1-.77,0.52,0.52,0,0,0-.25-0.1V54a0.18,0.18,0,0,1,0-.21,0.12,0.12,0,0,0,0-.07,0.57,0.57,0,0,0,.25,0c0.14,0.07.17,0,.25-0.1a0.63,0.63,0,0,1,.21-0.18,0.23,0.23,0,0,0,.25-0.21,0.32,0.32,0,0,0,.21,0,4.44,4.44,0,0,0,1-.63c0.35-.14.59-0.28,0.91-0.42a5.26,5.26,0,0,0,.63-0.31,0.75,0.75,0,0,0,.21-0.14s0.07-.1,0-0.07c-0.32-.49-1.33-0.81-1.58-1.23a7.48,7.48,0,0,1-1.08-1,8,8,0,0,0-.91-1l-0.07,0a3.06,3.06,0,0,1-.28-1.09v-0.1a2.56,2.56,0,0,1,.35-1.37,2,2,0,0,0,.17-0.45,4.2,4.2,0,0,1,1.12-1.61,0.71,0.71,0,0,1,.21-0.25,0.43,0.43,0,0,0,.35-0.31,0.21,0.21,0,0,1,0-.14,8.44,8.44,0,0,1,1.86-.94l0.63-.39a0.37,0.37,0,0,0,.21-0.07,0.62,0.62,0,0,1,.14-0.18c0.35,0,.52-0.21.88-0.25A0.53,0.53,0,0,1,238.87,41.41ZM236.8,52.58a4.94,4.94,0,0,0-.7.49l-0.49.38v0.14a0.32,0.32,0,0,0,0,.17,0.13,0.13,0,0,0,.21.1,0.35,0.35,0,0,0,.14,0,0.76,0.76,0,0,1,.28-0.18,0.56,0.56,0,0,0,.52-0.49,2.64,2.64,0,0,1,.14-0.39c0.07,0,0,0,0-.07s0.07-.07,0-0.14S236.84,52.58,236.8,52.58Z" transform="translate(-107.05 -25.35)"/><path d="M264.21,41.87a0.8,0.8,0,0,0,.42.21,1,1,0,0,1,.49.35c0,0.07,0,.11,0,0.18a1.16,1.16,0,0,1-.25.56,0.26,0.26,0,0,1,0,.14c0.07,0,0,.07,0,0.1a0.18,0.18,0,0,0-.07.14,0.84,0.84,0,0,1-.07.18,0.83,0.83,0,0,0-.07.31,0.15,0.15,0,0,1-.07.21,0.38,0.38,0,0,0-.14.31,0.27,0.27,0,0,1,0,.25c0,0.1-.63,2.49-0.59,2.63a0.84,0.84,0,0,0,0,.42l-0.11.35a1.3,1.3,0,0,0-.07.42,0.21,0.21,0,0,1,0,.14,0.43,0.43,0,0,0,0,.28,0.11,0.11,0,0,1,0,.1,0.54,0.54,0,0,0,0,.32,0.52,0.52,0,0,0-.11.25,0.16,0.16,0,0,1,0,.17,0.51,0.51,0,0,0,0,.31,0.4,0.4,0,0,1,0,.21c-0.07.1,0.07,0.31-.07,0.31l0.07,0.21a0.21,0.21,0,0,0,0,.24,2.37,2.37,0,0,1-.07.53,0.17,0.17,0,0,0,0,.1,1.26,1.26,0,0,0,.11.59,2,2,0,0,1,.1.6,1.2,1.2,0,0,0,.21.21,2,2,0,0,0,.49.31,0.19,0.19,0,0,0,.17.07,4.75,4.75,0,0,1,.74-0.07,1.08,1.08,0,0,0,.49-0.24s0.14-.07.17-0.07a1.86,1.86,0,0,0,.38-0.21c0.21-.17.53-0.28,0.7-0.46a1.74,1.74,0,0,0,.42-0.28,1,1,0,0,1,.32-0.21,1.61,1.61,0,0,1,.25-0.25,3.27,3.27,0,0,1,.42-0.31,1.67,1.67,0,0,0,.35-0.35,0.19,0.19,0,0,0,.14-0.18,1.45,1.45,0,0,0,.46-0.35,2.8,2.8,0,0,0,.46-0.46,0.18,0.18,0,0,0,.07-0.1,3.08,3.08,0,0,1,.39-0.31l0.25-.28a0.11,0.11,0,0,0,0-.07,3.7,3.7,0,0,0,.53-0.52,2.12,2.12,0,0,1,.38-0.42,0.18,0.18,0,0,0,.14-0.18c0.17-.17.31-0.31,0.49-0.52a0.8,0.8,0,0,0,.31-0.28A5.71,5.71,0,0,0,273,46.8a0.42,0.42,0,0,0,.25-0.24,0.3,0.3,0,0,1,.11-0.1,8.68,8.68,0,0,0,.77-0.81l1-1a1.94,1.94,0,0,1,.28-0.25c0.07-.07.88-0.07,0.63,0.1a0.32,0.32,0,0,1-.21.21,0.59,0.59,0,0,0-.11.21,1.17,1.17,0,0,1-.38.53,0.4,0.4,0,0,1-.28.24l-0.14.14a0.81,0.81,0,0,1-.25.28,3.14,3.14,0,0,0-.32.35c-0.07,0-.1.1-0.21,0.17s-0.1.14-.14,0.14a0.11,0.11,0,0,0,0,.07,1.71,1.71,0,0,0-.53.46,3.21,3.21,0,0,1-.46.52,0.55,0.55,0,0,0-.28.18,8.78,8.78,0,0,0-.77.84,0.19,0.19,0,0,1-.1.18c0,0.1-.18.17-0.25,0.31a0.59,0.59,0,0,0-.32.25,0.12,0.12,0,0,1-.1.07,0.24,0.24,0,0,0-.14.1c-0.1.18-.25,0.25-0.31,0.39a2.06,2.06,0,0,1-.28.31l-0.42.28a1.33,1.33,0,0,1-.42.46,1.14,1.14,0,0,1-.46.46,7.51,7.51,0,0,1-.63.49c-0.1.07-.17,0.17-0.31,0.28a0.3,0.3,0,0,0-.17.1,1.48,1.48,0,0,0-.25.21,0.32,0.32,0,0,1-.28.14,0.19,0.19,0,0,1-.14.14,0.11,0.11,0,0,0,0,.07,2,2,0,0,0-.28.14,0.49,0.49,0,0,1-.28.18,1.2,1.2,0,0,1-.21.21,0.56,0.56,0,0,0-.38.17,2.12,2.12,0,0,0-.39.21l-0.46.14a1.06,1.06,0,0,1-.25.07,5.47,5.47,0,0,0-.73,0,0.84,0.84,0,0,1-.42,0,0.73,0.73,0,0,0-.21-0.07,0.78,0.78,0,0,1-.25,0c-0.07,0-.81-0.07-0.91-0.1a0.72,0.72,0,0,0-.28-0.28,3.43,3.43,0,0,1-1.33-1.58c0-.18-0.11-0.28-0.14-0.42s-0.07-.1,0-0.21a0.58,0.58,0,0,0,0-.35,0.21,0.21,0,0,1,0-.31s-0.07-.07-0.07-0.1a2,2,0,0,1,0-.63,0.16,0.16,0,0,1,0-.18,0.91,0.91,0,0,0,.11-0.28,0.24,0.24,0,0,0,0-.28,0.24,0.24,0,0,1,0-.21,0.59,0.59,0,0,0,0-.35c0-.14.07-0.24,0.07-0.35a0.48,0.48,0,0,1,0-.31l0.14-.38a1.51,1.51,0,0,0,0-.18,1.18,1.18,0,0,1,0-.59,13.75,13.75,0,0,1,.28-1.47c0.18-.6.42-1.23,0.63-1.82,0.07-.31.17-0.7,0.28-1.05a0.9,0.9,0,0,1,.28-0.38c0-.1.07-0.25,0.84-0.35a1.46,1.46,0,0,1,.63-0.1Zm1.08-3.4a0.92,0.92,0,0,1,.53.07,0.17,0.17,0,0,1,.1,0,0.2,0.2,0,0,1,.14.28,0.1,0.1,0,0,0,0,.14,0.44,0.44,0,0,0-.21.14c-0.28.1-.56,0.1-0.84,0.21a1.41,1.41,0,0,0-.38,0c-0.07,0-.25.07-0.35,0.1l-0.35,0-0.07-.1a0.59,0.59,0,0,1,0-.25v0a0.53,0.53,0,0,1,.35-0.31,1.16,1.16,0,0,0,.17-0.1,1.31,1.31,0,0,1,.7-0.14h0.17Z" transform="translate(-107.05 -25.35)"/><path d="M280.24,41.41a0.72,0.72,0,0,1,.21.07,2.63,2.63,0,0,1,.53,1,0.34,0.34,0,0,0,.38.25,0.29,0.29,0,0,1,.1.1,3.45,3.45,0,0,0,.46.77,0.49,0.49,0,0,1,.11.31,0.16,0.16,0,0,1-.07.18,0.68,0.68,0,0,1-.52,0,1.07,1.07,0,0,0-.77-0.35,1.25,1.25,0,0,0-1,.39,2.28,2.28,0,0,0-.63.52,2.83,2.83,0,0,1-.67.46,1.65,1.65,0,0,0-.7.77,3.66,3.66,0,0,1-.39.28c-0.07,0-.1,0-0.07.18a1.54,1.54,0,0,1-.35.52,4.16,4.16,0,0,0-.59,1.33,0.68,0.68,0,0,0,.1.56,1.67,1.67,0,0,0,.74.81l0.32,0.39c0.21,0.21.35,0.35,0.59,0.56a0.79,0.79,0,0,1,.53.49,0.47,0.47,0,0,1,.21.18c0.14,0,.17.1,0.31,0,0.53-.21,1.09-0.39,1.65-0.56a1.44,1.44,0,0,1,.32-0.18h0a9.57,9.57,0,0,0,1.26-.49,0.4,0.4,0,0,0,.21-0.21,1.31,1.31,0,0,0,.67-0.32,0.12,0.12,0,0,1,.1-0.07c0.46-.14.84-0.46,1.26-0.63,2.55-1.86,4.2-3.33,4.79-3.78a3.44,3.44,0,0,1,.53-0.38c0.14,0,.21-0.18.28-0.18l0.25-.07,0.38-.42A0.3,0.3,0,0,0,291,44a1.2,1.2,0,0,1-.28.31,2.67,2.67,0,0,1-.25.46,0.79,0.79,0,0,0-.28.31c-0.21.21-.42,0.32-0.63,0.53s-0.52.38-3.82,3.12a1.45,1.45,0,0,1-.38.25h-0.07a5.8,5.8,0,0,1-1.33.88,4.64,4.64,0,0,1-1.08.63c-0.46.18-.91,0.39-1.5,0.6a3.07,3.07,0,0,0-.7.31c-0.21.07-.46,0.25-0.7,0.31a0.17,0.17,0,0,0-.21.14,10.06,10.06,0,0,0,.91,1.05,1.44,1.44,0,0,0,.21.38L281,53.59a2.17,2.17,0,0,1-.07.81,2.27,2.27,0,0,0-.14.35,1.14,1.14,0,0,1-.46.63,1,1,0,0,1-.28.42,0.73,0.73,0,0,1-.28.21,6.59,6.59,0,0,1-.8.18c-0.07,0-.21,0-0.28.07-0.28,0-.49-0.07-0.74-0.07-0.07,0-.14,0-0.14-0.07s-0.14-.1-0.21-0.07h-0.07a1.17,1.17,0,0,1-.56-0.21c-0.14-.21-1.72-0.74-1.82-0.91a3.7,3.7,0,0,0-1-.77,0.52,0.52,0,0,0-.25-0.1V54a0.18,0.18,0,0,1,0-.21,0.12,0.12,0,0,0,0-.07,0.57,0.57,0,0,0,.25,0c0.14,0.07.17,0,.25-0.1a0.63,0.63,0,0,1,.21-0.18,0.23,0.23,0,0,0,.25-0.21,0.32,0.32,0,0,0,.21,0,4.44,4.44,0,0,0,1-.63c0.35-.14.59-0.28,0.91-0.42a5.26,5.26,0,0,0,.63-0.31,0.75,0.75,0,0,0,.21-0.14s0.07-.1,0-0.07c-0.32-.49-1.33-0.81-1.58-1.23a7.48,7.48,0,0,1-1.08-1,8,8,0,0,0-.91-1l-0.07,0a3.06,3.06,0,0,1-.28-1.09v-0.1a2.56,2.56,0,0,1,.35-1.37,2,2,0,0,0,.17-0.45,4.2,4.2,0,0,1,1.12-1.61,0.71,0.71,0,0,1,.21-0.25,0.43,0.43,0,0,0,.35-0.31,0.21,0.21,0,0,1,0-.14,8.44,8.44,0,0,1,1.86-.94l0.63-.39a0.37,0.37,0,0,0,.21-0.07,0.62,0.62,0,0,1,.14-0.18c0.35,0,.52-0.21.88-0.25A0.53,0.53,0,0,1,280.24,41.41Zm-2.07,11.17a4.94,4.94,0,0,0-.7.49l-0.49.38v0.14a0.32,0.32,0,0,0,0,.17,0.13,0.13,0,0,0,.21.1,0.35,0.35,0,0,0,.14,0,0.76,0.76,0,0,1,.28-0.18,0.56,0.56,0,0,0,.52-0.49,2.64,2.64,0,0,1,.14-0.39c0.07,0,0,0,0-.07s0.07-.07,0-0.14S278.21,52.58,278.17,52.58Z" transform="translate(-107.05 -25.35)"/><path d="M314.47,35l0,0.14h-0.07s0,0-.07,0a1.92,1.92,0,0,1-.7-0.81,3.45,3.45,0,0,0-1-1.12c-0.25-.21-0.53-0.35-0.77-0.53a6.92,6.92,0,0,0-1.71-.8,9.08,9.08,0,0,0-.91-0.28c-0.46-.07-0.87-0.1-1.29-0.21l-0.11-.07c-0.46,0-.91,0-1.37-0.07-0.28,0-.53-0.07-0.8-0.07s-1.75,0-2-.07a2.81,2.81,0,0,0-.52.1h-0.07a8.06,8.06,0,0,0-1.4,0,8.93,8.93,0,0,0-1.37.1,4.22,4.22,0,0,1-.67,0h-0.17a0.48,0.48,0,0,1-.38,0,0.38,0.38,0,0,0-.17,0,0.09,0.09,0,0,0-.07.14,1,1,0,0,0-.46.07l-0.1-.07c-0.14-.07-0.14-0.07-0.25.07a0.17,0.17,0,0,1-.18,0,0.17,0.17,0,0,0-.17,0,1.16,1.16,0,0,1-.17.1c-0.25-.07-0.42.1-0.67,0a0.81,0.81,0,0,1-.14,0,1,1,0,0,1-.46.07l-0.11.14,0,0.14a0.07,0.07,0,0,1,0,.07c0,0.07,0,.14-0.07.21a0.13,0.13,0,0,0,.1,0v0.07a0.35,0.35,0,0,1-.21.28l-0.07.14a0.07,0.07,0,0,1,0,.07v0l-0.63.67L295,34a0.57,0.57,0,0,1-.11.21l-0.1.42-0.49,1.61s-0.11.07-.07,0.1a0.33,0.33,0,0,1-.14.38,0.52,0.52,0,0,1,.14.14c0,0.07-.17.18-1,3.89-0.07.31-.07,0.67-0.14,1l-0.14.56-0.07.25a21.12,21.12,0,0,0-.42,3.33V46.1a0.34,0.34,0,0,0,0,.31,0.19,0.19,0,0,1-.07.17,0,0,0,0,0,0,0l-0.07.07a0.39,0.39,0,0,0,0,.18v0a0.39,0.39,0,0,1,.1.21c0,0.07,0,.14-0.1.14s0,0.14,0,.21l0,0.1a0.26,0.26,0,0,1,0,.17l0,0.07a7.34,7.34,0,0,1-.07.88,0.11,0.11,0,0,0,0,.07v0.07L292,49v0.31l-0.17-.1a2.08,2.08,0,0,1,0-.81c0-.1.17-0.17,0-0.38s0.07-.28.07-0.46a0.31,0.31,0,0,0,0-.35c0-.14.07-0.35,0.07-0.46a2.22,2.22,0,0,1,.14-0.84s0-.07-0.11-0.07-0.07,0-.07.1l0,0.28a1.56,1.56,0,0,1-.11.56l0,0.1a0.9,0.9,0,0,0-.38,1V48.1c-0.14.07-.14,0.14,0.28,0.28v0.14c-0.42.18-.46,0.31-0.46,0.49a1.08,1.08,0,0,0-.07.28c0,0.1-.1.14,0,0.21a2.66,2.66,0,0,1,.6-0.1h0.07l0.17-.07v0l0,0.17a1.55,1.55,0,0,1,0,.18l0,0.38a1.17,1.17,0,0,0,0,.6,0.19,0.19,0,0,1-.07.17L292,51.7l0,0.49a1.4,1.4,0,0,1,.11.53l0,0.38,0,0.49c0.17-.46.17-0.14,0.28,0.1a1,1,0,0,1,.07.56,1.23,1.23,0,0,0,.18.28,5.39,5.39,0,0,0,.38.67,8.27,8.27,0,0,0,.56,1.12l1,0a0.77,0.77,0,0,1,.46-0.14c1.58-1.19,2-1.58,4.76-5.25,0.52-.67,1.16-1.51,1.82-2.52l0.25-.31,0,0,0.07-.1a1.11,1.11,0,0,0,.46-0.52l2.24-2.87c-0.14.35,1.29-.49-0.28,1.37l-3.82,5.36-1.68,2.38-1.65,1.79a24.75,24.75,0,0,1-2.59,2.06,1.55,1.55,0,0,1-.77.39,1.25,1.25,0,0,1-.38.1,0.76,0.76,0,0,1-.28,0,1.84,1.84,0,0,1-.46,0l-0.46-.17a0.67,0.67,0,0,1-.59-0.39,0.07,0.07,0,0,0-.07,0,10.94,10.94,0,0,1-1-1.23s-0.46-.07-0.81-1.54V54.33a0.07,0.07,0,0,1-.07,0V54.15c-0.25-.1-0.17-0.21-0.14-0.28l-0.1-.21-0.21-1.37a0.26,0.26,0,0,0,0-.14,0.17,0.17,0,0,0,0-.18l-0.07-.1V51.7a0.15,0.15,0,0,0,.1-0.1,2,2,0,0,1,0-.46l0-.63a0.94,0.94,0,0,0,0-.31,3.11,3.11,0,0,0,.35-0.28c0-.1,0-0.28,0-0.42s0,0,0-.07c-0.21.14-.21,0.14-0.21,0.31v0.07c0,0.07,0,.1-0.07.1a0.27,0.27,0,0,1-.07-0.1,1.27,1.27,0,0,1,.07-0.49,0.57,0.57,0,0,0,0-.25,0.29,0.29,0,0,1,0-.17l0-.18a0.86,0.86,0,0,1-.11-0.94,8.48,8.48,0,0,0,0-.95l0.11-.46a8.71,8.71,0,0,0,.17-1.19l0.17-.84c0.07-.28.07-0.56,0.14-0.87a1.85,1.85,0,0,0,.25-0.46,4.79,4.79,0,0,1,0-.7l0.35-1,0.59-2.91,0.21-.07,2.07-5.57c0,0.17,0,.07.07-0.18a0.08,0.08,0,0,0,.07-0.07c0-.07,0-0.21.07-0.28a0.77,0.77,0,0,1,.11-0.17h-0.07c-0.53.07-1,.17-1.58,0.21-0.07,0-.14,0-0.25,0s0.07-.18-0.07-0.14a0.19,0.19,0,0,0-.17.14,0.29,0.29,0,0,1-.42,0,0.13,0.13,0,0,1-.11,0l-0.21.25c-0.1,0-.25,0-0.31-0.14a0.19,0.19,0,0,0-.14,0,0.81,0.81,0,0,0-.1.18H290a2.61,2.61,0,0,0-.52,0,6.81,6.81,0,0,1-.81.07,1.21,1.21,0,0,1-.7,0H287.9a0.4,0.4,0,0,0,0-.21c-0.21,0-.32.21-0.42,0.1-0.21.07-.25,0.07-0.35-0.1a0.34,0.34,0,0,1-.28.07,0.11,0.11,0,0,0-.07,0,1.09,1.09,0,0,1-.81-0.11,0.22,0.22,0,0,0-.28,0h-0.14l-0.14,0c-0.17,0-.32-0.24-0.38-0.1s-0.21.14-.35,0.07a0.6,0.6,0,0,1-.17.07c-0.11,0-.21.1-0.28,0a0.13,0.13,0,0,0-.1,0,0.68,0.68,0,0,1-.46,0l-0.53-.21a0.64,0.64,0,0,1-.35-0.25,0.11,0.11,0,0,1-.07,0,0.63,0.63,0,0,1-.14.18,0.07,0.07,0,0,0-.07,0,4,4,0,0,0-.77-0.42,0.19,0.19,0,0,1-.14-0.18,0.56,0.56,0,0,0-.17-0.38,2.5,2.5,0,0,1-.21-1c0-.25,0-0.49.07-0.77a0.57,0.57,0,0,1,.11-0.32,0.11,0.11,0,0,1,.21,0,0,0,0,0,1,0,0,1.73,1.73,0,0,0,.52.88,1.79,1.79,0,0,0,.56.32l0.74,0.38a1.45,1.45,0,0,0,.35.14l0.28,0.17c0.07,0,.21,0,0.35,0s0.53,0.1.81,0.17a0.54,0.54,0,0,1,.28.21V31.4h0s0,0,0-.07a0.49,0.49,0,0,1,.42-0.11l1.15,0.11c0.49,0,1,0,1.51,0s1.19-.14,1.82-0.1c0,0,0,0,.07,0a2.49,2.49,0,0,1,.74-0.1L292,31a1,1,0,0,0,.46,0,1,1,0,0,1,.63,0,0.38,0.38,0,0,0,.28,0,4.3,4.3,0,0,1,1.12-.25,2.18,2.18,0,0,0,.25-0.77c0.21-.38,1.3-3.12,1.4-3.47l0.21-.67a1.92,1.92,0,0,1,1.29-.42,7.36,7.36,0,0,1,1,.21c0.25,0.07-.42,1.29-0.49,1.5s-1,3-1.12,3.33l-0.11.17c0.07,0,.14,0,0.21,0l1.29-.07c0.25,0,.49-0.07.77-0.07,0.46,0,.88-0.07,1.33-0.1,0.67,0,1.68-.07,2.31-0.07a31.69,31.69,0,0,1,4.06.21,26,26,0,0,1,3.36.67L311,31.33a8.5,8.5,0,0,0,.81.38l0.21,0.1a5.43,5.43,0,0,1,1.79,1.54,2.66,2.66,0,0,1,.28.39A4.19,4.19,0,0,1,314.47,35Zm-32.06-3.33,0.07,0.07V31.72h-0.07Zm4.45-.21h0v0Zm4.76,18.55-0.46.07a0.24,0.24,0,0,0-.1.25,0.13,0.13,0,0,0,.07-0.11,3.13,3.13,0,0,1,.46.07v0.17a0.18,0.18,0,0,0,.14-0.21A0.19,0.19,0,0,0,291.61,50.06Zm-0.49-.38a0.47,0.47,0,0,1,.07.28,0.93,0.93,0,0,1,.56,0c-0.46-.14-0.46-0.14-0.46-0.25S291.26,49.64,291.12,49.67Zm0.46,4.06a0.24,0.24,0,0,1-.21-0.11,1.76,1.76,0,0,0,.21,1V53.73Zm1.89-21a2.28,2.28,0,0,1,.25-0.7Zm2.31,0.14c0,0.07,0,.14,0,0.07Zm0.14-.7,0,0.17,0.07,0,0.07-.21Z" transform="translate(-107.05 -25.35)"/><path d="M322,45.19c-0.21.07-.32,0.28-0.49,0.31,0,0.17-.14.17-0.28,0.21s-0.17.21-.38,0.28l0,0.17c-0.49.35-.87,0.77-1.26,1.05a3.8,3.8,0,0,1-1.54.49,3.31,3.31,0,0,1-2.49-.1,3.49,3.49,0,0,0-.8-0.35,0.6,0.6,0,0,1-.63-0.38c-0.21,0-.25-0.18-0.35,0a0.25,0.25,0,0,0-.17.25l-0.38.63a1.19,1.19,0,0,0-.14.42c-0.25.63-.52,1.23-0.77,1.85,0,0.18-1.4,2.7-1.44,3.08a3.26,3.26,0,0,0-.31.42c-0.18.42-.21,0.81-0.35,1.19l-0.17,0a2.63,2.63,0,0,1-.84,1.51l-0.14,0c-0.63.14-1,.25-1.16,0.28-1.54-.17-1.61-0.35-1.64-0.52a6.7,6.7,0,0,1-.46-0.6l-0.07-.35a0.93,0.93,0,0,1-.28-0.67,2.71,2.71,0,0,1-.1-0.56,1.25,1.25,0,0,1-.17-0.7l-0.42-2.27-0.11-.7a1,1,0,0,0,0-.77l-0.17-.84,0-.17c0-.74-0.07-3,0-3.78-0.17-.67-0.07-1.57-0.25-2.31L304.21,42a0.6,0.6,0,0,1,.28-0.46,12.62,12.62,0,0,1,2.31-.1,0.73,0.73,0,0,1,.21.39,0.91,0.91,0,0,1,.31.31,0.5,0.5,0,0,1,.28.46,1.4,1.4,0,0,1,.11.52,1.12,1.12,0,0,0,0,.31,0.75,0.75,0,0,0,.32.67,0.45,0.45,0,0,0-.11.42c-0.17.07-.14,0.21-0.07,0.39s0.17,0.28,0,2a2.75,2.75,0,0,0,0,.91,0.58,0.58,0,0,1-.07.53,2.15,2.15,0,0,1,0,.94l0.07,0.31,0.11,0.21a1.8,1.8,0,0,1,.1.84c-0.25-.07-0.07-0.28-0.07-0.28-0.35.24-.35,0.24-0.28,0.59a2.88,2.88,0,0,1,.07,1.23,0.79,0.79,0,0,0,.32.7,3.85,3.85,0,0,1,.11.56l0.07,0.14,0.11-.07,0-.1,0-.35c0.21,0,.21.1,0.21,0.1a2.44,2.44,0,0,0,.42,1.15,0.82,0.82,0,0,0,.07.39l0,0.17,0.14-.07a12.73,12.73,0,0,1,1.16-1.93,1.7,1.7,0,0,0,.11-0.31c0.24-.1.24-0.1,0.14-0.25l1.26-2.21c0.35-.95.67-1.75,1-2.56a0.4,0.4,0,0,1,.31-0.46,1.35,1.35,0,0,1,.21-0.77,0.92,0.92,0,0,1,.63-0.74s0,0.42.21,0.39a3.23,3.23,0,0,1,.84.21,3.3,3.3,0,0,0,.77.52,3.4,3.4,0,0,0,2.8,0c0.56-.28,1-0.53,1.4-0.7l0.17-.07a1,1,0,0,0,.46-0.46,4.66,4.66,0,0,1,1.16-.81,0.53,0.53,0,0,1,.7-0.35A5.06,5.06,0,0,1,322,45.19ZM307.92,56.6h0Zm0.14-5.74c-0.21,0,0-.21,0-0.21Zm0.21,2.21a0.23,0.23,0,0,1-.21-0.18Z" transform="translate(-107.05 -25.35)"/><path d="M330.36,42.67l0,0.28a0.9,0.9,0,0,0-.21.46,1.32,1.32,0,0,1-.21.59,0.53,0.53,0,0,0-.07.28v0.14c0,0.14-.07.17-0.1,0.17a0.38,0.38,0,0,1,0,.28s-0.56,2.73-.74,2.87l0,0.56c0,0.14,0,0-.14,1.58l-0.17,1.85a0.66,0.66,0,0,1,.17.39,1.06,1.06,0,0,0,.14.31,1.45,1.45,0,0,0,.67.21h0.21a0.84,0.84,0,0,0,.53-0.14,7.47,7.47,0,0,1,.95-0.38,6.25,6.25,0,0,0,2.13-1.54l1.23-1.26,1.64-1.65s0.11,0,.07-0.07a35.54,35.54,0,0,1,3.26-3.36h0.46a1,1,0,0,1-.28.35c-0.21.18-3.36,3.85-3.61,4.06a2.69,2.69,0,0,1-.59.73,2.29,2.29,0,0,0-.32.28,5.62,5.62,0,0,1-.38.56,5.62,5.62,0,0,0-1,.84,7.69,7.69,0,0,1-1.61,1.51c-0.07,0-1.75.91-1.89,1a3.72,3.72,0,0,1-.74.1,2.87,2.87,0,0,1-2.17.1,0.79,0.79,0,0,0-.42-0.31c-0.14-.07-0.18-0.14-0.32-0.21s-0.17-.1-0.17-0.25a0.61,0.61,0,0,0,0-.25A0.75,0.75,0,0,1,326.3,52a0.44,0.44,0,0,0,0-.21,1.65,1.65,0,0,1,0-.73c0-.35,0-0.67.07-1V50a1.19,1.19,0,0,0,.07-0.38,0.86,0.86,0,0,0,0-.42s0-.14,0-0.14c0-.25.11-0.42,0.11-0.56s0.07-.14.07-0.18a1.54,1.54,0,0,1,0-.17,9.11,9.11,0,0,1,.21-1.58c0.07-.39.14-0.84,0.17-1.23l0.07-.35a0.17,0.17,0,0,0,0-.31,3.24,3.24,0,0,1-.35.49,3.77,3.77,0,0,0-.56.88,4,4,0,0,1-.52.56s0,0.17-.11.07a0.2,0.2,0,0,1,0,.14,4.48,4.48,0,0,1-.38.42c-0.1.28-1.33,1.47-1.43,1.72a1.4,1.4,0,0,0-.56.56,2.12,2.12,0,0,0-.21.14,0.19,0.19,0,0,0,.11-0.07l0,0a0.37,0.37,0,0,1-.17.07,0.62,0.62,0,0,0-.17.14,1.8,1.8,0,0,1-.91.52,1.56,1.56,0,0,0-.38,0,1.42,1.42,0,0,1-.67,0,1.3,1.3,0,0,1-.42-0.25l-0.07-.1s0,0,0-.07a3.14,3.14,0,0,1-.25-0.35L320,49.18l0-.28,0,0s0,0,0,0L320,49a1.31,1.31,0,0,1,0,.35s0,0,0,0a0.11,0.11,0,0,1,.07,0l0.07-.73,0,0-0.11.25a0.11,0.11,0,0,1,0-.07,1.3,1.3,0,0,0,.07-0.42c0-.07.07-0.1,0.07-0.17a3,3,0,0,0,.07-0.46s0-.07,0-0.1,0,0,0,0l0.17-.1a0.19,0.19,0,0,0,0-.14,0.11,0.11,0,0,1,.11-0.1,0.17,0.17,0,0,0,0-.14,0.14,0.14,0,0,1-.07-0.07c0.95-3,3-3.82,3.82-3.89a0.45,0.45,0,0,1,.42,0,0.42,0.42,0,0,0,.28-0.07,5.68,5.68,0,0,1,1.12.07,0.24,0.24,0,0,1,.1.14,1.48,1.48,0,0,1,.84.14,0.27,0.27,0,0,1,.11.07c0-.07,0-0.14,0-0.25a0.39,0.39,0,0,0,.25-0.28,9,9,0,0,0,1.26-.53,0.51,0.51,0,0,1,.49-0.21,3,3,0,0,1,.8,0C330.32,42.36,330.43,42.5,330.36,42.67Zm-3.85-6.55a1,1,0,0,0-.38.17,1.92,1.92,0,0,0-1,.31,11,11,0,0,0-.94.63,6.08,6.08,0,0,0-1.51,1.23,0.79,0.79,0,0,0-.28.31c-0.21.39-.74,0.49-0.7,0.95a1.74,1.74,0,0,0,.59,1.75,12.19,12.19,0,0,1,1.26-1.33,1.07,1.07,0,0,1,.35-0.46,4.24,4.24,0,0,1,.91-0.84c0.59-.46,1.26-0.87,1.82-1.33a1.67,1.67,0,0,1,.31-0.1,7.38,7.38,0,0,0,1.08-.49l0.21-.14a0.19,0.19,0,0,0,.11-0.14,1.36,1.36,0,0,1-.14-0.1,0.38,0.38,0,0,0-.21,0,0.38,0.38,0,0,1-.21-0.07,0.17,0.17,0,0,1-.14,0,0.3,0.3,0,0,0,.11-0.21,9.2,9.2,0,0,1-.95-0.07s0-.1,0-0.14A0.44,0.44,0,0,1,326.51,36.13Zm-0.42,7.56c-0.14.18-.21-0.1-0.38,0a1,1,0,0,0-.32.07c-0.52.14-1.54,0.21-2.45,2.45-0.35,1.08-.84,3.12-0.07,2.63l1.23-1.19a10.41,10.41,0,0,0,1-1.16,2.54,2.54,0,0,1,.32-0.28,2,2,0,0,0,.53-0.7A4.93,4.93,0,0,0,327,44a2.23,2.23,0,0,0-.07-0.24,1.17,1.17,0,0,0-.49-0.14A2.23,2.23,0,0,0,326.09,43.69Z" transform="translate(-107.05 -25.35)"/><path d="M355.94,44.74a12.27,12.27,0,0,0-1.47,2.45,0.19,0.19,0,0,0-.07.1c-0.46.63-.94,1.23-1.36,1.93a5.33,5.33,0,0,1-.39.56L351.81,51c-0.35.63-1.16,2-1.58,2.59a12.06,12.06,0,0,1-.77,1.09A3.2,3.2,0,0,1,349,55a1.13,1.13,0,0,0-.28.31c-0.28.25-.53,0.49-0.81,0.77a3.84,3.84,0,0,1-.87.6,2.9,2.9,0,0,1-1.65.31,4.11,4.11,0,0,1-1.82-.38,3.68,3.68,0,0,1-.7-0.95,1.44,1.44,0,0,1-.07-0.52,5.71,5.71,0,0,0,.07-0.77,13.32,13.32,0,0,1,.91-3.36c0.46-1.37,1.68-2.8,2.27-4.1a16.4,16.4,0,0,0,.63-2,1,1,0,0,0,0-.77,0.68,0.68,0,0,1-.28,0,9.26,9.26,0,0,0-1.37.91c-0.46.46-.91,0.84-1.29,1.26s-0.53.52-.81,0.84l-0.21.21c-0.59.81-1.22,1.58-1.82,2.31a10.47,10.47,0,0,0-.95,1.58,2.9,2.9,0,0,1-.59.91,0.41,0.41,0,0,0,0,.35c0,0.1,0,.25,0,0.42a0.51,0.51,0,0,1-.14.6,12,12,0,0,1-2,.17,1,1,0,0,1-1.16-.49,1.06,1.06,0,0,1-.11-0.56,4,4,0,0,1,0-.91c0-.1,0-0.21,0-0.35a0.79,0.79,0,0,0,0-.25,2.38,2.38,0,0,1,.11-1l0.07-.87A18.73,18.73,0,0,1,336.8,47c0.17-1,.53-2,0.7-3l0.14-.63a2.24,2.24,0,0,1,1.05-.38,7,7,0,0,0,1.29.1,0.34,0.34,0,0,1,.21.46l-0.11.91a1.92,1.92,0,0,0-.07.88,3.16,3.16,0,0,1,0,1.4,5.51,5.51,0,0,0-.21,1.82,0.34,0.34,0,0,1,0,.31,1.48,1.48,0,0,0-.21,1.26,0.62,0.62,0,0,0,.24-0.28,16.46,16.46,0,0,1,1.61-2c0.53-.67,1.08-1.33,1.65-1.93A15,15,0,0,1,345.2,44a3.62,3.62,0,0,1,1.61-.77c0.07,0,.18-0.07.25-0.07a0.76,0.76,0,0,1,1.08.63c0,0.39-.07.77-0.1,1.16s-0.17.95-.21,1.4a0.47,0.47,0,0,0,0,.17,0.73,0.73,0,0,1-.11.67,1.46,1.46,0,0,0-.31,1,0.61,0.61,0,0,0-.14.17,2.17,2.17,0,0,0-.59,1.16,3.85,3.85,0,0,1-.25.56,3.75,3.75,0,0,0-.14.6c-0.14.1-.14,0.1,0,0.25a1,1,0,0,0-.35.77,0.13,0.13,0,0,1,0,.21c-0.1.07-.28,0.14-0.21,0.21,0.35,0.42-.21,1.44-0.28,1.68a7.09,7.09,0,0,0-.24,1.93,0.93,0.93,0,0,0,1,.56,2.42,2.42,0,0,0,1.16-.49,13.2,13.2,0,0,0,1.75-2c0.32-.39,1-1.47,1.29-1.86l0.42-.6,1.36-2.1c0.28-.46.63-0.91,0.88-1.37L354,46.38c0.28-.46.81-0.91,1.12-1.4C355.66,44.07,356.33,44.18,355.94,44.74ZM338.69,43a3.57,3.57,0,0,1,.59-0.14Z" transform="translate(-107.05 -25.35)"/><path d="M401.2,39.87a1,1,0,0,1,.42-0.21,9.47,9.47,0,0,1,1.44-.25,2.14,2.14,0,0,1,.53-0.07,1.6,1.6,0,0,1,.49-0.25,3,3,0,0,0,.59-0.17,7.69,7.69,0,0,0,1.19-.49,4.32,4.32,0,0,0,.84-0.77,1.74,1.74,0,0,0,.84-0.91s0-.1.07-0.1a0.2,0.2,0,0,1,.17-0.07,0.47,0.47,0,0,1,.17,0,3.68,3.68,0,0,0,.25.39,2.07,2.07,0,0,0,.25.84,1.22,1.22,0,0,1-.32,1.05c-0.1.17-.17,0.31-0.24,0.46s0,0.28-.11.25a7.47,7.47,0,0,0-1.33.49,0.13,0.13,0,0,0-.07.07c-0.1,0-.25-0.14-0.35-0.18s0,0-.07,0a0.5,0.5,0,0,1-.49.28,3.58,3.58,0,0,1-.87.28,1.91,1.91,0,0,1-.77,0,0.21,0.21,0,0,0-.21,0,1,1,0,0,1-.46,0,3.15,3.15,0,0,1-.35-0.07,1.22,1.22,0,0,0-.52.31,0.83,0.83,0,0,1-.67.14,0.82,0.82,0,0,0-.28.07,0.74,0.74,0,0,0-.28,0,0.57,0.57,0,0,0-.49,0,3,3,0,0,1-1.29.17,0.81,0.81,0,0,1-.14,0,0.39,0.39,0,0,1-.46-0.07,1.12,1.12,0,0,0-.67-0.21,1.31,1.31,0,0,1-.74.31,0.79,0.79,0,0,0,0-.14l-0.11,0a2.71,2.71,0,0,1-1.19.07c-0.35,0-.95,0-1.37,0a8,8,0,0,0-.91,0,2.47,2.47,0,0,1-.53,0,0.74,0.74,0,0,1-.25-0.17,0.48,0.48,0,0,0-.31,0c0,0.17-.28.1-0.49,0.17a3.16,3.16,0,0,1-.38-0.21h-0.18a0.72,0.72,0,0,1-.73.1,0.49,0.49,0,0,0-.32-0.1c-0.28,0-.17.07-0.17,0.1a0.61,0.61,0,0,1-.35,0c-1.26,0-2.63-.07-3.82-0.14a3,3,0,0,1-.56,0,1.33,1.33,0,0,0-.42,0,9.47,9.47,0,0,1-1,0,1.06,1.06,0,0,1-.35-0.14,0.74,0.74,0,0,0-.49-0.07c-0.1,0-.35,0-0.49.07a7.24,7.24,0,0,1-.87,0,1.31,1.31,0,0,1-.31-0.07,5.46,5.46,0,0,1-1.09,0,0.52,0.52,0,0,1-.28-0.1,0.82,0.82,0,0,0-.39,0c-0.14.1-.17,0-0.28,0a0.76,0.76,0,0,0-.42-0.07c-0.14.07-.14,0.14-0.21,0.1a5.39,5.39,0,0,0-.77,0,0.09,0.09,0,0,0-.11-0.11,0.49,0.49,0,0,0-.31,0,1.55,1.55,0,0,1-.7.07,0.69,0.69,0,0,0-.25,0c-0.42,0-.77,0-1.26,0-0.74,0-1.51,0-2.31,0a16.37,16.37,0,0,0-1.82.1h-0.07a7.84,7.84,0,0,0-.91,0,9.14,9.14,0,0,0-1,0c-0.42,0-.95.1-1.37,0.17-0.77.07-1.5,0.14-2.35,0.17a0.24,0.24,0,0,1-.14.07c-0.7.17-1.47,0.25-2.21,0.42-0.56.07-1,.21-1.58,0.31a17,17,0,0,0-2.7.74c-0.49.25-.91,0.46-1.37,0.7a19.5,19.5,0,0,0-2.1,1.58l-0.52.14a2.18,2.18,0,0,0,.38-0.63c0.17-.49,1.08-0.91,2.94-2.17a0.48,0.48,0,0,1,.38-0.14c0.42-.17.88-0.28,1.29-0.49a11.1,11.1,0,0,1,1.33-.28c1.85-.38,3.78-0.77,5.71-1,1.47-.18,3-0.25,4.52-0.32,1.16-.07,2.24-0.07,3.33-0.07,0.88-.07,1.58,0,2.42,0,0.46,0,.91,0,1.33,0,0.7,0,1.44,0,2.21,0a7.36,7.36,0,0,1,1.5,0H383a7,7,0,0,1,1.71,0,4.22,4.22,0,0,0,.67,0c0.81,0,1.47.07,2.24,0.18a0.68,0.68,0,0,0,.53,0,1.72,1.72,0,0,1,1-.07,3.52,3.52,0,0,0,.88.11,4,4,0,0,1,1.3,0,5.44,5.44,0,0,1,1.29,0s0.07,0,.14,0c1-.11,2.1,0,3.12-0.14s1.72,0,2.59-.07a18.65,18.65,0,0,0,2-.24,3,3,0,0,1,.8,0,0.12,0.12,0,0,1-.07.14s0.07,0,.07,0v-0.1Zm-2.31.39h0Zm7.74-.56h0l0,0a0.07,0.07,0,0,1,0,.07s-0.07,0-.14,0h0.07Z" transform="translate(-107.05 -25.35)"/></g></svg>