<svg style="fill: #000000;" id="Layer_1" data-name="Layer 1" xmlns="http://www.w3.org/2000/svg" viewBox="0 0 2192.76 2046"><defs><style>.cls-1{fill:#fff;}</style></defs><title>social-instagram</title><circle class="cls-1" cx="1169.76" cy="1023" r="1023"/><path d="M1023,2h-11.17l-1.64,0h0q-25,.31-49.6,1.79h0l-0.78,0H959.7l-0.31,0h-0.1L959,4H958.9l-0.35,0h-0.1l-0.26,0h-0.71l-0.37,0h-0.48l-0.24,0h0l-0.86.06h-0.05q-6.19.4-12.36,0.88L945.38,35c25.65-2,51.76-3,77.62-3V2h0ZM873.52,12.84q-37.64,5.51-74.36,13.72h-0.05l-1.15.26H797.9l-0.26.06-0.07,0-0.25.06h0l-0.49.11-0.1,0-0.21,0-0.14,0-0.18,0-0.19,0-0.15,0-0.33.07-0.13,0-0.22.05-0.15,0-0.09,0,6.66,29.25c25.11-5.72,50.78-10.51,76.31-14.25l-4.35-29.68h0ZM727.23,45.41c-7.47,2.25-14.88,4.58-22.28,7h0l-1.1.36h0l-0.33.11h0l-1.08.36-0.06,0-0.3.1-0.07,0-0.31.1,0,0-0.36.12h0l-0.33.11-0.11,0-0.24.08-0.11,0-0.25.08-0.1,0-0.34.11,0,0-0.28.09-0.13,0-0.22.07-0.12,0-0.25.08-0.09,0-0.33.11-0.13,0-0.2.07-0.16.05-0.18.06-0.15.05-0.19.06-0.16.05-0.31.1-0.15,0-0.19.06-0.16.05-0.19.06-0.15.05-0.17.06-0.67.23-0.13,0-0.21.07-0.12,0-0.2.07L694.3,56,694,56l-0.21.07-0.17.06-0.15.05-0.2.07-0.14,0-0.2.07-0.13,0-0.7.24-0.12,0-0.21.07-0.12,0-0.2.07-0.15,0-0.35.12-0.14,0-0.19.06-0.14,0-0.19.06-0.16.06-0.17.06-0.16.05-0.3.1-0.18.06-0.18.06-0.16.05-0.19.07-0.13,0-0.2.07-0.13,0-0.34.12-0.15.05-0.19.07-0.13,0-0.2.07-0.13,0-0.2.07-0.1,0-0.41.14-0.1,0-0.21.07-0.12,0-0.22.08-0.1,0-0.21.07-0.13,0-0.35.12-0.14.05-0.19.07-0.13,0-0.19.07-0.16.06-0.17.06-0.15.05-0.37.13-0.11,0-0.2.07-0.13,0-0.21.07-0.12,0-0.2.07-0.14,0-0.34.12-0.15.05-0.2.07-0.12,0-0.2.07-0.14.05-0.18.06-0.21.08-0.23.08-0.19.07-0.16.06-0.16.06-0.19.07-0.15.05-0.16.06-0.24.09-0.21.08-0.2.07-0.16.06-0.16.06-0.17.06-0.18.07-0.15.05-0.29.1-0.15.05-0.2.07-0.15.05-0.18.07-0.17.06-0.17.06-0.15.06-0.25.09-0.21.07-0.2.07-0.15.05-0.18.06-0.16.06-0.22.08-0.11,0-0.34.12-0.05,0-0.28.1-0.12,0-0.21.07-0.15.05-0.22.08-0.1,0-0.32.12-0.11,0-0.23.08-0.12,0-0.22.08-0.12,0-0.25.09-0.09,0L672,63.8l-0.09,0-0.25.09-0.11,0-0.22.08-0.13,0-0.25.09-0.07,0-0.34.12-0.06,0-0.3.11-0.06,0-0.27.1-0.09,0-0.31.11h0l-0.35.13h0l-0.3.11-0.08,0-0.26.1-0.09,0-0.69.25-0.05,0-0.3.11-0.06,0-0.29.11-0.06,0-0.71.26h0l-0.33.12,0,0-0.31.11-0.06,0-0.7.26h0l-0.33.12,0,0-0.3.11-0.06,0-1.05.4,0,0-0.31.12,0,0-0.71.27h0l-0.35.13h0l-1.44.55h0l-0.34.13h0l-2.54,1h0l-5.36,2.07,10.89,28c24-9.36,48.71-17.88,73.38-25.32l-8.66-28.72h0ZM587.33,99.14q-11.9,5.61-23.63,11.51h0l-1.09.55h0l-0.26.13,0,0-0.26.13h0l-0.8.41,0,0-0.22.11-0.09,0-0.21.11-0.1,0-0.2.1,0,0-0.45.23-0.09,0-0.19.1-0.12.06-0.18.09-0.15.08-0.16.08-0.13.07-0.32.16-0.15.07-0.15.08-0.16.08-0.16.08-0.15.07-0.17.09-0.12.06-0.31.16-0.18.09-0.13.07-0.18.09-0.14.07-0.2.1-0.1.05-0.31.16h0l-0.33.17-0.06,0-0.27.14-0.08,0-0.26.13-0.06,0-0.31.16h0l-0.68.35h0q-19,9.8-37.45,20.36l14.88,26.05c22.4-12.79,45.57-24.85,68.87-35.83L587.33,99.14h0Zm-130.5,73.68Q423.49,195,392,219.71l18.52,23.6c20.29-15.92,41.45-31.23,62.9-45.51l-16.62-25h0ZM338.47,264.76l-4.44,4h0l-0.84.77,0,0-1.38,1.27,0,0-0.83.76h0l-0.53.49,0,0-0.81.74-0.06.06-0.49.45,0,0-0.8.74-0.07.07-0.52.48h0l-0.27.25-0.06.06-0.46.43-0.1.09-0.47.44-0.06.05-0.24.22-0.11.1-0.42.39-0.11.1-0.24.22-0.07.06-0.45.42-0.11.11-0.41.38-0.11.1-0.25.23-0.08.08-0.43.4L323,279l-0.42.39-0.1.09-0.23.22-0.13.12-0.37.34-0.16.15-0.21.2-0.27.26-0.24.23-0.14.13-0.36.34-0.14.13-0.23.22-0.15.14-0.35.33-0.16.15-0.32.31-0.17.16-0.22.21-0.15.14-0.34.33-0.17.16-0.2.19-0.3.28-0.2.19-0.19.18-0.31.3-0.17.16-0.22.21-0.2.19-0.29.28-0.16.16-0.31.3-0.18.18-0.21.2-0.19.18-0.31.3-0.17.16-0.22.21-0.28.27-0.2.19-0.18.17-0.3.29-0.18.17-0.2.19-0.29.28-0.21.2-0.18.17-0.29.28-0.21.2-0.2.19-0.21.2-0.28.27-0.18.18-0.19.18-0.3.29-0.2.19-0.2.19-0.27.26-0.2.2-0.19.19-0.3.29-0.18.18-0.21.2-0.22.21-0.26.26-0.17.16-0.31.3-0.17.17-0.23.22-0.16.15-0.32.31-0.16.16-0.29.28-0.16.16-0.25.25-0.16.16-0.32.32-0.15.15-0.27.27-0.16.16-0.3.29-0.14.14-0.34.34-0.12.12-0.28.28-0.11.11-0.34.34-0.13.13-0.35.35-0.1.1-0.29.28-0.13.12-0.35.35-0.11.11-0.34.34-0.07.06-0.36.36-0.09.09-0.37.37-0.08.08-0.35.35-0.06.06-0.39.39-0.08.08-0.39.39,0,0-0.37.37-0.06.06-0.39.39-0.06.06-0.82.82,0,0-0.4.41,0,0-0.82.83,0,0-0.86.87h0l-0.43.44h0q-6.8,6.89-13.47,13.92l21.75,20.66c17.76-18.69,36.47-36.92,55.63-54.18l-20.08-22.29h0ZM234.73,372.92l-0.09.11-0.21.26-0.19.23-0.22.26-0.14.17-0.3.36-0.12.15-0.24.29-0.13.16-0.28.34-0.12.15-0.31.37-0.11.13-0.25.31-0.1.12-0.31.38-0.11.14-0.31.38-0.07.09-0.28.34-0.1.12-0.32.4-0.09.11-0.3.36-0.06.07-0.34.42-0.08.1-0.34.41-0.07.08-0.31.38-0.06.07-0.33.41-0.09.11-0.34.42,0,0-0.33.41-0.06.08-0.35.43-0.06.07-0.35.43h0l-0.36.44-0.06.07-0.36.44,0,0-0.36.45,0,0-0.36.45-0.06.07-0.73.91,0,0-0.36.45,0,0-0.74.93,0,0-0.37.46,0,0-0.75.94,0,0-0.74.94,0,0-0.37.47,0,0-0.76,1v0l-0.38.48h0l-0.76,1,0,0-3.07,3.92h0l-3.06,3.94h0q-13.75,17.8-26.73,36.22l24.52,17.28c14.84-21.07,30.71-41.82,47.16-61.68l-23.11-19.14h0ZM147.81,495l-0.49.81,0,0-0.56.93-0.07.11-0.29.48-0.09.15-0.16.26L146,498l-0.22.36-0.13.22-0.13.22-0.22.37-0.13.22-0.18.3-0.13.21-0.2.34-0.1.17-0.25.42-0.08.14-0.21.36-0.07.12-0.26.44-0.08.13-0.27.46,0,0.05L143,503l-0.06.1-0.27.46-0.06.1-0.28.47h0l-0.29.5,0,0.07-0.3.5h0l-0.31.53h0l-0.31.52,0,0-0.62,1.06h0q-5.38,9.14-10.57,18.41h0l-0.9,1.61,0,0.05-0.57,1,0,0.06-0.28.5,0,0.06-0.28.5h0l-0.27.49-0.05.09-0.27.48,0,0.07-0.25.44,0,0.07-0.26.47-0.06.11-0.26.48,0,0-0.24.44-0.07.13-0.25.45-0.07.13-0.21.38-0.07.12-0.24.44-0.08.15-0.24.43-0.08.15-0.18.33-0.09.17-0.22.41-0.11.19-0.17.31-0.13.23-0.17.32-0.11.21-0.2.36-0.14.25-0.12.22-0.19.36-0.13.24-0.14.26-0.1.18-0.24.45-0.08.16-0.49.92-0.06.12-0.3.55,0,0.08-0.53,1,0,0c-4,7.44-7.87,14.91-11.68,22.46l26.79,13.51c11.6-23,24.27-45.84,37.65-67.89L147.81,495h0ZM79.68,628.49q-10.27,24.39-19.29,49.42h0l-0.11.29h0l-0.42,1.18h0l-0.09.26,0,0.08-0.09.25v0l-0.3.83,0,0.06-0.09.25,0,0.06-0.09.25,0,0.06-0.27.76,0,0.11-0.07.2,0,0.14-0.07.2,0,0.13-0.15.42,0,0.06-0.07.2,0,0.14L58.2,684l-0.06.16-0.06.16-0.07.21-0.06.17-0.09.26-0.06.18-0.06.16-0.05.15-0.07.2-0.05.15-0.07.21,0,0.12-0.11.31-0.05.15-0.07.21,0,0.14-0.07.2,0,0.14-0.08.22,0,0.11-0.11.32,0,0.14-0.07.2,0,0.14-0.07.2,0,0.14-0.1.29v0l-0.12.34,0,0.12-0.08.22,0,0.13-0.07.21,0,0.13-0.08.23,0,0.14-0.1.29-0.05.15-0.07.2,0,0.13-0.08.23,0,0.11-0.1.29,0,0-0.11.33,0,0.12-0.08.23,0,0.13L55,693.1l0,0.13-0.09.26,0,0.08-0.11.33,0,0.12-0.07.21,0,0.14-0.07.2,0,0.15-0.08.22,0,0.11-0.11.31-0.06.17-0.06.17-0.06.17L54,696l-0.06.17-0.06.18-0.11.34,0,0.12-0.07.2,0,0.13-0.06.18-0.05.16-0.06.18-0.06.16-0.09.26-0.07.21-0.06.17-0.06.17-0.06.18L53,699l-0.07.2,0,0.1-0.17.49v0l-0.08.24,0,0.08-0.08.23,0,0.09-0.08.24v0l-0.28.84,0,0.05-0.09.26,0,0.06-0.09.26h0l-0.29.88h0l-0.09.28v0l28.48,9.42c8.09-24.46,17.27-48.91,27.27-72.67L79.68,628.49h0Zm-47.78,142C28.15,785.2,24.7,800,21.59,814.93h0l-0.07.35v0.07l-0.06.3,0,0.08-0.15.72,0,0.1-0.05.26,0,0.12,0,0.23,0,0.14-0.07.33,0,0.16L21,818l0,0.19,0,0.14,0,0.21,0,0.1-0.1.5v0l0,0.24,0,0.09,0,0.24,0,0.08L20.35,821v0l-0.06.29v0Q17.52,835,15.13,848.75l29.56,5.13C49.1,828.47,54.57,802.93,61,778L31.9,770.54h0ZM5.52,918.07q-2,18.88-3.23,38v0l-0.08,1.2v0l0,0.38v0l-0.05.79v0l0,0.35v0.05l0,0.37h0l0,0.39v0l0,0.34v0.07l0,0.36v0l0,0.39V961l0,0.31v0.11l0,0.29v0.09l0,0.75v0.1l0,0.29V963l0,0.37h0l0,0.37v0.1l0,0.27v0.12l0,0.3v0.06l0,0.37v0.1l0,0.28v0.5l0,0.36v0.07l0,0.3v0.12l0,0.27v0.1l0,0.34v0.09l0,0.3v0.9l0,0.32v0.9l0,0.34v0.89l0,0.34V974l0,0.33v0.9l0,0.34v0.9l0,0.36v10.29l0,0.76v3.33l0,0.76v0.48l0,0.77v0.47l0,0.77v0.84l0,0.79v0.43h0l0,0.8v0.54l30,0.78c0.67-25.83,2.36-51.91,5-77.5l-29.84-3.1h0Zm25.34,148.59-30,1.24q0.35,8.49.84,16.95h0l0,0.29v0.07l0,0.27h0l0,0.54v0.84l0,0.31v0.73l0,0.26v0.1l0,0.36v0.11L2,1089v0.13l0,0.28v0.09l0,0.38v0l0,0.35v0.07l0,0.33v0.05l0.05,0.79h0l0,0.4h0q1.81,28,5.12,55.69l29.79-3.56c-3.05-25.55-5.14-51.59-6.2-77.4h0Zm16.56,144.54-29.47,5.59q1.07,5.64,2.2,11.25v0l0.23,1.13,0,0.08,0.05,0.26,0,0.13,0,0.23,0,0.17,0.06,0.28,0,0.22,0,0.11,0,0.24,0,0.08,0.24,1.17v0q6.51,31.63,14.94,62.52l28.94-7.89c-6.77-24.85-12.65-50.29-17.45-75.63h0ZM85,1351.69l-28.33,9.87L56.8,1362v0q13.14,37.68,29.1,74l27.47-12.06C103,1400.33,93.46,1376,85,1351.69h0Zm57.83,133.45-26.57,13.92q13.45,25.67,28.27,50.44l0,0,0.58,1h0l0.38,0.63,0,0,0.57,0.94,0.05,0.09,0.33,0.54,0.05,0.09,0.18,0.3,0,0,0.34,0.56,0.07,0.12,0.33,0.55,0,0.06,0.17,0.28,0.1,0.16,0.25,0.42,0.12,0.19,0.16,0.26,0.2,0.32,0.16,0.26,0.12,0.2,0.22,0.36,0.14,0.23,0.15,0.24,0.14,0.23,0.21,0.34,0.14,0.23,0.13,0.22,0.22,0.36,0.14,0.23,0.15,0.24,0.19,0.31,0.16,0.26,0.14,0.22,0.23,0.37,0.11,0.19,0.17,0.28,0.11,0.18,0.24,0.39,0.12,0.19,0.2,0.32,0.14,0.22,0.19,0.3,0.11,0.18,0.25,0.4,0.1,0.17,0.21,0.33,0.08,0.14,0.25,0.4,0.11,0.17,0.26,0.41,0.07,0.12,0.22,0.36,0.08,0.13,0.27,0.44,0.07,0.12,0.26,0.42,0.05,0.08,0.26,0.42,0.08,0.12,0.28,0.44,0.06,0.1,0.25,0.4,0.05,0.08,0.28,0.45,0,0.06,25.4-16c-13.72-21.84-26.74-44.49-38.69-67.31h0Zm76.78,123.57-24.26,17.65,1.84,2.53h0l0.73,1h0l0.35,0.48,0,0.05,0.69,0.94,0,0.06,0.34,0.46,0,0.05,0.32,0.44,0,0,0.33,0.44,0.07,0.09,0.32,0.43,0.06,0.08,0.28,0.37,0.08,0.1,0.3,0.4,0.11,0.14,0.28,0.37,0.09,0.12,0.25,0.34,0.11,0.15,0.29,0.39,0.11,0.14,0.23,0.31,0.12,0.16,0.26,0.35,0.12,0.16,0.28,0.38,0.12,0.16,0.21,0.27,0.13,0.17,0.27,0.36,0.15,0.2,0.2,0.27,0.2,0.27,0.17,0.23,0.15,0.2,0.26,0.34,0.16,0.21,0.16,0.22,0.24,0.32,0.17,0.22,0.17,0.22,0.18,0.24,0.23,0.31,0.14,0.18,0.26,0.34,0.15,0.19,0.19,0.25,0.12,0.16,0.29,0.38,0.14,0.18,0.21,0.28,0.21,0.27,0.18,0.24,0.12,0.16,0.3,0.39,0.12,0.16,0.19,0.25,0.12,0.16,0.3,0.39,0.13,0.16,0.29,0.38,0.13,0.16,0.19,0.24,0.14,0.19,0.27,0.35,0.14,0.18,0.2,0.26,0.22,0.29,0.18,0.24,0.13,0.17,0.29,0.38,0.13,0.17,0.18,0.23,0.22,0.29,0.2,0.26,0.14,0.18,0.27,0.35,0.15,0.19,0.18,0.23,0.16,0.2,0.26,0.33,0.15,0.2,0.16,0.21,0.26,0.34,0.16,0.21,0.17,0.22,0.24,0.31,0.17,0.22,0.16,0.2,0.26,0.34,0.16,0.2,0.18,0.23,0.2,0.26,0.21,0.27,0.16,0.2,0.22,0.28,0.19,0.24,0.18,0.23,0.14,0.18,0.28,0.35,0.14,0.18,0.22,0.28,0.17,0.22,0.22,0.28,0.13,0.17,0.28,0.36,0.14,0.18,0.2,0.25,0.17,0.22,0.24,0.3,0.15,0.19,0.27,0.35,0.13,0.17,0.21,0.27,0.13,0.16,0.29,0.36,0.13,0.16,0.25,0.32,0.13,0.17,0.25,0.31,0.11,0.14,0.3,0.38,0.11,0.13,0.26,0.33,0.09,0.11,0.3,0.38,0.12,0.15,0.31,0.39,0.08,0.1,0.27,0.34,0.09,0.11,0.32,0.4,0.09,0.11,0.33,0.41,0.07,0.08,0.29,0.36,0.09,0.11,0.33,0.41,0.08,0.1,0.31,0.39,0,0,0.33,0.41,0.09,0.11,0.33,0.41,0.06,0.08,0.3,0.38,0.06,0.08,0.34,0.42,0.07,0.09,0.35,0.43,0,0,0.33,0.4,0.06,0.07,0.34,0.42,0.07,0.09,0.34,0.42v0l0.35,0.43,0.08,0.09,0.34,0.42,0.05,0.06,0.34,0.41,0,0,0.35,0.43,0.07,0.08,0.35,0.43,0,0.05,0.32,0.4,0.06,0.07,0.34,0.42,0.07,0.09,0.7,0.86,0.08,0.1,0.34,0.42,0.06,0.07,0.33,0.4,0,0.06,0.35,0.42,0.07,0.09,0.35,0.42,0,0,0.33,0.39,0.06,0.08,0.34,0.41,0.08,0.1,0.34,0.4,0,0,0.32,0.38,0.1,0.12,0.33,0.39,0.09,0.11,0.28,0.34,0.08,0.1,0.32,0.38,0.11,0.14,0.31,0.38,0.11,0.14,0.24,0.29,0.12,0.14,0.31,0.37,0.13,0.15,0.25,0.3,0.17,0.2,0.21,0.25,0.16,0.19,0.28,0.33,0.16,0.19,0.18,0.22,0.22,0.27,0.21,0.25,0.17,0.2,0.19,0.22,0.26,0.31,0.14,0.17,0.27,0.32,0.17,0.2,0.2,0.24,0.12,0.14,0.34,0.41,0.1,0.12,0.69,0.81,0,0.06,1.21,1.42h0l1.42,1.66,22.81-19.49c-16.75-19.61-32.94-40.12-48.1-61h0Zm94,111.08-21.43,21,0.08,0.08,0.28,0.29,0.11,0.11,0.36,0.36,0.1,0.11,0.37,0.38,0,0,0.34,0.35,0.1,0.1,0.37,0.38,0.08,0.08,0.38,0.39h0l0.4,0.4,0.07,0.07,0.39,0.4,0.05,0.05,0.38,0.39,0,0,0.41,0.41,0.05,0.06,0.83,0.84,0,0,0.42,0.42,0,0,0.86,0.86,0,0,0.43,0.43,0,0,0.86,0.86,0,0,0.87,0.87h0l0.44,0.43,0,0,0.87,0.86h0l0.43,0.43,0,0,0.86,0.85,0,0,0.88,0.87h0l0.43,0.42,0,0,0.86,0.84,0,0,0.42,0.41,0,0,0.84,0.82,0.05,0.05,0.41,0.41,0,0,0.41,0.4,0,0,0.41,0.4,0.06,0.06,0.41,0.4,0,0,0.4,0.39,0.05,0.05,0.4,0.39,0.08,0.08,0.4,0.39h0l0.4,0.39,0.09,0.08,0.38,0.37,0.08,0.08,0.35,0.34,0.06,0.06,0.38,0.36,0.11,0.11,0.37,0.36,0.08,0.08,0.32,0.31,0.1,0.1,0.35,0.34,0.14,0.13,0.32,0.31,0.13,0.12,0.3,0.28,0.14,0.13,0.34,0.33,0.14,0.14,0.26,0.25,0.2,0.19,0.27,0.26,0.17,0.16,0.3,0.28,0.2,0.19,0.2,0.19,0.18,0.17,0.31,0.29,0.19,0.18,0.21,0.2,0.29,0.27,0.17,0.17,0.21,0.2,0.29,0.27,0.22,0.21,0.13,0.12,0.4,0.38,0.1,0.1,0.24,0.23,0.07,0.07,0.45,0.43,0.09,0.08,1.33,1.26,0,0q14.2,13.39,28.89,26.22L370,1773.12c-19.41-17-38.41-34.9-56.45-53.32h0Zm109.11,96.25-18.15,23.88,3.46,2.62,0,0,0.47,0.35,0,0,0.42,0.32,0.08,0.06,0.43,0.32,0.11,0.08,0.39,0.29,0.09,0.06,0.38,0.28,0.15,0.11,0.39,0.29,0.14,0.1,0.29,0.22,0.17,0.13,0.35,0.26,0.2,0.15,0.24,0.18,0.33,0.24,0.19,0.14,0.24,0.18,0.31,0.23,0.24,0.18,0.15,0.11,0.43,0.32,0.12,0.09,0.27,0.2,0,0,0.55,0.41,0.1,0.07,0.55,0.41h0q13.76,10.16,27.85,19.86l0,0,0.94,0.64h0l0.59,0.41,0.06,0,0.9,0.61,0.09,0.06,0.5,0.34,0.11,0.07,0.28,0.19,0.07,0,0.5,0.34,0.15,0.1,0.4,0.28,0.18,0.12,0.25,0.17,0.18,0.12,0.39,0.27,0.18,0.12,0.23,0.16,0.35,0.24,0.22,0.15,0.26,0.18,0.25,0.17,0.3,0.2,0.19,0.13,0.38,0.25,0.18,0.12,0.27,0.18,0.17,0.11,0.38,0.26,0.18,0.12,0.35,0.24,0.18,0.12,0.32,0.22,0.14,0.09,0.41,0.28,0.14,0.09,0.4,0.26,0.07,0,0.43,0.29,0.12,0.08,0.44,0.29,0.09,0.06,0.42,0.28,0.06,0,0.46,0.31,0.08,0.06,0.47,0.31,0,0,0.47,0.31,0.05,0,0.49,0.32,0,0,1,0.66,0,0q5.21,3.44,10.46,6.83l16.24-25.23c-21.67-13.95-43.06-28.93-63.6-44.54h0Zm121.94,79.33-14.47,26.28q31.06,17.11,63.37,32.08l0,0,0.33,0.15h0l1,0.47,0.06,0,0.28,0.13,0.06,0,0.3,0.14h0l0.34,0.16,0,0,0.27,0.12,0.11,0.05,0.24,0.11,0.09,0,0.29,0.13,0,0,0.34,0.15,0,0,0.27,0.13,0.12,0.05,0.21,0.1,0.12,0.05,0.21,0.1,0.13,0.06,0.3,0.14,0.12,0.05,0.19,0.09,0.16,0.07,0.17,0.08,0.16,0.07,0.15,0.07,0.17,0.08,0.15,0.07,0.3,0.14,0.15,0.07,0.18,0.08,0.14,0.06,0.18,0.08,0.14,0.06,0.19,0.08,0.1,0,0.2,0.09L614,1930.14c-23.47-10.62-46.82-22.31-69.41-34.76h0ZM676.82,1956l-10.46,28.12,0.11,0h0l0.3,0.11,0.07,0,0.68,0.25,0.13,0,0.18,0.07,0.17,0.06,0.14,0.05,0.2,0.07,0.1,0,0.75,0.28,0.06,0,0.27,0.1h0q18.54,6.83,37.42,13h0l1.17,0.38h0l0.26,0.08,0.07,0,0.24,0.08,0.09,0,0.81,0.26h0l0.25,0.08,0.08,0,0.24,0.08,0.06,0,0.76,0.24,0.13,0,0.21,0.07,0.12,0,0.21,0.07,0.11,0,0.47,0.15h0l0.22,0.07,0.1,0,0.22,0.07,0.13,0,0.2,0.06,0.16,0,0.27,0.09,0.21,0.07,0.18,0.06,0.16,0,0.19,0.06,0.15,0,0.17,0.05,0.19,0.06,0.31,0.1,0.14,0,0.2,0.06,0.13,0,0.2,0.06,0.15,0,0.19,0.06,0.13,0,0.37,0.12,0.14,0,0.19,0.06,0.15,0,0.2,0.06,0.13,0,0.2,0.06,0.12,0,0.37,0.12,0.14,0,0.21,0.06,0.11,0,0.23,0.07,0.09,0,0.78,0.24,0.07,0,0.22,0.07,0.11,0,0.22,0.07,0.11,0,0.21,0.07,0.1,0,0.43,0.13,0.11,0,0.22,0.07,0.1,0,0.23,0.07,0.11,0,0.75,0.23,0.09,0,0.22,0.07,0.12,0,0.23,0.07,0.08,0,0.81,0.25h0l0.27,0.08h0l1.18,0.36h0l0.29,0.09h0q8.09,2.45,16.23,4.77l8.21-28.85c-24.78-7.05-49.6-15.19-73.76-24.17h0Zm139.68,40.51-6.21,29.35q6.08,1.28,12.18,2.5h0l1.16,0.23,0.09,0,0.23,0,0.12,0,0.22,0,0.18,0,0.28,0.05,0.23,0,0.12,0,0.26,0.05,0.1,0,0.34,0.07h0l0.38,0.07h0l0.35,0.07h0q30,5.82,60.48,9.88h0l1.17,0.15h0l0.35,0h0.05l0.4,0.05,3.89-29.75c-25.58-3.34-51.33-7.74-76.52-13.07h0Zm144.15,19.57L958.8,2046q7.71,0.48,15.44.84h0l0.46,0h0l1,0h0.05l0.41,0h0.11l0.37,0h0.11l0.41,0h0.06l0.48,0h0.08l0.38,0h3.33l1,0h1.33l1.14,0H986l1.58,0.05H988l1.61,0.05H990l2,0.06h0.44l2,0.06h0l2,0.05H997l2,0h0.46l1.61,0h0.46l1.58,0h0.91l1.18,0h1.32l1.07,0h21.32l4.91,0h2.38l2.57,0-0.45-30c-5.09.08-10.25,0.12-15.34,0.12-20.75,0-41.72-.65-62.35-1.92h0Zm222.62-10.94c-25.41,4.12-51.33,7.29-77.06,9.43l2.48,29.9h0.11l0.42,0h0.12l0.22,0h0.12l0.22,0h0.15l0.42,0h0.1l0.21,0h0.15l0.2,0h0.15l0.22,0h0l0.49,0h0.12l0.21,0h0.15l0.21,0h0.13l0.39,0h0.14l0.18,0,0.18,0,0.2,0h0.14l0.21,0h0.11l0.4,0H1115l0.2,0h0.15l0.2,0,0.17,0,0.3,0,0.21,0,0.18,0,0.18,0,0.19,0,0.17,0,0.19,0,0.32,0h0.16l0.2,0,0.18,0,0.2,0h0.15l0.32,0h0.08l0.31,0h0.15l0.21,0,0.17,0,0.23,0H1120l0.34,0,0.16,0,0.21,0h0.15l0.22,0h0.15l0.27,0,0.19,0,0.24,0H1122l0.22,0h0.15l0.23,0,0.16,0,0.32,0h0.14l0.24,0h0.13l0.25,0H1124l0.34,0h0.14l0.23,0,0.15,0,0.22,0h0.15l0.28,0h0.08l0.35,0h0.12l0.25,0h0.13l0.26,0h0.12l0.35,0h0.1l0.25,0,0.16,0,0.22,0H1128l0.3,0h0.1l0.33,0h0.11l0.25,0h0.14l0.25,0h0.12l0.35,0h0.12l0.25,0h0.14l0.23,0h0.14l0.36,0h0l0.32,0h0.13l0.23,0,0.14,0,0.25,0h0.11l0.35,0h0.12l0.25,0h0.13l0.27,0h0.1l0.36,0h0.1l0.27,0h0.14l0.24,0h0.13l0.31,0h0.05l0.36,0h0.12l0.24,0h0.14l0.24,0h0.13l0.34,0h0.11l0.25,0,0.15,0,0.23,0h0.13l0.31,0h0.08l0.33,0h0.12l0.24,0,0.14,0,0.24,0h0.13l0.34,0,0.14,0,0.22,0,0.17,0,0.19,0,0.18,0,0.24,0,0.21,0,0.24,0,0.16,0,0.2,0,0.18,0,0.19,0,0.22,0,0.28,0,0.17,0,0.18,0,0.18,0,0.19,0,0.17,0,0.24,0,0.27,0,0.17,0,0.2,0,0.16,0,0.2,0,0.17,0,0.37,0,0.13,0,0.22,0,0.13,0,0.21,0,0.14,0,0.21,0h0.1l0.44-.05h0.11l0.24,0h0.11l0.23,0h0.1l0.47-.06H1148l0.23,0h0.11l0.23,0h0.12l0.81-.1h0.05l0.27,0h0.06l1.18-.15h0q18.59-2.32,37-5.31l-4.8-29.61h0Zm141.46-33.8c-24.55,7.82-49.72,14.76-74.82,20.63l6.83,29.21q14.29-3.34,28.42-7.08h0l0.37-.1h0l0.76-.2h0l0.36-.1h0l0.35-.09h0l0.74-.2h0l0.33-.09h0l0.35-.09h0l0.73-.2,0.07,0,0.29-.08,0.07,0,0.35-.09h0l0.38-.1h0l0.33-.09,0.09,0,0.28-.07,0.08,0,0.73-.2h0l0.31-.08,0.1,0,0.29-.08,0.06,0,0.72-.2,0.06,0,0.3-.08,0.08,0,0.32-.09h0l0.74-.2h0l0.32-.09,0.06,0,1.1-.3h0.05l0.3-.08,0.09,0,0.72-.2h0l0.35-.1h0l0.31-.09,0.06,0,0.74-.21h0l0.35-.1h0.05l0.32-.09h0l0.74-.21h0l0.36-.1h0l0.35-.1h0l0.74-.21h0l0.33-.09h0l0.33-.09h0l0.73-.21h0l0.34-.1h0l1.12-.32h0l0.37-.1h0l1.12-.32h0l1.49-.43h0c6.31-1.83,12.57-3.71,18.82-5.65h0l1.12-.35h0l1.49-.47h0l1.11-.35h0l0.36-.11h0l0.36-.11h0l0.72-.23,0.06,0,0.3-.1,0.06,0,0.31-.1,0,0,0.36-.11h0l0.24-.08-9.11-28.58h0Zm134.94-54.25c-23.15,11.35-47,21.92-71,31.41l11.05,27.89q14-5.54,27.75-11.48h0l0.24-.11,0.07,0,0.24-.1,0.05,0,0.78-.34,0.06,0,0.22-.1,0.1,0,0.21-.09,0.09,0,0.7-.3,0.13-.05,0.17-.08,0.16-.07,0.16-.07,0.18-.08,0.15-.07,0.3-.13,0.1,0,0.24-.1,0.11,0,0.23-.1,0.12-.05,0.2-.09,0.13-.06,0.32-.14,0,0,0.29-.13,0.09,0,0.25-.11,0.09,0,0.26-.12,0.07,0,0.68-.3,0,0,0.31-.13,0,0,0.33-.14h0l2.48-1.1h0l0.35-.16h0c3.79-1.69,7.55-3.38,11.31-5.11l0,0,1.37-.63,0.06,0,0.31-.14h0l0.68-.32,0.06,0,0.27-.12,0.09,0,0.25-.12,0.08,0,0.32-.15h0l0.32-.15,0.1,0,0.22-.1,0.13-.06,0.2-.09,0.12-.06,0.21-.1,0.19-.09,0.23-.11,0.17-.08,0.13-.06,0.2-.09,0.11-.05,0.21-.1,0.07,0,0.76-.36,0,0,0.25-.12,0,0,0.25-.12h0q7.9-3.71,15.73-7.55l-13.21-26.93h0Zm125.55-73.47c-21.25,14.62-43.33,28.58-65.62,41.48l15,26,0.13-.07,0.29-.17,0.18-.1,0.39-.23,0.18-.1,0.42-.24,0.12-.07,0.37-.21,0.13-.08,0.45-.26,0.1-.06,0.47-.27h0l0.48-.28,0.09-.05,0.48-.28,0.06,0,0.49-.29h0l0.52-.3,0,0,1-.61h0q27.24-16,53.37-33.67h0l1.52-1,0.05,0,1-.65,0.08-.05,0.46-.31,0.08-.05,0.4-.27,0.08-.06,0.43-.29,0.13-.09,0.42-.29,0.12-.08,0.34-.23,0.15-.1,0.39-.27,0.17-.12,0.3-.2,0.24-.17,0.27-.18,0.21-.14,0.35-.24,0.23-.16,0.19-.13,0.17-.12-17-24.71h0Zm113.52-91c-18.89,17.55-38.71,34.58-58.9,50.6l18.65,23.5q31.35-24.88,60.66-52.12l-20.42-22h0Zm99.1-106.54c-16.13,20.1-33.27,39.82-50.92,58.62l21.87,20.54q2.56-2.73,5.1-5.47l0,0,0.41-.45h0l0.39-.42,0,0,0.38-.41,0.08-.09,0.36-.39,0.08-.08,0.3-.33,0.1-.11,0.34-.37,0.13-.14,0.26-.28,0.17-.19,0.25-.27,0.16-.18,0.3-.32,0.16-.18,0.19-.21,0.23-.25,0.22-.24,0.19-.21,0.15-.16,0.34-.37,0.12-.13,0.46-.5h0l0.23-.25,0.09-.09,0.42-.46,0.05-.06,0.74-.82,0,0c5.32-5.87,10.54-11.77,15.73-17.77l0,0,0.73-.84,0,0,0.44-.51,0.06-.07,0.7-.81,0.08-.09,0.38-.45,0.09-.1,0.22-.26,0.07-.08,0.37-.44,0.12-.14,0.3-.35,0.16-.19,0.19-.22,0.16-.19,0.27-.32,0.17-.2,0.18-.21,0.27-.31,0.18-.21,0.19-.22,0.2-.24,0.23-.27,0.15-.18,0.29-.34,0.13-.15,0.23-.27,0.12-.15,0.31-.36,0.12-.14,0.32-.38,0.08-.09,0.28-.33,0.1-.12,0.32-.38,0.1-.12,0.31-.37,0-.06,0.34-.4,0.08-.1,0.35-.41,0.05-.06,0.34-.41,0,0,0.37-.44,0.05-.06,0.37-.45h0l0.38-.46,0,0,0.38-.46,0,0,0.79-.94h0q6-7.21,11.87-14.52l-23.4-18.78h0Zm82.54-119.81c-13,22.23-27.1,44.23-41.84,65.4l24.62,17.14q3.1-4.46,6.16-9l0-.06,0.36-.53,0.07-.1,0.19-.27,0.09-.13,0.29-.42,0.13-.19,0.15-.22,0.24-.36,0.13-.19,0.21-.31,0.12-.18,0.23-.35,0.11-.16,0.27-.41,0.08-.13,0.25-.37,0.06-.09,0.3-.45,0.06-.1,0.31-.47v0l0.32-.48,0,0,0.33-.49,0,0,0.68-1h0q16.64-24.93,31.85-50.87l-25.88-15.17h0Zm64.12-130.56c-9.62,23.9-20.32,47.72-31.8,70.81l26.86,13.36q3.88-7.81,7.64-15.69v0l0.52-1.1v0l0.13-.27v0l0.39-.83h0l0.12-.25,0-.05,0.11-.24,0-.08,0.11-.23,0,0,0.37-.78,0-.06,0.11-.23,0-.08,0.1-.21,0.06-.12,0.32-.69,0-.09,0.1-.21,0.05-.11,0.09-.2,0-.1,0.31-.67,0.06-.13,0.09-.19,0.06-.12,0.08-.18,0.07-.15,0.08-.17,0.14-.29,0.07-.15,0.08-.16,0.08-.17,0.08-.16,0.07-.15,0.09-.19,0.06-.12,0.14-.31,0-.1,0.1-.22,0.06-.13,0.09-.2,0.05-.11,0.11-.24,0-.08,0.15-.33v0l0.14-.3,0-.1,0.11-.25,0-.08,0.13-.27,0-.06,0.3-.66,0-.09,0.11-.25,0-.08,0.13-.28,0-.05,0.31-.68,0,0,0.14-.3,0-.05,0.14-.3,0,0,0.31-.68,0,0,0.14-.31,0,0,0.15-.32v0l0.48-1.05h0q9-19.86,17.18-40.15l-27.83-11.21h0Zm44.22-138.55c-6,25.06-13.08,50.2-21,74.71l28.53,9.26q12.29-37.85,21.68-77l-29.17-7h0Zm23.38-143.57c-2.27,25.71-5.58,51.62-9.85,77l29.59,5v0l0-.21,0-.13,0-.22,0-.11,0.07-.41,0-.12,0-.21,0-.13,0-.21,0-.12,0.07-.43,0-.1,0-.18,0-.17,0-.19,0-.17,0-.19,0-.18,0-.3,0-.19,0-.17,0-.19,0-.17,0-.21,0-.14,0.05-.33,0-.16,0-.21,0-.15,0-.22,0-.14,0.05-.32,0-.12,0-.25,0-.15,0-.22,0-.14,0-.24,0-.14,0.05-.32,0-.15,0-.2,0-.16,0-.22,0-.13,0.05-.34,0-.11,0-.25,0-.13,0-.24,0-.14,0-.27v-0.08l0.05-.34,0-.13,0-.24,0-.14,0-.22,0-.15,0.05-.33,0-.13,0-.23,0-.16,0-.2,0-.16,0-.23,0-.19,0-.26,0-.15,0-.2,0-.17,0-.2,0-.16,0-.32,0-.17,0-.18,0-.18,0-.18,0-.18,0-.24,0-.2,0-.22,0-.18,0-.18,0-.17,0-.2,0-.15,0-.32,0-.17,0-.18,0-.19,0-.17,0-.18,0-.26,0-.2,0-.23,0-.16,0-.2,0-.16,0-.23,0-.13,0-.33,0-.18,0-.17,0-.19,0-.15,0-.21v-0.09l0.06-.41,0-.16,0-.19,0-.17,0-.19,0-.15,0.05-.37,0-.14,0-.2,0-.15,0-.21,0-.13,0-.22h0l0.07-.52,0-.12,0-.22,0-.11,0-.24v-0.07l0.12-.83v-0.07l0-.26v-0.06l0.12-.87v0l0-.29v0l0.16-1.18v0l0-.29h0l0.13-.92h0l0-.3h0q3.32-24.26,5.5-48.87l-29.88-2.64h0Zm32.24-147.24-30,1.69c1.06,18.84,1.6,38,1.6,57,0,6.88-.07,13.86-0.21,20.73l30,0.61q0.09-4.15.14-8.32v-0.36q0-.47,0-0.93v-1.17q0-.22,0-0.44V1032c0-.1,0-0.19,0-0.3v-0.54c0-.07,0-0.17,0-0.24v-0.51c0-.14,0-0.24,0-0.38v-1.76c0-.1,0-0.18,0-0.28v-2.57c0-.14,0-0.24,0-0.38h0c0-.15,0-0.3,0-0.44v-2.38c0-.1,0-0.2,0-0.3V1018c0-.1,0-0.2,0-0.3v-4.27c0-.3,0-0.6,0-0.9v-3.23h0c0-.45,0-0.91,0-1.36v-1.87q0-1.14,0-2.27v-1.4q-0.39-18.12-1.41-36.09h0ZM2025,817.74l-29.38,6c5.19,25.22,9.45,51,12.65,76.6l29.77-3.73c-0.85-6.8-1.76-13.54-2.75-20.3h0l-0.05-.37v-0.06l0-.33v-0.06l-0.06-.38h0l-0.05-.36v-0.09l0-.29v-0.08l-0.05-.35v0l-0.06-.37v-0.08l0-.28,0-.11,0-.26,0-.11-0.05-.35v-0.1l0-.27,0-.13,0-.24,0-.14,0-.25,0-.11-0.05-.33,0-.16,0-.2,0-.17,0-.17,0-.2,0-.16-0.05-.34,0-.17,0-.2,0-.16,0-.19,0-.16,0-.28,0-.23,0-.18,0-.16,0-.2,0-.16,0-.19,0-.19,0-.28,0-.2,0-.19,0-.16,0-.21,0-.14,0-.2,0-.17-0.06-.35,0-.13,0-.21,0-.14,0-.21,0-.14-0.06-.4,0-.11,0-.21,0-.14,0-.2,0-.15-0.12-.74,0-.12,0-.2,0-.16,0-.18,0-.16-0.06-.36,0-.14,0-.19,0-.16,0-.2,0-.16,0-.2,0-.14-0.06-.36,0-.17,0-.18,0-.17,0-.19,0-.16-0.05-.33,0-.17,0-.19,0-.16,0-.18,0-.17,0-.18,0-.28,0-.2,0-.19,0-.2,0-.16,0-.18,0-.19,0-.19,0-.3,0-.18,0-.17,0-.19,0-.19,0-.15-0.05-.3,0-.15,0-.24,0-.17,0-.18,0-.18,0-.2,0-.16-0.06-.32,0-.16,0-.2,0-.15,0-.21,0-.15,0-.24,0-.21,0-.22,0-.17,0-.19,0-.17,0-.18,0-.17-0.06-.33,0-.12,0-.24,0-.14,0-.22,0-.14,0-.25,0-.17,0-.28,0-.12,0-.24,0-.14,0-.24,0-.12-0.06-.35,0-.1,0-.26,0-.13,0-.23,0-.14,0-.28v-0.08l-0.06-.34,0-.15,0-.21,0-.15,0-.22,0-.13-0.06-.34,0-.12,0-.22,0-.18,0-.19,0-.16,0-.25,0-.1-0.06-.35,0-.1,0-.26,0-.12,0-.28v-0.08l-0.06-.36v-0.08l0-.27,0-.13,0-.23,0-.14,0-.26,0-.09-0.06-.34,0-.12,0-.25,0-.12,0-.23,0-.13-0.06-.34v-0.06l-0.05-.29,0-.14,0-.22,0-.14,0-.25,0-.11-0.07-.35,0-.08,0-.27,0-.13,0-.23,0-.13-0.06-.3,0-.12-0.05-.27,0-.14,0-.2,0-.17,0-.21,0-.13-0.06-.33,0-.17,0-.19,0-.17,0-.17,0-.19,0-.18-0.06-.32,0-.15,0-.21,0-.14,0-.19,0-.16-0.14-.76v-0.07l0-.24,0-.1,0-.24v0l-0.16-.83,0-.08,0-.25v-0.07l-0.16-.83v0l-0.05-.27v0l-0.23-1.19h0q-0.93-4.73-1.9-9.44h0Zm-41-144.16-28.17,10.31c8.85,24.21,16.85,49.07,23.77,73.89l28.9-8.05c-7.19-25.78-15.38-51.23-24.49-76.14h0ZM1922.33,537L1896,551.34c12.32,22.66,23.89,46.07,34.38,69.6l27.4-12.22c-1.76-3.93-3.54-7.88-5.35-11.79h0l-0.15-.34v0l-0.48-1,0-.05-0.14-.29,0,0-0.14-.3,0,0-0.31-.66,0-.09-0.11-.24,0-.1-0.1-.21-0.06-.12-0.11-.24,0-.1-0.13-.28-0.07-.15-0.08-.17-0.07-.16-0.07-.16-0.08-.17-0.08-.16-0.09-.19-0.12-.25-0.08-.17-0.07-.16-0.07-.16-0.08-.16-0.07-.15-0.08-.16-0.32-.68,0-.07-0.1-.21,0-.1-0.1-.22,0-.06-0.36-.77,0,0-0.12-.25,0,0-0.12-.26v0l-0.53-1.12h0q-7.32-15.4-15.12-30.51h0l-0.55-1.07,0,0-0.11-.22,0-.09-0.12-.22,0,0-0.4-.78,0,0-0.12-.23,0-.06-0.12-.23,0-.07-0.37-.71,0-.08-0.1-.2-0.06-.11-0.1-.2-0.06-.11-0.1-.19,0-.09-0.2-.38-0.06-.11-0.09-.18-0.07-.13-0.09-.16-0.09-.17-0.07-.14-0.1-.19-0.12-.23-0.09-.18-0.07-.14-0.09-.18-0.07-.14-0.09-.18-0.07-.14-0.09-.17-0.12-.23-0.11-.21-0.06-.11-0.11-.2-0.07-.13-0.11-.21-0.05-.1-0.14-.27,0,0-0.17-.32,0-.06-0.14-.27,0-.07-0.14-.27,0,0-0.16-.31v0l-0.35-.66,0,0-0.16-.3,0,0-0.72-1.34v0c-1.09-2-2.21-4.11-3.31-6.15h0Zm-81-126.06-24,18c15.5,20.62,30.36,42.09,44.19,63.83l25.31-16.1-0.09-.15-0.07-.11-0.31-.49-0.07-.11-0.58-.91,0-.06-0.38-.6v0q-20.82-32.53-44-63.31h0ZM1742.75,298l-21.11,21.32c18.32,18.14,36.16,37.23,53,56.74l22.7-19.61-1.81-2.09,0,0-0.48-.55h0l-0.71-.82-0.08-.09-0.44-.5,0,0-0.22-.25-0.12-.14-0.33-.38-0.14-.16-0.19-.22-0.27-.31-0.18-.21-0.17-.2-0.24-.27-0.21-.24-0.16-.19-0.29-.33-0.15-.17-0.21-.24-0.15-.17-0.31-.35-0.13-.15L1790,348l-0.11-.12-0.28-.32-0.1-.12-0.33-.38-0.11-.12-0.31-.35-0.06-.07-0.34-.39-0.09-.1-0.35-.39-0.08-.09-0.32-.36-0.07-.07-0.36-.4-0.08-.09-0.37-.41,0,0-0.36-.4-0.05-.06-0.37-.42-0.06-.07-0.77-.85-0.06-.06-0.38-.42,0,0-0.39-.43h0l-0.39-.44,0,0-1.22-1.36,0,0-0.82-.91v0l-2.51-2.77h0l-2.1-2.3h0l-1.26-1.37h0l-1.26-1.37h0l-0.84-.91h0l-1.26-1.36,0,0-1.26-1.35,0,0-0.84-.89,0,0-0.42-.45h0l-0.83-.89,0,0-0.84-.89h0l-0.41-.44,0,0-0.82-.87,0,0-0.4-.43,0,0-0.81-.85-0.05-.05-0.4-.42,0,0-0.39-.41,0,0-0.39-.41-0.06-.06-0.39-.41,0,0-0.38-.39-0.05-.06-0.38-.4-0.07-.07-0.77-.81-0.08-.09-0.37-.39-0.07-.07-0.35-.36-0.06-.06-0.37-.38-0.1-.11-0.36-.37-0.08-.09-0.31-.32-0.09-.1-0.35-.37-0.11-.11-0.33-.34-0.11-.11-0.29-.3-0.14-.14-0.33-.34-0.13-.14-0.26-.27-0.16-.16-0.29-.3-0.15-.16-0.32-.33-0.16-.16-0.22-.23-0.15-.15-0.31-.32-0.17-.17-0.22-.23-0.25-.25-0.2-.2-0.18-.18-0.3-.31-0.18-.19-0.19-.19-0.27-.28-0.19-.2-0.2-.2-0.17-.17-0.32-.32-0.15-.15-0.31-.31-0.17-.17-0.22-.22-0.13-.13-0.37-.37-0.13-.13-0.45-.46,0,0-0.23-.24-0.1-.1-0.41-.42-0.08-.08-0.76-.77-0.06-.06-0.5-.5h0l-0.79-.79,0,0-0.79-.79h0l-0.53-.53h0l-4.16-4.14h0Zm-113.89-97.41-17.79,24.16c20.75,15.28,41.17,31.57,60.69,48.43l19.61-22.7c-5.44-4.7-10.89-9.31-16.43-13.9l-0.06-.05-0.83-.69-0.1-.08-0.43-.36-0.13-.11-0.25-.2L1673,235l-0.37-.31-0.16-.13-0.35-.29-0.19-.16-0.21-.17-0.29-.24-0.23-.18-0.23-.19-0.18-.15-0.34-.28-0.19-.15-0.29-.23-0.2-.17-0.28-.23-0.15-.13-0.37-.3-0.14-.11-0.31-.25-0.14-.12-0.35-.29-0.13-.11-0.39-.32-0.11-.09-0.35-.28-0.09-.08-0.41-.33-0.1-.08-0.42-.34,0,0-0.42-.34-0.07-.06-0.43-.35-0.07-.05-0.91-.73,0,0-0.46-.37,0,0-0.94-.75,0,0-1-.76h0l-0.48-.39h0q-15.87-12.68-32.24-24.73h0ZM1502,120.83l-14.07,26.5c22.75,12.08,45.33,25.22,67.09,39.06l16.1-25.32q-7.36-4.68-14.81-9.24l0,0-1-.62,0,0-0.5-.31,0,0-0.51-.31h0l-0.5-.31-0.06,0-0.5-.3h0l-0.48-.29-0.06,0-0.48-.29-0.09-.05-1-.58-0.09-.05-0.47-.28-0.08,0-0.43-.26-0.07,0-0.47-.28-0.1-.06-0.47-.28,0,0-0.45-.27-0.08-.05-0.46-.28-0.1-.06-0.44-.26,0,0-0.47-.28-0.11-.06-0.46-.28-0.09-.05-0.42-.25-0.09-.05-0.46-.27L1545,145l-0.47-.28,0,0-0.46-.28-0.08,0-0.48-.28-0.08,0-0.49-.29h0l-0.5-.29-0.08,0-0.49-.29,0,0-0.47-.28-0.06,0-0.49-.29-0.07,0-1-.59-0.05,0-0.51-.3,0,0-1-.61,0,0-1.05-.61h0l-0.53-.31h0q-17-9.89-34.45-19.15h0ZM1364.8,60.49l-10,28.28c24.28,8.61,48.54,18.29,72.09,28.79l12.21-27.4q-36.43-16.24-74.28-29.67h0ZM1220.24,21l-5.75,29.44c25.31,4.94,50.72,11,75.54,17.86l8-28.9-2.08-.58h0l-0.26-.07-0.08,0-0.25-.07h0l-0.51-.14-0.09,0-0.19-.05-0.16,0-0.18,0-0.16,0-0.18,0-0.32-.09-0.08,0-0.28-.08-0.1,0-0.26-.07-0.09,0-0.29-.08-0.07,0-0.36-.1h0l-0.35-.09-0.06,0-0.32-.09h0q-35-9.49-71-16.54h0ZM1071.44,3.13l-1.4,30c25.8,1.2,51.83,3.43,77.36,6.62l3.72-29.77c-10.21-1.27-20.49-2.4-30.79-3.38h0l-1.2-.11h0l-0.39,0h0l-0.77-.07h-0.08l-0.31,0h-0.07l-0.75-.07h-0.08l-0.29,0h-0.11l-0.31,0h-0.06l-0.36,0h-0.12l-0.25,0H1115l-0.2,0-0.17,0-0.33,0h-0.14l-0.22,0-0.18,0-0.18,0-0.18,0h-0.17l-0.37,0h-0.13l-0.22,0h-0.13l-0.23,0H1112l-0.78-.07h-0.1l-0.25,0h-0.08L1110,5.64h0l-0.3,0h0q-19-1.59-38.18-2.49h0Z" transform="translate(146.76 -2)"/><path d="M849,555.61c146.38,0,212.91,104.24,212.91,224,0,363.72-401.43,714.14-825,727.45,48.79,119.76,148.59,204,334.89,204,388.12,0,578.85-306.06,731.88-618.77h-8.87c-97.58,0-175.21-79.84-175.21-177.43,0-237.31,259.49-365.94,463.53-365.94a831.1,831.1,0,0,1,97.58,6.65c84.28-79.84,157.46-130.85,230.65-130.85,15.53,0,26.61,15.53,26.61,31,0,39.92-133.07,139.72-232.87,139.72-8.87,0-17.74,0-28.83-2.22C1565.41,721.95,1463.39,906,1403.5,1063.49c153-46.57,248.4-197.39,303.84-361.5l13.31,4.44c-55.45,170.77-159.68,326-323.8,372.59-126.42,330.46-443.57,645.39-825,645.39-195.17,0-301.63-90.93-350.42-217.35H210.31c-195.17,0-357.07-155.25-357.07-350.42,0-410.3,370.38-782.89,709.71-782.89,150.81,0,224,77.62,241.74,184.08C820.21,555.61,835.74,555.61,849,555.61ZM183.7,1272c0-354.85,337.11-672,607.69-711.92-15.53-99.8-82.06-173-228.44-173-330.46,0-696.4,363.72-696.4,769.59,0,186.3,157.47,337.11,343.76,337.11H217C192.57,1427.22,183.7,1349.59,183.7,1272ZM809.13,611.05c0,175.21-124.2,310.5-239.53,374.81l-4.44-13.31c110.89-64.32,230.66-195.17,230.66-361.51,0-13.31,0-24.4-2.22-37.7C529.68,613.27,197,923.77,197,1272c0,77.62,8.87,155.25,33.27,221.78,419.17-13.31,805.07-448,805.07-729.67,0-104.24-48.79-195.17-186.3-195.17-13.31,0-28.83,0-42.14,2.22C809.13,584.44,809.13,597.75,809.13,611.05Zm838.34-22.18c-33.27-6.65-66.53-13.31-86.49-13.31-197.39,0-428,110.89-428,339.33,0,88.71,73.19,164.12,161.9,164.12h15.52C1401.29,892.72,1527.7,713.07,1647.46,588.88ZM1727.31,560c95.37,0,197.39-75.41,197.39-104.24,0-11.09-6.65-17.74-13.31-17.74-62.1,0-133.07,48.79-204,122h20Z" transform="translate(146.76 -2)"/></svg>