<svg style="fill: #000000;" id="Layer_1" data-name="Layer 1" xmlns="http://www.w3.org/2000/svg" viewBox="0 0 2443.61 2046"><defs><style>.cls-1{fill:#fff;}</style></defs><title>social-pinterest</title><circle class="cls-1" cx="1373.67" cy="1023" r="1023"/><path d="M1023,2h-11.17l-1.64,0h0q-25,.31-49.6,1.79h0l-0.78,0H959.7l-0.31,0h-0.1L959,4H958.9l-0.35,0h-0.1l-0.26,0h-0.71l-0.37,0h-0.48l-0.24,0h0l-0.86.06h-0.05q-6.19.4-12.36,0.88L945.38,35c25.65-2,51.76-3,77.62-3V2h0ZM873.52,12.84q-37.64,5.51-74.36,13.72h-0.05l-1.15.26H797.9l-0.26.06-0.07,0-0.25.06h0l-0.49.11-0.1,0-0.21,0-0.14,0-0.18,0-0.19,0-0.15,0-0.33.07-0.13,0-0.22.05-0.15,0-0.09,0,6.66,29.25c25.11-5.72,50.78-10.51,76.31-14.25l-4.35-29.68h0ZM727.23,45.41c-7.47,2.25-14.88,4.58-22.28,7h0l-1.1.36h0l-0.33.11h0l-1.08.36-0.06,0-0.3.1-0.07,0-0.31.1,0,0-0.36.12h0l-0.33.11-0.11,0-0.24.08-0.11,0-0.25.08-0.1,0-0.34.11,0,0-0.28.09-0.13,0-0.22.07-0.12,0-0.25.08-0.09,0-0.33.11-0.13,0-0.2.07-0.16.05-0.18.06-0.15.05-0.19.06-0.16.05-0.31.1-0.15,0-0.19.06-0.16.05-0.19.06-0.15.05-0.17.06-0.67.23-0.13,0-0.21.07-0.12,0-0.2.07L694.3,56,694,56l-0.21.07-0.17.06-0.15.05-0.2.07-0.14,0-0.2.07-0.13,0-0.7.24-0.12,0-0.21.07-0.12,0-0.2.07-0.15,0-0.35.12-0.14,0-0.19.06-0.14,0-0.19.06-0.16.06-0.17.06-0.16.05-0.3.1-0.18.06-0.18.06-0.16.05-0.19.07-0.13,0-0.2.07-0.13,0-0.34.12-0.15.05-0.19.07-0.13,0-0.2.07-0.13,0-0.2.07-0.1,0-0.41.14-0.1,0-0.21.07-0.12,0-0.22.08-0.1,0-0.21.07-0.13,0-0.35.12-0.14.05-0.19.07-0.13,0-0.19.07-0.16.06-0.17.06-0.15.05-0.37.13-0.11,0-0.2.07-0.13,0-0.21.07-0.12,0-0.2.07-0.14,0-0.34.12-0.15.05-0.2.07-0.12,0-0.2.07-0.14.05-0.18.06-0.21.08-0.23.08-0.19.07-0.16.06-0.16.06-0.19.07-0.15.05-0.16.06-0.24.09-0.21.08-0.2.07-0.16.06-0.16.06-0.17.06-0.18.07-0.15.05-0.29.1-0.15.05-0.2.07-0.15.05-0.18.07-0.17.06-0.17.06-0.15.06-0.25.09-0.21.07-0.2.07-0.15.05-0.18.06-0.16.06-0.22.08-0.11,0-0.34.12-0.05,0-0.28.1-0.12,0-0.21.07-0.15.05-0.22.08-0.1,0-0.32.12-0.11,0-0.23.08-0.12,0-0.22.08-0.12,0-0.25.09-0.09,0L672,63.8l-0.09,0-0.25.09-0.11,0-0.22.08-0.13,0-0.25.09-0.07,0-0.34.12-0.06,0-0.3.11-0.06,0-0.27.1-0.09,0-0.31.11h0l-0.35.13h0l-0.3.11-0.08,0-0.26.1-0.09,0-0.69.25-0.05,0-0.3.11-0.06,0-0.29.11-0.06,0-0.71.26h0l-0.33.12,0,0-0.31.11-0.06,0-0.7.26h0l-0.33.12,0,0-0.3.11-0.06,0-1.05.4,0,0-0.31.12,0,0-0.71.27h0l-0.35.13h0l-1.44.55h0l-0.34.13h0l-2.54,1h0l-5.36,2.07,10.89,28c24-9.36,48.71-17.88,73.38-25.32l-8.66-28.72h0ZM587.33,99.14q-11.9,5.61-23.63,11.51h0l-1.09.55h0l-0.26.13,0,0-0.26.13h0l-0.8.41,0,0-0.22.11-0.09,0-0.21.11-0.1,0-0.2.1,0,0-0.45.23-0.09,0-0.19.1-0.12.06-0.18.09-0.15.08-0.16.08-0.13.07-0.32.16-0.15.07-0.15.08-0.16.08-0.16.08-0.15.07-0.17.09-0.12.06-0.31.16-0.18.09-0.13.07-0.18.09-0.14.07-0.2.1-0.1.05-0.31.16h0l-0.33.17-0.06,0-0.27.14-0.08,0-0.26.13-0.06,0-0.31.16h0l-0.68.35h0q-19,9.8-37.45,20.36l14.88,26.05c22.4-12.79,45.57-24.85,68.87-35.83L587.33,99.14h0Zm-130.5,73.68Q423.49,195,392,219.71l18.52,23.6c20.29-15.92,41.45-31.23,62.9-45.51l-16.62-25h0ZM338.47,264.76l-4.44,4h0l-0.84.77,0,0-1.38,1.27,0,0-0.83.76h0l-0.53.49,0,0-0.81.74-0.06.06-0.49.45,0,0-0.8.74-0.07.07-0.52.48h0l-0.27.25-0.06.06-0.46.43-0.1.09-0.47.44-0.06.05-0.24.22-0.11.1-0.42.39-0.11.1-0.24.22-0.07.06-0.45.42-0.11.11-0.41.38-0.11.1-0.25.23-0.08.08-0.43.4L323,279l-0.42.39-0.1.09-0.23.22-0.13.12-0.37.34-0.16.15-0.21.2-0.27.26-0.24.23-0.14.13-0.36.34-0.14.13-0.23.22-0.15.14-0.35.33-0.16.15-0.32.31-0.17.16-0.22.21-0.15.14-0.34.33-0.17.16-0.2.19-0.3.28-0.2.19-0.19.18-0.31.3-0.17.16-0.22.21-0.2.19-0.29.28-0.16.16-0.31.3-0.18.18-0.21.2-0.19.18-0.31.3-0.17.16-0.22.21-0.28.27-0.2.19-0.18.17-0.3.29-0.18.17-0.2.19-0.29.28-0.21.2-0.18.17-0.29.28-0.21.2-0.2.19-0.21.2-0.28.27-0.18.18-0.19.18-0.3.29-0.2.19-0.2.19-0.27.26-0.2.2-0.19.19-0.3.29-0.18.18-0.21.2-0.22.21-0.26.26-0.17.16-0.31.3-0.17.17-0.23.22-0.16.15-0.32.31-0.16.16-0.29.28-0.16.16-0.25.25-0.16.16-0.32.32-0.15.15-0.27.27-0.16.16-0.3.29-0.14.14-0.34.34-0.12.12-0.28.28-0.11.11-0.34.34-0.13.13-0.35.35-0.1.1-0.29.28-0.13.12-0.35.35-0.11.11-0.34.34-0.07.06-0.36.36-0.09.09-0.37.37-0.08.08-0.35.35-0.06.06-0.39.39-0.08.08-0.39.39,0,0-0.37.37-0.06.06-0.39.39-0.06.06-0.82.82,0,0-0.4.41,0,0-0.82.83,0,0-0.86.87h0l-0.43.44h0q-6.8,6.89-13.47,13.92l21.75,20.66c17.76-18.69,36.47-36.92,55.63-54.18l-20.08-22.29h0ZM234.73,372.92l-0.09.11-0.21.26-0.19.23-0.22.26-0.14.17-0.3.36-0.12.15-0.24.29-0.13.16-0.28.34-0.12.15-0.31.37-0.11.13-0.25.31-0.1.12-0.31.38-0.11.14-0.31.38-0.07.09-0.28.34-0.1.12-0.32.4-0.09.11-0.3.36-0.06.07-0.34.42-0.08.1-0.34.41-0.07.08-0.31.38-0.06.07-0.33.41-0.09.11-0.34.42,0,0-0.33.41-0.06.08-0.35.43-0.06.07-0.35.43h0l-0.36.44-0.06.07-0.36.44,0,0-0.36.45,0,0-0.36.45-0.06.07-0.73.91,0,0-0.36.45,0,0-0.74.93,0,0-0.37.46,0,0-0.75.94,0,0-0.74.94,0,0-0.37.47,0,0-0.76,1v0l-0.38.48h0l-0.76,1,0,0-3.07,3.92h0l-3.06,3.94h0q-13.75,17.8-26.73,36.22l24.52,17.28c14.84-21.07,30.71-41.82,47.16-61.68l-23.11-19.14h0ZM147.81,495l-0.49.81,0,0-0.56.93-0.07.11-0.29.48-0.09.15-0.16.26L146,498l-0.22.36-0.13.22-0.13.22-0.22.37-0.13.22-0.18.3-0.13.21-0.2.34-0.1.17-0.25.42-0.08.14-0.21.36-0.07.12-0.26.44-0.08.13-0.27.46,0,0.05L143,503l-0.06.1-0.27.46-0.06.1-0.28.47h0l-0.29.5,0,0.07-0.3.5h0l-0.31.53h0l-0.31.52,0,0-0.62,1.06h0q-5.38,9.14-10.57,18.41h0l-0.9,1.61,0,0.05-0.57,1,0,0.06-0.28.5,0,0.06-0.28.5h0l-0.27.49-0.05.09-0.27.48,0,0.07-0.25.44,0,0.07-0.26.47-0.06.11-0.26.48,0,0-0.24.44-0.07.13-0.25.45-0.07.13-0.21.38-0.07.12-0.24.44-0.08.15-0.24.43-0.08.15-0.18.33-0.09.17-0.22.41-0.11.19-0.17.31-0.13.23-0.17.32-0.11.21-0.2.36-0.14.25-0.12.22-0.19.36-0.13.24-0.14.26-0.1.18-0.24.45-0.08.16-0.49.92-0.06.12-0.3.55,0,0.08-0.53,1,0,0c-4,7.44-7.87,14.91-11.68,22.46l26.79,13.51c11.6-23,24.27-45.84,37.65-67.89L147.81,495h0ZM79.68,628.49q-10.27,24.39-19.29,49.42h0l-0.11.29h0l-0.42,1.18h0l-0.09.26,0,0.08-0.09.25v0l-0.3.83,0,0.06-0.09.25,0,0.06-0.09.25,0,0.06-0.27.76,0,0.11-0.07.2,0,0.14-0.07.2,0,0.13-0.15.42,0,0.06-0.07.2,0,0.14L58.2,684l-0.06.16-0.06.16-0.07.21-0.06.17-0.09.26-0.06.18-0.06.16-0.05.15-0.07.2-0.05.15-0.07.21,0,0.12-0.11.31-0.05.15-0.07.21,0,0.14-0.07.2,0,0.14-0.08.22,0,0.11-0.11.32,0,0.14-0.07.2,0,0.14-0.07.2,0,0.14-0.1.29v0l-0.12.34,0,0.12-0.08.22,0,0.13-0.07.21,0,0.13-0.08.23,0,0.14-0.1.29-0.05.15-0.07.2,0,0.13-0.08.23,0,0.11-0.1.29,0,0-0.11.33,0,0.12-0.08.23,0,0.13L55,693.1l0,0.13-0.09.26,0,0.08-0.11.33,0,0.12-0.07.21,0,0.14-0.07.2,0,0.15-0.08.22,0,0.11-0.11.31-0.06.17-0.06.17-0.06.17L54,696l-0.06.17-0.06.18-0.11.34,0,0.12-0.07.2,0,0.13-0.06.18-0.05.16-0.06.18-0.06.16-0.09.26-0.07.21-0.06.17-0.06.17-0.06.18L53,699l-0.07.2,0,0.1-0.17.49v0l-0.08.24,0,0.08-0.08.23,0,0.09-0.08.24v0l-0.28.84,0,0.05-0.09.26,0,0.06-0.09.26h0l-0.29.88h0l-0.09.28v0l28.48,9.42c8.09-24.46,17.27-48.91,27.27-72.67L79.68,628.49h0Zm-47.78,142C28.15,785.2,24.7,800,21.59,814.93h0l-0.07.35v0.07l-0.06.3,0,0.08-0.15.72,0,0.1-0.05.26,0,0.12,0,0.23,0,0.14-0.07.33,0,0.16L21,818l0,0.19,0,0.14,0,0.21,0,0.1-0.1.5v0l0,0.24,0,0.09,0,0.24,0,0.08L20.35,821v0l-0.06.29v0Q17.52,835,15.13,848.75l29.56,5.13C49.1,828.47,54.57,802.93,61,778L31.9,770.54h0ZM5.52,918.07q-2,18.88-3.23,38v0l-0.08,1.2v0l0,0.38v0l-0.05.79v0l0,0.35v0.05l0,0.37h0l0,0.39v0l0,0.34v0.07l0,0.36v0l0,0.39V961l0,0.31v0.11l0,0.29v0.09l0,0.75v0.1l0,0.29V963l0,0.37h0l0,0.37v0.1l0,0.27v0.12l0,0.3v0.06l0,0.37v0.1l0,0.28v0.5l0,0.36v0.07l0,0.3v0.12l0,0.27v0.1l0,0.34v0.09l0,0.3v0.9l0,0.32v0.9l0,0.34v0.89l0,0.34V974l0,0.33v0.9l0,0.34v0.9l0,0.36v10.29l0,0.76v3.33l0,0.76v0.48l0,0.77v0.47l0,0.77v0.84l0,0.79v0.43h0l0,0.8v0.54l30,0.78c0.67-25.83,2.36-51.91,5-77.5l-29.84-3.1h0Zm25.34,148.59-30,1.24q0.35,8.49.84,16.95h0l0,0.29v0.07l0,0.27h0l0,0.54v0.84l0,0.31v0.73l0,0.26v0.1l0,0.36v0.11L2,1089v0.13l0,0.28v0.09l0,0.38v0l0,0.35v0.07l0,0.33v0.05l0.05,0.79h0l0,0.4h0q1.81,28,5.12,55.69l29.79-3.56c-3.05-25.55-5.14-51.59-6.2-77.4h0Zm16.56,144.54-29.47,5.59q1.07,5.64,2.2,11.25v0l0.23,1.13,0,0.08,0.05,0.26,0,0.13,0,0.23,0,0.17,0.06,0.28,0,0.22,0,0.11,0,0.24,0,0.08,0.24,1.17v0q6.51,31.63,14.94,62.52l28.94-7.89c-6.77-24.85-12.65-50.29-17.45-75.63h0ZM85,1351.69l-28.33,9.87L56.8,1362v0q13.14,37.68,29.1,74l27.47-12.06C103,1400.33,93.46,1376,85,1351.69h0Zm57.83,133.45-26.57,13.92q13.45,25.67,28.27,50.44l0,0,0.58,1h0l0.38,0.63,0,0,0.57,0.94,0.05,0.09,0.33,0.54,0.05,0.09,0.18,0.3,0,0,0.34,0.56,0.07,0.12,0.33,0.55,0,0.06,0.17,0.28,0.1,0.16,0.25,0.42,0.12,0.19,0.16,0.26,0.2,0.32,0.16,0.26,0.12,0.2,0.22,0.36,0.14,0.23,0.15,0.24,0.14,0.23,0.21,0.34,0.14,0.23,0.13,0.22,0.22,0.36,0.14,0.23,0.15,0.24,0.19,0.31,0.16,0.26,0.14,0.22,0.23,0.37,0.11,0.19,0.17,0.28,0.11,0.18,0.24,0.39,0.12,0.19,0.2,0.32,0.14,0.22,0.19,0.3,0.11,0.18,0.25,0.4,0.1,0.17,0.21,0.33,0.08,0.14,0.25,0.4,0.11,0.17,0.26,0.41,0.07,0.12,0.22,0.36,0.08,0.13,0.27,0.44,0.07,0.12,0.26,0.42,0.05,0.08,0.26,0.42,0.08,0.12,0.28,0.44,0.06,0.1,0.25,0.4,0.05,0.08,0.28,0.45,0,0.06,25.4-16c-13.72-21.84-26.74-44.49-38.69-67.31h0Zm76.78,123.57-24.26,17.65,1.84,2.53h0l0.73,1h0l0.35,0.48,0,0.05,0.69,0.94,0,0.06,0.34,0.46,0,0.05,0.32,0.44,0,0,0.33,0.44,0.07,0.09,0.32,0.43,0.06,0.08,0.28,0.37,0.08,0.1,0.3,0.4,0.11,0.14,0.28,0.37,0.09,0.12,0.25,0.34,0.11,0.15,0.29,0.39,0.11,0.14,0.23,0.31,0.12,0.16,0.26,0.35,0.12,0.16,0.28,0.38,0.12,0.16,0.21,0.27,0.13,0.17,0.27,0.36,0.15,0.2,0.2,0.27,0.2,0.27,0.17,0.23,0.15,0.2,0.26,0.34,0.16,0.21,0.16,0.22,0.24,0.32,0.17,0.22,0.17,0.22,0.18,0.24,0.23,0.31,0.14,0.18,0.26,0.34,0.15,0.19,0.19,0.25,0.12,0.16,0.29,0.38,0.14,0.18,0.21,0.28,0.21,0.27,0.18,0.24,0.12,0.16,0.3,0.39,0.12,0.16,0.19,0.25,0.12,0.16,0.3,0.39,0.13,0.16,0.29,0.38,0.13,0.16,0.19,0.24,0.14,0.19,0.27,0.35,0.14,0.18,0.2,0.26,0.22,0.29,0.18,0.24,0.13,0.17,0.29,0.38,0.13,0.17,0.18,0.23,0.22,0.29,0.2,0.26,0.14,0.18,0.27,0.35,0.15,0.19,0.18,0.23,0.16,0.2,0.26,0.33,0.15,0.2,0.16,0.21,0.26,0.34,0.16,0.21,0.17,0.22,0.24,0.31,0.17,0.22,0.16,0.2,0.26,0.34,0.16,0.2,0.18,0.23,0.2,0.26,0.21,0.27,0.16,0.2,0.22,0.28,0.19,0.24,0.18,0.23,0.14,0.18,0.28,0.35,0.14,0.18,0.22,0.28,0.17,0.22,0.22,0.28,0.13,0.17,0.28,0.36,0.14,0.18,0.2,0.25,0.17,0.22,0.24,0.3,0.15,0.19,0.27,0.35,0.13,0.17,0.21,0.27,0.13,0.16,0.29,0.36,0.13,0.16,0.25,0.32,0.13,0.17,0.25,0.31,0.11,0.14,0.3,0.38,0.11,0.13,0.26,0.33,0.09,0.11,0.3,0.38,0.12,0.15,0.31,0.39,0.08,0.1,0.27,0.34,0.09,0.11,0.32,0.4,0.09,0.11,0.33,0.41,0.07,0.08,0.29,0.36,0.09,0.11,0.33,0.41,0.08,0.1,0.31,0.39,0,0,0.33,0.41,0.09,0.11,0.33,0.41,0.06,0.08,0.3,0.38,0.06,0.08,0.34,0.42,0.07,0.09,0.35,0.43,0,0,0.33,0.4,0.06,0.07,0.34,0.42,0.07,0.09,0.34,0.42v0l0.35,0.43,0.08,0.09,0.34,0.42,0.05,0.06,0.34,0.41,0,0,0.35,0.43,0.07,0.08,0.35,0.43,0,0.05,0.32,0.4,0.06,0.07,0.34,0.42,0.07,0.09,0.7,0.86,0.08,0.1,0.34,0.42,0.06,0.07,0.33,0.4,0,0.06,0.35,0.42,0.07,0.09,0.35,0.42,0,0,0.33,0.39,0.06,0.08,0.34,0.41,0.08,0.1,0.34,0.4,0,0,0.32,0.38,0.1,0.12,0.33,0.39,0.09,0.11,0.28,0.34,0.08,0.1,0.32,0.38,0.11,0.14,0.31,0.38,0.11,0.14,0.24,0.29,0.12,0.14,0.31,0.37,0.13,0.15,0.25,0.3,0.17,0.2,0.21,0.25,0.16,0.19,0.28,0.33,0.16,0.19,0.18,0.22,0.22,0.27,0.21,0.25,0.17,0.2,0.19,0.22,0.26,0.31,0.14,0.17,0.27,0.32,0.17,0.2,0.2,0.24,0.12,0.14,0.34,0.41,0.1,0.12,0.69,0.81,0,0.06,1.21,1.42h0l1.42,1.66,22.81-19.49c-16.75-19.61-32.94-40.12-48.1-61h0Zm94,111.08-21.43,21,0.08,0.08,0.28,0.29,0.11,0.11,0.36,0.36,0.1,0.11,0.37,0.38,0,0,0.34,0.35,0.1,0.1,0.37,0.38,0.08,0.08,0.38,0.39h0l0.4,0.4,0.07,0.07,0.39,0.4,0.05,0.05,0.38,0.39,0,0,0.41,0.41,0.05,0.06,0.83,0.84,0,0,0.42,0.42,0,0,0.86,0.86,0,0,0.43,0.43,0,0,0.86,0.86,0,0,0.87,0.87h0l0.44,0.43,0,0,0.87,0.86h0l0.43,0.43,0,0,0.86,0.85,0,0,0.88,0.87h0l0.43,0.42,0,0,0.86,0.84,0,0,0.42,0.41,0,0,0.84,0.82,0.05,0.05,0.41,0.41,0,0,0.41,0.4,0,0,0.41,0.4,0.06,0.06,0.41,0.4,0,0,0.4,0.39,0.05,0.05,0.4,0.39,0.08,0.08,0.4,0.39h0l0.4,0.39,0.09,0.08,0.38,0.37,0.08,0.08,0.35,0.34,0.06,0.06,0.38,0.36,0.11,0.11,0.37,0.36,0.08,0.08,0.32,0.31,0.1,0.1,0.35,0.34,0.14,0.13,0.32,0.31,0.13,0.12,0.3,0.28,0.14,0.13,0.34,0.33,0.14,0.14,0.26,0.25,0.2,0.19,0.27,0.26,0.17,0.16,0.3,0.28,0.2,0.19,0.2,0.19,0.18,0.17,0.31,0.29,0.19,0.18,0.21,0.2,0.29,0.27,0.17,0.17,0.21,0.2,0.29,0.27,0.22,0.21,0.13,0.12,0.4,0.38,0.1,0.1,0.24,0.23,0.07,0.07,0.45,0.43,0.09,0.08,1.33,1.26,0,0q14.2,13.39,28.89,26.22L370,1773.12c-19.41-17-38.41-34.9-56.45-53.32h0Zm109.11,96.25-18.15,23.88,3.46,2.62,0,0,0.47,0.35,0,0,0.42,0.32,0.08,0.06,0.43,0.32,0.11,0.08,0.39,0.29,0.09,0.06,0.38,0.28,0.15,0.11,0.39,0.29,0.14,0.1,0.29,0.22,0.17,0.13,0.35,0.26,0.2,0.15,0.24,0.18,0.33,0.24,0.19,0.14,0.24,0.18,0.31,0.23,0.24,0.18,0.15,0.11,0.43,0.32,0.12,0.09,0.27,0.2,0,0,0.55,0.41,0.1,0.07,0.55,0.41h0q13.76,10.16,27.85,19.86l0,0,0.94,0.64h0l0.59,0.41,0.06,0,0.9,0.61,0.09,0.06,0.5,0.34,0.11,0.07,0.28,0.19,0.07,0,0.5,0.34,0.15,0.1,0.4,0.28,0.18,0.12,0.25,0.17,0.18,0.12,0.39,0.27,0.18,0.12,0.23,0.16,0.35,0.24,0.22,0.15,0.26,0.18,0.25,0.17,0.3,0.2,0.19,0.13,0.38,0.25,0.18,0.12,0.27,0.18,0.17,0.11,0.38,0.26,0.18,0.12,0.35,0.24,0.18,0.12,0.32,0.22,0.14,0.09,0.41,0.28,0.14,0.09,0.4,0.26,0.07,0,0.43,0.29,0.12,0.08,0.44,0.29,0.09,0.06,0.42,0.28,0.06,0,0.46,0.31,0.08,0.06,0.47,0.31,0,0,0.47,0.31,0.05,0,0.49,0.32,0,0,1,0.66,0,0q5.21,3.44,10.46,6.83l16.24-25.23c-21.67-13.95-43.06-28.93-63.6-44.54h0Zm121.94,79.33-14.47,26.28q31.06,17.11,63.37,32.08l0,0,0.33,0.15h0l1,0.47,0.06,0,0.28,0.13,0.06,0,0.3,0.14h0l0.34,0.16,0,0,0.27,0.12,0.11,0.05,0.24,0.11,0.09,0,0.29,0.13,0,0,0.34,0.15,0,0,0.27,0.13,0.12,0.05,0.21,0.1,0.12,0.05,0.21,0.1,0.13,0.06,0.3,0.14,0.12,0.05,0.19,0.09,0.16,0.07,0.17,0.08,0.16,0.07,0.15,0.07,0.17,0.08,0.15,0.07,0.3,0.14,0.15,0.07,0.18,0.08,0.14,0.06,0.18,0.08,0.14,0.06,0.19,0.08,0.1,0,0.2,0.09L614,1930.14c-23.47-10.62-46.82-22.31-69.41-34.76h0ZM676.82,1956l-10.46,28.12,0.11,0h0l0.3,0.11,0.07,0,0.68,0.25,0.13,0,0.18,0.07,0.17,0.06,0.14,0.05,0.2,0.07,0.1,0,0.75,0.28,0.06,0,0.27,0.1h0q18.54,6.83,37.42,13h0l1.17,0.38h0l0.26,0.08,0.07,0,0.24,0.08,0.09,0,0.81,0.26h0l0.25,0.08,0.08,0,0.24,0.08,0.06,0,0.76,0.24,0.13,0,0.21,0.07,0.12,0,0.21,0.07,0.11,0,0.47,0.15h0l0.22,0.07,0.1,0,0.22,0.07,0.13,0,0.2,0.06,0.16,0,0.27,0.09,0.21,0.07,0.18,0.06,0.16,0,0.19,0.06,0.15,0,0.17,0.05,0.19,0.06,0.31,0.1,0.14,0,0.2,0.06,0.13,0,0.2,0.06,0.15,0,0.19,0.06,0.13,0,0.37,0.12,0.14,0,0.19,0.06,0.15,0,0.2,0.06,0.13,0,0.2,0.06,0.12,0,0.37,0.12,0.14,0,0.21,0.06,0.11,0,0.23,0.07,0.09,0,0.78,0.24,0.07,0,0.22,0.07,0.11,0,0.22,0.07,0.11,0,0.21,0.07,0.1,0,0.43,0.13,0.11,0,0.22,0.07,0.1,0,0.23,0.07,0.11,0,0.75,0.23,0.09,0,0.22,0.07,0.12,0,0.23,0.07,0.08,0,0.81,0.25h0l0.27,0.08h0l1.18,0.36h0l0.29,0.09h0q8.09,2.45,16.23,4.77l8.21-28.85c-24.78-7.05-49.6-15.19-73.76-24.17h0Zm139.68,40.51-6.21,29.35q6.08,1.28,12.18,2.5h0l1.16,0.23,0.09,0,0.23,0,0.12,0,0.22,0,0.18,0,0.28,0.05,0.23,0,0.12,0,0.26,0.05,0.1,0,0.34,0.07h0l0.38,0.07h0l0.35,0.07h0q30,5.82,60.48,9.88h0l1.17,0.15h0l0.35,0h0.05l0.4,0.05,3.89-29.75c-25.58-3.34-51.33-7.74-76.52-13.07h0Zm144.15,19.57L958.8,2046q7.71,0.48,15.44.84h0l0.46,0h0l1,0h0.05l0.41,0h0.11l0.37,0h0.11l0.41,0h0.06l0.48,0h0.08l0.38,0h3.33l1,0h1.33l1.14,0H986l1.58,0.05H988l1.61,0.05H990l2,0.06h0.44l2,0.06h0l2,0.05H997l2,0h0.46l1.61,0h0.46l1.58,0h0.91l1.18,0h1.32l1.07,0h21.32l4.91,0h2.38l2.57,0-0.45-30c-5.09.08-10.25,0.12-15.34,0.12-20.75,0-41.72-.65-62.35-1.92h0Zm222.62-10.94c-25.41,4.12-51.33,7.29-77.06,9.43l2.48,29.9h0.11l0.42,0h0.12l0.22,0h0.12l0.22,0h0.15l0.42,0h0.1l0.21,0h0.15l0.2,0h0.15l0.22,0h0l0.49,0h0.12l0.21,0h0.15l0.21,0h0.13l0.39,0h0.14l0.18,0,0.18,0,0.2,0h0.14l0.21,0h0.11l0.4,0H1115l0.2,0h0.15l0.2,0,0.17,0,0.3,0,0.21,0,0.18,0,0.18,0,0.19,0,0.17,0,0.19,0,0.32,0h0.16l0.2,0,0.18,0,0.2,0h0.15l0.32,0h0.08l0.31,0h0.15l0.21,0,0.17,0,0.23,0H1120l0.34,0,0.16,0,0.21,0h0.15l0.22,0h0.15l0.27,0,0.19,0,0.24,0H1122l0.22,0h0.15l0.23,0,0.16,0,0.32,0h0.14l0.24,0h0.13l0.25,0H1124l0.34,0h0.14l0.23,0,0.15,0,0.22,0h0.15l0.28,0h0.08l0.35,0h0.12l0.25,0h0.13l0.26,0h0.12l0.35,0h0.1l0.25,0,0.16,0,0.22,0H1128l0.3,0h0.1l0.33,0h0.11l0.25,0h0.14l0.25,0h0.12l0.35,0h0.12l0.25,0h0.14l0.23,0h0.14l0.36,0h0l0.32,0h0.13l0.23,0,0.14,0,0.25,0h0.11l0.35,0h0.12l0.25,0h0.13l0.27,0h0.1l0.36,0h0.1l0.27,0h0.14l0.24,0h0.13l0.31,0h0.05l0.36,0h0.12l0.24,0h0.14l0.24,0h0.13l0.34,0h0.11l0.25,0,0.15,0,0.23,0h0.13l0.31,0h0.08l0.33,0h0.12l0.24,0,0.14,0,0.24,0h0.13l0.34,0,0.14,0,0.22,0,0.17,0,0.19,0,0.18,0,0.24,0,0.21,0,0.24,0,0.16,0,0.2,0,0.18,0,0.19,0,0.22,0,0.28,0,0.17,0,0.18,0,0.18,0,0.19,0,0.17,0,0.24,0,0.27,0,0.17,0,0.2,0,0.16,0,0.2,0,0.17,0,0.37,0,0.13,0,0.22,0,0.13,0,0.21,0,0.14,0,0.21,0h0.1l0.44-.05h0.11l0.24,0h0.11l0.23,0h0.1l0.47-.06H1148l0.23,0h0.11l0.23,0h0.12l0.81-.1h0.05l0.27,0h0.06l1.18-.15h0q18.59-2.32,37-5.31l-4.8-29.61h0Zm141.46-33.8c-24.55,7.82-49.72,14.76-74.82,20.63l6.83,29.21q14.29-3.34,28.42-7.08h0l0.37-.1h0l0.76-.2h0l0.36-.1h0l0.35-.09h0l0.74-.2h0l0.33-.09h0l0.35-.09h0l0.73-.2,0.07,0,0.29-.08,0.07,0,0.35-.09h0l0.38-.1h0l0.33-.09,0.09,0,0.28-.07,0.08,0,0.73-.2h0l0.31-.08,0.1,0,0.29-.08,0.06,0,0.72-.2,0.06,0,0.3-.08,0.08,0,0.32-.09h0l0.74-.2h0l0.32-.09,0.06,0,1.1-.3h0.05l0.3-.08,0.09,0,0.72-.2h0l0.35-.1h0l0.31-.09,0.06,0,0.74-.21h0l0.35-.1h0.05l0.32-.09h0l0.74-.21h0l0.36-.1h0l0.35-.1h0l0.74-.21h0l0.33-.09h0l0.33-.09h0l0.73-.21h0l0.34-.1h0l1.12-.32h0l0.37-.1h0l1.12-.32h0l1.49-.43h0c6.31-1.83,12.57-3.71,18.82-5.65h0l1.12-.35h0l1.49-.47h0l1.11-.35h0l0.36-.11h0l0.36-.11h0l0.72-.23,0.06,0,0.3-.1,0.06,0,0.31-.1,0,0,0.36-.11h0l0.24-.08-9.11-28.58h0Zm134.94-54.25c-23.15,11.35-47,21.92-71,31.41l11.05,27.89q14-5.54,27.75-11.48h0l0.24-.11,0.07,0,0.24-.1,0.05,0,0.78-.34,0.06,0,0.22-.1,0.1,0,0.21-.09,0.09,0,0.7-.3,0.13-.05,0.17-.08,0.16-.07,0.16-.07,0.18-.08,0.15-.07,0.3-.13,0.1,0,0.24-.1,0.11,0,0.23-.1,0.12-.05,0.2-.09,0.13-.06,0.32-.14,0,0,0.29-.13,0.09,0,0.25-.11,0.09,0,0.26-.12,0.07,0,0.68-.3,0,0,0.31-.13,0,0,0.33-.14h0l2.48-1.1h0l0.35-.16h0c3.79-1.69,7.55-3.38,11.31-5.11l0,0,1.37-.63,0.06,0,0.31-.14h0l0.68-.32,0.06,0,0.27-.12,0.09,0,0.25-.12,0.08,0,0.32-.15h0l0.32-.15,0.1,0,0.22-.1,0.13-.06,0.2-.09,0.12-.06,0.21-.1,0.19-.09,0.23-.11,0.17-.08,0.13-.06,0.2-.09,0.11-.05,0.21-.1,0.07,0,0.76-.36,0,0,0.25-.12,0,0,0.25-.12h0q7.9-3.71,15.73-7.55l-13.21-26.93h0Zm125.55-73.47c-21.25,14.62-43.33,28.58-65.62,41.48l15,26,0.13-.07,0.29-.17,0.18-.1,0.39-.23,0.18-.1,0.42-.24,0.12-.07,0.37-.21,0.13-.08,0.45-.26,0.1-.06,0.47-.27h0l0.48-.28,0.09-.05,0.48-.28,0.06,0,0.49-.29h0l0.52-.3,0,0,1-.61h0q27.24-16,53.37-33.67h0l1.52-1,0.05,0,1-.65,0.08-.05,0.46-.31,0.08-.05,0.4-.27,0.08-.06,0.43-.29,0.13-.09,0.42-.29,0.12-.08,0.34-.23,0.15-.1,0.39-.27,0.17-.12,0.3-.2,0.24-.17,0.27-.18,0.21-.14,0.35-.24,0.23-.16,0.19-.13,0.17-.12-17-24.71h0Zm113.52-91c-18.89,17.55-38.71,34.58-58.9,50.6l18.65,23.5q31.35-24.88,60.66-52.12l-20.42-22h0Zm99.1-106.54c-16.13,20.1-33.27,39.82-50.92,58.62l21.87,20.54q2.56-2.73,5.1-5.47l0,0,0.41-.45h0l0.39-.42,0,0,0.38-.41,0.08-.09,0.36-.39,0.08-.08,0.3-.33,0.1-.11,0.34-.37,0.13-.14,0.26-.28,0.17-.19,0.25-.27,0.16-.18,0.3-.32,0.16-.18,0.19-.21,0.23-.25,0.22-.24,0.19-.21,0.15-.16,0.34-.37,0.12-.13,0.46-.5h0l0.23-.25,0.09-.09,0.42-.46,0.05-.06,0.74-.82,0,0c5.32-5.87,10.54-11.77,15.73-17.77l0,0,0.73-.84,0,0,0.44-.51,0.06-.07,0.7-.81,0.08-.09,0.38-.45,0.09-.1,0.22-.26,0.07-.08,0.37-.44,0.12-.14,0.3-.35,0.16-.19,0.19-.22,0.16-.19,0.27-.32,0.17-.2,0.18-.21,0.27-.31,0.18-.21,0.19-.22,0.2-.24,0.23-.27,0.15-.18,0.29-.34,0.13-.15,0.23-.27,0.12-.15,0.31-.36,0.12-.14,0.32-.38,0.08-.09,0.28-.33,0.1-.12,0.32-.38,0.1-.12,0.31-.37,0-.06,0.34-.4,0.08-.1,0.35-.41,0.05-.06,0.34-.41,0,0,0.37-.44,0.05-.06,0.37-.45h0l0.38-.46,0,0,0.38-.46,0,0,0.79-.94h0q6-7.21,11.87-14.52l-23.4-18.78h0Zm82.54-119.81c-13,22.23-27.1,44.23-41.84,65.4l24.62,17.14q3.1-4.46,6.16-9l0-.06,0.36-.53,0.07-.1,0.19-.27,0.09-.13,0.29-.42,0.13-.19,0.15-.22,0.24-.36,0.13-.19,0.21-.31,0.12-.18,0.23-.35,0.11-.16,0.27-.41,0.08-.13,0.25-.37,0.06-.09,0.3-.45,0.06-.1,0.31-.47v0l0.32-.48,0,0,0.33-.49,0,0,0.68-1h0q16.64-24.93,31.85-50.87l-25.88-15.17h0Zm64.12-130.56c-9.62,23.9-20.32,47.72-31.8,70.81l26.86,13.36q3.88-7.81,7.64-15.69v0l0.52-1.1v0l0.13-.27v0l0.39-.83h0l0.12-.25,0-.05,0.11-.24,0-.08,0.11-.23,0,0,0.37-.78,0-.06,0.11-.23,0-.08,0.1-.21,0.06-.12,0.32-.69,0-.09,0.1-.21,0.05-.11,0.09-.2,0-.1,0.31-.67,0.06-.13,0.09-.19,0.06-.12,0.08-.18,0.07-.15,0.08-.17,0.14-.29,0.07-.15,0.08-.16,0.08-.17,0.08-.16,0.07-.15,0.09-.19,0.06-.12,0.14-.31,0-.1,0.1-.22,0.06-.13,0.09-.2,0.05-.11,0.11-.24,0-.08,0.15-.33v0l0.14-.3,0-.1,0.11-.25,0-.08,0.13-.27,0-.06,0.3-.66,0-.09,0.11-.25,0-.08,0.13-.28,0-.05,0.31-.68,0,0,0.14-.3,0-.05,0.14-.3,0,0,0.31-.68,0,0,0.14-.31,0,0,0.15-.32v0l0.48-1.05h0q9-19.86,17.18-40.15l-27.83-11.21h0Zm44.22-138.55c-6,25.06-13.08,50.2-21,74.71l28.53,9.26q12.29-37.85,21.68-77l-29.17-7h0Zm23.38-143.57c-2.27,25.71-5.58,51.62-9.85,77l29.59,5v0l0-.21,0-.13,0-.22,0-.11,0.07-.41,0-.12,0-.21,0-.13,0-.21,0-.12,0.07-.43,0-.1,0-.18,0-.17,0-.19,0-.17,0-.19,0-.18,0-.3,0-.19,0-.17,0-.19,0-.17,0-.21,0-.14,0.05-.33,0-.16,0-.21,0-.15,0-.22,0-.14,0.05-.32,0-.12,0-.25,0-.15,0-.22,0-.14,0-.24,0-.14,0.05-.32,0-.15,0-.2,0-.16,0-.22,0-.13,0.05-.34,0-.11,0-.25,0-.13,0-.24,0-.14,0-.27v-0.08l0.05-.34,0-.13,0-.24,0-.14,0-.22,0-.15,0.05-.33,0-.13,0-.23,0-.16,0-.2,0-.16,0-.23,0-.19,0-.26,0-.15,0-.2,0-.17,0-.2,0-.16,0-.32,0-.17,0-.18,0-.18,0-.18,0-.18,0-.24,0-.2,0-.22,0-.18,0-.18,0-.17,0-.2,0-.15,0-.32,0-.17,0-.18,0-.19,0-.17,0-.18,0-.26,0-.2,0-.23,0-.16,0-.2,0-.16,0-.23,0-.13,0-.33,0-.18,0-.17,0-.19,0-.15,0-.21v-0.09l0.06-.41,0-.16,0-.19,0-.17,0-.19,0-.15,0.05-.37,0-.14,0-.2,0-.15,0-.21,0-.13,0-.22h0l0.07-.52,0-.12,0-.22,0-.11,0-.24v-0.07l0.12-.83v-0.07l0-.26v-0.06l0.12-.87v0l0-.29v0l0.16-1.18v0l0-.29h0l0.13-.92h0l0-.3h0q3.32-24.26,5.5-48.87l-29.88-2.64h0Zm32.24-147.24-30,1.69c1.06,18.84,1.6,38,1.6,57,0,6.88-.07,13.86-0.21,20.73l30,0.61q0.09-4.15.14-8.32v-0.36q0-.47,0-0.93v-1.17q0-.22,0-0.44V1032c0-.1,0-0.19,0-0.3v-0.54c0-.07,0-0.17,0-0.24v-0.51c0-.14,0-0.24,0-0.38v-1.76c0-.1,0-0.18,0-0.28v-2.57c0-.14,0-0.24,0-0.38h0c0-.15,0-0.3,0-0.44v-2.38c0-.1,0-0.2,0-0.3V1018c0-.1,0-0.2,0-0.3v-4.27c0-.3,0-0.6,0-0.9v-3.23h0c0-.45,0-0.91,0-1.36v-1.87q0-1.14,0-2.27v-1.4q-0.39-18.12-1.41-36.09h0ZM2025,817.74l-29.38,6c5.19,25.22,9.45,51,12.65,76.6l29.77-3.73c-0.85-6.8-1.76-13.54-2.75-20.3h0l-0.05-.37v-0.06l0-.33v-0.06l-0.06-.38h0l-0.05-.36v-0.09l0-.29v-0.08l-0.05-.35v0l-0.06-.37v-0.08l0-.28,0-.11,0-.26,0-.11-0.05-.35v-0.1l0-.27,0-.13,0-.24,0-.14,0-.25,0-.11-0.05-.33,0-.16,0-.2,0-.17,0-.17,0-.2,0-.16-0.05-.34,0-.17,0-.2,0-.16,0-.19,0-.16,0-.28,0-.23,0-.18,0-.16,0-.2,0-.16,0-.19,0-.19,0-.28,0-.2,0-.19,0-.16,0-.21,0-.14,0-.2,0-.17-0.06-.35,0-.13,0-.21,0-.14,0-.21,0-.14-0.06-.4,0-.11,0-.21,0-.14,0-.2,0-.15-0.12-.74,0-.12,0-.2,0-.16,0-.18,0-.16-0.06-.36,0-.14,0-.19,0-.16,0-.2,0-.16,0-.2,0-.14-0.06-.36,0-.17,0-.18,0-.17,0-.19,0-.16-0.05-.33,0-.17,0-.19,0-.16,0-.18,0-.17,0-.18,0-.28,0-.2,0-.19,0-.2,0-.16,0-.18,0-.19,0-.19,0-.3,0-.18,0-.17,0-.19,0-.19,0-.15-0.05-.3,0-.15,0-.24,0-.17,0-.18,0-.18,0-.2,0-.16-0.06-.32,0-.16,0-.2,0-.15,0-.21,0-.15,0-.24,0-.21,0-.22,0-.17,0-.19,0-.17,0-.18,0-.17-0.06-.33,0-.12,0-.24,0-.14,0-.22,0-.14,0-.25,0-.17,0-.28,0-.12,0-.24,0-.14,0-.24,0-.12-0.06-.35,0-.1,0-.26,0-.13,0-.23,0-.14,0-.28v-0.08l-0.06-.34,0-.15,0-.21,0-.15,0-.22,0-.13-0.06-.34,0-.12,0-.22,0-.18,0-.19,0-.16,0-.25,0-.1-0.06-.35,0-.1,0-.26,0-.12,0-.28v-0.08l-0.06-.36v-0.08l0-.27,0-.13,0-.23,0-.14,0-.26,0-.09-0.06-.34,0-.12,0-.25,0-.12,0-.23,0-.13-0.06-.34v-0.06l-0.05-.29,0-.14,0-.22,0-.14,0-.25,0-.11-0.07-.35,0-.08,0-.27,0-.13,0-.23,0-.13-0.06-.3,0-.12-0.05-.27,0-.14,0-.2,0-.17,0-.21,0-.13-0.06-.33,0-.17,0-.19,0-.17,0-.17,0-.19,0-.18-0.06-.32,0-.15,0-.21,0-.14,0-.19,0-.16-0.14-.76v-0.07l0-.24,0-.1,0-.24v0l-0.16-.83,0-.08,0-.25v-0.07l-0.16-.83v0l-0.05-.27v0l-0.23-1.19h0q-0.93-4.73-1.9-9.44h0Zm-41-144.16-28.17,10.31c8.85,24.21,16.85,49.07,23.77,73.89l28.9-8.05c-7.19-25.78-15.38-51.23-24.49-76.14h0ZM1922.33,537L1896,551.34c12.32,22.66,23.89,46.07,34.38,69.6l27.4-12.22c-1.76-3.93-3.54-7.88-5.35-11.79h0l-0.15-.34v0l-0.48-1,0-.05-0.14-.29,0,0-0.14-.3,0,0-0.31-.66,0-.09-0.11-.24,0-.1-0.1-.21-0.06-.12-0.11-.24,0-.1-0.13-.28-0.07-.15-0.08-.17-0.07-.16-0.07-.16-0.08-.17-0.08-.16-0.09-.19-0.12-.25-0.08-.17-0.07-.16-0.07-.16-0.08-.16-0.07-.15-0.08-.16-0.32-.68,0-.07-0.1-.21,0-.1-0.1-.22,0-.06-0.36-.77,0,0-0.12-.25,0,0-0.12-.26v0l-0.53-1.12h0q-7.32-15.4-15.12-30.51h0l-0.55-1.07,0,0-0.11-.22,0-.09-0.12-.22,0,0-0.4-.78,0,0-0.12-.23,0-.06-0.12-.23,0-.07-0.37-.71,0-.08-0.1-.2-0.06-.11-0.1-.2-0.06-.11-0.1-.19,0-.09-0.2-.38-0.06-.11-0.09-.18-0.07-.13-0.09-.16-0.09-.17-0.07-.14-0.1-.19-0.12-.23-0.09-.18-0.07-.14-0.09-.18-0.07-.14-0.09-.18-0.07-.14-0.09-.17-0.12-.23-0.11-.21-0.06-.11-0.11-.2-0.07-.13-0.11-.21-0.05-.1-0.14-.27,0,0-0.17-.32,0-.06-0.14-.27,0-.07-0.14-.27,0,0-0.16-.31v0l-0.35-.66,0,0-0.16-.3,0,0-0.72-1.34v0c-1.09-2-2.21-4.11-3.31-6.15h0Zm-81-126.06-24,18c15.5,20.62,30.36,42.09,44.19,63.83l25.31-16.1-0.09-.15-0.07-.11-0.31-.49-0.07-.11-0.58-.91,0-.06-0.38-.6v0q-20.82-32.53-44-63.31h0ZM1742.75,298l-21.11,21.32c18.32,18.14,36.16,37.23,53,56.74l22.7-19.61-1.81-2.09,0,0-0.48-.55h0l-0.71-.82-0.08-.09-0.44-.5,0,0-0.22-.25-0.12-.14-0.33-.38-0.14-.16-0.19-.22-0.27-.31-0.18-.21-0.17-.2-0.24-.27-0.21-.24-0.16-.19-0.29-.33-0.15-.17-0.21-.24-0.15-.17-0.31-.35-0.13-.15L1790,348l-0.11-.12-0.28-.32-0.1-.12-0.33-.38-0.11-.12-0.31-.35-0.06-.07-0.34-.39-0.09-.1-0.35-.39-0.08-.09-0.32-.36-0.07-.07-0.36-.4-0.08-.09-0.37-.41,0,0-0.36-.4-0.05-.06-0.37-.42-0.06-.07-0.77-.85-0.06-.06-0.38-.42,0,0-0.39-.43h0l-0.39-.44,0,0-1.22-1.36,0,0-0.82-.91v0l-2.51-2.77h0l-2.1-2.3h0l-1.26-1.37h0l-1.26-1.37h0l-0.84-.91h0l-1.26-1.36,0,0-1.26-1.35,0,0-0.84-.89,0,0-0.42-.45h0l-0.83-.89,0,0-0.84-.89h0l-0.41-.44,0,0-0.82-.87,0,0-0.4-.43,0,0-0.81-.85-0.05-.05-0.4-.42,0,0-0.39-.41,0,0-0.39-.41-0.06-.06-0.39-.41,0,0-0.38-.39-0.05-.06-0.38-.4-0.07-.07-0.77-.81-0.08-.09-0.37-.39-0.07-.07-0.35-.36-0.06-.06-0.37-.38-0.1-.11-0.36-.37-0.08-.09-0.31-.32-0.09-.1-0.35-.37-0.11-.11-0.33-.34-0.11-.11-0.29-.3-0.14-.14-0.33-.34-0.13-.14-0.26-.27-0.16-.16-0.29-.3-0.15-.16-0.32-.33-0.16-.16-0.22-.23-0.15-.15-0.31-.32-0.17-.17-0.22-.23-0.25-.25-0.2-.2-0.18-.18-0.3-.31-0.18-.19-0.19-.19-0.27-.28-0.19-.2-0.2-.2-0.17-.17-0.32-.32-0.15-.15-0.31-.31-0.17-.17-0.22-.22-0.13-.13-0.37-.37-0.13-.13-0.45-.46,0,0-0.23-.24-0.1-.1-0.41-.42-0.08-.08-0.76-.77-0.06-.06-0.5-.5h0l-0.79-.79,0,0-0.79-.79h0l-0.53-.53h0l-4.16-4.14h0Zm-113.89-97.41-17.79,24.16c20.75,15.28,41.17,31.57,60.69,48.43l19.61-22.7c-5.44-4.7-10.89-9.31-16.43-13.9l-0.06-.05-0.83-.69-0.1-.08-0.43-.36-0.13-.11-0.25-.2L1673,235l-0.37-.31-0.16-.13-0.35-.29-0.19-.16-0.21-.17-0.29-.24-0.23-.18-0.23-.19-0.18-.15-0.34-.28-0.19-.15-0.29-.23-0.2-.17-0.28-.23-0.15-.13-0.37-.3-0.14-.11-0.31-.25-0.14-.12-0.35-.29-0.13-.11-0.39-.32-0.11-.09-0.35-.28-0.09-.08-0.41-.33-0.1-.08-0.42-.34,0,0-0.42-.34-0.07-.06-0.43-.35-0.07-.05-0.91-.73,0,0-0.46-.37,0,0-0.94-.75,0,0-1-.76h0l-0.48-.39h0q-15.87-12.68-32.24-24.73h0ZM1502,120.83l-14.07,26.5c22.75,12.08,45.33,25.22,67.09,39.06l16.1-25.32q-7.36-4.68-14.81-9.24l0,0-1-.62,0,0-0.5-.31,0,0-0.51-.31h0l-0.5-.31-0.06,0-0.5-.3h0l-0.48-.29-0.06,0-0.48-.29-0.09-.05-1-.58-0.09-.05-0.47-.28-0.08,0-0.43-.26-0.07,0-0.47-.28-0.1-.06-0.47-.28,0,0-0.45-.27-0.08-.05-0.46-.28-0.1-.06-0.44-.26,0,0-0.47-.28-0.11-.06-0.46-.28-0.09-.05-0.42-.25-0.09-.05-0.46-.27L1545,145l-0.47-.28,0,0-0.46-.28-0.08,0-0.48-.28-0.08,0-0.49-.29h0l-0.5-.29-0.08,0-0.49-.29,0,0-0.47-.28-0.06,0-0.49-.29-0.07,0-1-.59-0.05,0-0.51-.3,0,0-1-.61,0,0-1.05-.61h0l-0.53-.31h0q-17-9.89-34.45-19.15h0ZM1364.8,60.49l-10,28.28c24.28,8.61,48.54,18.29,72.09,28.79l12.21-27.4q-36.43-16.24-74.28-29.67h0ZM1220.24,21l-5.75,29.44c25.31,4.94,50.72,11,75.54,17.86l8-28.9-2.08-.58h0l-0.26-.07-0.08,0-0.25-.07h0l-0.51-.14-0.09,0-0.19-.05-0.16,0-0.18,0-0.16,0-0.18,0-0.32-.09-0.08,0-0.28-.08-0.1,0-0.26-.07-0.09,0-0.29-.08-0.07,0-0.36-.1h0l-0.35-.09-0.06,0-0.32-.09h0q-35-9.49-71-16.54h0ZM1071.44,3.13l-1.4,30c25.8,1.2,51.83,3.43,77.36,6.62l3.72-29.77c-10.21-1.27-20.49-2.4-30.79-3.38h0l-1.2-.11h0l-0.39,0h0l-0.77-.07h-0.08l-0.31,0h-0.07l-0.75-.07h-0.08l-0.29,0h-0.11l-0.31,0h-0.06l-0.36,0h-0.12l-0.25,0H1115l-0.2,0-0.17,0-0.33,0h-0.14l-0.22,0-0.18,0-0.18,0-0.18,0h-0.17l-0.37,0h-0.13l-0.22,0h-0.13l-0.23,0H1112l-0.78-.07h-0.1l-0.25,0h-0.08L1110,5.64h0l-0.3,0h0q-19-1.59-38.18-2.49h0Z" transform="translate(350.67 -2)"/><path d="M325.55,1684.24c-49.14,0-209.48-4.23-209.48-58.67,0-22.79,55.13-38.7,134.07-38.7,58.9,0,129.37,10,211,21.54,50.8,7.2,103.32,14.64,159.31,20.58,231.22-73.65,326.81-239.54,437.47-431.61,28.79-50,58.56-101.64,91.85-153.43C1283.19,836.37,1442,674.28,1597,587.36c-86.38-96.38-251.32-156.2-430.9-156.2h-20.85c12.85,45.5,19.64,98,19.64,152,0,111.63-23.12,224.5-68.72,335.48-41.55,101.12-101.94,199.12-174.65,283.39-70.09,81.25-150.8,149-233.38,196-84.23,47.92-169,73.25-245,73.25-71.87,0-132.33-24.65-174.84-71.3C228.76,1356.69,207,1295.8,207,1228.58c0-6.69.57-14,1.11-21.15,0.51-6.65,1-13.52,1.1-19.82-46.22,7.25-89.9,10.92-129.85,10.92-58,0-113-8.18-163.56-24.3-52.25-16.67-98.26-41.4-136.77-73.51a343,343,0,0,1-93.87-123.58c-23.12-51.35-34.85-110-34.85-174.37,0-99.24,26.54-198.25,78.89-294.27a800.57,800.57,0,0,1,90.81-132A934.14,934.14,0,0,1-61.82,259.73C119.47,109.48,353.62,23.3,580.6,23.3A621.06,621.06,0,0,1,763.35,50.69a598.41,598.41,0,0,1,163,78.41A558.31,558.31,0,0,1,1056.4,252.93a535.18,535.18,0,0,1,83.83,162.92h25.88c86.42,0,174.14,13.63,253.7,39.42,83.27,27,155.86,67,210,115.63,76.47-38.13,154-57.46,230.49-57.46,57.68,0,114.14,12.78,154.9,35.05,50.21,27.45,76.76,68.59,76.76,119,0,46.58-37.78,71.56-38.16,71.81l-0.83.54-10-15.07,1-.51c6.49-3.25,32.71-23.55,32.71-56.77,0-44.21-23.88-80.71-69.07-105.58-38.84-21.37-91.14-33.14-147.28-33.14-73.38,0-143.94,17.9-215.65,54.7,68.71,66.76,103.54,145,103.54,232.62,0,119.45-96,206.54-153.17,247.82-83.47,60.24-187.4,99.16-264.78,99.16-36.78,0-72.49-18.78-82.56-24.53l-0.71-.41,5.11-15.33,1.09,0.73c7.4,4.93,47,24.23,77.07,24.23,67.32,0,150.44-41.63,216.92-108.66,76.86-77.49,119.2-175.6,119.2-276.25,0-57.52-18.62-110.06-56.92-160.58-29.88,18-57.52,38.43-92.25,68.19-96.19,83.91-170.86,213.35-257.32,363.23q-10.8,18.73-21.92,37.94-7.47,12.61-15.21,25.77c-51.68,87.73-116,196.91-205.54,295.26-103.63,113.81-221,192-358.74,239.06a1259.34,1259.34,0,0,0,126.18,6.18c103.61,0,204.6-45.15,292.06-130.57l0.71-.69,10.28,10.29-0.72.71c-46.28,45.2-96.56,79.78-149.45,102.78-50.05,21.76-101.49,32.8-152.87,32.8-53.33,0-105.84-4-164-8.86C525.35,1671.18,428.83,1684.24,325.55,1684.24Zm-75.41-82.06c-56.2,0-118.76,13.95-118.76,23.4,0,18,60.24,43.36,194.17,43.36,95.85,0,182.08-10,256.41-29.66-41.94-5-82.17-10.5-121.13-15.86C378.08,1612,306.61,1602.18,250.14,1602.18Zm-25.72-417.1c-2.11,15.15-2.11,28.31-2.11,43.5,0,133.91,90.79,227.44,220.78,227.44,145.59,0,319.51-110.65,465.24-296,146.9-186.83,234.6-412.42,234.6-603.46,0-47-5-88.07-15.28-125.39-457.53,17.21-862.16,348.23-903,738.49,196.06-38.33,366.65-156.84,468.19-325.3l0.54-.9,15,10-0.5.82a711.08,711.08,0,0,1-200.44,212.93C423.29,1125.89,328.08,1165.54,224.42,1185.08ZM580.6,38.61c-223.89,0-454.54,84.79-632.83,232.64-179.3,148.69-282.13,342.42-282.13,531.51,0,280.82,222.88,380.47,413.73,380.47,40,0,83.67-3.69,129.93-11,8.85-92.81,39-185,89.49-274,49.76-87.68,116.65-167.71,198.82-237.89,173.21-147.92,395.12-234.69,625-244.42C1056,193.69,833.3,38.61,580.6,38.61Z" transform="translate(350.67 -2)"/><path d="M580.6,24.3c250.61,0,483.49,150.81,558.89,392.56h26.61c170.77,0,350.42,53.23,463.53,155.25,75.41-37.7,153-57.66,230.65-57.66,104.24,0,230.65,42.14,230.65,153,0,46.58-37.7,71-37.7,71l-8.87-13.31c4.44-2.22,33.27-22.18,33.27-57.66,0-97.58-113.11-139.72-217.35-139.72-77.62,0-148.59,20-217.35,55.45,64.32,62.1,104.24,139.72,104.24,232.87,0,197.39-268.36,346-417,346-33.27,0-66.53-15.53-82.06-24.4l4.44-13.31c6.65,4.44,46.57,24.4,77.62,24.4,130.85,0,337.11-161.9,337.11-385.9,0-62.1-22.18-115.33-57.66-161.9-33.27,20-62.1,42.14-93.15,68.75-104.24,90.93-181.86,232.87-279.45,401.43-106.46,179.64-252.83,450.22-583.29,561.11a1260.46,1260.46,0,0,0,130.85,6.65c95.37,0,197.39-37.7,292.75-130.85l8.87,8.87C990.9,1610,884.44,1652.19,784.64,1652.19c-55.45,0-110.89-4.44-164.12-8.87-86.49,24.4-181.86,39.92-295,39.92-84.28,0-208.48-11.09-208.48-57.67,0-22.18,55.45-37.7,133.07-37.7,95.37,0,224,26.61,370.38,42.14,292.75-93.15,370.38-337.11,530.06-585.51,119.76-186.3,277.23-361.51,448-456.87-88.71-99.8-255-157.46-432.48-157.46h-22.18c13.31,46.57,20,99.8,20,153,0,465.74-408.08,887.13-720.8,887.13-150.81,0-235.09-108.67-235.09-241.74,0-13.31,2.22-28.83,2.22-42.14-42.14,6.65-86.5,11.09-130.85,11.09-228.44,0-428-128.63-428-394.77C-348.67,394.68,108.2,24.3,580.6,24.3M79.37,1184.23c44.36,0,88.71-4.44,130.85-11.09,35.49-377,428-736.32,913.75-756.28-66.53-224-292.75-379.25-543.37-379.25-468,0-916,365.94-916,765.15,0,257.27,195.17,381.47,414.74,381.47m144.16-13.31c206.26-39.92,372.59-164.12,470.18-326L707,853.77c-102,166.34-270.57,290.54-483.49,330.46-2.22,15.53-2.22,28.83-2.22,44.36,0,124.2,79.84,228.44,221.78,228.44,308.28,0,700.83-490.14,700.83-900.44,0-44.36-4.44-86.49-15.53-126.42C647.13,447.9,261.23,802.76,223.53,1170.92m102,499c102,0,188.51-11.09,261.7-31.05-133.07-15.53-252.83-37.7-337.11-37.7-53.23,0-119.76,13.31-119.76,24.4,0,17.74,55.45,44.36,195.17,44.36M580.6,22.3A948.38,948.38,0,0,0,404.67,39,1022.58,1022.58,0,0,0,235.41,86.68,1057.9,1057.9,0,0,0,78,161.28,1029.09,1029.09,0,0,0-62.46,259,935.13,935.13,0,0,0-180.73,375.83,801.56,801.56,0,0,0-271.66,508c-25.52,46.81-45.16,95.13-58.39,143.61a574.81,574.81,0,0,0-20.62,151.14c0,64.5,11.75,123.3,34.93,174.78a344,344,0,0,0,94.14,123.94c38.61,32.19,84.74,57,137.1,73.7,50.65,16.16,105.78,24.35,163.86,24.35,39.66,0,83-3.61,128.83-10.75-0.11,5.94-.6,12.35-1.08,18.57-0.55,7.13-1.11,14.49-1.11,21.22,0,33.52,5.26,65.34,15.64,94.58,10.49,29.57,25.93,55.66,45.87,77.54,42.7,46.86,103.42,71.62,175.58,71.62,38.62,0,79.44-6.43,121.33-19.1,40.82-12.35,82.6-30.61,124.21-54.28,82.68-47,163.47-114.89,233.64-196.23A1057.19,1057.19,0,0,0,1020,1069.61a1028.65,1028.65,0,0,0,77.11-150.56,939.53,939.53,0,0,0,50.61-163.61,840.88,840.88,0,0,0,18.19-172.25c0-53.59-6.68-105.74-19.32-151h19.54c178.72,0,342.9,59.31,429.32,154.94-80.75,45.44-162,110.52-241.42,193.48-72.92,76.13-141.93,164.56-205.11,262.84-33.3,51.8-63.08,103.49-91.88,153.47C946.49,1388.73,851,1554.41,620.31,1628c-55.89-5.94-108.34-13.37-159.07-20.55-81.63-11.56-152.13-21.55-211.1-21.55-37.8,0-72,3.77-96.19,10.61-25.44,7.18-38.88,17.24-38.88,29.09,0,55.36,161.1,59.67,210.48,59.67,103.31,0,199.86-13.05,295.17-39.9,58.13,4.84,110.61,8.85,163.92,8.85,51.53,0,103.09-11.06,153.27-32.88,53-23,103.38-57.69,149.75-103l1.45-1.41-1.43-1.43-8.87-8.87-1.4-1.4-1.41,1.38c-87.26,85.23-188,130.28-291.36,130.28-41.58,0-82.41-1.92-121.54-5.72a831.45,831.45,0,0,0,198.66-100.38c55.94-38.52,107-83.48,156.17-137.46,89.62-98.42,154-207.65,205.66-295.42,5.26-8.93,10.23-17.36,15.2-25.76,7.43-12.83,14.8-25.61,21.93-38,86.41-149.8,161-279.17,257.11-363,34.37-29.46,61.79-49.77,91.33-67.62,37.8,50.13,56.17,102.24,56.17,159.26,0,100.38-42.23,198.24-118.91,275.54-66.3,66.84-149.14,108.36-216.21,108.36-29.87,0-69.17-19.16-76.52-24.06l-2.18-1.45-0.83,2.48-4.44,13.31-0.52,1.56,1.42,0.81c10.12,5.79,46,24.66,83.05,24.66,37.29,0,81.74-9.14,128.53-26.43a581.58,581.58,0,0,0,136.84-72.92c46-33.21,82.69-70.29,109-110.2,29.58-44.88,44.58-91.45,44.58-138.43A303.86,303.86,0,0,0,1721,687.14c-17.16-37-42.28-71.76-74.66-103.44,71.14-36.3,141.16-54,214-54,56,0,108.11,11.73,146.8,33,44.85,24.68,68.55,60.89,68.55,104.7,0,14.53-4.89,28-14.53,40.06-7.75,9.69-15.88,14.94-17.63,15.82l-2,1,1.26,1.89,8.87,13.31,1.09,1.64,1.66-1.07a89.41,89.41,0,0,0,19.33-18.46c8.8-11.13,19.28-29.56,19.28-54.19,0-26.75-7.31-50.92-21.73-71.83-13-18.82-31.67-35-55.54-48-21.47-11.73-46.68-20.76-74.94-26.81a389.92,389.92,0,0,0-80.43-8.36c-76.43,0-153.92,19.27-230.33,57.27-27.5-24.65-59.62-47.07-95.5-66.66a670.69,670.69,0,0,0-114.35-48.73c-79.65-25.82-167.48-39.46-254-39.46H1141a536.14,536.14,0,0,0-83.77-162.53A559.33,559.33,0,0,0,926.88,128.28,599.4,599.4,0,0,0,763.64,49.73a622.05,622.05,0,0,0-183-27.43h0ZM79.37,1182.23c-190.4,0-412.74-99.38-412.74-379.47C-333.36,614-230.66,420.52-51.59,272,126.52,124.32,356.94,39.61,580.6,39.61c251.8,0,473.74,154.21,540.71,375.36A1038,1038,0,0,0,629.73,563.8,1011.48,1011.48,0,0,0,497,659.57,948.47,948.47,0,0,0,385.33,772.14a854,854,0,0,0-87.41,125.59,744.78,744.78,0,0,0-60.07,134.86,645.6,645.6,0,0,0-29.47,138.82c-45.93,7.18-89.32,10.82-129,10.82h0Zm146.43-13.79c41.55-389,444.92-718.67,901.1-736.21,10.11,37,15,77.72,15,124.36,0,190.83-87.62,416.19-234.39,602.84C762,1344.52,588.38,1455,443.09,1455c-129.4,0-219.78-93.11-219.78-226.44,0-14.92,0-27.87,2-42.66C328.84,1166.32,423.94,1126.66,508,1068a713.26,713.26,0,0,0,111.83-96.71,722.34,722.34,0,0,0,88.89-116.52l1-1.64-1.6-1.07-13.31-8.87-1.74-1.16L692,843.86c-101.16,167.84-271,286-466.2,324.57h0Zm99.75,499.49c-78.42,0-124.55-8.4-149.44-15.45-32.24-9.13-43.73-19.89-43.73-26.91,0-2.67,10.2-8.71,38.32-14.4a425.26,425.26,0,0,1,79.45-8c56.4,0,127.84,9.83,210.56,21.22,37.33,5.14,75.83,10.44,115.89,15.24-73.08,18.78-157.47,28.3-251,28.3h0Z" transform="translate(350.67 -2)"/></svg>