<?xml version="1.0" standalone="no"?>
<!DOCTYPE svg PUBLIC "-//W3C//DTD SVG 1.1//EN" "http://www.w3.org/Graphics/SVG/1.1/DTD/svg11.dtd" >
<svg>
<metadata>
Created by FontForge 20120731 at Sun Apr 24 13:51:06 2016
 By ,,,
Copyright (c) 2015 by Fontforecast. All rights reserved.
</metadata>
<defs>
<font id="Salt_&_Spices_Pro_SCSerif" horiz-adv-x="432" >
  <font-face 
    font-family="Salt & Spices Pro SC Serif"
    font-weight="400"
    font-stretch="normal"
    units-per-em="1000"
    panose-1="2 0 5 3 0 0 0 2 0 3"
    ascent="829"
    descent="-171"
    x-height="435"
    cap-height="702"
    bbox="-50 -304 1034.8 924"
    underline-thickness="50"
    underline-position="-50"
    unicode-range="U+0020-2215"
  />
<missing-glyph horiz-adv-x="250" 
 />
    <glyph glyph-name="fi" unicode="fi" horiz-adv-x="484" 
d="M235 192q-5 0 -5 22q0 2 0.5 8t0.5 8l-4 1h-35l-3 -1q-3 0 -4 1h-66q-1 -1 -6 -1v-20q0 -3 -0.5 -11t-0.5 -9q0 -7 -1 -8l-2 -67l2 -34q0 -36 1 -43v-2q1 -1 1 -3q0 -10 1 -13h5l3 -1q2 0 7 0.5t7 0.5h3q2 -1 4 -1q1 -4 6 -5.5t-1 -7.5l-2 -4h-9q-1 0 -12.5 -0.5
t-20.5 -0.5l-3 -1h-13h-6q-4 1 -7 1h-45l-3 2l-3 2l1 11q1 3 9 3h21q8 0 8 3v12l-1 4v4q0 2 0.5 15t0.5 15v37l1 3v4v27q0 4 -1 6l1 13v15q-1 2 -1 10v10l-1 5q0 5 -0.5 11t-0.5 9q0 7 1 8v4v12l1 9v32q-1 11 -1 47q0 40 -1 48q-1 1 -1 7l-3 16q-6 0 -9 5h-18l-8 -3
q-7 0 -7 5l-1 6v7q0 6 2 6q3 1 8 1h4q3 0 4 1h19q2 0 8.5 0.5t7.5 0.5q3 0 8.5 -0.5t7.5 -0.5l5 1h4q5 -1 7 -1h4q4 0 19.5 0.5t21.5 0.5h24h3q3 1 5 1q4 0 5 -1h22h7q6 1 8 1q4 0 14 -1t13 -1h24q2 0 6 -0.5t7 -0.5l4 1q3 -1 7 -1h4l4 -2l3 -4q3 -6 3 -12v-24q2 -18 2 -23
q0 -26 -9 -26l-2 -1q-4 8 -4 9q-1 2 -2.5 3.5t-1.5 2.5v3q-2 8 0 9v39l1 4l1 4q0 3 -4 3h-13q-6 0 -19.5 -0.5t-18.5 -0.5l-8 1h-38l-6 1q-2 0 -9.5 0.5t-10.5 0.5t-6 -1h-5q-1 1 -6 1q-2 0 -6 -0.5t-5 -0.5l-14 -1q0 -1 -12 -1q1 -4 1 -17v-9v-9l-1 -4q0 -6 -1 -6v-31
l-2 -27v-2q0 -2 0.5 -5t0.5 -6q2 -24 2 -27q0 -17 -1 -22l2 -6h68q3 0 8 -0.5t6 -0.5h2h14q1 -1 8 -1l4 1h10l2 6v18v4q-1 5 -1 7q0 4 1 5q2 3 11 3q3 0 7 -9v-16q0 -9 -1 -12q-2 -2 -2 -3q0 -2 1 -3q1 0 1 -4l-1 -2v-3v-6v-3l1 -3q0 -1 -0.5 -5t-0.5 -7q2 -9 0 -13
q0 -6 -15 -6zM327 9q6 8 27 8l12 2l1 3q1 3 1 7v61q0 19 2 27q0 3 -1 17t-1 18v6v2q1 2 1 4l-1 3v3q2 18 2 20l1 4v26q0 17 -1 18l3 180q-10 2 -22 2q-1 0 -2 -1t-3 -1l-15 1q-2 0 -2 6l1 3v4l2 1l2 1q2 2 5 2h7q7 0 9 -2h17l11 1h6q1 -1 4 -1h5h6l3 -1l16 1q1 0 6.5 -0.5
t7.5 -0.5h5l14 1l3 -1q3 -1 5 -1q3 -2 3 -4q0 -5 -6 -5.5t-7 -1.5q-10 0 -11 -1h-20l1 -4v-5l-4 -38q0 -25 3 -26l-2 -46l1 -24q-1 -5 -1 -29q-1 -5 -1 -33q0 -22 1 -22v-52l-2 -25l-1 -8v-11q-3 -37 -3 -74q2 -4 6 -5h7q1 0 7 0.5t8 0.5q14 -2 14 -9v-4q-1 -1 -6 -1l-3 -1
h-6h-14q-1 0 -6 -0.5t-7 -0.5l-5 1q-5 0 -11.5 0.5t-9.5 0.5q-5 0 -7 -3h-48q-7 0 -7 7z" />
    <glyph glyph-name="fl" unicode="fl" horiz-adv-x="619" 
d="M235 192q-5 0 -5 22q0 2 0.5 8t0.5 8l-4 1h-35l-3 -1q-3 0 -4 1h-66q-1 -1 -6 -1v-20q0 -3 -0.5 -11t-0.5 -9q0 -7 -1 -8l-2 -67l2 -34q0 -36 1 -43v-2q1 -1 1 -3q0 -10 1 -13h5l3 -1q2 0 7 0.5t7 0.5h3q2 -1 4 -1q1 -4 6 -5.5t-1 -7.5l-2 -4h-9q-1 0 -12.5 -0.5
t-20.5 -0.5l-3 -1h-13h-6q-4 1 -7 1h-45l-3 2l-3 2l1 11q1 3 9 3h21q8 0 8 3v12l-1 4v4q0 2 0.5 15t0.5 15v37l1 3v4v27q0 4 -1 6l1 13v15q-1 2 -1 10v10l-1 5q0 5 -0.5 11t-0.5 9q0 7 1 8v4v12l1 9v32q-1 11 -1 47q0 40 -1 48q-1 1 -1 7l-3 16q-6 0 -9 5h-18l-8 -3
q-7 0 -7 5l-1 6v7q0 6 2 6q3 1 8 1h4q3 0 4 1h19q2 0 8.5 0.5t7.5 0.5q3 0 8.5 -0.5t7.5 -0.5l5 1h4q5 -1 7 -1h4q4 0 19.5 0.5t21.5 0.5h24h3q3 1 5 1q4 0 5 -1h22h7q6 1 8 1q4 0 14 -1t13 -1h24q2 0 6 -0.5t7 -0.5l4 1q3 -1 7 -1h4l4 -2l3 -4q3 -6 3 -12v-24q2 -18 2 -23
q0 -26 -9 -26l-2 -1q-4 8 -4 9q-1 2 -2.5 3.5t-1.5 2.5v3q-2 8 0 9v39l1 4l1 4q0 3 -4 3h-13q-6 0 -19.5 -0.5t-18.5 -0.5l-8 1h-38l-6 1q-2 0 -9.5 0.5t-10.5 0.5t-6 -1h-5q-1 1 -6 1q-2 0 -6 -0.5t-5 -0.5l-14 -1q0 -1 -12 -1q1 -4 1 -17v-9v-9l-1 -4q0 -6 -1 -6v-31
l-2 -27v-2q0 -2 0.5 -5t0.5 -6q2 -24 2 -27q0 -17 -1 -22l2 -6h68q3 0 8 -0.5t6 -0.5h2h14q1 -1 8 -1l4 1h10l2 6v18v4q-1 5 -1 7q0 4 1 5q2 3 11 3q3 0 7 -9v-16q0 -9 -1 -12q-2 -2 -2 -3q0 -2 1 -3q1 0 1 -4l-1 -2v-3v-6v-3l1 -3q0 -1 -0.5 -5t-0.5 -7q2 -9 0 -13
q0 -6 -15 -6zM587 -2h-27q-3 0 -15 -0.5t-16 -0.5q-1 0 -6 0.5t-7 0.5h-14q-9 1 -20 1t-11 -1h-9q-14 0 -19 1h-58q-2 2 -9 2q-1 0 -7 -0.5t-8 -0.5q-7 0 -10 3q-2 1 -5.5 1.5t-5.5 0.5t-3.5 2t-1.5 5t6.5 7t6.5 5h20l3 2v17q0 17 -2 19v13q0 5 0.5 19.5t0.5 18.5q0 1 -1 4
t-1 4v36q0 4 1 16t1 15q0 2 -2 12l-1 8l1 4v5q0 15 3 42v10q0 34 -1 44q0 3 -1 11t-1 10v5q1 8 1 32v33l-1 5v5q-1 2 -20.5 3.5t-19.5 4.5q0 4 8 10q2 1 16 1q4 0 34 -2q1 -1 4 -1h5l3 2h2q2 -1 4 -1l4 1h5q3 -29 2 -34q-1 -2 -1 -5t1.5 -17t1.5 -17v-6q0 -16 -4 -17v-36
l-4 -6l1 -35q1 -9 1 -19v-9q0 -9 -2 -17q-1 -1 -1 -8v-4q1 -3 1 -5t-0.5 -8t-0.5 -8v-6q0 -8 3 -11v-34q1 -1 1 -4q0 -7 -1 -8v-55q1 -1 1 -6v-17v-6q-1 -1 -1 -4q0 -8 5 -8l141 -2h3l2 -1l19 -1l2 1q1 1 5 1v4q-1 7 -1 22q0 2 -0.5 10.5t-0.5 11.5q0 12 3 17q2 2 11 2
q4 0 5 -2.5t1 -5.5t2 -5v-14q0 -7 -1 -10q-2 -2 -2 -8q0 -4 -1 -7v-5v-2q1 -1 1 -3v-10q0 -2 1 -5v-3q3 -6 3 -8q0 -3 -6 -3h-8q-6 0 -8 2z" />
    <glyph glyph-name="f_f_i" unicode="ffi" horiz-adv-x="804" 
d="M235 192q-5 0 -5 22q0 2 0.5 8t0.5 8l-4 1h-35l-3 -1q-3 0 -4 1h-66q-1 -1 -6 -1v-20q0 -3 -0.5 -11t-0.5 -9q0 -7 -1 -8l-2 -67l2 -34q0 -36 1 -43v-2q1 -1 1 -3q0 -10 1 -13h5l3 -1q2 0 7 0.5t7 0.5h3q2 -1 4 -1q1 -4 6 -5.5t-1 -7.5l-2 -4h-9q-1 0 -12.5 -0.5
t-20.5 -0.5l-3 -1h-13h-6q-4 1 -7 1h-45l-3 2l-3 2l1 11q1 3 9 3h21q8 0 8 3v12l-1 4v4q0 2 0.5 15t0.5 15v37l1 3v4v27q0 4 -1 6l1 13v15q-1 2 -1 10v10l-1 5q0 5 -0.5 11t-0.5 9q0 7 1 8v4v12l1 9v32q-1 11 -1 47q0 40 -1 48q-1 1 -1 7l-3 16q-6 0 -9 5h-18l-8 -3
q-7 0 -7 5l-1 6v7q0 6 2 6q3 1 8 1h4q3 0 4 1h19q2 0 8.5 0.5t7.5 0.5q3 0 8.5 -0.5t7.5 -0.5l5 1h4q5 -1 7 -1h4q4 0 19.5 0.5t21.5 0.5h24h3q3 1 5 1q4 0 5 -1h22h7q6 1 8 1q4 0 14 -1t13 -1h24q2 0 6 -0.5t7 -0.5l4 1q3 -1 7 -1h4l4 -2l3 -4q3 -6 3 -12v-24q2 -18 2 -23
q0 -26 -9 -26l-2 -1q-4 8 -4 9q-1 2 -2.5 3.5t-1.5 2.5v3q-2 8 0 9v39l1 4l1 4q0 3 -4 3h-13q-6 0 -19.5 -0.5t-18.5 -0.5l-8 1h-38l-6 1q-2 0 -9.5 0.5t-10.5 0.5t-6 -1h-5q-1 1 -6 1q-2 0 -6 -0.5t-5 -0.5l-14 -1q0 -1 -12 -1q1 -4 1 -17v-9v-9l-1 -4q0 -6 -1 -6v-31
l-2 -27v-2q0 -2 0.5 -5t0.5 -6q2 -24 2 -27q0 -17 -1 -22l2 -6h68q3 0 8 -0.5t6 -0.5h2h14q1 -1 8 -1l4 1h10l2 6v18v4q-1 5 -1 7q0 4 1 5q2 3 11 3q3 0 7 -9v-16q0 -9 -1 -12q-2 -2 -2 -3q0 -2 1 -3q1 0 1 -4l-1 -2v-3v-6v-3l1 -3q0 -1 -0.5 -5t-0.5 -7q2 -9 0 -13
q0 -6 -15 -6zM554 192q-5 0 -5 22q0 2 0.5 8t0.5 8l-4 1h-35l-3 -1q-3 0 -4 1h-66q-1 -1 -6 -1v-20q0 -3 -0.5 -11t-0.5 -9q0 -7 -1 -8l-2 -67l2 -34q0 -36 1 -43l1 -2v-3q0 -10 1 -13h5l3 -1q1 0 6.5 0.5t7.5 0.5h3q2 -1 4 -1q1 -4 4 -5t3.5 -1.5t-1.5 -6.5l-3 -4h-9
q-1 0 -12.5 -0.5t-20.5 -0.5l-3 -1h-13h-7l-6 1h-45l-3 2q-2 2 -3 2l1 11q2 3 9 3h21q8 0 8 3v12v4l-1 4q0 2 0.5 15t0.5 15v37v3q1 2 1 4v27q0 4 -1 6l1 13v15q-1 2 -1 10v10v5q-1 5 -1.5 11t-0.5 9q0 7 1 8v4q0 2 1 12v9v32q-1 11 -1 47q0 40 -1 48q-1 1 -1 7l-3 16
q-6 0 -9 5h-18l-8 -3q-7 0 -7 5v6q-1 5 -1 7q0 6 2 6q3 1 8 1h4q3 0 4 1h19q2 0 8.5 0.5t7.5 0.5q3 0 8.5 -0.5t7.5 -0.5l5 1h5q4 -1 6 -1h4q4 0 19.5 0.5t21.5 0.5h24q1 0 4 0.5t4 0.5q4 0 5 -1h22h6q7 1 9 1q3 0 13 -1t14 -1h24q2 0 6 -0.5t7 -0.5l4 1q3 -1 7 -1h4l4 -2
l3 -4q3 -6 3 -12v-24q2 -18 2 -23q0 -26 -9 -26l-2 -1q-4 8 -4 9q-1 2 -2.5 3.5t-1.5 2.5l-1 3q0 8 1 9v39l1 4l1 4q0 3 -4 3h-13q-6 0 -19.5 -0.5t-18.5 -0.5l-8 1h-38l-6 1q-2 0 -9.5 0.5t-10.5 0.5t-6 -1h-5q-1 1 -6 1q-1 0 -5 -0.5t-6 -0.5l-14 -1q0 -1 -12 -1
q1 -4 1 -17q0 -4 -0.5 -9t-0.5 -9v-4q0 -6 -1 -6v-31l-2 -27l1 -2v-5v-6q2 -24 2 -27q0 -17 -1 -22l2 -6h68q3 0 8 -0.5t6 -0.5h2h14q1 -1 8 -1l4 1h10l2 6v18l-1 4v7q0 4 1 5q1 3 11 3q3 0 4 -1.5t1 -3.5t2 -4v-16q0 -9 -1 -12q-2 -2 -2 -3v-1l1 -2q1 0 1 -4v-2
q-1 -2 -1 -3v-6q0 -2 1 -3v-3q0 -1 -0.5 -5t-0.5 -7q2 -9 0 -13q0 -6 -15 -6zM647 7q6 8 27 8l12 2l1 3q1 3 1 7v61q0 19 2 27q0 3 -1 17t-1 18v6v2q1 2 1 4l-1 3v3q2 18 2 20l1 4v26q0 17 -1 18l3 180q-10 2 -22 2q-1 0 -2 -1t-3 -1l-15 1q-2 0 -2 6l1 3v4l2 1l2 1q2 2 5 2
h7q7 0 9 -2h17l11 1h6q1 -1 4 -1h5h6l3 -1l16 1q1 0 6.5 -0.5t7.5 -0.5h5l14 1l3 -1q3 -1 5 -1q3 -2 3 -4q0 -5 -6 -5.5t-7 -1.5q-10 0 -11 -1h-20l1 -4v-5l-4 -38q0 -25 3 -26l-2 -46l1 -24q-1 -5 -1 -29q-1 -5 -1 -33q0 -22 1 -22v-52l-2 -25l-1 -8v-11q-3 -38 -3 -74
q2 -4 6 -5h7q1 0 7 0.5t8 0.5q14 -2 14 -9v-4q-1 -1 -6 -1l-3 -1h-6h-14q-1 0 -6 -0.5t-7 -0.5l-5 1q-5 0 -11.5 0.5t-9.5 0.5q-5 0 -7 -3h-48q-7 0 -7 7z" />
    <glyph glyph-name="f_f_l" unicode="ffl" horiz-adv-x="939" 
d="M235 192q-5 0 -5 22q0 2 0.5 8t0.5 8l-4 1h-35l-3 -1q-3 0 -4 1h-66q-1 -1 -6 -1v-20q0 -3 -0.5 -11t-0.5 -9q0 -7 -1 -8l-2 -67l2 -34q0 -36 1 -43v-2q1 -1 1 -3q0 -10 1 -13h5l3 -1q2 0 7 0.5t7 0.5h3q2 -1 4 -1q1 -4 6 -5.5t-1 -7.5l-2 -4h-9q-1 0 -12.5 -0.5
t-20.5 -0.5l-3 -1h-13h-6q-4 1 -7 1h-45l-3 2l-3 2l1 11q1 3 9 3h21q8 0 8 3v12l-1 4v4q0 2 0.5 15t0.5 15v37l1 3v4v27q0 4 -1 6l1 13v15q-1 2 -1 10v10l-1 5q0 5 -0.5 11t-0.5 9q0 7 1 8v4v12l1 9v32q-1 11 -1 47q0 40 -1 48q-1 1 -1 7l-3 16q-6 0 -9 5h-18l-8 -3
q-7 0 -7 5l-1 6v7q0 6 2 6q3 1 8 1h4q3 0 4 1h19q2 0 8.5 0.5t7.5 0.5q3 0 8.5 -0.5t7.5 -0.5l5 1h4q5 -1 7 -1h4q4 0 19.5 0.5t21.5 0.5h24h3q3 1 5 1q4 0 5 -1h22h7q6 1 8 1q4 0 14 -1t13 -1h24q2 0 6 -0.5t7 -0.5l4 1q3 -1 7 -1h4l4 -2l3 -4q3 -6 3 -12v-24q2 -18 2 -23
q0 -26 -9 -26l-2 -1q-4 8 -4 9q-1 2 -2.5 3.5t-1.5 2.5v3q-2 8 0 9v39l1 4l1 4q0 3 -4 3h-13q-6 0 -19.5 -0.5t-18.5 -0.5l-8 1h-38l-6 1q-2 0 -9.5 0.5t-10.5 0.5t-6 -1h-5q-1 1 -6 1q-2 0 -6 -0.5t-5 -0.5l-14 -1q0 -1 -12 -1q1 -4 1 -17v-9v-9l-1 -4q0 -6 -1 -6v-31
l-2 -27v-2q0 -2 0.5 -5t0.5 -6q2 -24 2 -27q0 -17 -1 -22l2 -6h68q3 0 8 -0.5t6 -0.5h2h14q1 -1 8 -1l4 1h10l2 6v18v4q-1 5 -1 7q0 4 1 5q2 3 11 3q3 0 7 -9v-16q0 -9 -1 -12q-2 -2 -2 -3q0 -2 1 -3q1 0 1 -4l-1 -2v-3v-6v-3l1 -3q0 -1 -0.5 -5t-0.5 -7q2 -9 0 -13
q0 -6 -15 -6zM554 192q-5 0 -5 22q0 2 0.5 8t0.5 8l-4 1h-35l-3 -1q-3 0 -4 1h-66q-1 -1 -6 -1v-20q0 -3 -0.5 -11t-0.5 -9q0 -7 -1 -8l-2 -67l2 -34q0 -36 1 -43l1 -2v-3q0 -10 1 -13h5l3 -1q1 0 6.5 0.5t7.5 0.5h3q2 -1 4 -1q1 -4 4 -5t3.5 -1.5t-1.5 -6.5l-3 -4h-9
q-1 0 -12.5 -0.5t-20.5 -0.5l-3 -1h-13h-7l-6 1h-45l-3 2q-2 2 -3 2l1 11q2 3 9 3h21q8 0 8 3v12v4l-1 4q0 2 0.5 15t0.5 15v37v3q1 2 1 4v27q0 4 -1 6l1 13v15q-1 2 -1 10v10v5q-1 5 -1.5 11t-0.5 9q0 7 1 8v4q0 2 1 12v9v32q-1 11 -1 47q0 40 -1 48q-1 1 -1 7l-3 16
q-6 0 -9 5h-18l-8 -3q-7 0 -7 5v6q-1 5 -1 7q0 6 2 6q3 1 8 1h4q3 0 4 1h19q2 0 8.5 0.5t7.5 0.5q3 0 8.5 -0.5t7.5 -0.5l5 1h5q4 -1 6 -1h4q4 0 19.5 0.5t21.5 0.5h24q1 0 4 0.5t4 0.5q4 0 5 -1h22h6q7 1 9 1q3 0 13 -1t14 -1h24q2 0 6 -0.5t7 -0.5l4 1q3 -1 7 -1h4l4 -2
l3 -4q3 -6 3 -12v-24q2 -18 2 -23q0 -26 -9 -26l-2 -1q-4 8 -4 9q-1 2 -2.5 3.5t-1.5 2.5l-1 3q0 8 1 9v39l1 4l1 4q0 3 -4 3h-13q-6 0 -19.5 -0.5t-18.5 -0.5l-8 1h-38l-6 1q-2 0 -9.5 0.5t-10.5 0.5t-6 -1h-5q-1 1 -6 1q-1 0 -5 -0.5t-6 -0.5l-14 -1q0 -1 -12 -1
q1 -4 1 -17q0 -4 -0.5 -9t-0.5 -9v-4q0 -6 -1 -6v-31l-2 -27l1 -2v-5v-6q2 -24 2 -27q0 -17 -1 -22l2 -6h68q3 0 8 -0.5t6 -0.5h2h14q1 -1 8 -1l4 1h10l2 6v18l-1 4v7q0 4 1 5q1 3 11 3q3 0 4 -1.5t1 -3.5t2 -4v-16q0 -9 -1 -12q-2 -2 -2 -3v-1l1 -2q1 0 1 -4v-2
q-1 -2 -1 -3v-6q0 -2 1 -3v-3q0 -1 -0.5 -5t-0.5 -7q2 -9 0 -13q0 -6 -15 -6zM907 -2h-27q-3 0 -15 -0.5t-16 -0.5q-1 0 -6 0.5t-7 0.5h-14q-9 1 -20 1t-11 -1h-9q-14 0 -19 1h-58q-2 2 -9 2q-1 0 -7 -0.5t-8 -0.5q-7 0 -10 3q-2 1 -5.5 1.5t-5.5 0.5t-3.5 2t-1.5 5t6.5 7
t6.5 5h20l3 2v17q0 17 -2 19v13q0 5 0.5 19.5t0.5 18.5q0 1 -1 4t-1 4v36q0 4 1 16t1 15q0 2 -2 12l-1 8l1 4v5q0 15 3 42v10q0 34 -1 44q0 3 -1 11t-1 10v5q1 8 1 32v33l-1 5v5q-1 2 -20.5 3.5t-19.5 4.5q0 4 8 10q2 1 16 1q4 0 34 -2q1 -1 4 -1h5l3 2h2q2 -1 4 -1l4 1h5
q3 -29 2 -34q-1 -2 -1 -5t1.5 -17t1.5 -17v-6q0 -16 -4 -17v-36l-4 -6l1 -35q1 -9 1 -19v-9q0 -9 -2 -17q-1 -1 -1 -8v-4q1 -3 1 -5t-0.5 -8t-0.5 -8v-6q0 -8 3 -11v-34q1 -1 1 -4q0 -7 -1 -8v-55q1 -1 1 -6v-17v-6q-1 -1 -1 -4q0 -8 5 -8l141 -2h3l2 -1l19 -1l2 1q1 1 5 1
v4q-1 7 -1 22q0 2 -0.5 10.5t-0.5 11.5q0 12 3 17q2 2 11 2q4 0 5 -2.5t1 -5.5t2 -5v-14q0 -7 -1 -10q-2 -2 -2 -8q0 -4 -1 -7v-5v-2q1 -1 1 -3v-10q0 -2 1 -5v-3q3 -6 3 -8q0 -3 -6 -3h-8q-6 0 -8 2z" />
    <glyph glyph-name="longs_t" unicode="&#x17f;t" horiz-adv-x="696" 
d="M87 302l1 59l3 68q-2 1 -6.5 1.5t-8 0.5t-3.5 1l-68 -1q-1 0 -2 4l1 5q11 8 46 8h9q2 0 13.5 -1t15.5 -1h4l2 30l11 82q4 22 8 35q1 3 7 15.5t7 15.5q22 52 69 73q33 13 61 14q5 0 7 -1q26 -1 33 -7l6 -1l2 -2q2 -2 3 -2q0 -1 6.5 -6.5t8.5 -7.5l5 -3l12 -18q2 -2 4 -5
l2 -5q5 -5 5 -13q4 -7 4 -9l-1 -3l-6 -11l-4 -4l-13 -20l-6 -6l-7 6q0 1 2 3l2 4l1 1q1 1 1 2l1 1l2 4l1 6v19v1l-1 1q-1 1 -1 2l-2 4l-2 7q-2 2 -3.5 5.5t-2.5 5.5l-5 5q0 1 -2 3l-9 9q-4 0 -9 4h-1l-2 1l-2 1h-2h-2q-1 1 -3 1q-22 2 -25 2h-7q-2 0 -5 -2t-5 -2
q-7 0 -12 -5l-3 -2h-5q-7 -1 -10 -5l-3 -4l-4 -1l-4 -3q-4 -3 -5 -3l-6 -3q-8 -8 -14 -17q-4 -4 -4 -7q-9 -13 -9 -20l-5 -21q-3 -10 -3 -12v-7q0 -3 -0.5 -9.5t-0.5 -7.5q0 -7 1 -9v-13v-6l1 -5q0 -26 -2 -52q0 -4 -3 -13l1 -28q1 -1 1 -7q0 -3 -1 -10.5t-1 -8.5v-4l-1 -17
q0 -1 1 -3t1 -3q-1 -4 -1 -7q0 -2 -0.5 -6t-0.5 -5v-4l1 -7q2 0 2 6q0 -5 -1 -9v-13q0 -4 2 -36q2 -50 2 -51v-56l-1 -7q0 -5 2 -7v-31q0 -20 3 -39q0 -1 1 -4t1 -4l1 -10l1 -56q-4 -4 -4 -7q0 -13 -12 -22h-23l-13 1l-5 36v0v38q0 2 -2.5 11.5t-2.5 13.5v19q0 9 -1 11
l-2 42q-1 1 -1 7v9l-4 38q-1 1 -1 6v57q0 10 -1 13zM317 16q2 8 39 8l12 2l1 3q1 3 1 7v61q0 19 2 27q0 3 -1 17t-1 18v6v2q1 2 1 4q0 1 -0.5 3t-0.5 3q2 18 2 20l1 4v26q0 17 -1 18v102q0 8 2 10l1 63l-4 1h-27q-1 -1 -5 -1q-2 0 -3 1h-20q-2 0 -6 -1h-3q-2 0 -4 2h-4
q-2 0 -7 -0.5t-6 -0.5l-18 1q-4 0 -13 -0.5t-11 -0.5q-4 0 -5 -4v-7q0 -5 1 -16t1 -15q0 -8 -2 -18q-3 -6 -8 -6q-3 0 -7 2q0 35 -1 45l-1 9l-1 9v4q0 14 4 15l6 2l7 2q4 0 17.5 -1t17.5 -1l43 2q6 -2 13 -2h7q2 2 5 2h7q6 0 10 -2q2 0 3 1h2h4l10 1h24q2 -2 3 -2q2 0 5 0.5
t4 0.5l6 -2l5 1l2 1h3h10l5 1l2 -1q1 -1 6 -1q0 2 2 2l3 -1h4h12h7h7h5.5h3.5h4h6q5 -1 20 -1q7 0 8 1q3 0 6.5 -0.5t4.5 -0.5h4l4 2q2 1 9 1h20l5 -5q-1 -2 -1 -10v-19q0 -8 1 -12q1 -3 1 -19v-6q-5 -11 -10 -11q-6 0 -6 15v4q0 4 -1.5 15t-1.5 16v13h-8q-14 0 -23 -3
q-6 -2 -7 -2h-5q-3 1 -5 1q-6 1 -19 1h-36q-1 1 -7 1q-1 0 -6.5 -0.5t-7.5 -0.5l-3 1q-12 0 -14 -3v-25q0 -10 -2 -88v-2q-1 -1 -1 -4q-3 -84 -3 -86q0 -15 1 -15v-52l-2 -20v-44q-1 -2 -1 -6t0.5 -9.5t0.5 -9.5q0 -5 -2 -11q0 -1 -0.5 -9.5t-0.5 -10.5l5 -3l14 -2
q2 0 8 0.5t7 0.5q14 -2 14 -9v-4q-1 -1 -6 -1h-4q-3 -1 -5 -1h-14q-1 0 -9.5 0.5t-10.5 0.5h-4q-4 0 -9.5 -0.5t-8.5 -0.5l-3 1h-6q-1 -1 -3 -1h-59q-7 0 -7 7z" />
    <glyph glyph-name=".notdef" horiz-adv-x="250" 
 />
    <glyph glyph-name=".null" horiz-adv-x="0" 
 />
    <glyph glyph-name="nonmarkingreturn" horiz-adv-x="333" 
 />
    <glyph glyph-name="space" unicode=" " horiz-adv-x="250" 
 />
    <glyph glyph-name="exclam" unicode="!" horiz-adv-x="204" 
d="M87 680l5 5q14 18 25 18q7 0 7 -3q9 -9 9 -14q-4 -23 -2 -31q0 -2 -2 -11l-2 -10v-7q0 -1 -1.5 -14.5t-3.5 -24.5q-1 -1 -1 -3t0.5 -4t0.5 -3l1 -2v-5q0 -5 -2 -7q2 -4 2 -30v-13q0 -2 -1 -4l-1 -2v-6q0 -4 -2 -18q0 -1 0.5 -6t0.5 -7v-6q-1 -3 -1 -6l2 -4v-8
q0 -14 -1 -16l1 -3q0 -1 -1 -2v-1l-2 -22q3 -2 3 -18v-9l1 -2v-3v-2q-1 -2 -1 -4v-6q0 -1 -2 -11q0 -2 1 -11t1 -12v-4l-1 -2q0 -2 -1 -3q0 -2 2 -4l-2 -25l1 -3q0 -1 3 -13q0 -30 -1 -39v-2q-1 -3 2 -22l-2 -25v-4q-1 -2 -1 -8q0 -2 -1 -6v-4q0 -2 -0.5 -7t-0.5 -6
q0 -7 -3 -10l-5 -1l-2 -6q-2 -5 -4 -5q-6 0 -10 4q-8 0 -9 1q-5 2 -8 9q-2 2 -2 7v21q0 18 -3 27q-1 3 -1 5v3q1 3 0 6v2q-1 7 -1 69l1 11q0 9 1 28t1 22v4l-2 71q0 3 3 39l-2 23l8 130q0 1 -0.5 5.5t-0.5 6.5v4q1 24 7 49zM72 51q6 9 17 15l4 1q1 1 5 1q19 0 25 -8
q11 -17 11 -29q0 -11 -3 -12l-3 -1q-2 -1 -5 -4.5t-5 -6.5l-3 -3h-6h-5l-2 -1q-7 0 -13 3q-6 2 -12.5 8t-6.5 10v16q0 1 2 11z" />
    <glyph glyph-name="quotedbl" unicode="&#x22;" horiz-adv-x="249" 
d="M163 581q-1 0 -3 1.5t-3 1.5q-4 3 -7 24l-1 6q-1 4 -1 8l-2 7v10l-1 4q-1 4 -1 6q0 1 0.5 7t0.5 8q1 3 1 10q4 21 7 24q4 0 9 1l7 1q1 0 3 -0.5t3 -0.5q2 0 2 -12q2 -16 2 -17v-13q0 -21 -2 -21q-1 0 -1 -3l1 -5q0 -2 -1 -12v-11q-1 -2 -2 -8t-1.5 -10.5t-1.5 -4.5
t-3.5 -0.5t-4.5 -0.5zM78 601q0 3 -2 9l-3 6l-2 20q0 2 1 8v5q0 2 -1 12t-1 14q0 24 20 24q7 0 11 -11t4 -18l1 -24l-1 -18q0 -11 -1 -12l-2 -8q-3 0 -3 -8l-4 -10q-5 -8 -9 -8q-3 0 -5.5 7.5t-2.5 11.5z" />
    <glyph glyph-name="numbersign" unicode="#" horiz-adv-x="837" 
d="M184 70l-2 1q0 11 1 12l-1 4l4 24q-4 6 0 16v1l1 2l21 101v6l4 18v13l-36 -1q-4 0 -30 -2l-6 -1h-6h-60q-4 0 -4 9q2 3 7 3q3 0 6 3l45 -4l60 5q2 0 5 2l3 1h16q4 0 7 6q0 10 3 22l27 127q1 2 5 19t4 19v4q1 5 1 7l1 3q1 4 1 6h-22l-3 -1q-2 -1 -16 -1q-9 0 -11 2l-35 -4
q-1 1 -5 1q-21 0 -22 -4l-11 -3l-12 -6h-6l-5 -1q-1 1 -1 3q0 5 -1 7q0 4 7 7l6 3q5 5 7 5l53 8q6 -2 19 -2t20 2l11 1q2 -1 3.5 -0.5t6 1t7.5 0.5t4 -1l10 -2l6 19q0 7 2 21l1 3q1 2 1 4l5 23q8 37 15 70v7q0 7 1 9q8 30 22 41q1 1 5 1h13l10 -2q2 -6 3 -6l5 -2
q12 -3 12 -38v-6q0 -1 -1 -3l-2 -4l-4 -16q-1 -5 -8 -53l-8 -32q-3 -7 -4 -10q-4 -7 -4 -22q0 -4 -3 -7l-1 -2l55 1q2 -2 3 -2q2 0 7 0.5t6 0.5q2 -2 13.5 -0.5t15.5 1.5q1 0 4 -1t4 -1l17 -2q3 3 4 3q4 0 6 -2l17 -1q1 0 9 1t9 1q3 -1 12 -1h18q10 0 12 5q4 15 6 35
q0 4 2 4q0 4 -1 7v5l1 3q1 3 1 4q0 4 1 5q0 20 4 24l4 20q7 31 12 40q13 19 15 20l4 4q1 0 11.5 -1.5t12.5 -1.5q4 -2 13 -11q9 -8 9 -22v-3q-1 -3 -1 -4l-2 -8q0 -1 1 -4t1 -4q0 -4 -1.5 -12.5t-1.5 -9.5q0 -2 0.5 -7t0.5 -6q0 -4 -2.5 -8.5t-2.5 -5.5q-1 -2 -1 -7v-11
q-3 -11 -3 -13v-6l-3 -9v-6q0 -2 -1 -6l-1 -3q0 -2 2 -2l2 1h3q4 0 5 -4l24 -1q2 -2 5 -2q1 -1 8 -1h26q21 0 30 -3l39 -2q2 0 2 -4q-2 -8 -20 -8l-23 4l-14 1h-9q-7 0 -9 1q-26 0 -35 1l-4 -1q-1 0 -13 -0.5t-13 -0.5h-11q-5 -15 -5 -38q0 -11 -2 -17v-13l-1 -4
q-1 -5 -1 -7l-5 -32q-2 -14 -2 -24q0 -9 -6 -36l-5 -34q1 0 3 -0.5t3 -0.5h22l5 1q10 1 12 0l23 -2q11 3 30 3h24q5 1 20 1q13 -3 15 -5q-2 0 -5 -2l-6 -4l-3 -2h-5q-17 0 -23 2l-4 -1q-5 -1 -7 -1h-8q-2 0 -11.5 0.5t-15.5 0.5q-2 -2 -10 -2h-7l-5 -1h-6t-7 0.5t-6 0.5h-5
q-1 -1 -5 -1h-4q-3 0 -4 1h-2q-3 0 -8 -3t-5 -4v-5l-1 -5l-4 -24l-4 -16q-1 -3 -2 -12t-2 -13l-3 -10q0 -3 -1 -7l-1 -6q-1 -4 -4 -13.5t-3 -11.5q0 -1 -0.5 -3t-1 -5t-0.5 -6l-3 -5l-8 -36l-5 -8l-11 -11l-6 -2q-2 0 -4 -1h-4q-6 0 -18.5 4t-14.5 7q-4 4 -4 16l14 78
q0 2 0.5 5t1 4.5t0.5 2.5l7 33l2 23q4 12 4 22q0 9 -5 9q-1 0 -5 -0.5t-5 -0.5l-4 -2l-34 1h-2t-5.5 -0.5t-12.5 -0.5l-17 1q-15 -4 -25 -4l-33 5l-4 1q-5 1 -7 1q-4 0 -5 -4q-1 1 -4 1h-4l-3 -1l-44 1q-5 0 -5 -19q-1 -2 -2.5 -12t-1.5 -12l-5 -22l-9 -30q0 -7 -1 -8
q-2 -8 -6 -20l1 -3l-3 -6v-4l-5 -22q-2 -8 -4 -10q-3 -6 -24 -21q-9 -6 -11 -6t-5 -1h-4q-1 0 -6 -1t-7 -1h-5h-2zM358 283l29 -4q4 0 5 1l12 -1q4 0 14 0.5t14 0.5q3 -1 11 -1q7 0 8 1h5l5 -1q1 -1 8 -1q9 0 11 1l24 -1l6 2l1 5q5 17 5 32l7 39q0 2 1 8v5l7 35v14q0 1 2 14
t3 14l1 4v4q0 3 -1 4q6 18 6 25l1 1q-3 8 -5 8q-12 0 -13 -1h-8q-6 -2 -7 -2l-1 1h-2h-9h-2q-2 1 -4 1q-4 0 -5 -1h-37l-6 1q-8 0 -10 -2l-14 -1l-11 1h-19q-1 0 -4.5 -0.5t-10 -1t-13.5 -0.5h-34q-4 -4 -4 -15l-1 -6q-1 -4 -1 -7l-4 -16q0 -12 -2 -22l-2 -9q-3 -13 -21 -99
l-3 -12l1 -16q6 -2 13 -2q2 0 3 -1h26q2 0 11.5 0.5t13.5 0.5z" />
    <glyph glyph-name="dollar" unicode="$" horiz-adv-x="462" 
d="M196 -111q0 4 3 18.5t3 19.5q0 1 -0.5 5t-0.5 5q0 4 3 7v28l-1 5q-1 5 -1 7l-5 4h-13q-2 0 -4 -0.5t-4 -0.5l-6 1h-7h-4l-4 4h-5l-3 1q-29 6 -52 35q-2 2 -5 8l-4 6l-5 4q-8 8 -12 22l-2 4q-2 2 -5 10l-3 7q-6 8 -6 11l-1 2q-2 2 -2 3l12 18l10 10l6 12l8 10t6.5 7.5t4 5
t2.5 3.5l12 12l7 -4l1 -1l2 -2q0 -4 -3 -6l-6 -8l-2 -3q-2 -3 -2 -4l-6 -8l-1 -2q-1 -2 -2.5 -4.5t-1.5 -3.5l-3 -5q-3 -6 -5.5 -10.5t-1.5 -4.5q0 -1 1 -3t1 -3l1 -9q4 -7 4 -12l9 -12q4 -4 11 -16l2 -4q1 -2 3 -8l3 -3l3 -3l12 -14q1 -1 13 -7l16 -8l3 -1q3 0 9 -1.5
t12 -2.5h6h2q1 1 3 1q4 0 4 13l1 75q4 46 5 94q1 21 4 83q5 95 5 104v7q-1 3 -12 12t-16 10q-3 1 -13 8t-12 8l-5 1l-4 4q-3 4 -6 4l-13 17q-24 29 -24 45l-13 30l-4 26q-1 0 -1 3q0 25 3 39q1 16 26 48q10 15 36 38l4 2q36 22 44 23q3 0 6 1l5 2h7q2 1 15 10v62q0 4 4 21
q1 6 9 6q4 -17 4 -31v-7q-1 -1 -1 -6l1 -3v-2v-4.5t0.5 -7.5t0.5 -9l-2 -9l1 -3v-3v-8q2 -2 6 -2h26l26 -7l10 -5q9 -6 11 -6q2 -2 7.5 -4t7.5 -4q4 0 6 -6l5 -3l19 -26q5 -5 11 -17q2 -2 5 -10l3 -7q6 -8 6 -11l1 -2q2 -2 2 -3l-12 -18l-10 -10l-6 -12l-8 -10t-6.5 -7.5
t-4 -5t-2.5 -3.5l-12 -12l-7 4l-1 1l-2 2q0 4 3 6l6 8l2 3q2 3 2 4l6 8l1 2q1 2 2.5 4.5t1.5 3.5l3 5q3 6 5.5 10.5t1.5 4.5q0 1 -1 3t-1 3l-1 9q-4 7 -4 12q-7 7 -9 12q-3 4 -11 16l-2 4q-1 2 -3 8l-3 3l-3 3l-12 14q-1 1 -13 7l-16 8h-36l-3 -17l1 -2q1 -2 1 -4
q0 -5 -1 -6v-16q0 -29 -1 -38q0 -4 -1.5 -10l-2 -8t1.5 -5v-7q0 -2 -1 -8l-2 -5v-4l1 -2q0 -2 -2 -8.5t-2 -9.5l2 -5q2 -5 2 -7q0 -21 -1 -26l-2 -6v-3q1 -4 1 -6q0 -1 -0.5 -4.5t-1 -10.5t-0.5 -14v-53l20 -16q7 -4 9 -4q16 -12 30 -27q20 -21 32 -46q1 -3 7.5 -13.5
t8.5 -14.5q12 -42 14 -45l2 -33q1 -5 1 -11v-33q0 -3 -2 -5q0 -33 -4 -50q-1 -1 -1.5 -3t-1 -3.5t-1 -3.5t-0.5 -3l-3 -4q-6 -6 -6 -16l-8 -16l-2 -3q-2 -3 -7 -10l-10 -14q-16 -21 -37 -25l-14 -8l-4 -1q-2 0 -5 -0.5t-5 -1t-4 -0.5l-2 -1l-5 -3h-8l-3 -2h-12q-4 0 -4 -3
v-6q0 -2 1 -7.5t1 -6.5q0 -5 -1.5 -18.5t-1.5 -17.5q0 -2 1 -5v-2q0 -2 -2.5 -8t-2.5 -7v-33q-4 -4 -5 -4q-5 0 -11.5 6t-6.5 11zM226 30v-5q0 -9 3 -10h6q1 0 6.5 -0.5t7.5 -0.5q7 0 13 3l22 19l5 9q0 1 7 8q1 3 3 13.5t5 17.5v12q0 2 3.5 23t3.5 29q0 45 -4 57l-1 3l-6 32
q0 9 -4 21l-2 6l-7 23l-2 8q-2 9 -4 11q-1 2 -4 8.5t-5 10.5q-1 1 -7 14t-14 13l-4 9q0 -4 -2 -16t-2 -15q0 -2 0.5 -7t0.5 -7q0 -3 -2 -11q-2 -14 -2 -26l-3 -19v-58q0 -1 -1 -11t-1 -11l-2 -6l1 -4v-5q0 -2 -1 -9.5t-1 -9.5q0 -1 0.5 -8t0.5 -9q0 -4 -1.5 -18t-1.5 -19
q3 -13 -2 -24l1 -30l-1 -5q-2 -4 -2 -6zM164 538q8 -65 39 -101l1 -2q1 -2 2.5 -4.5t3.5 -3.5q5 -5 11 -5l1 4q2 12 4 14v100l11 107q3 12 3 25v17l-4 -3q-3 -3 -5 -3t-6 -2l-12 -10q-2 -2 -9 -5l-7 -2q-3 -1 -13 -16q-1 -1 -4 -7l-2 -6q-3 -3 -8 -18l-3 -20v-11
q0 -6 -3 -10q-1 -7 -1 -33q0 -4 1 -5z" />
    <glyph glyph-name="percent" unicode="%" horiz-adv-x="507" 
d="M256 83v14q0 45 9 64q1 2 6.5 14t7.5 16q1 4 14 18l2 4q20 29 82 50l1 1q1 0 3 0.5t4 0.5l7 2l1 1h2q15 0 20 -15q6 -1 11 -4.5t6.5 -5t6 -9t5.5 -8.5q4 -9 7 -22.5t4 -15.5q0 -2 0.5 -14t0.5 -16v-2q-1 -3 -1 -5l2 -5l-1 -3v-49q-1 -1 -1 -3l-2 -3l-1 -5l-1 -5l-1 -2
q-2 -5 -4 -7l-3 -3l-1 -3q1 -3 0.5 -4t-4 -3.5t-4.5 -4.5t-5 -11t-6 -12l-7 -7q-9 -16 -10 -16l-8 -4q-7 -4 -10 -8q-2 0 -12 -2q-2 0 -10 -1l-7 -2h-7q-8 0 -16 4h-4l-4 1q-4 1 -10 7l-4 1l-3 3q-3 3 -4 3l-6 1q-13 7 -36 50q-8 24 -9 25zM50 514v19q0 27 8 59q2 4 4 7t5 6
t5 6q2 2 6.5 13t6.5 14l5 6q3 3 18.5 20.5t19.5 21.5q17 17 49 28q9 3 12 3q1 0 4 -0.5t9 -1t11 -0.5l8 -7q1 -1 10.5 -6.5t12.5 -9.5q9 -10 9 -54v-13l1 -7q0 -4 -0.5 -18t-0.5 -19l-1 -2v-3l1 -4q0 -8 -6 -35q-1 -7 -11 -26q0 -2 -4 -3l-4 -2l-6 -18q-3 -10 -16.5 -25.5
t-21.5 -15.5l-2 -3q-3 -3 -5 -3h-4q-2 0 -6 -2h-6q-63 0 -94 43q-14 23 -17 32zM74 -14v1q-1 1 -1 2l8 10q2 2 7.5 12.5t8.5 13.5q1 1 7 18.5t8 24.5l1 2q1 3 1 5l2 6q0 2 1 4l1 3l1 3q2 2 3.5 6t3.5 7l1 4l5 7q1 5 4.5 13.5t3.5 10.5l8 24t6 17t2 6l4 5q1 1 7 18t10 22
q2 7 8.5 23t6.5 18q10 34 15 39q5 6 12 34q8 33 20 55q3 6 4 15q6 17 12 25q7 31 23 59l19 55q0 2 1 3l1 2l4 5v5q2 7 7 13l9 26q1 3 5 10.5t4 9.5l6 18q2 6 6.5 14t10.5 22q12 30 38 46l3 2q2 1 4 1q3 0 3 -6q0 -3 -1.5 -8.5t-4 -11t-2.5 -6.5q-14 -55 -15 -56q0 -2 -4 -6
t-4 -6l-7 -15q-3 -4 -3 -7q0 -2 -4 -9.5t-5 -10.5q-5 -13 -7 -25q-2 -2 -9 -13q-3 -5 -4 -20l-2 -3v-6q-4 -28 -28 -69q-9 -9 -9 -13q0 -13 -5 -18l-7 -12q0 -5 -8 -24l-1 -6q-1 -4 -7 -13t-6 -13q-2 -7 -10 -26t-9 -22q-2 -4 -6.5 -17t-6.5 -17q0 -3 -4 -7q-5 -14 -6 -16
q-11 -19 -32 -78l-13 -30q0 -1 -2 -3.5t-2 -3.5l-2 -3l-3 -5l-4 -10q-1 -2 -1 -5q0 -1 -1.5 -5.5l-2.5 -7.5q-7 -16 -15 -37q-9 -24 -12 -30q-1 -3 -5 -12t-4 -11q-6 -16 -10 -20h-5l-4 -1q-5 -4 -22 -1zM316 75v-10q5 -5 5 -8v-8q1 -9 17 -25q22 -13 34 -13q21 0 31 19
q5 14 12 23q17 30 19 35t3 19.5t1 15.5l2 3q1 2 1 5q0 5 -2 19t-2 17v20q-2 24 -9 37q0 1 -2.5 3t-5.5 3l-3 2q-21 5 -37 2q-2 -1 -8 -6t-7 -5l-23 -10q-2 -1 -15 -21l-5 -5l-2 -3v-6l-1 -5q0 -2 -2.5 -6.5t-2.5 -6.5q-2 -22 -2 -28q0 -7 2 -29t2 -28zM104 554v-14
q13 -13 16 -32v-4q0 -3 2 -6t4.5 -7.5t4.5 -8.5q2 -2 5.5 -6.5t6 -7t6.5 -5t9 -2.5q21 0 31 12q8 12 13 17q1 7 16 25q13 16 13 27l-1 3q-1 3 -1 4l2 9q2 8 2 10q3 4 3 7t-2.5 12t-2.5 12t1 9.5t1 8.5q0 8 -4 23q0 48 -30 48h-6l-5 -3q-2 0 -6.5 -0.5t-8.5 -1.5t-6 -2
q-5 -1 -32 -28l-1 -3l-5 -5v-6q0 -3 -4 -7q0 -1 -7 -8t-8 -11q-4 -15 -4 -19q0 -21 -5 -31q0 -5 3 -9z" />
    <glyph glyph-name="ampersand" unicode="&#x26;" horiz-adv-x="494" 
d="M419 709l-3 -12l3 -1q2 -2 2 -7q0 -1 0.5 -5t0.5 -6v-8q0 -6 1 -9l1 -16q-1 -1 -1 -10l-3 -10q0 -5 1 -6v-10q0 -11 -3 -13q0 -1 0.5 -10t0.5 -13v-19q-2 -4 -2 -7l1 3q1 -3 1 -14l-1 -4v-6l-2 -4q1 -1 1 -6v-4l-1 -2q0 -3 -1 -5l2 -4v-7q2 -16 2 -17v-19q0 -1 0.5 -7
t0.5 -9t-8 -11h-10q-6 2 -7 9l-4 8l-2 7q-4 17 -7 20l-5 6q-6 5 -9 12q-2 9 -18 21l-3 2q-5 3 -10 5t-15 8h-7q-5 0 -13 2l-2 1h-6q-9 -1 -28 -6l-7 -2q-7 -1 -8 -1t-5 -3t-7 -3q-2 -2 -11 -9l-9 -6q-8 -8 -26 -42l-2 -3q0 -3 -2 -5l-1 -6q0 -2 -1 -6l-1 -5v-14
q0 -1 2 -14.5t5 -24t7 -13.5q15 -18 31 -29l17 -9q4 -4 15 -4q4 -7 23 -7q1 0 15.5 -1.5t20.5 -1.5q1 0 1 -4q0 -11 -8 -11q-10 0 -14 1q-2 0 -6.5 -0.5t-5.5 -0.5q-6 0 -7 1h-6q-13 0 -28 -3h-1q-1 -1 -2 -1q-10 -1 -26 -4q-3 -2 -7.5 -6.5t-8.5 -6.5q-11 -8 -16 -8
q-2 -2 -3 -4l-2 -2q-12 -9 -17 -21q-15 -23 -21 -50q-9 -39 -9 -44q0 -43 9 -66q1 -3 7 -12t7 -12q20 -27 30 -32q1 -1 8 -4l7 -3h5l4 -1h8q2 0 6 -1l5 -1h14q4 -4 42 -4q2 0 2 2l34 8l32 20l19 34l6 18q0 1 3 7q2 6 2 7q2 2 2 3q0 5 1 7l1 28q0 1 0.5 3t0.5 4l-1 3l2 3
q0 10 4 22v17q0 4 2 6l8 6l6 2q4 0 4 -7l4 -1q2 -2 2 -7q0 -2 1 -6v-5v-9q0 -5 1 -9l1 -15l-2 -14l-2 -6v-3l1 -3v-10l-3 -13q0 -2 0.5 -10.5t0.5 -12.5v-19q-2 -3 -1 -9v-4q0 -2 -1 -6t-1 -5q2 -10 2 -15l-1 -4l1 -2q1 -1 1 -3t-1 -3v-2l1 -6v-9l-1 -4v-6l-2 -4q1 -1 1 -6
v-4q0 -1 -1 -2q0 -3 -1 -5q0 -2 1 -3q3 -22 3 -25v-44q-7 -18 -9 -18h-3l-2 1l-5 2q-1 1 -5 1q-7 0 -7 6v2q1 1 1.5 3t0.5 4l-2 28v16q0 2 0.5 4t1.5 3v2l-4 96l-8 -10l-3 -2l-30 -17q-14 -8 -15 -8q-12 -9 -32 -9h-7l-5 -1q-2 0 -8 1l-7 2q-3 -3 -6 -3h-15q-2 3 -8 3h-7
q-1 0 -3 0.5l-2 0.5h-6l-6 1q-6 2 -7 2q-2 0 -6 2l-4 3l-13 -1l-3 1q-2 1 -5 1l-2 2l-2 1q-8 1 -14 4q-5 3 -23 17l-15 12q-3 1 -8 9q-4 0 -7 5q-3 4 -5 7t-3 5t-2 3t-1 1.5v1.5l-5 5q-1 1 -3 6.5t-4 7.5l-8 15l-5 15l-3 29q0 4 3 16l4 18l16 42q1 0 4 5.5t8.5 13t11.5 12.5
q4 3 11 10.5t11 10.5q10 6 34 18q4 4 25 4q3 0 6 1l4 1q2 0 9 1l7 1q-5 5 -8 5h-5q-1 0 -3 1t-3 1l-5 2l-15 6q-1 0 -17 13l-13 13q-1 1 -4.5 6.5t-4.5 8.5l-5 5q-1 3 -3 7l-8 17l-1 6q-1 2 -2 9t-1 9v17v9q0 2 2 7l1 5q0 15 8 26l9 16q18 18 23 18l11 9l2 1l2 1l8 3l8 3
l5 1q6 3 15 4l29 8h10l2 1q2 1 4 1l3 -1h6h6q4 1 9 1h15q2 0 2 -2l1 -1h1q30 1 64 -28l17 -20l-3 36l3 19q0 2 -0.5 11t-0.5 13l1 60q0 2 1 3v4l-1 2l2 3q0 10 4 22v17q0 4 2 6q-12 2 1 15q1 0 2 1l2 1q0 1 5 1q9 0 12 -5zM424 640l-3 -20l1 2q0 3 0.5 7t0.5 8q0 2 1 3z
M416 530l1 3v2q-1 -1 -1 -5z" />
    <glyph glyph-name="quotesingle" unicode="'" horiz-adv-x="176" 
d="M78 601q0 3 -2 9l-3 6l-2 20q0 2 1 8v5q0 2 -1 12t-1 14q0 24 20 24q7 0 11 -11t4 -18l1 -24l-1 -18q0 -11 -1 -12l-2 -8q-3 0 -3 -8l-4 -10q-5 -8 -9 -8q-3 0 -5.5 7.5t-2.5 11.5z" />
    <glyph glyph-name="parenleft" unicode="(" horiz-adv-x="275" 
d="M168 23v2l-1 2l-13 16l-12 19l-4 6q-4 6 -8.5 13t-5.5 10q0 3 -12 22l-8 19q-1 3 -7 13t-8 15q0 3 -5 15t-7 14q0 1 -1.5 4t-2.5 5.5t-1 4.5l-11 41q-2 14 -2 23q-4 42 -7 45v18v2q-1 1 -1 3v31q-1 17 -1 30v48q1 2 1 8v14q0 16 3 31q2 12 9 37q5 16 12 33l12 28q0 1 4 8
l4 7l8 17q8 8 10 16q10 20 12 23q17 31 18 32q33 45 52 55q4 0 5 -4q0 -5 -4 -9l-4 -4q-4 -3 -6 -3q-6 -5 -6 -6l-7 -13l-4 -4q-4 -4 -4 -10l-1 -5q-8 -8 -8 -15q-2 -8 -6 -14q-7 -10 -9 -16l-5 -22l-2 -3l-1 -2q-1 -2 -2 -4.5t-1 -4.5l-1 -3v-9l-1 -3l-2 -4v-5l-1 -8l-1 -8
q-2 -7 -5 -24q-6 -26 -6 -28q-2 -26 -2 -60v-40q0 -39 1 -51q1 -3 1 -12q0 -2 -0.5 -11.5t-0.5 -13.5v-7q0 -2 2 -9.5t2 -8.5v-9q1 -9 1 -11q3 -4 3 -17v-8q1 -7 5 -25.5t5 -23.5q3 -10 5 -16q1 -3 4.5 -17t5.5 -19q4 -13 17 -40q7 -14 8 -18q0 -11 4 -11q0 -1 4 -5.5
t4 -6.5v-3l1 -3l7 -13q16 -26 34 -44l30 -38l6 -8q5 -8 5 -10l-2 -1q-5 -2 -6 -4q-1 -10 -6 -10q-3 0 -6 2.5t-7 7.5l-3 4l-12 12l-14 11q-2 0 -3 1q-6 3 -6 8q-8 6 -18 19q-1 4 -14 10z" />
    <glyph glyph-name="parenright" unicode=")" horiz-adv-x="247" 
d="M10 -49q0 6 20 36q3 3 3 7q6 15 12 27q2 5 7 19.5t8 19.5q4 4 6 11q13 34 16 47l2 8q2 8 2 9q5 15 14 36l3 11q8 24 8 31q2 2 4.5 9t3.5 9q0 13 3 22q0 1 1.5 5.5t2.5 8t1 4.5q6 19 6 45v7q0 2 1 15v13v13v31v6l-5 44v10q-2 20 -6 38q-3 27 -8 39q-2 5 -10 36q0 4 -4 11
q-2 6 -7 24.5t-7 23.5q-1 2 -6.5 14.5t-6.5 16.5q-5 17 -17 44q0 1 -4 9t-5 11l-2 4q-1 3 -2.5 8t-1.5 8q0 10 13 10q4 0 6 -2q41 -38 63 -96q0 -2 3.5 -8t7 -13.5t4.5 -10.5l10 -24l7 -20q1 -3 17 -44q15 -48 16 -63q2 -13 4 -27.5t3 -22t1 -10.5l-1 -5v-15q0 -26 -5 -71
l-1 -2v-3q-1 -2 -3 -15.5t-5 -16.5q-1 -2 -3.5 -15.5t-4.5 -15.5l-10 -26q-7 -10 -10 -26q-1 -2 -4.5 -10t-3.5 -9q-2 -4 -8 -17.5t-8 -20.5l-29 -50q-12 -33 -32 -66q-2 -4 -6.5 -16t-6.5 -15q0 -5 -8 -13l-6 -7l-1 -3q-1 -2 -1 -4l-10 -17q0 -2 -2 -4.5t-2 -3.5
q0 -3 -4 -3q-12 0 -12 10z" />
    <glyph glyph-name="asterisk" unicode="*" horiz-adv-x="319" 
d="M150 630v17q-1 4 -2 16.5t-3 14.5v19q0 4 -2 6l-3 1q-3 0 -3 -3q-9 0 -13 -2l-19 -2q-18 -3 -41 -3h-1q-1 -1 -2 -1q-1 -1 -6 -1t-5 7q8 12 38 13h4h2q1 1 2 1l17 3h4h3q3 1 5 1q3 0 5 2l-5 5q-4 5 -4 7l-6 9q-7 7 -11 15q0 1 -2 3l-5 11q-2 2 -2 4q-8 6 -8 12q0 3 4 7.5
t8 4.5q6 0 7 -1l21 -21q12 -17 17 -22l11 -12q1 -1 2.5 -4t3.5 -5t6 -2l5 5q4 5 6 7l3 3l8 10l11 11q10 12 12 16q14 20 21 20q9 0 9 -12q0 -6 -7 -7l-1 -1q-2 0 -2 -1l-4 -6l-8 -8q-8 -9 -17 -22l-3 -1l-11 -11l-4 -5h14q18 0 33 -3l21 -3q1 -1 6 -1q10 0 10 -8l-9 -8
l-3 -4h-23q-1 1 -5 1l-5 1h-7q-1 0 -3 0.5t-3 0.5h-12q-1 0 -3 0.5t-3 0.5h-7l-2 1h-3q-1 1 -5 1q-6 0 -6 -2q0 -3 2 -11q1 -1 1 -9l3 -19v-12q0 -2 0.5 -6t0.5 -6q0 -11 1 -14v-3q1 -3 1 -5l-6 -5l-2 -5q-4 0 -6 -2q-1 -1 -12 -1q-3 7 -3 23z" />
    <glyph glyph-name="plus" unicode="+" horiz-adv-x="489" 
d="M213 239v8q0 5 -1 25t-1 25q-1 1 -4 1t-4 -3h-45h-11q-2 -1 -6.5 0t-7.5 1.5t-4 -1.5q-2 0 -2 2h-4q-2 0 -8 -2t-8 -2q-3 0 -9.5 1t-11.5 2l-5 1h-10q-10 0 -10 4l-1 1l-4 2t-2 3q0 1 -2 2t-2 3q0 4 31 10q15 0 19 4h14q3 0 16.5 -1t17.5 -1l9 1q9 1 10 1q2 0 18.5 1
t18.5 1q6 0 6 6q0 9 -0.5 47.5t-0.5 46.5v22q0 2 0.5 15t0.5 14l2 3q1 2 3 4.5t4 3.5h3q1 1 3 1q4 0 8 -4q1 -1 7 -23q0 -2 4 -13t5 -15v-11l3 -14q2 -14 2 -18q3 -21 3 -38v-6q0 -19 6 -23q10 -1 45 -1h25q1 1 7 1h12q2 0 28 3q25 3 38 3q5 0 13 -6.5t8 -10.5q0 -6 -5 -6
q-15 4 -20 -3h-4q-9 -1 -10 -2h-16q-4 -3 -17 -3q-6 0 -8 2h-12q-8 -8 -9 -8h-15q-2 -2 -9 -2l-4 1h-4l-32 1l-4 1q-3 1 -5 1q-6 -6 -6 -23q0 -2 0.5 -6t0.5 -5q0 -41 -3 -45q0 -2 -0.5 -16t-0.5 -16v-14q-1 -3 -4.5 -4.5t-8 -1.5t-6.5 -1l-5 -4q-4 -4 -6 -4q-11 0 -11 39
q0 41 -2 43z" />
    <glyph glyph-name="comma" unicode="," horiz-adv-x="167" 
d="M56 -77q0 8 13 12l14 16q1 5 8 11q9 12 9 33v4q0 3 -5 3q-3 0 -11 -1.5t-10 -1.5q-9 0 -16.5 5t-7.5 13q0 11 5 23q13 24 31 24q8 0 16 -9q15 -11 15 -45q0 -14 -3 -27l-4 -9v-6q-3 -10 -18 -24l-2 -2l-2 -4q-2 -1 -5.5 -6t-5.5 -6q-9 -9 -13 -9q-8 0 -8 6z" />
    <glyph glyph-name="hyphen" unicode="-" horiz-adv-x="445" 
d="M248 217q-4 3 -12 0l-5 -2q-13 0 -32 1q-20 1 -35 1q-2 0 -7 -1t-6 -1q-2 0 -10 2t-10 2q-3 0 -12 -0.5t-12 -0.5h-11l-4 2q-2 0 -3 -1h-12q-1 3 -8 3h-4q-6 3 -11 3q0 1 -2 3l-2 2l1 5l4 1l7 7h15q7 0 63 2q8 3 15 3q2 0 11 0.5t15 0.5q4 0 17 -0.5t16 -0.5q4 0 19 0.5
t20 0.5q3 0 13 -0.5t13 -0.5q4 0 18 0.5t19 0.5h10q2 0 8.5 -0.5t12.5 -0.5h6q3 0 7 -1l5 -1q30 -4 30 -17q0 -4 -5 -4q-2 0 -5 1t-5 1q-4 0 -5 -1h-6l-3 -3q-10 -9 -19 -9q-14 0 -19 5h-15l-1 1h-2l-5 -5h-21h-18q-2 0 -6 -0.5t-6 -0.5q-3 0 -6 3z" />
    <glyph glyph-name="period" unicode="." horiz-adv-x="208" 
d="M70 30q0 7 9.5 17.5t18.5 14.5q3 1 16 1l3 -1h4l2 -2l2 -1q13 -9 13 -29q0 -11 -11 -16l-5 -1l-4 -6q-8 -5 -13 -5l-7 -2q-11 0 -19.5 10t-8.5 20z" />
    <glyph glyph-name="slash" unicode="/" horiz-adv-x="253" 
d="M-25 -34h-5q-3 -1 -6 -1q-4 1 -9 5t-5 8q0 7 5 20t6 16l1 5l2 5l3 4q3 4 3 6l8 16q2 6 4 10l4 4l1 6l1 2l1 2q14 24 15 26q8 24 25 59q0 1 4.5 8t8.5 14.5t4 11.5l1 4q14 31 19 38q3 10 7 15l2 3q10 30 17 39q0 2 2 7.5t3 6.5l10 18q6 13 21 55q1 4 8 14.5t8 14.5l7 19
q12 20 17 36l2 3q3 4 4 6q18 45 29 65l1 5q1 6 3 8l3 5q2 5 4.5 10t2.5 6q0 5 6.5 16t6.5 13l1 4l9 17v7l12 22l3 6q0 2 -1 4v3q0 6 4 13l2 4l1 3v7q2 4 3.5 8t1.5 5q3 8 9.5 17.5t11.5 9.5q16 0 16 -20q0 -4 -1 -8t-3 -7.5t-2 -4.5q-5 -25 -6 -26q-6 -28 -7 -33
q-2 -7 -8 -28.5t-7 -24.5l-1 -4q-1 -4 -1 -5t-2 -4t-3 -6l-2 -3q-18 -51 -26 -68q-4 -18 -7 -22q-2 -4 -8.5 -18t-8.5 -18q-4 -15 -6 -17l-3 -5q-4 -8 -19 -48l-27 -56q-2 -6 -9 -23t-8 -20q0 -2 -1 -3l-1 -2q-3 -4 -10 -21l-2 -7l-17 -35q-1 -2 -4 -10t-5 -10
q-1 -2 -5.5 -9t-4.5 -8l-1 -5q0 -2 -7 -9q-5 -8 -16 -33.5t-15 -31.5l-2 -3q-5 -15 -9 -21q-2 -2 -8 -12.5t-8 -12.5q-9 -13 -9 -14l-2 -3q-15 -16 -24 -29q-2 -3 -4.5 -6t-4 -5t-2.5 -3z" />
    <glyph glyph-name="zero" unicode="0" horiz-adv-x="642" 
d="M165 47q-12 11 -15 15l-7 7l-3 3q-8 10 -9 10q-1 2 -3 5q-2 4 -3 5q-1 3 -13 15q-1 1 -20 33q-24 38 -30 71q-5 39 -10 43l-2 114q0 14 6 36l1 8q7 21 7 32q11 17 11 27q1 4 5 15t5 14q36 84 95 143q14 14 35 31q2 2 9 5t8 4q52 30 106 30q11 0 59 -12q3 -3 10 -3h5l5 -2
q3 -1 7 -1q34 -21 35 -22l28 -19l5 -5q5 0 9 -4q5 -7 7 -10l3 -4q23 -26 29 -44q5 -11 33 -64q4 -9 9 -47q1 -4 3.5 -17.5t2.5 -14.5q2 -10 2 -12q0 -1 -0.5 -7t-0.5 -8v-5q3 -14 3 -26q0 -6 -1.5 -22t-1.5 -20q0 -2 1 -4l1 -3q0 -2 -1 -7l-1 -5q0 -3 2 -5l-2 -10
q-1 -5 -1 -10v-30l-1 -3v-18q0 -2 -1 -5q0 -4 -1 -5q0 -3 -4 -19q-5 -22 -8 -27l-4 -4q-2 -4 -4 -10.5t-3.5 -13t-1.5 -7.5q-7 -15 -33 -59l-3 -5l-13 -13l-9 -9q-15 -18 -26 -28q-1 -1 -7 -3l-4 -3l-3 -4l-6 -6l-4 -3q-5 0 -13.5 -5t-10.5 -6l-4 -1l-4 -1q-20 -14 -28 -14
h-7q-2 -2 -15.5 -5.5t-15.5 -4.5l-4 -3q-3 -3 -5 -4q-3 -1 -13 -1h-13q-23 0 -46 6l-5 3q-5 3 -7 3h-12q-3 0 -29 15q-26 14 -31 19q-3 3 -3 4q-3 3 -11 10t-10 7zM303 2q2 0 7.5 -2t9.5 -2q10 -2 20 -2q36 0 64 27q9 6 10 7l19 19l18 21q15 15 17 18t6.5 13t6.5 12
q0 1 3.5 6.5t4.5 7.5q4 12 7 15q17 49 19 69q0 9 3 15v40l2 14v21v22q1 3 1 6l2 4q1 5 1 23v24v2l1 2q0 4 1 9v7q0 2 -0.5 17.5t-0.5 16.5q-2 14 -2 27q0 3 -4.5 18t-5.5 20q0 1 -0.5 2t-0.5 2q-4 30 -10 44l-5 10q0 18 -11 42q-8 3 -8 17q0 4 -6 15l-7 10l-3 5q-3 4 -3 6
t-4 2q-5 0 -13.5 8t-9.5 8q-2 0 -4 2l-3 2q-3 0 -10 2t-8 2q-3 0 -11 2.5t-11 2.5q-6 6 -14 6h-13l-4 2q-3 1 -19 1q-4 0 -14 -0.5t-14 -0.5q-3 0 -11 -4.5t-11 -4.5q-2 0 -7.5 -2t-7.5 -2l-15 -10l-14 -7l-7 -7q-2 -2 -5 -2.5t-5 -4.5l-10 -11q-1 -4 -8 -14l-6 -11
q-11 -27 -11 -30q-1 -4 -4 -15.5t-5 -14.5q0 -2 -6.5 -16t-7.5 -19v-5q0 -2 -3.5 -10t-3.5 -9q-1 -17 -4 -25l-1 -3q-2 -2 -2 -3q-4 -9 -4 -23q-1 -6 -1 -26v-26l-1 -12l-2 -24t-1 -11q0 -18 -3 -26v-74q6 -13 7 -46q1 -8 20 -56q1 -9 4 -15q2 -7 10 -21q1 -2 4 -10t5 -10
q24 -41 63 -60l19 -10q17 -10 26 -10q3 0 5 1z" />
    <glyph glyph-name="one" unicode="1" horiz-adv-x="470" 
d="M248 1q-4 0 -15 -2q-13 -1 -15 1h-15h-4l-3 1q-5 1 -20 1l-19 1q-2 0 -6 1.5t-5 1.5q-6 0 -36 -3q-6 0 -13 -1.5t-9 -1.5l-4 1q-2 2 -2 6q0 15 20 15q4 0 15.5 -0.5t14.5 -0.5h16q2 2 5 2q2 0 5 -1l3 -1l10 -1h8l6 -1l9 1h11q5 3 5 23q-2 18 -2 20q0 4 0.5 16.5t0.5 18.5
q-2 34 -2 87v28l-1 14q0 2 0.5 10.5t0.5 11.5l-1 2v3v33l2 3l-1 13q-1 5 -1 17q0 4 1 15t1 16v38q0 1 -0.5 8t-0.5 9q0 17 4 25l-2 20l1 3l-1 23q2 2 2 6q0 2 -1 3v2q0 48 -1 52l4 38l1 3l2 46q3 6 3 14l-3 18q0 -10 -2 -12q-2 -3 -11 -14t-10 -15q-10 -13 -14 -20.5t-4 -10
t-1 -3.5q-6 -3 -8 -3q-1 0 -2.5 -6t-3.5 -8q-2 -4 -7 -11.5t-10.5 -16t-7.5 -11.5l-1 -1q0 -1 -1 -1l-1 -2l-14 -16l-2 -3l-48 -50q-9 -7 -35 -31q-6 -5 -11.5 -7t-8 -1t-3.5 4q-2 2 7 10.5t21 18t13 10.5q11 13 24 24q2 1 7 9q8 8 19 21l17 19q11 12 24 37l9 12
q14 21 17 28q23 32 31 46q14 19 20 31q15 25 19 28q13 8 19 8q2 0 6.5 -1t5.5 -1l17 -5l-1 -12l-2 -4q0 -2 1 -3v-5q1 -5 1 -7q0 -5 3 -23q0 -37 -9 -52l3 -24l2 -75l-1 -3l1 -5q0 -5 -1 -21t-1 -20l1 -19q0 -4 -2 -17t-2 -17l1 -14q0 -4 -3 -15t-3 -15q0 -12 -3 -17l2 -23
l-2 -4q0 -5 1 -13v-14q1 -1 1 -17v-4q0 -5 1 -6v-6q0 -9 1 -51.5t2 -51.5l1 -13q-2 -8 -2 -12l1 -2q1 -1 1 -4q0 -6 -2 -12v-35q0 -3 -3 -8l1 -8q2 0 2 -6q0 -2 -2 -2l2 -32q1 0 4 -3h30q1 0 6 -1t7 -1h8q16 0 20 1q4 4 20 4h25q4 -1 4 -9l-1 -3q-1 -9 -3 -9q-1 -1 -3 -1
t-7 0.5t-6 0.5q-2 0 -12 -1t-12 -1t-8 2t-7 2t-9 -2l-5 -3l-53 1q-4 0 -13.5 0.5t-12.5 0.5z" />
    <glyph glyph-name="two" unicode="2" horiz-adv-x="492" 
d="M319 -4h-8q-12 0 -24 3q-1 1 -9 1h-9h-11l-4 -1h-8q-2 0 -3 1h-2l-5 -1q-21 3 -22 3h-62q-2 1 -5 1q-2 0 -8.5 -0.5t-7.5 -0.5l-5 1q-5 1 -7 1q-9 0 -13 -2h-4l-4 -1h-28l-3 -1q-1 0 -5 0.5t-5 0.5l-4 -2l-3 1q-1 0 -6.5 1t-8.5 1q-2 0 -9 -1.5t-9 -1.5q-11 0 -2 25
q4 22 20 50l32 57l8 7l41 58q0 2 4 6q8 10 22 24.5t20 21.5q31 34 72 70l10 8l8 8l10 13l4 4q4 14 19 28q12 12 12 18q22 31 29 55t7 65q0 7 1 17v11q0 10 -4 27q-6 29 -15 41l-16 23l-4 4l-24 27q-1 0 -12 5.5t-14 5.5h-20q-2 -2 -8 -2q-3 0 -4 -1l-12 -2q-12 -2 -14 -4
l-4 -3q-13 -6 -18 -9l-3 -2q-3 -2 -8.5 -6t-11.5 -9q-8 -8 -10 -8l-7 -7t-11.5 -11t-7.5 -8l-20 -23l-4 -6q2 -4 10.5 -12t8.5 -9q1 -2 11 -14t10 -13q10 -26 10 -29v-2q1 -1 1 -2q0 -3 -2 -3h-7q-2 0 -4 6l-3 6q-1 1 -35 29l-10 6q-9 5 -10 5l-4 4q-4 4 -5 4q-16 6 -16 14
q0 16 2 18q12 15 25 21q10 6 22 20q5 7 10 12t9.5 7.5t11 6.5t12.5 8l3 2l26 17l4 1l4 2l9 5l3 3l6 2q5 0 5 4l14 7q5 3 11 3l25 1q17 4 22 4q22 0 27 -1q0 -2 16 -6q15 -6 19 -6q4 -4 19 -16t20 -17q21 -27 33 -52l12 -30q0 -2 4 -13v-31q0 -12 -5 -34q-10 -33 -12 -37
q-2 -1 -6.5 -7.5t-5.5 -7.5q-3 -6 -7 -12.5t-6 -9.5l-2 -3l-13 -14q-2 -7 -16 -21q-11 -11 -14 -20l-29 -29q-2 -3 -5 -6q-1 -2 -5.5 -6t-6.5 -6l-22 -20q-2 -4 -3.5 -6t-3.5 -3t-9.5 -7t-18.5 -15l-3 -4q-2 -3 -10 -10.5t-10 -9.5q-14 -15 -16 -18l-6 -7q-7 -8 -7 -10
t-7 -10l-6 -8l-5 -5l-16 -21q-1 -2 -1 -3q-1 -1 -1 -2q0 -2 -1 -3q-10 -22 -18 -33q-5 -13 -14 -39t-11 -29q-4 -7 -4 -19l1 -8v-10q9 0 47.5 8t48.5 8q22 0 62 -6q2 -1 14.5 -4t16.5 -5l21 -4q22 -4 28 -7q13 0 26 -5h27q2 1 10 1h6h5q3 -1 5 -1q4 0 44 2q21 7 24 9
q2 0 3 1l2 1q6 -3 6 -12q0 -8 -7 -8l-4 2q-4 1 -6 1q-4 0 -14 -3.5t-11 -3.5h-9l-32 -5q-1 0 -10 -0.5t-10 -0.5l-42 -1q-13 0 -18 3z" />
    <glyph glyph-name="three" unicode="3" horiz-adv-x="397" 
d="M170 -14h-37q0 4 -23 4l-3 2q-8 2 -37 13q-33 40 -43 59l-6 18q-9 12 -11 24q0 16 9 16q7 0 8 -9q3 -3 3 -10q2 -17 10 -25l2 -6l1 -6q3 -6 11 -14q2 -2 12.5 -15.5t14.5 -17.5q2 0 25 -14q3 -1 6 -1h13q4 0 18.5 1t18.5 1q1 0 9 -2q19 0 33 11l13 8q36 34 50 60
q2 4 4.5 12.5t4.5 16.5l3 8l3 11l-1 14q0 3 -0.5 15t-0.5 15v19q0 5 1 6l-1 12q-3 51 -27 99q-5 16 -14 25q-11 11 -15 20l-19 18q-1 2 -8 8.5t-10 6.5l-7 2q-6 2 -8 2q-3 0 -9 1.5t-10 1.5q-3 0 -4 -1q-1 0 -8 1.5t-12 1.5l-5 1h-15q-1 -1 -4 -1h-3q-2 1 -4 1q0 4 -1 6
q0 2 5 4q8 4 16 4l9 1h13h4l6 3l6 1l2 6l10 2q10 1 12 3q5 0 18 8l3 3q3 3 5 3l2 1l5 5l6 6q1 1 9.5 8t10.5 9q1 5 11 17l3 4q7 12 20 47l-1 14l-4 26l-2 29q-2 3 -3.5 6l-2.5 5l-1 3l-18 27l-5 1l-4 6l-4 1q-19 19 -21 19q-4 0 -9 1h-9h-12l-4 -2l-3 -1l-3 -4l-5 -1
q-3 -2 -3 -3q-1 -3 -20 -12l-4 -5q-4 -4 -6 -5q-7 -3 -8 -4l-6 -8q-18 -25 -22 -29l-11 -23q0 -4 4 -9t9 -10l6 -6q1 -2 11 -14t10 -13q10 -26 10 -29v-2q1 -1 1 -2q0 -3 -2 -3h-7q-2 0 -4 6l-3 6q-1 1 -35 29l-10 6q-9 5 -10 5l-4 4q-4 4 -5 4q-3 0 -6 3q-7 1 -7 5
q-3 3 -3 6q0 16 2 18q11 12 17 16l2 6q8 9 9 9q4 4 9.5 11.5t6.5 8.5q19 20 49 43q5 4 9.5 7.5t7 5.5t3.5 3q3 2 16 6t17 7q2 0 14.5 2t15.5 2q39 -2 70 -37q31 -36 33 -75v-14q0 -3 1 -6l1 -3v-7q0 -42 -43 -103q-17 -23 -26 -25l-25 -22q-4 0 -4 -4q6 -2 15.5 -7t14.5 -7
l6 -3q53 -26 75 -95q0 -1 3 -9t5.5 -16t2.5 -12l3 -69q0 -19 -4 -36q-13 -47 -41 -89q0 -1 -3 -2t-3 -2q-12 -17 -25 -30q-4 -2 -9 -6.5t-11 -9.5t-7 -6l-4 -1q-5 -2 -7 -4l-10 -9q-4 -4 -20 -9q-1 0 -13 -4t-20 -4z" />
    <glyph glyph-name="four" unicode="4" horiz-adv-x="512" 
d="M170 -1q-6 0 -1 12q1 1 19 10q2 0 17 1.5t17 1.5q8 0 10 3l13 4q2 2 2 4v4q0 4 2 4v14q4 87 6 105l1 10q1 10 1 12q0 1 -0.5 6t-0.5 7q0 7 3 13q0 28 2 46v8q0 5 0.5 9t0.5 6l1 2q-2 0 -7 -1h-4q-1 1 -7 1q-2 0 -8 -0.5t-7 -0.5q-2 0 -9 -2t-10 -2q-2 0 -10 0.5t-11 0.5
l-4 1q-3 1 -5 1q-3 0 -9 -2h-1h-13q-1 0 -5 -0.5t-6 -0.5q-5 0 -20 -4t-20 -4h-5l-3 -1q-5 0 -6 3q0 -1 -3.5 -3t-4.5 -2h-4q-1 0 -5.5 0.5t-6.5 0.5t-3 -1l-3 -2h-7l-10 -5l-6 -2l-7 -2q0 -3 -5 -3h-8q-10 10 -10 11q0 8 40 52q22 29 56 84q4 8 21.5 31t22.5 32q3 4 8 12.5
t10 18.5t6 13q1 1 8 12t10 14q2 4 10 16t8 13q14 25 15 26l7 9l3 3q2 3 7 13.5t6 12.5t4 5l2 3l18 24l2 3l8 15q3 3 8.5 13t12 17t14.5 7l5 1q0 -2 4 -3t4 -3q0 -10 2 -16q0 -1 1 -5.5t2.5 -9.5t2.5 -7v-47l2 -3l2 -42q0 -2 1 -6l1 -4q0 -3 -4 -14q1 -1 1 -3q0 -3 -1 -12
t-1 -12q0 -30 3 -36v-26q3 -7 3 -23q0 -2 -0.5 -7t-1 -15t-0.5 -19q-2 -6 -2 -30l1 -5v-6q0 -6 -3 -8v-15q0 -1 1 -13t1 -13t3 -4q14 0 18 -3l19 1q30 0 53 5q2 0 8 3t8 3q3 1 8 1q4 0 6 1q21 10 30 10q2 0 5 -3t3 -5q0 -6 -9 -11.5t-16 -5.5q-2 0 -10 -4t-12 -4h-4
q-4 -5 -18 -7l-12 -2h-13q-5 0 -7 -2q-6 0 -14.5 -1.5t-11.5 -1.5q-1 0 -6.5 -1.5t-9.5 -1.5h-18q-1 0 -1.5 -7.5t-1 -15.5t-1.5 -9l-3 -37q-2 -16 -2 -30q-1 -1 -1 -5q2 -6 -1 -31q-3 -12 -1 -37v-74h34q15 0 26 -3h11q5 0 9 -2l10 -6l3 -5q2 -8 4 -8q-6 -6 -18 -6
q-2 0 -8.5 0.5t-9.5 0.5h-59l-3 -3q-7 1 -11 1t-13.5 -0.5t-11.5 -0.5h-8q-2 -2 -8 0l-4 1q-2 0 -6 -1h-3q-3 0 -4 3q-7 1 -22 1h-8l-5 1q-2 0 -8 -2q-2 0 -4 -1h-2q-4 0 -20 -0.5t-20 -0.5zM290 647q-4 0 -6 -9v-4q0 -2 -3 -4t-3 -4l-1 -5l-1 -5q-7 -14 -10 -17l-12 -12
l-2 -5q-1 -5 -3 -7q-4 -4 -4 -5l-2 -6q-3 -9 -20 -26q-5 -16 -6 -17t-8.5 -12.5t-10.5 -14.5l-3 -8q-3 -8 -4 -9q-3 -7 -19 -30q-2 -2 -6.5 -11.5t-6.5 -11.5q-24 -29 -26 -35q-1 -1 -9 -10q-3 -4 -16 -24t-18 -26q-32 -38 -32 -45h6l11 2q11 3 13 3l75 11q25 4 26 5
q3 0 23 1.5t26 2.5l6 1h16q7 0 9 5q1 5 2 23t3 24l1 3q1 2 1 4q3 14 4 40q3 48 3 50v4q0 2 0.5 7t1 15t0.5 20q1 24 1 43q0 3 -0.5 11t-0.5 10q0 3 3 23q2 20 3 21q1 8 1 27v4q0 1 -2 3z" />
    <glyph glyph-name="five" unicode="5" horiz-adv-x="421" 
d="M10 162v4q3 4 14 4q2 -18 6 -30q1 -6 2.5 -12t1.5 -9l1 -3q4 -1 3.5 -3.5t1.5 -5.5l6 -9l1 -2l1 -5q0 -1 1 -2t1 -3l3 -5l1 -3v-4l2 -2q2 -2 2 -3q2 -4 7.5 -11l11 -14t6.5 -8q1 -2 4 -7t5 -7q2 -1 18 -13q1 -1 12.5 -4t12.5 -5h5q44 0 69 13q3 1 9 6l5 5l18 6l10 10
q14 11 21 32q1 2 4.5 8t3.5 7q0 2 2 9t6.5 21.5t8.5 29.5q5 17 9 72q1 9 1 19v26q0 17 -1 19l-2 27l-2 8q-1 7 -3 9q-2 4 -3.5 14.5t-1.5 11.5l-2 5v2l-1 2q-16 63 -48 86q-11 8 -12 8q-6 2 -15 2q-2 0 -8 -1.5t-9 -1.5q-2 0 -4 -1l-3 -2q-4 -3 -19 -3q-13 0 -17 -4l-1 -2
q-1 -2 -3 -3l-4 -1q-3 -1 -5 -1l-5 -5q-11 -7 -23 -7h-6q-1 2 -9 5t-9 5l-3 3l-2 4q-5 3 -5.5 12t1 22.5t1.5 19.5q0 1 -1 7t-1 9l10 127q1 1 1 4v10l2 4q0 30 14 35l11 5q7 0 19 3h23q2 0 5 1h3q5 0 19 -1t18 -1q7 0 20.5 1t19.5 1q1 0 58 -3q2 0 10 -0.5t12 -0.5q8 0 11 1
h4q5 0 23 -3q6 0 6 -12q0 -11 -8 -11q-2 0 -4 -5l-1 -4l-10 -10q-2 -1 -12 -16l-12 -25v-23l-11 -7q0 1 -5.5 11t-5.5 17v4q2 8 27 58l-3 1h-4h-8q-1 0 -2 1t-3 1l-4 2h-7q-5 1 -8 1l-3 1q-1 1 -3 1t-3 -1h-17q-2 -1 -6 -1q-2 0 -5 1l-4 2q-2 0 -4 -2h-8q-8 -1 -9 -1
q-6 0 -10.5 -0.5t-8.5 -0.5q-6 0 -8 1q-3 1 -15 1h-8q-10 0 -10 -7q0 -2 -2 -8.5t-2 -10.5q0 -5 1 -6l-5 -20v-10l-1 -5v-6v-11v-6l-1 -6v-4q0 -3 -1 -4q-1 -31 -6 -55q-3 -17 -3 -40q0 -8 5 -8q4 0 9 4q1 0 2 0.5t2.5 1l4.5 1.5l5 1q2 4 17.5 9t21.5 5l6 1q5 2 7 2h9l10 -3
q22 0 48 -20l4 -3q39 -30 51 -76q5 -25 6 -26l2 -6q1 -2 1 -5q1 -1 1 -2l5 -25q5 -24 7 -28v-68l-1 -12q-1 -13 -1 -15v-4q0 -7 -3 -9v-15q0 -1 -10 -27l-2 -12q-21 -46 -49 -83q-1 -2 -10.5 -9t-10.5 -7l-16 -16l-1 -1q-1 0 -2 -1q-3 -2 -7.5 -6t-5.5 -4l-6 -1q-1 0 -3 -2
t-4 -3l-6 -3q-4 -5 -17 -10.5t-20 -5.5h-2l-1 1q-3 0 -11.5 -3t-10.5 -3l-3 1q-3 1 -5 1q-11 0 -13 -5h-6q-3 0 -15 6l-14 3l-4 3h-3q-3 1 -5 1l-4 4q-2 2 -10.5 8.5t-11.5 9.5l-2 3q-3 5 -10 12l-1 2q-1 1 -2 3t-1 3q-13 13 -13 16q-2 2 -8 21q-1 3 -7.5 12.5t-7.5 12.5
l-9 34q-6 16 -6 26z" />
    <glyph glyph-name="six" unicode="6" horiz-adv-x="436" 
d="M245 -9q-2 0 -3 -1h-2h-20l-4 2q-1 0 -3 1t-3 1l-4 1l-12 2l-10 5q-9 3 -16 10l-5 3q-29 16 -41 31q-22 28 -24 30l-19 43l-2 3l-1 6l-1 6q-3 10 -9 21l-2 10q-1 10 -3 19t-5 13q0 5 -2.5 20t-2.5 21v20q0 1 -0.5 22t-0.5 22v2q1 1 1 3q1 2 1 8q0 2 -0.5 13t-0.5 13
q0 6 1 8q3 12 3 19q0 4 1 15t1 14l4 19v13q0 12 3 26.5t7 28.5t5 19q0 1 1.5 5.5t4 13t5.5 17.5q1 1 1 3l1 4q0 4 5.5 17t8.5 16q3 9 18 32l9 15q41 59 80 72q31 9 41 9h7q1 -1 22 -7l5 -3l4 -2l3 -2l21 -14q6 -2 17 -13t12 -17q0 -6 -6 -6q-2 0 -4 3l-4 2q-4 2 -9 5.5
t-9 7.5q-2 2 -7 8t-8.5 9.5t-11.5 7.5t-17 5l-7 1q-17 0 -32 -7q-15 -11 -17 -14q-9 -13 -18 -18q-5 -3 -12 -13l-12 -20l-2 -5l-1 -4q-10 -16 -10 -30l-3 -8q-3 -10 -7 -21.5t-6.5 -18t-4 -17t-1.5 -23.5q-4 -13 -3.5 -21t-0.5 -14v-34q0 -3 -1 -17t-1 -18q0 -1 2 -17l1 -5
q-2 -4 -2 -12q0 -1 2.5 -7t3.5 -6q26 30 47 40l20 10l6 2q4 0 11 4h22q1 1 4 1q8 0 28 -5l24 -7q11 -3 27 -19q3 -1 7.5 -6t4.5 -6l4 -4q2 -2 3 -4l2 -3q15 -21 19 -30q0 -2 1 -4v-3l3 -5q12 -20 16 -41q3 -24 3 -32v-21q-2 -2 -2 -9q0 -10 -1 -12q0 -1 -1.5 -14.5
t-1.5 -15.5q0 -10 -5 -15q0 -1 -0.5 -5t-0.5 -5l-2 -5q0 -2 -1 -4l-1 -4q-1 -13 -6 -19q-7 -7 -7 -12l-15 -21q-1 -4 -14 -21q-5 -4 -12 -12t-9 -10l-7 -4q-2 -2 -4 -5l-3 -3q-1 -1 -5 -2l-4 -1l-6 -6l-2 -1q-2 -2 -7 -3l-5 -2q-8 -8 -11 -8l-1 1q-2 2 -7 0zM210 10
q2 0 10.5 -1t12.5 -1q16 0 25 4q0 2 12 10q6 4 16 14l12 14l14 30q1 3 16 66q1 27 1 56v5q0 1 -0.5 6t-0.5 7v4q1 5 1 7l-1 3l-2 29q-7 35 -13 48q-11 24 -15 29l-4 6q-5 6 -11 13t-10 10q-15 12 -33 12q-5 0 -22 -4q-19 -3 -29 -10l-12 -6q-1 0 -7.5 -5.5t-9.5 -6.5
l-24 -36q0 -1 -4 -7t-4 -7t-1 -12t-1 -14v-4l-3 -26v-10q0 -3 1 -6l1 -5q0 -15 2 -33l-1 -3v-4l1 -4q1 -3 1 -5q4 -24 14 -62q1 -4 5 -14.5t4 -16.5q2 -1 4.5 -5.5t4.5 -8.5l2 -4l12 -16q11 -14 13 -15l3 -2q2 -2 6 -6.5t6 -6.5l2 -1q2 -1 4 -2.5t2 -2.5z" />
    <glyph glyph-name="seven" unicode="7" horiz-adv-x="431" 
d="M143 25l-7 28v51q0 5 0.5 9.5t0.5 7.5t0.5 5t0.5 4v1v1q0 1 0.5 2.5t1 4.5t0.5 6q1 9 1 14q0 7 3 25l2 17q0 1 2 5t2 6q1 7 3 17l1 7q0 2 0.5 4t1.5 4v1q0 9 1 10q0 4 3 12.5t4 12.5l2 7q6 12 6 13l2 4l-1 4q0 3 2.5 6.5t2.5 5.5l1 12q0 2 1.5 4t1.5 6l3 17l5 10l1 3
q4 11 6 20l1 2v3q1 3 7.5 13t6.5 13q5 16 7 18q5 24 22 41q1 1 6 13q3 4 10 19t9 18l3 4q1 1 15 23q0 5 16.5 27t17.5 24q2 2 15 18t13 22q0 2 -4 2t-6 2h-9q-3 0 -4 -1q-4 0 -14 -1.5t-12 -1.5q-4 0 -18.5 2t-19.5 2h-3l-1 -1q-1 0 -4 1t-5 1q-7 0 -13 2h-15l-3 2
q-1 0 -5 1t-5 1q-9 6 -16 6l-15 2l-14 3q-2 3 -16 3q-4 0 -11 -3q-1 -1 -6 -1h-8q-1 0 -7 -6q-1 0 -11 -8t-15 -9l-10 -10q-4 -3 -5 -3l-3 -2l-13 -22q0 -4 4 -9t9 -10l6 -6q1 -2 11 -14t10 -13q10 -19 10 -29l1 -2v-2q0 -3 -2 -3h-7q-2 0 -5 6l-2 6q0 1 -35 29l-14 9
q-10 5 -11 6l-4 4q-16 6 -16 14q0 16 2 18q14 17 25 20q7 3 26 14q1 3 9 8t12 6q29 23 51.5 30.5t62.5 7.5q9 0 31.5 -4.5t25.5 -4.5q4 0 11 -2t14 -4.5t8 -2.5q3 -2 11 -2.5t9 -0.5q2 0 17.5 -2.5t20.5 -2.5q18 0 23 14q1 0 4 1t4 1q2 0 8 5.5t8 5.5q3 0 9 -2h13q1 1 6 1
q0 -7 -5 -14.5t-6 -10.5q-12 -28 -26 -50q-11 -11 -15 -22q-8 -14 -16 -25q-12 -16 -20 -32l-13 -18q-18 -28 -22 -41l-23 -62q0 -2 -1 -4t-18 -43l-2 -5q-1 -5 -3 -10.5t-2 -7.5q-1 -5 -10 -29q-1 -3 -8 -30q-1 -2 -5 -9.5t-4 -9.5l-2 -6q-1 -5 -3 -7l-17 -83
q0 -2 -1.5 -10t-1.5 -10t-2 -8q0 -6 -4 -17q0 -27 -1 -34q0 -2 -1 -17.5t-1 -19.5l-3 -23q0 -2 -1 -5v-3l1 -9l-4 -13q-2 -2 -2 -8q0 -2 -4 -3l-12 -1q-2 0 -8.5 4t-7.5 4t-2 8t-2 8z" />
    <glyph glyph-name="eight" unicode="8" horiz-adv-x="371" 
d="M151 530q0 -1 2 -2t3 -3l15 -29q4 -6 5.5 -9t2.5 -4t4.5 -4t7.5 -9q12 -15 12 -16q4 -12 9 -12q2 0 3 2l3 3q2 0 3 1l8 13l7 7q16 17 29 50q4 17 8 27q0 2 3 11t3 11q3 28 3 55v15q0 1 -12 29q-4 8 -16 19l-7 7q-6 6 -26 6q-1 0 -12 -5.5t-13 -7.5q-6 -9 -11 -12
q-7 -2 -14 -15q-3 -5 -14 -26q-1 -2 -5 -15.5t-4 -14.5v-41q3 -1 3 -31zM134 -7l-8 5q-8 4 -10 4q-4 0 -14 9h-6l-2 3q-3 3 -4 3l-15 9q-2 4 -3 5q-9 9 -10 12q-2 3 -10.5 20t-11.5 22l-1 4q-7 31 -9 39v19q0 57 7 78q6 19 25 48q8 11 15 20l20 26q5 9 11 15q3 4 6.5 8
t5.5 6l3 3q29 35 55 52l-10 12l-5 2q-4 3 -14 13l-3 2q-3 2 -6 4.5t-3 3.5l-21 33l-1 5q0 2 -5 7q-8 14 -9 22q0 1 -4 10t-4 10q-7 28 -7 40q0 28 14 53q17 33 28 45q4 5 13.5 13t12.5 11q26 22 79 22h11q19 -7 32 -19q4 -4 18 -27q8 -11 8 -50v-10q0 -8 -1 -10q0 -2 1 -3
l2 -2l-2 -6l-1 -5q0 -2 -6 -26l-4 -8l-4 -8q0 -7 -2 -15q0 -3 -4 -7q-2 -3 -4.5 -9t-5 -13t-3.5 -9q0 -1 -4.5 -4t-6.5 -8l-1 -2l-1 -2l-14 -13q-2 -2 -8 -11.5t-12 -11.5l1 -3l-2 -3q0 -14 32 -46q19 -16 29 -33l3 -1q2 -2 3 -4l23 -37q2 -7 14 -25q1 -2 1 -4
q16 -51 16 -67q-1 -4 -2.5 -27.5t-4.5 -32.5l-12 -29q-2 -4 -18 -30q-1 -2 -4.5 -8.5t-5.5 -9.5q-10 -7 -10 -9q-1 -2 -5 -6t-4 -5q-1 -5 -2.5 -6.5t-4.5 -2.5t-6 -4l-6 -4q-11 -11 -12 -11t-14 -8h-5q-1 0 -3 -3l-3 -3l-6 -2l-5 -2q-13 -9 -15 -10l-13 -4h-7h-21
q-4 0 -10.5 0.5t-7.5 0.5zM194 379q-4 2 -5 6q-10 -10 -24.5 -23t-17.5 -13l-4 -8q-3 -5 -10.5 -14l-15 -18t-8.5 -10q-37 -44 -46 -83q0 -3 -3 -12q-2 -4 -2.5 -17t-0.5 -14q-1 -5 -1 -21q0 -20 1 -27l2 -4q22 -59 38 -75q15 -15 20 -15q9 -9 17 -9q17 -6 26 -6q7 0 8 1
l21 5q3 0 7 1l6 1q12 9 31 18q24 16 41 55l4 8q1 1 1 5q10 23 10 56q0 1 -1.5 16t-1.5 18v4q1 3 1 5q0 3 -1 4q-3 8 -3 21q-1 1 -6 20l-1 2l-1 2l-3 5q0 1 -0.5 3t-0.5 3l-4 4l-26 44l-22.5 30t-24.5 32z" />
    <glyph glyph-name="nine" unicode="9" horiz-adv-x="436" 
d="M191 706h3l2 1h20l4 -2q1 0 3 -1t3 -1l4 -1l12 -2l10 -5q9 -3 16 -10l5 -3q29 -16 41 -31q22 -29 24 -30l19 -43l2 -3q0 -1 1 -6t1 -6q3 -11 9 -21l2 -10q1 -10 3 -19t5 -13q0 -5 2.5 -20t2.5 -21v-20l1 -44l-1 -5q-1 -2 -1 -8q0 -2 0.5 -13t0.5 -13q0 -6 -1 -8
q-3 -12 -3 -19q0 -3 -1 -14t-1 -15l-4 -19v-13q0 -12 -3 -26.5t-7 -28.5t-5 -19q0 -1 -1.5 -5.5t-4 -13t-5.5 -17.5q-1 -1 -1 -3l-1 -4q0 -4 -5.5 -17t-8.5 -16q-3 -9 -18 -32l-9 -15q-41 -59 -80 -72q-31 -9 -41 -9h-7l-22 7l-5 3l-4 2l-3 2l-21 14q-6 2 -17 13t-12 17
q0 6 6 6q2 0 4 -3l4 -2q4 -2 9 -5.5t9 -7.5q2 -2 7 -8t8.5 -9.5t11.5 -7.5t17 -5l7 -1q17 0 32 7q15 12 17 14q9 14 18 18q5 3 12 13l12 20q0 1 2 5l1 4q10 16 10 30l3 8q3 10 7 21.5t6.5 18t4 17t1.5 23.5q4 13 3.5 21t0.5 14v34q0 3 1 17t1 18q0 1 -2 17l-1 5q2 4 2 12
q0 1 -2.5 7t-3.5 6q-26 -30 -47 -40q-2 -2 -20 -9l-6 -3q-4 0 -11 -4h-22q-1 -1 -4 -1q-8 0 -28 5l-24 7q-11 3 -27 19q-3 1 -7.5 6t-4.5 6l-4 4q-2 2 -3 4l-2 3q-16 21 -19 30l-1 3v4l-3 5q-12 20 -16 41q-3 24 -3 32v21q2 2 2 9q0 10 1 12q0 2 1.5 15t1.5 15q0 10 5 15
l1 5v5l2 5q0 1 1 4t1 4q1 13 6 19q7 7 7 12l15 21q1 4 14 21q5 4 12 12t9 10l7 4q2 2 4 5l3 3q1 0 5 1t4 2q0 3 6 5l2 2q2 2 7 4l5 1q8 8 11 8l1 -1q2 -2 7 0zM226 687q-2 0 -10.5 1t-12.5 1q-16 0 -25 -4q0 -3 -12 -10q-6 -4 -16 -14l-12 -14l-14 -30q-1 -3 -16 -66
q-1 -27 -1 -56v-5q0 -1 0.5 -6t0.5 -7v-5q-1 -4 -1 -6l1 -3l2 -29q7 -35 13 -48q11 -24 15 -29l4 -6q5 -6 11 -13t10 -10q15 -12 33 -12q5 0 22 4q19 3 29 10l12 6q1 0 7.5 5.5t9.5 6.5l18 27l6 9q0 1 4 7t4 7t1 12t1 14v4l3 26v10l-1 5q-1 3 -1 6q0 15 -2 33l1 2v5t-1 5
l-1 4q-4 24 -14 62q-1 4 -5 14.5t-4 16.5q-2 1 -4.5 5.5t-4.5 8.5l-2 4l-12 16q-11 14 -13 15l-3 2l-6.5 6.5t-5.5 6.5l-2 1q-2 1 -4 2.5t-2 2.5z" />
    <glyph glyph-name="colon" unicode=":" horiz-adv-x="210" 
d="M98 232q-7 1 -13 1h-4q-11 14 -11 24q0 2 3.5 12t4.5 11l17 18q4 7 22 7q12 0 16 -7q0 -7 5 -14l1 -4v-6q0 -2 1 -6v-3q0 -6 -4.5 -15.5t-8.5 -10.5h-6q-5 -3 -6 -3q-3 -3 -4 -3h-7q-1 -1 -6 -1zM71 30q0 7 9.5 17.5t18.5 14.5q3 1 16 1q1 0 4 -1h3l2 -2l2 -1
q13 -9 13 -29q0 -11 -11 -16l-5 -1l-4 -6q-8 -5 -13 -5l-7 -2q-11 0 -19.5 10t-8.5 20z" />
    <glyph glyph-name="semicolon" unicode=";" horiz-adv-x="210" 
d="M79 -77q0 8 13 12l14 16q2 5 8 11q9 12 9 33v4q0 3 -5 3q-3 0 -11 -1.5t-10 -1.5q-9 0 -16.5 5t-7.5 13q0 11 5 23q14 24 31 24q8 0 16 -9q15 -11 15 -45q0 -14 -3 -27l-4 -9v-6q-3 -10 -18 -24l-2 -2l-2 -4l-2 -2q-2 -3 -4.5 -6t-4.5 -4q-9 -9 -13 -9q-8 0 -8 6zM70 265
q4 27 20 36l6 3q2 1 5 1t3 -2q3 0 5 -2t4 -2q1 3 3 3t2 -4l3 -2q3 -3 6.5 -5.5t4.5 -3.5l4 -12q0 -4 -3 -10q-8 -18 -11 -20q-8 -6 -18 -6q-2 0 -6 2t-7 4l-3 2h-5q-13 2 -13 18z" />
    <glyph glyph-name="less" unicode="&#x3c;" horiz-adv-x="279" 
d="M149 177l-10 10l-22 23q-4 1 -8 5.5t-6 5.5l-4 2q-4 2 -6 4l-27 27q-1 3 -8.5 12t-7.5 12q0 4 13 17q2 2 6.5 7.5t12.5 15t16 19.5q40 43 51 51l36 38q12 9 17 9q4 0 4 -5q0 -2 -9 -16q-1 -2 -6 -5.5t-6 -4.5l-6 -7q-2 -2 -5 -5.5t-4 -5.5l-2 -4l-3 -1l-3 -1
q-4 -2 -14 -18q-1 -2 -4 -4l-4 -1q-1 -1 -9.5 -14.5t-12.5 -17.5l-7 -5l-5 -6q-19 -22 -20 -23l-2 -2l-4 -4q0 -4 6 -10q2 -2 11.5 -9t12.5 -10q2 -2 16 -12t18 -14l11 -11q4 -4 16 -13l29 -28l29 -29q0 -1 -10 -9.5t-12 -8.5q-1 0 -5 2q-4 3 -9 8l-9 5l-2 3q-3 3 -5.5 6
t-3.5 3q-17 12 -24 19z" />
    <glyph glyph-name="equal" unicode="=" horiz-adv-x="514" 
d="M128 250h-4q-6 0 -29 4t-31 4l-4 4l-3 2q-2 0 -2 2l1 2q1 1 1 3q5 17 27 17q5 0 19.5 -2t19.5 -2q1 0 8 0.5t9 0.5q4 0 17 -0.5t16 -0.5q13 0 15 2l129 2q3 0 7 0.5t6.5 1t5 0.5h3.5q11 1 49 1q4 0 16 -0.5t16 -0.5q2 0 6 0.5t6 0.5q7 0 8 -1h19q4 0 4 -9q0 -12 -12 -15
l-16 -2q-2 0 -3 1l-3 1q-2 0 -3 -1h-13q-1 -1 -4 -1q-2 0 -5 1l-2 1q-4 0 -8.5 -0.5t-7.5 -0.5t-11 -1t-10 -1q-5 -5 -14 -5q-13 4 -30 -1l-2 1q-2 1 -4 1q-3 0 -15.5 -3t-16.5 -3q-39 -1 -83 -1h-50q-6 -2 -13 -2q-1 0 -3 1t-3 1q-3 0 -3 -2zM125 125q-75 0 -75 16
q0 5 4.5 10t8.5 5q1 0 5 -1t5 -1q9 -3 28 -3h20q26 0 62 4q41 3 61 3h36q2 0 47 5q6 1 24 1.5t26 0.5h42q3 0 13 1.5t12 1.5q3 0 11.5 -8t8.5 -13q0 -2 -2 -4q-6 0 -16.5 -1t-11.5 -1h-17h-21q-1 1 -4 1q-5 0 -9 -2h-23q-15 -6 -39 -6h-26l-3 -3h-5q-5 0 -19.5 1t-18.5 1h-4
l-3 -2q-4 -1 -21 -1h-13h-2q-1 1 -2 1q-2 0 -10.5 -2t-11.5 -2l-3 1h-3q-4 0 -17 -2t-17 -2q-2 0 -8.5 0.5t-8.5 0.5z" />
    <glyph glyph-name="greater" unicode="&#x3e;" horiz-adv-x="256" 
d="M54 137l50 53l2 2q1 3 3 5l10 10q2 3 7.5 8l11 10t7.5 7q1 4 8 11l15 15q12 12 12 15l-11 11q-3 4 -15 14t-13 11l-28 28q-4 7 -12 13q-2 1 -23 25l-19 20q-1 1 -4 5.5t-5 6.5v10q0 7 13 7q1 0 8 -4.5t8 -4.5q4 -7 11 -11l6 -3l19 -22l7 -5q17 -17 17 -18q2 -1 9 -10
l27 -28q1 -1 5.5 -4.5t9 -7.5t9 -9t6.5 -9t1 -7q-4 -4 -7 -4q-4 -8 -17 -20t-15 -15l-14 -15l-4 -4q-1 -2 -20 -21q-12 -15 -16 -19q-6 -6 -11 -10.5t-8 -6.5l-2 -3l-14 -15q0 -2 -5 -4q-12 -12 -17 -13l-1 3q-1 1 -1 3z" />
    <glyph glyph-name="question" unicode="?" horiz-adv-x="345" 
d="M81 186q0 6 1 7v29q2 2 2 11v8q0 4 1.5 9t3.5 10.5t2 6.5q8 39 22 61l3 3l7 12q1 1 4 3l3 2l9 18l4 6q4 5 4 7l13 18q9 9 15 17q6 6 6 10q4 4 17.5 20t17.5 20q1 1 10 11q30 41 32 46l10 26q0 7 3 12q1 6 1 24q0 39 -27 78q-9 9 -10 9q-9 9 -19 16h-7l-4 3q-1 1 -9 1
q-2 0 -6 -4l-19 -2q-2 0 -6 -4h-14q-3 -3 -5 -3q-11 -6 -15 -13q-2 -3 -4.5 -4t-4.5 -3q-5 -3 -13 -14l-8 -11q-3 0 -9 -6q-3 -8 -5 -9l-2 -10l-1 -3q-1 -2 -2.5 -3.5t-2.5 -1.5q-9 0 -9 6q4 15 7 18l25 35l4 4l3 2q11 12 31 25q1 1 4.5 2t6 1.5t2.5 1.5q1 0 4 1t4 1
q2 0 13 3t22.5 5t19.5 2q4 0 15 -4l14 -3q2 -2 6 -4q8 -1 10 -3q1 0 7 -6l3 -1q17 -6 33 -27q7 -8 7 -10q1 -5 6 -15t8 -20l-1 -1q0 -1 0.5 -5t0.5 -6v-16q-1 -2 -2 -8t-1 -8l-2 -3l-3 -6l-2 -7q-2 -7 -4 -8l-3 -1q-2 -2 -4 -6l-1 -5q-7 -9 -8 -13l-9 -10q-3 -4 -5.5 -8
t-4.5 -6l-1 -2q-1 -2 -4 -4t-5 -4l-3 -2q-3 -3 -10.5 -12.5t-9.5 -11.5q-1 0 -11 -10q-15 -15 -17 -21l-12 -12q0 -5 -3 -6l-4 -2l-1 -4q0 -1 -4 -5q-9 -10 -20 -31l-8 -10q-10 -24 -11 -26l-4 -5l-1 -4v-4l-1 -4q-1 -3 -4 -10t-4 -8v-8l-3 -13v-14q-1 0 -2.5 -12.5
t-4.5 -14.5v-4v-2q1 -1 1 -2q-2 -10 -2 -27q0 -2 1 -8t0 -11l-1 -6v-6q0 -2 -4.5 -4t-5.5 -2l-5 -4q-5 -4 -8 -4t-4 -1q-1 0 -7 -1t-8 -1q-4 9 -4 33zM88 10v6q0 1 -3.5 7.5t-3.5 8.5q0 12 9 22t21 10q9 0 12 -3q6 0 12 -6l1 -3v-3l4 -5q5 -7 5 -8v-14q0 -4 -4 -8
q-7 -9 -11 -9q-2 0 -9.5 -2.5t-10.5 -2.5h-8q-14 0 -14 10z" />
    <glyph glyph-name="at" unicode="@" horiz-adv-x="618" 
d="M235 -40h-9q-9 5 -31 9l-5 1q-3 1 -6 1l-4 1l-4 4q-2 1 -6 2l-8 2t-5 1t-3 3l-3 3l-16 11l-5 2l-2 3q-3 3 -4 3l-6 1q-3 1 -6.5 5t-6.5 8.5t-4 5.5q-7 4 -9 6l-24 36q-18 42 -18 118v41l4 13q14 43 14 44v2q1 1 1 3q1 1 6.5 11.5t5.5 11.5q26 48 70 86l31 26q3 0 9 6
q2 2 8.5 6t12.5 7l6 3q14 11 28 17q14 9 29 13q11 4 19 8l38 9q22 2 23 2q4 0 17.5 -0.5t16.5 -0.5q42 0 78 -21l13 -8q19 -7 28 -18l4 -3q21 -15 36 -44q8 -15 14 -41q6 -28 6 -35v-32q-5 -37 -7 -44l-9 -21q0 -3 -3 -4q-5 -14 -16 -28l-6 -12l-5 -7l-3 -5l-3 -3l-3 -4
q-3 -4 -7 -8.5t-6 -5.5q-3 -1 -23 -17q-19 -15 -31 -15q-18 -2 -23 -2q-10 0 -11 1h-4q-31 0 -56 49q-10 20 -12 36q-1 -9 -20 -25l-3 -2q-7 -7 -21 -14q-14 -9 -28 -9h-14q-2 -2 -5 -2q-4 0 -14 4.5t-11 4.5q-22 16 -22 38q0 27 13 49l3 6l2 5l2 3q2 2 2 4q11 21 32 41
q2 2 6.5 5.5t8.5 6.5l4 3l12 7l7 1l5 3l5 3l8 4l10 5q7 0 13.5 0.5t9.5 0.5l3 1q7 -1 12 -1q2 -2 6 -4l4 -1q3 -1 6.5 -12t4.5 -11q3 0 9 4l7 3q20 -11 20 -35q0 -8 -9.5 -27.5t-9.5 -25.5l-3 -28v-1q0 -2 2 -11t2 -11q2 -2 5 -10.5t4 -10.5q10 -24 42 -24q2 2 12 5
q54 51 69 139l1 26v5l-1 4l-4 37l-4 18q-6 21 -6 22q-4 17 -19 37q-1 3 -9 10.5t-13 9.5l-29 16q-1 1 -8.5 2.5t-13.5 3.5t-6 3h-13q-2 2 -11 2q-1 1 -4 1q-2 0 -12.5 0.5t-19.5 0.5q-13 0 -46 -5l-6 -4q-1 0 -3 -1t-3 -1l-4 -2q-14 -10 -26 -14q-3 -3 -12.5 -8t-10.5 -6
l-12 -9q-2 -1 -12 -9l-37 -34l-9 -15l-5 -6l-1 -4l-6 -2q-4 -5 -4 -7l-15 -30q-1 -2 -4.5 -10.5t-5.5 -10.5q-7 -7 -7 -14q-5 -9 -10 -32.5t-5 -24.5l-3 -23l-3 -50q1 -22 11 -49q12 -25 14 -27q3 -9 14 -24q16 -24 48 -45l8 -6l3 -2l34 -14q29 -13 73 -13q25 0 40 9
q19 13 22 13q3 3 10.5 12.5t13.5 12.5q5 0 8.5 0.5t4.5 0.5q13 -3 13 -8q0 -3 -5.5 -6t-8.5 -3q-28 -25 -40 -30q-2 -1 -9.5 -4t-10.5 -5l-8 -1q-8 -2 -9 -2q-5 -2 -5 -3q0 -2 -4 -2q-1 0 -6 -1.5t-7 -1.5h-10q-3 0 -13 -1.5t-12 -1.5q-6 0 -22.5 1.5t-20.5 1.5zM255 239
q0 -1 -1.5 -13t-1.5 -13l1 -13q1 -24 15 -30h6q25 0 46 27q2 1 16 20q9 9 9 13q0 10 5 15q4 19 4 22q19 34 19 44q0 17 -25 17q-20 0 -27 -6q-23 -13 -38 -32l-7 -12l-11 -14q-3 -8 -10 -25z" />
    <glyph glyph-name="A" unicode="A" horiz-adv-x="629" 
d="M630 2h-2h-28q-15 0 -18 -3l-2 1h-3h-8q-6 -3 -7 -3q-4 0 -6 3l-14 11q-3 3 -7 13l-4 11q-6 7 -17 39q-6 11 -14 31q-18 40 -20 51l-2 8q-3 8 -3 9l-1 3l-5 24q-5 7 -5 8l-2 8q-1 5 -1 8l-3 5q-3 5 -3 6l-1 3v5q-2 9 -8 19q-1 1 -1 5q0 3 -1 5q-4 15 -9 21q-4 24 -11 32
q-4 2 -7 2q-4 0 -15.5 -3t-13.5 -3q-15 3 -33 0q-2 0 -5 1l-2 1q-30 2 -36 2q-3 0 -7 -0.5t-6 -0.5q-3 0 -12 -1t-11 -1q-3 0 -13 1l-10 1l-5 1l-13 1l-13 2h-2q-1 1 -3 1l-26 -1q-4 -2 -7 -13.5t-4 -12.5q-9 -11 -19 -37q-1 -2 -1 -4l-1 -4l-5 -5q0 -1 -2 -5.5t-2 -5.5
l-3 -3q-2 -3 -6 -11.5t-5 -10.5q0 -5 -6 -11l-8 -24q-1 -3 -6 -8q-13 -34 -15 -38q-2 -2 -8.5 -15t-11.5 -15q0 -7 -3 -10q-3 -1 -3 -3q-2 -2 -3 -8l-2 -6l-4 -7h-4q0 -9 -4 -19t-9 -11q0 -4 -1 -7v-4l-2 -2q-1 -2 -1 -4l3 -2h51q8 0 11 -1q1 -1 13 -1q7 0 7 -5
q0 -11 -6 -11h-33l-4 -1q-1 0 -8 -1h-7q-2 -3 -11 -3q-4 0 -7 1h-5l-21 1l-4 4q-4 4 -4 10l1 3q17 29 18 35l15 31l3 3l17 36l15 28l13 29l2 3l2 4q2 2 6 17q2 5 7 14.5t10 19.5l6 12t1 5q1 1 1 2q6 17 16 35q3 6 6 12.5t4.5 9.5t1.5 4l2 5l2 5q0 1 7.5 16.5t8.5 17.5
q8 16 11 31l2 10q26 59 27 62q24 51 25 57l27 52q2 1 9 16l2 6l3 6q5 12 21 40.5t18 31.5q1 3 5.5 14.5t6.5 15.5q2 0 7.5 2t6.5 2l3 2q10 0 11 -4l1 -4q1 -4 4.5 -12.5t3.5 -10.5q0 -4 3 -19q9 -15 14 -31q0 -4 4 -12t4 -12q3 -20 6 -25q0 -2 4 -11l3 -9l1 -3l1 -3
q6 -24 7 -29q0 -1 3 -9l3 -8q4 -21 8 -26q11 -30 16 -42l8 -17q2 -4 4.5 -18t3.5 -17q1 -5 8 -19l5 -18q19 -73 31 -106q2 -5 6.5 -22.5t5.5 -19.5v-4l1 -3l2 -4q5 -7 11.5 -28t7.5 -22q0 -1 6.5 -16.5t8.5 -21.5q31 -81 38 -81q2 0 3 1q2 0 3 -1l2 -1l4 2l11 -1
q12 -1 14 -1q0 -2 2 -2h3q3 1 4 1q3 0 5 -3q-1 -7 -4 -11l-4 -1l-6 -3l-3 -1q-1 -1 -3 -1t-4 1zM245 343l3 2l8 -7l44 1q18 0 22 1l6 2q5 1 8 1l3 -1h3l42 3h15q12 0 18 3q1 1 1 3q0 11 -15 41q-11 36 -13 39l-3 7q-1 3 -7.5 25t-9.5 29l-19 49q-5 14 -13.5 45t-11.5 41
l-1 1h-3l-2 -6q-2 -3 -4 -7.5t-4 -7.5l-1 -3l-2 -4l-2 -4l-2 -5v-5l-3 -6l-3 -6l-1 -5q-1 -2 -4 -6l-4 -4l-6 -13q0 -3 -5 -8q-7 -20 -8 -22q-1 -4 -7 -14t-8 -13q-6 -18 -9 -22l-2 -3q-2 -2 -3 -8v-3l-2 -2q-3 -1 -3 -3l-1 -3v-4l-1 -5q-8 -31 -21 -44q0 -13 -9 -34
q-5 -13 -5 -14h8l8 -1q3 0 6 -1l4 -1q2 0 9.5 1t9.5 1z" />
    <glyph glyph-name="B" unicode="B" horiz-adv-x="492" 
d="M79 -1q-16 -2 -18 -2t-7.5 0.5t-6.5 0.5h-15h-12q-6 0 -7 1h-9l-2 3q-1 2 -1 4q0 4 11 9l6 2q10 2 20 2l9 -1q9 -1 11 -1h10q6 0 8 2v5q0 1 -0.5 3.5t-1 7.5t-0.5 10q0 44 -1 101t-1 101v113q0 52 -4 56q-1 6 -1 12q-2 38 -2 63v131q0 41 2 43v10l-3 8h-27q-7 0 -9 2
l-21 -1q-3 0 -3 2l-2 2l-1 2l-1 1v2q0 2 8 7h18q14 0 18 1q2 0 6 -1h5h6l4 1q5 0 7 -2h11q0 2 5 2t8 -1h4q3 0 10.5 -0.5t11.5 -0.5h32l2 -1h5h12h3q2 -1 4 -1t7 -0.5t7 -0.5h4q2 0 6 0.5t5 0.5l3 -1q2 -1 4 -1h12l13 -3l20 -3q9 -1 18 -4l7 -2l9 -3l9 -4l2 -2q1 -1 3 -1
l14 -12q3 0 13 -8.5t14 -14.5l11 -19q11 -17 11 -34l2 -7q1 -6 1 -8q0 -3 1 -3v-3q0 -5 -1 -6v-21q0 -2 -1 -11.5t-2 -11.5l-2 -8l-10 -21q-1 -1 -4 -9l-6 -8q-1 -7 -12 -19l-14 -16q-19 -15 -21 -16l-18 -8q-1 0 -2 -1q-3 0 -5 -1l-6 -2l-3 -1l-3 -1q-3 0 -6.5 -2.5
t-3.5 -3.5q2 0 10 -1l9 -1l6 -1q4 -1 7 -1q33 -6 34 -6q21 -10 38 -25q3 -3 12 -12.5t15 -14.5q7 -6 13.5 -15.5t10 -16t4.5 -6.5l14 -35l5 -18l2 -10t2 -8t1 -4q3 -18 3 -21l-3 -37q-2 -4 -6 -19l-1 -3l-2 -4l-1 -2l-6 -9q-3 -3 -6.5 -10t-4.5 -8q0 -1 -3 -4t-4 -7
q0 -2 -10 -15q-7 -7 -8 -7q-3 -5 -11 -11l-16 -18q-11 -11 -15 -13q-2 -1 -7.5 -5.5t-6.5 -4.5q-6 -3 -15 -4l-2 -2q-2 -2 -3 -2h-4q-2 0 -3 -1l-3 -1l-15 -5q-6 -2 -14 -2l-5 -2l-3 -1q-3 -1 -8 -1h-8l-2 -1h-3h-9q-8 0 -9 -3h-19l-7 3l-8 -2q-8 -1 -10 -1q-1 0 -7 0.5
t-7 0.5q-3 0 -4 -1q-6 0 -23 -1.5t-21 -1.5q-1 0 -5 0.5t-5 0.5q-2 0 -7 -0.5t-9 -0.5q-2 2 -4 2h-5q-4 0 -5 1zM134 18h44q0 -2 3 -2q48 0 51 5h16q12 3 14 3h9l5 1q5 1 7 1q1 1 9 3.5t8 3.5q27 17 52 47q2 4 8.5 15.5t7.5 14.5q12 30 12 85q0 10 -11 56q-8 35 -25 64
q-8 12 -21 27l-6 7l-3 1q-7 2 -17 9q-3 2 -16.5 7.5t-18.5 8.5q-7 4 -31 6q-35 5 -38 5h-8q-1 -1 -8 -1q-1 0 -6.5 0.5t-8.5 0.5q-5 -1 -16 -1q-12 0 -15 -1l-1 -69l-1 -3v-18q0 -14 1 -31t1 -30l1 -5v-6l-1 -8q-1 -8 -1 -9t1 -11t1 -15q0 -3 1 -4v-47l-1 -2v-2
q0 -3 0.5 -11.5t0.5 -10.5v-10q-1 -1 -1 -3q0 -1 0.5 -2t0.5 -2l-1 -10q-1 -6 -1.5 -10.5t-0.5 -6t1 -1.5v-9q0 -2 -1 -11t-1 -11t2.5 -4t2.5 -4zM127 437l2 -4v-27q0 -3 9 -3q6 0 22.5 2.5t20.5 2.5q5 0 28 3q21 3 23 6q8 0 21 8q11 4 17 8q21 15 38 37q9 11 17 67v17l-1 6
q-1 7 -1 9l-2 6q-18 46 -36 64l-5 4q-5 4 -11 9t-8 7q-4 0 -8.5 3.5t-6.5 3.5l-8 2q-8 3 -9 3q-3 0 -11 3l-7 2l-7 1q-8 1 -10 1h-7h-3q-4 1 -6 1h-5q-3 0 -3 1h-31h-4q-4 1 -6 1q-5 0 -5 -2l-1 -9v-8q0 -7 2 -11q0 -4 3 -19q0 -12 0.5 -62.5t0.5 -63.5q0 -14 -1 -15
q0 -1 -0.5 -8t-0.5 -8l-1 -1v-4v-5q1 -3 1 -6v-22z" />
    <glyph glyph-name="C" unicode="C" horiz-adv-x="561" 
d="M409 10l-26 -11l-30 -3l-15 -3q-3 -1 -22 -1h-10l-6 1q-2 0 -3 -1l-22 1q-5 0 -26 3q-1 2 -11 4l-10 3q-10 5 -17 11q-18 9 -18 11l-20 11l-10 8q-4 4 -10.5 11.5t-11.5 12.5q-11 11 -28 35q0 1 -4.5 7.5t-10 15.5t-8.5 14t-10.5 29.5t-8.5 31.5q0 6 -1 12l-2 6
q-3 8 -3 19q0 2 -1.5 11t-1.5 11t-0.5 10t-0.5 11v4q0 3 1 4l-2 46q2 8 2 13v12q5 44 14 56l6 19q3 12 3 15q0 1 3 6t3 9l6 15l3 6l2 6q0 1 4 8l3 7q1 8 7 22l2 3q2 4 5.5 10l7 12t7 11t4.5 7q1 3 11 13l28 38l3 1q32 33 39 39q3 3 17 12q14 11 16 11q32 13 40 16l10 2l8 1
q8 1 12 3q8 2 21 2h34l26 -7l9 -5q10 -6 12 -6q2 -2 7.5 -7t7.5 -7q5 0 6 -6l5 -3l19 -26q5 -5 11 -17q2 -2 5 -10l3 -7q6 -7 6 -11l2 -2q1 -2 1 -3l-12 -18l-10 -10l-6 -12l-8 -10t-6.5 -7.5t-4 -5t-2.5 -3.5l-12 -12l-7 4l-1 1l-2 2q0 4 3 6l6 8q1 0 2 3t2 4l6 8l1 2
q1 2 2.5 4.5t1.5 3.5l3 5q3 6 5.5 10.5t1.5 4.5q0 1 -1 3t-1 3l-1 9q-4 7 -4 12q-7 7 -9 12q-4 4 -11 16l-2 4q-1 2 -3 8l-3 3l-3 3l-12 14q-1 1 -13 7l-16 8h-1h-2.5h-3h-4h-5t-5 0.5t-4.5 0.5h-4t-4 0.5t-3 0.5l-17 -3q-4 0 -8.5 -1.5t-9.5 -4.5t-8 -4l-3 -2l-3 -3l-4 -3
l-4 -4q-1 0 -8.5 -6.5t-10.5 -7.5l-7 -8q-5 -3 -11 -12t-7 -10q-10 -10 -11 -16q-6 -2 -13 -16q-22 -33 -25 -35q0 -1 -3 -7.5t-6.5 -13.5t-4.5 -10q-8 -11 -9 -17l-2 -4l-1 -3l-1 -6q-3 -3 -3 -4l-5 -15l-1 -4l-3 -4l-6 -27q-1 -5 -2.5 -10.5t-1.5 -7.5l-1 -3
q-2 -1 -3.5 -10.5t-2.5 -11.5q-2 -26 -2 -27v-4q0 -3 -1 -4v-6q0 -7 -1 -30.5t-1 -32.5q0 -20 2 -38v-7l-1 -4l7 -32v-2q1 -3 1 -4q6 -25 18 -46l11 -22l11 -18l3 -4q9 -13 11 -13l15 -20l27 -27l14 -12l5 -4q1 -1 4.5 -3t5.5 -3l6 -4q22 -6 28 -6h45q29 6 37 10l16 8
q6 3 12 9l12 14q0 1 3 3t3 3l5 9q0 4 3 4q4 3 7 6q0 11 6 11l1 3l2 3l1 3q0 6 4 13l1 9l3 4q3 5 7 5q2 0 2 1q1 1 3 1t3 1q4 0 9 -1l8 -12q1 -2 1 -4q0 -3 -3 -9l-3 -5q0 -14 -8 -20q-6 -12 -11 -17l-19 -26l-10 -8q-2 -3 -5 -6t-6.5 -5.5t-4.5 -3.5l-12 -5z" />
    <glyph glyph-name="D" unicode="D" horiz-adv-x="549" 
d="M88 701l8 -1l3 1h17q2 -2 5 -2h8q10 0 12 2h25q5 -1 29 -1l39 -1q3 0 16 -3l14 -2q14 -1 16 -3l18 -3q5 -5 17 -5q2 -2 7 -3l6 -2q35 -14 69.5 -50t58.5 -80q12 -20 17 -41q0 -2 14 -43q9 -35 9 -46q0 -14 3 -20v-91q0 -13 -3 -18q0 -4 -4 -21t-5 -24l-3 -4q-3 -4 -4 -6
v-3q-1 -2 -1 -4q0 -4 -10 -20q0 -3 -2.5 -9.5t-4.5 -11.5l-3 -5q-7 -19 -9 -22l-4 -3q1 -1 1 -3q0 -6 -5 -6q0 -1 -4 -5t-5 -9l-11 -17q-16 -17 -28 -34q-17 -20 -44 -38q-8 -13 -33 -23q-2 0 -9 -3.5t-9 -3.5t-13 -3.5t-15 -3.5l-18 -5q-6 0 -11.5 -1t-8.5 -1.5t-4 -0.5
q-4 0 -7 -1h-5l-3 1q-4 1 -6 1h-1q-1 -1 -2 -1q-24 0 -31 -1h-56q-4 0 -8 1l-7 1l-19 -2q-4 0 -5 1q-2 -1 -6 -1q-1 0 -6.5 1t-9.5 1q-2 0 -10.5 -0.5t-12.5 -0.5q-1 0 -6.5 0.5t-7.5 0.5q-6 0 -7 1h-9l-2 3q-1 2 -1 4q0 5 19 11q1 2 4 3l4 2l38 1q9 0 10 4q-2 10 -2 16
q0 44 -1 101t-1 101v113q0 52 -4 56q-1 6 -1 12q-2 38 -2 63v131q0 41 2 43v10l-3 2q-1 0 -4.5 0.5t-6.5 0.5q-3 3 -7 3l-3 -1h-5q-7 0 -9 2l-21 -1q-4 0 -4 5l-2 2l-1 2l-1 1v2q0 2 8 7h44q2 0 7 0.5t6 0.5q5 0 7 -2h11q0 2 5 2zM155 26l28 -1q2 -1 10 -1q7 0 18.5 1.5
t16.5 1.5l24 2q1 0 14 5t17 6l19 8h1q6 2 22 18q2 2 10.5 10l17 16t13.5 15q5 5 12 20t8 17q1 1 16 31q0 7 3 10l2 4q3 6 7 19.5t6 17.5q3 9 3 22q3 6 4 15q0 1 0.5 2t0.5 2q5 47 5 67v15q1 1 1 6t-1 8l-3 42l-1 3v18q0 9 -1 11q-3 28 -7 34q-1 4 -2.5 12t-3.5 13l-5 18
l-9 26q-5 9 -16.5 24t-13.5 19l-5 5t-6.5 7.5t-2.5 7.5q-4 0 -10 8t-8 8q-4 1 -5.5 2.5l-2 2t-1 2t-2.5 3.5q-17 17 -29 19q-17 8 -53 12q-12 7 -36 7l-4 2q-10 3 -15 3h-5q-8 0 -11 1q-1 1 -5 1h-2q-2 -1 -4 -1h-21q-2 0 -3 -1l-4 -2v-6q0 -2 0.5 -9t0.5 -9l-1 -11v-17
q0 -6 0.5 -26.5t0.5 -26.5v-16q0 -44 -2 -46v-32q0 -3 3 -80q2 -102 2 -113v-27q0 -9 0.5 -50t0.5 -51q-1 -1 -1 -5q0 -8 1 -11q0 -31 -3 -58v-4q-1 -3 -1 -5v-20q0 -4 -1 -9l-1 -8q1 -4 20 -4z" />
    <glyph glyph-name="E" unicode="E" horiz-adv-x="517" 
d="M254 357q-24 2 -27 2h-8q-3 0 -15 0.5t-16 0.5h-4l-4 1q-5 0 -23 -1.5t-22 -1.5q-7 -1 -8 -7q0 -9 -0.5 -34t-0.5 -31v-18l3 -28l-4 -12q0 -2 0.5 -8t0.5 -8q0 -8 -0.5 -42t-0.5 -42v-26q1 -1 1 -8v-8v-12l1 -10q0 -5 4 -9v-35q4 -1 11 -1q1 0 27 2l38 -1q0 1 6 1
q2 0 5 -1l4 -1q1 0 5.5 1t6.5 1q1 0 10 0.5t12 0.5q11 0 17 -3h29q3 -1 21 -1h19q4 3 15 3q3 0 4 -1l40 -2q10 2 23 2h14h4l2 -1q2 0 5 0.5t5 0.5l-3 42v4q0 2 -1 14t-1 16q0 19 4 24q1 3 12 3q9 0 9 -18v-19q0 -11 -1 -14q-1 0 -3 -12q-1 -9 -1 -16q0 -2 1 -4l1 -3
q0 -2 -0.5 -6.5t-0.5 -7.5l2 -5q1 -6 -1 -6q2 -2 2 -3q0 -2 -2.5 -4.5t-3.5 -2.5h-4q-2 -1 -10 -1l-9 1h-2q-1 1 -3 1l-5 -1h-14l-4 1l-2 -1l-2 -1h-6q-4 0 -17.5 -1t-17.5 -1l-11 1q-2 0 -3 -1l-19 2q-2 -1 -3 -1q-1 -1 -2 -1h-10q-2 0 -8.5 0.5t-8.5 0.5q-3 0 -6 -1l-4 -1
h-4q-2 1 -4 1h-70q-2 0 -8.5 -0.5t-7.5 -0.5q-3 0 -9.5 0.5t-7.5 0.5q-8 0 -37 -0.5t-38 -0.5l-12 -1q-2 0 -12 2t-18 2h-15q-6 0 -7 1h-1l-17 -1h-4l-3 -1h-3q-2 -2 -3 -2q-10 0 -10 3v11q0 9 10 9h30q2 0 3 -1l3 -1q8 0 20 4q2 54 2 55q0 2 -0.5 12t-0.5 14l1 3
q0 4 0.5 20t0.5 21q-4 25 -4 63q0 2 0.5 8.5t0.5 8.5q0 6 -1.5 24t-1.5 23v7q3 3 3 7v28l-2 5v41q1 1 1 4v5q0 2 2 10l1 9l3 12v3l-1 3q0 1 -1 9v8l-1 3v6q0 21 1 26l-1 94q-3 3 -3 11v10q0 4 2 20t2 21v4q-1 4 -1 6q0 6 2 8v10q0 20 -1 29q0 1 -3 1h-20q-2 0 -3 1l-2 1
l-7 -1q-7 -1 -9 -1q-1 -1 -5 -1q-6 0 -6 3l-17 -1v7q0 8 3 11l4 2q1 4 9 4h6q2 0 11 -0.5t11 -0.5q13 2 25 1h6q1 1 4 1q1 0 3 -1l3 -1q2 0 3 1q6 0 25.5 1t24.5 1q2 0 8.5 -1t8.5 -1q19 0 23 1l4 1q5 1 7 1q1 0 3 -0.5l2 -0.5h8l6 1l12 -1q2 0 4 -1l2 -1q3 0 3 2l44 -2
q2 2 13 2h4l8 -1l8 1l8 -1q13 0 13 2l24 -4h91q6 -3 18 -3h15q0 -13 -4 -16q2 -6 2 -12q0 -1 -0.5 -7.5t-0.5 -8.5v-4v-6l1 -5q2 -26 2 -31q0 -35 -11 -35l-2 -1h-3q-4 0 -4 2t-2 4.5t-2 4.5l-1 5q-1 3 -1 6t1 4t1 12q0 4 -1 14t-1 12l3 19q2 26 2 28q-8 -3 -9 -3
q-2 0 -9.5 1t-10.5 1q-4 0 -10.5 -0.5t-8.5 -0.5l-8 -1h-9q-2 2 -4 2h-4q-4 0 -5 1h-41q-18 2 -24 2q-17 -3 -44 -1h-11l-6 -1q-4 -1 -7 -1q-2 0 -11 1t-13 1h-3l-3 -1l-4 1h-6h-3q-1 -1 -3 -1t-11 -1l-9 -1q-1 0 -12 -1t-13 -3h-5q-2 0 -6.5 0.5t-5.5 0.5q-8 0 -8 -6l1 -5
v-7q0 -4 1 -5q0 -2 0.5 -7.5t1 -16t0.5 -20.5t0.5 -20.5t1 -16t0.5 -7.5q0 -3 -0.5 -11t-0.5 -16v-2q-1 -1 -1 -2q0 -2 0.5 -5t0.5 -5v-4l-3 -2l-3 -59v-6q0 -4 1 -13.5t1 -11.5q0 -5 -2 -7v-6q0 -6 0.5 -15t0.5 -16q5 -5 13 -5h8q5 0 24.5 0.5t25.5 0.5q2 0 5 -0.5t5 -0.5
h8q14 3 24 0q4 2 9.5 0t8.5 1q4 0 23 -0.5t23 -0.5h8l1 3l1 -3q0 1 -1 11t-1 15q0 19 4 24q2 3 12 3q9 0 9 -18v-19q0 -11 -1 -14q-2 0 -3 -12q-1 -9 -1 -16q0 -2 1 -4l1 -3q0 -2 -0.5 -6.5t-0.5 -7.5q0 -2 1 -6l1 -3q0 -1 -1.5 -3t-1.5 -3q0 -7 -16 -7q-6 0 -6 30l-2 19h-7
q-1 -1 -4 -1q-8 0 -12 1q-1 0 -5 -0.5t-5 -0.5h-16q-1 -1 -7 -1z" />
    <glyph glyph-name="F" unicode="F" horiz-adv-x="507" 
d="M79 701l161 1q2 -1 10 -1h20l2 1h4q9 0 16 -1l10 -1h4q1 0 8.5 0.5t12.5 0.5q1 0 3 -0.5t3 -0.5l3 1l6 -2h12q41 0 43 -2h27q21 0 26 -1q1 1 3 1t3 -1h4q1 -1 1 -5q4 -7 4 -18q0 -1 -0.5 -7.5t-0.5 -8.5v-4v-7l1 -4q2 -26 2 -31q0 -35 -11 -35h-2q-1 -1 -3 -1q-4 0 -4 2
t-2 4.5t-2 4.5l-1 4q-1 3 -1 7q0 3 1 4t1 12q0 4 -1 14t-1 12l-1 3v14q0 3 2 21q-1 -1 -5 -1q-15 4 -21 4h-77q-2 2 -15 2h-9h-15q-2 2 -9 1l-5 -1l-44 -2q-2 0 -11.5 -0.5t-12.5 -0.5q-9 0 -12 1l-38 -3q-3 0 -3 1h-2q-5 0 -15 -2h-3q-2 0 -3 1l-2 1q-1 0 -6 0.5t-7 0.5
t-4 -1h-3v-5q0 -3 -0.5 -8t-0.5 -6v-6q0 -7 1 -10q0 -1 0.5 -3t0.5 -3t0.5 -6.5t0.5 -7.5q0 -8 -1 -21t-1 -16v-2l4 -49v-9q1 -8 1 -10t-1 -7v-5q0 -2 1 -10l1 -7v-6l-1 -4v-67l-1 -3v-3l1 -8v-35q0 -3 1 -8v-7v-8l4 -7h8q4 0 18 0.5t19 0.5h7l23 -1l3 -2q2 2 5 2h74l3 1h4
q2 0 6 -1t7 -1t6 3l3 -1l1 4q0 -3 1 -4q0 2 -1 12.5t-1 14.5q0 19 4 24q2 3 12 3q9 0 9 -18v-19q0 -11 -1 -14q-2 0 -3 -12q-1 -9 -1 -16q0 -2 1 -4l1 -3q0 -2 -0.5 -6.5t-0.5 -7.5q0 -2 1 -6l1 -3q0 -1 -1.5 -3t-1.5 -3q0 -7 -16 -7q-6 0 -6 30l-2 20q-4 0 -11 -0.5
t-12 -0.5l-5 -1q-1 0 -8.5 0.5t-10.5 0.5q-2 -2 -9 -2q-2 0 -8 1h-5h-9q-8 -1 -10 -1q-2 1 -8 1h-4q-5 -1 -7 -1h-8q-1 0 -10 0.5t-11 0.5q-22 0 -23 -3q-1 0 -8 1l-7 1h-5q-4 0 -5 -1v-36q0 -36 1 -47q0 -1 0.5 -8.5t0.5 -11.5l-1 -4q1 -1 1 -3v-20q0 -60 2 -62l-2 -30
q0 -4 1.5 -18t1.5 -17q0 -2 0.5 -13.5t0.5 -12.5q-1 -1 -1 -9l43 -2q2 0 2 -7q0 -1 -1.5 -2.5l-2.5 -2.5l-1 -2q-2 0 -8 -1l-6 -1h-10h-3.5t-8 0.5l-11 1t-10.5 1t-8 0.5h-3q-2 -2 -3 -2q-4 0 -16 0.5t-14 0.5q-1 0 -5 -0.5t-7 -0.5t-4 1l-14 1q-3 -3 -11 -3h-13q-2 2 -2 6
v4q0 5 4 5q26 2 59 2q-3 5 -3 10v6q0 50 -3 74l-1 11v22v12q0 2 -0.5 12t-0.5 14v61q0 52 -1 53l-2 38v185q0 5 -0.5 9.5t-1.5 7.5v2l-2 146q2 4 -3.5 5.5t-16.5 3t-16 2.5q-2 0 -8 -1h-5q-16 0 -16 5l6 9l51 -1q11 -1 20 -4q1 0 3 2z" />
    <glyph glyph-name="G" unicode="G" horiz-adv-x="586" 
d="M352 677q-22 0 -41 -3q-2 0 -6.5 -2t-6.5 -2l-3 -2q-1 -1 -5.5 -3t-8.5 -4l-6 -3l-3 -3q-2 -3 -3 -3l-8 -2q-9 -14 -18 -18q-1 -2 -5 -4t-4 -4l-20 -18q-1 0 -2 -1.5t-2 -3.5l-1 -2q0 -1 -1.5 -2l-3 -2t-2.5 -2q-4 -7 -12 -18q-25 -42 -26 -54q-8 -5 -12 -23t-9 -23
q-2 -6 -5.5 -22.5t-4.5 -19.5q-1 -4 -6 -29l-7 -42l1 -4l-1 -77q1 -2 1 -14q0 -1 4 -15.5t7.5 -28t3.5 -14.5q4 -16 10 -30t14.5 -30t13.5 -28q2 -5 14.5 -19t15.5 -20l15 -15q9 -4 20 -15q36 -24 46 -28q3 -2 13 -5.5t12 -4.5l10 -2q10 -1 12 -1h5q32 0 40 8q17 0 31 9l8 7
q7 7 12 7l47 47q0 1 -0.5 5t-0.5 5q0 5 2 21t2 20v6q0 5 -1 24.5t-1 25.5q0 14 1 18q0 5 -2 7q2 2 2 5l1 15v13.5t-0.5 9.5t-0.5 4q0 3 1 13t1 14v15q-7 3 -19 3h-9q-2 0 -16 -0.5t-18 -0.5h-6l-3 2h-11q-3 0 -9 6t-6 7q0 10 14 10h43q10 0 24 2l33 -2q1 -1 13 -4l24 -2
q3 0 3 -5q-3 -46 -4 -88q0 -24 -3 -25l2 -42q0 -5 -2 -7l1 -13q-1 -2 -1 -6v-4q0 -5 2 -7v-8q0 -3 -10 -19l-3 -3q-2 -4 -2 -5q-2 -2 -10 -13l-7 -11l-5 -5l-5 -6l-2 -2q-2 -3 -25 -20q-12 -13 -16 -14q-9 -4 -15 -10q-1 -1 -11.5 -5t-19.5 -9q-20 -8 -45 -12q-10 -2 -11 -2
q-30 0 -58 3q-4 0 -15 2t-17 2q-3 0 -8 1l-6 2q-3 0 -8.5 2t-6.5 2l-3 1q-3 1 -5 1q-4 0 -11.5 7t-12.5 7q-1 0 -4 3l-3 3l-17 12q-2 2 -8 6.5t-8 6.5q-19 14 -20 16t-7.5 12t-14 19.5t-8.5 7.5v5q-17 25 -20 35l-1 5q-1 3 -1 6q0 8 -7 15q-2 6 -2 8q-15 44 -18 60
q-3 13 -3 28q0 9 -0.5 31t-0.5 27q0 6 4 30q4 100 99 232q32 44 65 69l9 5q5 1 16 12q1 1 9.5 5.5t13.5 7.5q4 1 11 5.5t9 4.5l25 9q1 1 3 1h6q2 0 5 0.5t5 0.5q34 2 40 2q9 0 31 -2q3 0 44 -11l17 -5l3 -2q8 0 15 -4l4 -4q1 -1 8 -3.5t9 -4.5l3 -2l18 -12q0 -2 3 -3
q3 -3 6 -4.5l4 -2t1 -2.5t-3.5 -8.5t-3.5 -8.5l-23 -31q-1 -1 -7.5 -12t-13.5 -18t-12 -5q-5 0 -5 3q0 4 11 22t11 24q-13 16 -17 18q-11 3 -21 12q-25 19 -55 22q-1 0 -6 2.5t-7 2.5l-1 1h-2q-18 5 -29 5z" />
    <glyph glyph-name="H" unicode="H" horiz-adv-x="634" 
d="M128 275l-2 -13l1 -15q0 -6 -2.5 -42.5t-2.5 -46.5q0 -5 0.5 -26.5t0.5 -28.5q0 -4 1 -23t1 -26q0 -21 -1 -28q1 0 2 -1l2 -1q2 -2 7 -2h7l4 -1q22 -1 22 -7q0 -16 -33 -16h-53q-2 0 -12 1t-13 1h-5l-2 -1h-32q-4 0 -4 5q0 7 19 11q9 4 24 4h8l3 2l1 74q0 2 1 5v4l1 37
q0 15 3 21l-4 12l2 14v9v9l-1 7v18q0 5 1 5v5v5q-1 4 -1 6v4q0 3 2 19l-3 85l1 3v12q3 9 3 12v28q0 24 3 36l-1 57q0 2 -2 17l-1 15v10q0 2 -1 13t-1 13v14q0 2 0.5 11.5t0.5 12.5q0 6 -1 7v37q-1 1 -1 3.5t1 8.5t1 8t-4 2h-4q-2 0 -14 -1t-16 -1q-19 0 -24 4q-3 2 -3 12
q0 9 18 9h19q11 0 14 -1q0 -2 12 -3q9 -1 16 -1q2 0 4 1l3 1q2 0 6.5 -0.5t7.5 -0.5q2 0 5 1l4 1q2 0 3 -1.5t3 -1.5q7 0 7 -16q2 -38 2 -43v-5q0 -2 -0.5 -11t-0.5 -12v-11q1 -11 1 -13v-6l1 -3q0 -2 0.5 -5.5t0.5 -6.5l2 -10q0 -2 -1 -3l1 -87q0 -5 -1 -6v-10v-19l-1 -10
l1 -16q0 -10 5 -15h8q5 0 24.5 -1t25.5 -1l9 2q7 1 14 1q5 0 5 -1h96q8 -3 28 -4q1 0 6.5 -0.5t7.5 -0.5h4q1 0 8 1h7l97 1q3 1 12 1q1 0 7.5 -1.5t10.5 -1.5q0 13 3 16v51l3 3l-2 57l1 9v110q0 33 -1 42q0 8 -30 8q-11 0 -12 -1t-4 -1q-4 0 -7 1l-4 1q-2 0 -4.5 2t-4.5 2
t-2 4q0 2 1 3v2q0 11 35 11q5 0 31 -2l4 -1h7h4q2 0 8.5 0.5t7.5 0.5q23 0 24 -12q0 -3 -3 -5l1 -109q0 -13 -4 -20l-1 -37l1 -30l-2 -3q0 -46 -1 -53v-21v-4q0 -3 -1 -13t-1 -13l1 -4q1 -4 1 -6l-1 -3q0 -2 0.5 -19t0.5 -19v-11q0 -4 -2 -30q0 -1 -1 -4t-1 -4v-4
q0 -5 1.5 -21t1.5 -20q0 -8 -2 -14l-1 -40l1 -10l-1 -9l2 -30v-15q-1 -9 -1 -21l1 -2v-3q0 -2 -1 -3v-17q1 -1 1 -3v-6q0 -1 0.5 -3l0.5 -2q0 -3 -2 -5l1 -3q-1 -3 -1 -16l3 -12q14 -2 35 -2h11q4 -3 4 -10l-6 -5l-5 -1q-1 -6 -8 -6q-3 0 -5 2l-58 -1l-3 -1h-3q-2 0 -8 -0.5
t-7 -0.5h-4l-7 1h-11q-1 0 -3 1l-2 1h-4l-2 -1q-6 0 -6 5q0 12 16 13q2 0 10 1h9q3 2 3 16v25q3 12 3 16q0 1 -1 6t-1 7v7q0 4 -1 4v10q5 5 5 7l-1 4q0 1 -1 3t-1 3v3q-1 0 -1 3q0 13 1 19l1 9q3 0 3 8q0 4 -1 11t-3 13l-1 6q5 13 5 38l-1 34q0 1 1 8t1 9q0 3 -1.5 8t-1.5 7
q0 3 1 4v9l-1 10q0 15 -1 39h-14q-4 -4 -9 -4h-2q-2 1 -3 1q-4 0 -5 -1h-12q-1 -1 -6 -1h-38l-10 -1h-11h-3l-2 -1l-36 -1q-8 0 -24 2q-5 0 -5 4l-81 1q-1 1 -4 1q-2 0 -9 -0.5t-9 -0.5t-7 0.5t-6 0.5q-4 0 -7 -1l-25 -1q-3 0 -5 2h-11q-3 0 -11.5 -0.5t-10.5 -0.5h-5
q-5 -12 -5 -39q0 -2 2 -4l-1 -14l1 -20l-3 -2q0 -3 -2 -11z" />
    <glyph glyph-name="I" unicode="I" horiz-adv-x="199" 
d="M78 702l3 -1h89q11 -11 -1 -15q0 -3 -4 -3h-23l-19 2q-3 0 -3 -4v-12q1 -3 1 -15q0 -3 -0.5 -16t-0.5 -17v-45l2 -24v-4q1 -3 1.5 -10t0.5 -14q2 -27 3 -33v-81q0 -2 -1 -6v-4q0 -3 1 -4v-85q1 -29 3 -81q2 -2 2 -27q0 -1 1 -4t1 -4q0 -78 2 -80l-2 -32q-1 -1 -1 -10
t1 -15v-10v-12l2 -4q0 -1 -1 -7t-1 -9h44q2 0 2 -7q0 -1 -1.5 -2.5l-2.5 -2.5l-1 -2q-2 0 -8 -1l-6 -1h-10h-3.5t-8 0.5l-11 1t-10.5 1t-8 0.5h-3q-2 -2 -3 -2q-4 0 -16 0.5t-14 0.5q-1 0 -5 -0.5t-7 -0.5t-4 1l-14 1q-3 -3 -11 -3h-13q-2 2 -2 6v4q0 5 4 5q26 2 62 2v12
q0 65 -3 67v49q-1 23 -2 56.5t-2 43.5q0 5 -1 7v24q0 5 -3 38q0 2 0.5 11t0.5 11q0 7 -1 9l-2 147q0 21 -3 42l-2 146q1 1 -0.5 2.5t-6 2t-9 1.5t-10.5 1.5t-10 1.5q-2 0 -8 -1h-5q-16 0 -16 5l6 9l68 -1z" />
    <glyph glyph-name="J" unicode="J" horiz-adv-x="459" 
d="M123 6q-14 0 -28 10q-3 1 -15 13q-18 9 -37 47q-6 18 -11 29q-12 17 -12 24q1 7 12 7q4 0 5.5 -2t2 -5.5t1.5 -5.5q7 -14 12 -23l2 -5q3 -18 14 -35l3 -2l16 -14q3 0 21 -18q11 0 18 -7q17 -4 24 -10q1 0 8 -1h7h12q63 0 109 44q0 7 12.5 28t13.5 30q0 1 1 8t1 10t-0.5 7
t-1 5.5t0.5 3.5l2 21q0 1 -2 23q-1 6 -1 28v28q0 2 -0.5 11.5t-0.5 13.5v7v2q1 1 1 4q0 15 -2 21q0 1 0.5 16t0.5 16q0 3 0.5 15t0.5 16q0 11 -2 19v31l1 8v11t-1 11.5t-1 13.5q0 1 -2 59q-3 43 -3 66q2 6 2 26v4q0 4 -1.5 19t-1.5 19v4l1 3q1 4 1 6v9l-1 9q-5 0 -7 2
q-2 0 -7 -1.5t-7 -1.5t-10 -0.5t-11 -0.5q-1 0 -3 1l-2 1h-20q-16 0 -20 1q-8 0 -8 6q-1 8 16 8q6 2 12 2q6 2 12 2q3 0 12.5 -0.5t11.5 -0.5q8 0 9 1q2 0 3 -1h26q31 0 40 1l4 1h11l9 -1h72q10 0 10 -12q0 -4 -4.5 -7t-9.5 -4l-10 -2h-6l-36 2h-4l-4 -1l-4 1q-5 1 -7 1
q-5 0 -8 -3v-21q1 -4 1 -16q-2 -14 -2 -15v-14q0 -3 -2 -11l2 -5q1 -6 1 -8v-9q0 -13 3 -18q-1 -11 -1 -30v-5q1 -2 1 -9v-15l2 -14q1 -10 1 -20v-9l2 -4q2 -42 2 -77q0 -1 -0.5 -6t-0.5 -7v-4q0 -1 0.5 -8t0.5 -9l-3 -20v-5q0 -3 1 -4q-1 -3 -1 -13q0 -2 0.5 -14t0.5 -14
v-8l-1 -2v-3q0 -7 2 -11l-2 -22l-1 -22q0 -2 1 -14t1 -16q-10 -33 -13 -57q-7 -9 -14 -24q0 -2 -2 -4t-4.5 -5t-3.5 -4q-8 -13 -11 -14l-4 -1l-2 -6q-2 -9 -13 -17l-6 -2q-1 0 -9 -11q-7 -12 -25 -15q-6 -3 -16 -13q-2 -1 -24 -9l-21 -3q-2 -2 -10 -2h-6q-2 0 -5 1l-2 2
q-2 0 -8 -1t-7 -1q-18 2 -31 8l-6 2q-6 2 -7 6z" />
    <glyph glyph-name="K" unicode="K" horiz-adv-x="590" 
d="M608 -7q0 2 -4 2l-16 -3q-1 0 -8 2t-12 2l-38 12q-6 3 -19 7q-3 0 -12 9q-2 1 -11.5 7.5t-14.5 10.5l-1 3q-2 2 -10 9l-7 6q-3 3 -3 4l-11 11l-8 10q-5 5 -6 5q-2 1 -4 3.5t-3 4.5l-2 3l-5 2q-1 3 -3 5t-9 10t-9 10l-4 6q-4 5 -12 14.5t-18 19t-12 12.5l-2 3l-3 3
q-2 3 -11 12l-11 11q-1 0 -5 7l-8 8l-1 3l-4 1q-1 0 -7 8l-16 16q-10 3 -20 19q0 1 -1 1t-2 1q-3 0 -3 2q-2 1 -8.5 8.5t-9.5 9.5l-6 7q-6 8 -12 14.5t-9 6.5l-13 13q-2 0 -12.5 7.5t-14.5 7.5q-17 0 -24 -4q-1 0 -7 -6l-4 -3v-8q0 -4 1 -4v-77q-1 -1 -1 -5q0 -5 1 -6v-17
q0 -1 0.5 -2t0.5 -2v-76q0 -4 -0.5 -18t-0.5 -20q0 -3 1.5 -21t1.5 -22q0 -2 -1 -6l-1 -4q0 -7 4 -28l3 -2h5q2 0 14 -1t14 -1q1 0 8.5 0.5t10.5 0.5q1 0 7.5 -1.5t8.5 -1.5q1 -1 1 -4q0 -4 -2 -6q-12 -3 -21 -3l-3 1h-5l-4 -1q-4 -1 -6 -1q-1 0 -6 0.5t-6 0.5h-4q-2 0 -4 1
l-3 1q-1 0 -3 -2h-14q-3 0 -7 0.5t-7 0.5l-23 -2q-1 1 -8 1h-17q-5 0 -9 -1h-7q-4 0 -13.5 -0.5t-11.5 -0.5l-10 2q-3 0 -3 8q0 2 2 2q10 2 29 2q5 1 10 3t9 2l3 2l4 4l2 1v4v32q-1 18 -1 31l1 51q0 88 1 113l1 3v4v5q0 2 -4 6q-2 2 -1 2v62q1 1 1 4v5q0 83 -3 167
q0 26 -2 48l5 110q-2 0 -5 8l-3 8l-5 -1q-2 0 -3 1q-2 0 -7 -1l-5 -1l-9 3l-3 -2l-3 -1h-5q-21 0 -21 12l14 4l32 1q1 1 3 1q7 0 12 -1l8 -1h11q1 0 6.5 -1t7.5 -1q11 4 25 4q5 0 9 -10t4 -18v-14q5 -13 3 -22q0 -2 -1 -9t-1 -9q0 -3 1 -4v-122q2 -2 2 -5v-10q0 -4 -2 -4
q0 -17 -1 -38t-1 -38l-1 -24q3 0 4.5 1t3.5 4t3 4q43 43 47 48l9 10q20 21 41 38q2 1 12 15l32 31q2 1 8 7.5t12 13.5l6 7q6 7 19 19.5t17 17.5l19 27q8 10 38 40l17 17q1 1 1 6h-5q-3 0 -4 -1l-23 7q-1 0 -2 -0.5t-2 -0.5q-12 0 -12 6q0 5 4 5q14 2 17 2q4 0 17 -1t17 -1h5
q2 0 9 1t10 1q5 0 26 0.5t29 0.5q4 0 6 -2.5t0.5 -6t-5.5 -7.5h-30q-10 0 -21 -3q-1 0 -11 -10l-4 -3q-21 -17 -27 -29q-1 -3 -6 -3q-10 -18 -25 -30l-20 -25q-3 -4 -11 -12q-1 -2 -22 -23l-3 -5l-11 -11l-2 -2q-1 -1 -7.5 -6t-8.5 -7l-2 -4q-4 -9 -13 -16q-11 -8 -17 -18
q-7 -11 -43 -41q-2 -2 -5.5 -6t-4.5 -5l-14 -10q-1 -1 -8 -11.5t-10 -13.5l-6 -6q0 -1 -4.5 -4t-5.5 -5l3 -1q2 0 9 -0.5t9 -0.5q5 0 15.5 -5.5t11.5 -5.5h2l2 -1q12 -3 25 -10l4 -2l2 -1q2 -1 3.5 -2t4.5 -2.5t6 -2.5q41 -20 75 -59q15 -17 34 -36l21 -26l47 -52l3 -4
q10 -10 8 -10l1 -3q0 -1 1.5 -3t2.5 -3l2 -3l9 -10q2 -2 5 -7t6 -9t6 -4l16 -18q8 -5 9 -7q13 -16 51 -44l15 -12l16 -11q15 -12 37 -14h18l4 -3v-1q-1 -1 -1 -4q0 -4 -5 -4q-2 0 -17 -1.5t-19 -1.5z" />
    <glyph glyph-name="L" unicode="L" horiz-adv-x="504" 
d="M74 701h12q2 2 7 2q3 0 3 -2h72q11 -11 -1 -15q0 -3 -4 -3h-23l-20 2v-3l1 -2q0 -1 -0.5 -5.5t-0.5 -6.5v-17q1 -7 4 -13l1 -20q0 -21 -1 -27v-5l1 -3v-18q1 -5 1 -43v-18l1 -9v-15l-1 -8v-11v-51v-6l-1 -4q0 -3 1 -4v-85q2 -29 3 -81q2 -2 2 -27q0 -1 1 -4t1 -4
q0 -78 2 -80l-2 -29q-1 -1 -1 -10v-12l1 -5v-9l2 -4l-1 -14v-3q-1 -3 -1 -4q1 -1 4 -1h20q2 -2 3 -2h4l2 1h6l4 -1q3 -1 5 -1l6 1h4h6q4 -1 7 -1h6q6 0 19.5 -0.5t17.5 -0.5h7q2 2 4 2h3l2 -1q3 0 7 1l6 1l28 -3q1 1 6 1q2 1 5 1l3 1q3 1 11 1q2 0 8.5 -0.5t8.5 -0.5h26
q2 0 5 0.5t5 0.5t12.5 -1t14.5 -1h19h25q2 0 6 1l4 1q0 9 -0.5 18t-1 13.5t-0.5 6.5v4q0 2 -1 14t-1 16q0 19 4 24q1 3 12 3q9 0 9 -18v-19q0 -11 -1 -14q-1 0 -3 -12q-1 -9 -1 -16q0 -2 1 -4l1 -3q0 -2 -0.5 -6.5t-0.5 -7.5q2 -9 -1 -16q-1 -3 -6 -5q-6 -6 -13 -6
q-3 0 -3 1l-27 2l-3 1l-6 1h-32q-1 1 -6 1q-4 0 -20 -1t-22 -1h-10.5h-14.5l-6 1h-16l-3 -2q-3 -1 -18 -1h-4q-4 1 -6 1h-9q-2 0 -12 -0.5t-12 -0.5t-7 1.5t-6 1.5q-2 0 -11.5 -0.5t-13.5 -0.5h-54q-5 0 -7 1q-1 0 -3 -2q-2 1 -7 1h-8q-9 0 -12 1h-13q-4 1 -16 1
q-1 0 -5 -0.5t-7 -0.5t-4 1l-14 1q-3 -3 -11 -3h-13q-2 2 -2 6v4q0 5 4 5q26 2 62 2v12q-2 4 -2 12l-1 9q0 2 1 3v40l-1 3v49q-1 23 -2 56.5t-2 43.5q0 5 -1 7v24q0 5 -3 38q0 2 0.5 11t0.5 11q0 7 -1 9l-2 147q0 21 -3 42l-2 146q2 4 -3.5 5.5t-16.5 3t-16 2.5q-2 0 -8 -1
h-5q-16 0 -16 5l6 9l51 -1z" />
    <glyph glyph-name="M" unicode="M" horiz-adv-x="927" 
d="M0 9q0 4 4.5 9.5t9.5 6.5l34 1q4 0 10 14l5 14q2 8 15.5 57.5t16.5 64.5q1 4 4.5 13t3.5 11l22 90q0 3 2 12.5t3 9.5l16 81q1 9 8 30.5t7 24.5l16 54l7 19l6 21q0 4 10 28l3 10q1 2 5 21t8 26l14 47q0 7 -16 7h-23l-11 -1l-3 -1q-4 0 -7 -1l-4 -1q-2 0 -4 1.5t-4 1.5h-4
q-2 0 -3 1q-9 4 -11 12q0 5 5 8h27l2 1h2q2 0 3 -1q2 2 3 2l35 1q4 0 13 -0.5t12 -0.5q14 2 17 2l3 -1h6t3 1h5l11 -3l3 1q2 1 4 1h15h3q4 -1 6 -1l2 1h2h8q7 -2 12 -7q0 -5 -3 -11.5t-6 -6.5q-1 0 -8 -0.5t-9 -0.5q-4 0 -4 -4q4 -21 8 -34q6 -27 9 -30q7 -38 21 -83
q1 -1 1 -3l11 -30q3 -6 7 -20l1 -5q2 -5 4 -10.5t5 -15.5t7 -21q2 -7 8.5 -20t7.5 -16l11 -39q2 -5 5.5 -23.5t4.5 -21.5q4 -30 14 -53q5 -13 11 -30q0 -9 2 -11l2 -6l2 -6l2 -5q3 -33 15 -42l4 12q1 2 6 21q0 5 4 9l16 51q14 36 15 37v5l1 5q3 6 6 11l9 27q0 2 5.5 13.5
t6.5 16.5q2 3 4 13.5t4 14.5l7 17q1 3 7.5 25t9.5 29q16 38 16 45l19 43v6q0 3 18 48l9 18q9 19 11 26l2 3q2 4 6.5 10.5t4.5 7.5l11 22q2 6 2 7l2 3q2 3 2 5l13 1q1 0 8 1t10 1l63 1q12 -2 22 -1q2 0 3 1l2 1q2 0 5 -13l-1 -3q-1 -3 -5.5 -5.5t-5.5 -2.5t-6 0.5t-7 0.5
q-3 -1 -14 -1h-9l-3 -1h-15q-1 -3 -4 -3q-1 0 -4 1.5t-4 1.5q-4 0 -4 -8q0 -3 7 -24l20 -73q1 -6 6 -21t5 -18t1 -6v-4l4 -34q0 -1 3 -13.5t4 -16.5q1 -1 1 -3q4 -7 4 -20l1 -17l3 -5q0 -1 1 -3t1 -3v-9q3 -3 3 -10l8 -48q0 -1 1 -3t1 -3l9 -38l8 -21q0 -1 1.5 -10t2.5 -11
l2 -4q1 -3 2.5 -8.5t3.5 -11.5t4 -10l1 -3q1 -1 1 -8q0 -2 4 -10t4 -11q0 -6 3 -18q0 -1 2 -8.5l4 -15t4 -9.5q4 0 4 -15v-11l1 -4v-6l2 -17q0 -2 3 -10t3 -9q0 -2 4 -7t4 -7l-1 -3q-1 -4 -1 -6l3 -15q1 -1 1 -6h12q2 0 3 1h29q2 0 4.5 -4t2.5 -7q0 -6 -5 -6q-3 0 -5 -1
l-3 -2q-8 0 -9 -1q-3 0 -5 -1h-4h-23q-2 -2 -5 -2q-4 0 -8.5 1t-7.5 1l-4 2l-6 -2q-7 -2 -10 -2h-31q-3 0 -14.5 -1t-15.5 -1q-3 8 -3 13q3 7 43 14q6 1 0 9q-2 3 -2 5l-3 6q-2 9 -10 34t-9 29q-5 17 -5 27q-1 7 -13 58l-14 56q-1 4 -5 15l-3 12q0 3 -7 30t-7 31l-1 9
l-11 55q0 2 -1 4v3q0 1 -2.5 17.5t-3.5 24.5l-2 10l-1 23q-6 6 -6 20l-5 39q-3 6 -3 19v6q-3 23 -10 46q0 2 -1 5l-2 4v17q0 11 -6 11q-10 -8 -11 -16q-1 -2 -7 -13t-6 -12t-1 -5.5t-2 -8.5t-2 -6q-1 -3 -4 -9.5t-5.5 -12.5t-2.5 -9q-1 -3 -1 -5v-3q-1 -3 -1 -5l-3 -4
l-4 -16l-3 -3q-3 -2 -5 -4v-6q-22 -67 -23 -72l-1 -2q-1 -2 -1 -4q-5 -10 -12 -31l-3 -7q-4 -7 -4 -9q-4 -27 -5 -30q-1 -5 -4.5 -12.5t-7.5 -15.5l-5 -10l-7 -26q0 -9 -7 -16q-7 -12 -10 -27l-5 -18q-2 -5 -7 -21.5t-6 -19.5q0 -1 -1 -1l-1 -2q-3 -4 -7 -16.5t-6 -14.5
q1 -1 -2 -5l-1 -2q-2 -2 -3 -10t-3 -10l-5 -12l-1 -2q-2 -2 -4 -5t-2 -6q0 -2 -3.5 -11t-3.5 -10q0 -6 -3.5 -15t-6.5 -10q-2 0 -8 0.5t-9 0.5h-4l-6 11q-4 4 -10 26q-1 3 -6 13l-6 12v6q-2 6 -3 8l-2 4q-5 16 -7 18l-8 17q-3 8 -4 23q-1 3 -3 5q-8 14 -17 64
q-1 2 -3.5 12.5t-5.5 20.5l-3 10q-9 20 -9 42q-4 13 -10 27q0 1 -0.5 4t-0.5 4q-12 46 -15 49l-6 17q-8 19 -15 43l-9 34q0 1 -17 53q-1 3 -2.5 12t-1.5 12q0 1 -1 3t-1 3t-0.5 3t-1.5 4.5t-1 3.5l-1 3q0 2 -0.5 4.5t-1.5 5.5t-1 5l-1 3q-2 15 -10 17q-4 -12 -6 -20
q0 -1 -0.5 -6t-2 -10.5t-4.5 -7.5l1 -2v-3t-2 -9l-2 -6l-3 -6q-1 -1 -1 -4v-9q0 -3 -4 -12.5t-7 -11.5q-2 -6 -6 -26q-1 -1 -14 -44q0 -1 -1 -2q0 -3 -1 -5l-2 -7l-13 -39q-2 -3 -6 -24l-5 -20l-1 -8q0 -2 -0.5 -4t-1.5 -4v-1l-4 -14q-3 -32 -5 -38q0 -2 -1 -5l-2 -4
q-4 -7 -4 -23q-1 -5 -9 -25q-1 -4 -6 -42q-1 -4 -2 -5q-7 -23 -8 -30l-6 -15l-1 -6q0 -5 -2 -7l-9 -32q0 -3 -1 -7v-7q0 -1 -3 -6t-3 -7q-4 -20 -7 -27q-5 -5 -5 -15q-2 -5 -6 -14.5t-6 -14.5l9 -3h21h10l6 1h4q3 0 7.5 -3.5t4.5 -6.5q0 -1 -3 -6l-3 -5l-25 -5h-24
q-2 0 -5 1h-4h-6q-3 0 -15.5 -1t-16.5 -1l-17 -1q-18 0 -19 10z" />
    <glyph glyph-name="N" unicode="N" horiz-adv-x="609" 
d="M72 2q-1 0 -5 -0.5t-7 -0.5t-4 1l-14 1q-3 -3 -11 -3h-13q-2 2 -2 6v4q0 5 4 5q26 2 62 2v12q0 65 -3 67v49q-1 23 -2 56.5t-2 43.5q0 5 -1 7v24q0 5 -3 38q0 2 0.5 11t0.5 11q0 7 -1 9l-2 147q0 21 -3 42l-2 146q2 4 -3.5 5.5t-16.5 3t-16 2.5q-2 0 -8 -1h-5
q-16 0 -16 5l6 9l51 -1l17 -2l7 -5h2l2 1q7 0 17.5 -4.5t13.5 -9.5l15 -20l29 -48q2 -2 6 -16q7 -7 9 -11l2 -4q12 -17 30 -37q2 -4 6.5 -12.5t6.5 -12.5l5 -8q10 -11 21 -35l26 -34q0 -1 2 -6.5t5.5 -13t5.5 -10.5q24 -31 28 -42l9 -18q7 -19 30 -45l13 -22l47 -67
q0 -2 1 -3l2 -3l7 -9l9 -11l6 -12l3 -3l23 -36q13 -13 13 -14q28 -42 34 -44v7q0 35 -4 52l-1 1v3l1 4q0 5 -1 26t-1 27q0 3 1 16t1 17q0 1 -2 3v27q-1 15 -1 26v31q0 18 1 44v43v6q0 6 2 8v6q0 9 -0.5 38.5t-0.5 37.5q0 16 2 18v48q1 15 1 35l1 -9v5q0 14 1 32v33v5
q0 9 -19 9q-2 3 -7 3h-9q-3 0 -4.5 2t-2.5 4l-1 3l-1 2q0 1 3 3q1 -1 12 -1h12q12 0 15 -1l26 1q4 0 4 -12l-3 -10l-1 -1q-2 -1 -1 -5l1 -2q0 -11 -3 -15v-2v-7l1 -5l-3 -8v-2q0 -2 2 -4v-13q0 -3 -1 -6t-1 -6q0 -2 0.5 -8t0.5 -7q0 -4 -2 -10.5t-2 -8.5q0 -4 1.5 -13.5
t1.5 -12.5q0 -12 -1 -13v-125q0 -1 -1 -6t-1 -6q0 -4 1 -17t1 -16q0 -2 -1 -6v-3q0 -48 1 -85v-86q1 -7 1 -28q0 -22 1 -28l1 -5q3 -20 4 -53q0 -1 1 -6.5t1 -7.5v-11q3 -10 3 -25q0 -7 -3 -10.5t-7.5 -4.5t-5.5 -2h-8q0 1 -5 3l-2 4l-7 8q-7 7 -9 11q-1 2 -6.5 6.5
t-6.5 6.5l-1 2q-2 1 -3.5 3t-1.5 4q-15 15 -34 45q-4 1 -4 4q-10 10 -12 14q0 4 -3 4q-2 1 -3 2q-29 40 -30 45q-7 7 -27 39l-2 2q-1 2 -4.5 6t-6.5 8q-1 1 -3 7l-3 6q-7 8 -26 34q-2 2 -2 3q-3 6 -23 33q-3 3 -4 9q-2 3 -9 14.5t-9 14.5q-6 8 -8 13q-1 1 -5.5 8.5t-6.5 9.5
l-2 3q0 2 -7.5 11t-7.5 11q-21 37 -29 55l-1 3q-14 22 -14 25l-18 29q-3 3 -12 16l-11 16q-2 15 -9 21q-5 4 -21 30l-2 4q-2 0 -5.5 4t-6.5 8l-3 5l-3 5q-1 2 -3 5l-2 2v-45l2 -24l1 -4q0 -3 0.5 -10t0.5 -14q1 -27 3 -33v-43l-2 -8q-1 -9 -1 -11v-17q0 -12 3 -16v-27
q0 -1 0.5 -4t1 -9.5t0.5 -13.5t0.5 -13.5t1 -9.5t0.5 -4q1 -8 1.5 -28.5t0.5 -30.5v-50q2 -2 2 -4v-3q-1 -3 -1 -4q0 -2 2 -4v-135q-2 -4 -2 -8v-12l2 -4q0 -1 -1 -7t-1 -9h54q2 0 2 -7q0 -1 -1.5 -2.5l-2.5 -2.5l-1 -2q-2 0 -8 -1l-6 -1h-10q-2 0 -14 1.5t-13 1.5
q-2 -2 -3 -2q-4 0 -16 0.5t-14 0.5z" />
    <glyph glyph-name="O" unicode="O" horiz-adv-x="656" 
d="M305 -9l-20 3l-8 3h-1q-1 0 -2.5 0.5t-4 1t-4.5 0.5l-14 4q-2 0 -3 1l-3 2q-1 0 -3 1t-3 1l-5 1l-10 5q-4 4 -7 4q-1 0 -4 1t-4 1l-19 9l-13 9l-3 5q-9 5 -13 11l-6 6l-4 5l-5 6q-1 0 -16 19q-4 8 -6 9l-2 3l-2 4q-12 12 -12 16q0 1 -2 6l-1 4l-16 34q-1 6 -8.5 21.5
t-7.5 18.5q-1 2 -6 33q0 1 -1 3l-2 3q-2 6 -3 11l-1 8l-4 12q-6 28 -6 29v50q4 11 4 15v10q3 7 5 19q4 31 8 40q3 10 6 29q3 6 4 7l2 4q3 8 33 76q3 6 4 7l28 39l2 4l1 3l8 9q0 1 2 4t2 4l7 8l7 10q3 0 3 5q0 2 2 4q32 23 36 23q19 13 26 14l3 3l4 2l5 1l5 1l5 1l15 6
q15 6 18 6q20 0 21 1q6 -1 23 -1h12q8 0 11 -1q2 -1 24 -7h5q29 0 46 -15q9 0 11 -6q3 0 7 -4q7 0 14.5 -6t10.5 -13l8 -7q1 -3 5 -6t5 -3q5 0 14.5 -10.5t13.5 -17.5l9 -10q1 -4 2.5 -9t2.5 -8.5t4 -7.5l2 -4l2 -2q3 -3 3 -8q1 0 2 -1t2 -1q7 -7 7 -16l18 -39q4 -7 4 -18
q0 -1 1 -3t2.5 -5.5t3.5 -7.5q1 -2 2 -7t2 -7l4 -14q5 -5 5 -42l-1 -9l1 -1q0 -1 0.5 -4.5t0.5 -8.5q3 -37 -1 -41v-7q0 -7 -1 -8v-20q0 -6 1 -8l-1 -4q0 -2 -1 -6l-2 -5q-1 -3 -5.5 -24.5t-7.5 -28.5l-2 -4q-3 -4 -9 -17t-7 -15q-13 -26 -24 -40q-4 -13 -5 -14q-2 -1 -5 -5
t-5 -7l-3 -4q-23 -29 -26 -37q-10 -14 -20 -22l-7 -10l-6 -5q-4 -9 -25 -17l-7 -3q-6 -3 -7 -4q-2 0 -7 -5l-8 -3q-11 -6 -21 -8q-3 -1 -8.5 -3.5t-7.5 -2.5q-7 -4 -15 -6q-20 -6 -38 -6h-10q-8 0 -9 1zM225 67q3 -1 8.5 -6.5t7.5 -5.5l9 -4l3 -3q3 -4 4 -4l11 -6
q6 -2 24 -9q3 -1 18 -1h12q12 0 15 -1q12 -2 28 -2h9l20 5l16 7q2 1 6 5l5 4q25 17 31 22q15 15 21 19q13 13 34 47q20 34 25 51l5 22q4 19 4 23v5q0 8 3 11l-1 35q0 7 2 15v25q1 3 1 13q0 53 -16 105q-1 3 -6 26q-6 15 -12 27l-8 20l-2 3q0 1 -2 5t-2 5t-12 29q-2 5 -15 23
q-18 31 -21 35l-13 12q-9 9 -10 12l-7 3q-6 3 -7 4q0 1 -10.5 5.5t-12.5 4.5l-3 3l-4 2l-7 3q-3 1 -10 2.5t-10 3.5l-3 2q-2 1 -12 1q-7 0 -8 1l-9 -1q-5 1 -22 1q-34 0 -57 -13q-2 0 -12.5 -8t-11.5 -9l-16 -11q-4 0 -13 -12q-1 -1 -2 -5t-2 -6t-2 -2q-2 0 -3 -1
q-1 -2 -2.5 -6t-1.5 -5q-20 -28 -36.5 -72t-19.5 -80v-18q1 -1 1 -3t-1 -8l-1 -5q0 -6 -1.5 -16.5t-1.5 -15.5q0 -1 1 -4.5t1 -5.5v-30q-2 -2 -2 -19l1 -4l1 -4q0 -2 1 -12v-10q1 -1 4 -19q7 -28 16 -51q4 -18 7 -22q3 -3 3 -8l5 -16l5 -10t4 -9q1 -12 11 -22l3 -4
q1 -2 5.5 -11.5t6.5 -12.5q30 -30 33 -34z" />
    <glyph glyph-name="P" unicode="P" horiz-adv-x="437" 
d="M245 362l-13 -1q-2 0 -6.5 -1.5t-5.5 -1.5q0 1 -3 1t-5 -1h-4l-15 -3q0 2 -8 2q-1 0 -4 -1h-3q-6 0 -9.5 0.5t-7.5 0.5h-14q-17 0 -18 -3q0 -1 -1 -3t-1 -3v-37q0 -2 1 -7v-4v-4l2 -66q2 -2 2 -27q0 -1 1 -4t1 -4q0 -78 2 -80l-2 -32q-1 -1 -1 -10t1 -15v-10v-12l2 -4v-1
q0 -1 -0.5 -2.5t-1 -4t-0.5 -4.5l4 -3h14l12 1h12q2 -2 5 -2h10q16 0 16 -11q0 -6 -14 -6h-12q-1 1 -5 1t-20 0.5t-19 0.5h-109q-1 0 -5.5 0.5t-6.5 0.5h-5q-2 0 -2 11q0 9 22 9q5 0 16 -1t12 -1q3 0 10 0.5t9 0.5l-2 227v2q-1 1 -1 2v24q0 5 -3 38q0 2 0.5 11t0.5 11
q0 7 -1 9l-3 138q0 46 -1 51l-2 137q-1 2 -1 8q0 2 -3 2l-22 -1q-2 0 -4.5 1t-5.5 1q-8 1 -16 1h-5q-10 0 -10 12q0 5 31 5h8t4 -0.5t2 -0.5q2 0 14.5 1t13.5 1q6 2 13 2h30q1 0 3 -1t3 -1h4q4 0 4 -1q3 1 8 1h22q2 0 7 -1h6q4 0 5 1q3 1 10 1q2 0 8.5 -0.5t8.5 -0.5h23
l38 -2q12 -3 17 -3l12 -4l2 -1q2 -1 3 -1q16 -5 27 -14l14 -11q8 -7 15 -14q31 -35 39 -54q11 -30 11 -34l1 -5v-5q0 -3 0.5 -12t0.5 -12v-11q0 -13 -4 -22q0 -10 -6 -23q-7 -23 -21 -40l-8 -12q-2 -3 -13.5 -10.5t-12.5 -8.5l-28 -16l-6 -1l-3 -1l-6 -4q-5 -4 -11 -4
q0 -1 -5 -3t-7 -2q-3 0 -7.5 -1.5l-7.5 -2.5t-3 -2q0 -2 -13 -3zM124 660q0 -6 2 -8q0 -22 1 -25q0 -39 1 -69q1 -31 1 -72q0 -14 -2 -16v-60l2 -5v-22q0 -4 10 -4q5 0 19 -0.5t19 -0.5h10q5 0 34 6q26 4 28 8q11 0 24 9q11 5 19 9q20 14 36 36q12 15 19 75v19l-1 8
q-1 7 -1 9l-2 6q-19 51 -40 72q-19 14 -27 22q-4 0 -9.5 4t-7.5 4q-1 0 -10 3l-9 2q-2 0 -10.5 3t-9.5 3l-8 1q-9 1 -11 1h-8h-4q-4 1 -6 1h-5q-4 0 -4 1h-34l-6 1q-5 1 -7 1q0 -2 -1.5 -10t-1.5 -12z" />
    <glyph glyph-name="Q" unicode="Q" horiz-adv-x="659" 
d="M289 -18h4l3 1h6l-14 2l-8 3h-1q-1 0 -2.5 0.5t-4 1t-4.5 0.5l-14 4l-3 2l-3 1l-5 1q-1 0 -3 1t-3 1l-11 5q-4 4 -7 4q-1 0 -4 1t-4 1l-19 9q-7 7 -11 10l-3 5q-7 3 -21 20q0 1 -3.5 2.5t-4.5 1.5l-5 6q-2 2 -7 9t-6 8q-4 8 -6 10l-2 3l-2 4q-13 13 -13 16q0 1 -1.5 5
t-1.5 5l-16 35q-1 6 -8.5 21.5t-7.5 18.5q-1 1 -6 34l-1 3l-2 3q-2 4 -3 12l-1 7l-4 13q-6 28 -6 29v41q4 11 4 22v10q3 6 5 20q4 31 8 40q3 9 6 30q3 6 4 7l2 4q4 11 34 77q3 6 4 7l23 40l2 4l1 3l8 9q0 1 2 4t2 4l7 8l8 11q12 6 15 9q1 1 13.5 12t17.5 11q19 13 27 14l4 2
l3 3l5 1l5 1q3 1 5 1q25 13 33 13q21 0 22 1q6 -1 23 -1h12q9 0 12 -1q2 -1 24 -7h5q28 0 47 -16q9 0 11 -6q3 0 7 -4q7 0 14.5 -6t10.5 -13l9 -7q1 -3 5 -6t5 -3q5 0 14.5 -11t13.5 -18l9 -10q2 -2 4 -9l1 -8q3 -3 5 -8l2 -4l2 -3q3 -3 3 -8q1 0 2 -1t2 -1q7 -7 7 -16
l18 -40q4 -7 4 -18q0 -1 1 -3t2.5 -5.5t3.5 -7.5q1 -2 2.5 -7t1.5 -7l4 -15q6 -6 6 -42l-1 -9v-2q1 1 2 -10.5t1 -24.5t-2 -16v-8q0 -7 -1 -8v-6q-1 -5 -1 -8v-6q0 -4 2 -8l-2 -4q0 -2 -1 -6l-2 -5q-5 -32 -13 -54l-2 -4q-3 -4 -9 -17.5t-7 -15.5q-14 -28 -24 -41l-2 -6
q-2 -6 -4 -8q-2 -1 -5 -5l-6 -8l-2 -3q-20 -26 -26 -38q-10 -14 -20 -22l-2 -1q-1 -2 -3 -4.5t-3 -4.5l-6 -5q-4 -9 -25 -17l-7 -4q-6 -3 -7 -4q-2 0 -7 -5l-9 -3q-11 -6 -21 -8q-3 -1 -8.5 -3.5t-7.5 -2.5l-7 -3l42 -15q35 -18 57 -36q31 -27 44 -31l2 -2q2 -1 4.5 -2.5
t4.5 -1.5h6l5 -1q2 0 9.5 -3t10.5 -3l4 -1h8h8q15 0 19 4q16 9 21 14l7 4l7 3q1 0 4.5 4t8.5 7.5t10 3.5l1 -3q1 -3 1 -5l-2 -3l-1 -1q-1 -1 -2 -2.5t-3.5 -4l-4.5 -4.5l-5 -4l-1 -1q-2 -2 -4.5 -4t-5.5 -5q-7 -4 -8 -5l-5 -2l-7 -3l-5 -4q-5 -3 -12 -3h-5q-5 0 -11 -2
q-1 0 -2 -1t-3 -1l-4 -3q-7 -4 -19 -4q-3 0 -11 1.5t-10 -0.5h-6h-4q-10 0 -12 3q-4 0 -11.5 2.5t-9.5 2.5q-21 4 -33 11q-2 1 -4 1q-1 0 -7 4.5t-8 4.5l-2 1l-4 4l-6 2l-8 8q-3 3 -16 8q-4 1 -4 4t-2 4q-4 4 -10 4q-29 21 -53 21q-4 2 -9 2h-19q-3 -3 -8 -3h-17
q-8 0 -18 -2q-2 -1 -11 -2.5t-10 -1.5q-3 0 -20.5 -7.5t-24.5 -7.5l-5 -6l-11 -1q0 -2 -6 -3l-4 -2l-4 -1q-1 -1 -14 -11q-13 -9 -18 -9q0 6 9.5 17t15.5 14q2 0 6 4q3 5 26 14q2 1 10.5 3.5t10.5 4.5q1 0 4 3l3 3l14 5q8 2 11 5q44 6 50 9zM227 59q3 -1 9 -6.5t8 -5.5l9 -4
l3 -3l4 -4l11 -6q6 -2 24 -9q8 -2 19 -2h12q12 0 15 -1q12 -2 29 -2h9q3 2 10.5 3.5t9.5 2.5l16 7q2 1 7 5l5 4q25 16 31 22q15 15 21 19q14 14 35 48q22 38 25 52q2 2 6 23q4 20 4 23v5q0 8 3 11l-1 36q0 7 2 15v25q1 3 1 13q0 45 -17 104q-1 3 -3 13.5t-3 13.5
q-6 15 -12 27l-8 20l-2 4l-2 5l-2 5q0 1 -12 29q-2 4 -9 13.5t-7 10.5q-18 31 -21 35l-13 12q-9 9 -10 12l-7 4q-7 3 -8 4q0 1 -10.5 5.5t-12.5 4.5l-4 2l-3 3l-7 3q-4 2 -11 3t-10 3l-3 2q-2 1 -12 1q-7 0 -8 1l-9 -1q-5 1 -22 1q-35 0 -58 -13q-1 -1 -12 -8.5t-13 -8.5
l-16 -12q-4 0 -13 -12q-1 -1 -2 -5t-2 -6t-2 -2q-2 0 -3 -1q0 -2 -1.5 -5.5t-2.5 -5.5q-21 -28 -37.5 -73t-19.5 -82v-18q1 -1 1 -3t-1 -7l-1 -6q0 -7 -1.5 -17.5t-1.5 -15.5q0 -1 1 -8t1 -9v-21q-2 -2 -2 -19l1 -4l1 -4v-12l1 -10q1 -1 4 -20q7 -28 16 -51q5 -19 7 -23
q3 -3 3 -8l5 -16l2 -4q2 -5 4.5 -9.5t2.5 -6.5q1 -11 12 -22l3 -4q1 -2 5.5 -11.5t6.5 -12.5q17 -17 33 -35z" />
    <glyph glyph-name="R" unicode="R" horiz-adv-x="587" 
d="M67 534l-2 137q-1 2 -1 8q0 2 -3 2l-11 -1q-2 0 -8.5 1t-9.5 1q-8 1 -16 1h-5q-10 0 -10 12q0 5 31 5h11.5h10.5l5 -1q2 0 6.5 1t5.5 1q6 2 13 2h30l6 -2h4q4 0 4 -1q3 1 8 1h22q2 0 8 -1h5q4 0 5 1q3 1 10 1q2 0 8.5 -0.5t8.5 -0.5h23l22 -2q12 -3 17 -3l12 -4q1 0 2 -1
q2 -1 3 -1q37 -10 43 -14l14 -11q8 -7 15 -14q32 -35 39 -54q11 -30 11 -34v-5q1 -3 1 -5q0 -3 0.5 -12t0.5 -12v-11q0 -13 -4 -22q0 -10 -6 -23q-7 -23 -21 -40l-8 -12q-2 -3 -13.5 -10.5t-12.5 -8.5l-28 -16l-6 -1l-3 -1l-6 -4q-5 -4 -11 -4q0 -1 -5 -3t-7 -2
q-3 0 -7.5 -1.5l-7.5 -2.5t-3 -2q0 -3 3 -7l2 -5q12 -17 28 -50l2 -3v-1q1 -1 1 -2l18 -34l8 -11l1 -3q4 -9 24 -40l3 -5q11 -11 13 -22q1 -2 6 -8.5t11.5 -15.5t13.5 -19q22 -33 41 -53q17 -19 39 -37q22 -22 34 -26l13 -6.5l10 -5t9.5 -2.5t15.5 -1h9q4 3 10 3q5 0 5 -6
q0 -7 -8 -12l-5 -1q-3 -1 -5 -1h-6q-2 -2 -5 -2q-19 0 -25 1q-2 0 -3 0.5t-6.5 1.5t-14.5 2q-29 4 -31 9l-14 4q-2 3 -10 3l-3 4l-3 3l-12 6l-4 1q-2 0 -7 8q-1 2 -6.5 5t-7.5 5q-7 13 -12 16q-1 1 -9 8t-10 9q-12 12 -16 24l-9 9l-25 35q-5 7 -20 27l-22 33l-2 4l-2 3
l-14 26q-2 6 -16 25q-4 4 -8 16l-5 10q-2 4 -6 11.5t-6 10.5q-3 4 -7 14q0 1 -4 8t-4 8t-1.5 4t-1.5 5l-4 4l-3 1l-2 2q0 2 -8 2l-3 -1h-4q-6 0 -9.5 0.5t-7.5 0.5h-14q-16 0 -18 -3q0 -1 -1 -3t-1 -3v-37v-7l1 -4v-4l2 -66q2 -2 2 -27q0 -1 1 -4t1 -4q0 -78 2 -80l-2 -32
q-1 -1 -1 -10v-15l1 -10v-12l2 -4v-1q0 -1 -0.5 -2.5t-1 -4t-0.5 -4.5l4 -3h14q1 0 2 0.5t2 0.5q2 -2 5 -2q26 0 26 -14q0 -6 -14 -6h-12q-1 1 -5 1q-3 0 -9 0.5t-10 0.5q-8 0 -50 1.5t-51 1.5h-8q-1 0 -5.5 0.5t-6.5 0.5h-5q-2 0 -2 11q0 9 22 9q5 0 16 -1t12 -1
q3 0 10 0.5t9 0.5l-2 227l-1 2v2v24q0 5 -3 38q0 2 0.5 11t0.5 11q0 7 -1 9l-3 138q0 46 -1 51zM123 660q0 -6 2 -8q0 -22 1 -25q0 -39 1 -69q1 -31 1 -72q0 -14 -2 -16v-60l2 -5v-22q0 -4 10 -4q4 0 19 -0.5t19 -0.5h10q6 0 34 6q26 4 28 8q10 0 24 9q11 5 19 9
q19 14 36 36q12 15 19 75v19l-1 11q-1 11 -1 13l-2 6q-18 47 -35 64q-19 14 -27 22q-4 0 -9.5 4t-7.5 4q-1 0 -12 3t-12 3q-2 0 -10.5 3t-9.5 3l-9 1q-8 1 -10 1h-8h-4q-4 1 -6 1h-5q-4 0 -4 1h-34l-5 1q-6 1 -8 1q0 -2 -1.5 -10t-1.5 -12z" />
    <glyph glyph-name="S" unicode="S" 
d="M215 -8l-34 -3q-8 0 -17 3l-31 7l-11 4q-11 2 -11 4l-24 18q-1 1 -15 12l-19 28q-2 2 -5 9l-4 6q-7 7 -7 20q-7 10 -7 13l2 5l9 17l6 6l20 30l9 10l9 -10q0 -3 -3 -5l-3 -6q-2 -2 -3 -4l-1 -2l-3 -6l-5 -10q0 -1 -4.5 -9t-4.5 -10q1 -4 1 -11q0 -5 6 -19t6 -15
q3 -2 15 -20l8 -8q0 -2 3 -5l8 -7q8 -6 18 -11l18 -8q9 -5 18 -6l8 -2h12q3 0 9 0.5t11 0.5l5 1l34 5l41 18q40 37 40 44q13 20 13 66q0 45 -15 72l-48 61l-36 36l-39 34q0 1 -10 11l-11 11q-2 3 -18 19t-22 24q-29 42 -45 83q0 1 -0.5 2t-0.5 2q-9 32 -10 37l-3 30v6l1 5
q0 16 10 37q16 29 26 41q44 53 134 60l38 -2l33 -7l6 -4q5 -4 8 -4q23 -17 24 -19l25 -34l9 -15q8 -8 8 -20q6 -9 6 -14l-1 -5l-10 -16l-6 -7l-19 -30l-10 -9l-6 6l-2 3q-3 2 3 8q1 0 2 1.5t2 3.5l1 2l3 6l3 5q2 6 4.5 11t1.5 5v2q2 2 2 10q0 5 -1 6q-5 16 -11 22
q0 1 -6 12.5t-7 12.5q-4 4 -8.5 9t-6.5 7l-11 11q-2 2 -7 5.5t-7 5.5l-18 7q-8 2 -14 2h-7l-6 -1q-24 0 -37 -5h-4l-20 -5q-12 -4 -25 -11q-43 -36 -43 -83q0 -79 41 -126q3 -4 16.5 -19t16.5 -19l91 -79q21 -21 24 -27l22 -34q0 -1 6 -11.5t7 -11.5q8 -10 14 -40l5 -16
q2 -9 3 -28l1 -22q0 -4 -2.5 -16t-2.5 -15q-5 -22 -17 -39l-16 -22q-7 -11 -11 -14q-16 -18 -48 -40l-12 -6l-35 -8l-4 1q-10 0 -15 -1z" />
    <glyph glyph-name="T" unicode="T" horiz-adv-x="567" 
d="M62 657l1 -5l1 -7q1 -7 2 -9v-2q0 -2 -1 -12t-1 -14q0 -11 1 -12t1 -4t-1 -6l-1 -5q0 -2 -2 -4.5t-2 -4.5t-4 -2h-3l-2 1q-11 0 -11 35q0 18 1 23q0 4 -1 7v4q0 4 0.5 16t0.5 14v5q-1 1 -1 4q0 8 8 14l8 6h4q6 6 10 6h13q2 -2 4 -2l4 1q4 0 9.5 0.5t8.5 0.5q1 0 3 -0.5
t3 -0.5h17q12 0 16 -3h5q4 0 14.5 -1t12.5 -1t6.5 1t5.5 1q2 0 11 -1t11 -1t10 1t9 1q3 0 3 -1h5l-3 -1h5q6 0 15.5 1.5t14.5 1.5q4 0 14.5 -0.5t12.5 -0.5h7q5 -3 10 -3q2 0 10 1t10 1q7 0 12 0.5t12 0.5h9q6 -2 16 -2q3 0 4 1h9q1 1 6 1q2 0 11 -1l9 -1l4 1q1 0 6 0.5
t7 0.5l4 -1q6 -2 8 0q3 -1 10 -1q2 0 12 1t14 1h6q0 -1 3 -1q5 0 12 1.5t11 1.5q0 -5 5 -7q0 -6 -1 -8v-1q1 -1 1 -2q0 -2 -1 -5l-1 -2v-41q2 -26 2 -31q0 -35 -11 -35l-2 -1h-3q-4 0 -4 2t-2 4.5t-2 4.5l-1 5q-1 3 -1 6t1 4t1 12q0 4 -1 14t-1 12q0 6 3 22v24q-6 -2 -7 -2
t-19 3h-9q-1 -3 -14 -3h-18q-7 0 -10 -1q-2 2 -5 2q-2 0 -5 -1h-3h-9q-2 -2 -6 -2h-5q-2 0 -4 -1t-4 -1h-11q-2 0 -9.5 -0.5t-9.5 -0.5l5 1h3h-16q-20 -4 -21 -6q0 -2 -1 -13v-11v-5q0 -4 -1 -6q-1 -20 -1 -91v-69l-2 -11q0 -4 2 -6l2 -48l1 -44q0 -14 2 -34q0 -22 1 -25
v-85q1 -1 1 -5v-26q0 -1 -1 -4t-1 -4v-31q0 -100 -2 -102v-27q3 0 4 1q1 0 6 -1l5 -1h1q1 -1 3 -1h13q5 0 5 1h17q11 0 11 -6q0 -7 -9 -9t-10 -3q-2 -1 -8 -1h-20q-1 1 -5 1q-2 0 -16 -2h-30h-2l-2 -1l-6 2q-2 0 -4 -0.5t-3.5 -0.5h-2.5l-2 -1l-2 1l-2 1l-6 -1q-6 -1 -8 -1
q-13 0 -14 1l-13 1q-1 -1 -6 -1h-6h-4q-3 1 -5 1l-1 5q-1 4 -1 6q0 7 5 7q14 0 16 1h2q1 1 4 1q1 0 4 -1t4 -1l22 4l-1 2v3v9q-1 1 -1 5q0 3 1 5v126v4l-1 3q0 9 1.5 53t1.5 54q0 7 -1.5 40.5t-1.5 41.5v32q1 1 1 3v1q-1 1 -1 2q0 3 1 9t1 7q0 4 -1 13t-1 11v8v16l-1 21
q-2 22 -2 24q-1 7 -1 65q0 25 2 39l1 3q2 8 2 13q0 2 -1 11.5t-1 13.5v8l-7 1q-1 -3 -7 -3l-3 1l-3 1l-17 2l-3 1h-48l-4 2l-3 1q-2 0 -5 -1l-3 -1q-2 0 -12 1t-14 1h-13q-25 0 -37 3h-9q-3 0 -4 1q0 -7 -4 -11v-11z" />
    <glyph glyph-name="U" unicode="U" horiz-adv-x="631" 
d="M320 -25l-3 1h-9q-5 0 -18 5l-4 1h-1q-1 -1 -2 -1l-5 2q-2 1 -8 1q-14 2 -21 6q-1 0 -5 4q-4 0 -4 2l-5 2q-4 0 -6 2q-2 0 -5 3q-5 3 -12 1q0 1 -16 13q-14 14 -16 14l-9 10l-1 6h-6l-3 4q0 1 -2 3l-6 9q-5 6 -12 21q-6 14 -10 21l-9 20q-4 7 -5 20l-2 8l-18 48l-4 15
q-1 10 -5 15l-6 46l-4 13q-4 5 -4 13v12q0 1 -2 7q-2 8 -2 10v6v2q1 1 1 3l-1 4v6q-1 4 -1 17v8q0 18 -6 29q0 2 0.5 11.5t0.5 13.5q0 2 -0.5 11.5t-0.5 13.5v15q0 1 -0.5 7.5t-0.5 8.5v36v4v7.5t-0.5 10.5t-0.5 12v11v89q0 17 -7 18h-2q-1 1 -2 1h-8q-2 0 -3 -1h-2h-4
q-7 0 -7 2q-2 2 -9 2h-6q-9 2 -9 13t18 10h3q5 0 8 -1h1h2l6 -1q1 1 4 1h4q4 0 6 -2h11q15 0 20 1q18 2 21 2h10q14 -5 15 -19l4 -12l1 -5v-7q0 -3 -1 -4l-4 -9q0 -1 -0.5 -5t-0.5 -5l-1 -2l-1 -22q-1 -7 -1 -18q0 -7 -1 -8v-21v-4q1 -3 1 -5t-1 -3v-5q0 -12 1 -15v-20
q4 -9 4 -24q0 -2 -0.5 -12t-0.5 -14q0 -17 1 -22q0 -3 1 -4l1 -4v-5l1 -4q0 -13 1 -18q2 -16 2 -17q3 -9 3 -22q0 -2 0.5 -6t0.5 -5v-5q0 -2 1 -3v-2l1 -6q0 -6 1 -8v-1l1 -2v-4l-1 -2v-2l-1 -6v-4q3 -9 4 -18q0 -4 4 -4l-1 -2v-5q-1 -1 -1 -4v-5q1 -5 4.5 -17t3.5 -13
l2 -14q0 -2 2 -4l1 -5q0 -4 1 -5l1 -2v-3q6 -25 6 -26q2 -6 2 -9q1 -6 4 -9l5 -15q3 -9 3 -10l4 -11q7 -22 13 -31l10 -18l25 -30q4 -8 12 -15q5 -5 15 -11l33 -17q10 -7 24 -7h6q6 0 8 1l5 1q3 0 13 -2h20q19 13 28 14q5 3 26 24l33 35q6 6 6 10q0 2 3 5q4 1 7 6l19 24
q1 1 1 3l1 3l3 7q0 1 3 7q2 10 6 21l2 4q6 6 11 23q2 16 7 28v1q1 1 1 2l2 13q0 4 2 12q3 12 3 29q4 4 5 16t3 14q1 2 1 7q0 2 -1 3v40l-1 4q0 8 2 10q1 5 1 29q-2 6 -2 8l1 3v8q0 2 1 5v3l3 135q5 20 5 38q0 2 -0.5 6t-1 10.5t-0.5 12.5v23l-3 12l-1 2v2l-3 9q-2 0 -7 1
l-4 2q-2 0 -4 -2l-3 -2h-2q-1 1 -4 1l-4 -1h-6h-3q-2 0 -7.5 -0.5t-8.5 -0.5q-2 0 -4 1l-3 1q-8 2 -8 11q0 8 8 11l19 3h12q8 0 22 2l15 2q5 0 8 1q2 0 3 1q14 0 14 -8q0 -9 -2 -11q-1 -1 -1 -4v-4q0 -1 2 -7l1 -2v-2l-1 -2q-1 -1 -1 -3v-3q-1 -4 -1 -6l-3 -5q0 -3 1 -4
q2 -6 2 -13q0 -4 -1 -4v-11v-7l1 -5l-2 -26v-19l-3 -2v-14v-2l1 -2q0 -2 -1 -5t-1 -8v-15q0 -2 -1 -6v-3v-62v-2q1 -1 1 -3v-20l1 -4q0 -3 -2 -9v-39q-2 -2 -2 -7v-9v-1q1 -1 1 -2v-6l-1 -2v-5v-2q1 -1 1 -3q1 -2 1 -9q0 -21 -11 -48v-20q-7 -6 -7 -22v-7v-2l-2 -4t-1 -4
q-3 -31 -7 -37l-10 -18q0 -1 -1 -3t-1 -3l-5 -12l-1 -2v-2q0 -8 -3 -11l-4 -4l-1 -4q-1 -7 -7 -14q-6 -5 -6 -6l-18 -27l-9 -9q0 -3 -3 -6q0 -1 -5 -6l-3 -3q-1 -1 -10 -9l-6 -10l-11 -10l-6 -1l-2 -2q-2 -3 -4 -5l-1 -3q-7 -1 -8 -4q-4 -4 -14 -4q-1 0 -2.5 -1t-3.5 -2
l-4 -2l-11 -6q-4 -3 -15 -5q-1 0 -5 -0.5t-9 -1.5q-3 0 -6.5 -1t-10.5 -1h-7h-3q-2 1 -4 1z" />
    <glyph glyph-name="V" unicode="V" horiz-adv-x="630" 
d="M328 -9q-7 7 -9 16q-14 21 -40 99l-8 14l-22 49q-5 13 -8 17l-26 65l-5 16v1q-1 1 -1 3l-16 41q-12 34 -14 36l-12 32q-3 3 -7 17q0 1 -1 2t-1 2q0 3 -2 5q-5 12 -5 14l-1 1v2l-2 6q-1 1 -1 7q0 1 -5 13l-6 17l-2 10q-5 5 -6 10q-1 1 -1 4l-6 15l-10 42q-3 11 -4 14l-2 2
l-2 2l-9 30q-5 8 -12 32v1l-1 2l-1 1q0 1 -0.5 3t-0.5 3l-4 16l-1 1v3q-1 1 -2 5.5t-2.5 8.5t-2.5 4t-9 2l-2 1h-3h-9q-1 -1 -6 -1h-6q-5 0 -6 1q-5 4 -10 4q-2 3 -6 5q0 13 15 13q4 0 22 -2h20h2q1 1 3 1t6 1h5q3 0 4 -1h7l2 -1h4l15 2q13 0 37 -2h14h2q1 -1 3 -1h6
q2 -2 10 -2q3 0 3 -6q-1 0 -1 -3q0 -4 -3 -7.5t-7 -3.5l-2 1h-4h-3q-3 -1 -5 -1h-15l-5 1l-4 -2l3 -23q0 -5 1 -6l1 -2v-4q0 -1 1 -3t1 -3l1 -3q1 -2 2 -5t1 -5l1 -5l13 -40q1 -12 15 -44l5 -11l4 -10q5 -10 7 -13l1 -6q0 -4 9 -22q2 -11 5 -17q3 -5 5 -17q1 -5 4 -15l7 -14
q3 -3 4 -11l6 -14l6 -12q2 -2 2 -5q1 0 3 -2l18 -45l19 -57q0 -5 3 -8q1 -2 1 -4l9 -30q5 -5 5 -9q1 -3 4 -9t4 -9l12 -26q2 -2 6 -14q0 -5 3 -8l7 -16q2 -11 6 -20q0 -1 1 -3l1 -2l2 -5l9 22q0 7 6 19l4 15q2 5 3.5 10.5t2.5 8.5t1 4v5v1q1 1 1 4l9 24l1 4l1 4q4 14 5 18
q5 16 9 23l3 6q3 9 4 16q0 2 1 3v2l1 2l15 35q6 19 10 28q16 44 30 95l4 12q2 2 3 7l4 12q1 4 7 24l3 10l6 20l7 16q0 11 11 28q1 5 3 6q0 1 2 5q0 7 3 7q0 1 0.5 2t0.5 2l9 33q0 3 1 6v1q1 1 1 2q0 3 2 3l6 19q0 1 -0.5 2t-0.5 2l5 10q1 1 1 4l-3 1h-2q-1 -1 -4 -1l-4 1
l-4 -3q-3 -1 -18 -1q-3 0 -4 1q-2 2 -6 2h-5q-6 0 -6 8q0 3 5.5 6t8.5 3q8 0 12 1q2 0 6 1h3h17q8 0 12 1l1 1h2h2q2 -1 5.5 -1.5t6.5 -0.5q8 -2 10 -2l12 5l1 1h3q6 0 7 -1l3 -1h3h4q1 0 4.5 -2.5t3.5 -3.5q0 -4 -1 -5l-3 -11h-11q-8 0 -9 1l-1 1h-2q-5 0 -6 -1l-1 -1h-3
l-6 -2h-4q-1 0 -6 -3l1 -1v-2q0 -2 -3 -6l-6 -15q-2 -6 -5 -16q-3 -15 -5 -21l-6 -19q-2 -6 -4 -8t-2 -4l-1 -1v-3l-16 -40l-2 -6l-3 -11q-3 -3 -3 -5q0 -1 -1 -2t-1 -3t-3 -7q-1 -1 -1 -3v-5q0 -3 -10 -27l-1 -3q-2 -8 -2 -10l-1 -3v-3q-1 -2 -2.5 -5.5t-1.5 -5.5v-2v-1
q-1 -1 -1 -2l-2 -6q-4 -14 -7 -20l-5 -18q0 -1 -0.5 -2t-0.5 -2l-10 -30q0 -5 -2 -7v-2q-1 -1 -1 -2l-4 -2l-3 -10v-2q-1 -1 -1 -3q-1 -1 -1 -5l-6 -12l-6 -16q-4 -10 -6 -19q-5 -16 -9 -23v-6q-2 -8 -3 -8l-5 -8q0 -1 -2 -7q-1 -6 -9 -21l-4 -10q0 -2 -1 -8l-1 -6
q0 -4 -1 -4q0 -1 -1 -3t-1 -3l-4 -17q-3 -4 -5 -21l-4 -12l-6 -12v-8q0 -5 -1 -6l-2 -3l-1 -5l-3 -11q-2 -10 -2 -11q0 -6 -1 -8v-2q-1 -4 -2 -7v-2v-6q0 -1 -3 -16l-1 -2v-3v-2q-1 -1 -1 -3q-1 -3 -1 -10q0 -13 -8 -13h-6q-5 -1 -9 -1q-3 0 -7 4z" />
    <glyph glyph-name="W" unicode="W" horiz-adv-x="1044" 
d="M593 286q-15 35 -19 57q-1 3 -4 10.5t-3 9.5q0 16 -6 32l-7 18q-1 1 -6 23q-8 21 -15 52q-1 1 -7 25l-7 24l-8 41q-1 -1 -6 -17l-3 -5q0 -2 -2 -7.5t-3 -6.5l-3 -5l-5 -15l-11 -19l-1 -6l-6 -10l-1 -3v-5l-5 -9q-5 -9 -6 -13q0 -9 -4 -13l-2 -2q-9 -16 -9 -29
q0 -2 -3 -6.5t-4 -5.5q0 -2 -1 -5v-3l-2 -5l-1 -3l-1 -3l-2 -3q-3 -3 -4 -10l-1 -5q0 -3 -1 -6l-2 -5l-2 -3v-8q0 -6 -5 -11l-1 -3q-2 -4 -7 -13.5t-5 -11.5l-8 -25q-14 -34 -24 -61q0 -2 -3 -5.5t-3 -4.5q-1 -2 -2 -6l-2 -8t-1 -5l-4 -4q-1 -1 -4 -18l-2 -4q-1 -4 -2 -5
l-6 -20q-2 -3 -14 -36q0 -1 -2 -4t-2 -4q-1 -3 -4 -10.5t-3 -11.5v-8q0 -1 -2 -3l-1 -3v-6l-5 -10q-5 -8 -5 -16q0 -1 -6 -19l-7 -9q0 -6 -4 -7h-11h-3l-2 -1q-1 0 -3 8q0 2 -1 4l-2 2q-3 2 -4 4q-6 12 -6 13q-4 7 -4 18l-2 3l-1 3l-14 46q-1 4 -5 14t-4 11q-1 3 -3.5 13.5
t-8 33t-10.5 44.5l-7 24l-4 16t-9.5 36t-12.5 49q0 1 -2 8t-2 8q-8 24 -9 28q-2 4 -5 17t-4 17q0 1 -4.5 12t-5.5 15v6l-1 5q-2 5 -2 6l-1 5q-1 3 -1 5t-3 11t-4 13q0 1 -0.5 3t-0.5 3l-2 8q-14 59 -24 96q-1 5 -9 39t-10 39q-14 3 -44 4l-7 1q-8 2 -10 2h-2l-2 -1
q-4 0 -4 10l9 6q5 0 7 6l148 -6l9 1h9q16 -3 16 -9q0 -8 -10 -8l-6 2l-3 -1q-3 -1 -6 -1l-8 -1q-1 -1 -9 -1l-4 -2q-1 -1 -1 -2t-1.5 -2.5t-5.5 -3.5v-6q0 -3 2.5 -14.5t2.5 -13.5l2 -4q2 -10 2 -26v-9q0 -1 1.5 -7t4.5 -8l1 -3l1 -4q1 -3 1 -5l3 -3q2 -3 10 -33
q0 -1 2 -6.5t2 -7.5q0 -1 4 -23q0 -2 1 -4l1 -4q1 -3 9 -40q0 -1 2 -7t3.5 -11.5t1.5 -8.5q1 -15 12 -56q2 -4 3 -16l2 -12q0 -2 3 -6t3 -6q6 -28 15 -50q2 -5 7 -23t6 -20q7 -19 19 -70l1 -8l1 -8q0 -10 3 -13q0 -13 3 -22l1 -1q0 -1 0.5 -3t0.5 -4l2 -7q0 -6 3 -9l11 36
q11 25 19 48l1 3q1 6 10 30q2 4 4 10l12 29q2 8 12 31.5t11 28.5q13 27 25 63q4 12 8 23.5t6 17t2 7.5q0 1 1 5l2 8t2 6l26 62q0 1 5 11l13 29v4q11 20 23 59l5 10q4 11 4 15q0 2 -2 7l-2 6q-3 12 -3 28q0 2 1 6v4q-2 0 -6 1l-4 1q-2 0 -7.5 -1.5t-6.5 -1.5q-2 0 -8 1.5
t-7 1.5q-17 0 -17 11q0 12 7 12q3 0 4 -1h34q2 2 12 2h21q21 0 24 -3h65q2 0 2 -5q0 -1 -8 -9l-8 -6q-4 -4 -15 -4l-2 1h-3q-8 0 -8 -8q0 -10 7 -35v-5l1 -5q1 -1 9 -25q3 -8 9 -30l2 -3q0 -5 3 -14l2 -3v-7q0 -9 3 -13l1 -8q1 -9 1 -11q1 -1 3 -7t3 -8q10 -31 10 -44
q2 -6 9 -25t8 -24q1 -4 8 -28.5t9 -30.5q5 -15 14 -39q1 -4 3.5 -14.5t5 -20t4.5 -14.5q4 -12 13 -45q10 -32 10 -35q1 -2 3 -9.5t3 -9.5q0 -1 1 -5t2.5 -10.5t3.5 -12.5l9 -30q1 0 7 15q4 15 6 18v4l1 3l3 3l6 19l2 3q1 4 2.5 8t1.5 6v3q1 5 3 7l2 2l8 27q1 1 3 6t3 5
q5 11 14 38q1 0 1 1t1 2q1 0 1 3l18 42q3 10 12 31q4 7 4 11l1 4q1 3 1 5q1 2 2 5l2 2q1 1 10 38l2 5q3 5 4 11v4q1 4 7 18t7 17q2 5 6.5 21t6.5 21l7 13q9 22 12 39l9 33q2 3 14 36q5 17 19 53q-3 1 -7 1t-15 -1t-13 -1h-8q-2 0 -7 5t-6 8q-2 1 8 11l7 2q3 1 41 1q4 0 6 -5
q2 6 12 6h4q2 0 3 -1h43l16 -2l9 -4q22 -8 3 -15q-6 -3 -14 -3l-3 1h-35l-8 -1l-8 -13l-8 -10l-1 -4q-1 -3 -1 -5t-4 -9t-5 -9v-10q0 -2 -4 -9l-4 -7q-10 -40 -14 -44l-2 -18q-10 -17 -12 -18q0 -13 -5 -21l-2 -4l-2 -3q-1 -10 -7 -20l-4 -20q-4 -4 -4 -10l-3 -2
q-6 -10 -6 -24l-4 -11l-4 -4l-12 -40q-1 -3 -4 -9.5t-3 -8.5l-1 -6v-6q-1 -2 -5 -7t-4 -6q-3 -18 -16 -38q-3 -17 -6 -21l-3 -3l-2 -3q-2 -2 -6 -21q-1 -1 -1.5 -2.5t-1.5 -3t-1 -2.5q-2 -4 -5 -13q0 -2 -1 -4v-3l-3 -3q-6 -8 -8 -19v-4q0 -1 -3 -7.5t-4 -8.5v-7l-2 -2
q-3 -3 -4 -5q-4 -26 -11 -38q-11 -23 -14 -33l-7 -13l-1 -3l-8 -21l-1 -5q-1 -3 -1 -5q0 -1 -3 -6t-5 -10.5t-2 -8.5q0 -2 -3 -6l-3 -3q0 -9 -17 -9q-6 0 -10 7q-2 6 -2 9q0 5 -10 39q0 2 -1 3l-1 2l-16 33q-5 25 -8 33q-10 25 -12 32v4l-1 3q-11 53 -22 88q-1 2 -2 9t-2 9
q0 1 -4.5 11t-5.5 14z" />
    <glyph glyph-name="X" unicode="X" horiz-adv-x="706" 
d="M507 8l5 7q8 2 13 2q4 1 19 1q2 0 6 -2l4 -1q1 0 3 2t3 2q5 0 5 4q-1 0 -4.5 5t-5.5 6q-4 6 -16 19.5t-16 19.5q0 1 -5.5 8t-11.5 15.5t-8 11.5q-13 24 -16 27q-1 1 -6 7t-9 11t-6 8l-46 60l-3 3l-2 3q0 1 -2 3t-5 5.5t-6 7.5q-12 13 -12 17q-7 4 -42 57q0 1 -3 5.5
t-7 4.5q-3 0 -8.5 -5.5t-11.5 -13.5t-8 -10q-1 0 -2 -2l-1 -2q-2 -1 -4 -3l-3 -4q0 -1 -2 -3t-2 -3l-15 -16l-5 -9q-7 -6 -9 -12q-4 -11 -18 -22q-2 -5 -10 -15.5t-9 -11.5q-4 -4 -7 -13q-2 -2 -9 -13q0 -1 -13 -21q0 -2 -4 -3t-4 -3l-1 -5q0 -1 -3 -3t-3 -3l-5 -9l-3 -6
q-3 -6 -4 -7q-3 -4 -7 -8l-16 -23l-3 -2q-3 -2 -6 -4.5t-3 -3.5l-1 -4q0 -2 -3 -4.5t-6 -4.5l-3 -2l-1 -4q0 -3 -14 -19l-4 -6q2 -3 8 -3h16l2 1q3 2 5 2q23 -3 23 -15q0 -4 -2 -6q-1 0 -9.5 -1t-11.5 -1q-1 0 -4.5 0.5t-5.5 0.5l-30 -1q-11 0 -12 -3l-7 2q-2 2 -3 2h-2
q-1 -1 -3 -1h-9q-15 0 -25 -2q-1 -1 -3 -1q-18 6 -19 8l1 1q1 1 2 1l2 3q8 8 24 8q3 0 8.5 -0.5t7.5 -0.5h4h4l3 1h6q9 9 46 57q9 13 19 27t14 19.5t4 6.5q9 1 47 66q20 26 31 43q1 1 15 26q17 18 26 33q1 2 12 14t19.5 23.5t8.5 15.5q0 1 1 6t1 7l-3 1q-2 2 -14 17
q-20 22 -48 64l-13 20q-5 7 -31.5 45t-33.5 47q-19 22 -21 26l-6 5q-4 4 -6 9q-20 28 -38 46l-14 23q0 2 -4.5 8t-4.5 8t-4 2h-16q-4 0 -4 -1h-12q-2 -2 -3 -2q-8 0 -8 3l-2 8q0 6 9 8q5 1 23 1q14 0 17 1h18q1 0 7.5 -0.5t8.5 -0.5q1 0 3 0.5t3 0.5q15 0 23.5 -1.5
t11.5 -1.5h49q2 -2 2 -5t-1 -4l-1 -3q-6 -7 -23 -7h-7q-7 0 -8 -1h-14l-2 -3q1 -1 22 -28q2 -3 5 -6t5 -6t4 -7l1 -1q0 -1 1.5 -3t2.5 -4l4 -7l3 -4l11 -11q8 -10 11 -13q5 -5 11 -17l3 -2q6 -8 8 -14l32 -37q2 -2 6.5 -10t6.5 -10q12 -11 15 -20l17 -22q1 -2 9 -14.5
t10 -14.5q5 -1 7 -6q2 -2 4 -10t9 -8q2 0 3 1l41 52q1 4 7 10l29 35q4 4 9.5 12t10 16t5.5 9l8 8q8 9 9 15q1 1 5 6.5t12.5 16.5t17.5 24l3 3q9 15 25 34q1 1 7 7.5l12 13t10 9.5l4 11h-3l-3 -1h-7l-2 -1h-3l-7 2h-2h-16q0 -2 -3 -2q-2 0 -5 1l-3 1q-6 0 -6 7q0 2 -2 5l-2 2
q0 7 15 7l4 1l42 -1q1 1 3 1t9 -1l7 -1h1q1 -1 2 -1q3 0 11 1t10 1h5q6 0 8 -2l42 1q1 -1 2 -1q2 -1 3 -1q6 0 6 -8q0 -5 -5 -7t-6 -3l-1 -1l-2 -2q-3 0 -5 2h-50q-3 -4 -7 -8l-4 -4l-6 -6t-9 -10l-11 -9q-14 -14 -17 -22q-7 0 -27 -38l-13 -14l-2 -6q-3 -5 -7 -10.5
t-7 -6.5l-5 -8q-3 -1 -6 -6.5t-3 -7.5q-1 -2 -6.5 -6.5t-7.5 -7.5q-26 -34 -36 -53q-2 -2 -8 -8.5t-8 -8.5l-12 -18l-3 -2l-9 -8q-2 -2 -6.5 -9.5t-5.5 -9.5q-11 -11 -11 -16l3 -4l7 -12q12 -15 17 -27q0 -1 4 -4t4 -5q3 -10 7 -16q2 -2 9.5 -11t9.5 -11l1 -3q1 -2 5 -6.5
t4 -5.5l12 -18l14 -17l2 -4q3 -7 16 -20q9 -7 14 -22q2 -2 10 -11t14 -17t6 -11q8 -6 24 -27q1 -2 9.5 -18t11.5 -21l3 -2q2 -2 4.5 -4t3.5 -4q3 -4 8 -10.5t9.5 -13.5t5.5 -8l4 -4q6 -6 7 -11l4 -4t4 -3l1 -1h27q1 1 5 1q13 0 22 -4q9 -6 9 -14l-1 -4q0 -4 -9 -4
q-4 0 -10 -1h-10l-20 2q0 1 -6 1l-9 -1q-1 -1 -6 -1h-14q-4 0 -9.5 1t-7.5 1h-5q-5 0 -7 -2q-21 -3 -34 0h-16q-2 0 -6 -1h-5q-8 0 -14 10z" />
    <glyph glyph-name="Y" unicode="Y" horiz-adv-x="671" 
d="M282 0h-27q-2 1 -7 1l-2 1h-5q-4 0 -5 -1l-3 -1q-1 0 -5 -0.5t-5 -0.5q-9 0 -9 6q0 13 15 14l43 2q8 0 9 3v5q0 9 1 11q-1 2 -1 8v12q0 4 1.5 18t1.5 17q0 9 -1.5 39t-1.5 38q0 11 1 13q0 12 1 33q0 7 0.5 23t1.5 22l1 7q1 5 1 9q4 20 5 73q0 8 1 12q-2 2 -14 17
q-20 22 -48 64l-13 20q-5 7 -31.5 45t-33.5 47q-19 22 -21 26l-6 5q-4 4 -6 9q-20 28 -38 46l-14 23q0 2 -4.5 8t-4.5 8t-4 2h-16q-4 0 -4 -1h-12q-2 -2 -3 -2q-8 0 -8 3l-2 8q0 6 9 8q5 1 23 1q14 0 17 1h18q2 0 8 -0.5t8 -0.5q1 0 3 0.5t3 0.5q15 0 23.5 -1.5t11.5 -1.5
h49q2 -2 2 -5t-1 -4l-1 -3q-6 -7 -23 -7h-7q-7 0 -8 -1h-14l-2 -3q1 -1 22 -28q2 -3 5 -6t5 -6t4 -7l1 -1q0 -1 1.5 -3t2.5 -4l4 -7l3 -4l11 -11q8 -10 11 -13q5 -5 11 -17l3 -2q6 -8 8 -14l32 -37q2 -2 6.5 -10t6.5 -10q12 -11 15 -20l17 -22q1 -2 9 -14.5t10 -14.5
q5 -1 7 -6q2 -2 4 -10t9 -8q2 0 3 1l41 52q1 4 7 10l29 35q4 4 9.5 12t10 16t5.5 9l8 8q8 9 9 15q1 1 5 6.5t12.5 16.5t17.5 24l3 3q9 15 25 34q1 1 7 7.5l12 13t10 9.5l4 11h-3l-3 -1h-7l-2 -1h-3l-7 2h-2h-16q0 -2 -3 -2q-2 0 -5 1l-3 1q-6 0 -6 7q0 2 -2 5l-2 2q0 7 15 7
l4 1l42 -1q1 1 3 1t9 -1l7 -1h1q1 -1 2 -1q3 0 11 1t10 1h5q6 0 8 -2l42 1q1 -1 2 -1q2 -1 3 -1q6 0 6 -8q0 -5 -5 -7t-6 -3l-1 -1l-2 -2q-3 0 -5 2h-50q-3 -4 -7 -8l-4 -4l-6 -6t-9 -10l-11 -9q-14 -14 -17 -22q-7 0 -27 -38l-13 -14l-2 -6q-3 -5 -7 -10.5t-7 -6.5l-5 -8
q-3 -1 -6 -6.5t-3 -7.5q-1 -2 -6.5 -6.5t-7.5 -7.5q-26 -34 -36 -53l-8.5 -8.5t-7.5 -8.5l-12 -18l-3 -2l-9 -8q-1 -2 -5.5 -9.5t-6.5 -9.5l-9 -9l-1 -2v-20q-2 0 -3 -3.5t-1 -11v-10.5v-8l-1 -2q-1 -1 -1 -4q0 -2 0.5 -7t1.5 -9v-5q0 -1 -1 -15t-1 -15t-0.5 -2t-0.5 -2
q0 -10 -1.5 -38.5t-1.5 -39.5v-13q-1 -1 -1 -10l1 -3q0 -5 -3 -11v-21q-3 -5 -3 -10v-3q1 -3 1 -5t-1.5 -6t-1.5 -6l1 -4v-5l-2 -16v-6q0 -3 -1.5 -10.5t-1.5 -9.5v-4q0 -2 0.5 -10.5t0.5 -11.5q0 -2 -1 -3q4 0 17 -0.5t17 -0.5h6q1 -1 5.5 -2.5t8.5 -3t4 -2.5q0 -12 -7 -13
l-11 -2l-13 1h-5q-5 1 -7 1t-8 -2l-5 1h-6q-5 0 -5 -2q-2 -2 -11 -2h-10q-3 0 -4 1h-12q-5 0 -6 1z" />
    <glyph glyph-name="Z" unicode="Z" horiz-adv-x="566" 
d="M359 1l-21 1l-28 3l-2 1h-3q-5 0 -11 -2h-1l-3 1q-4 1 -6 1q-3 0 -7 1l-6 1h-10l-20 2h-22l-19 2h-21h-5q-6 -1 -8 -1l-14 -2l-12 1l-21 -2q-1 -3 -23 -3l-4 -1q-4 -2 -7 -2q-15 0 -22 -1l-3 2q-3 2 -5.5 4t-5 4.5t-2.5 4.5l-3 7q-3 7 -6 15.5t-3 11.5l1 1v2q24 36 27 44
l49 92q3 6 4 7q4 5 9 14.5t10.5 20t6.5 12.5q3 4 15 22l23 34.5t15 24.5l28 52q4 4 7 13q46 74 52 83q2 4 17 29l11 20q4 7 14 20l24 40q3 4 15 19.5t16 20.5l10 11q31 31 31 38q-2 0 -8 -2l-7 -1l-10 1q-15 -2 -22 -2h-13q0 1 -11 1q-1 0 -2 -0.5t-2 -0.5h-15q-1 1 -6 1h-7
q-4 1 -27 1h-7q-7 1 -9 1q-3 0 -4 1l-15 2q-5 0 -11 0.5t-7 0.5l-2 1h-4h-9l-8 1h-16q-17 0 -22 1l-10 2q-4 0 -14 -2h-21l-7 -1h-11l-23 -11q-16 -10 -23 -13q0 -2 -1 -3q-3 0 -3 -6q0 -1 5 -8l5 -5l4 -9q2 -2 3 -8l4 -9q2 -2 2 -7l-1 -1l-2 -1q-3 -3 -8 -3l-16 18l-16 29
l-4 13l-22 29q-7 11 -7 17t9 8l3 1q27 -33 27 -34l18 8q3 4 10 6t15.5 4t10.5 3l4 1q12 4 15 4h4q2 0 9.5 0.5t8.5 0.5l17 3h17q8 -2 17 -2h11q2 2 9 2h7l4 -1h2l26 -3q24 -2 35 -2q1 0 15 -0.5t19 -2.5h77q2 0 10.5 -0.5t11.5 -0.5q3 3 13 3q4 0 4 -3q11 4 28 4q1 0 7 -0.5
t7 -0.5l3 -3q1 0 4 -2t4 -2l3 -3q0 -1 -1 -3l-1 -2l-5 -11l-10 -12l-2 -5q-1 -3 -1 -5q-2 -3 -4.5 -6.5t-6.5 -7t-7 -7.5q-1 -2 -5 -8t-6 -7q-12 -16 -20 -24l-12 -18l-14 -15q-2 -1 -3 -4.5t-3 -5.5t-6 -9l-3 -7q-1 -2 -5 -6l-7.5 -7.5t-3.5 -4.5l-1 -4v-5l-2 -1
q-1 -2 -3 -4.5t-4 -4.5l-5 -15q-6 -10 -13 -17l-1 -4q-10 -18 -30 -44q-1 -1 -6 -9l-10 -16t-7 -12q-3 -4 -8 -13t-10.5 -19.5t-6.5 -13.5q-15 -25 -17 -30q-6 -6 -7 -11q-7 -12 -11 -17l-9 -11l-5 -11q-1 -2 -6 -5.5t-6 -5.5q-3 -4 -13 -29q-2 -2 -2 -3l-6 -7q-2 -2 -2 -7
q-3 -3 -7 -12l-2 -3l-2 -4q-2 -3 -6 -11l-8 -16q-32 -54 -38 -70l-10 -13q-7 -11 -7 -16v-7q-3 -3 -8 -3q2 -3 6 -3q10 0 22 4q1 0 17 0.5t21 2.5h34q14 0 15 1h6q5 0 20 -1t19 -1h9q5 0 46 -6q10 -2 37 -3t28 -1h79q31 3 32 4l16 2l2 1q5 3 10 3q0 1 1 2l2 2l-1 3
q-5 0 -5 10l-4 9q-1 1 -1 4l-11 24q-1 1 -1 6q0 2 4 2q3 3 15 3l15 -25q4 -17 11 -33l3 -11l7 -13l6 -21q6 -6 6 -7q-2 -3 -17 -3q-3 0 -10 11.5t-9 11.5q-11 -7 -27 -7q-4 0 -8 -4l-13 -1q-1 0 -6 -1t-7 -1h-13h-6q-6 1 -7 1q-8 -2 -13 -2q-18 3 -37 0q-24 0 -24 2z" />
    <glyph glyph-name="bracketleft" unicode="[" horiz-adv-x="232" 
d="M65 -50q-12 0 -12 27v4q0 4 1 5v21q0 6 -1.5 31.5t-1.5 33.5q0 3 0.5 11.5t0.5 10.5l-1 10q-1 6 -1 13q0 5 1 5v22q-1 0 -1 3t1 4l1 64q-1 2 -0.5 3.5t1 5.5t0.5 7q0 1 -0.5 9t-0.5 9l2 6v5q2 10 2 19v7q0 8 -1.5 42t-1.5 41q0 43 2 49v13q0 8 1 39.5t1 41.5q0 8 -2 37.5
t-2 38.5v18q1 3 1 12q0 12 -1 16l1 80l4 23q1 10 12 10h7q2 2 4 2l5 -1q4 -2 6 -2q9 0 20 -3q8 0 34 -0.5t34 -0.5q2 0 10 0.5t11 0.5q5 0 6 -3l1 -3v-3q0 -2 4 -7q5 -9 -1 -10q-3 1 -9.5 3.5t-9 3.5t-4.5 -1q-7 -3 -31 -3q-4 0 -5 1q-4 0 -16.5 1t-17.5 1q-3 1 -13 1v-9
q0 -1 1 -7v-5v-34q-1 -3 -1 -30l1 -6v-8q0 -1 0.5 -2t0.5 -2q3 -18 3 -45q0 -15 -1 -20q-2 -4 -2 -12l1 -4v-5q0 -3 -2 -29q0 -1 -0.5 -6.5t-0.5 -7.5q0 -4 0.5 -17t0.5 -16q0 -2 -0.5 -11t-0.5 -13q0 -6 1 -29t1 -29q0 -7 -1 -13v-10l1 -10l1 -10v-3q-1 -2 -1 -4v-4l1 -7
q1 -4 1 -9q0 -4 -1 -4q-2 -58 -2 -146v-67l-1 -3v-12q0 -51 -3 -54q-2 -32 -2 -34v-6q0 -14 4 -14l19 -2q1 -1 4 -1t12 2.5t12 2.5h19q3 0 3 -4h4q7 0 8 1q0 2 8 2h12q1 0 2 -1q1 -3 3 -3l11 -11q1 -1 1 -3q0 -6 -10 -6q-1 0 -6.5 1.5t-7.5 1.5q-5 0 -7 -2l-69 -1l-3 1
q-2 1 -4 1h-16q-12 0 -15 1q-2 0 -9 1.5t-10 1.5z" />
    <glyph glyph-name="backslash" unicode="\" horiz-adv-x="253" 
d="M283 -34h-5l-2 2q-1 2 -4 6l-6 8q-9 13 -24 29l-2 3q0 1 -9 14q-2 2 -8 12t-8 13q-5 6 -9 21l-2 3q-4 6 -15 31.5t-16 33.5q-7 7 -7 9l-1 5q-1 2 -5 9t-5 8q-2 2 -5 10t-4 10l-17 35q-1 2 -1 5l-1 2q-7 17 -10 21l-1 2q-1 1 -1 3q-1 3 -8 20t-9 23l-27 56q-11 29 -19 48
l-3 5q-2 2 -6 17q-1 4 -8.5 18t-8.5 18q-3 4 -7 22q-8 17 -26 68l-1 3l-4 6t-2 4t-1 5l-1 4q-1 3 -7 24.5t-8 28.5q-1 5 -7 33q-1 1 -6 26q0 1 -2 4.5t-3 7.5t-1 8q0 20 16 20q5 0 11.5 -9.5t9.5 -17.5l5 -13v-7l2 -3q1 -2 1 -4q4 -7 4 -13l-1 -3v-4l3 -6l12 -22v-7l9 -17
l1 -4q0 -2 6.5 -13t6.5 -16q0 -1 2.5 -6t5.5 -10l2 -5q2 -2 3 -8l1 -5q11 -20 29 -65l3 -6l3 -3q5 -16 17 -36l7 -19q1 -4 7.5 -15t8.5 -14q15 -42 21 -55l10 -18q0 -1 2 -7t3 -7q7 -9 17 -39l2 -3q4 -5 7 -15q5 -7 19 -38q1 -2 1 -4q0 -4 4 -11.5t8.5 -14.5t4.5 -8
q17 -35 25 -59q1 -2 15 -26l1 -2l1 -2l1 -6l4 -4q2 -2 2 -4q1 -1 1 -3t1 -3l8 -16q0 -2 3 -6l3 -4l1 -5l2 -5q1 -3 6 -16t5 -20q0 -4 -5 -8t-9 -5q-3 0 -6 1z" />
    <glyph glyph-name="bracketright" unicode="]" horiz-adv-x="223" 
d="M106 -38q-1 0 -7.5 -1t-8.5 -1h-21q-6 -3 -13 -3q-2 0 -5 1l-3 1q-3 0 -12.5 -2t-11.5 -2t-3 1q-11 0 -11 4q0 2 1 3l1 2q0 1 9 10h6q4 0 7 -1h6q2 0 9 0.5t9 0.5q0 1 6 1q2 0 5 -0.5t4 -0.5q10 0 13 1q28 8 29 11q0 2 1 5v5q0 10 2 12q0 36 1 46l1 5q2 12 0 12v86l1 7
q1 7 1 8v8q-4 7 -4 14q0 3 1.5 11t1.5 10q0 1 -1 2v2l-1 4l-1 2v9v14q0 2 1 5l1 3q-2 2 -2 6q0 7 1.5 33t1.5 34v6q0 6 -1 28.5t-1 30.5q0 2 1 3q0 22 1 51v50v73q0 2 -1 8v7q0 4 0.5 18.5t0.5 19.5v25v34v6q-1 1 -1 3q0 3 0.5 14t0.5 14v6q-1 4 -11 4q-3 0 -4 -1
q-2 0 -12 -1.5t-14 -1.5q-1 0 -7.5 1.5t-8.5 1.5q-13 0 -14 -2q-2 0 -8.5 -0.5t-8.5 -0.5q-1 0 -6.5 2.5t-5.5 3.5q0 10 30 10h44q4 0 34 -2h10l5 1q4 1 6 1q3 0 3 -2q2 0 4 -1h3l4 -2q3 0 6 -3v-7q3 -3 3 -4v-103q0 -1 -0.5 -2t-0.5 -2v-18q-3 -12 -3 -29q-2 -64 -2 -71
l2 -5q0 -24 1 -35v-17v-9q0 -2 -0.5 -9.5t-0.5 -9.5q0 -4 2 -8l1 -58q-3 -36 -3 -81q0 -2 -0.5 -6t-1 -11t-0.5 -13q-2 -66 -2 -75l1 -9q0 -1 -0.5 -3t-0.5 -3v-6q0 -1 0.5 -3t0.5 -3v-26q-1 -3 -1 -27l1 -4v-5v-4l-1 -3q0 -1 -0.5 -15t-0.5 -16q0 -6 -2 -12q0 -28 -1 -36
q-2 -1 -4.5 -6l-4.5 -9l-2 -5q-27 -7 -34 -7q-2 0 -10 2z" />
    <glyph glyph-name="asciicircum" unicode="^" horiz-adv-x="525" 
d="M441 467h-8q-1 0 -3 2l-2 2l-13 8q-13 8 -17 12q-5 5 -18 23l-16 17q-2 2 -9.5 13t-10.5 14q-20 20 -29 34q-2 2 -9 13.5t-9 14.5l-50 63q-2 2 -4 2t-5.5 -2t-4.5 -2l-2 -9l-7 -7q-1 -1 -1 -3q-3 -8 -20 -24l-9 -9q-2 -2 -7 -9t-6 -8l-4 -4l-3 -1l-1 -3l-6 -11l-6 -7
l-1 -3l-2 -4q-7 -5 -15 -17t-13 -17l-5 -2l-3 -2l-4 -4q-8 -15 -13 -17q-1 0 -3 -0.5t-3 -0.5t-3 -3.5t-4 -4.5q0 -4 -4 -11l-21 -21q-3 -3 -7 -5l-6 -7q-4 -2 -4 4q0 2 5 7q4 12 11 19q14 15 15 22l54 55q6 8 14 20t12 16q10 11 14 21l17 20q0 2 3 4.5t6 4.5l3 2
q28 38 45 54q2 4 9 8.5t10 4.5l2 -2q11 -4 18 -11q3 -3 7 -8.5t6 -7.5q3 -3 9 -8t9.5 -8.5t2.5 -3.5l2 -3q1 -2 17 -18l3 -3q2 -4 9 -13.5t14 -18.5l29 -40q2 -3 13 -15t13 -16q2 -2 8.5 -13t8.5 -13l27 -29q0 -3 7 -10l2 -3q0 -1 -1.5 -3l-3 -4t-2.5 -3l-1 -3
q-1 -3 -5.5 -7t-7.5 -4l-9 1l-3 3q0 2 -1 2z" />
    <glyph glyph-name="underscore" unicode="_" horiz-adv-x="456" 
d="M315 -66q-1 0 -9 2q-6 -2 -8 -2q-5 0 -9 2q-4 0 -13.5 0.5t-11.5 0.5h-25q-9 0 -12 -1h-118q-2 1 -5 1q-12 5 -28 5q-2 0 -8.5 -0.5t-7.5 -0.5h-14q-20 0 -34 6q-2 2 -2 6q0 9 18 13q10 0 14 1q2 0 8 1h7h5q24 0 47 -3q28 -4 47 -4h20q22 0 31 1h12.5h13.5l6 1h63
q28 -5 71 -5h10q15 0 22 1q3 0 8 0.5t9 0.5h4l16 -3l4 -6v-14q0 -10 -13 -10t-16 1q-3 0 -6 0.5t-4.5 1t-2.5 0.5h-42q-24 0 -47 4z" />
    <glyph glyph-name="grave" unicode="`" horiz-adv-x="162" 
d="M132 500l-12 2q-1 1 -6 1l-25 14q-1 1 -4 1q-5 9 -10 10l-19 15l-4 4q0 2 -4 4l-2 1q-1 1 -13.5 16.5t-12.5 24.5q0 5 5 9.5t10 4.5t27 -18q9 -11 13 -12l14 -14l3 -2l5 -5l3 -2q11 -9 20 -18l8 -13q1 0 3.5 -2.5t2.5 -3.5l2 -4q6 -9 6 -10q0 -4 -6 -4q-3 0 -4 1z" />
    <glyph glyph-name="a" unicode="a" horiz-adv-x="420" 
d="M72 0h-21q-2 0 -6 0.5t-6 0.5h-5l-6 -3q-2 0 -5 2t-3 3q0 2 2.5 8t2.5 7q17 41 29 60l7 10q1 1 8 23q1 2 6 8.5t6 8.5l15 43q14 29 17 39q13 19 13 22q3 9 17 41q2 8 11 33q4 9 14 27q4 6 5 7l11 24l7 21l15 25q1 1 3.5 8t5 11.5t7.5 8t11 1.5q0 -1 6 -8t7 -9
q9 -23 16 -37q15 -37 16 -43l10 -29l10 -24q4 -11 5 -20q3 -15 10 -27l4 -11q0 -2 3 -13.5t4 -12.5l4 -13q5 -13 6 -18q6 -15 7 -33q2 -2 2 -3q5 -9 10 -35q1 -4 6.5 -21t6.5 -21q3 -3 3 -7q8 -30 9 -32q2 -2 10 -2l4 1l14 -1q4 0 4 -7v-8q0 -4 -4 -4l-5 1q-5 1 -7 1l-3 -2
h-10h-6l-8 -1h-10h-13l-4 2l-5 5l-10 17q-10 22 -36 106q-7 30 -12 37q-14 0 -29 3h-9q-9 -1 -19 -2h-10q-12 0 -19 -3h-22q-4 -2 -8 -2q-8 0 -10 1q-11 -4 -21 -4h-6l-11 2q-8 -11 -10 -16q-5 -20 -10 -29l-5 -9q-2 -3 -4 -7l-3 -8q0 -3 -3 -6l-8 -9q-8 -13 -10 -22l-4 -6
l-6 -15q-1 -2 -3.5 -5.5t-2.5 -5.5l-2 -3l1 -2q0 -1 1 -1l11 -1q1 0 2 0.5t2 0.5h39q0 -1 2 -3q0 -6 -2 -8l-11 -8q-2 0 -5 1h-3q-1 0 -2 -0.5t-2 -0.5q-2 0 -3 1zM116 175q0 -1 -0.5 -2t-0.5 -2q12 2 36 2h29q2 0 23 3q21 2 33 3q2 0 11 -0.5t12 -0.5h11q1 1 1 4q0 1 -8 28
v7q-3 6 -7 13q-7 17 -14 39q0 1 -2 3l-1 2q-1 3 -11 34q-10 27 -15 40q-3 8 -5.5 11.5t-3.5 2.5q-3 0 -3.5 -0.5t-0.5 -2.5t-1 -5l-2 -3l-12 -24l-4 -3q-6 -11 -13 -26l-1 -3l-1 -3l-1 -3q-7 -7 -6 -8v-6q-2 -6 -8 -17t-6 -12l1 -4q0 -1 -7 -11q-4 -19 -23 -56z" />
    <glyph glyph-name="b" unicode="b" horiz-adv-x="367" 
d="M3 425q0 10 5 10h4q8 -1 22 -1q4 0 5 1h37q0 1 3 1h8q2 0 16.5 -0.5t17.5 -0.5h20l1 -1h3h12h7l4 -1q3 0 4 1q2 0 4 -0.5t3 -0.5h8l20 -4q7 -1 12 -3l4 -1l11 -4l3 -2l9 -8q3 0 17 -14l7 -12q7 -11 7 -21q0 -2 1 -5v-4q0 -2 1 -3v-1q0 -3 -1 -4v-13q-1 -2 -1 -8v-6
l-8 -18l-2 -6l-4 -5q-2 -6 -8 -12l-8 -10l-5 -5q-2 -2 -5 -4l-3 -1l-12 -5l-6 -2h-2l-4 -2l-6 -3l6 -1l6 -1l4 -1h4q21 0 21 -4q29 -14 30 -15q8 -6 21 -22t14 -19l12 -33l3 -14l1 -5q1 -5 1 -8l-2 -23l-2 -4t-1.5 -4.5t-0.5 -3.5q-1 0 -2 -3l-1 -2l-3 -6q-2 -2 -5 -6l-2 -5
l-5 -7q0 -3 -6 -9q0 -1 -2 -3t-3 -2q-3 -4 -7 -7l-11 -9q-4 -4 -14 -10l-4 -3q-3 -3 -5 -3l-9 -3l-2 -1q-1 -1 -4 -1l-2 -1h-2q-8 -2 -9 -4q-2 -1 -9 -1q-3 0 -6 -1l-4 -1h-5q-2 0 -3 -1h-6q-5 0 -5 -2h-12l-4 2l-5 -1q-5 -1 -7 -1q-1 0 -4 0.5t-4 0.5q-2 0 -3 -1
q-2 0 -13 -0.5t-13 -0.5l-3 1h-4q-10 0 -20 -2l-10 2h-4q-2 0 -5 1t-5 1q-3 0 -9 -1.5t-8 -1.5l-2 1h-4l-6 1h-11q-2 0 -5 1h-3q-6 -2 -8 -2q-6 0 -9 4v4q0 6 1 8q4 0 11.5 1t9.5 1h2q1 -1 3 -1q3 1 9 1h2q2 1 4 1h12l2 -1h3q3 0 3 13q0 6 -2 8l-1 339l-1 10q-2 9 -2 11
l-1 21q-2 0 -5 1l-5 1l-15 1h-20q-11 0 -11 4zM128 10h33q21 0 23 2h9q8 2 9 2h5h3q2 1 4 1l2 1q1 0 4 2q3 1 4 1q15 11 29 30q0 2 4 9t5 10q8 19 8 53q0 5 -7 34q-4 19 -14 40q-8 12 -12 17q-5 5 -6 5l-9 6q-2 1 -9.5 4.5t-10.5 5.5q-14 3 -18 4q-1 0 -10 1.5t-12 1.5h-5
q0 -1 -4 -1q-1 0 -4 0.5t-4 0.5q-3 -1 -10 -1t-9 -1l-1 -56q0 -2 0.5 -19t0.5 -19q1 -3 1 -7q0 -1 -0.5 -5t-0.5 -5t0.5 -7t0.5 -9v-59l-1 -6v-9v-8q0 -2 -0.5 -7.5t-0.5 -6.5t1 -2q2 -2 2 -3zM124 272l1 -3v-17q0 -2 5 -2q2 0 11 1.5t12 1.5q4 0 16 2.5t13 3.5q6 0 11 5
l10 5q13 10 21 23q3 4 9 42v11l-1 3v6l-1 4q-10 28 -20 40q-6 5 -13 12q-2 0 -5 2l-3 2l-4 2l-4.5 1.5t-4 1t-7.5 2.5l-4 1h-5h-4h-3l-2 1h-22l-2 1h-3l-3 -1l-1 -6v-5q0 -6 1 -7l1 -5q1 -5 1 -7q0 -8 0.5 -38t0.5 -40q0 -9 -1 -10v-10q-1 -1 -1 -3q1 -4 1 -7v-13z" />
    <glyph glyph-name="c" unicode="c" horiz-adv-x="410" 
d="M271 423l-8 -1h-10q-20 0 -45 -14q-13 -8 -17 -15q-1 -3 -9 -9l-8 -7q-13 -20 -25 -35q-5 -7 -11 -23t-8 -19l-4 -12q0 -4 -4 -13.5t-5 -12.5q-1 -4 -2.5 -8t-2.5 -6v-2l-3 -15q-1 -1 -1 -3l-5 -11q0 -10 -4 -14v-39q0 -9 3.5 -25t4.5 -22q0 -2 1 -5v-5q0 -1 1.5 -4.5
t3.5 -8.5t3 -9q0 -1 3 -4t3 -4q28 -45 85 -59q2 0 8.5 -2.5t8.5 -2.5q26 0 45 12q4 3 9 6l3 2q1 0 7 8q41 46 48 55l10 17q1 11 14 19q8 5 10 -5q0 -16 -25 -44q-3 -10 -9 -16l-5 -6q-2 -2 -11 -13t-13 -14q-5 -6 -23 -17q-10 -11 -13 -11l-11 -3l-2 -2l-4 -2q-5 -3 -25 -7
l-7 -2l-38 -1q-2 0 -10 0.5t-9 0.5h-6q-3 1 -16 7.5t-20 8.5q-4 2 -12 5q-24 16 -38 37l-7 12q-3 3 -16 35q-4 11 -4 15q-2 18 -2 20t-1 7t-1 9q0 1 -0.5 6t-0.5 7t1 9l1 6q0 26 3 31q5 22 8 29l4 11q13 54 46 93q4 12 9 12l16 18l11 11l10 12l3 2l4 2l7 7l17 13
q27 19 63 27l8 2h13l28 -7l7 -3q4 -1 4 -2l7 -3q3 -3 7 -5q2 -2 3 -2q1 -3 10 -8l12 -18l3 -6l3 -4q5 -5 5 -13q4 -7 4 -9l-1 -3l-6 -11l-4 -4l-13 -20l-6 -6l-4 4q0 1 2 3l2 4q0 1 1 1l1 2l1 1l2 4l3 6q0 3 -1 3l-2 8q-2 8 -2 10t-2 4l-2 3l-2 4q-1 2 -3 7.5t-3 7.5l-5 5
q0 1 -2 3l-7 7q-1 3 -8 6l-12 5q-1 0 -6.5 2t-7.5 3z" />
    <glyph glyph-name="d" unicode="d" horiz-adv-x="427" 
d="M79 436l13 -1l6 -1h9q1 -1 4 -1q8 0 12 2h18q2 0 13 -0.5t16 -0.5l7 -1h21l15 -3l30 -5q9 -3 12 -3q3 -3 9 -3q53 -19 92 -79q6 -8 13 -26q1 -3 5.5 -14t4.5 -13q6 -24 6 -28q0 -8 2 -12v-57q0 -9 -2 -11q0 -2 -3.5 -12.5t-4.5 -15.5l-1 -2q-1 -1 -3 -4l-1 -4
q0 -6 -7 -13q-1 -5 -7 -15l-2 -7q-2 -6 -4 -7l-2 -4q0 -4 -4 -4q0 -1 -2.5 -3.5t-3.5 -4.5l-8 -11l-19 -21q-10 -11 -32 -23q-5 -5 -31 -15q-3 -2 -7 -3t-10.5 -2t-10.5 -2l-4 -2l-12 -2q-2 0 -7 -0.5t-6 -0.5q-2 0 -3 -1h-2l-9 -1l-3 1h-5q-17 0 -22 -1l-25 -1
q-10 0 -20 -2l-10 2l-20 1q-2 0 -3 1q-4 -1 -9 -2h-3h-12h-4h-3l-2 1h-19q-1 0 -3 -0.5t-3 -0.5q-6 0 -9 4v4q0 6 1 8q4 0 11.5 -0.5t9.5 -0.5l2 -1h3q3 1 9 1l2 1h4h7q8 0 11 1v3q0 2 0.5 6.5t0.5 6.5q0 6 -1 6v209q-1 4 -1 12q-1 3 -1 7v12.5v18.5l-1 8v83q-1 3 -1 10
l-1 21h-4q-2 -2 -6 -2q-1 3 -6 3l-3 1q-4 1 -7 1h-19q-11 0 -11 4q0 10 5 10h4l19 -1h3q3 1 5 1h37q0 1 3 1zM131 13l25 -1h20q1 0 5 1t7 1q13 0 17 1q6 2 11 4l7.5 3t3.5 1l6 3q6 2 8 2q12 5 17 10q11 10 27 28q1 2 14 23q5 3 12 19l2 6q0 3 1 3q2 2 9 23q3 6 3 14q2 2 3 9
q4 31 4 46v8q1 0 1 3t-1 5l-3 26v18q-3 19 -6 23q-2 13 -4 15l-10 28q-4 6 -10.5 14.5t-8.5 11.5q0 2 -4.5 6t-4.5 6q-3 0 -8.5 5.5t-7.5 5.5l-8 6l-19 13q-21 10 -34 10q-1 1 -8 2t-15 2t-10 1q-4 1 -10 1h-4q-6 0 -9 1q0 1 -3 1h-17l-6 -1q-1 -1 -1 -9v-5q1 -4 1 -6l-1 -7
v-10q0 -3 0.5 -16t0.5 -17v-9q0 -29 -1 -30v-21q0 -2 0.5 -8.5t1 -20t0.5 -27.5q1 -34 1 -70v-81q0 -22 -2 -36v-18l-1 -2v-3l1 -10q1 -1 8 -1z" />
    <glyph glyph-name="e" unicode="e" horiz-adv-x="349" 
d="M101 0h-16h-6l-4 1h-45l-3 2l-3 2l1 11q1 3 9 3h21q8 0 8 3v12l-1 4v4q0 2 0.5 15t0.5 15v37l1 3v4v29v1q-1 1 -1 3l1 13v15q-1 2 -1 10v10l-1 5q0 5 -0.5 11t-0.5 9q0 7 1 8v4v12l1 9v32q-1 11 -1 47q0 40 -1 48q-1 1 -1 7l-3 21h-3q-1 -1 -3 -1t-3 1h-18l-8 -3
q-7 0 -7 5l-1 6v7q0 6 2 6q3 1 8 1h4q3 0 4 1h19q2 0 8.5 0.5t7.5 0.5q3 0 8.5 -0.5t7.5 -0.5l5 1l4 -1l2 1h3q4 0 6 -1q4 0 19.5 0.5t21.5 0.5h24h3q3 1 5 1q4 0 5 -1h22h7q6 1 8 1q4 0 14 -1t13 -1h24q2 0 6 -0.5t7 -0.5l4 1q3 -1 7 -1h5l3 -2l3 -4q3 -6 3 -12v-24
q2 -18 2 -23q0 -26 -9 -26l-2 -1q-4 8 -4 9q-1 2 -2.5 3.5t-1.5 2.5v3q-2 8 0 9v39l1 4l1 4q0 3 -4 3h-13q-6 0 -20 0.5t-19 0.5l-8 1h-38l-6 1q-2 0 -9 -0.5t-10 -0.5t-6 -1h-5q-1 1 -6 1q-3 0 -11 -1t-16 -1h-12v-4l2 -10q1 -6 1 -19v-15l-4 -56v-2q0 -2 0.5 -5t0.5 -6
q2 -24 2 -27q0 -17 -1 -22l2 -6h68q3 0 8 -0.5t6 -0.5h2h14q1 -1 8 -1l4 1h10l1 1q1 1 1 2q0 2 -1 11.5t-1 13.5q0 16 3 20q2 2 4 2h3l2 -1q5 0 6 -7t2 -8l-1 -12q0 -9 -1 -12q-1 -1 -1 -3l1 -3v-4q1 0 1 -4l-1 -2v-3v-6v-3l1 -3q0 -1 -0.5 -5t-0.5 -7q2 -9 0 -13
q0 -6 -15 -6q-5 0 -5 22q0 2 0.5 8t0.5 8l-4 1h-35l-3 -1q-3 0 -4 1h-66q-1 -1 -6 -1v-20q0 -3 -0.5 -11t-0.5 -9q0 -7 -1 -8l-2 -67l2 -34q0 -36 1 -43v-2q1 -1 1 -3q0 -9 -1 -12q2 -2 4 -2l65 1l17 -1l12 2q9 -1 17 -1h24q1 0 7.5 -0.5t8.5 -0.5l3 -1h6q5 1 7 1
q0 6 -0.5 12.5t-1 10t-0.5 4.5q0 2 -0.5 10.5t-0.5 11.5q0 12 3 17q2 2 11 2q4 0 5 -2.5t1 -5.5t2 -5v-14q0 -7 -1 -10q-2 -2 -2 -8q0 -4 -1 -7v-5v-2q1 -1 1 -3v-10q0 -2 1 -5v-2q0 -2 -1 -2t-1 -2q0 -4 -8 -4q-5 0 -7 1q-3 0 -17 0.5t-20 0.5q-1 0 -6.5 0.5t-8.5 0.5
q-10 0 -16 -2h-52q-30 -2 -59 0z" />
    <glyph glyph-name="f" unicode="f" horiz-adv-x="319" 
d="M235 192q-5 0 -5 22q0 2 0.5 8t0.5 8l-4 1h-35l-3 -1q-3 0 -4 1h-66q-1 -1 -6 -1v-20q0 -3 -0.5 -11t-0.5 -9q0 -7 -1 -8l-2 -67l2 -34q0 -36 1 -43v-2q1 -1 1 -3q0 -10 1 -13h5l3 -1q2 0 7 0.5t7 0.5h3q2 -1 4 -1q1 -4 6 -5.5t-1 -7.5l-2 -4h-9q-1 0 -12.5 -0.5
t-20.5 -0.5l-3 -1h-13h-6q-4 1 -7 1h-45l-3 2l-3 2l1 11q1 3 9 3h21q8 0 8 3v12l-1 4v4q0 2 0.5 15t0.5 15v37l1 3v4v27q0 4 -1 6l1 13v15q-1 2 -1 10v10l-1 5q0 5 -0.5 11t-0.5 9q0 7 1 8v4v12l1 9v32q-1 11 -1 47q0 40 -1 48q-1 1 -1 7l-3 16q-6 0 -9 5h-18l-8 -3
q-7 0 -7 5l-1 6v7q0 6 2 6q3 1 8 1h4q3 0 4 1h19q2 0 8.5 0.5t7.5 0.5q3 0 8.5 -0.5t7.5 -0.5l5 1h4q5 -1 7 -1h4q4 0 19.5 0.5t21.5 0.5h24h3q3 1 5 1q4 0 5 -1h22h7q6 1 8 1q4 0 14 -1t13 -1h24q2 0 6 -0.5t7 -0.5l4 1q3 -1 7 -1h4l4 -2l3 -4q3 -6 3 -12v-24q2 -18 2 -23
q0 -26 -9 -26l-2 -1q-4 8 -4 9q-1 2 -2.5 3.5t-1.5 2.5v3q-2 8 0 9v39l1 4l1 4q0 3 -4 3h-13q-6 0 -19.5 -0.5t-18.5 -0.5l-8 1h-38l-6 1q-2 0 -9.5 0.5t-10.5 0.5t-6 -1h-5q-1 1 -6 1q-2 0 -6 -0.5t-5 -0.5l-14 -1q0 -1 -12 -1q1 -4 1 -17v-9v-9l-1 -4q0 -6 -1 -6v-31
l-2 -27v-2q0 -2 0.5 -5t0.5 -6q2 -24 2 -27q0 -17 -1 -22l2 -6h68q3 0 8 -0.5t6 -0.5h2h14q1 -1 8 -1l4 1h10l2 6v18v4q-1 5 -1 7q0 4 1 5q2 3 11 3q3 0 7 -9v-16q0 -9 -1 -12q-2 -2 -2 -3q0 -2 1 -3q1 0 1 -4l-1 -2v-3v-6v-3l1 -3q0 -1 -0.5 -5t-0.5 -7q2 -9 0 -13
q0 -6 -15 -6z" />
    <glyph glyph-name="g" unicode="g" horiz-adv-x="409" 
d="M242 443h23l28 -7l7 -3q4 -1 4 -2l7 -3q3 -3 7 -5q2 -2 3 -2q1 -3 10 -8l12 -18q2 -2 3 -5l3 -5q5 -5 5 -13q4 -7 4 -12q0 -2 -2 -2l-5 -9l-6 -4l-6 -6l-4 -8l-13 -16l-9 -8l-5 4q0 2 2 4l3 5q1 0 1 1t1 2l1 2l4 5l2 3q1 3 1 4q2 0 11 13q-3 8 -3 15q0 2 -2 4l-2 3l-2 4
q-1 2 -3 7.5t-3 7.5l-5 5q0 1 -2 3l-7 7q-1 3 -8 6l-12 5q-1 1 -6.5 3t-7.5 2h-17q-26 0 -51 -14q-13 -7 -16 -12q-1 -2 -5 -5.5t-8 -6.5l-3 -3q-3 -5 -11.5 -14t-11.5 -13q-5 -8 -14 -27t-10 -21l-4 -12q0 -4 -4 -12t-5 -11q-1 -4 -2.5 -8t-2.5 -6v-2l-4 -14q-3 -24 -3 -26
q0 -1 -1 -10v-9v-33q0 -14 4 -25q1 -3 3 -7.5t2 -5.5q6 -16 6 -17v-1q1 -7 12 -22q2 -2 15.5 -18t19.5 -21q17 -14 25 -17q6 -4 31 -12q5 -2 18.5 -3.5t14.5 -1.5h10q10 0 11 1h8q13 0 30 17q1 1 1 7v31l1 2q-1 15 -1 20l-2 18v43q1 2 1 7v8q0 2 1.5 10t1.5 10v5
q-40 3 -46 7q0 3 2 5l3 1q6 6 6 7l67 -2q1 0 6 -0.5t6 -0.5q4 -3 4 -10q0 -2 -1 -9.5t-1 -8.5v-44q0 -12 -1 -40.5t-1 -41.5v-4l1 -3v-3q0 -4 -15 -15l-7 -6l-11 -8q-2 -2 -10 -5t-10 -4q-22 -13 -27 -13q-2 0 -8 -1t-7 -1l-11 -1h-5q-5 0 -11.5 -0.5t-10.5 -0.5q0 1 -4 1
h-8l-6 1h-20q-2 1 -16 4t-16 5l-22 11l-13 8l-8 7l-4 4t-4 3l-1 1l-3 2q-5 2 -5 5l-2 3q-10 17 -14 22q-9 11 -16 23l-2 8q-3 4 -7 16.5t-5 14.5q0 3 -2 13t-2 12l-3 32l5 39l1 6q1 4 1 7l3 9l2 8q0 5 1 8l6 16q11 34 35 61q4 12 9 12l17 20q1 2 6 6t5 5l11 12l3 2l4 2l9 5
l20 14q23 18 64 26z" />
    <glyph glyph-name="h" unicode="h" horiz-adv-x="434" 
d="M160 11v-7q0 -5 -29 -5q-7 0 -36 1t-31 1l-44 -1q-8 0 -8 7q0 10 8 10q3 0 6 -1l4 -1q4 0 9 1l7 1q1 0 10 1l8 2v79q-1 2 -1 8v9l-3 87q0 1 -0.5 4t-0.5 4v27q-1 2 -1 9q0 2 1 10t1 12v86l-1 15q-1 0 -1 3v3q1 1 1 6q0 2 0.5 14t0.5 13v8h-4q-3 0 -4 1h-12l-4 1h-6
q-9 0 -16 4q0 9 8 9h17q1 1 3 1h15q5 0 16 -0.5t12 -0.5q3 0 12.5 -1.5t11.5 -1.5q0 -4 1 -7v-4v-8q0 -14 2 -22v-11q0 -1 -0.5 -5t-0.5 -5v-7q0 -2 -1 -10.5t-1 -12.5v-19q0 -1 0.5 -6t0.5 -7l1 -3q0 -7 -1 -12v-8q0 -3 3 -18q0 -16 3 -18l43 -2q3 3 9 3l9 -1q1 0 2 0.5
t2 0.5l4 2q2 -1 7 -1q1 0 3 2l21 -1l3 2l21 -1q1 1 5 1q17 -3 24 -1q7 1 31 1h16l13 1q1 1 1 7v8q0 1 0.5 5t1 12.5t0.5 16.5q1 20 1 33v55q-2 10 -2 19q0 2 0.5 6t0.5 6h-15h-7l-5 -1q-17 0 -29 5q0 9 3 9h10q3 0 15.5 -0.5t16.5 -0.5q13 0 17 1h36q2 0 2 -5q0 -4 -0.5 -9
t-0.5 -7v-33l1 -3q1 -2 1 -4l-1 -2q0 -3 -0.5 -8t-0.5 -10v-29q0 -4 -1 -7v-4q0 -4 2 -10v-12q0 -4 -0.5 -22.5t-0.5 -24.5v-9q-1 -5 -1 -31v-20q0 -10 1 -11v-55q1 -1 1 -7q0 -2 -0.5 -8t-0.5 -8q0 -4 -0.5 -14t-0.5 -12q0 -4 0.5 -19.5t0.5 -18.5q0 -10 9 -11l38 -1
q2 0 2 -12q0 -5 -3 -5h-43q-2 0 -6 -1h-3h-5q-3 -1 -6 -1q-2 0 -10.5 0.5t-11.5 0.5h-4l-2 1q-3 0 -17 -1.5t-19 -1.5q-1 0 -3 4t-2 5l8 8l33 3l3 3v25q-2 8 -2 21q0 2 -1 13v10l-1 144q0 6 -9 6q-2 0 -3 -1h-22q-2 0 -3 -1h-3l-5 -1l-4 2h-6q-2 0 -4 1l-3 1l-3 -1
q-3 -1 -10 -1q-8 0 -10 1l-21 1q-3 0 -9.5 -2t-8.5 -2l-6 -1q-6 -1 -7 -1h-25q-4 -4 -12 -4q-12 3 -13 3h-4q-1 0 -11 -1t-15 -1l-4 -20q0 -2 -0.5 -8t-0.5 -8t1 -6v-5v-5l-1 -3q0 -10 2 -16v-8q0 -2 -1 -8.5t-1 -8.5t2 -4l1 -22q2 -24 2 -26v-8q0 -4 -1 -5v-14q1 -1 1 -4
v-4v-5l-1 -4q0 -2 2 -4q0 -15 3 -15h20q3 -1 10 -1.5t10.5 -2.5t3.5 -6z" />
    <glyph glyph-name="i" unicode="i" horiz-adv-x="178" 
d="M21 7q6 8 27 8l12 2l1 3q1 3 1 7v61q0 19 2 27q0 3 -1 17t-1 18v6v2q1 2 1 4l-1 3v3q2 18 2 20l1 4v26q0 17 -1 18l3 180q-10 2 -22 2q-1 0 -2 -1t-3 -1l-15 1q-2 0 -2 6l1 3v4l2 1l2 1q2 2 5 2h7q7 0 9 -2h17l11 1h6q1 -1 4 -1h5h6l3 -1l16 1q1 0 6.5 -0.5t7.5 -0.5h5
l14 1l3 -1q3 -1 5 -1q3 -2 3 -4q0 -5 -6 -5.5t-7 -1.5q-10 0 -11 -1h-20l1 -4v-5l-4 -38q0 -25 3 -26l-2 -46l1 -24q-1 -5 -1 -29q-1 -5 -1 -33q0 -22 1 -22v-52l-2 -25l-1 -8v-11q-3 -38 -3 -74q2 -4 6 -5h7q1 0 7 0.5t8 0.5q14 -2 14 -9v-4q-1 -1 -6 -1l-3 -1h-6h-14
q-1 0 -6 -0.5t-7 -0.5l-5 1q-5 0 -11.5 0.5t-9.5 0.5q-5 0 -7 -3h-48q-7 0 -7 7z" />
    <glyph glyph-name="j" unicode="j" horiz-adv-x="309" 
d="M258 417l-11 -1v-79q0 -4 -1.5 -14t-1.5 -12t0.5 -8t0.5 -8q0 -3 0.5 -10.5t0.5 -10.5v-42l-2 -14q0 -2 -1 -12t-1 -11v-5q-1 -5 -1 -7q0 -1 1 -10t1 -11q0 -4 -2 -6q0 -29 -8 -63q0 -2 -2 -5.5t-2 -5.5q-8 -30 -9 -32l-7 -10q-11 -19 -23 -24q0 -1 -1 -3.5t-2 -2.5
q-7 -6 -20 -10q-1 0 -6 -1.5l-10 -3t-7 -2.5q-16 -6 -53 -6l-16 3q-4 0 -9 5q-39 27 -39 48q-7 15 -7 29q0 5 7 5q3 0 4.5 -7.5t3 -16t3.5 -10.5q5 -9 25 -29q2 -2 10 -6l10 -5q1 0 8 -1h7h4q16 0 25 4q1 0 2 1q2 1 3 1l4 2q8 2 13 2q2 0 9.5 5.5t9.5 5.5l11 11q5 18 10 26
l1 8v11q1 10 2.5 25.5t1.5 16.5l2 3q0 1 0.5 15t0.5 16q0 17 -1 20v24q0 42 1 42q0 1 1 10t1 10v100q-2 2 -2 5v10q0 7 2 37h-6l-3 1q-4 1 -6 1l-16 -1l-5 1q-1 0 -5.5 1t-6.5 1l-10 -2q-3 3 -3 8v11l19 -1h27l5 2q10 -1 17 -1q6 2 8 2q1 0 2.5 -0.5t4.5 -1t6 -0.5q8 2 10 2
l6 -1q14 0 17 -3l18 3l1 1h2q17 0 17 -5q0 -1 -3.5 -6t-4.5 -5q-6 -3 -12 -3h-20z" />
    <glyph glyph-name="k" unicode="k" horiz-adv-x="397" 
d="M311 420l-6 -2l-9 -10q-8 -11 -11 -13l-4 -1q-4 -4 -7 -10q-5 -5 -5 -7t-4 -6q-2 -2 -3 -4l-3 -3l-2 -5q-2 -5 -13 -16l-10 -11l-1 -4q-1 -4 -14 -17q0 -4 -6.5 -13t-10.5 -11q-1 -2 -15 -21q-5 -7 -33 -30l-8 -7q0 -2 2 -2q32 -14 52 -32q13 -10 25 -25l3 -4
q2 -3 5.5 -6.5t5.5 -4.5q15 -20 19 -29l1 -1q1 -1 1 -2q3 -5 15 -28t19 -33q13 -24 31 -35q1 0 2 -1q2 0 3 -1l4 -2q6 -4 19 -7l26 -2q8 0 8 -8q0 -7 -7 -7h-18l-3 1h-5h-13h-3l-2 -1q-1 0 -3 2l-12 2q-1 0 -2 1q-4 0 -5 1l-21 13q-2 0 -5.5 3.5t-5.5 3.5l-29 30q-3 3 -9 12
q-14 14 -20 28q0 1 -4.5 8t-4.5 8l-1 3l-23 29l-7 7q-2 2 -7 9t-9.5 12.5t-8.5 6.5l-18 18q-1 0 -4.5 3t-5.5 3h-6q-4 -4 -7 -12.5t-3 -9.5q-2 -8 -2 -25v-4q-1 -3 -1 -8q0 -12 2 -14l-2 -34v-3l-1 -1q0 -3 2 -5q1 -5 1 -22v-21q0 -14 -3 -23l-1 -2q-1 -1 -1 -3v-6q1 1 4 1
h1q1 -1 3 -1l12 1q1 0 3 1l2 1v-2q1 -1 1 -3q-1 -7 -13 -7h-21h-5l-4 -1l-24 -1l-7 -1l-7 -1q-17 0 -17 5q0 7 22 7h7q0 4 3 11v21q0 1 -1.5 7.5t-1.5 9.5l1 9q0 4 -2 12q-1 6 -1 15v8q0 3 1 9.5t1 11.5l1 5q0 8 -1 31t-1 29q-1 9 -1 38q0 8 0.5 37.5t0.5 38.5v64
q0 1 1.5 11t1.5 11l1 25q0 5 1 7l-9 2q-11 0 -14 -1q-10 -2 -12 -2q-3 0 -3 3v8q0 4 13 4h33q4 0 5 -1l11 1q6 2 7 2q10 0 14 -3l-1 -9v-11l-3 -49q2 -6 2 -16l-1 -25q0 -2 1.5 -11t1.5 -11q0 -5 -1 -9l-2 -6q0 -2 1 -5l1 -4v-31q1 -2 2 -8.5t1.5 -11.5t1.5 -5q5 0 7 8
l34 38q18 22 45 58q15 22 15 24l3 4q3 3 9 11.5t13 17.5l26 30l2 3l4 4h-16q-1 1 -3 1l-2 -1h-5h-3l-2 1q0 6 -4 6q11 8 17 8h4q2 0 5 -1h2q2 0 7 0.5t8 0.5h8q2 0 3 -1h3h1q1 1 2 1q3 0 3 -1h1q1 1 3 1h4q13 0 17 -3q2 0 2 -2q0 -1 -7 -7l-1 -1h-3h-5l-2 1q-2 0 -3 -1z" />
    <glyph glyph-name="l" unicode="l" horiz-adv-x="361" 
d="M329 -2h-27q-3 0 -15 -0.5t-16 -0.5q-1 0 -6 0.5t-7 0.5h-14q-9 1 -20 1t-11 -1h-9q-14 0 -19 1h-58q-2 2 -9 2q-1 0 -7 -0.5t-8 -0.5q-7 0 -10 3q-2 1 -5.5 1.5t-5.5 0.5t-3.5 2t-1.5 5t6.5 7t6.5 5h20l3 2v17q0 17 -2 19v13q0 5 0.5 19.5t0.5 18.5q0 1 -1 4t-1 4v36
q0 4 1 16t1 15q0 2 -2 12l-1 8l1 4v5q0 15 3 42v10q0 34 -1 44q0 3 -1 11t-1 10v5q1 8 1 32v33l-1 5v5q-1 2 -20.5 3.5t-19.5 4.5q0 4 8 10q2 1 16 1q4 0 34 -2q1 -1 4 -1h5l3 2h2q2 -1 4 -1l4 1h5q3 -29 2 -34q-1 -2 -1 -5t1.5 -17t1.5 -17v-6q0 -16 -4 -17v-36l-4 -6
l1 -35q1 -9 1 -19v-9q0 -9 -2 -17q-1 -1 -1 -8v-4q1 -3 1 -5t-0.5 -8t-0.5 -8v-6q0 -8 3 -11v-34q1 -1 1 -4q0 -7 -1 -8v-55q1 -1 1 -6v-17v-6q-1 -1 -1 -4q0 -8 5 -8l141 -2h3l2 -1l19 -1l2 1q1 1 5 1v4q-1 7 -1 22q0 2 -0.5 10.5t-0.5 11.5q0 12 3 17q2 2 11 2q4 0 5 -2.5
t1 -5.5t2 -5v-14q0 -7 -1 -10q-2 -2 -2 -8q0 -4 -1 -7v-5v-2q1 -1 1 -3v-10q0 -2 1 -5v-3q3 -6 3 -8q0 -3 -6 -3h-8q-6 0 -8 2z" />
    <glyph glyph-name="m" unicode="m" horiz-adv-x="677" 
d="M595 -1l-16 1l-10 -2h-1q-1 1 -2.5 1t-4 0.5t-4.5 0.5l-16 2q-6 5 -6 10q1 7 11 7h12l4 -1h7q4 0 6 2q0 2 8 2q4 0 4 2v6q-2 0 -14 37q-13 39 -15 49q-5 17 -5 20q-5 24 -18 55q-25 90 -27 97q-11 58 -20 72q0 2 -2.5 12t-2.5 12q0 6 -5 6q-1 0 -8 -13.5t-8 -16.5l-5 -11
q-1 -1 -7 -20v-5q-6 -17 -13 -29q-1 -3 -3.5 -7t-2.5 -6l-3 -12l-3 -12q-1 -5 -6 -16t-6 -16l-4 -16l-1 -4l-2 -6l-3 -13q0 -3 -1 -4l-10 -28q0 -2 -3.5 -9t-3.5 -9q-10 -23 -10 -32q-14 -48 -16 -50l-1 -3l-1 -16l-3 -4q-3 -5 -3 -7v-7l-8 -6l-18 -1q-13 0 -17 9
q-9 10 -20 48l-1 4q-5 10 -9 39q0 2 -4 11l-6 15l-12 50q-2 0 -3 4l-2 11q-2 10 -2 12q-1 9 -11 30l-10 34l-2 6t-1.5 5t-1 3.5t-0.5 2.5v1q0 1 -1 5.5t-2 9.5t-2 8q0 2 -3.5 8.5t-4.5 8.5q0 2 -2 10l-3 9l-1 13q0 4 -2 6q-2 -2 -4.5 -10t-4.5 -10l-7 -24l-2 -7l-7 -11
l-3 -12q-4 -14 -9 -24q-1 -2 -1 -4l-2 -5v-8q0 -7 -3 -9q-4 -4 -4 -5l-3 -9q0 -4 -0.5 -6t-1.5 -2t-2.5 -2t-2.5 -6q-3 -7 -6 -25l-18 -39q0 -5 -5.5 -15.5t-6.5 -20.5l-9 -30q-3 -2 -5 -11l-4 -12q-1 -1 -1 -3l-6 -10q-6 -24 -6 -30q0 -1 10 -1h8q14 0 15 -10q0 -10 -2 -12
h-18q-2 0 -8.5 0.5t-7.5 0.5h-12h-7q-6 -1 -8 -1q-4 0 -4 1q-4 0 -10 0.5t-10 0.5h-4l-3 2q-7 0 -7 6l2 3l2 4l1 1l15 3h5l3 1l2 -1h3q2 0 7.5 1t6.5 1l10 22q3 8 23 74q16 58 24 66l12 31l6 21q7 17 10 25q1 3 19 50l4 10q1 3 4.5 10.5t3.5 9.5q5 13 18 49l3 15q0 1 -3 3
q-12 5 -26 5q-13 0 -16 -1l-17 -2l-3 14q2 2 6 4q6 2 26 2h25q7 1 15 1h15q15 -13 24 -43v-2l1 -2l4 -10q4 -9 4 -12l7 -21q6 -21 8 -29q0 -2 2 -14l3 -12q1 -3 4 -11t4 -12q2 -8 7.5 -20.5t6.5 -17.5q7 -18 14 -45q2 -5 5.5 -20t4.5 -18q1 -4 24 -71q0 -4 1 -4q2 0 3 3
q0 1 1 2l13 47l3 6l3 6q14 41 17 52q0 2 2.5 8t2.5 7q1 3 2 7.5l2 9t1 5.5t4 11t5 14l2 5q7 28 9 30q2 4 6.5 14.5t6.5 17.5q3 7 12 29.5t13 28.5l16 32l13 26h11l10 1h12q2 0 6 1h5h46q3 0 3 -6l-2 -4q-2 -5 -4 -5h-8q-2 0 -5 -3l-7 1q-1 -1 -3 -1h-10q-7 0 -7 -7l3 -9
q4 -7 4 -13l4 -10q7 -21 7 -24l2 -4q8 -29 32 -131q2 -8 6 -23t8.5 -31t5.5 -20l12 -36q0 -1 1.5 -5.5t3 -9.5t1.5 -8q0 -1 2.5 -6t2.5 -7t2 -12l2 -10q5 -23 6 -26l7 -2h14h2q2 -1 3 -1h2l1 -1h3t3 -2t3 -5q0 -10 -5 -10h-5q-3 0 -7.5 -0.5t-6.5 -0.5t-5 -1l-2 -1l-3 2
q-1 0 -2 -0.5t-2 -0.5h-8l-3 -1h-14q-8 0 -9 1z" />
    <glyph glyph-name="n" unicode="n" 
d="M94 443l22 -28q9 -17 24 -41q16 -26 18 -30q6 -6 10 -19q13 -20 39 -52l6 -6q3 -5 13 -21t13 -21q4 -6 6.5 -7.5t6.5 -6.5q0 -1 1 -2q1 -2 1 -3l2 -4l5 -8q1 -1 10 -19q0 -1 3 -3t3 -3q0 -3 9.5 -15.5t9.5 -16.5q8 -19 13 -24q10 -11 19 -31l3 -3q1 -4 7.5 -15t8.5 -11
q3 0 4 3v10l1 10v19v10q3 0 3 11l-1 2v3v8q0 14 1 17l2 55q0 2 -2 15.5t-2 17.5q0 7 2 33t2 34v33l1 3v3v16q0 1 1.5 23t1.5 23l1 5q2 5 2 7l-1 2q-1 1 -1 2q-21 -3 -23 -3h-9q-1 1 -3 1h-3q-2 -1 -4 -1t-3 1h-2l1 9q3 2 5 3.5t2.5 2.5t1.5 2t2.5 1.5t3.5 0.5h6q2 0 5 -1h2
q2 0 13.5 1t14.5 1h9q7 0 7 -2t-1.5 -9.5t-1.5 -8.5q0 -2 -2 -12l-2 -11l-1 -3v-5v-15q0 -4 -2 -16t-2 -16q4 -12 -1 -29q0 -1 0.5 -4t0.5 -4q0 -6 -2.5 -25.5t-2.5 -26.5q0 -5 1 -26.5t1 -27.5v-17q1 0 1 -3v-5l-1 -2v-19q-2 -6 -2 -9q0 -2 1 -8t1 -9q0 -2 -1 -9t-1 -8v-8
q0 -1 -1 -6t-1 -7q0 -4 1 -7l1 -5v-14q0 -4 1 -21.5t1 -23.5q0 -7 -6.5 -14t-13.5 -7q-3 -1 -6 0.5t-7 6t-7 8.5t-7.5 10.5t-7.5 9.5q-17 17 -46 58l-14 18l-2 4l-2 6q-4 7 -9 7q0 4 -10.5 17t-10.5 16q-5 9 -13.5 21.5t-12.5 19.5l-25 30q-10 14 -18 30l-4 4q-4 5 -11.5 20
t-8.5 16l-16 29l-9 19q-1 1 -1 7l-11 12q-4 4 -4 2t-1.5 -9.5t-1.5 -10.5v-23q-1 -1 -1 -6l1 -18q0 -2 -1 -4v-3l1 -16q0 -4 -2.5 -22t-2.5 -24q0 -1 0.5 -3.5t1 -7t0.5 -7.5v-4v-5q-1 -3 -1 -6l1 -39l-1 -5q0 -8 -1 -10v-4l1 -6l1 -1v-3q0 -2 -1 -3v-4l1 -6l1 -3
q0 -17 -1 -19v-28v-4q1 -4 1 -6v-45h4l3 1h3h1q1 -1 3 -1l12 1q1 0 3 1l2 1v-2q1 -1 1 -3q-1 -9 -12 -9h-35h-1l-6 -1q-9 0 -13 1l-2 -1l-2 -1q-17 0 -17 5q0 7 27 7h10l-3 51q0 1 1 2t1 2l-3 3v69l-2 26v18q0 1 0.5 9t0.5 9l2 3q-2 16 -2 39q0 2 1 4v3q2 38 2 44
q0 22 -1 29l4 108l-6 2l-8 2h-8q-11 0 -14 -1q-1 0 -5.5 -2t-6.5 -2t-3 3l4 4q0 2 2 6t3 4h52q6 2 7 2q6 0 10 -2z" />
    <glyph glyph-name="o" unicode="o" horiz-adv-x="465" 
d="M247 -10h-23q-3 1 -27 6q-24 8 -40 14q-1 0 -6 3t-7 4l-5 3q-11 6 -24 17l-5 4q-20 19 -30 42q-2 4 -7 15.5t-9 21t-5 13.5q-9 45 -9 59q0 21 1 26q0 22 6 46q12 63 63 111q3 4 7 9l3 3l31 23l3 2q2 2 6.5 4.5t9.5 3.5q2 2 5 3l3 1q8 0 10 5l6 4l8 2l17 5q20 3 29 3h16
q1 1 5 1q6 0 14 -4q1 0 2.5 -0.5l4.5 -1.5t5 -2l13 -3q0 -1 3 -3l6 -3q6 -3 7 -4q22 -12 24 -14l5 -4q5 -4 9 -8l2 -3l5 -4q4 -8 7 -11.5t5 -2.5l11 -13q14 -20 26 -51v-1l1 -2q0 -3 2 -7l2 -6v-5l1 -5v-6v-6v-3q1 -3 1 -5v-46q0 -2 -1 -5v-3q0 -16 -6 -29l-3 -24
q-4 0 -4 -14q-4 -12 -7 -16q-3 -5 -9.5 -20t-7.5 -17q-2 -6 -10 -13l-2 -3q-2 -2 -5.5 -6.5t-7.5 -9.5l-15 -16q-8 -5 -11 -9q-2 -2 -4 -5l-4 -3l-21 -14q-7 -2 -11 -6l-10 -6l-4 -1q-2 0 -3 -1t-2 -1q-8 -4 -19 -4q-2 0 -10 -2t-11 -2zM163 67l3 -3t4 -3l13 -13
q17 -15 32 -22q18 -8 47 -8h13q32 11 52 25q9 6 16 17l16 20l3 4q2 5 6 10.5t7 7.5q3 4 8 21l2 4q2 6 9 16q0 9 4 26q4 15 4 45v6l-3 20l-1 16l-2 3l-2 10v5q0 2 -4 13t-4 14q0 1 -9 16q-4 10 -12 16q-11 14 -14 18l-10 11l-7 7l-13 10q-4 0 -15 11q-4 4 -7 5l-8 3
q-4 0 -7 3q-5 5 -7 5q-1 0 -5 1.5t-5 1.5q-2 0 -7 1.5t-7 1.5h-6l-5 1h-14l-26 -7q-2 0 -6.5 -2.5t-6.5 -2.5l-9 -4l-3 -3q-9 -7 -10 -7q-2 -2 -6 -5.5t-5 -4.5l-7 -7q-14 -14 -18 -23q-12 -22 -16 -40l-4 -23q-4 -11 -4 -26l-1 -36q0 -2 1.5 -12t1.5 -11t0.5 -3t1 -3.5
t1 -3.5t1.5 -3q3 -34 19 -65l9 -16q3 -5 11 -19.5t11 -18.5z" />
    <glyph glyph-name="p" unicode="p" horiz-adv-x="349" 
d="M18 7q6 8 29 8l12 2l1 3q1 3 1 7v61q0 16 1 21v30v5q-1 4 -1 6v6l1 2v5q-1 1 -1 5v7q0 4 1 17t1 14q-2 2 -2 6l1 3v26q0 19 1 27q1 17 1 36v38q0 14 1 21q1 27 1 43v6q0 3 -1 3l-3 2q-4 1 -18 1q-7 0 -8 -1l-14 -1q-2 0 -2 6v2q1 3 1 5q0 1 2 1t2 1q2 2 5 2h7l11 -1h12.5
h12.5l5 1q1 0 6 -0.5t7 -0.5h5q9 0 27 1.5t28 1.5q1 0 3 -0.5t3 -0.5q26 0 28 -1l19 -2q66 -4 95 -46q20 -29 20 -64q0 -11 -1 -12q0 -1 -0.5 -9t-0.5 -9t-1.5 -5t-1.5 -5q-5 -18 -14 -31l-2 -3l-12 -16q-6 -6 -15 -10l-2 -3l-5 -1l-2 -3q-3 -3 -7 -3q-2 0 -4 -1l-3 -2
l-4 -2l-2 -1h-5l-6 -4h-10q-4 0 -5 -1l-5 -2l-15 -2h-11q-1 0 -7.5 -0.5t-9.5 -0.5q-3 -3 -10 -3q-1 0 -6 0.5t-7 0.5q-2 -2 -5 -2q-2 0 -5 1h-3h-6l-4 -1q-8 0 -8 -1v-51l-2 -25v-8q-1 -5 -1 -11q-2 -30 -2 -33v-12l-1 -7v-22q2 -4 6 -5h7q2 0 8 0.5t7 0.5q14 -2 14 -9v-4
q-1 -1 -6 -1l-4 -1h-5h-14q-1 0 -6 -0.5t-7 -0.5l-5 1q-5 0 -11.5 0.5t-9.5 0.5q-6 0 -7 -3h-50q-7 0 -7 7zM141 213h16q0 -2 2 -2t3 1h2l1 -1q12 0 15 3q6 0 11 0.5t7 1.5h3q1 0 5 0.5t8 1.5t6 2q2 2 10 4t12 4q19 10 27 31q0 1 2.5 5t2.5 5q3 7 3 15q0 2 0.5 13.5
t0.5 15.5q0 21 -6 35q-11 28 -35 47l-8 3l-3 3l-6 3l-6 2q-12 0 -12 3l-19 1q-5 0 -5 1h-5q-4 0 -5 1q-4 0 -9 0.5t-8 1t-4 0.5h-8l-22 -5l-4 -38q0 -25 3 -26l-2 -46l1 -12q-1 -4 -1 -29q0 -4 0.5 -17.5t0.5 -16.5l-1 -4v-6q4 -2 14 -2h10q2 0 3 1z" />
    <glyph glyph-name="q" unicode="q" horiz-adv-x="497" 
d="M193 -17l18 6q-3 1 -12 2.5t-12 2.5q-24 8 -40 14q-1 0 -6 3t-7 4l-5 3q-11 6 -24 17l-5 4q-20 19 -30 42q-2 4 -7 15.5t-9 21t-5 13.5q-9 45 -9 52q0 30 1 35q0 22 6 46q12 63 63 111q3 4 7 9l3 3l31 23l3 2q2 2 6.5 4.5t9.5 3.5q2 2 5 3l3 1q8 0 10 5l6 4l8 2l17 5
q20 3 29 3h16q1 1 5 1q6 0 14 -4l12 -4l13 -3q0 -1 3 -3l6 -3q6 -3 7 -4q22 -12 24 -14l5 -4q5 -4 9 -8l2 -3l5 -4q4 -8 7 -11.5t5 -2.5l11 -13q14 -20 26 -51v-1l1 -2q0 -3 2 -7l2 -6v-5l1 -5v-6v-6v-3q1 -3 1 -5v-46q0 -2 -1 -5v-3q0 -18 -6 -31l-3 -24q-4 0 -4 -14
q-4 -12 -7 -16q-3 -5 -9.5 -20t-7.5 -17q-2 -6 -10 -13q-3 -3 -15 -19l-15 -16q-8 -5 -11 -9q-2 -2 -4 -5l-4 -3l-21 -14q-7 -2 -11 -6l-10 -6l-4 -1q-1 0 -3 -1q-1 -1 -2 -1q-8 -4 -19 -4q0 -1 6.5 -3l13 -4t7.5 -3l31 -21l21 -14q21 -14 23 -16l6 -3l9 -4q1 -1 10 -1h10
q11 0 14 3l5 2q5 3 10.5 6.5t7.5 5.5l5 1l7 5q8 5 12 5q1 -1 1 -5q0 -1 -3 -3q-2 -1 -2 -3q-3 -3 -10 -6l-8 -7l-7 -4l-3 -2l-8 -4l-3 -2q-4 -4 -7 -4h-4q-5 0 -6 -1l-7 -1q-2 -1 -10 -1h-19q-7 0 -7 1q-6 0 -21 5q-18 6 -23 11l-3 3q-2 2 -4 2l-3 2l-3 2l-3 3q0 1 -3 2
l-3 1q-7 7 -10 8q-6 2 -7 6q-4 0 -6 2q-16 13 -32 13q-4 2 -14 2q-2 0 -2 1h-1h-4l-3 -1h-7l-12 -4l-13 -2l-11 -5q-11 -5 -16 -5l-8 -2l-3 -2l-4 -3l-3 -1l-9 -7q-8 -6 -10 -6q0 10 15 20q1 0 4 3q2 3 14 8q2 1 7 2.5t7 3.5l4 2l8 4q5 0 7 3q5 0 10 2zM142 65q2 -1 4 -3
q2 -3 3 -3l13 -13q17 -15 32 -22q18 -8 58 -8h13q32 11 52 25q9 6 16 17l16 20l3 4q2 5 6 10.5t7 7.5q3 4 8 21l2 4q2 6 9 16q0 9 4 26q4 15 4 47v6l-3 20l-1 16l-2 3l-2 10v5q0 4 -12 33q0 1 -9 13q-5 11 -8 13q-10 14 -14 18l-10 11l-7 7l-13 10q-4 0 -15 11q-4 4 -7 5
l-8 3q-4 0 -7 3q-5 5 -7 5q-1 0 -5 1.5t-5 1.5q-2 0 -7 1.5t-7 1.5h-6l-5 1h-14l-26 -7q-2 0 -6.5 -2.5t-6.5 -2.5l-9 -4l-3 -3q-9 -7 -10 -7q-2 -2 -6 -5.5t-5 -4.5l-7 -7q-14 -14 -18 -23q-8 -15 -16 -40l-1 -11q-1 -10 -3 -12q-4 -11 -4 -26l-1 -36q0 -2 1.5 -16.5
t1.5 -15.5l1 -10q1 -9 3 -11q2 -16 14 -50l6 -17q6 -20 19 -37z" />
    <glyph glyph-name="r" unicode="r" horiz-adv-x="412" 
d="M226 236l22 -22q0 -1 6.5 -9.5t7.5 -11.5q7 -15 7 -16l5 -8q4 -20 8 -24q1 -4 5 -15.5t7 -19.5q0 -1 6 -23t7 -23q3 -5 7 -12t5 -9t3.5 -5.5t5.5 -5.5t7 -4.5t11 -5.5l12 -4l8 -2q6 0 8 -1l3 -1h3l12 -2q12 -2 14 -2q6 -2 6 -7q0 -1 -2 -3l-2 -1l-5 -1q-5 -2 -7 -2h-12
q-24 0 -27 3q-26 0 -52 19q-23 17 -38 44l-5 10q-4 9 -4 11q-4 9 -7 18q-6 22 -15 38q-6 16 -7 19q-11 24 -14 35l-3 4l-10 18q-2 6 -11 18l-8 1h-17q-4 0 -11.5 0.5t-9.5 0.5h-13q-12 0 -16 -2v-9q0 -3 1 -4l1 -3q0 -2 -2 -6v-16q0 -4 1 -4l1 -23q0 -2 -0.5 -7t-0.5 -7v-15
l-2 -25l-1 -4v-17q-2 -16 -2 -18t1 -13.5t1 -15.5l-1 -4l-1 -8v-9q0 -5 1 -7q2 -2 4 -2h7q1 0 7 0.5t8 0.5q14 -2 14 -9v-4q-1 -1 -6 -1l-3 -1h-6h-14q-1 0 -6 -0.5t-7 -0.5l-9 -1l-10 1l-4 -1h-7l-9 -2q-3 0 -5 2l-38 2q-7 0 -7 7q4 6 15 6h13l12 2l1 3q1 3 1 7v61
q0 16 1 21v23q-1 3 -1 18v6v2q1 1 1 3l-1 1v3q0 1 -0.5 17t-0.5 18l-1 4v7q0 21 2 39v134q-1 1 -1 4q0 5 2 29q-4 1 -18 1q-1 0 -2 -1t-3 -1l-15 1q-2 0 -2 6l1 3v4l2 1l2 1q2 2 5 2h7q7 0 9 -2h17l11 1h6q10 2 15 2q2 0 13 -1t15 -1h4q6 0 22.5 -0.5t22.5 -0.5q3 0 24 -3
t22 -4q40 -10 55 -28q9 -9 9 -10l6 -7l6 -20q4 0 4 -17q0 -3 -1 -5v-3q-1 -7 -10 -38q-1 -2 -4.5 -9.5t-5.5 -9.5q0 -1 -3 -4t-4 -3q-13 -13 -18 -13l-9 -10q-1 -1 -3 -1.5l-4 -1t-2 -1.5q0 -2 -13 -8zM180 249l3 -1l4 2q2 0 7 -0.5t6 -0.5q2 0 8.5 1.5t9.5 1.5q1 0 3 1t3 1
l16 15q0 2 4 9l3 8q0 2 1 6l2 4q0 4 1.5 10t1.5 9q1 3 1 12q0 3 -0.5 10t-0.5 11q0 20 -17 40q-25 28 -64 28h-13h-5q-3 1 -6 1q-2 0 -13.5 0.5t-15.5 0.5l1 -4v-5l-1 -18v-31l1 -7v-3q-1 -3 -1 -5l-2 -46l1 -7v-30q0 -7 1 -10q1 -1 9 -1h11h9q4 0 17 -1t15 -1z" />
    <glyph glyph-name="s" unicode="s" horiz-adv-x="322" 
d="M158 -11h-20l-3 1h-3l-27 4l-7 3q-4 1 -4 2l-7 3q-3 3 -7 5q-2 2 -3 2q-1 3 -10 8l-12 18q-2 2 -3 5l-3 5q-5 5 -5 13q-4 7 -4 9l1 3l6 11l4 4l13 20l6 6l7 -7q0 -1 -2 -3l-2 -4l-1 -1q0 -2 -1 -2l-1 -1l-2 -4l-3 -6q0 -1 -1 -2q-2 -3 -1 -3q0 -1 2 -6t2 -7q0 -5 2 -7
l3 -7l2 -4q2 -2 2 -3.5t3 -4.5l5 -5q0 -1 2 -3l7 -7q1 -3 8 -6l12 -5q1 0 3 -1t4.5 -2t4.5 -1h9l4 -1h11l7 -1q2 0 13 1l11 2q2 0 8 2t7 2l23 23l3 6l1 1l2 3q9 18 9 37q0 26 -13 46q-29 36 -31 38q-25 25 -26 28l-29 27q-15 24 -27 33q-18 28 -29 58q-3 11 -3 22v11
q2 2 2.5 8t0.5 7l2 5l2 5q12 23 19 31q29 35 89 41l6 -1h13l21 -5l2 -2q2 -2 3 -2q1 -1 7 -6.5t8 -7.5l5 -3l12 -18q2 -2 3 -5l3 -5q5 -5 5 -13q4 -7 4 -9l-1 -3l-6 -11l-4 -4l-13 -20l-6 -6l-7 6q0 1 2 3l2 4q1 0 1 1t1 2l1 1l2 4l1 6v19l-1 1q0 2 -1 3l-2 4l-2 7
q-1 2 -2.5 5.5t-3.5 5.5l-5 5q0 1 -2 3l-7 7q-1 3 -8 6l-12 5q-9 1 -12 4q-14 0 -45 -7q-2 0 -8.5 -3.5t-8.5 -3.5l-15 -17q-8 -11 -8 -20l-2 -4v-22q0 -8 4 -12l5 -13l12 -16l2 -3l3 -4q3 -3 9.5 -10.5t13.5 -16.5l37 -35q3 -2 15 -15t13 -17l13 -18q0 -6 9 -15
q6 -7 11 -25l3 -11q3 -15 3 -20v-14q0 -14 -1 -19q-3 -19 -23 -48l-2 -3q-1 -2 -8 -9q-7 -9 -30 -26l-8 -4l-21 -5l-3 1h-3q-4 -1 -6 -1z" />
    <glyph glyph-name="t" unicode="t" horiz-adv-x="407" 
d="M116 7q2 8 39 8l12 2l1 3q1 3 1 7v61q0 19 2 27q0 3 -1 17t-1 18v6l1 2v4v3l-1 3q2 18 2 20l1 4v26q0 17 -1 18v102q0 8 2 10l1 63l-4 1h-27q-1 -1 -5 -1q-2 0 -3 1h-20h-5l-4 -1q-2 0 -4 2h-4q-2 0 -7 -0.5t-6 -0.5l-18 1q-4 0 -13 -0.5t-11 -0.5q-4 0 -5 -4v-7
q0 -5 1 -16t1 -15q0 -8 -2 -18q-3 -6 -8 -6q-3 0 -7 2q0 35 -1 45q0 1 -1 9t-1 9v4q0 14 4 15l6 2l7 2q4 0 17.5 -1t17.5 -1l43 2q6 -2 13 -2h7q2 2 5 2h7q6 0 10 -2h3l2 1h4l10 1h24q2 -2 3 -2q2 0 5 0.5t4 0.5l6 -2l5 1q1 0 3 0.5l2 0.5h10l5 1l1 -1q1 -1 7 -1q0 2 2 2h4
l3 -1h12q16 0 22 -1q1 1 5 1h6q5 -1 20 -1q7 0 8 1q3 0 6.5 -0.5t4.5 -0.5h4l4 2q2 1 9 1h20l5 -5q-1 -2 -1 -10v-19q0 -8 1 -12q1 -3 1 -19v-6q-5 -11 -10 -11q-6 0 -6 15v4q0 4 -1.5 15t-1.5 16v13h-8q-14 0 -23 -3q-6 -2 -7 -2l-4 1h-6q-6 1 -19 1h-36q-1 1 -7 1
q-1 0 -6.5 -0.5t-7.5 -0.5l-3 1q-13 0 -14 -3v-25q0 -10 -2 -88l-1 -2v-4q-3 -84 -3 -86q0 -15 1 -15v-52l-2 -20v-44v-25q0 -5 -2 -11q0 -1 -0.5 -9.5t-0.5 -10.5l5 -3l14 -2q1 0 7 0.5t8 0.5q14 -2 14 -9v-4q-1 -1 -6 -1l-3 -1h-6h-14q-1 0 -9.5 0.5t-10.5 0.5l-4 -1h-9.5
h-8.5h-4q-3 1 -5 1q-1 -1 -3 -1h-59q-7 0 -7 7z" />
    <glyph glyph-name="u" unicode="u" horiz-adv-x="441" 
d="M191 -6q-7 4 -13 4q-4 1 -13 5t-10 4q-8 3 -12 7q-23 13 -24 13q-41 34 -55 84q-1 1 -1 5q-5 21 -10 76q0 3 -0.5 6t-1 4.5t-0.5 2.5q-6 46 -8 94v9q0 11 -1 16l1 81q-2 6 -2 8q-2 1 -7 1q-6 0 -7 1l-3 -1h-5q-3 0 -3 1l-6 1l-3 1l-3 1q-2 0 -2 5q0 3 1 4q6 6 12 6h5
q0 1 6 1q13 0 16 -1q6 2 10 2l3 -1h3h9q2 -1 8 -1h13q13 0 13 -10v-7l1 -3q0 -4 0.5 -10t0.5 -8v-11q0 -2 1 -6v-5v-5q0 -2 -0.5 -12t-0.5 -14q-1 -4 -1 -15l-1 -24l-1 -7v-10l1 -3v-8q0 -6 1 -8v-13q0 -2 0.5 -7t0.5 -6l1 -14l1 -21l3 -24v-4v-4q1 -3 1 -8q1 -27 4 -30
l1 -10v-2q1 -2 1 -3v-4q0 -3 1 -4l1 -4l1 -12q4 -13 7 -16l8 -15l5 -12l8 -8q3 -8 31 -21l10 -5q1 0 2 -0.5t2 -0.5q5 -3 7 -3q5 0 7 -2h1l2 -1q6 -3 13 -3l48 1q12 3 33 15l4 4l1 2l8 12q13 18 20 33q0 2 1 3l6 12q7 11 8 26v1q1 1 1 2q2 12 6 25q0 9 1 10q0 5 2 11v1l1 2
q0 13 3 31l4 32l2 37q3 26 5 32l6 86q2 8 2 13l-1 12q0 1 -14 1h-21h-3q-1 -1 -4 -1q-24 0 -24 11q0 10 20 10h4q8 0 10 2q15 0 23 1l1 -1h3q1 -1 6 -1q4 0 5 -1q1 1 4 1q1 0 2 -1h2q3 -2 3 -6q2 -6 2 -7q0 -5 -2 -7v-16q-4 -1 -4 -24v-15q0 -1 -0.5 -2.5t-1.5 -2.5l-1 -5
v-9v-2q1 -1 1 -2q0 -2 -2 -4l-1 -3v-21q0 -4 -2 -12l-1 -4v-10l-2 -6v-19q0 -6 -1 -11.5t-1 -6.5v-7q0 -1 -2 -23q-2 -10 -2 -11v-11l-2 -4q-1 -3 -1 -16q-2 0 -2 -4l-2 -5v-1q1 -1 1 -2l-3 -14q-2 -8 -2 -9l-2 -10q-1 -3 -1 -8l-3 -11l-1 -3l-12 -34q-3 -8 -5 -10l-5 -5
l-4 -7q-5 -7 -8 -11q0 -2 -1 -3l-7 -9q-12 -15 -19 -18l-2 -1h-2l-26 -10q-4 -1 -8 -1q-18 -2 -21 -2q-5 1 -21 1q-13 0 -29 4z" />
    <glyph glyph-name="v" unicode="v" horiz-adv-x="468" 
d="M133 416l-21 -2q0 -3 4 -14l6 -12q0 -2 3 -9.5t3 -9.5l41 -107q7 -19 16 -36q3 -5 11 -37q0 -1 7.5 -15t9.5 -21q0 -2 34 -71q4 -14 6.5 -18t5.5 0t9 19q4 11 4 13l2 9l2 9q9 20 9 22l6 23l4 9q10 33 13 38q6 18 6 20q0 8 6 12q1 1 1 4v5q0 10 2 12l9 21q6 12 6 21l1 5
l10 25q3 12 3 13l10 26l6 19l2 10q1 2 2.5 8t2.5 9q0 2 -2 2h-4l-3 -1l-1 1h-2q-2 0 -9 -0.5t-9 -0.5q-7 0 -9 1q-13 3 -13 8q0 3 3 4q1 0 8 1t12 3q2 0 3 -1h8q3 0 18 0.5t19 0.5q11 0 14 -1q0 -1 4 -1h6h22q1 0 2 -1l6 -5l-1 -8q0 -3 -9 -3q-4 0 -9 3l-21 -2q-9 0 -12 1
q-1 -2 -1 -7v-5q-3 -10 -7 -20l-2 -7q-3 -6 -3 -7l-3 -8q0 -2 -3 -6t-3 -6q0 -5 -5 -17q-4 -19 -8 -29q-2 -3 -6.5 -15t-5.5 -14l-1 -2q-1 -1 -1 -3v-6q0 -2 -3 -5q-3 -6 -3 -7l-3 -10q0 -2 -2 -9.5t-2 -9.5l-3 -4q-3 -5 -3 -7l-3 -12q-5 -5 -5 -9q-1 -4 -5 -12t-4 -9
q-1 -4 -5 -14t-4 -11q-7 -25 -14 -40q-1 -2 -2 -7.5t-1 -7.5q-3 -9 -8 -19v-1q0 -1 -1 -4t-1 -4q-1 -1 -6 -23l-1 -3q-1 -3 -2.5 -6t-1.5 -4q-2 -5 -9 -21q-8 -17 -9 -17q-2 0 -6 1h-4q0 1 -3 6.5t-5 9.5l-2 4l-17 32q-11 18 -21 48q-5 11 -11 24.5t-6 14.5q-3 13 -8 21
l-3 6q0 2 -0.5 4t-1.5 4v1q-7 13 -14 34q-36 97 -39 111q-2 5 -11 34t-10 30l-9 23q-1 1 -1 2v1l-1 2l-7 12q-3 4 -36 4q-2 0 -4.5 2t-4 4t-0.5 3q6 8 11 8t22 -1t23 -1h8q2 2 3 2l4 -1q3 -1 7 -1q2 0 3 1l28 -1q0 -3 6 -3h6l3 1q1 0 2.5 1.5t8.5 -0.5q9 0 9 -5q0 -7 -3 -7
q-8 0 -9 -1q-5 -3 -11 -3h-9z" />
    <glyph glyph-name="w" unicode="w" horiz-adv-x="760" 
d="M409 410v-7q0 -13 1 -14l4 -19q20 -83 21 -98q0 -7 3 -10l3 -20q0 -2 3.5 -9.5t3.5 -9.5l13 -46l1 -7q2 -8 3 -11q5 -3 5 -14q2 -6 7.5 -27t7.5 -27q5 -23 8 -32l13 -30q3 2 29 53q4 9 8 23t7 22q4 4 7 17l7 19q2 2 6.5 11t5.5 10q2 4 7.5 18.5t7.5 18.5q7 19 15 32
q4 16 15 40q19 42 22 51l19 55l7 15l-3 1q-2 0 -9 1t-11 1q-2 0 -14.5 -0.5t-16.5 -0.5q-6 0 -6 8q0 7 21 7h5q2 0 3 1h82q8 0 15 -7q5 -3 5 -4q0 -7 -9 -7h-8h-9q-8 -1 -10 -1l-8 1h-3q-2 -1 -4 -1q-4 -2 -9 -14q-1 -2 -2.5 -6t-1.5 -5l-2 -3l-2 -3v-3q-2 -7 -10 -29
q-9 -22 -12 -27q-3 -9 -3 -10l-2 -5l-3 -8q-1 -3 -4 -10q-2 -2 -9 -21.5t-12 -24.5l-15 -33q0 -6 -4 -10q-1 -1 -1 -3q-5 -20 -11 -28q-2 -2 -7.5 -18t-6.5 -18l-2 -2q-2 -2 -3 -8t-5 -15l-6 -11q0 -2 -6 -17q-3 -12 -8 -21l-3 -6q-2 -6 -3 -7q-10 -26 -30 -49q-4 -9 -13 -9
q-7 0 -11 9l-23 35q-5 8 -11 27q-13 31 -18 47q-3 10 -12 35t-11 35q-4 34 -10 43l-11 41q0 2 -2.5 11t-2.5 11q-2 3 -3 11t-2 13.5t-3 5.5q0 -2 -4 -11l-4 -10q-2 -8 -2 -9l-3 -13l-3 -3q-9 -12 -10 -17l-4 -8l-2 -4l-2 -4q-3 -11 -14 -32l-1 -3l-2 -4l-10 -19l-10 -22
q-1 -1 -5.5 -15.5t-8.5 -19.5q0 -3 -1.5 -7t-4 -8t-3.5 -6q0 -2 -6 -15q-2 -5 -8 -19t-7 -18q0 -1 -2 -4t-2 -5q0 -1 -4 -13t-4 -15l-2 -5q-1 -4 -1 -6q0 -7 -8 -9q-3 0 -6 4.5t-5.5 10.5t-3.5 7q0 1 -3 3t-3 4q-9 21 -13 33q0 2 -4.5 12t-5.5 14q0 2 -1 4v3l-2 3l-2 4
q-2 5 -8 20.5t-7 18.5l-13 32q-3 8 -10.5 32.5t-8.5 27.5l-26 77q-5 7 -6 18q-5 25 -10 39q0 5 -6 11q-10 18 -13 42q0 2 -1 3q-11 -4 -23 3l-3 -1h-4h-15q-12 8 -12 10q0 3 3 7t6 4l43 1l3 -2l80 1q21 0 21 -12q0 -5 -6 -7l-6 -2h-12q-1 1 -5 1h-5l-2 -1q-2 0 -5 -0.5
t-4 -0.5q1 -3 6 -18.5t7 -20.5q3 -3 3 -5q14 -26 21 -53q0 -1 3.5 -8.5t4.5 -9.5v-6q1 -4 13 -39l1 -5q2 -4 4 -6q0 -10 3 -19q0 -1 3 -7l3 -6q2 -4 5.5 -16.5t4.5 -16.5q0 -3 2.5 -9t5.5 -13.5t4 -9.5q9 -37 15 -54t11 -16q2 0 21 43q18 42 21 51q9 22 22 46q9 25 10 26
q0 1 2.5 3t2.5 3q2 2 2 6v6q3 7 7 18t6.5 18.5t3.5 9.5q5 12 6 18q0 2 1 4v3q0 1 2 4.5t4 8t2 7.5q0 2 2 8t3 8l9 29q0 1 1 6l1 5l2 3v1q1 1 1 3l-39 1q-13 0 -13 8l4 8l2 3h35q6 1 12 1l28 -1q1 1 6 1q40 0 40 -4q0 -2 -1 -6l-1 -5q0 -5 -13 -5l-26 1l-4 -1q-4 -1 -4 -4z
" />
    <glyph glyph-name="x" unicode="x" horiz-adv-x="467" 
d="M92 28l-1 -4q3 0 9 -2h2h5q4 0 5 1h12l6 -2q6 -2 6 -7q0 -12 -21 -12l-49 -1l-3 -2l-34 1q-3 0 -6 4t-3 7t12 10h6l3 -1q1 0 6.5 2t10.5 2q6 9 20 19l17 24q1 3 8 10t7 8l47 61l10 10q1 2 5 9t6 9l17 24l10 11q16 22 16 27q0 6 -27 33q-2 2 -5.5 8t-4.5 8q0 1 -6.5 8.5
t-14 17t-10.5 14.5l-8 14q-1 3 -26 35q-27 34 -33 44q-2 0 -5 0.5t-5 0.5h-11q-1 0 -4 0.5t-4 0.5h-15q-1 1 -5 1q-11 0 -3 10q4 4 7 4l43 1l3 -2l80 1q21 0 21 -12q0 -3 -2 -4t-4.5 -0.5t-4.5 -1.5h-12q-1 1 -5 1h-5h-3q-6 -2 -10 -2q2 -6 7 -11q2 -2 7 -10.5t7 -10.5l6 -6
q2 -2 11 -17q1 -2 6 -8t7 -8l1 -3q1 -2 4 -6l4 -5l20 -29l17 -22q5 -8 11 -8q3 4 11 14t11 13q1 3 41 54q1 1 6.5 9.5t7.5 10.5l8 9q20 20 20 28l2 5h-32q-4 0 -16.5 -0.5t-14.5 -0.5q-5 0 -5 10q0 8 23 8h5q2 0 3 1l100 1h8q5 0 8 -3q4 -3 4 -8q0 -9 -9 -9h-8h-13
q-12 -1 -14 -1l-9 1h-2q-1 -1 -3 -1q-5 -5 -5 -6q0 -4 -5 -9l-6 -4q-1 -1 -25 -33q-6 -8 -12.5 -16.5t-8.5 -12.5l-2 -3q-9 -9 -10 -12q-3 -3 -10 -14.5t-9 -13.5q-5 -5 -6 -5l-3 -5q-4 -4 -4 -6t-5.5 -9t-5.5 -11q0 -7 12 -23q7 -11 12 -23q4 -2 15 -23l2 -4l2 -2l5 -7
l10 -14q6 -15 9 -18q0 -3 10 -16q14 -22 17 -24l13 -22q2 -3 9.5 -13.5t9.5 -13.5l8 -13q13 -17 18 -24h21q9 0 9 -7q0 -1 -5 -4q-3 -3 -13 -6l-1 -1q-38 0 -93 1q-1 1 -3 1h-5q-21 0 -21 7q0 8 6 8q2 0 14.5 -0.5t16.5 -0.5t7 1t5 1l3 1l-6 12q-1 1 -1 3l-10 12
q-7 8 -13 22q-1 1 -4.5 5.5t-6.5 8.5t-4 6l-30 50q-16 21 -18 26l-1 3q-1 1 -1 3l-13 20q-6 12 -7 12q-5 0 -7 9l-2 3q0 -1 -6 -1q-5 -5 -11 -12l-4 -8t-5 -7q-14 -14 -18 -22l-1 -4l-3 -2q-7 -7 -15 -18.5t-18 -26t-13 -19.5q-3 -1 -3.5 -1.5t-0.5 -2.5t-1 -3l-34 -37
q-2 -2 -3 -4t-2 -3.5t-2 -4.5t-2 -5z" />
    <glyph glyph-name="y" unicode="y" horiz-adv-x="421" 
d="M196 17v70l2 35l1 3q0 2 1 19t1 19v27q0 15 -2 29q-5 14 -11 16q-5 9 -19 28l-1 3l-24 38q-2 2 -6.5 9.5t-5.5 8.5q-27 32 -53 72q0 1 -8.5 11t-8.5 15h-9q-1 0 -4 0.5t-4 0.5h-15q-1 1 -5 1q-11 0 -3 10q4 4 7 4l31 1l3 -2l80 1q21 0 21 -12q0 -3 -2 -4t-4.5 -0.5
t-4.5 -1.5h-12q-1 1 -5 1h-5l-3 -1q-1 0 -4.5 -0.5t-5.5 -0.5l-3 -2l18 -18l31 -45q6 -6 15 -23l23 -39l2 -2q3 -2 3 -3l7 -10q14 -23 18 -23l20 30l42 63q23 36 25 38l8 16q1 2 1 4l5 13h-12q-4 0 -16.5 -0.5t-14.5 -0.5q-5 0 -5 10q0 8 23 8h5q2 0 3 1h39h1l2 1l2 -1h4
l25 1q5 0 8 -3q4 -3 4 -8q0 -9 -9 -9h-29l-2 -1h-3l-3 -3q-27 -46 -33 -52q-2 -7 -9 -14q-2 -3 -14.5 -24t-20.5 -29q-10 -12 -15 -28l-11 -17q-10 -21 -9 -32v-10v-9q0 -19 -1 -45q0 -11 -0.5 -22t-1 -16.5t-0.5 -7.5q-4 -24 -4 -85q-1 0 -1 -3q2 -2 14 -2h7q1 0 7 0.5
t8 0.5q14 -2 14 -9v-4q-1 -1 -6 -1h-3q-4 -1 -6 -1h-14q-1 0 -6 -0.5t-7 -0.5h-4q-4 0 -9.5 -0.5t-8.5 -0.5l-3 1h-5q-3 0 -3 -1h-60q-7 0 -7 7q2 8 39 8h4q5 1 7 1q0 1 3 2z" />
    <glyph glyph-name="z" unicode="z" horiz-adv-x="388" 
d="M354 35q-1 -2 -19 -14q-6 -6 -13 -6l-2 -1q-1 -1 -3 -1q-5 0 -6 -3l-7 -2l-6 -1l-2 -1h-5q-5 -2 -43 -6l-46 4q-1 1 -3 1q-3 0 -5 -1l-3 -1q-1 0 -1.5 0.5t-2.5 1t-5 1.5h-4l-33 1l-12 1h-22h-1q-2 -1 -4 -1.5t-4 -0.5l-6 1l-14 -1q0 -2 -15 -2l-2 -1q-1 -1 -5 -1
q-10 0 -13 -1q-9 3 -17 33q4 6 8 12.5t6 10t3 5.5l31 57q0 1 1 3l1 2q2 4 8.5 16t8.5 14q3 6 16.5 26t16.5 26l17 32q2 2 3 5l2 3l33 53q1 3 10 18l7 13q0 1 4 5.5t5 6.5q9 9 16 25q1 1 8.5 12t10.5 14l6 6q20 20 20 25q-2 0 -5 -1l-4 -1h-10h-7l-4 -1h-7q0 1 -4 1
q-5 0 -6 -1h-10q-1 1 -4 1h-21h-4q-3 1 -6 1q-2 0 -3 1l-9 1q-3 0 -7 0.5t-5 0.5h-4h-6l-4 1h-36q-5 0 -6 -1l-16 -3l-14 -4l-11 -9l-7 -7l5 -23q1 -3 1 -5l1 -6l2 -4q2 -6 2 -8q-7 -4 -8 -4l-5 7l-12 26q-5 13 -5 15t3 5l2 3q2 2 2 3l12 10q8 6 17 12q12 4 15 4l4 2
q3 1 9 1l11 2q5 0 11 -0.5t11 -0.5h7q1 1 6 1h7l17 -2q3 -1 11 -1h12q7 0 21 -2h62l3 1q8 2 8 -1q8 2 30 2h10l4 -3q9 -5 4 -5l-1 -2l-3 -7l-6 -8l-2 -6q-2 -3 -6.5 -8t-5.5 -6q-1 0 -2.5 -2t-3.5 -4l-1 -2q-7 -11 -12 -16l-8 -12l-9 -9l-2 -3q-1 -3 -2 -3q-2 -1 -4 -6
l-1 -4q-1 -2 -5.5 -6t-5.5 -6v-5q-2 -4 -5 -7q-1 0 -2 -4l-1 -4q-1 -4 -9 -14q-3 -6 -20 -28q0 -1 -6 -10t-8 -13q-14 -26 -16 -29l-15 -26q-1 -2 -4 -6t-3 -5l-8 -13l-8 -8l-10 -20q-5 -5 -5 -9l-6 -9l-10 -20q-1 -2 -11 -19.5t-12 -24.5l-7 -8q-4 -7 -4 -9q-5 -8 -6 -8
q1 -1 4 -1t8 0.5t7 0.5q3 1 12 1q8 0 11 1h22q10 0 13 1q2 0 5 -0.5t7 -0.5h5q2 0 29 -3q6 -2 23 -2.5t18 -0.5h19q14 0 28 2q17 3 20 6l10 3q1 0 2 1.5t2 1.5l6 2l7 5q4 4 4 5v4q0 3 -1 5l-4 6l-3 6l-2 4l-1 1l-1 1q0 2 -1 2l-2 4q-2 2 -2 3q6 7 7 7l6 -6l13 -20l4 -4
l6 -11q1 -3 -3 -12z" />
    <glyph glyph-name="braceleft" unicode="{" horiz-adv-x="229" 
d="M128 -41q-10 0 -19 9q-4 1 -10 14q-16 7 -19 61v3l-1 2q-2 26 -2 27v13q0 54 4 118q0 2 -1 12v11v12q0 7 -3 11l1 16q-3 2 -3 7v16q-1 1 -1 3q-5 24 -6 27l-9 23q-9 15 -9 17q0 4 5 12l5 8q0 2 1.5 7.5t4 15.5t4.5 21l2 43v2q-1 1 -1 3v31q-1 3 -1 18q0 8 -1 9v82
q0 5 -1 6l2 31v2q1 1 1 3q7 50 28.5 68.5t70.5 18.5q3 0 6.5 -1.5t5.5 -3t1 -2.5l-2 -4q-4 0 -7 1l-5 1q-3 0 -11 -0.5t-10 -0.5h-9q-9 0 -14 -8l-4 -4q-10 -14 -11 -28v-14v-5l1 -3v-26q0 -7 2 -24l2 -18q1 -7 4.5 -22t3.5 -19t0.5 -7.5t1 -5.5t0.5 -4v-3t1 -10.5t1 -14.5
q0 -6 -4 -27q0 -2 -1 -7v-6l-1 -2q-1 -2 -1 -5q0 -2 -3 -8t-3 -8l-13 -25q0 -1 -1.5 -6t-2.5 -7q-4 -5 -14 -22q0 -1 -2 -4.5t-4 -6.5l-2 -4l-2 -4q-2 -6 -2 -7l8 -6q5 -5 6 -8l12 -13q15 -18 15 -25q3 -6 6 -15l3 -10q9 -24 9 -61v-21q0 -1 1 -5.5t1 -6.5v-26q-1 -2 -1 -4
q0 -1 -1 -5.5t-1 -6.5t-1 -8l-1 -7v-5q-2 -42 -2 -49q0 -2 -1 -5v-2q-3 -12 -3 -15q0 -7 2 -9l-1 -16q1 0 4.5 -18.5t3.5 -20.5q0 -1 1 -4l1 -3q4 -6 5.5 -8.5t5 -5.5t7 -4t9.5 -1q4 -1 8.5 -0.5t10 1t6.5 0.5h6q1 0 5.5 1t7.5 1q2 -2 5 -2h6l3 1q0 -2 1 -4l1 -3q0 -2 -4 -2
h-1q-1 -1 -3 -1l-8 -1q-1 0 -11 -2l-8 -1q-9 0 -13 -4h-28q-3 0 -4 -1l-4 2q-5 0 -7 1z" />
    <glyph glyph-name="bar" unicode="|" horiz-adv-x="168" 
d="M65 -174l-2 70l-1 4v5l-1 4v5q0 4 -0.5 9.5t-0.5 11v9.5v3l-1 3v39q-4 4 -4 18q0 5 4 34t4 35q0 16 -7 23q0 2 -1 4l-1 3q-4 52 -4 134q0 22 2 40v75q-1 3 -1 11q0 6 1 38t1 38q0 2 -0.5 11.5t-0.5 13.5q0 3 1 4v21q1 2 1 6t-1.5 19t-1.5 20q0 3 1 4q0 1 0.5 13.5
t0.5 14.5v35q0 2 1 12v9q0 1 1 3t1 3l2 103l6 16q6 16 13 16q10 -7 21 -1q3 0 3 -2v-12q0 -7 3 -8v-29q2 0 4 -11.5t2 -14.5v-19q0 -3 -0.5 -17t-0.5 -17l1 -5v-6l-1 -7q0 -1 0.5 -2t0.5 -2v-22q0 -5 -0.5 -19t-0.5 -18q0 -2 1 -4v-3q0 -5 -1.5 -20.5t-1.5 -19.5v-6l2 -11
q2 -12 3 -14q1 -9 1 -43l1 -1v-3l-1 -5q-1 -3 -1 -5v-27q0 -5 -0.5 -9t-0.5 -8l-1 -3q-2 -8 -2 -12v-49q2 -2 2 -4v-7q0 -3 1 -3l1 -20q5 -50 5 -58q0 -9 1 -24v-32q0 -2 -0.5 -18.5t-0.5 -17.5l-1 -3q0 -7 -2.5 -41t-2.5 -42v-10q1 -1 1 -3q0 -3 -1 -9.5t-1 -8.5v-3
q1 -3 1 -4t-0.5 -4t-0.5 -4q0 -3 0.5 -12t0.5 -11l-1 -16q0 -7 1.5 -30.5t1.5 -29.5v-8q1 -1 1 -6q0 -6 -1 -9v-39q2 -2 2 -4t-1 -4v-2l-1 -2q-1 -3 -1 -5q0 -4 -6 -4q-2 0 -10 -3l-7 -4h-15l-6 3q-2 2 -2 6v5q0 5 -1 6z" />
    <glyph glyph-name="braceright" unicode="}" horiz-adv-x="248" 
d="M76 -46l-46 4l-4 2h-13l-1 4q-2 4 -2 5l4 4l35 -3q4 0 16 -1t14 -1q7 0 20 6q15 6 19.5 12t7.5 25q0 1 0.5 2t0.5 2q0 4 1 7l1 4q0 2 -1 3q1 4 1 16q0 13 -2 17v8q0 1 -2 23q-6 30 -6 33l1 4v5q0 1 -5 20v11q0 18 -3 34v50q0 4 2 14t2 11t1 10t1 10q2 6 8 15t17 22t12 15
q14 14 14 18q0 2 -1 3q-13 8 -18 14.5t-12 20.5l-15 18q-2 4 -20 48q0 2 -1 16t-1 16q0 14 14 101q0 16 3 30q0 1 0.5 4.5t1.5 8.5t1 8l1 6q0 1 1 13t1 13q0 3 0.5 10.5t0.5 9.5q0 15 -10 22q-3 3 -16 3h-8l-6 -1q-12 0 -13 1q-4 1 -16 1q-2 0 -6 -1l-5 -2q-2 0 -2 2
q0 10 24 15q2 0 13.5 1t15.5 1l27 -1l10 -5q12 -4 22 -32v-31q-3 -8 -3 -29q0 -5 -1.5 -13.5t-1.5 -14.5q0 -2 1 -5v-4v-40l3 -52q1 -5 1 -9l-2 -34q0 -2 1.5 -9.5t1.5 -11.5q0 -12 7 -25q2 -6 3.5 -13t2.5 -10t4 -7.5t8 -9.5l18 -21q0 -6 -6 -7q-3 -1 -14 -15l-4 -2
q-4 -3 -4 -6l-5 -12q0 -9 -7 -22v-46q0 -15 1 -19l1 -3q0 -6 0.5 -12t1 -9t0.5 -4q4 -8 4 -31v-5q0 -4 1 -5q0 -1 0.5 -3.5t0.5 -4.5q3 -39 3 -74v-9q0 -2 -0.5 -9t-0.5 -11v-5q0 -2 -5 -22q-5 -28 -14 -38q-5 -5 -10 -12q-1 -2 -5.5 -4.5t-5.5 -3.5l-2 -3q-2 -3 -4 -5.5
t-4 -2.5l-2 1q-4 0 -11 -7q-2 0 -13 -3t-15 -3q-2 0 -3 1z" />
    <glyph glyph-name="asciitilde" unicode="~" horiz-adv-x="620" 
d="M50 138q0 3 1 4.5t3 3t4 4.5l2 3l1 3q1 1 22 21q12 9 36 33q4 1 16.5 9.5t16.5 10.5l9 2q9 1 12 3l11 1q10 1 12 1h17q7 0 8 -1q22 0 46 -3l17 -4q2 -1 7.5 -4t6.5 -3q1 -1 10.5 -4.5t18.5 -7t9 -4.5l4 -1q2 -1 6 -2.5t5 -1.5q9 0 19 -6l6 -3h4q3 -1 5 -1q2 -1 8.5 -5
t8.5 -4l16 -4l3 -2l3 -2h4q6 0 8 -3l30 -5q1 -1 4 -1q42 0 71 29q1 1 4.5 7t5.5 8l6 15q1 7 9 7q4 0 4 -5q0 -4 -5 -12v-4q0 -12 -7 -19l-7 -7t-5 -4l-2 -2l-1 -2l-3 -3l-1 -2q-1 0 -3 -1t-3 -1q-10 -10 -11 -10q-2 0 -8.5 -1.5t-7.5 -2.5q-2 0 -8 -6q-1 -2 -4 -3h-2l-4 -2
q-2 0 -3 -1t-2 -1h-6l-3 -3l-4 1q-10 0 -12 -2l-92 2q-6 0 -21 6l-6 2q-6 1 -13 3t-9 4q-4 3 -20 7q-62 27 -65 28q-5 2 -14 3.5t-17.5 3t-9.5 1.5q-20 5 -34 5q-4 0 -15.5 -7t-15.5 -7q-5 -9 -14 -14l-4 -1q-1 0 -10 -5l-9 -5q-1 -3 -9 -11l-8 -9l-4 -1q-4 -1 -5 -2l-3 -3
q-4 -4 -6 -4q-4 0 -4 4z" />
    <glyph glyph-name="exclamdown" unicode="&#xa1;" horiz-adv-x="204" 
d="M92 21l-5 5q-6 25 -7 49v4q0 2 0.5 6.5t0.5 5.5l-8 130l2 23q-3 36 -3 39l2 71v4q0 3 -1 22t-1 28l-1 11q0 62 1 69v2q1 3 0 6v3l1 5q3 9 3 27v21q0 5 2 7q3 7 8 9q1 1 9 1q4 4 10 4q2 0 4 -5l2 -6l5 -1q3 -3 3 -10q0 -1 0.5 -6t0.5 -7v-4q1 -4 1 -6q0 -6 1 -8v-4l2 -25
l-3 -19q0 -2 1 -3v-2q1 -9 1 -39q-3 -12 -3 -13l-1 -3l2 -25q-2 -2 -2 -4q1 -1 1 -3l1 -2v-4q0 -3 -1 -12t-1 -11q2 -10 2 -11v-6q0 -2 1 -4v-2v-3l-1 -2v-9q0 -16 -3 -18l2 -22v-1q1 -1 1 -2l-1 -3q1 -2 1 -16v-8l-2 -4l1 -6v-6q0 -2 -0.5 -7t-0.5 -6q2 -14 2 -18v-6l1 -2
q1 -2 1 -4q0 -1 -1 -4v-3l1 -6v-24l-2 -6q2 -2 2 -7v-5l-1 -2q0 -1 -0.5 -3t-0.5 -4t1 -3q2 -11 3.5 -24.5t1.5 -14.5v-7q0 -2 2 -12l2 -9v-5q-1 -4 0.5 -12t1.5 -14q0 -5 -9 -14q0 -3 -7 -3q-11 0 -25 18zM72 655q-2 10 -2 11v16q0 4 6.5 10t12.5 8q6 3 13 3l2 -1h5h6l3 -3
q2 -3 5 -6.5t5 -4.5l3 -1q3 -1 3 -12q0 -12 -11 -29q-6 -8 -25 -8q-4 0 -5 1l-4 1q-11 6 -17 15z" />
    <glyph glyph-name="cent" unicode="&#xa2;" horiz-adv-x="318" 
d="M130 -61v68q0 12 -1 17l-8 6l-9 5l-2 1l-4 4l-4 3q0 1 -4 5.5t-5 6.5q-22 33 -29 47q-14 36 -14 87q0 5 2 16t2 12q6 57 39 101q4 6 22 16.5t20 12.5v35v4q0 4 0.5 10l1 12t0.5 10v4q0 10 3 19q14 11 18 11t4 -8q0 -18 -4 -21v-49q1 -1 1 -5q0 -1 -0.5 -4t-0.5 -5
q1 0 6 2t7 2q5 1 24 1h5l3 -3q3 -2 6.5 -2t11.5 -8l3 -2l7 -17q0 -5 -1 -5h-4q-7 4 -11 11q-2 6 -7 11q-5 0 -7 2h-21q-4 4 -24 -11q-1 -1 -6 -5t-7 -6q-1 -2 -6 -6.5t-5 -5.5q-20 -38 -24 -80q-3 -3 -3 -20v-22q0 -1 1 -18t1 -19q1 -12 6 -30l3 -4l2 -4q0 -3 1 -6l1 -5
l2 -4q6 -14 7 -18q17 -32 23 -37q20 -10 21 -10h8q4 0 5 1q6 1 16 11l5 2q6 5 13 14q6 6 25 44q4 13 9 19q1 1 1 5t1.5 6.5t5.5 2.5q6 0 6 -12q0 -11 -22 -46l-1 -3l-1 -3l-2 -2q-1 -3 -2 -5l-1 -2q-3 -5 -8 -8l-1 -3q-10 -32 -36 -36q-1 0 -9 -3t-10 -3h-21q1 -14 1 -65
q1 -1 1 -4q0 -17 -7 -20h-4q-4 -4 -7 -4q-8 0 -8 12z" />
    <glyph glyph-name="sterling" unicode="&#xa3;" horiz-adv-x="577" 
d="M424 -1l3 2q-2 0 -9.5 -0.5t-8.5 -0.5q-4 0 -21 -0.5t-22 -0.5q-1 0 -6 0.5t-7 0.5l-41 -1q-34 2 -54 2l-22 -1q-2 0 -3 -1t-3 -1h-4l-4 1q-1 0 -6.5 2t-7.5 2q-6 1 -13.5 6t-7.5 10q0 2 1 4v3v2q1 2 1.5 5t0.5 5v4v8l-1 5q0 3 -1 16t-1 16q-3 1 -3 17v8q0 2 -0.5 5
t-0.5 5l-1 5v6q0 56 -5 164l-1 23q-15 3 -17 3q-4 0 -4 -1l-46 -2l-25 3l-4 1q-2 0 -9 -1t-8 -1l-9 1q-5 3 -4 9t10 8q35 0 45 1l2 -1q1 -1 3 -1l3 1q1 0 5 -2l3 -1q1 0 3 1t4 1h11l2 1h3h2q1 -1 3 -1l14 -2q2 0 7 1t6 1q0 34 2 52q3 54 9 66q0 1 0.5 8t0.5 8t1 9t1 9
q5 22 5 25q0 1 4.5 21t9.5 25l2 8l2 8q2 11 23 50l9 18l1 2q2 2 4 5l4 6l8 11q1 0 17 12.5t22 16.5q22 13 42 13q9 0 12 -1l5 1l26 -7l10 -5q9 -6 11 -6q1 -1 7 -6t8 -8q4 0 6 -6l5 -3l19 -26q5 -5 11 -17q2 -2 5 -10l3 -7q6 -7 6 -11l1 -2q2 -2 2 -3l-12 -18l-10 -10
l-6 -12l-8 -10t-6.5 -7.5t-4 -5t-2.5 -3.5l-12 -12l-7 4l-1 1l-2 2q0 4 3 6l6 8l2 3q2 3 2 4l6 8l1 2q1 2 2.5 4.5t1.5 3.5l3 5q3 6 5.5 10.5t1.5 4.5q0 1 -1 3t-1 3l-1 9q-4 7 -4 12q-7 7 -9 12q-3 2 -6 6q-4 1 -4 5l-1 4l-2 5q-1 2 -3 8l-3 3l-3 3l-12 14q-1 1 -13 7
l-16 8h-15q-17 0 -20 1h-5l-4 -1q-2 -2 -8.5 -5t-7.5 -4q-4 -2 -6 -8q-12 -11 -15 -16q-18 -36 -26 -79q-3 -15 -10 -45q-9 -36 -9 -56q0 -1 0.5 -5.5t0.5 -6.5v-5q0 -28 -2 -30v-11q0 -5 1 -6v-35q1 -2 1 -18v-7q3 -4 10 -4q2 0 10 2t10 2h18q14 0 18 1q11 1 40 1h3
q4 1 6 1q4 0 6 -2h13q2 2 9 2l2 -1q3 -1 5 -1t7 1.5t7 1.5q4 0 4 -4q0 -2 3 -3l2 -1l-1 -7q-1 -7 -7 -7h-4q-4 1 -6 1l-3 1h-5h-13l-3 -1h-18q-7 -1 -37 -1l-5 -1q-5 -1 -12.5 -2t-12.5 -1h-3q-4 1 -6 1q-4 -4 -16 -4q-2 0 -6 0.5t-5 0.5q-5 0 -9 -4v-5q0 -9 2 -29t2 -26v-9
q0 -9 1 -11q0 -2 -0.5 -13.5t-0.5 -12.5v-5q0 -2 0.5 -10.5t0.5 -11.5q0 -1 -0.5 -7.5t-0.5 -8.5t1.5 -13.5t1.5 -15.5t-1 -7v-5q0 -27 2 -33q0 -4 3 -26.5t3 -29.5v-5q0 -1 2.5 -4t3.5 -3h91q8 -2 19 -2l7 1l7 1l4 -1h5h5l21 1l22 2h9q3 0 6 1h5h5l4 -1h12q14 0 24 -3
q0 8 -0.5 16.5t-1 12.5t-0.5 5v4q0 2 -1 14t-1 16q0 19 4 24q2 3 12 3q9 0 9 -18v-19q0 -11 -1 -14q-2 0 -3 -12q-1 -9 -1 -16q0 -2 1 -4l1 -3q0 -2 -0.5 -6.5t-0.5 -7.5l1 -5q2 -6 0 -6q2 -2 2 -3q0 -2 -2.5 -4.5t-3.5 -2.5h-4q-2 -1 -10 -1h-16q-4 0 -5 1q-4 0 -4 -1l-8 1
l-8 -1h-6q-4 0 -17.5 -1t-17.5 -1z" />
    <glyph glyph-name="currency" unicode="&#xa4;" horiz-adv-x="470" 
d="M66 108q-2 -2 -5 -2q-9 0 -9 6l-1 4q-1 3 -1 5l1 5q0 6 3 9l8 8q1 1 3 4t4 5t5 2l17 13q34 29 38 49q-14 29 -21 46q0 2 -0.5 10t-0.5 10l-1 3q-1 2 -1 4q0 47 25 91q4 4 11 19l3 4q18 18 18 22q0 2 -9 6.5t-10 6.5q-7 7 -16 23l-30 35q-10 11 -10 20q0 6 8.5 13.5
t14.5 7.5t13 -4.5t11.5 -9t11.5 -12.5t8 -10q5 -9 13 -17q7 -7 14 -22t10 -15q2 0 8 3l6 3q5 5 15 8l4 1l13 9q14 8 31 8q4 0 16 -5l13 -5q10 -4 13 -10l22 20q22 42 67 68q1 0 7 4q14 10 14 0q0 -6 -20 -21l-3 -6l-5 -3q-4 -3 -8 -6.5t-4 -4.5q-2 -9 -6 -10q-7 -5 -15 -19
l-3 -2q-11 -8 -28 -29v-2q-1 -1 -1 -3q13 -17 18 -42l2 -18q3 -6 3.5 -9.5t-0.5 -7.5t-1 -8q0 -3 1 -10t1 -9l-2 -8v-19l-2 -3q-9 -13 -9 -36q0 -1 -2 -5t-3 -5q-4 -8 -8 -28q0 -7 -5 -15l-1 -3q2 0 4 -1h3q6 -1 16 -11q15 -11 63 -62q6 -7 0.5 -12.5t-11.5 -5.5
q-10 -10 -16 -10q-2 2 -15 12.5t-18 18.5l-26 25q-1 2 -6.5 8t-5.5 8q-3 5 -7 5l-10 -10l-1 -4q-1 -4 -2 -4q-13 -17 -31 -19h-6q-4 0 -5 -1q-24 0 -27 1h-1q-5 4 -25 10q-2 1 -6.5 5t-5.5 4h-5q-16 7 -23 17l-1 -1l-3 2q-4 1 -7 1q-2 0 -7 -5l-12 -9l-19 -19q-3 -6 -7 -7
l-18 -19q0 -1 -6 -11t-6 -17zM184 222l34 -34q2 0 7.5 -5.5t6.5 -5.5q8 -5 19 -5q9 0 28 18q19 19 23 27q1 1 7 19q9 22 10 27q0 2 1 4l2 3l4 10q0 15 6 29q0 1 1.5 4t1.5 4v21q0 11 2 15v10q0 34 -15 61l-9 10q-9 10 -13 13q-15 10 -28 10q-10 0 -18 -3l-4 -1
q-2 -1 -5.5 -4.5t-6 -5t-6.5 -1.5h-8l-3 -3l-3 -3l-10 -4l-9 -3q-3 -6 -8 -11l-11 -6q-8 -11 -16 -28q-12 -36 -12 -44q0 -1 0.5 -7t0.5 -8v-9l-1 -2q-2 -3 -2 -5q0 -1 2 -3l1 -2v-12l3 -15l18 -35q2 -2 5 -10t5 -10z" />
    <glyph glyph-name="yen" unicode="&#xa5;" horiz-adv-x="654" 
d="M496 673l6 9q2 2 2 4q-9 -3 -12 -3h-7l-2 -1h-3l-6 2h-3h-16q0 -2 -3 -2q-2 0 -5 1l-3 1q-6 0 -6 7q0 2 -2 5l-2 2q0 7 15 7l4 1l42 -1q1 1 3 1t9 -1l7 -1h1q1 -1 2 -1q2 0 10 1t11 1h5q6 0 8 -2l42 1q1 -1 2 -1q2 -1 3 -1q6 0 6 -8q0 -5 -5 -7t-6 -3l-1 -1l-2 -2
q-3 0 -5 2l-54 1q-1 -3 -4 -6q-1 -1 -2 -4t-3 -5.5t-5 -2.5l-4 -8l-2 -6q-2 -6 -4 -8q-1 -2 -3 -5l-2 -3q-7 -20 -16 -33l-6 -14q-7 -3 -7 -7q0 -2 -1 -4v-3q0 -4 -7 -11l-3 -2q-2 -1 -4 -7l-2 -6q-2 -3 -5 -6q0 -1 -3 -3l-2 -2l-3 -7q-2 -2 -3 -4l-12 -20q-1 -2 -20 -28
q-5 -6 -9 -19q-1 -2 -6 -5t-5 -4v-4l-1 -3l-3 -6l-3 -5q-7 -1 -15 -15l-1 -4q-1 -4 -5 -9.5t-8 -12t-5 -7.5q13 -3 37 -3q9 0 45 2.5t41 2.5q2 0 13.5 1.5t15.5 1.5q2 0 5.5 -3t3.5 -6q0 -9 -11 -9q-3 0 -4.5 -4t-4.5 -4h-8q-6 0 -8 -3h-12q-3 -3 -9 -3h-5q-1 0 -7.5 0.5
t-8.5 0.5h-15q-7 0 -8 -1q-10 -1 -22 -1l-34 -2v-25l1 -3q0 -6 -1.5 -28.5t-1.5 -26.5q0 -7 17 -7l14 1q3 0 6 0.5t4.5 1t2.5 0.5t4 1t4 1q3 0 11 0.5t12 0.5q2 0 11 -0.5t11 -0.5h18q4 0 5 1l5 1q5 2 7 2q4 0 5 -1l2 -11q0 -2 -3 -5.5t-5 -3.5h-5l-3 1l-5 -3q-1 0 -2 0.5
t-2 0.5t-3 -2q-5 0 -12 -0.5t-14 -0.5q-13 -1 -19 -1l-7 -1q-55 -7 -55 -14v-29l-1 -5v-70q-1 -1 -1 -6q0 -2 1 -4q1 -41 3 -46l-1 -3v-10q0 -2 0.5 -10.5t0.5 -11.5q0 -2 -0.5 -7.5t-0.5 -6.5h43q1 -1 5.5 -2.5t8.5 -3t4 -2.5q0 -12 -7 -13l-11 -2l-13 1h-5q-5 1 -7 1
t-8 -2l-5 1h-8q-2 -2 -3 -2q-2 -2 -11 -2h-10q-3 0 -4 1h-12q-5 0 -6 1h-27q-2 1 -7 1l-3 1h-4q-4 0 -5 -1l-3 -1q-2 0 -5 -0.5t-5 -0.5q-9 0 -9 6q0 13 15 14l43 2q6 0 7 1q-2 12 -2 32q0 9 1 25.5t1 17.5v16q0 4 0.5 17.5t0.5 16.5q0 4 -2 30q-1 13 -1 60q0 3 -5 3h-4
q-3 0 -8.5 -1.5t-7.5 -1.5q-33 -4 -58 -4q-4 0 -14.5 1t-12.5 1h-16q-11 0 -11 4q0 3 1 4l-1 2q-1 1 -1 2q7 4 9 4q4 4 11 4q1 0 7 -0.5t8 -0.5q5 0 6 1h45q50 3 50 5l2 3q1 8 1 17v20q0 15 -2 17v8l-1 31l-7 2h-64q-1 -1 -9 -1l-3 1h-4q-2 0 -14 1t-13 1l-3 1h-13
q-1 1 -4.5 2t-6 2t-2.5 2q0 2 -2.5 3t-2.5 3v5q1 3 3 5q8 2 13 2h7q2 0 3 1h3h14q5 0 6 -1q34 0 60 -2q4 0 9 -1l8 -1h7l2 -1h3q3 0 6 3q-16 15 -20 26l-10 22q-1 1 -17 21q-8 8 -12 17l-2 3q0 2 -3 5l-6 6l-2 3q-13 19 -28 48q-4 10 -21 32l-2 4t-2 3q-3 7 -19 29
q-3 10 -11 25q-8 14 -29 44q0 8 -7 8q-3 0 -5.5 2t-9.5 2h-9q-4 0 -4 -1h-12q-2 -2 -3 -2q-8 0 -8 3l-2 8q0 7 9 8q5 1 23 1h1q2 -2 9 1l8 1q1 0 7 -0.5t9 -0.5q1 0 4 1h2q15 0 23.5 -1.5t11.5 -1.5h49q2 -2 2 -5t-1 -4l-1 -3q-6 -7 -23 -7h-7q-7 0 -8 -1h-14l-1 -3v-1
l-2 -4q0 -1 1 -1q13 -16 14 -20l3 -3q6 -6 12 -16q1 -3 5 -8.5l12 -16.5t16 -24q11 -20 22 -35l1 -3q1 -2 4 -6t4 -5l24 -36q0 -1 7 -8q14 -15 23 -28l8 -10l4 -7l1 -3v-4q15 -22 23 -22l3 1q3 0 8.5 6.5t10 14t5.5 8.5l11 13q7 8 18 30q7 7 13 17q6 14 22 37q2 4 10 15
t10 14l7 14q1 3 4 8t4 8l2 6q3 0 17 33q13 27 16 33z" />
    <glyph glyph-name="brokenbar" unicode="&#xa6;" horiz-adv-x="167" 
d="M80 -179q-6 45 -6 47q0 4 -3.5 16t-3.5 15q3 18 1 25q0 5 0.5 19.5t0.5 18.5v4q0 2 -0.5 13t-0.5 12q-3 6 -3 14q0 2 0.5 7t0.5 6v20q0 2 -0.5 5t-0.5 5q-1 12 -3 48.5t-3 48.5l-1 3q0 8 -2 16v42v12l-1 9v4q-1 2 -1 18v7l1 8v22q2 7 5 8l3 2l5 6q3 3 6 6.5t4 4.5l2 1
l3 -3q8 -11 9 -16l5 -27v-16q4 -9 4 -22v-7q1 2 4 -34t3 -43l2 -38q0 -4 0.5 -16.5t0.5 -16.5q0 -3 -1 -4v-36q-1 -2 -1 -8q0 -2 1 -8.5t1 -7.5v-6q0 -1 -0.5 -5t-0.5 -5q0 -5 1 -23t1 -23v-7q2 -2 2 -10l-1 -5q0 -2 0.5 -8t0.5 -7v-5q-1 0 -1 -5q0 -1 1 -7t1 -8
q0 -1 -0.5 -8t-0.5 -8q3 -13 3 -29q0 -10 -0.5 -15t-5.5 -10.5t-14 -5.5l-3 3q-1 0 -7.5 3t-6.5 4zM53 445l1 3v6t-0.5 9.5t-0.5 9.5q0 1 0.5 6t0.5 7q-3 36 -4 37v17q0 3 1 17t1 19q0 4 -1 5v11q0 59 8 89l-3 74q0 6 6.5 8.5t8.5 4.5q7 13 20 13q3 0 9 -26q0 -1 2.5 -9
t3.5 -11v-45q2 -2 2 -6t-1 -5v-13q0 -4 1 -5q0 -2 1 -12t1 -13q0 -4 -2 -16t-2 -16v-14l1 -11q1 -1 1 -5v-5q0 -4 -2 -20.5t-2 -22.5v-9q0 -6 1.5 -29t1.5 -30q0 -9 -10 -18v-11q-7 0 -10 -3q-1 0 -4 1t-4 1q-2 0 -6 -2.5t-5 -2.5q-5 0 -10 8t-5 14z" />
    <glyph glyph-name="section" unicode="&#xa7;" horiz-adv-x="355" 
d="M103 -8q-1 3 -9 6.5t-10 7.5l-16 16q-6 3 -12 18.5t-6 22.5q0 16 8 16q6 0 10 -7q2 -2 2 -5v-5l-1 -2q5 -18 8 -20l7 -11l8 -8q0 -3 4 -4l5 -2q10 -6 18 -10l15 -4h23q17 0 35 7h3l3 1q8 1 18 12q5 4 16 17q9 21 9 25q0 9 1 17t1.5 12.5t0.5 5.5q0 17 -4 29v1
q-1 1 -1.5 3t-0.5 4l-1 7q-11 27 -16 32q-8 12 -10 14l-9 15q-10 13 -24 33l-17 20l-2 3q-1 2 -8 9t-7 8q-19 26 -19 62l1 9q1 6 1 10q5 20 9 29q2 4 7 10q2 2 5.5 8t4.5 7l11 11q1 2 4.5 5.5t5.5 7t2 6.5l-15 8l-10 10q-1 0 -7 5t-8 6l-10 11q-10 11 -13 16q-7 15 -7 17
l-2 5l-3 5l-3 7q-3 6 -3 9l-3 17q-1 3 -1 12q0 2 0.5 10t0.5 10v4q-1 4 -1 6q2 2 5 7.5t5 10.5l2 5q7 15 23 40l33 30q11 11 20 11q37 18 59 19q18 2 22 2q30 0 30 -8q-2 -8 -12 -8l-10 4q-10 0 -14 -4q-7 -2 -19 -7q-12 -3 -14 -7q-8 -8 -13 -8l-15 -13q-11 -7 -15 -15
l-12 -17q-1 -2 -5 -11t-6 -11l-2 -12v-2q0 -3 -0.5 -6t-1 -5t-0.5 -4v-1q0 -10 5 -33l2 -7l2 -6v-2l13 -21l1 -5l2 -4l18 -19q4 -1 7 -3.5t7.5 -7t7.5 -6.5q14 -17 24 -21q1 0 4 -4l6 -8t4 -5q4 -6 7.5 -11t4.5 -8l2 -2v-1q1 -1 1 -2l7 -15q1 -1 11 -32q0 -2 0.5 -10
t0.5 -11v-5q0 -6 -2 -8q-4 -17 -6 -19q-5 -5 -5 -13l-6 -6l-3 -4q-3 -5 -3 -7q-3 -3 -6.5 -7t-5.5 -6t-5 -3.5t-7 -1.5q-1 -2 -7.5 -5.5t-11.5 -7.5l-6 -3q2 -2 23 -15q2 -1 7.5 -6t6.5 -6q23 -23 31 -36q0 -2 2.5 -6.5t5.5 -8.5l2 -4q10 -13 10 -35q1 -1 1.5 -5t0.5 -7.5
t1 -3.5l-1 -14q-2 -2 -2 -10q-5 -21 -10 -29q-11 -16 -14 -18q-2 -2 -4.5 -5t-4.5 -5l-8 -7l-8 -9q-1 -1 -5 -3q-2 0 -3 -4q-4 0 -10 -6t-12 -8l-5 -1l-6 -3q-6 -4 -9 -4l-5 -2q-3 -1 -6 -1q-1 -4 -9 -4q-2 0 -8 0.5t-8 0.5t-8 -2h-21q-9 0 -15 2q-18 8 -20 8zM149 330
q0 -6 10.5 -21.5t19.5 -22.5q5 -9 18 -17h10q19 0 28 10q0 1 6 6t6 6q6 0 6 13v20q0 22 -5 24q-8 24 -24 46l-10 8q-10 13 -19 13q-5 0 -9.5 -4t-9.5 -10.5t-7 -8.5q-2 -3 -5 -6t-5 -6t-4 -7l-1 -5q-2 -5 -4 -6q0 -1 -0.5 -15t-0.5 -17z" />
    <glyph glyph-name="dieresis" unicode="&#xa8;" horiz-adv-x="228" 
d="M48 531l-2 2l-13 -2q0 1 -6.5 5t-6.5 7q0 29 24 39h16l1 -2q2 -2 3 -2h1q1 -1 2 -1q10 -3 11 -9q1 -3 1 -9l-1 -1v-4q2 -6 2 -7q0 -4 -2 -5.5t-6.5 -2.5t-6.5 -2q-6 -8 -12 -8q-1 0 -5 2zM157 561v8q17 17 24 17h2q1 1 4 1q14 0 18 -7l1 -2q2 -4 2 -5q0 -13 -9 -26l-1 -4
l-3 -3l-3 -2q-1 0 -7 -2q-4 -3 -10 -3q-4 0 -9 5q-9 10 -9 23z" />
    <glyph glyph-name="copyright" unicode="&#xa9;" horiz-adv-x="551" 
d="M294 241h-14l-8 2h-5q-1 1 -7 1t-12 3q-4 0 -12 3q-1 1 -6 2.5t-7 1.5l-6 2q-3 0 -5 2q-1 0 -7 2.5t-8 2.5h-5l-3 2q-10 6 -12 8l-6 2l-6 4l-4 2q-1 1 -9.5 7.5t-10.5 9.5q0 5 -10 15q-3 1 -3 2q-8 14 -16 21l-17 22q-3 3 -16 38q-1 2 -3 13.5t-4 13.5l-2 21v10
q0 22 1 29q5 33 25 68q0 1 2 5l2 4q18 30 30 40l5 4q7 5 16 14q2 1 11.5 7t12.5 8l12 9q2 0 4 2q1 0 3 2l2 2l4 2q4 2 5 2l3 2l2 1q5 1 5 2l6 1q35 11 64 11q3 3 22 3h5q4 -1 6 -1q12 0 18 -3q15 0 32 -5q2 -1 5 -3l3 -2l10 -6q2 -2 5 -2l22 -21l11 -11q15 -12 17 -17
q8 -5 9 -11q1 -3 1 -6l1 -1l2 -2v-7l2 -2q2 -2 2 -3l2 -4l4 -5q6 -16 8 -19v-7l1 -5l3 -13q3 -12 5 -13v-12q0 -1 -0.5 -3l-0.5 -2v-4l1 -2q0 -2 -1.5 -4.5t0.5 -3.5v-2q0 -2 -0.5 -6t-0.5 -5l1 -1v-3v-3l-1 -2l2 -3l-1 -3v-3q-2 -2 -2 -5q0 -2 1 -5l1 -3q0 -10 -3 -18
q0 -1 -5 -8.5t-5 -11.5q0 -6 -1 -6l-1 -1q-1 -1 -1 -2t-2 -7t-3 -7q0 -1 -2 -3t-2 -3l-1 -3l-20 -31l-2 -4q0 -1 -8 -9q0 -2 -3 -5q-1 0 -2.5 -2t-2.5 -5l-2 -2q-5 -2 -12 -12l-8 -11q-3 0 -3 -4q-7 0 -7 -5l-1 -1h-5l-6 -8q-2 0 -5 -2t-4 -2l-1 1q-1 1 -3 1t-12 -7
q-9 -5 -25 -6q-3 0 -6 -0.5t-5.5 -1t-3.5 -0.5h-5q-2 -2 -4 -2q-4 0 -4 1zM215 282q2 -2 7 -4l5 -1q12 -6 17.5 -7.5t9 -2t7.5 -1.5q17 -5 18 -5q9 0 11 1l3 2h3q3 -1 5 -1q5 0 8 3l16 2h3q4 1 6 1q1 2 8.5 6t8.5 5t3 2.5t3 1.5l10 8q2 0 3 1q4 4 4 6q4 3 5 3q1 3 6 3l5 7
q2 1 4 3q6 5 14 16l2 3q2 3 5 7t5 6q13 26 17 45q3 6 3 13v10l1 8q0 32 -10 71q-3 10 -5 16q0 2 -2 12l-2 2l-1 2l-7 22q-2 5 -6.5 14t-10 18t-6.5 12h-1l-2 2q-4 9 -14 19q0 1 -1.5 3t-2.5 3q-5 9 -14 14q-5 0 -9 4l-11 4q-18 0 -20 6q-3 1 -17 1q-2 2 -3 2q-7 0 -19 -3
l-12 -3l-1 -1q-2 -1 -4 -1q-2 -1 -4 -1t-9.5 -2t-9.5 -2q-5 0 -16 -3q-4 0 -4 -2q-11 -4 -13 -6l-6 -1q-2 -3 -8 -7l-6 -3l-2 -3h-4l-7 -5q-3 -7 -7 -8l-9 -10q0 -1 -4 -5l-1 -3q0 -1 -4.5 -7t-5.5 -8v-3l-5 -5q0 -2 -2 -4l-5 -10q0 -2 -1 -4l-1 -2q-2 -6 -2 -8q-2 0 -2 -2
v-4v-1q0 -1 -1 -1l-1 -2q-2 -6 -2 -14v-10q0 -1 -1 -7t-1 -8v-8q0 -8 2 -12q-1 -1 0 -17v-13q1 -1 1 -4q1 -1 1 -3v-8q0 -1 2 -19l6 -11q0 -1 1 -3.5t2 -5.5l2 -6q0 -1 4 -8t5 -9l1 -1q1 -1 1 -2q14 -21 20 -29l9 -13q1 0 3 -2l2 -2l11 -12q2 0 11.5 -5.5t14.5 -5.5z
M299 558q-2 0 -5 -1l-4 -1q-11 0 -20 -6q-2 0 -7 -6q0 -1 -2 -2.5t-4 -3.5l-2 -1q-6 -9 -12 -15l-2 -8l-1 -2q-2 -2 -2 -3q0 -2 -1.5 -4.5t-2.5 -4.5l-1 -2l-1 -8l-3 -8l-2 -8q0 -5 -1 -7v-21v-2q1 -1 1 -2l2 -11l1 -1q1 -2 2 -3.5t1 -3.5l2 -4q16 -22 35 -26q6 -2 7 -2
q12 0 20 5l2 2q2 1 3 2q2 0 4 2q10 14 21 24l5 8q2 3 4 3h5q2 0 2 -3q0 -8 -12 -19q-3 -6 -4 -7l-2 -3q-1 0 -5 -5t-6 -6q0 -1 -2 -3t-4 -3l-3 -2q-1 -1 -4 -3l-2 -2l-5 -1l-2 -1l-2 -1l-11 -2l-3 -1h-28q-2 0 -7 2.5t-8 3.5q-1 0 -3 1l-3 2q-15 13 -17 16l-1 2l-3 3l-7 14
q-1 3 -1 8v4l-1 3q0 1 -1 6t-1 7v8q0 12 2 14q5 17 6 21q5 20 21 36q0 5 4 5l7 9l5 3l7 8l4 2l7 7q13 10 29 11l3 2h5l13 -4l5 -2l4 -1l1 -2l2 -2l5 -3l5 -8l1 -2l2 -2q3 -1 3 -6q1 -1 1 -5l-5 -7l-5 2l-3 3l-1 3q-2 2 -3 7l-3 3l-12 8q-5 0 -6 3z" />
    <glyph glyph-name="ordfeminine" unicode="&#xaa;" horiz-adv-x="304" 
d="M154 579h-21q-16 0 -23 -4q-1 -1 -3.5 -7t-9.5 -11q-9 -14 -21 -26q0 -5 -6.5 -10.5t-7.5 -8.5q-1 -1 -2 -4t-4 -3t-3 7v4l12 20l15 20l2 4l1 4l3 6l5 6q4 11 28 45q2 3 6.5 12t6.5 12q12 21 12 35v7q5 7 10.5 10.5t6.5 0.5h3l6 -8l5 -6q5 -13 10 -19q1 -1 3 -7v-4l2 -2
q2 -2 2 -3q2 -2 5 -10t5 -10q1 -1 3 -5t5.5 -11.5t7.5 -14.5q0 -1 5 -10t7 -13l1 -4q0 -2 2 -6.5t2 -6.5l1 -3q0 -1 7 -15.5t7 -21.5v-5q0 -1 -1 -1l-1 -2l-2 -2q-10 -5 -21 -7l-6 4q-6 4 -8 6l-6 12l-8 14q-17 40 -25 41h-4q-1 0 -6.5 0.5t-7.5 0.5zM184 421q-2 0 -4 -1h-2
q-1 0 -19 2.5t-23 2.5q-7 0 -9 -2q-2 0 -5 1l-3 1l-15 2q-15 2 -18 2l-2 -1h-3q0 3 -10 3q-1 0 -6.5 2.5t-5.5 3.5h-9v6q1 0 9.5 5t14.5 5q2 0 11 -1.5t14 -1.5l59 -5q2 -2 3 -2l16 -1q18 0 30 -3q2 0 9.5 -2t10.5 -2q1 0 7 0.5t8 0.5h6q6 -6 6 -8v-7q-2 -1 -3 -1
q-1 -1 -2 -1l-1 1h-8l-4 -1l-35 -1q-1 0 -7.5 1.5t-9.5 1.5zM152 639q-6 0 -14 -13l-1 -3l-9 -18q-1 -2 -2.5 -4.5t-2.5 -4t-1.5 -2.5t-1.5 -2v-1h6q1 0 17 0.5t18 0.5t3 1q4 1 4 2q0 2 -2 7l-2 6q0 3 -9 29q0 1 -3 2z" />
    <glyph glyph-name="guillemotleft" unicode="&#xab;" horiz-adv-x="453" 
d="M180 136q-1 0 -14.5 13.5t-13.5 14.5l-32 33l-6 8q-5 8 -7 10q-46 51 -57 77q0 5 6.5 13.5t6.5 9.5q20 25 55 90l8 11q8 12 9 14l12 23q2 5 10.5 18.5t9.5 14.5l7 13v8q5 0 6 -1h6q5 0 5 -2q0 -13 -9 -25q0 -1 -2.5 -3t-2.5 -3q-1 -2 -4.5 -10.5t-5.5 -10.5
q-22 -39 -23 -40l-3 -2q-3 -2 -3 -3q-1 -2 -4.5 -11t-5.5 -12l-2 -2l-3.5 -7t-5.5 -10q-1 -1 -3.5 -4t-4.5 -5.5t-2 -3.5l-14 -25q0 -2 -1 -4l-2 -3l-6 -6q-3 -8 -3 -11q0 -9 9 -13l14 -15q21 -24 28 -31l2 -3q0 -1 2 -3t5 -4t4 -3q14 -20 23 -29q2 -3 9 -9t8 -8l14 -18
q23 -23 27 -30l-10 -12q-5 -8 -12 -8q-14 0 -24 19zM299 215q-3 0 -19 13q-9 5 -11 10q-2 0 -7 3.5t-6 3.5q0 2 -4.5 5.5t-6.5 3.5l-18 19q-6 2 -11.5 9t-5.5 13q0 5 10 19q1 1 4 5.5t4 5.5l16 24q2 1 5 7t5 6q27 39 42 58l22 26q2 4 12 19t11 17q3 3 7.5 10t9 10t12.5 3
q0 -2 -2 -6l-3 -3q-3 -5 -6 -9.5t-4.5 -7.5t-3 -5.5t-2.5 -3.5l-1 -2l-2 -4l-3 -6q-1 -1 -6.5 -7t-6.5 -8q0 -1 -6 -8t-11 -15q-5 -7 -10 -12q-4 -2 -10.5 -12.5t-7.5 -11.5l-6 -6l-2 -4q-3 -9 -19 -25q-5 -13 -12 -20q-14 -19 -14 -23t4 -7l4 -1q32 -17 56 -36l4 -2
q3 -1 5 -3l1 -4l3 -1q4 -2 18.5 -14.5t18.5 -15.5q2 0 8 -9q2 -3 11.5 -10.5t10.5 -8.5l20 -20q7 -7 7 -10q0 -4 -3 -6l-1 -13h-6q-1 0 -3 3l-2 2h-3q-2 1 -4 1q-7 3 -17 13q-35 25 -39 29q-5 1 -26 22z" />
    <glyph glyph-name="logicalnot" unicode="&#xac;" horiz-adv-x="564" 
d="M491 267l-1 12l-4 85l-2 43q-1 4 -1 7l-1 8v8q0 9 -5 14q-9 -1 -16 -1h-4q-2 0 -3 -1h-4q-4 0 -14 -1.5t-14 -1.5q-27 3 -46 -4q-10 -3 -34 -3h-4l-3 1h-18l-3 -1h-6q-2 0 -11 -0.5t-13 -0.5h-6q-1 -1 -3 -1q-3 0 -11 0.5t-16 0.5h-5l-4 -1q-4 0 -6 2q-2 0 -9 0.5
t-10 0.5q-1 0 -7.5 -1t-8.5 -1q-4 0 -12.5 1t-10.5 1h-8l-5 -1q-1 0 -7 2t-8 2q-7 -3 -16.5 -3.5t-14 0t-7.5 -0.5h-7q-2 0 -12.5 -0.5t-14.5 -0.5h-13q-11 0 -11 9q4 12 8.5 16.5t16.5 6.5l28 4q12 3 16 3h4q6 0 39.5 -1.5t39.5 -1.5h9l4 -1h4h8h6l5 1q2 0 4 -1h3h27
q8 0 16 2q1 0 5 0.5t11 1t14 0.5q17 1 30 1q7 0 37.5 2.5t41.5 2.5h51l7 1q5 1 9 1q6 0 6 -3q10 -34 10 -58q2 -2 2 -10q0 -1 -1 -5t-1 -6t1.5 -11.5t1.5 -13.5q0 -2 -0.5 -8.5t-0.5 -9.5q0 -1 0.5 -6t0.5 -7v-3q-1 -3 -1 -5l1 -5v-7v-6l-1 -5v-25l-1 -5v-4l1 -3
q-8 -8 -16 -8q-6 0 -6 3z" />
    <glyph glyph-name="uni00AD" unicode="&#xad;" horiz-adv-x="0" 
 />
    <glyph glyph-name="registered" unicode="&#xae;" horiz-adv-x="551" 
d="M294 241h-14l-8 2h-5q-1 1 -7 1t-12 3q-4 0 -12 3q-1 1 -6 2.5t-7 1.5l-6 2q-3 0 -5 2q-1 0 -7 2.5t-8 2.5h-5l-3 2q-10 6 -12 8l-6 2l-6 4l-4 2q-1 1 -9.5 7.5t-10.5 9.5q0 5 -10 15q-3 1 -3 2q-8 14 -16 21l-17 22q-3 3 -16 38q-1 2 -3 13.5t-4 13.5l-2 21v10
q0 22 1 29q5 33 25 68q0 1 2 5l2 4q18 30 30 40l5 4q7 5 16 14q2 1 11.5 7t12.5 8l12 9q2 0 4 2q1 0 3 2l2 2l4 2q4 2 5 2l3 2l2 1q5 1 5 2l6 1q35 11 64 11q3 3 22 3h5q4 -1 6 -1q12 0 18 -3q15 0 32 -5q2 -1 5 -3l3 -2l10 -6q2 -2 5 -2l22 -21l11 -11q15 -12 17 -17
q8 -5 9 -11q1 -3 1 -6l1 -1l2 -2v-7l2 -2q2 -2 2 -3l2 -4l4 -5q6 -16 8 -19v-7l1 -5l3 -13q3 -12 5 -13v-12q0 -1 -0.5 -3l-0.5 -2v-4l1 -2q0 -2 -1.5 -4.5t0.5 -3.5v-2q0 -2 -0.5 -6t-0.5 -5l1 -1v-3v-3l-1 -2l2 -3l-1 -3v-3q-2 -2 -2 -5q0 -2 1 -5l1 -3q0 -10 -3 -18
q0 -1 -5 -8.5t-5 -11.5q0 -6 -1 -6l-1 -1q-1 -1 -1 -2t-2 -7t-3 -7q0 -1 -2 -3t-2 -3l-1 -3l-20 -31l-2 -4q0 -1 -8 -9q0 -2 -3 -5q-1 0 -2.5 -2t-2.5 -5l-2 -2q-5 -2 -12 -12l-8 -11q-3 0 -3 -4q-7 0 -7 -5l-1 -1h-5l-6 -8q-2 0 -5 -2t-4 -2l-1 1q-1 1 -3 1t-12 -7
q-9 -5 -25 -6q-3 0 -6 -0.5t-5.5 -1t-3.5 -0.5h-5q-2 -2 -4 -2q-4 0 -4 1zM215 282q2 -2 7 -4l5 -1q12 -6 17.5 -7.5t9 -2t7.5 -1.5q17 -5 18 -5q9 0 11 1l3 2h3q3 -1 5 -1q5 0 8 3l16 2h3q4 1 6 1q1 2 8.5 6t8.5 5t3 2.5t3 1.5l10 8q2 0 3 1q4 4 4 6q4 3 5 3q1 3 6 3l5 7
q2 1 4 3q6 5 14 16l2 3q2 3 5 7t5 6q13 26 17 45q3 6 3 13v10l1 8q0 32 -10 71q-3 10 -5 16q0 2 -2 12l-2 2l-1 2l-7 22q-2 5 -6.5 14t-10 18t-6.5 12h-1l-2 2q-4 9 -14 19q0 1 -1.5 3t-2.5 3q-5 9 -14 14q-5 0 -9 4l-11 4q-18 0 -20 6q-3 1 -17 1q-2 2 -3 2q-7 0 -19 -3
l-12 -3l-1 -1q-2 -1 -4 -1q-2 -1 -4 -1t-9.5 -2t-9.5 -2q-5 0 -16 -3q-4 0 -4 -2q-11 -4 -13 -6l-6 -1q-2 -3 -8 -7l-6 -3l-2 -3h-4l-7 -5q-3 -7 -7 -8l-9 -10q0 -1 -4 -5l-1 -3q0 -1 -4.5 -7t-5.5 -8v-3l-5 -5q0 -2 -2 -4l-5 -10q0 -2 -1 -4l-1 -2q-2 -6 -2 -8q-2 0 -2 -2
v-4v-1q0 -1 -1 -1l-1 -2q-2 -6 -2 -14v-10q0 -1 -1 -7t-1 -8v-8q0 -8 2 -12q-1 -1 0 -17v-13q1 -1 1 -4q1 -1 1 -3v-8q0 -1 2 -19l6 -11q0 -1 1 -3.5t2 -5.5l2 -6q0 -1 4 -8t5 -9l1 -1q1 -1 1 -2q14 -21 20 -29l9 -13q1 0 3 -2l2 -2l11 -12q2 0 11.5 -5.5t14.5 -5.5z
M319 362q-1 1 -3 4t-3 3q-4 2 -5 9q0 2 -4 7t-4 6q0 2 -1.5 7t-2.5 7q-4 11 -6 13q-1 1 -4 14l-4 7q0 1 -2 4.5t-2 5.5l-3 5q0 1 -2 6.5t-2 7.5t-2 4l-2 1q6 0 8 1q-16 0 -16 -2l-10 -2l-3 -4q-6 0 -6 -3q2 -18 2 -37v-32l-4 -2q0 -5 -6 -5q-2 0 -4 1h-2q-3 0 -9 2
q-3 5 -4 17.5t-2 16.5l-3 14q0 9 -2 19l2 38q-2 6 -2 12l2 25v18q1 3 4 6q5 6 13 6l4 -4h15l6 3h23h5q18 0 35 -9l8 -9q10 -11 10 -25q0 -1 -1 -2v-1l1 -3q0 -17 -8 -23l-7 -4q-3 -4 -11 -7t-9 -4h-11q2 -7 4 -8l9 -9q0 -2 6 -11q2 -4 7 -15.5t6 -13.5l5 -15q0 -4 3 -4
q3 -4 6 -16q12 -24 17 -28q3 -2 7 -3t6.5 -1t3.5 1q1 0 4 3l3 4q7 0 7 -6q0 -2 -5.5 -5t-8.5 -3q-1 0 -3 0.5l-2 0.5l-4 -1q-8 0 -14 3q-4 3 -10 3q-13 4 -13 12zM235 516v-6q1 -1 1 -24q0 -5 2 -5l2 1l2 1h30q2 2 8 2q3 0 9 5.5t7 9.5v12q0 5 1 6v1v4l-4 10l-2 6
q-5 5 -10 6l-19 4q-1 -1 -4 -1l-4 -1l-4 -1q-2 -1 -4 -1l-4 1q-1 0 -4.5 -2t-3.5 -3v-11q0 -13 1 -14z" />
    <glyph glyph-name="overscore" unicode="&#xaf;" horiz-adv-x="180" 
d="M10 496q0 2 5 5q13 9 26 9h51q10 2 26 2l26 -1q2 0 4 1h2h10q2 -5 5 -7l5 -3q0 -6 -14 -6q-5 0 -7 -1l-5 -3q-4 -3 -10 -3l-3 -1h-3q-2 0 -2 2h-27q-14 -6 -35 -2h-6l-5 1q-2 0 -7 -0.5t-7 -0.5q-3 -1 -15 -1q-14 0 -14 9z" />
    <glyph glyph-name="degree" unicode="&#xb0;" horiz-adv-x="238" 
d="M50 668v7l3 12q9 37 54 53q2 0 4.5 2.5t3.5 2.5q13 5 24 5l12 -4q21 -8 30 -24l6 -13l1 -3v-36q-1 -1 -2 -4.5l-2 -7t-1 -4.5q-6 -14 -19 -31l-2 -4q-3 -3 -17 -7q-13 -4 -44 -4q-2 0 -8 4l-6 4l-12 6q-16 18 -20 24q-5 7 -5 22zM97 686l-1 -6v-7q0 -40 37 -40q3 0 14 6
q1 1 5 2l4 1q8 6 8 13q9 33 9 36q0 11 -11 25q-6 8 -9 8h-3l-3 -1q0 2 2 2q1 1 1 2q0 7 -10 7q-16 0 -24 -7q-19 -12 -19 -41z" />
    <glyph glyph-name="plusminus" unicode="&#xb1;" horiz-adv-x="489" 
d="M213 239v8q0 5 -1 25t-1 25q-1 1 -4 1t-4 -3h-45h-11q-2 -1 -6.5 0t-7.5 1.5t-4 -1.5q-2 0 -2 2h-4q-2 0 -8 -2t-8 -2q-3 0 -9.5 1t-11.5 2l-5 1h-10q-10 0 -10 4l-1 1l-4 2t-2 3q0 1 -2 2t-2 3q0 4 31 10q15 0 19 4h14q3 0 16.5 -1t17.5 -1l9 1q9 1 10 1q2 0 18.5 1
t18.5 1q6 0 6 6q0 9 -0.5 47.5t-0.5 46.5v22q0 2 0.5 15t0.5 14l2 3q1 2 3 4.5t4 3.5h3q1 1 3 1q4 0 8 -4q1 -1 7 -23q0 -2 4 -13t5 -15v-11l3 -14q2 -14 2 -18q3 -21 3 -38v-6q0 -19 6 -23q10 -1 45 -1h25q1 1 7 1h12q2 0 28 3q25 3 38 3q5 0 13 -6.5t8 -10.5q0 -6 -5 -6
q-15 4 -20 -3h-4q-9 -1 -10 -2h-16q-4 -3 -17 -3q-6 0 -8 2h-12q-8 -8 -9 -8h-15q-2 -2 -9 -2l-4 1h-4l-32 1l-4 1q-3 1 -5 1q-6 -6 -6 -23q0 -2 0.5 -6t0.5 -5q0 -41 -3 -45q0 -2 -0.5 -16t-0.5 -16v-14q-1 -3 -4.5 -4.5t-8 -1.5t-6.5 -1l-5 -4q-4 -4 -6 -4q-11 0 -11 39
q0 41 -2 43zM108 23h-10l-4 8q0 5 7.5 11.5t11.5 7.5h3q3 1 5 1l3 1q4 -1 38 -1l11 -1q27 0 31 1q4 0 7 1l5 1q30 -3 32 -3q10 0 16 2l53 2q9 3 29 3h15l8 1h10q9 -1 15 -7q3 0 8 -5q10 -7 10 -15q0 -1 -1.5 -2t-4.5 -2l-2 -1l-4 1q-2 0 -12 2t-12 2q-10 0 -15 -5
q-3 -1 -11 -1l-3 1h-3q-5 0 -21 -2h-10q-1 0 -5 -0.5t-11 -1t-14 -0.5l-16 1l-8 -4l-21 2q-6 -3 -12 -3h-4q-4 1 -6 1l-15 1q-1 0 -8 -0.5t-8 -0.5h-4q-2 0 -5 1l-3 1q-10 0 -10 -1l-48 3q0 -2 -3 -2q-2 0 -4 2z" />
    <glyph glyph-name="twosuperior" unicode="&#xb2;" horiz-adv-x="242" 
d="M68 662l7 6q2 2 3 2q6 8 22 19q14 8 35 8h19q2 -2 8 -3l5 -2q0 -1 5 -5.5t6 -6.5q5 -13 7 -15q2 -21 1 -34q-1 -7 -9 -22l-13 -17l-6 -8q0 -1 -5 -6.5t-6 -8.5q-7 -5 -12 -12l-2 -2q-4 -1 -4 -3t-5 -7q-2 -2 -8 -9t-8 -10q-13 -16 -13 -18q-2 -6 -7 -13q-6 -6 -10 -25v-6
l-1 -4h4q4 0 18.5 1.5t16.5 1.5h35q6 0 7 -1h23q2 0 6.5 -3.5t4.5 -6.5q0 -10 -8 -10q-2 0 -3 1h-21q-4 0 -5 1l-11 1l-33 -2q-2 -2 -4 -2q-1 0 -4 0.5t-4 0.5h-18l-4 -1l-12 1q-4 1 -9.5 5.5t-5.5 7.5v1q1 2 1.5 5t0.5 5l2 10l10 23q4 8 7 13.5t5 7t3 2.5t1 2q9 19 13 20
l16 18q2 9 20 23q9 6 16 24t7 30q0 4 -1 5l-4 22q-12 12 -20 12h-9q-7 0 -8 -1q-9 0 -16 -7t-10 -8h-1v-16q0 -2 2 -9t2 -9l3 -6q0 -7 -5 -7q-1 0 -5.5 6t-9 12.5t-5.5 7.5q-5 12 -5 14q0 3 8 7z" />
    <glyph glyph-name="threesuperior" unicode="&#xb3;" horiz-adv-x="252" 
d="M58 688l7 6q1 1 5 3l21 9q7 3 18 3h12q2 0 8 -0.5t7 -0.5h1q1 -1 2 -1q14 -3 20.5 -7t14.5 -16q6 -14 6 -24q0 -17 -14 -40q-2 -2 -2 -3t-2.5 -4t-2.5 -5t2 -4l4 -4t5 -4l2 -1q30 -35 30 -65l-1 -8q-1 -5 -1 -9l-3 -16q-6 -23 -26 -42q-9 -9 -11 -10l-3 -3l-14 -7
q-10 -3 -20 -3h-16q-4 0 -11 2.5t-8 2.5q-1 1 -6.5 4.5t-10 8.5t-6.5 11l-7 7l-5 16q0 8 -3 11v17l3 6q2 1 9 1l6 -6v-19q0 -10 2 -12l2 -5l3 -5l2 -4q2 -3 4 -5q12 -8 15 -11q9 -3 18 -3q11 0 23 9q10 7 16 21q10 16 10 36v4q-1 10 -3.5 18.5t-4.5 14t-7.5 10.5t-8 7t-9 6
t-7.5 5q-4 4 -13 4h-13q-4 -2 -5 -2q-2 0 -9 0.5t-8 0.5q-2 2 -2 7q0 8 6 10.5t15 3t13 2.5q37 16 37 51q0 29 -17 35q-6 2 -13 2h-3l-3 -1q-3 0 -10 -2t-12 -2l-13 -7v-10q0 -2 2 -9t2 -9l3 -6q0 -7 -5 -7q-1 0 -5.5 6t-9 12.5t-5.5 7.5q-5 12 -5 14q0 3 8 7z" />
    <glyph glyph-name="acute" unicode="&#xb4;" horiz-adv-x="137" 
d="M38 494l-18 3q0 3 11 19q3 6 3 7q1 0 9 8q19 19 36 51q2 3 7.5 11t7.5 11l4 2q4 2 8 2l6 -2q5 -3 5 -6q0 -4 -3 -10q-7 -7 -12 -16l-8 -14q-5 -3 -7 -8q-8 -14 -10 -14q-1 0 -6 -9l-5 -9l-2 -6q-3 -6 -3 -7q-14 -14 -19 -14q-3 0 -4 1z" />
    <glyph glyph-name="mu" unicode="&#xb5;" horiz-adv-x="489" 
d="M149 416l1 -3l-3 -1q2 -2 3 -4l1 -2l3 -9l-2 -47q1 -1 1 -3v-20q0 -3 0.5 -8t0.5 -6v-4q-2 -14 -2 -26l-2 -8l-1 -6q0 -1 2 -3v-15l-2 -8v-18q0 -2 -0.5 -7.5t-0.5 -6.5t0.5 -11t0.5 -11v-21q1 -2 1 -18l-1 -3l1 -1v-3q2 -6 2 -12t1 -9l1 -2v-3q0 -4 7 -21q0 -6 2 -12
l1 -2q2 -3 3.5 -5.5t1.5 -3.5q1 -2 5 -7.5t5 -7.5q16 -31 49 -45q1 0 11 -3l10 -4q3 0 4 1l19 4q1 1 13.5 3.5t16.5 4.5q22 11 32 46q0 2 1 3l1 2q6 13 9 29q1 44 1 94q0 8 2 50q0 8 0.5 18t1 15.5t0.5 8.5v8l1 3l5 67v3v8t0.5 11t0.5 10v8v3l1 3v5h-21h-3q-1 -1 -4 -1
q-24 0 -24 11q0 10 20 10h4q8 0 10 2q15 0 23 1l1 -1h3q1 -1 6 -1q4 0 5 -1q1 1 4 1q1 0 2 -1h2q3 -2 3 -6q2 -6 2 -7q0 -3 -1 -4v-2l-3 -114q0 -5 -1 -19t-1 -18t1 -4v-101q1 -3 1 -8v-8q0 -4 -1 -21.5t-1 -23.5v-50q3 -2 3 -18v-7q4 -7 13 -7l33 -2q5 -8 5 -10q0 -4 -6 -4
q-2 0 -6.5 1t-5.5 1h-50q-3 -4 -18 -4q-5 0 -5 8v9q0 19 -5 29q-6 -2 -6 -10q-12 -12 -15 -14l-6 -6l-2 -3q-1 -3 -3 -5q-1 0 -17 -4l-10 -6q-8 -2 -14 -2q-9 -1 -16.5 -2.5t-11.5 -1.5l-3 -1q-5 0 -12 1.5t-10 1.5l-5 1l-19 8q-3 4 -8 5h-3q-7 3 -13 6q-30 28 -32 31
q0 3 -2 5l-5 7h-4l1 -84q0 -1 2 -3v-7q0 -4 -0.5 -18t-0.5 -18q0 -5 1 -6q1 -7 1 -15v-14q0 -8 3 -19l-3 -4q0 -1 1 -3t1 -3q0 -2 -1 -3l-1 -2q0 -4 1 -17.5t1 -17.5q0 -12 -13 -19l-5 1q-13 13 -13 22v11q0 18 -3 20v3q1 3 1 4l-5 25q-2 26 -2 34q-2 2 -2 7v4q-1 8 -4 124
l-1 -3q0 4 -0.5 19.5t-0.5 21.5l1 10q0 19 1 22v50l1 3v21l-1 3v6q0 3 1 3v66q1 3 1 15q0 13 1 16v67l2 6v22q-2 6 -2 8q-2 1 -7 1q-6 0 -7 1l-3 -1h-5q-3 0 -3 1l-6 1l-3 1l-3 1q-2 0 -2 5q0 3 1 4q6 6 12 6h5q0 1 6 1q13 0 16 -1q6 2 10 2l3 -1h3h9q2 -1 8 -1h13
q13 0 13 -10v-7z" />
    <glyph glyph-name="paragraph" unicode="&#xb6;" horiz-adv-x="604" 
d="M521 2q-4 2 -12.5 4.5t-10.5 6t-2 14.5q0 5 -1 8l2 14q2 2 2 4q0 1 -1.5 2.5t0.5 13.5q1 11 2 15v3v5q-1 4 -1 6q0 4 1.5 17.5t1.5 17.5q0 2 -0.5 8.5t-0.5 7.5v4l1 3q0 22 -3 43v29q0 37 1 66t1 66v11q-2 2 -2 27q0 8 1 33.5t1 32.5q0 78 3 117q1 6 4.5 23t3.5 19
q0 3 3 16.5t3 18.5v4q0 2 -1 3h-26q-6 -3 -7 -3q-2 0 -3 1q-2 0 -7 -0.5t-6 -0.5q-4 0 -12.5 1.5t-10.5 1.5t-8.5 -1.5t-8.5 -1.5h-2q-2 1 -5.5 0.5t-10.5 1.5q-8 -2 -10 -2h-19h-12q-12 1 -14 1q-19 0 -24 6q-4 0 -4 2q0 1 -5 1q-9 -9 -9 -18q0 -8 4 -17v-16l1 -3v-6
q0 -3 -2 -9v-54l-4 -20q-2 -46 -2 -50v-13q1 -1 1 -6q0 -2 -0.5 -6t-0.5 -5q0 -5 0.5 -25t0.5 -25q0 -14 -1 -15q0 -5 -0.5 -16t-0.5 -15q0 -2 1 -14t1 -16q-1 -9 -1 -41v-41q0 -29 -1 -37q0 -1 -1.5 -8t-1.5 -9v-7l1 -4q0 -4 -1 -5v-55q-1 -2 -4 -47q0 -2 -1 -7l-1 -4
q0 -2 0.5 -8t0.5 -7q0 -19 -4 -26l-5 -17q-1 -1 -3 -1l-20 1h-11q-3 0 -4 1v9q-2 10 -2 11l2 60q2 22 2 37q0 13 -2 13v61q0 2 0.5 18.5t0.5 18.5v181q-11 0 -26 -3l-17 -2q-2 -3 -13 -6.5t-16 -3.5q-3 0 -11 1t-11 1q-4 4 -29 10q-4 0 -6 0.5t-3.5 1.5t-4 3t-4.5 3
q-33 17 -50 66l-5 11q-4 10 -6 17q-3 19 -3 60v16q4 4 4 8q15 34 26 45q1 2 8 10l8 7l2 3q2 2 2 3q6 8 19 13h1l2 1q1 0 8 6t9 6q33 16 49 16h45l4 1q2 0 3 -1h8q2 0 12.5 0.5t14.5 0.5q1 0 21 -5q9 -3 22 -3q8 0 9 1h7q2 0 35 -3h11h13q13 -1 14 -1t8 0.5t8 0.5h6
q2 0 18.5 -1t18.5 -1q10 -2 22 -2q26 0 33 1q12 3 15 3q3 -2 3 -7q0 -2 6 -5t6 -6q0 -22 -2 -30l-1 -39l1 -11q0 -1 -1.5 -8t-1.5 -10q0 -16 3 -21v-6q0 -4 -0.5 -14.5t-0.5 -12.5q0 -9 1 -10q0 -1 -1 -4q0 -2 -1 -3l-1 -3q0 -3 -1 -16.5t-1 -17.5v-5q0 -6 2 -8v-5
q0 -3 -1 -13t-1 -14q0 -21 3 -41q2 -6 2 -7l-1 -5v-2q1 -2 1 -4l-1 -2q-1 -1 -1 -3v-13q0 -6 1.5 -27.5t1.5 -27.5v-10q0 -11 -2 -13v-7q0 -23 1 -29q0 -19 4 -20v-9q0 -4 -1 -16t-1 -15q0 -2 1 -6t1 -6.5t-2 -2.5v-43q-1 -1 -1 -4q0 -4 1.5 -19t1.5 -20v-5l1 -3v-4
q0 -1 -0.5 -7t-0.5 -8l-1 -2v-2v-8l-1 -2q-1 -1 -1 -3t-0.5 -8.5t-0.5 -8.5q0 -5 -4 -6h-5q-3 0 -7.5 -2t-6.5 -3t-5 1z" />
    <glyph glyph-name="middot" unicode="&#xb7;" horiz-adv-x="201" 
d="M72 378l-1 1q-2 2 -2 6q0 12 10 16q4 0 7 3q1 0 1 1q2 4 10.5 3t14.5 -7q1 -3 3 -5h2l1 -1q3 -1 7.5 -5.5t4.5 -5.5q0 -6 1 -8q0 -2 1 -5v-3q0 -12 -12 -23q-4 -3 -16 -3q-7 0 -16.5 7t-12.5 13q-1 1 -1 3q-2 2 -2 6v7z" />
    <glyph glyph-name="cedilla" unicode="&#xb8;" horiz-adv-x="141" 
d="M44 -158l-10 4q-1 0 -7 6q-7 7 -7 25q0 13 12 13q4 0 4 -5q0 -1 -1.5 -7t-1.5 -9l1 -11l13 -8l10 -2l13 3q5 2 14 12q5 10 5 27v12q-1 0 -1.5 3t-1 7t-1.5 6l-9 11q0 1 -6 4h-12q-2 0 -2 8q0 4 1.5 9.5t3.5 11t2 6.5l4 9q1 2 5 7t4 6q7 8 18 10q-10 -20 -15 -36l-1 -3
q0 -1 -0.5 -2.5t-1.5 -2.5v-3q2 0 7 0.5t6 0.5q9 0 20 -8q7 -7 10 -15l2 -10v-3q0 -8 -3 -18q0 -5 -2 -13l-5 -14q-1 -5 -9 -12l-14 -14q-8 -6 -13 -6l-9 -1h-13q-3 0 -9 2z" />
    <glyph glyph-name="onesuperior" unicode="&#xb9;" horiz-adv-x="240" 
d="M97 445h-32q-2 0 -6 0.5t-6 0.5q-3 0 -3 7q0 6 10 6h12q18 0 26 3q1 3 1 9q0 1 -0.5 3t-0.5 3v2q1 1 1 3l1 4v7q0 4 -1 4l1 120q1 1 1 6q0 4 -1 7v4q0 6 -4 6q-10 -6 -21 -18h-4l-3 -3q-2 -3 -4 -3q-5 0 -5 4q0 3 15 18l17 20q9 8 10 13q0 1 3 4l2 3l1 3l14 14l5 7
q5 7 6 7h10q3 0 3 -11v-4q0 -7 -2 -17l-1 -78q0 -2 0.5 -4.5t0.5 -3.5v-14q-1 0 -1 -7q1 0 1 -4v-7q0 -2 -0.5 -4.5t-0.5 -3.5v-4q1 -3 1 -8v-15l-1 -6v-7l1 -3l-1 -6v-9v-14l2 -18h22q1 0 7 0.5t8 0.5q10 0 9 -8q0 -6 -5 -6h-16q-1 -1 -9 -1l-17 -1q-1 0 -4 -0.5t-4 -0.5
h-10q-3 -1 -13 -1h-8q-6 0 -7 1z" />
    <glyph glyph-name="ordmasculine" unicode="&#xba;" horiz-adv-x="310" 
d="M112 523l-5 3l-9 9q-8 1 -15.5 15.5t-7.5 25.5q0 30 16 58l1 3l2 3q9 15 28 24q2 1 22 13.5t26 12.5q10 0 11 -6q29 -6 36 -33q0 -4 1 -7l2 -5q0 -1 -1 -5t-1 -6q0 -1 2 -3.5t2 -3.5q4 -12 4 -23q0 -12 -8 -30l-1 -3l-1 -3q-1 -3 -8 -22l-12 -21q-1 -2 -4.5 -4t-6.5 -3
l-3 -2l-6 -6q-1 0 -3 -0.5t-3.5 -1t-3.5 -1t-3 -1.5h-17q-4 4 -12 7q-2 2 -4 2l-12 11l-3 2zM136 537l15 -16l1 -2l4 -4h5q17 0 25 12q0 1 2 5l2 4q6 6 6 7l5 12q5 5 5 18q1 7 5 9q0 2 0.5 10t0.5 10v12q-2 2 -2 3q-4 38 -17 51h-10l-7 1q-2 0 -7 -6l-5 -6l-4 1q-4 1 -6 1
q-1 0 -12.5 -8t-12.5 -9l-1 -4q0 -2 -1 -3t-1 -2l-2 -4q0 -1 -1 -3t-1 -3q-3 -17 -4 -18v-27q3 -1 4 -5t1 -9t1 -7q11 -15 12 -20zM50 432q0 5 3 5q13 10 46 10h13l2 1h3q1 0 13 1t14 1q7 4 10 4h1q1 -1 2 -1q26 0 36 5h19q5 4 27 4h4l3 -6q2 -7 12 -9q2 0 2 -2q0 -4 -6 -4
q-5 0 -20 3l-5 1l-4 -2q-12 -5 -37 -5q-2 0 -7.5 -2t-6.5 -2q-55 -5 -61 -7q-4 0 -10 -1.5t-8 -1.5l-3 1h-10q-2 0 -5 1h-4l-19 3q-4 0 -4 3z" />
    <glyph glyph-name="guillemotright" unicode="&#xbb;" horiz-adv-x="456" 
d="M226 88q16 14 33 40q2 8 20 30q7 7 14 22q2 3 9.5 11.5t9.5 11.5l16 27l33 40q0 1 5 6t5 6t-1 3l-16 17l-12 17q-12 12 -13 15l-18 18q0 1 -4 5t-5 6l-18 23q-2 4 -6 8q-2 3 -19 22.5t-19 24.5q-10 7 -24 24q-1 1 -7 8l-6 7q-6 6 -6 11t1.5 6.5t4.5 2t5 2.5t4 2
q5 3 34 -26q9 -8 31.5 -32.5t27.5 -29.5q2 -2 5 -5.5t5 -6.5l2 -4q2 -2 7.5 -9t6.5 -9q23 -29 35 -43l3 -5q3 -5 5 -7l9 -9q23 -23 23 -32q-2 -2 -4 -5l-3 -3l-1 -4q-2 -9 -5 -9q-14 7 -16 1l-3 -1q-2 -2 -6.5 -8.5t-5.5 -7.5q-12 -13 -17 -22l-1 -1l-2 -4l-1 -2
q-1 -3 -10 -12q-2 -2 -10 -15t-12 -16l-27 -36l-9 -17l-3 -3q-2 -3 -6.5 -9.5t-10.5 -13.5q-1 -2 -5 -4l-3 -1q-4 -7 -4 -10l-1 -5q0 -9 -6 -9q-8 0 -8 19zM58 93q0 4 26 36q5 5 17 26q24 37 28 45l9 9q4 7 12 18q29 39 44 52q1 1 1 3t-16 22q-11 15 -32 47q-3 9 -7 13
q-10 11 -31 44q-2 4 -11 13l-10 10q-2 3 -6 13l-2 2q-2 2 -5 5.5t-5 6.5l-2 2l-2 4l-2 4q-14 20 -14 23q0 10 12 10q4 0 29 -25l14 -15q1 -2 3 -4l2 -2q4 -5 49 -63l3 -6q3 -6 5 -8q6 -10 26 -39q2 -4 10 -15t13.5 -21.5t5.5 -17.5q0 -2 -1.5 -4t-3 -3t-3.5 -2l-2 -2l-2 -3
l-3 -1q-2 -2 -5.5 -6.5t-7 -10t-4.5 -6.5l-6 -6q0 -1 -2 -2.5l-4 -3t-3 -3.5q-9 -15 -11 -17q-4 -4 -16 -19q-1 -3 -5 -9.5t-7.5 -11.5t-3.5 -6l-5 -7q-48 -56 -48 -65q0 -1 1 -4t1 -4q0 -7 -4 -7l-8 1l-10 7q-1 1 -1 3z" />
    <glyph glyph-name="onequarter" unicode="&#xbc;" horiz-adv-x="613" 
d="M59 0q-9 0 -9 4q0 7 27 40l9 9l1 2l5 8q13 20 26 33q1 1 1 2q1 2 1 3q2 2 2 3l9 14q19 22 24 38q11 9 24 40q4 4 4 5l3 3l-1 -3l13 21l11 16l4 8q11 12 47 64q21 35 32 46q6 14 9 17l10 11l2 3q14 18 19 30l36 50q0 1 1 1l1 2l55 85q1 8 13 20q9 13 10 17l31 44
q7 6 35 41l25 31q7 4 24 4q0 -14 -15 -31q-3 -4 -6 -9t-4 -8l-2 -2l-18 -20q-3 -6 -11 -15l-10 -13l-52 -80q0 -1 -6 -7l-16 -25q-4 -3 -16 -25q0 -2 -1 -3q0 -1 -1 -2l-1 -2l-5 -9l-3 -3l-4 -4l-1 -2q-24 -32 -36 -52q-2 -2 -7 -9t-7 -9q-8 -9 -14 -21l-17 -22l-16 -22
q-4 -9 -9 -16l-3 -5q-16 -29 -58 -81l-10 -21q-6 -10 -10 -14l-3 -4q-3 -4 -3 -5l-13 -14l4 1q-15 -29 -29 -45l-3 -5q-6 0 -6 -4q-4 -8 -24 -31l-15 -20q-7 -11 -13 -17l-8 -7q-1 -1 -3 -5t-3 -5q-13 -19 -26 -19zM376 12h5q25 0 41 1l-1 12l1 85h-23q-22 0 -27 -1
q-1 -1 -5 -1h-6l-4 1q-4 0 -4 6q0 5 3 8l3 3l1 4l1 2q1 2 4 6.5t6 8.5l6 10q0 4 1 5q2 5 11 21t11 19q16 36 21 42q4 12 10 16q1 0 8 7q1 0 6 0.5t7 0.5l3 1l3 -1q1 0 3 -1q1 -1 2 -1q2 0 2 -8v-18q0 -2 -0.5 -11t-0.5 -11v-4l1 -2v-8l1 -9v-9l-1 -52q0 -5 10 -5l4 -1h6h3
l2 -1l2 1h5q0 -2 2 -2t2 -2v-11l-4 -1h-6h-5q-2 0 -4.5 -0.5t-4.5 -0.5h-6q-1 1 -4 1q-4 0 -4 -1q-1 -5 -1 -24v-24q0 -1 -1 -2t-1 -3v-33q0 -8 3 -11h20q2 0 3 -1l11 2q4 0 4 -8q0 -6 -3 -6l-44 1q-10 -3 -32 -3l-16 2l-2 1h-3q-3 -1 -5 -1l-6 -1h-6h-2q-1 -1 -3 -1
q-4 0 -4 10q0 3 1 3zM147 445h-32q-2 0 -6 0.5t-6 0.5q-3 0 -3 7q0 6 10 6h12q18 0 26 3q1 3 1 9q0 1 -0.5 3t-0.5 3v2q1 1 1 3l1 4v7q0 4 -1 4l1 120q1 1 1 6q0 4 -1 7v4q0 6 -4 6q-10 -6 -21 -18h-4l-3 -3q-2 -3 -4 -3q-5 0 -5 4q0 3 15 18l17 20q9 8 10 13q0 1 3 4l2 3
l1 3l14 14l5 7q5 7 6 7h10q3 0 3 -11v-4q0 -7 -2 -17l-1 -78q0 -2 0.5 -4.5t0.5 -3.5v-14q-1 0 -1 -7q1 0 1 -4v-7q0 -2 -0.5 -4.5t-0.5 -3.5v-4q1 -3 1 -8v-15l-1 -6v-7l1 -3l-1 -6v-9v-14l2 -18h22q1 0 7 0.5t8 0.5q10 0 9 -8q0 -6 -5 -6h-16q-1 -1 -9 -1l-17 -1
q-1 0 -4 -0.5t-4 -0.5h-10q-3 -1 -13 -1h-8q-6 0 -7 1zM378 130l13 -1q2 0 13.5 1t15.5 1q2 0 2 2q1 5 1 13q0 9 1 14q0 3 1 6l1 3v8l1 7v28q0 9 -1 10q-2 -11 -14 -32q0 -1 -1 -3q-1 -5 -2 -6q-3 -4 -14 -22.5t-17 -28.5z" />
    <glyph glyph-name="onehalf" unicode="&#xbd;" horiz-adv-x="607" 
d="M50 42q0 6 27 37q6 6 7 9l2 2l5 8q17 22 26 32q1 1 1 2q1 2 1 3q2 2 2 3l9 13q19 22 24 37q8 8 23 39q4 4 4 5l3 3l-1 -3l13 21l11 15l4 8q19 22 46 63q25 38 32 45q4 11 9 16l10 11l2 3q15 18 19 29l35 49l1 1q1 1 1 2l54 83q1 8 13 20q9 13 10 16l31 43q7 7 34 40
q6 7 14 17t11 13q7 4 24 4q0 -13 -15 -30q-1 -3 -6 -9.5t-6 -8.5l-18 -20q-3 -6 -11 -15l-9 -12l-52 -78q0 -1 -6 -7l-16 -25q-5 -4 -18 -31l-5 -9l-3 -3l-4 -4l-1 -2q-18 -22 -36 -50q-2 -2 -7.5 -9t-6.5 -9q-5 -6 -13 -20l-17 -22l-16 -21q-4 -9 -9 -16l-3 -5
q-18 -27 -57 -79l-10 -20q-6 -10 -10 -14q-1 0 -3.5 -4t-2.5 -5l-13 -14l4 1q-18 -30 -28 -44l-3 -4q-6 0 -6 -4q-4 -8 -24 -31l-15 -19q-7 -11 -13 -17l-8 -7q-1 0 -3.5 -4t-2.5 -5q-10 -19 -25 -19q-9 0 -9 6zM143 445h-32q-2 0 -6 0.5t-6 0.5q-3 0 -3 7q0 6 10 6h12
q18 0 26 3q1 3 1 9q0 1 -0.5 3t-0.5 3v2q1 1 1 3l1 4v7q0 4 -1 4l1 120q1 1 1 6q0 4 -1 7v4q0 6 -4 6q-10 -6 -21 -18h-4l-3 -3q-2 -3 -4 -3q-5 0 -5 4q0 3 15 18l17 20q9 8 10 13q0 1 3 4l2 3l1 3l14 14l5 7q5 7 6 7h10q3 0 3 -11v-4q0 -7 -2 -17l-1 -78q0 -2 0.5 -4.5
t0.5 -3.5v-14q-1 0 -1 -7q1 0 1 -4v-7q0 -2 -0.5 -4.5t-0.5 -3.5v-4q1 -3 1 -8v-15l-1 -6v-7l1 -3l-1 -6v-9v-14l2 -18h22q2 0 8 0.5t7 0.5q10 0 9 -8q0 -6 -5 -6h-16q-1 -1 -9 -1l-17 -1q-1 0 -4 -0.5t-4 -0.5h-10q-3 -1 -13 -1h-8q-6 0 -7 1zM379 274l7 6q2 2 3 2
q6 8 22 19q14 8 35 8h19q2 -2 7 -3l6 -2q0 -1 5 -5.5t6 -6.5q5 -13 7 -15q2 -21 1 -34q-1 -7 -9 -22l-13 -17l-6 -8q0 -1 -5 -6.5t-6 -8.5q-8 -5 -12 -12l-2 -2q-4 -1 -4 -3t-5 -7q-1 -3 -8 -9.5t-8 -9.5q-13 -16 -13 -18q-2 -6 -7 -13q-6 -6 -10 -25q0 -3 -1 -6v-4h4
q4 0 18.5 1.5t16.5 1.5h35q6 0 7 -1h23q2 0 6.5 -3.5t4.5 -6.5q0 -10 -8 -10q-2 0 -3 1h-21q-4 0 -5 1l-11 1l-33 -2q-2 -2 -4 -2l-3 1h-5h-18l-4 -1l-12 1q-4 1 -9.5 5.5t-5.5 7.5l1 1q0 2 0.5 5t0.5 5l2 10l10 23q4 8 7 13.5t5 7t3 2.5t1 2q9 19 13 20l16 18q2 9 20 23
q9 6 16 24t7 30q0 4 -1 5l-4 22q-12 12 -20 12h-9q-7 0 -8 -1q-9 0 -16 -7l-5 -5l-4 -3h-2v-16q0 -2 1 -6.5t2 -7.5l1 -4l3 -6q0 -7 -5 -7q-1 0 -5.5 6t-9 12.5t-5.5 7.5q-5 12 -5 14q0 3 8 7z" />
    <glyph glyph-name="threequarters" unicode="&#xbe;" horiz-adv-x="607" 
d="M50 42q0 6 27 37q6 6 7 9l2 2l5 8q17 22 26 32q1 1 1 2q1 2 1 3q2 2 2 3l9 13q19 22 24 37q8 8 23 39q4 4 4 5l3 3l-1 -3l13 21l11 15l4 8q19 22 46 63q25 38 32 45q4 11 9 16l10 11l2 3q15 18 19 29l35 49l1 1q1 1 1 2l54 83q1 8 13 20q9 13 10 16l31 43q7 7 34 40
q6 7 14 17t11 13q7 4 24 4q0 -13 -15 -30q-1 -3 -6 -9.5t-6 -8.5l-18 -20q-3 -6 -11 -15l-9 -12l-52 -78q0 -1 -6 -7l-16 -25q-5 -4 -18 -31l-5 -9l-3 -3l-4 -4l-1 -2q-18 -22 -36 -50q-2 -2 -7.5 -9t-6.5 -9q-5 -6 -13 -20l-17 -22l-16 -21q-4 -9 -9 -16l-3 -5
q-18 -27 -57 -79l-10 -20q-6 -10 -10 -14q-1 0 -3.5 -4t-2.5 -5l-13 -14l4 1q-18 -30 -28 -44l-3 -4q-6 0 -6 -4q-4 -8 -24 -31l-15 -19q-7 -11 -13 -17l-8 -7q-1 0 -3.5 -4t-2.5 -5q-10 -19 -25 -19q-9 0 -9 6zM372 12h5q25 0 41 1l-1 12l1 85h-23q-22 0 -27 -1
q-1 -1 -5 -1h-6l-4 1q-4 0 -4 6q0 5 3 8l3 3l1 4l1 2q1 2 4 6.5t6 8.5l6 10q0 4 1 5q2 5 11 21t11 19q16 36 21 42q4 12 10 16q1 0 8 7q1 0 6 0.5t7 0.5l3 1l3 -1q1 0 3 -1q1 -1 2 -1q2 0 2 -8v-18q0 -2 -0.5 -11t-0.5 -11v-4l1 -2v-8l1 -9v-9l-1 -52q0 -5 10 -5l4 -1h6h3
l2 -1l2 1h5q0 -2 2 -2t2 -2v-11l-4 -1h-6h-5q-2 0 -4.5 -0.5t-4.5 -0.5h-6q-1 1 -4 1q-4 0 -4 -1q-1 -5 -1 -24v-24q0 -1 -1 -2t-1 -3v-33q0 -8 3 -11h20q2 0 3 -1l11 2q4 0 4 -8q0 -6 -3 -6l-44 1q-10 -3 -32 -3l-16 2l-2 1h-3q-3 -1 -5 -1l-6 -1h-6h-2q-1 -1 -3 -1
q-4 0 -4 10q0 3 1 3zM69 688l7 6q3 3 6 3q14 7 20 9q8 3 18 3h12q2 0 8 -0.5t7 -0.5h1l2 -1q14 -3 20.5 -7t14.5 -16q6 -14 6 -24q0 -17 -14 -40q-2 -2 -2 -3t-2.5 -4t-2.5 -5t2 -4l4 -4l4 -4l3 -1q30 -35 30 -65l-1 -8q-1 -5 -1 -9l-3 -16q-6 -23 -26 -42q-9 -9 -11 -10
l-3 -3l-14 -7q-10 -3 -20 -3h-16q-4 0 -11 2.5t-8 2.5q-1 1 -6.5 4.5t-10 8.5t-6.5 11l-7 7l-5 16q0 8 -3 11v17l3 6q2 1 9 1l6 -6v-19q0 -10 2 -12l3 -5l2 -5l2 -4q2 -3 4 -5q12 -8 15 -11q9 -3 18 -3q11 0 23 9q10 7 16 21q10 16 10 36v4q-1 10 -3.5 18.5t-4.5 14
t-7.5 10.5t-8 7t-9 6t-7.5 5q-4 4 -13 4h-13q-4 -2 -5 -2q-2 0 -9 0.5t-8 0.5q-2 2 -2 7q0 8 6 10.5t15 3t13 2.5q37 16 37 51q0 29 -17 35q-6 2 -13 2q-1 0 -6 -1t-10 -1q-1 0 -5.5 -1.5t-6.5 -1.5l-13 -5v-12q0 -2 2 -9t2 -9l3 -6q0 -7 -5 -7q-1 0 -5.5 6t-9 12.5
t-5.5 7.5q-5 12 -5 14q0 3 8 7zM374 130l13 -1q2 0 13.5 1t15.5 1q2 0 2 2q1 5 1 13q0 9 1 14q0 3 1 6l1 3v8l1 7v28q0 9 -1 10q-2 -11 -14 -32q0 -1 -1 -3q-1 -5 -2 -6q-3 -4 -14 -22.5t-17 -28.5z" />
    <glyph glyph-name="questiondown" unicode="&#xbf;" horiz-adv-x="345" 
d="M264 520q0 -6 -1 -7v-29q-2 -2 -2 -11v-8q0 -4 -1.5 -9t-3.5 -10.5t-2 -6.5q-8 -39 -22 -61l-3 -3l-7 -12q0 -1 -3 -3t-4 -2q-5 -14 -9 -18l-4 -6q-4 -5 -4 -7l-13 -18q-9 -9 -15 -17q-6 -6 -6 -10q-4 -4 -17.5 -19.5t-17.5 -20.5q-1 -1 -10 -11q-30 -41 -32 -46l-10 -26
q0 -7 -3 -12q-1 -6 -1 -24q0 -39 27 -78q9 -9 10 -9q9 -9 19 -16h7l4 -3q1 -1 9 -1q2 0 6 4l19 2q2 0 6 4h14q3 3 5 3q11 6 15 13q2 3 4.5 4t4.5 3q5 3 13 14l8 11q3 0 9 6q3 8 5 9l2 10l1 3q1 2 2.5 3.5t2.5 1.5q9 0 9 -6q-4 -15 -7 -18l-25 -35q-2 -2 -5 -4l-2 -2
q-14 -14 -31 -25q-1 -1 -4.5 -2t-6 -1.5t-2.5 -1.5l-4 -1l-4 -1q-2 0 -13 -3t-22.5 -5t-19.5 -2q-4 0 -15 4l-14 3q-2 2 -6 4q-8 1 -10 3q-1 0 -7 6l-3 1q-16 6 -33 27q-7 8 -7 10q-1 5 -6 15t-8 20v1v11v16q0 2 1 8t2 8q5 5 5 9l2 7q2 7 4 8l3 1q3 10 5 11q7 9 8 13l9 10
q3 4 5.5 8t3.5 6l2 2q1 2 4 4l6 4l2 2q3 3 10.5 12.5t9.5 11.5q1 0 11 10q15 15 17 21l12 12q0 5 4 6l3 2l1 4q0 1 4 5q9 10 20 31l8 10q10 25 11 26l4 5l1 4v4q-1 0 0.5 3.5t4.5 10t4 8.5v8l3 13v14q1 0 2.5 12.5t4.5 14.5v4l-1 2v2q2 10 2 27q0 2 -1 8t0 11l1 6v6q0 2 5 4
l5 2l2 2l6 4t5 2q3 0 4 1q1 0 7 1t8 1q4 -9 4 -33zM257 696v-6q0 -1 3.5 -7.5t3.5 -8.5q0 -12 -9 -22t-21 -10q-9 0 -12 3l-3 1h-3q-1 0 -6 5q0 1 -0.5 3t-0.5 3l-5 5q-4 5 -4 8v14q0 4 4 8q7 9 11 9q2 0 9.5 2.5t10.5 2.5h8q14 0 14 -10z" />
    <glyph glyph-name="Agrave" unicode="&#xc0;" horiz-adv-x="629" 
d="M630 2h-2h-28q-15 0 -18 -3l-2 1h-3h-8q-6 -3 -7 -3q-4 0 -6 3l-14 11q-3 3 -7 13l-4 11q-6 7 -17 39q-6 11 -14 31q-18 40 -20 51l-2 8q-3 8 -3 9l-1 3l-5 24q-5 7 -5 8l-2 8q-1 5 -1 8l-3 5q-3 5 -3 6l-1 3v5q-2 9 -8 19q-1 1 -1 5q0 3 -1 5q-4 15 -9 21q-4 24 -11 32
q-4 2 -7 2q-4 0 -15.5 -3t-13.5 -3q-15 3 -33 0q-2 0 -5 1l-2 1q-30 2 -36 2q-3 0 -7 -0.5t-6 -0.5q-3 0 -12 -1t-11 -1q-3 0 -13 1l-10 1l-5 1l-13 1l-13 2h-2q-1 1 -3 1l-26 -1q-4 -2 -7 -13.5t-4 -12.5q-9 -11 -19 -37q-1 -2 -1 -4l-1 -4l-5 -5q0 -1 -2 -5.5t-2 -5.5
l-3 -3q-2 -3 -6 -11.5t-5 -10.5q0 -5 -6 -11l-8 -24q-1 -3 -6 -8q-13 -34 -15 -38q-2 -2 -8.5 -15t-11.5 -15q0 -7 -3 -10q-3 -1 -3 -3q-2 -2 -3 -8l-2 -6l-4 -7h-4q0 -9 -4 -19t-9 -11q0 -4 -1 -7v-4l-2 -2q-1 -2 -1 -4l3 -2h51q8 0 11 -1q1 -1 13 -1q7 0 7 -5
q0 -11 -6 -11h-33l-4 -1q-1 0 -8 -1h-7q-2 -3 -11 -3q-4 0 -7 1h-5l-21 1l-4 4q-4 4 -4 10l1 3q17 29 18 35l15 31l3 3l17 36l15 28l13 29l2 3l2 4q2 2 6 17q2 5 7 14.5t10 19.5l6 12t1 5q1 1 1 2q6 17 16 35q3 6 6 12.5t4.5 9.5t1.5 4l2 5l2 5q0 1 7.5 16.5t8.5 17.5
q8 16 11 31l2 10q26 59 27 62q24 51 25 57l27 52q2 1 9 16l2 6l3 6q5 12 21 40.5t18 31.5q1 3 5.5 14.5t6.5 15.5q2 0 7.5 2t6.5 2l3 2q10 0 11 -4l1 -4q1 -4 4.5 -12.5t3.5 -10.5q0 -4 3 -19q9 -15 14 -31q0 -4 4 -12t4 -12q3 -20 6 -25q0 -2 4 -11l3 -9l1 -3l1 -3
q6 -24 7 -29q0 -1 3 -9l3 -8q4 -21 8 -26q11 -30 16 -42l8 -17q2 -4 4.5 -18t3.5 -17q1 -5 8 -19l5 -18q19 -73 31 -106q2 -5 6.5 -22.5t5.5 -19.5v-4l1 -3l2 -4q5 -7 11.5 -28t7.5 -22q0 -1 6.5 -16.5t8.5 -21.5q31 -81 38 -81q2 0 3 1q2 0 3 -1l2 -1l4 2l11 -1
q12 -1 14 -1q0 -2 2 -2h3q3 1 4 1q3 0 5 -3q-1 -7 -4 -11l-4 -1l-6 -3l-3 -1q-1 -1 -3 -1t-4 1zM245 343l3 2l8 -7l44 1q18 0 22 1l6 2q5 1 8 1l3 -1h3l42 3h15q12 0 18 3q1 1 1 3q0 11 -15 41q-11 36 -13 39l-3 7q-1 3 -7.5 25t-9.5 29l-19 49q-5 14 -13.5 45t-11.5 41
l-1 1h-3l-2 -6q-2 -3 -4 -7.5t-4 -7.5l-1 -3l-2 -4l-2 -4l-2 -5v-5l-3 -6l-3 -6l-1 -5q-1 -2 -4 -6l-4 -4l-6 -13q0 -3 -5 -8q-7 -20 -8 -22q-1 -4 -7 -14t-8 -13q-6 -18 -9 -22l-2 -3q-2 -2 -3 -8v-3l-2 -2q-3 -1 -3 -3l-1 -3v-4l-1 -5q-8 -31 -21 -44q0 -13 -9 -34
q-5 -13 -5 -14h8l8 -1q3 0 6 -1l4 -1q2 0 9.5 1t9.5 1zM383 810l-12 2q-1 1 -6 1l-25 14q-1 1 -4 1q-5 9 -10 10l-19 15l-4 4q0 2 -4 4l-2 1q-1 2 -10 13t-12 17q-6 8 -2.5 16.5t13.5 8.5q4 0 27 -18q9 -11 13 -12l14 -14l2 -2q3 -2 6 -5l3 -2q11 -9 20 -18l8 -13
q1 0 3.5 -2.5t2.5 -3.5l2 -4q6 -9 6 -10q0 -4 -6 -4q-3 0 -4 1z" />
    <glyph glyph-name="Aacute" unicode="&#xc1;" horiz-adv-x="629" 
d="M630 2h-2h-28q-15 0 -18 -3l-2 1h-3h-8q-6 -3 -7 -3q-4 0 -6 3l-14 11q-3 3 -7 13l-4 11q-6 7 -17 39q-6 11 -14 31q-18 40 -20 51l-2 8q-3 8 -3 9l-1 3l-5 24q-5 7 -5 8l-2 8q-1 5 -1 8l-3 5q-3 5 -3 6l-1 3v5q-2 9 -8 19q-1 1 -1 5q0 3 -1 5q-4 15 -9 21q-4 24 -11 32
q-4 2 -7 2q-4 0 -15.5 -3t-13.5 -3q-15 3 -33 0q-2 0 -5 1l-2 1q-30 2 -36 2q-3 0 -7 -0.5t-6 -0.5q-3 0 -12 -1t-11 -1q-3 0 -13 1l-10 1l-5 1l-13 1l-13 2h-2q-1 1 -3 1l-26 -1q-4 -2 -7 -13.5t-4 -12.5q-9 -11 -19 -37q-1 -2 -1 -4l-1 -4l-5 -5q0 -1 -2 -5.5t-2 -5.5
l-3 -3q-2 -3 -6 -11.5t-5 -10.5q0 -5 -6 -11l-8 -24q-1 -3 -6 -8q-13 -34 -15 -38q-2 -2 -8.5 -15t-11.5 -15q0 -7 -3 -10q-3 -1 -3 -3q-2 -2 -3 -8l-2 -6l-4 -7h-4q0 -9 -4 -19t-9 -11q0 -4 -1 -7v-4l-2 -2q-1 -2 -1 -4l3 -2h51q8 0 11 -1q1 -1 13 -1q7 0 7 -5
q0 -11 -6 -11h-33l-4 -1q-1 0 -8 -1h-7q-2 -3 -11 -3q-4 0 -7 1h-5l-21 1l-4 4q-4 4 -4 10l1 3q17 29 18 35l15 31l3 3l17 36l15 28l13 29l2 3l2 4q2 2 6 17q2 5 7 14.5t10 19.5l6 12t1 5q1 1 1 2q6 17 16 35q3 6 6 12.5t4.5 9.5t1.5 4l2 5l2 5q0 1 7.5 16.5t8.5 17.5
q8 16 11 31l2 10q26 59 27 62q24 51 25 57l27 52q2 1 9 16l2 6l3 6q5 12 21 40.5t18 31.5q1 3 5.5 14.5t6.5 15.5q2 0 7.5 2t6.5 2l3 2q10 0 11 -4l1 -4q1 -4 4.5 -12.5t3.5 -10.5q0 -4 3 -19q9 -15 14 -31q0 -4 4 -12t4 -12q3 -20 6 -25q0 -2 4 -11l3 -9l1 -3l1 -3
q6 -24 7 -29q0 -1 3 -9l3 -8q4 -21 8 -26q11 -30 16 -42l8 -17q2 -4 4.5 -18t3.5 -17q1 -5 8 -19l5 -18q19 -73 31 -106q2 -5 6.5 -22.5t5.5 -19.5v-4l1 -3l2 -4q5 -7 11.5 -28t7.5 -22q0 -1 6.5 -16.5t8.5 -21.5q31 -81 38 -81q2 0 3 1q2 0 3 -1l2 -1l4 2l11 -1
q12 -1 14 -1q0 -2 2 -2h3q3 1 4 1q3 0 5 -3q-1 -7 -4 -11l-4 -1l-6 -3l-3 -1q-1 -1 -3 -1t-4 1zM245 343l3 2l8 -7l44 1q18 0 22 1l6 2q5 1 8 1l3 -1h3l42 3h15q12 0 18 3q1 1 1 3q0 11 -15 41q-11 36 -13 39l-3 7q-1 3 -7.5 25t-9.5 29l-19 49q-5 14 -13.5 45t-11.5 41
l-1 1h-3l-2 -6q-2 -3 -4 -7.5t-4 -7.5l-1 -3l-2 -4l-2 -4l-2 -5v-5l-3 -6l-3 -6l-1 -5q-1 -2 -4 -6l-4 -4l-6 -13q0 -3 -5 -8q-7 -20 -8 -22q-1 -4 -7 -14t-8 -13q-6 -18 -9 -22l-2 -3q-2 -2 -3 -8v-3l-2 -2q-3 -1 -3 -3l-1 -3v-4l-1 -5q-8 -31 -21 -44q0 -13 -9 -34
q-5 -13 -5 -14h8l8 -1q3 0 6 -1l4 -1q2 0 9.5 1t9.5 1zM374 804l-18 3q0 3 11 19q3 6 3 7q1 0 9 8q19 19 36 51q2 3 7.5 11t7.5 11l12 4l6 -2q5 -3 5 -6q0 -4 -3 -10q-7 -7 -12 -16l-8 -14q-5 -3 -7 -8q-8 -14 -10 -14q-1 0 -6 -8.5t-5 -9.5l-2 -6q-3 -6 -3 -7
q-14 -14 -19 -14q-3 0 -4 1z" />
    </font>
</defs>
</svg>
