<?xml version="1.0" standalone="no"?>
<!DOCTYPE svg PUBLIC "-//W3C//DTD SVG 1.1//EN" "http://www.w3.org/Graphics/SVG/1.1/DTD/svg11.dtd" >
<svg>
<metadata>
Created by FontForge 20120731 at Thu Apr 28 12:07:13 2016
 By ,,,
Copyright 1990-1999 as an unpublished work by Bitstream Inc.  All rights reserved.  Confidential.
</metadata>
<defs>
<font id="Geometric231BT-LightC" horiz-adv-x="500" >
  <font-face 
    font-family="Geometric 231 Light"
    font-weight="300"
    font-stretch="normal"
    units-per-em="1000"
    panose-1="0 0 0 0 0 0 0 0 0 0"
    ascent="800"
    descent="-200"
    x-height="359"
    cap-height="725"
    bbox="-167 -236 1181 986"
    underline-thickness="28"
    underline-position="-68"
    unicode-range="U+0020-2212"
  />
<missing-glyph horiz-adv-x="275" 
 />
    <glyph glyph-name=".notdef" horiz-adv-x="275" 
 />
    <glyph glyph-name=".null" horiz-adv-x="0" 
 />
    <glyph glyph-name="nonmarkingreturn" horiz-adv-x="333" 
 />
    <glyph glyph-name="space" unicode=" " horiz-adv-x="275" 
 />
    <glyph glyph-name="exclam" unicode="!" horiz-adv-x="289" 
d="M161 720v-545l-32 -9v544zM145 60l34 -35l-34 -35l-34 35z" />
    <glyph glyph-name="quotedbl" unicode="&#x22;" horiz-adv-x="259" 
d="M50 700h34v-270h-34v270zM175 700h34v-270h-34v270z" />
    <glyph glyph-name="numbersign" unicode="#" horiz-adv-x="769" 
d="M400 709h47l-88 -248h134l88 248h46l-87 -248h159l-11 -36h-162l-50 -142h174l-11 -36h-175l-87 -246h-47l88 246h-135l-88 -246h-46l87 246h-166l11 36h167l52 142h-182l11 36h183zM346 425l-49 -142h133l49 142h-133z" />
    <glyph glyph-name="dollar" unicode="$" horiz-adv-x="551" 
d="M273 733h26v-46q84 -10 130 -64l-22 -23q-42 45 -108 57v-305q150 -44 150 -175q0 -71 -40.5 -122t-109.5 -66v-48h-26v48h-4q-106 0 -169 83l24 27q57 -84 146 -84h3v310q-164 43 -164 179q0 70 45 121t119 62v46zM299 317v-302q54 13 86 56t32 101q0 54 -30.5 91.5
t-87.5 53.5zM273 657q-59 -4 -95.5 -46t-36.5 -103q0 -56 34 -95t98 -55v299z" />
    <glyph glyph-name="percent" unicode="%" horiz-adv-x="806" 
d="M619 648h34l-466 -660h-34zM32 471q0 72 52 124.5t127 52.5t126.5 -51.5t51.5 -125.5t-52.5 -125.5t-125.5 -51.5t-126 52.5t-53 124.5zM66 471q0 -59 43 -102.5t101 -43.5q59 0 102 42.5t43 103.5q0 62 -42 104t-103 42q-60 0 -102 -43t-42 -103zM418 166
q0 72 51.5 124.5t126.5 52.5t126.5 -51.5t51.5 -125.5t-52.5 -126t-125.5 -52t-125.5 53t-52.5 125zM451 165q0 -59 43 -102.5t101 -43.5q59 0 102 42.5t43 103.5q0 62 -42 104.5t-103 42.5q-60 0 -102 -43.5t-42 -103.5z" />
    <glyph glyph-name="ampersand" unicode="&#x26;" horiz-adv-x="495" 
d="M200 289q107 58 107 132q0 39 -24 65t-62 26q-39 0 -66 -27.5t-27 -68.5q0 -55 72 -127zM216 270l114 -118q50 80 122 200l24 -16q-51 -87 -123 -205l112 -116l-22 -24l-109 110q-74 -120 -163 -120q-56 0 -92.5 38t-36.5 94q0 93 126 161q-38 40 -55.5 72t-17.5 71
q0 51 37.5 88t91.5 37q48 0 82.5 -34t34.5 -86q0 -85 -125 -152zM186 254q-110 -56 -110 -141q0 -45 27 -73.5t69 -28.5q39 0 72 27.5t69 84.5z" />
    <glyph glyph-name="quotesingle" unicode="'" horiz-adv-x="134" 
d="M50 700h34v-270h-34v270z" />
    <glyph glyph-name="parenleft" unicode="(" horiz-adv-x="373" 
d="M319 734l11 -26q-99 -52 -157 -161t-58 -247t58 -247t157 -161l-11 -26q-111 61 -174.5 176.5t-63.5 257.5t63.5 257.5t174.5 176.5z" />
    <glyph glyph-name="parenright" unicode=")" horiz-adv-x="373" 
d="M54 734q111 -61 174.5 -176.5t63.5 -257.5t-63.5 -257.5t-174.5 -176.5l-11 26q99 52 157 161t58 247t-58 247t-157 161z" />
    <glyph glyph-name="asterisk" unicode="*" 
d="M264 734l-2 -121l97 58l20 -20l-107 -59l100 -54l-7 -27l-103 61l2 -117l-28 -5l2 122l-100 -60l-18 21l105 59l-100 57l9 26l104 -62l-2 113z" />
    <glyph glyph-name="plus" unicode="+" horiz-adv-x="833" 
d="M402 596h30v-283h277v-30h-277v-283h-30v283h-278v30h278v283z" />
    <glyph glyph-name="comma" unicode="," horiz-adv-x="275" 
d="M180 109l-95 -256h-31l83 256h43z" />
    <glyph glyph-name="hyphen" unicode="-" horiz-adv-x="264" 
d="M52 198h160v-32h-160v32z" />
    <glyph glyph-name="period" unicode="." horiz-adv-x="275" 
d="M138 60l34 -35l-34 -35l-34 35z" />
    <glyph glyph-name="slash" unicode="/" horiz-adv-x="278" 
d="M269 734h33l-322 -827h-33z" />
    <glyph glyph-name="zero" unicode="0" horiz-adv-x="551" 
d="M275 649q97 0 166.5 -95t69.5 -235t-69.5 -235t-166.5 -95q-96 0 -165.5 95t-69.5 235q0 141 69.5 235.5t165.5 94.5zM275 614q-83 0 -142.5 -85t-59.5 -211t59.5 -210t142.5 -84q84 0 143 84.5t59 209.5q0 126 -59 211t-143 85z" />
    <glyph glyph-name="one" unicode="1" horiz-adv-x="551" 
d="M310 650v-650l-34 -9v593q-39 -29 -128 -77l-15 30q102 53 177 113z" />
    <glyph glyph-name="two" unicode="2" horiz-adv-x="551" 
d="M139 32h327l-13 -32h-401q198 160 288 264t90 190q0 70 -43.5 114t-110.5 44q-68 0 -112.5 -46t-44.5 -115q0 -62 40.5 -102.5t113.5 -50.5l-21 -29q-77 12 -122.5 62t-45.5 121q0 82 55.5 137.5t135.5 55.5q82 0 136 -54t54 -137q0 -47 -19.5 -92.5t-67 -100t-98.5 -103
t-141 -126.5z" />
    <glyph glyph-name="three" unicode="3" horiz-adv-x="551" 
d="M321 326q56 -16 86 -58t30 -105q0 -73 -53.5 -124t-136.5 -51q-109 0 -167 96l28 22q47 -87 142 -87q66 0 109 42t43 102q0 67 -42 105.5t-118 38.5h-52v34h48q76 0 118.5 36.5t42.5 97.5q0 59 -39.5 99t-102.5 40q-73 0 -141 -69l-21 21q74 79 165 79q76 0 125.5 -48.5
t49.5 -122.5q0 -55 -31.5 -96t-82.5 -52z" />
    <glyph glyph-name="four" unicode="4" horiz-adv-x="551" 
d="M61 173l318 482v-452h103v-30h-103v-173l-32 -9v182h-286zM116 203h231v349z" />
    <glyph glyph-name="five" unicode="5" horiz-adv-x="551" 
d="M137 637h290l-19 -33h-239v-218q53 16 86 16q80 0 134 -58t54 -146q0 -90 -56.5 -149.5t-139.5 -59.5q-88 0 -153 71l25 25q50 -64 129 -64q70 0 116 48.5t46 126.5q0 75 -45 124t-117 49q-49 0 -111 -30v298z" />
    <glyph glyph-name="six" unicode="6" horiz-adv-x="551" 
d="M391 648l26 -20q-178 -107 -277 -253q65 56 142 56q89 0 152 -64t63 -155q0 -95 -63 -159t-155 -64q-93 0 -156.5 62.5t-63.5 161.5q0 110 84.5 222t247.5 213zM273 400q-73 0 -127 -55t-54 -132q0 -79 55 -135t133 -56q77 0 130 53t53 131q0 82 -55 138t-135 56z" />
    <glyph glyph-name="seven" unicode="7" horiz-adv-x="551" 
d="M53 637h392l-247 -643h-37l238 610h-346v33z" />
    <glyph glyph-name="eight" unicode="8" horiz-adv-x="551" 
d="M212 326q-51 15 -83 57.5t-32 95.5q0 69 52 118t126 49q75 0 126.5 -49.5t51.5 -117.5q0 -50 -29.5 -92t-81.5 -61q52 -15 85.5 -60.5t33.5 -100.5q0 -72 -53.5 -124.5t-132.5 -52.5t-132.5 52t-53.5 125q0 58 33 101.5t90 59.5zM275 311q-64 0 -108 -42.5t-44 -102.5
q0 -61 43.5 -103t108.5 -42t108.5 43t43.5 102t-44 102t-108 43zM275 342q61 0 103 40.5t42 95.5t-42 95t-103 40q-60 0 -102 -39.5t-42 -95.5t42 -96t102 -40z" />
    <glyph glyph-name="nine" unicode="9" horiz-adv-x="551" 
d="M464 420q0 82 -55 138.5t-134 56.5q-77 0 -130 -53t-53 -131q0 -82 55 -138t135 -56q73 0 127.5 55t54.5 128zM165 -11l-26 20q181 108 277 253q-63 -56 -143 -56q-89 0 -152 64t-63 155q0 95 63.5 159t155.5 64q93 0 156.5 -62.5t63.5 -161.5q0 -110 -84.5 -222
t-247.5 -213z" />
    <glyph glyph-name="colon" unicode=":" horiz-adv-x="275" 
d="M138 353l34 -35l-34 -35l-34 35zM138 60l34 -35l-34 -34l-34 34z" />
    <glyph glyph-name="semicolon" unicode=";" horiz-adv-x="275" 
d="M169 109l-96 -256h-30l83 256h43zM149 255l35 -35l-35 -35l-33 35z" />
    <glyph glyph-name="less" unicode="&#x3c;" horiz-adv-x="833" 
d="M704 543v-34l-522 -211l522 -211v-34l-575 235v20z" />
    <glyph glyph-name="equal" unicode="=" horiz-adv-x="833" 
d="M124 400h585v-30h-585v30zM124 227h585v-30h-585v30z" />
    <glyph glyph-name="greater" unicode="&#x3e;" horiz-adv-x="833" 
d="M129 543l575 -235v-20l-575 -235v34l521 211l-521 211v34z" />
    <glyph glyph-name="question" unicode="?" horiz-adv-x="447" 
d="M221 243v-87l-33 -9v93q0 46 7.5 73t36.5 55q10 9 38 33t39.5 36.5t23.5 38.5t12 56q0 65 -44.5 112.5t-107.5 47.5q-51 0 -91 -32t-62 -92l-30 8q24 70 72.5 109t109.5 39q77 0 133.5 -56.5t56.5 -136.5q0 -52 -23 -86.5t-74 -73.5q-37 -30 -50.5 -53.5t-13.5 -74.5z
M205 60l34 -35l-34 -35l-34 35z" />
    <glyph glyph-name="at" unicode="@" horiz-adv-x="1000" 
d="M631 353q-23 102 -119 102q-76 0 -127.5 -68t-51.5 -169q0 -59 29 -91.5t80 -32.5q56 0 98.5 36t58.5 97zM583 155q-23 -43 -61 -67.5t-80 -24.5q-76 0 -115 40.5t-39 117.5q0 111 66.5 188t158.5 77q96 0 126 -86l30 66h32l-67 -267q-12 -48 -12 -59q0 -46 61 -46
q73 0 131 61q39 41 61.5 100.5t22.5 124.5q0 131 -98.5 213.5t-259.5 82.5q-164 0 -277 -92q-157 -127 -157 -336q0 -159 108.5 -256t289.5 -97q167 0 308 94l11 -17q-141 -105 -314 -105q-186 0 -301 88q-146 112 -146 301q0 159 96 276q142 173 386 173q162 0 268 -81
q126 -97 126 -245q0 -168 -117 -261q-69 -54 -148 -54q-92 0 -92 69q0 6 2 22z" />
    <glyph glyph-name="A" unicode="A" horiz-adv-x="718" 
d="M358 730l349 -724l-32 -12l-163 342h-308l-160 -342l-34 12zM358 666l-139 -298h276z" />
    <glyph glyph-name="B" unicode="B" horiz-adv-x="481" 
d="M76 715h118q109 0 165.5 -46.5t56.5 -135.5q0 -62 -39 -108t-106 -59q72 -13 111.5 -60.5t39.5 -116.5q0 -92 -59 -140.5t-175 -48.5h-112v715zM110 683v-301h77q90 0 141 42.5t51 110.5q0 81 -52.5 114.5t-163.5 33.5h-53zM110 349v-317h69q105 0 155.5 36.5t50.5 118.5
q0 162 -225 162h-50z" />
    <glyph glyph-name="C" unicode="C" horiz-adv-x="689" 
d="M641 651l-18 -28q-95 77 -211 77q-145 0 -241 -99t-96 -243q0 -157 117 -262q93 -82 215 -82t227 86l16 -27q-103 -89 -238 -89q-146 0 -242 86q-132 117 -132 288q0 145 100 256q107 117 274 117q127 0 229 -80z" />
    <glyph glyph-name="D" unicode="D" horiz-adv-x="554" 
d="M76 715h62q166 0 268.5 -100.5t102.5 -255.5q0 -152 -107 -255.5t-270 -103.5h-56v715zM110 683v-650h34q142 0 235 92.5t93 235.5q0 140 -90.5 231t-236.5 91h-35z" />
    <glyph glyph-name="E" unicode="E" horiz-adv-x="454" 
d="M76 715h319l11 -31h-296v-298h259v-31h-259v-323h310l-11 -32h-333v715z" />
    <glyph glyph-name="F" unicode="F" horiz-adv-x="400" 
d="M76 715h282l11 -31h-258v-313h217v-30h-217v-341l-35 -9v724z" />
    <glyph glyph-name="G" unicode="G" horiz-adv-x="742" 
d="M641 651l-15 -29q-104 78 -214 78q-145 0 -241 -99t-96 -243q0 -157 117 -262q93 -82 215 -82q64 0 122 22.5t97 62.5v239h-178v32h213v-289q-111 -97 -249 -97q-146 0 -242 86q-64 56 -98 131t-34 157q0 145 100 256q105 117 274 117q129 0 229 -80z" />
    <glyph glyph-name="H" unicode="H" horiz-adv-x="699" 
d="M111 725v-355h478v345l34 10v-725l-34 -9v347h-478v-338l-35 -9v724z" />
    <glyph glyph-name="I" unicode="I" horiz-adv-x="200" 
d="M117 725v-725l-35 -9v724z" />
    <glyph glyph-name="J" unicode="J" horiz-adv-x="457" 
d="M374 725v-475q0 -123 -38 -180q-59 -88 -165 -88q-111 0 -166 94l26 25q51 -87 141 -87q167 0 167 232v469z" />
    <glyph glyph-name="K" unicode="K" horiz-adv-x="466" 
d="M111 0l-35 -9v724l35 10v-725zM113 370l325 355l21 -24l-305 -331l311 -356l-24 -23z" />
    <glyph glyph-name="L" unicode="L" horiz-adv-x="436" 
d="M110 725v-693h327l-12 -32h-349v715z" />
    <glyph glyph-name="M" unicode="M" horiz-adv-x="873" 
d="M147 725l290 -656l297 656l97 -725l-32 -9l-83 622l-280 -618l-272 618l-84 -622l-31 9z" />
    <glyph glyph-name="N" unicode="N" horiz-adv-x="752" 
d="M76 725l564 -646v636l35 10v-738l-565 648v-635l-34 -9v734z" />
    <glyph glyph-name="O" unicode="O" horiz-adv-x="824" 
d="M412 734q142 0 242 -89q132 -118 132 -287q0 -170 -132 -288q-100 -89 -242 -89t-242 89q-132 118 -132 288q0 147 100 256q109 120 274 120zM412 701q-143 0 -240 -100t-97 -243t97.5 -243.5t239.5 -100.5q143 0 240 100t97 244q0 143 -97 243t-240 100z" />
    <glyph glyph-name="P" unicode="P" horiz-adv-x="449" 
d="M76 715h56q123 0 200.5 -69t77.5 -174q0 -107 -73.5 -173.5t-195.5 -66.5h-30v-232l-35 -9v724zM111 683v-418h33q105 0 167 56t62 146q0 95 -64 155.5t-166 60.5h-32z" />
    <glyph glyph-name="Q" unicode="Q" horiz-adv-x="824" 
d="M412 701q-143 0 -240 -100t-97 -243t97.5 -243.5t239.5 -100.5q143 0 240 100t97 244q0 143 -97 243t-240 100zM660 75l98 -72l-22 -25l-104 74q-98 -71 -220 -71q-140 0 -242 89q-64 56 -98 131t-34 157q0 147 100 256q109 120 274 120q142 0 242 -89q132 -118 132 -287
q0 -158 -126 -283z" />
    <glyph glyph-name="R" unicode="R" horiz-adv-x="458" 
d="M76 715h54q125 0 193.5 -56.5t68.5 -152.5q0 -87 -61 -142.5t-166 -59.5l252 -295l-24 -21l-282 333v-321l-35 -9v724zM111 683v-354h30q100 0 158 49.5t58 130.5q0 79 -58.5 126.5t-157.5 47.5h-30z" />
    <glyph glyph-name="S" unicode="S" horiz-adv-x="454" 
d="M396 661l-23 -24q-63 63 -136 63q-69 0 -112 -46t-43 -121q0 -17 3 -31.5t5.5 -25.5t12 -22t14.5 -18t20 -16t21.5 -13t27 -12t28 -11t33 -12t34.5 -12q127 -45 127 -172q0 -89 -57.5 -147.5t-144.5 -58.5q-119 0 -175 104l29 23q55 -95 146 -95q72 0 118.5 49t46.5 125
q0 19 -2.5 34.5t-10 29t-13 23t-20 19.5t-22 15.5t-28.5 14t-30.5 12t-36 12.5t-37.5 13q-126 44 -126 168q0 88 56.5 145t143.5 57q92 0 151 -70z" />
    <glyph glyph-name="T" unicode="T" horiz-adv-x="476" 
d="M16 715h444l9 -31h-213v-684l-35 -9v693h-214z" />
    <glyph glyph-name="U" unicode="U" horiz-adv-x="652" 
d="M103 725v-449q0 -134 52 -199t161 -65q121 0 183 92q26 39 34 84.5t8 115.5v411l34 10v-725l-34 -9v136q-61 -146 -232 -146q-128 0 -195 90q-30 41 -37.5 86.5t-7.5 122.5v435z" />
    <glyph glyph-name="V" unicode="V" horiz-adv-x="697" 
d="M43 722l305 -668l308 668l29 -14l-338 -727l-336 727z" />
    <glyph glyph-name="W" unicode="W" horiz-adv-x="918" 
d="M46 722l280 -661l123 297l-146 350l32 14l132 -321l131 321l31 -14l-143 -344l122 -297l260 655l33 -14l-294 -725l-142 339l-140 -339l-313 725z" />
    <glyph glyph-name="X" unicode="X" horiz-adv-x="589" 
d="M70 725l230 -324l231 324l28 -19l-241 -336l257 -361l-31 -18l-247 351l-251 -351l-28 18l259 364l-236 333z" />
    <glyph glyph-name="Y" unicode="Y" horiz-adv-x="554" 
d="M50 722l233 -453l232 453l29 -14l-367 -717l-30 11l118 230l-245 477z" />
    <glyph glyph-name="Z" unicode="Z" horiz-adv-x="572" 
d="M53 715h473l-443 -683h474l-10 -32h-524l444 683h-424z" />
    <glyph glyph-name="bracketleft" unicode="[" horiz-adv-x="373" 
d="M126 715h164v-32h-129v-769h129v-32h-164v833z" />
    <glyph glyph-name="backslash" unicode="\" horiz-adv-x="278" 
d="M-24 734h33l322 -827h-33z" />
    <glyph glyph-name="bracketright" unicode="]" horiz-adv-x="373" 
d="M83 715h164v-833h-164v32h129v769h-129v32z" />
    <glyph glyph-name="asciicircum" unicode="^" horiz-adv-x="1000" 
d="M475 711h48l268 -270h-53l-238 236l-239 -236h-53z" />
    <glyph glyph-name="underscore" unicode="_" 
d="M0 -206h500v-30h-500v30z" />
    <glyph glyph-name="grave" unicode="`" 
d="M151 586h53l102 -160h-31z" />
    <glyph glyph-name="a" unicode="a" horiz-adv-x="353" 
d="M294 275v-271l-30 -11v55q-36 -60 -105 -60q-54 0 -89 36.5t-35 91.5t37 92t92 37q67 0 98 -53v80q0 36 -16 51t-57 15q-19 0 -50 -3l9 31q22 1 51 1q55 0 75 -19.5t20 -72.5zM164 214q-40 0 -68 -28.5t-28 -69.5t28 -69.5t68 -28.5t68 29t28 69t-28 69t-68 29z" />
    <glyph glyph-name="b" unicode="b" horiz-adv-x="455" 
d="M75 725v-447q26 45 68 69.5t90 24.5q81 0 136.5 -56.5t55.5 -136.5q0 -79 -56 -135.5t-136 -56.5q-100 0 -155 79q-22 32 -28.5 67.5t-6.5 89.5v492zM234 340q-65 0 -111 -46.5t-46 -113.5t45.5 -114t111.5 -47t111 47t45 114q0 66 -45 113t-111 47z" />
    <glyph glyph-name="c" unicode="c" horiz-adv-x="351" 
d="M339 344l-7 -33q-54 29 -110 29q-66 0 -111 -46t-45 -114q0 -67 45 -114t111 -47q58 0 114 38l6 -30q-50 -40 -120 -40q-80 0 -135.5 56t-55.5 136t55.5 136.5t135.5 56.5q72 0 117 -28z" />
    <glyph glyph-name="d" unicode="d" horiz-adv-x="471" 
d="M412 725v-720l-33 -10v85q-57 -94 -157 -94q-80 0 -135.5 56.5t-55.5 136.5q0 79 55.5 136t135.5 57q52 0 94 -25.5t63 -69.5v438zM222 339q-66 0 -111.5 -47t-45.5 -113t45.5 -113t111.5 -47t111 46.5t45 113.5t-45 113.5t-111 46.5z" />
    <glyph glyph-name="e" unicode="e" horiz-adv-x="374" 
d="M321 299q-41 41 -99 41q-67 0 -113 -46.5t-46 -111.5q0 -22 3 -37zM373 295l-296 -179q45 -97 145 -97q58 0 114 38v-35q-54 -35 -114 -35q-80 0 -135 55t-55 137q0 83 55 138t135 55q46 0 80.5 -18t70.5 -59z" />
    <glyph glyph-name="f" unicode="f" horiz-adv-x="200" 
d="M191 718v-34q-92 -15 -92 -128v-197h92v-31h-92v-328l-33 -9v557q0 152 125 170z" />
    <glyph glyph-name="g" unicode="g" horiz-adv-x="373" 
d="M329 373l-15 -36q-14 -2 -23 -2q-3 0 -9 0.5t-9 0.5q55 -35 55 -104q0 -41 -24.5 -72.5t-68.5 -45.5q45 -16 69 -49.5t24 -76.5q0 -62 -43.5 -100.5t-113.5 -38.5q-80 0 -126 59l14 34q43 -66 118 -66q50 0 83.5 32.5t33.5 80.5q0 45 -32.5 75.5t-83.5 30.5
q-49 0 -97 -36l-18 21q30 25 61 35q-85 28 -85 111q0 62 42.5 100.5t112.5 38.5q6 0 21 -1t24 -1q16 0 90 10zM184 334q-46 0 -78 -30.5t-32 -72.5t32 -72t78 -30t78 30.5t32 71.5q0 42 -31.5 72.5t-78.5 30.5z" />
    <glyph glyph-name="h" unicode="h" horiz-adv-x="390" 
d="M91 725v-428q19 32 52 51t71 19q63 0 91.5 -38t28.5 -115v-214l-33 -9v224q0 121 -96 121q-48 0 -81 -38t-33 -95v-203l-32 -9v724z" />
    <glyph glyph-name="i" unicode="i" horiz-adv-x="160" 
d="M80 546l32 -32l-32 -33l-32 33zM96 363v-363l-32 -9v363z" />
    <glyph glyph-name="j" unicode="j" horiz-adv-x="160" 
d="M80 546l32 -32l-32 -33l-32 33zM96 363v-388q0 -65 -14.5 -95t-64.5 -46v34q32 14 39.5 39t7.5 84v363z" />
    <glyph glyph-name="k" unicode="k" horiz-adv-x="315" 
d="M93 725v-555l176 189l21 -20l-162 -173l169 -155l-22 -22l-182 168v-157l-33 -9v724z" />
    <glyph glyph-name="l" unicode="l" horiz-adv-x="160" 
d="M96 725v-725l-32 -9v724z" />
    <glyph glyph-name="m" unicode="m" horiz-adv-x="537" 
d="M278 297q38 70 104 70q52 0 74.5 -37.5t22.5 -115.5v-214l-32 -9v224q0 62 -15 91.5t-57 29.5q-90 0 -90 -136v-200l-32 -9v224q0 62 -15 91.5t-57 29.5q-90 0 -90 -133v-203l-32 -9v359l32 9v-56q31 64 98 64t89 -70z" />
    <glyph glyph-name="n" unicode="n" horiz-adv-x="390" 
d="M334 214v-214l-33 -9v224q0 121 -96 121q-48 0 -81 -38t-33 -95v-203l-32 -9v359l32 9v-62q19 32 52 51t71 19q63 0 91.5 -38t28.5 -115z" />
    <glyph glyph-name="o" unicode="o" horiz-adv-x="444" 
d="M222 372q81 0 136.5 -56.5t55.5 -136.5q0 -79 -56 -135.5t-136 -56.5t-135.5 56t-55.5 136t55.5 136.5t135.5 56.5zM222 340q-65 0 -110.5 -46.5t-45.5 -113.5t45 -114t111 -47t111.5 47t45.5 114q0 66 -45.5 113t-111.5 47z" />
    <glyph glyph-name="p" unicode="p" horiz-adv-x="471" 
d="M249 340q-65 0 -111 -46.5t-46 -113.5t45.5 -114t111.5 -47t111.5 47t45.5 114q0 66 -45.5 113t-111.5 47zM91 80v-235l-32 -9v514l32 9v-85q25 47 67 72.5t91 25.5q80 0 135.5 -57t55.5 -136t-55.5 -135.5t-135.5 -56.5q-53 0 -95 25t-63 68z" />
    <glyph glyph-name="q" unicode="q" horiz-adv-x="471" 
d="M379 -155v235q-21 -44 -63 -68.5t-94 -24.5q-80 0 -135.5 56.5t-55.5 135.5q0 80 55.5 136.5t135.5 56.5q49 0 90.5 -25.5t66.5 -72.5v85l33 -9v-514zM378 180q0 68 -45 114t-111 46t-111.5 -47t-45.5 -113q0 -67 45.5 -114t111.5 -47t111 47t45 114z" />
    <glyph glyph-name="r" unicode="r" horiz-adv-x="208" 
d="M190 369v-41h-13q-39 0 -62.5 -32.5t-23.5 -92.5v-202l-32 -9v358l32 9v-65q35 73 99 75z" />
    <glyph glyph-name="s" unicode="s" horiz-adv-x="262" 
d="M228 327l-19 -20q-31 34 -72 34q-27 0 -46.5 -20.5t-19.5 -51.5q0 -30 17 -43.5t58 -27.5q44 -15 64.5 -39.5t20.5 -64.5q0 -46 -30.5 -76.5t-76.5 -30.5q-58 0 -92 45l18 24q32 -41 73 -41q33 0 54 21t21 55q0 33 -18 49.5t-59 31.5q-45 16 -64.5 36.5t-19.5 57.5
q0 45 29.5 75t73.5 30q52 0 88 -44z" />
    <glyph glyph-name="t" unicode="t" horiz-adv-x="262" 
d="M118 480v-121h108v-31h-108v-206q0 -54 13 -76t51 -22q17 0 42 5l-5 -31q-24 -6 -38 -6q-57 0 -76.5 30.5t-19.5 102.5v203h-36l8 31h28v112z" />
    <glyph glyph-name="u" unicode="u" horiz-adv-x="390" 
d="M89 363v-223q0 -121 95 -121q48 0 81 38t33 94v203l33 9v-358l-33 -9v61q-39 -69 -122 -69q-63 0 -91.5 37.5t-28.5 114.5v214z" />
    <glyph glyph-name="v" unicode="v" horiz-adv-x="375" 
d="M54 364l138 -318l139 318l31 -11l-172 -380l-168 378z" />
    <glyph glyph-name="w" unicode="w" horiz-adv-x="669" 
d="M20 353l30 13l138 -312l150 321l146 -322l151 312l27 -12l-180 -369l-146 322l-150 -322z" />
    <glyph glyph-name="x" unicode="x" horiz-adv-x="350" 
d="M299 366l24 -19l-128 -162l133 -171l-25 -22l-128 167l-131 -166l-23 19l135 170l-130 164l26 21l123 -158z" />
    <glyph glyph-name="y" unicode="y" horiz-adv-x="377" 
d="M44 364l152 -296l145 294l28 -14l-259 -517l-29 14l97 190l-164 314z" />
    <glyph glyph-name="z" unicode="z" horiz-adv-x="354" 
d="M50 359h287l-257 -329h252l-11 -30h-301l257 329h-237z" />
    <glyph glyph-name="braceleft" unicode="{" 
d="M412 721v-34h-18q-71 0 -93.5 -28t-22.5 -106v-118q0 -80 -18.5 -119t-75.5 -57q57 -18 75.5 -57t18.5 -119v-118q0 -78 22.5 -106t93.5 -28h18v-33h-16q-96 0 -127 39.5t-31 146.5v116q0 78 -28.5 110t-99.5 32q-3 0 -10.5 -0.5t-11.5 -0.5v36q9 -1 25 -1q69 0 97 32.5
t28 109.5v116q0 107 31 147t127 40h16z" />
    <glyph glyph-name="bar" unicode="|" 
d="M232 764h36v-1000h-36v1000z" />
    <glyph glyph-name="braceright" unicode="}" 
d="M89 721h16q95 0 126 -40t31 -147v-116q0 -77 28 -109.5t98 -32.5q16 0 25 1v-36q-4 0 -11.5 0.5t-10.5 0.5q-72 0 -100.5 -32t-28.5 -110v-116q0 -107 -31 -146.5t-126 -39.5h-16v34h19q71 0 92.5 27.5t21.5 105.5v118q0 80 19 119t76 57q-57 18 -76 57t-19 119v118
q0 79 -22 106.5t-93 27.5h-18v34z" />
    <glyph glyph-name="asciitilde" unicode="~" horiz-adv-x="833" 
d="M747 356v-35q-103 -73 -189 -73q-52 0 -141 33q-4 1 -23.5 8.5t-25 9.5t-21.5 7t-25 6.5t-21.5 3.5t-24.5 2q-75 0 -189 -79v36q100 73 189 73q40 0 94 -19q14 -5 47 -17t50 -17.5t43 -11t48 -5.5q77 0 189 78z" />
    <glyph glyph-name="exclamdown" unicode="&#xa1;" horiz-adv-x="289" 
d="M144 725l34 -35l-34 -35l-33 35zM161 549v-545l-33 -9v545z" />
    <glyph glyph-name="cent" unicode="&#xa2;" horiz-adv-x="551" 
d="M279 448h25v-59q70 -4 109 -30l-6 -33q-50 27 -103 30v-322q49 0 107 38l5 -29q-40 -33 -112 -41v-80h-25v81q-75 10 -121 63.5t-46 128.5t47 129.5t120 61.5v62zM279 355q-59 -7 -95.5 -51.5t-36.5 -108.5q0 -63 37 -107t95 -52v319z" />
    <glyph glyph-name="sterling" unicode="&#xa3;" horiz-adv-x="551" 
d="M283 397v-62h134v-27h-134v-127q48 -73 91 -103t106 -30q25 0 42 1v-28q-19 -2 -43 -2q-64 0 -112 29t-88 91q-7 -71 -43.5 -110.5t-91.5 -39.5q-53 0 -89 38t-36 95q0 59 36.5 96.5t91.5 37.5q58 0 106 -45v97h-137v27h137v67q-127 42 -187 179l24 14q66 -129 163 -163
v65q0 189 121 189q57 0 92 -38.5t35 -98.5q0 -70 -47.5 -113.5t-127.5 -43.5q-13 0 -43 5zM252 172q-54 58 -110 58q-41 0 -67.5 -29.5t-26.5 -77.5q0 -46 28.5 -76t67.5 -30q49 0 78 40.5t30 114.5zM283 426q27 -8 44 -8q66 0 104 35.5t38 95.5q0 49 -27.5 80t-68.5 31
q-49 0 -69.5 -41.5t-20.5 -129.5v-63z" />
    <glyph glyph-name="currency" unicode="&#xa4;" horiz-adv-x="551" 
d="M526 68q-36 -38 -85 -58.5t-97 -20.5q-108 0 -182.5 77t-89.5 198h-64l5 23h57q-1 10 -1 31q0 15 2 45h-63l5 23h61q18 117 92.5 190t177.5 73q99 0 176 -74l-20 -26q-71 69 -156 69q-92 0 -155.5 -64t-80.5 -168h331l-5 -23h-329q-2 -15 -2 -45q0 -21 1 -31h308l-5 -23
h-300q14 -107 78.5 -175.5t155.5 -68.5q93 0 166 73z" />
    <glyph glyph-name="yen" unicode="&#xa5;" horiz-adv-x="551" 
d="M97 644l184 -326l185 326l29 -14l-159 -274h144v-23h-156l-28 -48v-28h184v-23h-184v-234h-33v234h-182v23h182v28l-28 48h-154v23h141l-154 274z" />
    <glyph glyph-name="brokenbar" unicode="&#xa6;" 
d="M232 699h36v-370h-36v370zM232 199h36v-370h-36v370z" />
    <glyph glyph-name="section" unicode="&#xa7;" 
d="M398 620l-29 -10q-35 94 -117 94q-43 0 -70.5 -28t-27.5 -71q0 -36 22 -56.5t70 -34.5q85 -25 123.5 -54t38.5 -94q0 -51 -30 -88.5t-81 -50.5q93 -30 93 -115q0 -54 -42 -91.5t-107 -37.5q-101 0 -143 98l28 16q34 -87 122 -87q46 0 76.5 28.5t30.5 72.5q0 43 -27.5 66
t-88.5 35q-148 31 -148 142q0 54 31.5 92t86.5 50q-90 27 -90 109q0 53 39 89.5t98 36.5q52 0 90 -29.5t52 -81.5zM250 476q-55 0 -89.5 -33t-34.5 -81q0 -51 35.5 -85t89.5 -34q51 0 85.5 34.5t34.5 80.5q0 50 -34.5 84t-86.5 34z" />
    <glyph glyph-name="dieresis" unicode="&#xa8;" 
d="M173 532l35 -36l-35 -35l-35 35zM327 532l35 -36l-35 -35l-34 35z" />
    <glyph glyph-name="copyright" unicode="&#xa9;" horiz-adv-x="833" 
d="M416 706q149 0 253 -104q103 -103 103 -251q0 -150 -102 -250q-108 -106 -254 -106q-145 0 -250 105t-105 251q0 145 105 252q101 103 250 103zM416 675q-135 0 -227 -94q-97 -99 -97 -230q0 -132 96 -228q97 -97 228 -97t231 98q94 91 94 227q0 135 -94 229
q-95 95 -231 95zM577 450h-39q-11 43 -43 67t-78 24q-66 0 -104 -50t-38 -141q0 -87 39 -137.5t103 -50.5q49 0 84.5 28t43.5 74h36q-5 -59 -52.5 -97t-115.5 -38q-82 0 -131.5 59.5t-49.5 161.5q0 104 51.5 163.5t136.5 59.5q62 0 106 -34t51 -89z" />
    <glyph glyph-name="ordfeminine" unicode="&#xaa;" horiz-adv-x="265" 
d="M221 660v-189l-23 -8v39q-26 -42 -79 -42q-40 0 -66.5 25.5t-26.5 63.5t28 64t69 26q51 0 74 -37v56q0 25 -12.5 36t-42.5 11q-14 0 -38 -3l7 22q17 1 38 1q42 0 57 -13.5t15 -51.5zM123 618q-30 0 -51 -20t-21 -49q0 -28 21 -48t51 -20t51 20t21 48t-21 48.5t-51 20.5z
" />
    <glyph glyph-name="guillemotleft" unicode="&#xab;" horiz-adv-x="333" 
d="M146 290l18 -21l-94 -99l94 -98l-18 -21l-118 119zM275 290l19 -21l-94 -99l94 -98l-19 -21l-117 119z" />
    <glyph glyph-name="logicalnot" unicode="&#xac;" horiz-adv-x="833" 
d="M124 417h585v-245h-30v215h-555v30z" />
    <glyph glyph-name="registered" unicode="&#xae;" horiz-adv-x="833" 
d="M416 706q148 0 253 -103q103 -103 103 -252t-102 -249q-109 -107 -254 -107t-250 105t-105 251q0 145 105 252q101 103 250 103zM416 675q-136 0 -228 -94q-96 -98 -96 -230q0 -131 97 -228t227 -97q132 0 232 98q93 91 93 227q0 134 -95 229q-97 95 -230 95zM280 564
h148q87 0 128 -27t41 -88q0 -42 -27.5 -71.5t-73.5 -34.5l94 -194h-51l-89 187h-127v-187h-43v415zM323 529v-158h93q72 0 101.5 16.5t29.5 64.5q0 41 -32 59t-98 18h-94z" />
    <glyph glyph-name="macron" unicode="&#xaf;" 
d="M141 511h218v-30h-218v30z" />
    <glyph glyph-name="degree" unicode="&#xb0;" horiz-adv-x="329" 
d="M165 707q53 0 92 -38.5t39 -93.5q0 -54 -38.5 -92.5t-93.5 -38.5t-93 38t-38 93t39 93.5t93 38.5zM165 682q-44 0 -75.5 -31t-31.5 -76t31.5 -76t75.5 -31q45 0 75.5 31t30.5 76q0 44 -31 75.5t-75 31.5z" />
    <glyph glyph-name="plusminus" unicode="&#xb1;" horiz-adv-x="833" 
d="M402 562h30v-174h277v-30h-277v-175h-30v175h-278v30h278v174zM124 65h585v-30h-585v30z" />
    <glyph glyph-name="twosuperior" unicode="&#xb2;" horiz-adv-x="364" 
d="M92 274h216l-9 -19h-265q132 97 191 159t59 113q0 42 -29 68.5t-73 26.5q-45 0 -74 -27.5t-29 -68.5q0 -38 26.5 -62t74.5 -30l-14 -18q-51 7 -81 37t-30 73q0 50 37 83t90 33q54 0 89.5 -32.5t35.5 -82.5q0 -53 -49 -107t-166 -146z" />
    <glyph glyph-name="threesuperior" unicode="&#xb3;" horiz-adv-x="364" 
d="M212 451q76 -20 76 -98q0 -44 -35 -74.5t-90 -30.5q-71 0 -110 57l18 14q32 -53 94 -53q44 0 72 25t28 62q0 40 -27.5 63t-77.5 23h-35v21h32q50 0 78 21.5t28 58.5q0 36 -26 59.5t-67 23.5q-51 0 -93 -41l-14 13q49 47 109 47q50 0 82.5 -29.5t32.5 -73.5
q0 -32 -20.5 -56.5t-54.5 -31.5z" />
    <glyph glyph-name="acute" unicode="&#xb4;" 
d="M296 586h53l-124 -160h-31z" />
    <glyph glyph-name="mu" unicode="&#xb5;" horiz-adv-x="508" 
d="M98 516h33l-60 -285q-11 -52 -11 -81q0 -64 33 -99t92 -35q64 0 116 60t75 166l58 274h34l-94 -433q-3 -15 -3 -29q0 -35 39 -35q11 0 18 1l-6 -30q-9 -2 -25 -2q-59 0 -59 55q0 11 5 38q-61 -99 -169 -99q-53 0 -88.5 26.5t-46.5 73.5l-61 -290h-34z" />
    <glyph glyph-name="paragraph" unicode="&#xb6;" 
d="M241 722h211v-28h-65v-694h-28v694h-97v-694h-28v382q-87 4 -136.5 50t-49.5 120q0 76 52.5 123t140.5 47z" />
    <glyph glyph-name="periodcentered" unicode="&#xb7;" horiz-adv-x="275" 
d="M138 349q12 0 21 -9t9 -21t-9 -20.5t-21 -8.5t-20.5 8.5t-8.5 20.5t8.5 21t20.5 9z" />
    <glyph glyph-name="cedilla" unicode="&#xb8;" 
d="M237 0h20l-12 -59h8q101 0 101 -75q0 -39 -26 -61t-74 -22q-50 0 -107 17v25q57 -15 110 -15q68 0 68 51q0 30 -19.5 43t-61.5 13q-15 0 -24 -1z" />
    <glyph glyph-name="onesuperior" unicode="&#xb9;" horiz-adv-x="364" 
d="M205 645v-390l-23 -5v355q-32 -21 -84 -46l-10 18q67 33 117 68z" />
    <glyph glyph-name="ordmasculine" unicode="&#xba;" horiz-adv-x="333" 
d="M167 728q60 0 102 -39.5t42 -95.5q0 -55 -42 -94.5t-102 -39.5q-61 0 -102.5 39t-41.5 95t41.5 95.5t102.5 39.5zM167 706q-49 0 -83 -32.5t-34 -79.5t33.5 -80t83.5 -33q49 0 83 33t34 80t-34 79.5t-83 32.5z" />
    <glyph glyph-name="guillemotright" unicode="&#xbb;" horiz-adv-x="333" 
d="M58 290l118 -120l-118 -119l-18 21l94 98l-94 99zM187 290l118 -120l-118 -119l-18 21l94 98l-94 99z" />
    <glyph glyph-name="onequarter" unicode="&#xbc;" horiz-adv-x="861" 
d="M195 645v-364l-21 -5v332q-24 -16 -81 -43l-9 17q63 29 111 63zM647 648h33l-466 -660h-34zM552 97l201 270v-253h65v-17h-65v-97l-20 -5v102h-181zM587 114h146v195z" />
    <glyph glyph-name="onehalf" unicode="&#xbd;" horiz-adv-x="861" 
d="M195 645v-364l-21 -5v332q-24 -16 -81 -43l-9 17q63 29 111 63zM647 648h33l-466 -660h-34zM602 18h206l-9 -18h-252q125 90 181.5 148t56.5 106q0 39 -27.5 64t-69.5 25q-43 0 -71 -26t-28 -64q0 -35 25.5 -58t71.5 -28l-13 -16q-49 7 -77.5 34.5t-28.5 67.5q0 46 35 77
t85 31q52 0 86 -30.5t34 -76.5q0 -49 -46.5 -99t-158.5 -137z" />
    <glyph glyph-name="threequarters" unicode="&#xbe;" horiz-adv-x="861" 
d="M202 464q73 -19 73 -92q0 -41 -33.5 -69.5t-85.5 -28.5q-69 0 -106 54l18 12q30 -48 89 -48q42 0 69 23t27 57q0 38 -26.5 59.5t-74.5 21.5h-32v19h30q47 0 74 20.5t27 54.5q0 33 -25 55.5t-64 22.5q-47 0 -89 -39l-13 12q47 44 104 44q48 0 79 -27.5t31 -68.5
q0 -30 -19.5 -53t-52.5 -29zM647 648h33l-466 -660h-34zM552 97l201 270v-253h65v-17h-65v-97l-20 -5v102h-181zM587 114h146v195z" />
    <glyph glyph-name="questiondown" unicode="&#xbf;" horiz-adv-x="447" 
d="M437 138q-24 -70 -72.5 -109t-109.5 -39q-77 0 -133 56.5t-56 136.5q0 52 23 86.5t73 73.5q38 29 51.5 52.5t13.5 75.5v87l32 9v-93q0 -32 -2 -48.5t-12 -38t-30 -41.5q-10 -10 -38 -34t-39.5 -36.5t-23.5 -38t-12 -55.5q0 -65 44.5 -112.5t107.5 -47.5q51 0 91.5 32
t62.5 92zM242 654l-34 35l34 35l34 -35z" />
    <glyph glyph-name="Agrave" unicode="&#xc0;" horiz-adv-x="718" 
d="M358 730l349 -724l-32 -12l-163 342h-308l-160 -342l-34 12zM358 666l-139 -298h276zM260 948h53l102 -160h-31z" />
    <glyph glyph-name="Aacute" unicode="&#xc1;" horiz-adv-x="718" 
d="M358 730l349 -724l-32 -12l-163 342h-308l-160 -342l-34 12zM358 666l-139 -298h276zM405 948h53l-124 -160h-31z" />
    <glyph glyph-name="Acircumflex" unicode="&#xc2;" horiz-adv-x="718" 
d="M358 730l349 -724l-32 -12l-163 342h-308l-160 -342l-34 12zM358 666l-139 -298h276zM335 948h48l99 -160h-30l-93 133l-93 -133h-31z" />
    <glyph glyph-name="Atilde" unicode="&#xc3;" horiz-adv-x="718" 
d="M358 730l349 -724l-32 -12l-163 342h-308l-160 -342l-34 12zM358 666l-139 -298h276zM461 897h28q-13 -33 -30 -47.5t-44 -14.5q-14 0 -34 5l-55 12q-13 3 -25 3q-26 0 -45 -31h-27q21 62 75 62q10 0 27 -3l56 -12q20 -4 29 -4q31 0 45 30z" />
    <glyph glyph-name="Adieresis" unicode="&#xc4;" horiz-adv-x="718" 
d="M358 730l349 -724l-32 -12l-163 342h-308l-160 -342l-34 12zM358 666l-139 -298h276zM282 894l35 -36l-35 -35l-35 35zM436 894l35 -36l-35 -35l-34 35z" />
    <glyph glyph-name="Aring" unicode="&#xc5;" horiz-adv-x="718" 
d="M357 986q47 0 79.5 -32.5t32.5 -78.5q0 -47 -32.5 -79.5t-79.5 -32.5q-46 0 -78.5 32.5t-32.5 79.5t32 79t79 32zM357 957q-35 0 -58.5 -23.5t-23.5 -58.5t23.5 -58.5t58.5 -23.5t59 24t24 58q0 35 -24 58.5t-59 23.5zM358 730l349 -724l-32 -12l-163 342h-308l-160 -342
l-34 12zM358 666l-139 -298h276z" />
    <glyph glyph-name="AE" unicode="&#xc6;" horiz-adv-x="829" 
d="M394 715h244l9 -31h-219l91 -309h208v-30h-198l96 -313h220l-17 -32h-232l-103 345h-281l-207 -350l-33 16zM398 660l-167 -285h253z" />
    <glyph glyph-name="Ccedilla" unicode="&#xc7;" horiz-adv-x="689" 
d="M641 651l-18 -28q-95 77 -211 77q-145 0 -241 -99t-96 -243q0 -157 117 -262q93 -82 215 -82t227 86l16 -27q-103 -89 -238 -89q-146 0 -242 86q-132 117 -132 288q0 145 100 256q107 117 274 117q127 0 229 -80zM382 0h20l-12 -59h8q101 0 101 -75q0 -39 -26 -61
t-74 -22q-50 0 -107 17v25q57 -15 110 -15q68 0 68 51q0 30 -19.5 43t-61.5 13q-15 0 -24 -1z" />
    <glyph glyph-name="Egrave" unicode="&#xc8;" horiz-adv-x="454" 
d="M76 715h319l11 -31h-296v-298h259v-31h-259v-323h310l-11 -32h-333v715zM128 948h53l102 -160h-31z" />
    <glyph glyph-name="Eacute" unicode="&#xc9;" horiz-adv-x="454" 
d="M76 715h319l11 -31h-296v-298h259v-31h-259v-323h310l-11 -32h-333v715zM273 948h53l-124 -160h-31z" />
    <glyph glyph-name="Ecircumflex" unicode="&#xca;" horiz-adv-x="454" 
d="M76 715h319l11 -31h-296v-298h259v-31h-259v-323h310l-11 -32h-333v715zM203 948h48l99 -160h-30l-93 133l-93 -133h-31z" />
    <glyph glyph-name="Edieresis" unicode="&#xcb;" horiz-adv-x="454" 
d="M76 715h319l11 -31h-296v-298h259v-31h-259v-323h310l-11 -32h-333v715zM150 894l35 -36l-35 -35l-35 35zM304 894l35 -36l-35 -35l-34 35z" />
    <glyph glyph-name="Igrave" unicode="&#xcc;" horiz-adv-x="200" 
d="M117 725v-725l-35 -9v724zM1 948h53l102 -160h-31z" />
    <glyph glyph-name="Iacute" unicode="&#xcd;" horiz-adv-x="200" 
d="M117 725v-725l-35 -9v724zM146 948h53l-124 -160h-31z" />
    <glyph glyph-name="Icircumflex" unicode="&#xce;" horiz-adv-x="200" 
d="M117 725v-725l-35 -9v724zM76 948h48l99 -160h-30l-93 133l-93 -133h-31z" />
    <glyph glyph-name="Idieresis" unicode="&#xcf;" horiz-adv-x="200" 
d="M117 725v-725l-35 -9v724zM23 894l35 -36l-35 -35l-35 35zM177 894l35 -36l-35 -35l-34 35z" />
    <glyph glyph-name="Eth" unicode="&#xd0;" horiz-adv-x="578" 
d="M99 715h62q166 0 268.5 -100.5t102.5 -255.5q0 -152 -107 -255.5t-270 -103.5h-56v340h-76v28h76v347zM134 683v-315h161v-28h-161v-307h33q143 0 235.5 92.5t92.5 235.5q0 140 -90.5 231t-236.5 91h-34z" />
    <glyph glyph-name="Ntilde" unicode="&#xd1;" horiz-adv-x="752" 
d="M76 725l564 -646v636l35 10v-738l-565 648v-635l-34 -9v734zM478 897h28q-13 -33 -30 -47.5t-44 -14.5q-14 0 -34 5l-55 12q-13 3 -25 3q-26 0 -45 -31h-27q21 62 75 62q11 0 27 -3l56 -12q20 -4 29 -4q31 0 45 30z" />
    <glyph glyph-name="Ograve" unicode="&#xd2;" horiz-adv-x="824" 
d="M412 734q142 0 242 -89q132 -118 132 -287q0 -170 -132 -288q-100 -89 -242 -89t-242 89q-132 118 -132 288q0 147 100 256q109 120 274 120zM412 701q-143 0 -240 -100t-97 -243t97.5 -243.5t239.5 -100.5q143 0 240 100t97 244q0 143 -97 243t-240 100zM313 948h53
l102 -160h-31z" />
    <glyph glyph-name="Oacute" unicode="&#xd3;" horiz-adv-x="824" 
d="M412 734q142 0 242 -89q132 -118 132 -287q0 -170 -132 -288q-100 -89 -242 -89t-242 89q-132 118 -132 288q0 147 100 256q109 120 274 120zM412 701q-143 0 -240 -100t-97 -243t97.5 -243.5t239.5 -100.5q143 0 240 100t97 244q0 143 -97 243t-240 100zM458 948h53
l-124 -160h-31z" />
    <glyph glyph-name="Ocircumflex" unicode="&#xd4;" horiz-adv-x="824" 
d="M412 734q142 0 242 -89q132 -118 132 -287q0 -170 -132 -288q-100 -89 -242 -89t-242 89q-132 118 -132 288q0 147 100 256q109 120 274 120zM412 701q-143 0 -240 -100t-97 -243t97.5 -243.5t239.5 -100.5q143 0 240 100t97 244q0 143 -97 243t-240 100zM388 948h48
l99 -160h-30l-93 133l-93 -133h-31z" />
    <glyph glyph-name="Otilde" unicode="&#xd5;" horiz-adv-x="824" 
d="M412 734q142 0 242 -89q132 -118 132 -287q0 -170 -132 -288q-100 -89 -242 -89t-242 89q-132 118 -132 288q0 147 100 256q109 120 274 120zM412 701q-143 0 -240 -100t-97 -243t97.5 -243.5t239.5 -100.5q143 0 240 100t97 244q0 143 -97 243t-240 100zM514 897h28
q-13 -33 -30 -47.5t-44 -14.5q-14 0 -34 5l-55 12q-13 3 -25 3q-26 0 -45 -31h-27q21 62 75 62q11 0 27 -3l56 -12q20 -4 29 -4q31 0 45 30z" />
    <glyph glyph-name="Odieresis" unicode="&#xd6;" horiz-adv-x="824" 
d="M412 734q142 0 242 -89q132 -118 132 -287q0 -170 -132 -288q-100 -89 -242 -89t-242 89q-132 118 -132 288q0 147 100 256q109 120 274 120zM412 701q-143 0 -240 -100t-97 -243t97.5 -243.5t239.5 -100.5q143 0 240 100t97 244q0 143 -97 243t-240 100zM335 894l35 -36
l-35 -35l-35 35zM489 894l35 -36l-35 -35l-34 35z" />
    <glyph glyph-name="multiply" unicode="&#xd7;" horiz-adv-x="833" 
d="M176 560l240 -240l240 240l22 -22l-240 -240l240 -240l-22 -22l-240 240l-240 -240l-22 22l240 240l-240 240z" />
    <glyph glyph-name="Oslash" unicode="&#xd8;" horiz-adv-x="824" 
d="M92 -19l-23 20l79 88q-110 119 -110 269q0 169 132 287q100 89 242 89q135 0 239 -84l78 87l26 -22l-79 -89q110 -125 110 -268q0 -146 -100 -257q-109 -120 -274 -120q-139 0 -241 88zM194 95q90 -81 218 -81t220 82q117 105 117 262q0 137 -97 242zM172 116l455 508
q-90 77 -215 77q-128 0 -220 -82q-117 -105 -117 -261q0 -139 97 -242z" />
    <glyph glyph-name="Ugrave" unicode="&#xd9;" horiz-adv-x="652" 
d="M103 725v-449q0 -134 52 -199t161 -65q121 0 183 92q26 39 34 84.5t8 115.5v411l34 10v-725l-34 -9v136q-61 -146 -232 -146q-128 0 -195 90q-30 41 -37.5 86.5t-7.5 122.5v435zM227 948h53l102 -160h-31z" />
    <glyph glyph-name="Uacute" unicode="&#xda;" horiz-adv-x="652" 
d="M103 725v-449q0 -134 52 -199t161 -65q121 0 183 92q26 39 34 84.5t8 115.5v411l34 10v-725l-34 -9v136q-61 -146 -232 -146q-128 0 -195 90q-30 41 -37.5 86.5t-7.5 122.5v435zM372 948h53l-124 -160h-31z" />
    <glyph glyph-name="Ucircumflex" unicode="&#xdb;" horiz-adv-x="652" 
d="M103 725v-449q0 -134 52 -199t161 -65q121 0 183 92q26 39 34 84.5t8 115.5v411l34 10v-725l-34 -9v136q-61 -146 -232 -146q-128 0 -195 90q-30 41 -37.5 86.5t-7.5 122.5v435zM302 948h48l99 -160h-30l-93 133l-93 -133h-31z" />
    <glyph glyph-name="Udieresis" unicode="&#xdc;" horiz-adv-x="652" 
d="M103 725v-449q0 -134 52 -199t161 -65q121 0 183 92q26 39 34 84.5t8 115.5v411l34 10v-725l-34 -9v136q-61 -146 -232 -146q-128 0 -195 90q-30 41 -37.5 86.5t-7.5 122.5v435zM249 894l35 -36l-35 -35l-35 35zM403 894l35 -36l-35 -35l-34 35z" />
    <glyph glyph-name="Yacute" unicode="&#xdd;" horiz-adv-x="554" 
d="M50 722l233 -453l232 453l29 -14l-367 -717l-30 11l118 230l-245 477zM323 948h53l-124 -160h-31z" />
    <glyph glyph-name="Thorn" unicode="&#xde;" horiz-adv-x="449" 
d="M111 722v-100h21q123 0 200.5 -69t77.5 -174q0 -107 -73.5 -173.5t-195.5 -66.5h-30v-139l-35 -9v724zM111 590v-418h33q105 0 167 56t62 146q0 95 -64 155.5t-166 60.5h-32z" />
    <glyph glyph-name="germandbls" unicode="&#xdf;" horiz-adv-x="433" 
d="M257 374q143 -38 143 -184q0 -87 -59 -145.5t-153 -58.5q-8 0 -40 6v33q28 -5 41 -5q82 0 128 48t46 123q0 77 -46 121t-126 44h-29v35q8 -1 22 -1q72 0 114.5 41t42.5 105q0 60 -38 102.5t-93 42.5q-119 0 -119 -154v-527l-33 -9v538q0 185 152 185q70 0 117.5 -49.5
t47.5 -121.5q0 -65 -31 -109t-87 -60z" />
    <glyph glyph-name="agrave" unicode="&#xe0;" horiz-adv-x="353" 
d="M294 275v-271l-30 -11v55q-36 -60 -105 -60q-54 0 -89 36.5t-35 91.5t37 92t92 37q67 0 98 -53v80q0 36 -16 51t-57 15q-19 0 -50 -3l9 31q22 1 51 1q55 0 75 -19.5t20 -72.5zM164 214q-40 0 -68 -28.5t-28 -69.5t28 -69.5t68 -28.5t68 29t28 69t-28 69t-68 29zM88 586
h53l102 -160h-31z" />
    <glyph glyph-name="aacute" unicode="&#xe1;" horiz-adv-x="353" 
d="M294 275v-271l-30 -11v55q-36 -60 -105 -60q-54 0 -89 36.5t-35 91.5t37 92t92 37q67 0 98 -53v80q0 36 -16 51t-57 15q-19 0 -50 -3l9 31q22 1 51 1q55 0 75 -19.5t20 -72.5zM164 214q-40 0 -68 -28.5t-28 -69.5t28 -69.5t68 -28.5t68 29t28 69t-28 69t-68 29zM233 586
h53l-124 -160h-31z" />
    <glyph glyph-name="acircumflex" unicode="&#xe2;" horiz-adv-x="353" 
d="M294 275v-271l-30 -11v55q-36 -60 -105 -60q-54 0 -89 36.5t-35 91.5t37 92t92 37q67 0 98 -53v80q0 36 -16 51t-57 15q-19 0 -50 -3l9 31q22 1 51 1q55 0 75 -19.5t20 -72.5zM164 214q-40 0 -68 -28.5t-28 -69.5t28 -69.5t68 -28.5t68 29t28 69t-28 69t-68 29zM163 586
h48l99 -160h-30l-93 133l-93 -133h-31z" />
    <glyph glyph-name="atilde" unicode="&#xe3;" horiz-adv-x="353" 
d="M294 275v-271l-30 -11v55q-36 -60 -105 -60q-54 0 -89 36.5t-35 91.5t37 92t92 37q67 0 98 -53v80q0 36 -16 51t-57 15q-19 0 -50 -3l9 31q22 1 51 1q55 0 75 -19.5t20 -72.5zM164 214q-40 0 -68 -28.5t-28 -69.5t28 -69.5t68 -28.5t68 29t28 69t-28 69t-68 29zM289 535
h28q-13 -33 -30 -47.5t-44 -14.5q-14 0 -34 5l-55 12q-13 3 -25 3q-26 0 -45 -31h-27q21 62 75 62q10 0 27 -3l56 -12q20 -4 29 -4q31 0 45 30z" />
    <glyph glyph-name="adieresis" unicode="&#xe4;" horiz-adv-x="353" 
d="M294 275v-271l-30 -11v55q-36 -60 -105 -60q-54 0 -89 36.5t-35 91.5t37 92t92 37q67 0 98 -53v80q0 36 -16 51t-57 15q-19 0 -50 -3l9 31q22 1 51 1q55 0 75 -19.5t20 -72.5zM164 214q-40 0 -68 -28.5t-28 -69.5t28 -69.5t68 -28.5t68 29t28 69t-28 69t-68 29zM110 532
l35 -36l-35 -35l-35 35zM264 532l35 -36l-35 -35l-34 35z" />
    <glyph glyph-name="aring" unicode="&#xe5;" horiz-adv-x="353" 
d="M176 623q46 0 79 -32.5t33 -79.5t-32.5 -79t-79.5 -32q-46 0 -78.5 32t-32.5 79t32.5 79.5t78.5 32.5zM176 594q-34 0 -58 -24t-24 -58q0 -35 24 -59t58 -24t58.5 24.5t24.5 58.5q0 35 -24 58.5t-59 23.5zM294 275v-271l-30 -11v55q-36 -60 -105 -60q-54 0 -89 36.5
t-35 91.5t37 92t92 37q67 0 98 -53v80q0 36 -16 51t-57 15q-19 0 -50 -3l9 31q22 1 51 1q55 0 75 -19.5t20 -72.5zM164 214q-40 0 -68 -28.5t-28 -69.5t28 -69.5t68 -28.5t68 29t28 69t-28 69t-68 29z" />
    <glyph glyph-name="ae" unicode="&#xe6;" horiz-adv-x="590" 
d="M279 72q-17 -39 -49.5 -61.5t-70.5 -22.5q-54 0 -89 36.5t-35 91.5q0 54 37 91.5t92 37.5q62 0 91 -43q0 4 0.5 12t0.5 11q0 59 -21.5 85.5t-71.5 26.5q-1 0 -4 -0.5t-9 -1t-11 -0.5l9 31q12 1 26 1q46 0 74 -21.5t33 -59.5q24 40 65.5 63t91.5 23q84 0 152 -77
l-297 -179q45 -98 146 -98q55 0 114 39v-35q-52 -34 -115 -34q-99 0 -159 84zM164 18q40 0 68 29t28 69t-28 69t-68 29t-68 -28.5t-28 -69.5t28 -69.5t68 -28.5zM283 145l255 154q-41 41 -99 41q-66 0 -112.5 -46t-46.5 -114q0 -17 3 -35z" />
    <glyph glyph-name="ccedilla" unicode="&#xe7;" horiz-adv-x="351" 
d="M339 344l-7 -33q-54 29 -110 29q-66 0 -111 -46t-45 -114q0 -67 45 -114t111 -47q58 0 114 38l6 -30q-50 -40 -120 -40q-80 0 -135.5 56t-55.5 136t55.5 136.5t135.5 56.5q72 0 117 -28zM193 0h20l-12 -59h8q101 0 101 -75q0 -39 -26 -61t-74 -22q-50 0 -107 17v25
q57 -15 110 -15q68 0 68 51q0 30 -19.5 43t-61.5 13q-15 0 -24 -1z" />
    <glyph glyph-name="egrave" unicode="&#xe8;" horiz-adv-x="374" 
d="M321 299q-41 41 -99 41q-67 0 -113 -46.5t-46 -111.5q0 -22 3 -37zM373 295l-296 -179q45 -97 145 -97q58 0 114 38v-35q-54 -35 -114 -35q-80 0 -135 55t-55 137q0 83 55 138t135 55q46 0 80.5 -18t70.5 -59zM111 586h53l102 -160h-31z" />
    <glyph glyph-name="eacute" unicode="&#xe9;" horiz-adv-x="374" 
d="M321 299q-41 41 -99 41q-67 0 -113 -46.5t-46 -111.5q0 -22 3 -37zM373 295l-296 -179q45 -97 145 -97q58 0 114 38v-35q-54 -35 -114 -35q-80 0 -135 55t-55 137q0 83 55 138t135 55q46 0 80.5 -18t70.5 -59zM256 586h53l-124 -160h-31z" />
    <glyph glyph-name="ecircumflex" unicode="&#xea;" horiz-adv-x="374" 
d="M321 299q-41 41 -99 41q-67 0 -113 -46.5t-46 -111.5q0 -22 3 -37zM373 295l-296 -179q45 -97 145 -97q58 0 114 38v-35q-54 -35 -114 -35q-80 0 -135 55t-55 137q0 83 55 138t135 55q46 0 80.5 -18t70.5 -59zM186 586h48l99 -160h-30l-93 133l-93 -133h-31z" />
    <glyph glyph-name="edieresis" unicode="&#xeb;" horiz-adv-x="374" 
d="M321 299q-41 41 -99 41q-67 0 -113 -46.5t-46 -111.5q0 -22 3 -37zM373 295l-296 -179q45 -97 145 -97q58 0 114 38v-35q-54 -35 -114 -35q-80 0 -135 55t-55 137q0 83 55 138t135 55q46 0 80.5 -18t70.5 -59zM133 532l35 -36l-35 -35l-35 35zM287 532l35 -36l-35 -35
l-34 35z" />
    <glyph glyph-name="igrave" unicode="&#xec;" horiz-adv-x="160" 
d="M96 363v-363l-32 -9v363zM-19 586h53l102 -160h-31z" />
    <glyph glyph-name="iacute" unicode="&#xed;" horiz-adv-x="160" 
d="M96 363v-363l-32 -9v363zM126 586h53l-124 -160h-31z" />
    <glyph glyph-name="icircumflex" unicode="&#xee;" horiz-adv-x="160" 
d="M96 363v-363l-32 -9v363zM56 586h48l99 -160h-30l-93 133l-93 -133h-31z" />
    <glyph glyph-name="idieresis" unicode="&#xef;" horiz-adv-x="160" 
d="M96 363v-363l-32 -9v363zM3 532l35 -36l-35 -35l-35 35zM157 532l35 -36l-35 -35l-34 35z" />
    <glyph glyph-name="eth" unicode="&#xf0;" horiz-adv-x="444" 
d="M317 347l-102 181l-130 -68l-11 24l128 66l-89 162l24 13l90 -162l128 65l11 -24l-127 -65l131 -231q42 -73 42 -129q0 -83 -55 -137.5t-135 -54.5t-135.5 56t-55.5 136t55.5 136.5t135.5 56.5q44 0 95 -25zM66 180q0 -68 45 -114.5t111 -46.5t111.5 47t45.5 114
t-45 113.5t-112 46.5q-66 0 -111 -46t-45 -114z" />
    <glyph glyph-name="ntilde" unicode="&#xf1;" horiz-adv-x="390" 
d="M334 214v-214l-33 -9v224q0 121 -96 121q-48 0 -81 -38t-33 -95v-203l-32 -9v359l32 9v-62q19 32 52 51t71 19q63 0 91.5 -38t28.5 -115zM297 535h28q-13 -33 -30 -47.5t-44 -14.5q-14 0 -34 5l-55 12q-14 3 -25 3q-26 0 -45 -31h-27q21 62 75 62q10 0 27 -3l56 -12
q20 -4 29 -4q31 0 45 30z" />
    <glyph glyph-name="ograve" unicode="&#xf2;" horiz-adv-x="444" 
d="M222 372q81 0 136.5 -56.5t55.5 -136.5q0 -79 -56 -135.5t-136 -56.5t-135.5 56t-55.5 136t55.5 136.5t135.5 56.5zM222 340q-65 0 -110.5 -46.5t-45.5 -113.5t45 -114t111 -47t111.5 47t45.5 114q0 66 -45.5 113t-111.5 47zM123 586h53l102 -160h-31z" />
    <glyph glyph-name="oacute" unicode="&#xf3;" horiz-adv-x="444" 
d="M222 372q81 0 136.5 -56.5t55.5 -136.5q0 -79 -56 -135.5t-136 -56.5t-135.5 56t-55.5 136t55.5 136.5t135.5 56.5zM222 340q-65 0 -110.5 -46.5t-45.5 -113.5t45 -114t111 -47t111.5 47t45.5 114q0 66 -45.5 113t-111.5 47zM268 586h53l-124 -160h-31z" />
    <glyph glyph-name="ocircumflex" unicode="&#xf4;" horiz-adv-x="444" 
d="M222 372q81 0 136.5 -56.5t55.5 -136.5q0 -79 -56 -135.5t-136 -56.5t-135.5 56t-55.5 136t55.5 136.5t135.5 56.5zM222 340q-65 0 -110.5 -46.5t-45.5 -113.5t45 -114t111 -47t111.5 47t45.5 114q0 66 -45.5 113t-111.5 47zM198 586h48l99 -160h-30l-93 133l-93 -133
h-31z" />
    <glyph glyph-name="otilde" unicode="&#xf5;" horiz-adv-x="444" 
d="M222 372q81 0 136.5 -56.5t55.5 -136.5q0 -79 -56 -135.5t-136 -56.5t-135.5 56t-55.5 136t55.5 136.5t135.5 56.5zM222 340q-65 0 -110.5 -46.5t-45.5 -113.5t45 -114t111 -47t111.5 47t45.5 114q0 66 -45.5 113t-111.5 47zM324 535h28q-13 -33 -30 -47.5t-44 -14.5
q-14 0 -34 5l-55 12q-13 3 -25 3q-26 0 -45 -31h-27q21 62 75 62q11 0 27 -3l56 -12q20 -4 29 -4q31 0 45 30z" />
    <glyph glyph-name="odieresis" unicode="&#xf6;" horiz-adv-x="444" 
d="M222 372q81 0 136.5 -56.5t55.5 -136.5q0 -79 -56 -135.5t-136 -56.5t-135.5 56t-55.5 136t55.5 136.5t135.5 56.5zM222 340q-65 0 -110.5 -46.5t-45.5 -113.5t45 -114t111 -47t111.5 47t45.5 114q0 66 -45.5 113t-111.5 47zM145 532l35 -36l-35 -35l-35 35zM299 532
l35 -36l-35 -35l-34 35z" />
    <glyph glyph-name="divide" unicode="&#xf7;" horiz-adv-x="833" 
d="M417 508q18 0 31 -13t13 -32t-12.5 -31.5t-31.5 -12.5t-32 12.5t-13 31.5q0 18 13.5 31.5t31.5 13.5zM124 313h585v-30h-585v30zM417 177q19 0 31.5 -12.5t12.5 -31.5q0 -18 -13 -31.5t-31 -13.5q-19 0 -32 13t-13 31q0 19 13.5 32t31.5 13z" />
    <glyph glyph-name="oslash" unicode="&#xf8;" horiz-adv-x="444" 
d="M396 394l19 -19l-56 -62q55 -63 55 -134q0 -79 -56 -135.5t-136 -56.5q-68 0 -120 41l-55 -62l-20 19l55 61q-51 64 -51 133q0 80 55.5 136.5t135.5 56.5q63 0 118 -40zM317 307q-38 33 -95 33q-66 0 -111 -46t-45 -114q0 -66 39 -108zM337 287l-212 -234q43 -34 97 -34
q66 0 111.5 47.5t45.5 113.5q0 62 -42 107z" />
    <glyph glyph-name="ugrave" unicode="&#xf9;" horiz-adv-x="390" 
d="M89 363v-223q0 -121 95 -121q48 0 81 38t33 94v203l33 9v-358l-33 -9v61q-39 -69 -122 -69q-63 0 -91.5 37.5t-28.5 114.5v214zM96 586h53l102 -160h-31z" />
    <glyph glyph-name="uacute" unicode="&#xfa;" horiz-adv-x="390" 
d="M89 363v-223q0 -121 95 -121q48 0 81 38t33 94v203l33 9v-358l-33 -9v61q-39 -69 -122 -69q-63 0 -91.5 37.5t-28.5 114.5v214zM241 586h53l-124 -160h-31z" />
    <glyph glyph-name="ucircumflex" unicode="&#xfb;" horiz-adv-x="390" 
d="M89 363v-223q0 -121 95 -121q48 0 81 38t33 94v203l33 9v-358l-33 -9v61q-39 -69 -122 -69q-63 0 -91.5 37.5t-28.5 114.5v214zM171 586h48l99 -160h-30l-93 133l-93 -133h-31z" />
    <glyph glyph-name="udieresis" unicode="&#xfc;" horiz-adv-x="390" 
d="M89 363v-223q0 -121 95 -121q48 0 81 38t33 94v203l33 9v-358l-33 -9v61q-39 -69 -122 -69q-63 0 -91.5 37.5t-28.5 114.5v214zM118 532l35 -36l-35 -35l-35 35zM272 532l35 -36l-35 -35l-34 35z" />
    <glyph glyph-name="yacute" unicode="&#xfd;" horiz-adv-x="377" 
d="M44 364l152 -296l145 294l28 -14l-259 -517l-29 14l97 190l-164 314zM235 586h53l-124 -160h-31z" />
    <glyph glyph-name="thorn" unicode="&#xfe;" horiz-adv-x="471" 
d="M91 725v-451q25 47 67 72.5t91 25.5q80 0 135.5 -57t55.5 -136t-55.5 -135.5t-135.5 -56.5q-53 0 -95 25t-63 68v-235l-32 -9v879zM249 340q-65 0 -111 -46.5t-46 -113.5t45.5 -114t111.5 -47t111.5 47t45.5 114q0 66 -45.5 113t-111.5 47z" />
    <glyph glyph-name="ydieresis" unicode="&#xff;" horiz-adv-x="377" 
d="M44 364l152 -296l145 294l28 -14l-259 -517l-29 14l97 190l-164 314zM112 532l35 -36l-35 -35l-35 35zM266 532l35 -36l-35 -35l-34 35z" />
    <glyph glyph-name="dotlessi" unicode="&#x131;" horiz-adv-x="160" 
d="M96 363v-363l-32 -9v363z" />
    <glyph glyph-name="Lslash" unicode="&#x141;" horiz-adv-x="459" 
d="M134 725v-362l172 108v-34l-172 -109v-296h326l-11 -32h-350v312l-76 -47v34l76 46v370z" />
    <glyph glyph-name="lslash" unicode="&#x142;" horiz-adv-x="192" 
d="M112 725v-433l64 39v-30l-64 -41v-260l-32 -9v253l-64 -39v29l64 41v440z" />
    <glyph glyph-name="OE" unicode="&#x152;" horiz-adv-x="969" 
d="M533 715h377l12 -31h-322q78 -44 126.5 -121t58.5 -177h122v-31h-121q-8 -218 -190 -323h351l-13 -32h-403q-67 -19 -119 -19q-140 0 -242 89q-64 56 -98 130.5t-34 157.5q0 169 132 287q100 89 242 89q67 0 121 -19zM412 701q-143 0 -240 -100t-97 -243t97.5 -243.5
t239.5 -100.5q143 0 240 100t97 244q0 143 -97 243t-240 100z" />
    <glyph glyph-name="oe" unicode="&#x153;" horiz-adv-x="721" 
d="M395 98q-24 -52 -71 -81.5t-102 -29.5q-80 0 -135.5 56t-55.5 136t55.5 136.5t135.5 56.5q56 0 103 -29.5t71 -81.5q23 51 70 81t103 30q84 0 152 -77l-297 -179q48 -97 146 -97q56 0 114 38v-35q-54 -35 -115 -35q-56 0 -102 29t-72 82zM222 19q66 0 111.5 47t45.5 114
q0 66 -45.5 113t-111.5 47t-111 -46t-45 -114t45 -114.5t111 -46.5zM414 145l255 154q-41 41 -99 41q-66 0 -112.5 -46t-46.5 -114q0 -17 3 -35z" />
    <glyph glyph-name="Scaron" unicode="&#x160;" horiz-adv-x="454" 
d="M396 661l-23 -24q-63 63 -136 63q-69 0 -112 -46t-43 -121q0 -17 3 -31.5t5.5 -25.5t12 -22t14.5 -18t20 -16t21.5 -13t27 -12t28 -11t33 -12t34.5 -12q127 -45 127 -172q0 -89 -57.5 -147.5t-144.5 -58.5q-119 0 -175 104l29 23q55 -95 146 -95q72 0 118.5 49t46.5 125
q0 19 -2.5 34.5t-10 29t-13 23t-20 19.5t-22 15.5t-28.5 14t-30.5 12t-36 12.5t-37.5 13q-126 44 -126 168q0 88 56.5 145t143.5 57q92 0 151 -70zM103 948h31l93 -132l93 132h30l-99 -159l-48 -1z" />
    <glyph glyph-name="scaron" unicode="&#x161;" horiz-adv-x="262" 
d="M228 327l-19 -20q-31 34 -72 34q-27 0 -46.5 -20.5t-19.5 -51.5q0 -30 17 -43.5t58 -27.5q44 -15 64.5 -39.5t20.5 -64.5q0 -46 -30.5 -76.5t-76.5 -30.5q-58 0 -92 45l18 24q32 -41 73 -41q33 0 54 21t21 55q0 33 -18 49.5t-59 31.5q-45 16 -64.5 36.5t-19.5 57.5
q0 45 29.5 75t73.5 30q52 0 88 -44zM7 586h31l93 -132l93 132h30l-99 -159l-48 -1z" />
    <glyph glyph-name="Ydieresis" unicode="&#x178;" horiz-adv-x="554" 
d="M50 722l233 -453l232 453l29 -14l-367 -717l-30 11l118 230l-245 477zM200 894l35 -36l-35 -35l-35 35zM354 894l35 -36l-35 -35l-34 35z" />
    <glyph glyph-name="Zcaron" unicode="&#x17d;" horiz-adv-x="572" 
d="M53 715h473l-443 -683h474l-10 -32h-524l444 683h-424zM162 948h31l93 -132l93 132h30l-99 -159l-48 -1z" />
    <glyph glyph-name="zcaron" unicode="&#x17e;" horiz-adv-x="354" 
d="M50 359h287l-257 -329h252l-11 -30h-301l257 329h-237zM53 586h31l93 -132l93 132h30l-99 -159l-48 -1z" />
    <glyph glyph-name="florin" unicode="&#x192;" horiz-adv-x="551" 
d="M470 635l-10 -31q-24 8 -38 8q-39 0 -62.5 -29.5t-37.5 -92.5l-23 -103h87l-7 -30h-90l-73 -322q-22 -99 -53 -147t-89 -48q-16 0 -34 6l7 32q15 -3 27 -3q74 0 104 137l75 345h-82l6 30h83l27 109q36 150 140 150q18 0 43 -11z" />
    <glyph glyph-name="circumflex" unicode="&#x2c6;" 
d="M226 586h48l99 -160h-30l-93 133l-93 -133h-31z" />
    <glyph glyph-name="ring" unicode="&#x2da;" 
d="M250 641q46 0 79 -32.5t33 -79.5t-32.5 -79.5t-79.5 -32.5q-46 0 -79 32.5t-33 79.5t33 79.5t79 32.5zM250 612q-34 0 -58 -24t-24 -59t24 -58.5t58 -23.5t58 23.5t24 58.5t-23.5 59t-58.5 24z" />
    <glyph glyph-name="tilde" unicode="&#x2dc;" 
d="M352 535h28q-13 -33 -30 -47.5t-44 -14.5q-14 0 -34 5l-55 12q-13 3 -25 3q-26 0 -45 -31h-27q21 62 75 62q10 0 27 -3l56 -12q20 -4 29 -4q31 0 45 30z" />
    <glyph glyph-name="endash" unicode="&#x2013;" 
d="M0 196h500v-28h-500v28z" />
    <glyph glyph-name="emdash" unicode="&#x2014;" horiz-adv-x="1000" 
d="M0 196h1000v-28h-1000v28z" />
    <glyph glyph-name="quoteleft" unicode="&#x2018;" horiz-adv-x="222" 
d="M117 731l25 -18q-30 -43 -30 -83q0 -38 30 -82l-25 -19q-39 46 -39 101q0 54 39 101z" />
    <glyph glyph-name="quoteright" unicode="&#x2019;" horiz-adv-x="222" 
d="M103 731q39 -48 39 -101q0 -54 -39 -101l-25 19q30 44 30 82q0 40 -30 83z" />
    <glyph glyph-name="quotesinglbase" unicode="&#x201a;" horiz-adv-x="222" 
d="M103 92q39 -48 39 -101q0 -55 -39 -101l-25 18q30 44 30 83t-30 82z" />
    <glyph glyph-name="quotedblleft" unicode="&#x201c;" horiz-adv-x="356" 
d="M117 731l25 -18q-30 -43 -30 -83q0 -38 30 -82l-25 -19q-39 46 -39 101q0 54 39 101zM252 731l24 -18q-30 -43 -30 -83q0 -38 30 -82l-24 -19q-40 48 -40 101t40 101z" />
    <glyph glyph-name="quotedblright" unicode="&#x201d;" horiz-adv-x="356" 
d="M103 731q39 -48 39 -101q0 -54 -39 -101l-25 19q30 44 30 82q0 40 -30 83zM237 731q39 -48 39 -101q0 -54 -39 -101l-25 19q30 44 30 82q0 40 -30 83z" />
    <glyph glyph-name="quotedblbase" unicode="&#x201e;" horiz-adv-x="356" 
d="M103 92q39 -48 39 -101q0 -55 -39 -101l-25 18q30 44 30 83t-30 82zM237 92q39 -47 39 -101q0 -53 -39 -101l-25 18q30 44 30 83t-30 82z" />
    <glyph glyph-name="dagger" unicode="&#x2020;" 
d="M266 725v-246h153v-33h-153v-445l-32 -10v455h-153v33h153v236z" />
    <glyph glyph-name="daggerdbl" unicode="&#x2021;" 
d="M266 725v-209h153v-33h-153v-249h153v-33h-153v-200l-32 -10v210h-153v33h153v249h-153v33h153v199z" />
    <glyph glyph-name="bullet" unicode="&#x2022;" horiz-adv-x="590" 
d="M150 372q0 60 42.5 102t102.5 42q59 0 101.5 -42t42.5 -102q0 -59 -42.5 -102t-102.5 -43t-102 42.5t-42 102.5z" />
    <glyph glyph-name="ellipsis" unicode="&#x2026;" horiz-adv-x="1000" 
d="M167 60l34 -35l-34 -35l-34 35zM500 60l34 -35l-34 -35l-34 35zM834 60l34 -35l-34 -35l-34 35z" />
    <glyph glyph-name="perthousand" unicode="&#x2030;" horiz-adv-x="1213" 
d="M619 648h34l-466 -660h-34zM32 471q0 72 52 124.5t127 52.5t126.5 -51.5t51.5 -125.5t-52.5 -125.5t-125.5 -51.5t-126 52.5t-53 124.5zM66 471q0 -59 43 -102.5t101 -43.5q59 0 102 42.5t43 103.5q0 62 -42 104t-103 42q-60 0 -102 -43t-42 -103zM418 166
q0 72 51.5 124.5t126.5 52.5t126.5 -51.5t51.5 -125.5t-52.5 -126t-125.5 -52t-125.5 53t-52.5 125zM451 165q0 -59 43 -102.5t101 -43.5q59 0 102 42.5t43 103.5q0 62 -42 104.5t-103 42.5q-60 0 -102 -43.5t-42 -103.5zM824 166q0 72 51.5 124.5t126.5 52.5t127 -51.5
t52 -125.5t-53 -126t-126 -52t-125.5 53t-52.5 125zM858 165q0 -59 43 -102.5t101 -43.5q59 0 102 42.5t43 103.5q0 62 -42 104.5t-103 42.5q-60 0 -102 -43.5t-42 -103.5z" />
    <glyph glyph-name="guilsinglleft" unicode="&#x2039;" horiz-adv-x="204" 
d="M146 290l18 -21l-94 -99l94 -98l-18 -21l-118 119z" />
    <glyph glyph-name="guilsinglright" unicode="&#x203a;" horiz-adv-x="204" 
d="M58 290l118 -120l-118 -119l-18 21l94 98l-94 99z" />
    <glyph glyph-name="fraction" unicode="&#x2044;" horiz-adv-x="167" 
d="M300 648h33l-466 -660h-34z" />
    <glyph glyph-name="Euro" unicode="&#x20ac;" horiz-adv-x="551" 
d="M526 68q-36 -38 -85 -58.5t-97 -20.5q-108 0 -182.5 77t-89.5 198h-64l5 23h57q-1 10 -1 31q0 15 2 45h-63l5 23h61q18 117 92.5 190t177.5 73q99 0 176 -74l-20 -26q-71 69 -156 69q-92 0 -155.5 -64t-80.5 -168h331l-5 -23h-329q-2 -15 -2 -45q0 -21 1 -31h308l-5 -23
h-300q14 -107 78.5 -175.5t155.5 -68.5q93 0 166 73z" />
    <glyph glyph-name="minus" unicode="&#x2212;" horiz-adv-x="833" 
d="M124 313h585v-30h-585v30z" />
    </font>
</defs>
</svg>
